%TF.GenerationSoftware,KiCad,Pcbnew,(5.1.7-0-10_14)*%
%TF.CreationDate,2021-05-20T13:51:09-03:00*%
%TF.ProjectId,MiniMood (tht),4d696e69-4d6f-46f6-9420-28746874292e,1*%
%TF.SameCoordinates,Original*%
%TF.FileFunction,Legend,Bot*%
%TF.FilePolarity,Positive*%
%FSLAX46Y46*%
G04 Gerber Fmt 4.6, Leading zero omitted, Abs format (unit mm)*
G04 Created by KiCad (PCBNEW (5.1.7-0-10_14)) date 2021-05-20 13:51:09*
%MOMM*%
%LPD*%
G01*
G04 APERTURE LIST*
%ADD10C,0.120000*%
%ADD11C,0.150000*%
G04 APERTURE END LIST*
D10*
X262000000Y-54100000D02*
X262000000Y-43900000D01*
X267200000Y-54100000D02*
X262000000Y-54100000D01*
X267200000Y-41300000D02*
X267200000Y-54100000D01*
X264600000Y-41300000D02*
X267200000Y-41300000D01*
X264600000Y-43900000D02*
X264600000Y-41300000D01*
X262000000Y-43900000D02*
X264600000Y-43900000D01*
X262000000Y-41300000D02*
X263400000Y-41300000D01*
X262000000Y-42600000D02*
X262000000Y-41300000D01*
D11*
X269362857Y-50476666D02*
X268886667Y-50476666D01*
X269458095Y-50762380D02*
X269124762Y-49762380D01*
X268791429Y-50762380D01*
X268505714Y-49857619D02*
X268458095Y-49810000D01*
X268362857Y-49762380D01*
X268124762Y-49762380D01*
X268029524Y-49810000D01*
X267981905Y-49857619D01*
X267934286Y-49952857D01*
X267934286Y-50048095D01*
X267981905Y-50190952D01*
X268553333Y-50762380D01*
X267934286Y-50762380D01*
X268886666Y-45742380D02*
X269220000Y-45266190D01*
X269458095Y-45742380D02*
X269458095Y-44742380D01*
X269077142Y-44742380D01*
X268981904Y-44790000D01*
X268934285Y-44837619D01*
X268886666Y-44932857D01*
X268886666Y-45075714D01*
X268934285Y-45170952D01*
X268981904Y-45218571D01*
X269077142Y-45266190D01*
X269458095Y-45266190D01*
X268553333Y-44742380D02*
X267886666Y-45742380D01*
X267886666Y-44742380D02*
X268553333Y-45742380D01*
X269648572Y-53272380D02*
X269981905Y-52796190D01*
X270220000Y-53272380D02*
X270220000Y-52272380D01*
X269839048Y-52272380D01*
X269743810Y-52320000D01*
X269696191Y-52367619D01*
X269648572Y-52462857D01*
X269648572Y-52605714D01*
X269696191Y-52700952D01*
X269743810Y-52748571D01*
X269839048Y-52796190D01*
X270220000Y-52796190D01*
X269267619Y-53224761D02*
X269124762Y-53272380D01*
X268886667Y-53272380D01*
X268791429Y-53224761D01*
X268743810Y-53177142D01*
X268696191Y-53081904D01*
X268696191Y-52986666D01*
X268743810Y-52891428D01*
X268791429Y-52843809D01*
X268886667Y-52796190D01*
X269077143Y-52748571D01*
X269172381Y-52700952D01*
X269220000Y-52653333D01*
X269267619Y-52558095D01*
X269267619Y-52462857D01*
X269220000Y-52367619D01*
X269172381Y-52320000D01*
X269077143Y-52272380D01*
X268839048Y-52272380D01*
X268696191Y-52320000D01*
X268410476Y-52272380D02*
X267839048Y-52272380D01*
X268124762Y-53272380D02*
X268124762Y-52272380D01*
X270505714Y-42232380D02*
X270172381Y-43232380D01*
X269839047Y-42232380D01*
X268934285Y-43137142D02*
X268981904Y-43184761D01*
X269124761Y-43232380D01*
X269220000Y-43232380D01*
X269362857Y-43184761D01*
X269458095Y-43089523D01*
X269505714Y-42994285D01*
X269553333Y-42803809D01*
X269553333Y-42660952D01*
X269505714Y-42470476D01*
X269458095Y-42375238D01*
X269362857Y-42280000D01*
X269220000Y-42232380D01*
X269124761Y-42232380D01*
X268981904Y-42280000D01*
X268934285Y-42327619D01*
X267934285Y-43137142D02*
X267981904Y-43184761D01*
X268124761Y-43232380D01*
X268220000Y-43232380D01*
X268362857Y-43184761D01*
X268458095Y-43089523D01*
X268505714Y-42994285D01*
X268553333Y-42803809D01*
X268553333Y-42660952D01*
X268505714Y-42470476D01*
X268458095Y-42375238D01*
X268362857Y-42280000D01*
X268220000Y-42232380D01*
X268124761Y-42232380D01*
X267981904Y-42280000D01*
X267934285Y-42327619D01*
X270410476Y-48252380D02*
X270410476Y-47252380D01*
X270172381Y-47252380D01*
X270029524Y-47300000D01*
X269934286Y-47395238D01*
X269886667Y-47490476D01*
X269839048Y-47680952D01*
X269839048Y-47823809D01*
X269886667Y-48014285D01*
X269934286Y-48109523D01*
X270029524Y-48204761D01*
X270172381Y-48252380D01*
X270410476Y-48252380D01*
X268886667Y-48252380D02*
X269458095Y-48252380D01*
X269172381Y-48252380D02*
X269172381Y-47252380D01*
X269267619Y-47395238D01*
X269362857Y-47490476D01*
X269458095Y-47538095D01*
X268029524Y-47252380D02*
X268220000Y-47252380D01*
X268315238Y-47300000D01*
X268362857Y-47347619D01*
X268458095Y-47490476D01*
X268505714Y-47680952D01*
X268505714Y-48061904D01*
X268458095Y-48157142D01*
X268410476Y-48204761D01*
X268315238Y-48252380D01*
X268124762Y-48252380D01*
X268029524Y-48204761D01*
X267981905Y-48157142D01*
X267934286Y-48061904D01*
X267934286Y-47823809D01*
X267981905Y-47728571D01*
X268029524Y-47680952D01*
X268124762Y-47633333D01*
X268315238Y-47633333D01*
X268410476Y-47680952D01*
X268458095Y-47728571D01*
X268505714Y-47823809D01*
X261053333Y-52986666D02*
X260577143Y-52986666D01*
X261148571Y-53272380D02*
X260815238Y-52272380D01*
X260481905Y-53272380D01*
X260243809Y-52272380D02*
X259624762Y-52272380D01*
X259958095Y-52653333D01*
X259815238Y-52653333D01*
X259720000Y-52700952D01*
X259672381Y-52748571D01*
X259624762Y-52843809D01*
X259624762Y-53081904D01*
X259672381Y-53177142D01*
X259720000Y-53224761D01*
X259815238Y-53272380D01*
X260100952Y-53272380D01*
X260196190Y-53224761D01*
X260243809Y-53177142D01*
X261005714Y-50762380D02*
X261005714Y-49762380D01*
X260767619Y-49762380D01*
X260624762Y-49810000D01*
X260529524Y-49905238D01*
X260481905Y-50000476D01*
X260434286Y-50190952D01*
X260434286Y-50333809D01*
X260481905Y-50524285D01*
X260529524Y-50619523D01*
X260624762Y-50714761D01*
X260767619Y-50762380D01*
X261005714Y-50762380D01*
X259481905Y-50762380D02*
X260053333Y-50762380D01*
X259767619Y-50762380D02*
X259767619Y-49762380D01*
X259862857Y-49905238D01*
X259958095Y-50000476D01*
X260053333Y-50048095D01*
X258577143Y-49762380D02*
X259053333Y-49762380D01*
X259100952Y-50238571D01*
X259053333Y-50190952D01*
X258958095Y-50143333D01*
X258720000Y-50143333D01*
X258624762Y-50190952D01*
X258577143Y-50238571D01*
X258529524Y-50333809D01*
X258529524Y-50571904D01*
X258577143Y-50667142D01*
X258624762Y-50714761D01*
X258720000Y-50762380D01*
X258958095Y-50762380D01*
X259053333Y-50714761D01*
X259100952Y-50667142D01*
X260434286Y-48252380D02*
X260767619Y-47776190D01*
X261005714Y-48252380D02*
X261005714Y-47252380D01*
X260624762Y-47252380D01*
X260529524Y-47300000D01*
X260481905Y-47347619D01*
X260434286Y-47442857D01*
X260434286Y-47585714D01*
X260481905Y-47680952D01*
X260529524Y-47728571D01*
X260624762Y-47776190D01*
X261005714Y-47776190D01*
X260053333Y-47966666D02*
X259577143Y-47966666D01*
X260148571Y-48252380D02*
X259815238Y-47252380D01*
X259481905Y-48252380D01*
X259243810Y-47252380D02*
X259005714Y-48252380D01*
X258815238Y-47538095D01*
X258624762Y-48252380D01*
X258386667Y-47252380D01*
X261148571Y-44742380D02*
X260577143Y-44742380D01*
X260862857Y-45742380D02*
X260862857Y-44742380D01*
X260339047Y-44742380D02*
X259672381Y-45742380D01*
X259672381Y-44742380D02*
X260339047Y-45742380D01*
X260481904Y-42280000D02*
X260577142Y-42232380D01*
X260720000Y-42232380D01*
X260862857Y-42280000D01*
X260958095Y-42375238D01*
X261005714Y-42470476D01*
X261053333Y-42660952D01*
X261053333Y-42803809D01*
X261005714Y-42994285D01*
X260958095Y-43089523D01*
X260862857Y-43184761D01*
X260720000Y-43232380D01*
X260624761Y-43232380D01*
X260481904Y-43184761D01*
X260434285Y-43137142D01*
X260434285Y-42803809D01*
X260624761Y-42803809D01*
X260005714Y-43232380D02*
X260005714Y-42232380D01*
X259434285Y-43232380D01*
X259434285Y-42232380D01*
X258958095Y-43232380D02*
X258958095Y-42232380D01*
X258720000Y-42232380D01*
X258577142Y-42280000D01*
X258481904Y-42375238D01*
X258434285Y-42470476D01*
X258386666Y-42660952D01*
X258386666Y-42803809D01*
X258434285Y-42994285D01*
X258481904Y-43089523D01*
X258577142Y-43184761D01*
X258720000Y-43232380D01*
X258958095Y-43232380D01*
X431246309Y-25749761D02*
X431246309Y-23749761D01*
X430579642Y-25178333D01*
X429912976Y-23749761D01*
X429912976Y-25749761D01*
X428960595Y-25749761D02*
X428960595Y-24416428D01*
X428960595Y-23749761D02*
X429055833Y-23845000D01*
X428960595Y-23940238D01*
X428865357Y-23845000D01*
X428960595Y-23749761D01*
X428960595Y-23940238D01*
X427151071Y-25749761D02*
X427151071Y-23749761D01*
X427151071Y-25654523D02*
X427341547Y-25749761D01*
X427722500Y-25749761D01*
X427912976Y-25654523D01*
X428008214Y-25559285D01*
X428103452Y-25368809D01*
X428103452Y-24797380D01*
X428008214Y-24606904D01*
X427912976Y-24511666D01*
X427722500Y-24416428D01*
X427341547Y-24416428D01*
X427151071Y-24511666D01*
X426198690Y-25749761D02*
X426198690Y-24416428D01*
X426198690Y-23749761D02*
X426293928Y-23845000D01*
X426198690Y-23940238D01*
X426103452Y-23845000D01*
X426198690Y-23749761D01*
X426198690Y-23940238D01*
X425246309Y-25749761D02*
X425246309Y-23749761D01*
X424579642Y-25178333D01*
X423912976Y-23749761D01*
X423912976Y-25749761D01*
X422674880Y-25749761D02*
X422865357Y-25654523D01*
X422960595Y-25559285D01*
X423055833Y-25368809D01*
X423055833Y-24797380D01*
X422960595Y-24606904D01*
X422865357Y-24511666D01*
X422674880Y-24416428D01*
X422389166Y-24416428D01*
X422198690Y-24511666D01*
X422103452Y-24606904D01*
X422008214Y-24797380D01*
X422008214Y-25368809D01*
X422103452Y-25559285D01*
X422198690Y-25654523D01*
X422389166Y-25749761D01*
X422674880Y-25749761D01*
X420865357Y-25749761D02*
X421055833Y-25654523D01*
X421151071Y-25559285D01*
X421246309Y-25368809D01*
X421246309Y-24797380D01*
X421151071Y-24606904D01*
X421055833Y-24511666D01*
X420865357Y-24416428D01*
X420579642Y-24416428D01*
X420389166Y-24511666D01*
X420293928Y-24606904D01*
X420198690Y-24797380D01*
X420198690Y-25368809D01*
X420293928Y-25559285D01*
X420389166Y-25654523D01*
X420579642Y-25749761D01*
X420865357Y-25749761D01*
X418484404Y-25749761D02*
X418484404Y-23749761D01*
X418484404Y-25654523D02*
X418674880Y-25749761D01*
X419055833Y-25749761D01*
X419246309Y-25654523D01*
X419341547Y-25559285D01*
X419436785Y-25368809D01*
X419436785Y-24797380D01*
X419341547Y-24606904D01*
X419246309Y-24511666D01*
X419055833Y-24416428D01*
X418674880Y-24416428D01*
X418484404Y-24511666D01*
X431246309Y-28899761D02*
X431246309Y-26899761D01*
X431246309Y-27661666D02*
X431055833Y-27566428D01*
X430674880Y-27566428D01*
X430484404Y-27661666D01*
X430389166Y-27756904D01*
X430293928Y-27947380D01*
X430293928Y-28518809D01*
X430389166Y-28709285D01*
X430484404Y-28804523D01*
X430674880Y-28899761D01*
X431055833Y-28899761D01*
X431246309Y-28804523D01*
X429627261Y-27566428D02*
X429151071Y-28899761D01*
X428674880Y-27566428D02*
X429151071Y-28899761D01*
X429341547Y-29375952D01*
X429436785Y-29471190D01*
X429627261Y-29566428D01*
X425341547Y-26995000D02*
X425532023Y-26899761D01*
X425817738Y-26899761D01*
X426103452Y-26995000D01*
X426293928Y-27185476D01*
X426389166Y-27375952D01*
X426484404Y-27756904D01*
X426484404Y-28042619D01*
X426389166Y-28423571D01*
X426293928Y-28614047D01*
X426103452Y-28804523D01*
X425817738Y-28899761D01*
X425627261Y-28899761D01*
X425341547Y-28804523D01*
X425246309Y-28709285D01*
X425246309Y-28042619D01*
X425627261Y-28042619D01*
X423532023Y-27566428D02*
X423532023Y-28899761D01*
X424389166Y-27566428D02*
X424389166Y-28614047D01*
X424293928Y-28804523D01*
X424103452Y-28899761D01*
X423817738Y-28899761D01*
X423627261Y-28804523D01*
X423532023Y-28709285D01*
X422674880Y-28804523D02*
X422484404Y-28899761D01*
X422103452Y-28899761D01*
X421912976Y-28804523D01*
X421817738Y-28614047D01*
X421817738Y-28518809D01*
X421912976Y-28328333D01*
X422103452Y-28233095D01*
X422389166Y-28233095D01*
X422579642Y-28137857D01*
X422674880Y-27947380D01*
X422674880Y-27852142D01*
X422579642Y-27661666D01*
X422389166Y-27566428D01*
X422103452Y-27566428D01*
X421912976Y-27661666D01*
X421246309Y-27566428D02*
X420484404Y-27566428D01*
X420960595Y-26899761D02*
X420960595Y-28614047D01*
X420865357Y-28804523D01*
X420674880Y-28899761D01*
X420484404Y-28899761D01*
X418960595Y-28899761D02*
X418960595Y-27852142D01*
X419055833Y-27661666D01*
X419246309Y-27566428D01*
X419627261Y-27566428D01*
X419817738Y-27661666D01*
X418960595Y-28804523D02*
X419151071Y-28899761D01*
X419627261Y-28899761D01*
X419817738Y-28804523D01*
X419912976Y-28614047D01*
X419912976Y-28423571D01*
X419817738Y-28233095D01*
X419627261Y-28137857D01*
X419151071Y-28137857D01*
X418960595Y-28042619D01*
X418198690Y-27566428D02*
X417722500Y-28899761D01*
X417246309Y-27566428D01*
X416198690Y-28899761D02*
X416389166Y-28804523D01*
X416484404Y-28709285D01*
X416579642Y-28518809D01*
X416579642Y-27947380D01*
X416484404Y-27756904D01*
X416389166Y-27661666D01*
X416198690Y-27566428D01*
X415912976Y-27566428D01*
X415722500Y-27661666D01*
X415627261Y-27756904D01*
X415532023Y-27947380D01*
X415532023Y-28518809D01*
X415627261Y-28709285D01*
X415722500Y-28804523D01*
X415912976Y-28899761D01*
X416198690Y-28899761D01*
X413246309Y-28804523D02*
X412960595Y-28899761D01*
X412484404Y-28899761D01*
X412293928Y-28804523D01*
X412198690Y-28709285D01*
X412103452Y-28518809D01*
X412103452Y-28328333D01*
X412198690Y-28137857D01*
X412293928Y-28042619D01*
X412484404Y-27947380D01*
X412865357Y-27852142D01*
X413055833Y-27756904D01*
X413151071Y-27661666D01*
X413246309Y-27471190D01*
X413246309Y-27280714D01*
X413151071Y-27090238D01*
X413055833Y-26995000D01*
X412865357Y-26899761D01*
X412389166Y-26899761D01*
X412103452Y-26995000D01*
X411246309Y-28899761D02*
X411246309Y-27566428D01*
X411246309Y-26899761D02*
X411341547Y-26995000D01*
X411246309Y-27090238D01*
X411151071Y-26995000D01*
X411246309Y-26899761D01*
X411246309Y-27090238D01*
X410008214Y-28899761D02*
X410198690Y-28804523D01*
X410293928Y-28614047D01*
X410293928Y-26899761D01*
X409436785Y-27566428D02*
X408960595Y-28899761D01*
X408484404Y-27566428D01*
X406960595Y-28804523D02*
X407151071Y-28899761D01*
X407532023Y-28899761D01*
X407722500Y-28804523D01*
X407817738Y-28614047D01*
X407817738Y-27852142D01*
X407722500Y-27661666D01*
X407532023Y-27566428D01*
X407151071Y-27566428D01*
X406960595Y-27661666D01*
X406865357Y-27852142D01*
X406865357Y-28042619D01*
X407817738Y-28233095D01*
X406008214Y-28899761D02*
X406008214Y-27566428D01*
X406008214Y-26899761D02*
X406103452Y-26995000D01*
X406008214Y-27090238D01*
X405912976Y-26995000D01*
X406008214Y-26899761D01*
X406008214Y-27090238D01*
X405055833Y-28899761D02*
X405055833Y-27566428D01*
X405055833Y-27947380D02*
X404960595Y-27756904D01*
X404865357Y-27661666D01*
X404674880Y-27566428D01*
X404484404Y-27566428D01*
X402960595Y-28899761D02*
X402960595Y-27852142D01*
X403055833Y-27661666D01*
X403246309Y-27566428D01*
X403627261Y-27566428D01*
X403817738Y-27661666D01*
X402960595Y-28804523D02*
X403151071Y-28899761D01*
X403627261Y-28899761D01*
X403817738Y-28804523D01*
X403912976Y-28614047D01*
X403912976Y-28423571D01*
X403817738Y-28233095D01*
X403627261Y-28137857D01*
X403151071Y-28137857D01*
X402960595Y-28042619D01*
X401912976Y-28804523D02*
X401912976Y-28899761D01*
X402008214Y-29090238D01*
X402103452Y-29185476D01*
X398674880Y-28899761D02*
X398674880Y-27852142D01*
X398770119Y-27661666D01*
X398960595Y-27566428D01*
X399341547Y-27566428D01*
X399532023Y-27661666D01*
X398674880Y-28804523D02*
X398865357Y-28899761D01*
X399341547Y-28899761D01*
X399532023Y-28804523D01*
X399627261Y-28614047D01*
X399627261Y-28423571D01*
X399532023Y-28233095D01*
X399341547Y-28137857D01*
X398865357Y-28137857D01*
X398674880Y-28042619D01*
X397722500Y-28709285D02*
X397627261Y-28804523D01*
X397722500Y-28899761D01*
X397817738Y-28804523D01*
X397722500Y-28709285D01*
X397722500Y-28899761D01*
X396770119Y-28899761D02*
X396770119Y-26899761D01*
X396579642Y-28137857D02*
X396008214Y-28899761D01*
X396008214Y-27566428D02*
X396770119Y-28328333D01*
X395151071Y-28709285D02*
X395055833Y-28804523D01*
X395151071Y-28899761D01*
X395246309Y-28804523D01*
X395151071Y-28709285D01*
X395151071Y-28899761D01*
X393341547Y-28899761D02*
X393341547Y-27852142D01*
X393436785Y-27661666D01*
X393627261Y-27566428D01*
X394008214Y-27566428D01*
X394198690Y-27661666D01*
X393341547Y-28804523D02*
X393532023Y-28899761D01*
X394008214Y-28899761D01*
X394198690Y-28804523D01*
X394293928Y-28614047D01*
X394293928Y-28423571D01*
X394198690Y-28233095D01*
X394008214Y-28137857D01*
X393532023Y-28137857D01*
X393341547Y-28042619D01*
X392389166Y-28709285D02*
X392293928Y-28804523D01*
X392389166Y-28899761D01*
X392484404Y-28804523D01*
X392389166Y-28709285D01*
X392389166Y-28899761D01*
X389912976Y-28899761D02*
X389912976Y-26899761D01*
X389246309Y-28328333D01*
X388579642Y-26899761D01*
X388579642Y-28899761D01*
X386770119Y-27566428D02*
X386770119Y-28899761D01*
X387627261Y-27566428D02*
X387627261Y-28614047D01*
X387532023Y-28804523D01*
X387341547Y-28899761D01*
X387055833Y-28899761D01*
X386865357Y-28804523D01*
X386770119Y-28709285D01*
X385912976Y-28804523D02*
X385722500Y-28899761D01*
X385341547Y-28899761D01*
X385151071Y-28804523D01*
X385055833Y-28614047D01*
X385055833Y-28518809D01*
X385151071Y-28328333D01*
X385341547Y-28233095D01*
X385627261Y-28233095D01*
X385817738Y-28137857D01*
X385912976Y-27947380D01*
X385912976Y-27852142D01*
X385817738Y-27661666D01*
X385627261Y-27566428D01*
X385341547Y-27566428D01*
X385151071Y-27661666D01*
X384198690Y-28899761D02*
X384198690Y-27566428D01*
X384198690Y-26899761D02*
X384293928Y-26995000D01*
X384198690Y-27090238D01*
X384103452Y-26995000D01*
X384198690Y-26899761D01*
X384198690Y-27090238D01*
X382389166Y-28804523D02*
X382579642Y-28899761D01*
X382960595Y-28899761D01*
X383151071Y-28804523D01*
X383246309Y-28709285D01*
X383341547Y-28518809D01*
X383341547Y-27947380D01*
X383246309Y-27756904D01*
X383151071Y-27661666D01*
X382960595Y-27566428D01*
X382579642Y-27566428D01*
X382389166Y-27661666D01*
X381246309Y-28899761D02*
X381436785Y-28804523D01*
X381532023Y-28709285D01*
X381627261Y-28518809D01*
X381627261Y-27947380D01*
X381532023Y-27756904D01*
X381436785Y-27661666D01*
X381246309Y-27566428D01*
X380960595Y-27566428D01*
X380770119Y-27661666D01*
X380674880Y-27756904D01*
X380579642Y-27947380D01*
X380579642Y-28518809D01*
X380674880Y-28709285D01*
X380770119Y-28804523D01*
X380960595Y-28899761D01*
X381246309Y-28899761D01*
X378198690Y-28899761D02*
X378198690Y-26899761D01*
X377055833Y-28899761D01*
X377055833Y-26899761D01*
X375341547Y-28804523D02*
X375532023Y-28899761D01*
X375912976Y-28899761D01*
X376103452Y-28804523D01*
X376198690Y-28614047D01*
X376198690Y-27852142D01*
X376103452Y-27661666D01*
X375912976Y-27566428D01*
X375532023Y-27566428D01*
X375341547Y-27661666D01*
X375246309Y-27852142D01*
X375246309Y-28042619D01*
X376198690Y-28233095D01*
X374389166Y-28899761D02*
X374389166Y-27566428D01*
X374389166Y-27947380D02*
X374293928Y-27756904D01*
X374198690Y-27661666D01*
X374008214Y-27566428D01*
X373817738Y-27566428D01*
X372293928Y-28899761D02*
X372293928Y-26899761D01*
X372293928Y-28804523D02*
X372484404Y-28899761D01*
X372865357Y-28899761D01*
X373055833Y-28804523D01*
X373151071Y-28709285D01*
X373246309Y-28518809D01*
X373246309Y-27947380D01*
X373151071Y-27756904D01*
X373055833Y-27661666D01*
X372865357Y-27566428D01*
X372484404Y-27566428D01*
X372293928Y-27661666D01*
X430389166Y-30716428D02*
X430389166Y-32335476D01*
X430484404Y-32525952D01*
X430579642Y-32621190D01*
X430770119Y-32716428D01*
X431055833Y-32716428D01*
X431246309Y-32621190D01*
X430389166Y-31954523D02*
X430579642Y-32049761D01*
X430960595Y-32049761D01*
X431151071Y-31954523D01*
X431246309Y-31859285D01*
X431341547Y-31668809D01*
X431341547Y-31097380D01*
X431246309Y-30906904D01*
X431151071Y-30811666D01*
X430960595Y-30716428D01*
X430579642Y-30716428D01*
X430389166Y-30811666D01*
X428579642Y-30716428D02*
X428579642Y-32049761D01*
X429436785Y-30716428D02*
X429436785Y-31764047D01*
X429341547Y-31954523D01*
X429151071Y-32049761D01*
X428865357Y-32049761D01*
X428674880Y-31954523D01*
X428579642Y-31859285D01*
X427722500Y-31954523D02*
X427532023Y-32049761D01*
X427151071Y-32049761D01*
X426960595Y-31954523D01*
X426865357Y-31764047D01*
X426865357Y-31668809D01*
X426960595Y-31478333D01*
X427151071Y-31383095D01*
X427436785Y-31383095D01*
X427627261Y-31287857D01*
X427722500Y-31097380D01*
X427722500Y-31002142D01*
X427627261Y-30811666D01*
X427436785Y-30716428D01*
X427151071Y-30716428D01*
X426960595Y-30811666D01*
X426293928Y-30716428D02*
X425532023Y-30716428D01*
X426008214Y-30049761D02*
X426008214Y-31764047D01*
X425912976Y-31954523D01*
X425722500Y-32049761D01*
X425532023Y-32049761D01*
X424008214Y-32049761D02*
X424008214Y-31002142D01*
X424103452Y-30811666D01*
X424293928Y-30716428D01*
X424674880Y-30716428D01*
X424865357Y-30811666D01*
X424008214Y-31954523D02*
X424198690Y-32049761D01*
X424674880Y-32049761D01*
X424865357Y-31954523D01*
X424960595Y-31764047D01*
X424960595Y-31573571D01*
X424865357Y-31383095D01*
X424674880Y-31287857D01*
X424198690Y-31287857D01*
X424008214Y-31192619D01*
X423246309Y-30716428D02*
X422770119Y-32049761D01*
X422293928Y-30716428D01*
X421246309Y-32049761D02*
X421436785Y-31954523D01*
X421532023Y-31859285D01*
X421627261Y-31668809D01*
X421627261Y-31097380D01*
X421532023Y-30906904D01*
X421436785Y-30811666D01*
X421246309Y-30716428D01*
X420960595Y-30716428D01*
X420770119Y-30811666D01*
X420674880Y-30906904D01*
X420579642Y-31097380D01*
X420579642Y-31668809D01*
X420674880Y-31859285D01*
X420770119Y-31954523D01*
X420960595Y-32049761D01*
X421246309Y-32049761D01*
X419817738Y-31954523D02*
X419627261Y-32049761D01*
X419246309Y-32049761D01*
X419055833Y-31954523D01*
X418960595Y-31764047D01*
X418960595Y-31668809D01*
X419055833Y-31478333D01*
X419246309Y-31383095D01*
X419532023Y-31383095D01*
X419722500Y-31287857D01*
X419817738Y-31097380D01*
X419817738Y-31002142D01*
X419722500Y-30811666D01*
X419532023Y-30716428D01*
X419246309Y-30716428D01*
X419055833Y-30811666D01*
X418103452Y-32049761D02*
X418103452Y-30716428D01*
X418103452Y-30049761D02*
X418198690Y-30145000D01*
X418103452Y-30240238D01*
X418008214Y-30145000D01*
X418103452Y-30049761D01*
X418103452Y-30240238D01*
X416865357Y-32049761D02*
X417055833Y-31954523D01*
X417151071Y-31764047D01*
X417151071Y-30049761D01*
X416293928Y-30716428D02*
X415817738Y-32049761D01*
X415341547Y-30716428D01*
X413817738Y-31954523D02*
X414008214Y-32049761D01*
X414389166Y-32049761D01*
X414579642Y-31954523D01*
X414674880Y-31764047D01*
X414674880Y-31002142D01*
X414579642Y-30811666D01*
X414389166Y-30716428D01*
X414008214Y-30716428D01*
X413817738Y-30811666D01*
X413722500Y-31002142D01*
X413722500Y-31192619D01*
X414674880Y-31383095D01*
X412865357Y-32049761D02*
X412865357Y-30716428D01*
X412865357Y-30049761D02*
X412960595Y-30145000D01*
X412865357Y-30240238D01*
X412770119Y-30145000D01*
X412865357Y-30049761D01*
X412865357Y-30240238D01*
X411912976Y-32049761D02*
X411912976Y-30716428D01*
X411912976Y-31097380D02*
X411817738Y-30906904D01*
X411722500Y-30811666D01*
X411532023Y-30716428D01*
X411341547Y-30716428D01*
X409817738Y-32049761D02*
X409817738Y-31002142D01*
X409912976Y-30811666D01*
X410103452Y-30716428D01*
X410484404Y-30716428D01*
X410674880Y-30811666D01*
X409817738Y-31954523D02*
X410008214Y-32049761D01*
X410484404Y-32049761D01*
X410674880Y-31954523D01*
X410770119Y-31764047D01*
X410770119Y-31573571D01*
X410674880Y-31383095D01*
X410484404Y-31287857D01*
X410008214Y-31287857D01*
X409817738Y-31192619D01*
X407627261Y-31097380D02*
X407722500Y-31002142D01*
X407912976Y-30906904D01*
X408103452Y-30906904D01*
X408293928Y-31002142D01*
X408389166Y-31097380D01*
X408484404Y-31287857D01*
X408484404Y-31478333D01*
X408389166Y-31668809D01*
X408293928Y-31764047D01*
X408103452Y-31859285D01*
X407912976Y-31859285D01*
X407722500Y-31764047D01*
X407627261Y-31668809D01*
X407627261Y-30906904D02*
X407627261Y-31668809D01*
X407532023Y-31764047D01*
X407436785Y-31764047D01*
X407246309Y-31668809D01*
X407151071Y-31478333D01*
X407151071Y-31002142D01*
X407341547Y-30716428D01*
X407627261Y-30525952D01*
X408008214Y-30430714D01*
X408389166Y-30525952D01*
X408674880Y-30716428D01*
X408865357Y-31002142D01*
X408960595Y-31383095D01*
X408865357Y-31764047D01*
X408674880Y-32049761D01*
X408389166Y-32240238D01*
X408008214Y-32335476D01*
X407627261Y-32240238D01*
X407341547Y-32049761D01*
X406293928Y-32049761D02*
X406293928Y-30716428D01*
X406293928Y-30906904D02*
X406198690Y-30811666D01*
X406008214Y-30716428D01*
X405722500Y-30716428D01*
X405532023Y-30811666D01*
X405436785Y-31002142D01*
X405436785Y-32049761D01*
X405436785Y-31002142D02*
X405341547Y-30811666D01*
X405151071Y-30716428D01*
X404865357Y-30716428D01*
X404674880Y-30811666D01*
X404579642Y-31002142D01*
X404579642Y-32049761D01*
X402770119Y-30716428D02*
X402770119Y-32049761D01*
X403627261Y-30716428D02*
X403627261Y-31764047D01*
X403532023Y-31954523D01*
X403341547Y-32049761D01*
X403055833Y-32049761D01*
X402865357Y-31954523D01*
X402770119Y-31859285D01*
X401912976Y-31954523D02*
X401722500Y-32049761D01*
X401341547Y-32049761D01*
X401151071Y-31954523D01*
X401055833Y-31764047D01*
X401055833Y-31668809D01*
X401151071Y-31478333D01*
X401341547Y-31383095D01*
X401627261Y-31383095D01*
X401817738Y-31287857D01*
X401912976Y-31097380D01*
X401912976Y-31002142D01*
X401817738Y-30811666D01*
X401627261Y-30716428D01*
X401341547Y-30716428D01*
X401151071Y-30811666D01*
X400198690Y-32049761D02*
X400198690Y-30716428D01*
X400198690Y-30049761D02*
X400293928Y-30145000D01*
X400198690Y-30240238D01*
X400103452Y-30145000D01*
X400198690Y-30049761D01*
X400198690Y-30240238D01*
X398389166Y-31954523D02*
X398579642Y-32049761D01*
X398960595Y-32049761D01*
X399151071Y-31954523D01*
X399246309Y-31859285D01*
X399341547Y-31668809D01*
X399341547Y-31097380D01*
X399246309Y-30906904D01*
X399151071Y-30811666D01*
X398960595Y-30716428D01*
X398579642Y-30716428D01*
X398389166Y-30811666D01*
X397246309Y-32049761D02*
X397436785Y-31954523D01*
X397532023Y-31859285D01*
X397627261Y-31668809D01*
X397627261Y-31097380D01*
X397532023Y-30906904D01*
X397436785Y-30811666D01*
X397246309Y-30716428D01*
X396960595Y-30716428D01*
X396770119Y-30811666D01*
X396674880Y-30906904D01*
X396579642Y-31097380D01*
X396579642Y-31668809D01*
X396674880Y-31859285D01*
X396770119Y-31954523D01*
X396960595Y-32049761D01*
X397246309Y-32049761D01*
X395722500Y-30716428D02*
X395722500Y-32049761D01*
X395722500Y-30906904D02*
X395627261Y-30811666D01*
X395436785Y-30716428D01*
X395151071Y-30716428D01*
X394960595Y-30811666D01*
X394865357Y-31002142D01*
X394865357Y-32049761D01*
X393151071Y-31954523D02*
X393341547Y-32049761D01*
X393722500Y-32049761D01*
X393912976Y-31954523D01*
X394008214Y-31764047D01*
X394008214Y-31002142D01*
X393912976Y-30811666D01*
X393722500Y-30716428D01*
X393341547Y-30716428D01*
X393151071Y-30811666D01*
X393055833Y-31002142D01*
X393055833Y-31192619D01*
X394008214Y-31383095D01*
X392198690Y-32049761D02*
X392198690Y-30716428D01*
X392198690Y-31097380D02*
X392103452Y-30906904D01*
X392008214Y-30811666D01*
X391817738Y-30716428D01*
X391627261Y-30716428D01*
X390103452Y-32049761D02*
X390103452Y-30049761D01*
X390103452Y-31954523D02*
X390293928Y-32049761D01*
X390674880Y-32049761D01*
X390865357Y-31954523D01*
X390960595Y-31859285D01*
X391055833Y-31668809D01*
X391055833Y-31097380D01*
X390960595Y-30906904D01*
X390865357Y-30811666D01*
X390674880Y-30716428D01*
X390293928Y-30716428D01*
X390103452Y-30811666D01*
X389151071Y-31859285D02*
X389055833Y-31954523D01*
X389151071Y-32049761D01*
X389246309Y-31954523D01*
X389151071Y-31859285D01*
X389151071Y-32049761D01*
X387341547Y-31954523D02*
X387532023Y-32049761D01*
X387912976Y-32049761D01*
X388103452Y-31954523D01*
X388198690Y-31859285D01*
X388293928Y-31668809D01*
X388293928Y-31097380D01*
X388198690Y-30906904D01*
X388103452Y-30811666D01*
X387912976Y-30716428D01*
X387532023Y-30716428D01*
X387341547Y-30811666D01*
X386198690Y-32049761D02*
X386389166Y-31954523D01*
X386484404Y-31859285D01*
X386579642Y-31668809D01*
X386579642Y-31097380D01*
X386484404Y-30906904D01*
X386389166Y-30811666D01*
X386198690Y-30716428D01*
X385912976Y-30716428D01*
X385722500Y-30811666D01*
X385627261Y-30906904D01*
X385532023Y-31097380D01*
X385532023Y-31668809D01*
X385627261Y-31859285D01*
X385722500Y-31954523D01*
X385912976Y-32049761D01*
X386198690Y-32049761D01*
X384674880Y-32049761D02*
X384674880Y-30716428D01*
X384674880Y-30906904D02*
X384579642Y-30811666D01*
X384389166Y-30716428D01*
X384103452Y-30716428D01*
X383912976Y-30811666D01*
X383817738Y-31002142D01*
X383817738Y-32049761D01*
X383817738Y-31002142D02*
X383722500Y-30811666D01*
X383532023Y-30716428D01*
X383246309Y-30716428D01*
X383055833Y-30811666D01*
X382960595Y-31002142D01*
X382960595Y-32049761D01*
X430579642Y-34152142D02*
X431246309Y-34152142D01*
X431246309Y-35199761D02*
X431246309Y-33199761D01*
X430293928Y-33199761D01*
X429246309Y-35199761D02*
X429436785Y-35104523D01*
X429532023Y-35009285D01*
X429627261Y-34818809D01*
X429627261Y-34247380D01*
X429532023Y-34056904D01*
X429436785Y-33961666D01*
X429246309Y-33866428D01*
X428960595Y-33866428D01*
X428770119Y-33961666D01*
X428674880Y-34056904D01*
X428579642Y-34247380D01*
X428579642Y-34818809D01*
X428674880Y-35009285D01*
X428770119Y-35104523D01*
X428960595Y-35199761D01*
X429246309Y-35199761D01*
X427722500Y-35199761D02*
X427722500Y-33866428D01*
X427722500Y-34247380D02*
X427627261Y-34056904D01*
X427532023Y-33961666D01*
X427341547Y-33866428D01*
X427151071Y-33866428D01*
X424960595Y-33866428D02*
X424960595Y-35866428D01*
X424960595Y-33961666D02*
X424770119Y-33866428D01*
X424389166Y-33866428D01*
X424198690Y-33961666D01*
X424103452Y-34056904D01*
X424008214Y-34247380D01*
X424008214Y-34818809D01*
X424103452Y-35009285D01*
X424198690Y-35104523D01*
X424389166Y-35199761D01*
X424770119Y-35199761D01*
X424960595Y-35104523D01*
X422389166Y-35104523D02*
X422579642Y-35199761D01*
X422960595Y-35199761D01*
X423151071Y-35104523D01*
X423246309Y-34914047D01*
X423246309Y-34152142D01*
X423151071Y-33961666D01*
X422960595Y-33866428D01*
X422579642Y-33866428D01*
X422389166Y-33961666D01*
X422293928Y-34152142D01*
X422293928Y-34342619D01*
X423246309Y-34533095D01*
X421436785Y-35199761D02*
X421436785Y-33866428D01*
X421436785Y-34247380D02*
X421341547Y-34056904D01*
X421246309Y-33961666D01*
X421055833Y-33866428D01*
X420865357Y-33866428D01*
X420293928Y-35104523D02*
X420103452Y-35199761D01*
X419722500Y-35199761D01*
X419532023Y-35104523D01*
X419436785Y-34914047D01*
X419436785Y-34818809D01*
X419532023Y-34628333D01*
X419722500Y-34533095D01*
X420008214Y-34533095D01*
X420198690Y-34437857D01*
X420293928Y-34247380D01*
X420293928Y-34152142D01*
X420198690Y-33961666D01*
X420008214Y-33866428D01*
X419722500Y-33866428D01*
X419532023Y-33961666D01*
X418293928Y-35199761D02*
X418484404Y-35104523D01*
X418579642Y-35009285D01*
X418674880Y-34818809D01*
X418674880Y-34247380D01*
X418579642Y-34056904D01*
X418484404Y-33961666D01*
X418293928Y-33866428D01*
X418008214Y-33866428D01*
X417817738Y-33961666D01*
X417722500Y-34056904D01*
X417627261Y-34247380D01*
X417627261Y-34818809D01*
X417722500Y-35009285D01*
X417817738Y-35104523D01*
X418008214Y-35199761D01*
X418293928Y-35199761D01*
X416770119Y-33866428D02*
X416770119Y-35199761D01*
X416770119Y-34056904D02*
X416674880Y-33961666D01*
X416484404Y-33866428D01*
X416198690Y-33866428D01*
X416008214Y-33961666D01*
X415912976Y-34152142D01*
X415912976Y-35199761D01*
X414103452Y-35199761D02*
X414103452Y-34152142D01*
X414198690Y-33961666D01*
X414389166Y-33866428D01*
X414770119Y-33866428D01*
X414960595Y-33961666D01*
X414103452Y-35104523D02*
X414293928Y-35199761D01*
X414770119Y-35199761D01*
X414960595Y-35104523D01*
X415055833Y-34914047D01*
X415055833Y-34723571D01*
X414960595Y-34533095D01*
X414770119Y-34437857D01*
X414293928Y-34437857D01*
X414103452Y-34342619D01*
X412865357Y-35199761D02*
X413055833Y-35104523D01*
X413151071Y-34914047D01*
X413151071Y-33199761D01*
X409722500Y-33866428D02*
X409722500Y-35199761D01*
X410579642Y-33866428D02*
X410579642Y-34914047D01*
X410484404Y-35104523D01*
X410293928Y-35199761D01*
X410008214Y-35199761D01*
X409817738Y-35104523D01*
X409722500Y-35009285D01*
X408865357Y-35104523D02*
X408674880Y-35199761D01*
X408293928Y-35199761D01*
X408103452Y-35104523D01*
X408008214Y-34914047D01*
X408008214Y-34818809D01*
X408103452Y-34628333D01*
X408293928Y-34533095D01*
X408579642Y-34533095D01*
X408770119Y-34437857D01*
X408865357Y-34247380D01*
X408865357Y-34152142D01*
X408770119Y-33961666D01*
X408579642Y-33866428D01*
X408293928Y-33866428D01*
X408103452Y-33961666D01*
X406389166Y-35104523D02*
X406579642Y-35199761D01*
X406960595Y-35199761D01*
X407151071Y-35104523D01*
X407246309Y-34914047D01*
X407246309Y-34152142D01*
X407151071Y-33961666D01*
X406960595Y-33866428D01*
X406579642Y-33866428D01*
X406389166Y-33961666D01*
X406293928Y-34152142D01*
X406293928Y-34342619D01*
X407246309Y-34533095D01*
X403627261Y-35199761D02*
X403817738Y-35104523D01*
X403912976Y-35009285D01*
X404008214Y-34818809D01*
X404008214Y-34247380D01*
X403912976Y-34056904D01*
X403817738Y-33961666D01*
X403627261Y-33866428D01*
X403341547Y-33866428D01*
X403151071Y-33961666D01*
X403055833Y-34056904D01*
X402960595Y-34247380D01*
X402960595Y-34818809D01*
X403055833Y-35009285D01*
X403151071Y-35104523D01*
X403341547Y-35199761D01*
X403627261Y-35199761D01*
X402103452Y-33866428D02*
X402103452Y-35199761D01*
X402103452Y-34056904D02*
X402008214Y-33961666D01*
X401817738Y-33866428D01*
X401532023Y-33866428D01*
X401341547Y-33961666D01*
X401246309Y-34152142D01*
X401246309Y-35199761D01*
X400008214Y-35199761D02*
X400198690Y-35104523D01*
X400293928Y-34914047D01*
X400293928Y-33199761D01*
X399436785Y-33866428D02*
X398960595Y-35199761D01*
X398484404Y-33866428D02*
X398960595Y-35199761D01*
X399151071Y-35675952D01*
X399246309Y-35771190D01*
X399436785Y-35866428D01*
X430103452Y-38349761D02*
X430770119Y-37397380D01*
X431246309Y-38349761D02*
X431246309Y-36349761D01*
X430484404Y-36349761D01*
X430293928Y-36445000D01*
X430198690Y-36540238D01*
X430103452Y-36730714D01*
X430103452Y-37016428D01*
X430198690Y-37206904D01*
X430293928Y-37302142D01*
X430484404Y-37397380D01*
X431246309Y-37397380D01*
X428484404Y-38254523D02*
X428674880Y-38349761D01*
X429055833Y-38349761D01*
X429246309Y-38254523D01*
X429341547Y-38064047D01*
X429341547Y-37302142D01*
X429246309Y-37111666D01*
X429055833Y-37016428D01*
X428674880Y-37016428D01*
X428484404Y-37111666D01*
X428389166Y-37302142D01*
X428389166Y-37492619D01*
X429341547Y-37683095D01*
X427722500Y-37016428D02*
X427246309Y-38349761D01*
X426770119Y-37016428D01*
X426008214Y-38159285D02*
X425912976Y-38254523D01*
X426008214Y-38349761D01*
X426103452Y-38254523D01*
X426008214Y-38159285D01*
X426008214Y-38349761D01*
X423627261Y-36540238D02*
X423532023Y-36445000D01*
X423341547Y-36349761D01*
X422865357Y-36349761D01*
X422674880Y-36445000D01*
X422579642Y-36540238D01*
X422484404Y-36730714D01*
X422484404Y-36921190D01*
X422579642Y-37206904D01*
X423722500Y-38349761D01*
X422484404Y-38349761D01*
X431341547Y-39690238D02*
X431246309Y-39595000D01*
X431055833Y-39499761D01*
X430579642Y-39499761D01*
X430389166Y-39595000D01*
X430293928Y-39690238D01*
X430198690Y-39880714D01*
X430198690Y-40071190D01*
X430293928Y-40356904D01*
X431436785Y-41499761D01*
X430198690Y-41499761D01*
X428960595Y-39499761D02*
X428770119Y-39499761D01*
X428579642Y-39595000D01*
X428484404Y-39690238D01*
X428389166Y-39880714D01*
X428293928Y-40261666D01*
X428293928Y-40737857D01*
X428389166Y-41118809D01*
X428484404Y-41309285D01*
X428579642Y-41404523D01*
X428770119Y-41499761D01*
X428960595Y-41499761D01*
X429151071Y-41404523D01*
X429246309Y-41309285D01*
X429341547Y-41118809D01*
X429436785Y-40737857D01*
X429436785Y-40261666D01*
X429341547Y-39880714D01*
X429246309Y-39690238D01*
X429151071Y-39595000D01*
X428960595Y-39499761D01*
X427532023Y-39690238D02*
X427436785Y-39595000D01*
X427246309Y-39499761D01*
X426770119Y-39499761D01*
X426579642Y-39595000D01*
X426484404Y-39690238D01*
X426389166Y-39880714D01*
X426389166Y-40071190D01*
X426484404Y-40356904D01*
X427627261Y-41499761D01*
X426389166Y-41499761D01*
X424484404Y-41499761D02*
X425627261Y-41499761D01*
X425055833Y-41499761D02*
X425055833Y-39499761D01*
X425246309Y-39785476D01*
X425436785Y-39975952D01*
X425627261Y-40071190D01*
X125606666Y-29780952D02*
X125606666Y-30257142D01*
X125892380Y-29685714D02*
X124892380Y-30019047D01*
X125892380Y-30352380D01*
X125892380Y-30685714D02*
X125225714Y-30685714D01*
X125416190Y-30685714D02*
X125320952Y-30733333D01*
X125273333Y-30780952D01*
X125225714Y-30876190D01*
X125225714Y-30971428D01*
X125892380Y-31733333D02*
X124892380Y-31733333D01*
X125844761Y-31733333D02*
X125892380Y-31638095D01*
X125892380Y-31447619D01*
X125844761Y-31352380D01*
X125797142Y-31304761D01*
X125701904Y-31257142D01*
X125416190Y-31257142D01*
X125320952Y-31304761D01*
X125273333Y-31352380D01*
X125225714Y-31447619D01*
X125225714Y-31638095D01*
X125273333Y-31733333D01*
X125225714Y-32638095D02*
X125892380Y-32638095D01*
X125225714Y-32209523D02*
X125749523Y-32209523D01*
X125844761Y-32257142D01*
X125892380Y-32352380D01*
X125892380Y-32495238D01*
X125844761Y-32590476D01*
X125797142Y-32638095D01*
X125892380Y-33114285D02*
X125225714Y-33114285D01*
X124892380Y-33114285D02*
X124940000Y-33066666D01*
X124987619Y-33114285D01*
X124940000Y-33161904D01*
X124892380Y-33114285D01*
X124987619Y-33114285D01*
X125225714Y-33590476D02*
X125892380Y-33590476D01*
X125320952Y-33590476D02*
X125273333Y-33638095D01*
X125225714Y-33733333D01*
X125225714Y-33876190D01*
X125273333Y-33971428D01*
X125368571Y-34019047D01*
X125892380Y-34019047D01*
X125892380Y-34638095D02*
X125844761Y-34542857D01*
X125797142Y-34495238D01*
X125701904Y-34447619D01*
X125416190Y-34447619D01*
X125320952Y-34495238D01*
X125273333Y-34542857D01*
X125225714Y-34638095D01*
X125225714Y-34780952D01*
X125273333Y-34876190D01*
X125320952Y-34923809D01*
X125416190Y-34971428D01*
X125701904Y-34971428D01*
X125797142Y-34923809D01*
X125844761Y-34876190D01*
X125892380Y-34780952D01*
X125892380Y-34638095D01*
X125892380Y-36161904D02*
X124892380Y-36161904D01*
X124892380Y-36542857D01*
X124940000Y-36638095D01*
X124987619Y-36685714D01*
X125082857Y-36733333D01*
X125225714Y-36733333D01*
X125320952Y-36685714D01*
X125368571Y-36638095D01*
X125416190Y-36542857D01*
X125416190Y-36161904D01*
X125892380Y-37161904D02*
X125225714Y-37161904D01*
X125416190Y-37161904D02*
X125320952Y-37209523D01*
X125273333Y-37257142D01*
X125225714Y-37352380D01*
X125225714Y-37447619D01*
X125892380Y-37923809D02*
X125844761Y-37828571D01*
X125797142Y-37780952D01*
X125701904Y-37733333D01*
X125416190Y-37733333D01*
X125320952Y-37780952D01*
X125273333Y-37828571D01*
X125225714Y-37923809D01*
X125225714Y-38066666D01*
X125273333Y-38161904D01*
X125320952Y-38209523D01*
X125416190Y-38257142D01*
X125701904Y-38257142D01*
X125797142Y-38209523D01*
X125844761Y-38161904D01*
X125892380Y-38066666D01*
X125892380Y-37923809D01*
X125892380Y-39447619D02*
X124892380Y-39447619D01*
X125606666Y-39780952D01*
X124892380Y-40114285D01*
X125892380Y-40114285D01*
X125892380Y-40590476D02*
X125225714Y-40590476D01*
X124892380Y-40590476D02*
X124940000Y-40542857D01*
X124987619Y-40590476D01*
X124940000Y-40638095D01*
X124892380Y-40590476D01*
X124987619Y-40590476D01*
X125844761Y-41495238D02*
X125892380Y-41400000D01*
X125892380Y-41209523D01*
X125844761Y-41114285D01*
X125797142Y-41066666D01*
X125701904Y-41019047D01*
X125416190Y-41019047D01*
X125320952Y-41066666D01*
X125273333Y-41114285D01*
X125225714Y-41209523D01*
X125225714Y-41400000D01*
X125273333Y-41495238D01*
X125892380Y-41923809D02*
X125225714Y-41923809D01*
X125416190Y-41923809D02*
X125320952Y-41971428D01*
X125273333Y-42019047D01*
X125225714Y-42114285D01*
X125225714Y-42209523D01*
X125892380Y-42685714D02*
X125844761Y-42590476D01*
X125797142Y-42542857D01*
X125701904Y-42495238D01*
X125416190Y-42495238D01*
X125320952Y-42542857D01*
X125273333Y-42590476D01*
X125225714Y-42685714D01*
X125225714Y-42828571D01*
X125273333Y-42923809D01*
X125320952Y-42971428D01*
X125416190Y-43019047D01*
X125701904Y-43019047D01*
X125797142Y-42971428D01*
X125844761Y-42923809D01*
X125892380Y-42828571D01*
X125892380Y-42685714D01*
%TO.C,U3*%
X116660000Y-50640000D02*
X134440000Y-50640000D01*
X116660000Y-20160000D02*
X116660000Y-50640000D01*
X121740000Y-20160000D02*
X116660000Y-20160000D01*
X121740000Y-17620000D02*
X121740000Y-20160000D01*
X129360000Y-17620000D02*
X121740000Y-17620000D01*
X129360000Y-20160000D02*
X129360000Y-17620000D01*
X134440000Y-20160000D02*
X129360000Y-20160000D01*
X134440000Y-20160000D02*
X134440000Y-50640000D01*
D10*
%TO.C,4067_1*%
X142800000Y-76750000D02*
X138940000Y-76750000D01*
X138940000Y-76750000D02*
X138940000Y-76485000D01*
X142800000Y-76750000D02*
X146660000Y-76750000D01*
X146660000Y-76750000D02*
X146660000Y-76485000D01*
X142800000Y-61130000D02*
X138940000Y-61130000D01*
X138940000Y-61130000D02*
X138940000Y-61395000D01*
X142800000Y-61130000D02*
X146660000Y-61130000D01*
X146660000Y-61130000D02*
X146660000Y-61395000D01*
X146660000Y-61395000D02*
X148475000Y-61395000D01*
%TO.C,4067_2*%
X270050000Y-81250000D02*
X266190000Y-81250000D01*
X266190000Y-81250000D02*
X266190000Y-80985000D01*
X270050000Y-81250000D02*
X273910000Y-81250000D01*
X273910000Y-81250000D02*
X273910000Y-80985000D01*
X270050000Y-65630000D02*
X266190000Y-65630000D01*
X266190000Y-65630000D02*
X266190000Y-65895000D01*
X270050000Y-65630000D02*
X273910000Y-65630000D01*
X273910000Y-65630000D02*
X273910000Y-65895000D01*
X273910000Y-65895000D02*
X275725000Y-65895000D01*
%TO.C,4067_1*%
D11*
X144895238Y-60075714D02*
X144895238Y-60742380D01*
X145133333Y-59694761D02*
X145371428Y-60409047D01*
X144752380Y-60409047D01*
X144180952Y-59742380D02*
X144085714Y-59742380D01*
X143990476Y-59790000D01*
X143942857Y-59837619D01*
X143895238Y-59932857D01*
X143847619Y-60123333D01*
X143847619Y-60361428D01*
X143895238Y-60551904D01*
X143942857Y-60647142D01*
X143990476Y-60694761D01*
X144085714Y-60742380D01*
X144180952Y-60742380D01*
X144276190Y-60694761D01*
X144323809Y-60647142D01*
X144371428Y-60551904D01*
X144419047Y-60361428D01*
X144419047Y-60123333D01*
X144371428Y-59932857D01*
X144323809Y-59837619D01*
X144276190Y-59790000D01*
X144180952Y-59742380D01*
X142990476Y-59742380D02*
X143180952Y-59742380D01*
X143276190Y-59790000D01*
X143323809Y-59837619D01*
X143419047Y-59980476D01*
X143466666Y-60170952D01*
X143466666Y-60551904D01*
X143419047Y-60647142D01*
X143371428Y-60694761D01*
X143276190Y-60742380D01*
X143085714Y-60742380D01*
X142990476Y-60694761D01*
X142942857Y-60647142D01*
X142895238Y-60551904D01*
X142895238Y-60313809D01*
X142942857Y-60218571D01*
X142990476Y-60170952D01*
X143085714Y-60123333D01*
X143276190Y-60123333D01*
X143371428Y-60170952D01*
X143419047Y-60218571D01*
X143466666Y-60313809D01*
X142561904Y-59742380D02*
X141895238Y-59742380D01*
X142323809Y-60742380D01*
X141752380Y-60837619D02*
X140990476Y-60837619D01*
X140228571Y-60742380D02*
X140800000Y-60742380D01*
X140514285Y-60742380D02*
X140514285Y-59742380D01*
X140609523Y-59885238D01*
X140704761Y-59980476D01*
X140800000Y-60028095D01*
%TO.C,4067_2*%
X272145238Y-64575714D02*
X272145238Y-65242380D01*
X272383333Y-64194761D02*
X272621428Y-64909047D01*
X272002380Y-64909047D01*
X271430952Y-64242380D02*
X271335714Y-64242380D01*
X271240476Y-64290000D01*
X271192857Y-64337619D01*
X271145238Y-64432857D01*
X271097619Y-64623333D01*
X271097619Y-64861428D01*
X271145238Y-65051904D01*
X271192857Y-65147142D01*
X271240476Y-65194761D01*
X271335714Y-65242380D01*
X271430952Y-65242380D01*
X271526190Y-65194761D01*
X271573809Y-65147142D01*
X271621428Y-65051904D01*
X271669047Y-64861428D01*
X271669047Y-64623333D01*
X271621428Y-64432857D01*
X271573809Y-64337619D01*
X271526190Y-64290000D01*
X271430952Y-64242380D01*
X270240476Y-64242380D02*
X270430952Y-64242380D01*
X270526190Y-64290000D01*
X270573809Y-64337619D01*
X270669047Y-64480476D01*
X270716666Y-64670952D01*
X270716666Y-65051904D01*
X270669047Y-65147142D01*
X270621428Y-65194761D01*
X270526190Y-65242380D01*
X270335714Y-65242380D01*
X270240476Y-65194761D01*
X270192857Y-65147142D01*
X270145238Y-65051904D01*
X270145238Y-64813809D01*
X270192857Y-64718571D01*
X270240476Y-64670952D01*
X270335714Y-64623333D01*
X270526190Y-64623333D01*
X270621428Y-64670952D01*
X270669047Y-64718571D01*
X270716666Y-64813809D01*
X269811904Y-64242380D02*
X269145238Y-64242380D01*
X269573809Y-65242380D01*
X269002380Y-65337619D02*
X268240476Y-65337619D01*
X268050000Y-64337619D02*
X268002380Y-64290000D01*
X267907142Y-64242380D01*
X267669047Y-64242380D01*
X267573809Y-64290000D01*
X267526190Y-64337619D01*
X267478571Y-64432857D01*
X267478571Y-64528095D01*
X267526190Y-64670952D01*
X268097619Y-65242380D01*
X267478571Y-65242380D01*
%TO.C,J1*%
X264633333Y-39252380D02*
X264633333Y-39966666D01*
X264680952Y-40109523D01*
X264776190Y-40204761D01*
X264919047Y-40252380D01*
X265014285Y-40252380D01*
X263633333Y-40252380D02*
X264204761Y-40252380D01*
X263919047Y-40252380D02*
X263919047Y-39252380D01*
X264014285Y-39395238D01*
X264109523Y-39490476D01*
X264204761Y-39538095D01*
%TD*%
M02*
