%TF.GenerationSoftware,KiCad,Pcbnew,(5.1.7-0-10_14)*%
%TF.CreationDate,2020-11-04T15:25:09-03:00*%
%TF.ProjectId,Aracde button 24mm 4x4 - 3,41726163-6465-4206-9275-74746f6e2032,rev?*%
%TF.SameCoordinates,Original*%
%TF.FileFunction,Legend,Top*%
%TF.FilePolarity,Positive*%
%FSLAX46Y46*%
G04 Gerber Fmt 4.6, Leading zero omitted, Abs format (unit mm)*
G04 Created by KiCad (PCBNEW (5.1.7-0-10_14)) date 2020-11-04 15:25:09*
%MOMM*%
%LPD*%
G01*
G04 APERTURE LIST*
%ADD10C,0.200000*%
%ADD11C,0.150000*%
%ADD12C,0.120000*%
G04 APERTURE END LIST*
D10*
X61357142Y-101450000D02*
X61214285Y-101378571D01*
X61000000Y-101378571D01*
X60785714Y-101450000D01*
X60642857Y-101592857D01*
X60571428Y-101735714D01*
X60500000Y-102021428D01*
X60500000Y-102235714D01*
X60571428Y-102521428D01*
X60642857Y-102664285D01*
X60785714Y-102807142D01*
X61000000Y-102878571D01*
X61142857Y-102878571D01*
X61357142Y-102807142D01*
X61428571Y-102735714D01*
X61428571Y-102235714D01*
X61142857Y-102235714D01*
X62071428Y-102878571D02*
X62071428Y-101378571D01*
X62928571Y-102878571D01*
X62928571Y-101378571D01*
X63642857Y-102878571D02*
X63642857Y-101378571D01*
X64000000Y-101378571D01*
X64214285Y-101450000D01*
X64357142Y-101592857D01*
X64428571Y-101735714D01*
X64500000Y-102021428D01*
X64500000Y-102235714D01*
X64428571Y-102521428D01*
X64357142Y-102664285D01*
X64214285Y-102807142D01*
X64000000Y-102878571D01*
X63642857Y-102878571D01*
X60499999Y-127807142D02*
X60714285Y-127878571D01*
X61071428Y-127878571D01*
X61214285Y-127807142D01*
X61285714Y-127735714D01*
X61357142Y-127592857D01*
X61357142Y-127450000D01*
X61285714Y-127307142D01*
X61214285Y-127235714D01*
X61071428Y-127164285D01*
X60785714Y-127092857D01*
X60642857Y-127021428D01*
X60571428Y-126950000D01*
X60499999Y-126807142D01*
X60499999Y-126664285D01*
X60571428Y-126521428D01*
X60642857Y-126450000D01*
X60785714Y-126378571D01*
X61142857Y-126378571D01*
X61357142Y-126450000D01*
X61857142Y-126378571D02*
X62785714Y-126378571D01*
X62285714Y-126950000D01*
X62499999Y-126950000D01*
X62642857Y-127021428D01*
X62714285Y-127092857D01*
X62785714Y-127235714D01*
X62785714Y-127592857D01*
X62714285Y-127735714D01*
X62642857Y-127807142D01*
X62499999Y-127878571D01*
X62071428Y-127878571D01*
X61928571Y-127807142D01*
X61857142Y-127735714D01*
X60357143Y-106378571D02*
X60857143Y-107878571D01*
X61357143Y-106378571D01*
X62714285Y-107735714D02*
X62642857Y-107807142D01*
X62428571Y-107878571D01*
X62285714Y-107878571D01*
X62071428Y-107807142D01*
X61928571Y-107664285D01*
X61857143Y-107521428D01*
X61785714Y-107235714D01*
X61785714Y-107021428D01*
X61857143Y-106735714D01*
X61928571Y-106592857D01*
X62071428Y-106450000D01*
X62285714Y-106378571D01*
X62428571Y-106378571D01*
X62642857Y-106450000D01*
X62714285Y-106521428D01*
X64214285Y-107735714D02*
X64142857Y-107807142D01*
X63928571Y-107878571D01*
X63785714Y-107878571D01*
X63571428Y-107807142D01*
X63428571Y-107664285D01*
X63357143Y-107521428D01*
X63285714Y-107235714D01*
X63285714Y-107021428D01*
X63357143Y-106735714D01*
X63428571Y-106592857D01*
X63571428Y-106450000D01*
X63785714Y-106378571D01*
X63928571Y-106378571D01*
X64142857Y-106450000D01*
X64214285Y-106521428D01*
X60499999Y-117807142D02*
X60714285Y-117878571D01*
X61071428Y-117878571D01*
X61214285Y-117807142D01*
X61285714Y-117735714D01*
X61357142Y-117592857D01*
X61357142Y-117450000D01*
X61285714Y-117307142D01*
X61214285Y-117235714D01*
X61071428Y-117164285D01*
X60785714Y-117092857D01*
X60642857Y-117021428D01*
X60571428Y-116950000D01*
X60499999Y-116807142D01*
X60499999Y-116664285D01*
X60571428Y-116521428D01*
X60642857Y-116450000D01*
X60785714Y-116378571D01*
X61142857Y-116378571D01*
X61357142Y-116450000D01*
X62785714Y-117878571D02*
X61928571Y-117878571D01*
X62357142Y-117878571D02*
X62357142Y-116378571D01*
X62214285Y-116592857D01*
X62071428Y-116735714D01*
X61928571Y-116807142D01*
X60499999Y-122807142D02*
X60714285Y-122878571D01*
X61071428Y-122878571D01*
X61214285Y-122807142D01*
X61285714Y-122735714D01*
X61357142Y-122592857D01*
X61357142Y-122450000D01*
X61285714Y-122307142D01*
X61214285Y-122235714D01*
X61071428Y-122164285D01*
X60785714Y-122092857D01*
X60642857Y-122021428D01*
X60571428Y-121950000D01*
X60499999Y-121807142D01*
X60499999Y-121664285D01*
X60571428Y-121521428D01*
X60642857Y-121450000D01*
X60785714Y-121378571D01*
X61142857Y-121378571D01*
X61357142Y-121450000D01*
X61928571Y-121521428D02*
X61999999Y-121450000D01*
X62142857Y-121378571D01*
X62499999Y-121378571D01*
X62642857Y-121450000D01*
X62714285Y-121521428D01*
X62785714Y-121664285D01*
X62785714Y-121807142D01*
X62714285Y-122021428D01*
X61857142Y-122878571D01*
X62785714Y-122878571D01*
X60499999Y-112807142D02*
X60714285Y-112878571D01*
X61071428Y-112878571D01*
X61214285Y-112807142D01*
X61285714Y-112735714D01*
X61357142Y-112592857D01*
X61357142Y-112450000D01*
X61285714Y-112307142D01*
X61214285Y-112235714D01*
X61071428Y-112164285D01*
X60785714Y-112092857D01*
X60642857Y-112021428D01*
X60571428Y-111950000D01*
X60499999Y-111807142D01*
X60499999Y-111664285D01*
X60571428Y-111521428D01*
X60642857Y-111450000D01*
X60785714Y-111378571D01*
X61142857Y-111378571D01*
X61357142Y-111450000D01*
X62285714Y-111378571D02*
X62428571Y-111378571D01*
X62571428Y-111450000D01*
X62642857Y-111521428D01*
X62714285Y-111664285D01*
X62785714Y-111950000D01*
X62785714Y-112307142D01*
X62714285Y-112592857D01*
X62642857Y-112735714D01*
X62571428Y-112807142D01*
X62428571Y-112878571D01*
X62285714Y-112878571D01*
X62142857Y-112807142D01*
X62071428Y-112735714D01*
X61999999Y-112592857D01*
X61928571Y-112307142D01*
X61928571Y-111950000D01*
X61999999Y-111664285D01*
X62071428Y-111521428D01*
X62142857Y-111450000D01*
X62285714Y-111378571D01*
D11*
X141047619Y-56053809D02*
X142047619Y-56053809D01*
X141095238Y-56053809D02*
X141047619Y-55958571D01*
X141047619Y-55768095D01*
X141095238Y-55672857D01*
X141142857Y-55625238D01*
X141238095Y-55577619D01*
X141523809Y-55577619D01*
X141619047Y-55625238D01*
X141666666Y-55672857D01*
X141714285Y-55768095D01*
X141714285Y-55958571D01*
X141666666Y-56053809D01*
X141047619Y-56672857D02*
X141095238Y-56577619D01*
X141142857Y-56530000D01*
X141238095Y-56482380D01*
X141523809Y-56482380D01*
X141619047Y-56530000D01*
X141666666Y-56577619D01*
X141714285Y-56672857D01*
X141714285Y-56815714D01*
X141666666Y-56910952D01*
X141619047Y-56958571D01*
X141523809Y-57006190D01*
X141238095Y-57006190D01*
X141142857Y-56958571D01*
X141095238Y-56910952D01*
X141047619Y-56815714D01*
X141047619Y-56672857D01*
X141714285Y-57863333D02*
X141047619Y-57863333D01*
X141714285Y-57434761D02*
X141190476Y-57434761D01*
X141095238Y-57482380D01*
X141047619Y-57577619D01*
X141047619Y-57720476D01*
X141095238Y-57815714D01*
X141142857Y-57863333D01*
X141714285Y-58196666D02*
X141714285Y-58577619D01*
X142047619Y-58339523D02*
X141190476Y-58339523D01*
X141095238Y-58387142D01*
X141047619Y-58482380D01*
X141047619Y-58577619D01*
X136297619Y-56053809D02*
X137297619Y-56053809D01*
X136345238Y-56053809D02*
X136297619Y-55958571D01*
X136297619Y-55768095D01*
X136345238Y-55672857D01*
X136392857Y-55625238D01*
X136488095Y-55577619D01*
X136773809Y-55577619D01*
X136869047Y-55625238D01*
X136916666Y-55672857D01*
X136964285Y-55768095D01*
X136964285Y-55958571D01*
X136916666Y-56053809D01*
X136297619Y-56530000D02*
X136964285Y-56530000D01*
X137297619Y-56530000D02*
X137250000Y-56482380D01*
X137202380Y-56530000D01*
X137250000Y-56577619D01*
X137297619Y-56530000D01*
X137202380Y-56530000D01*
X136964285Y-57006190D02*
X136297619Y-57006190D01*
X136869047Y-57006190D02*
X136916666Y-57053809D01*
X136964285Y-57149047D01*
X136964285Y-57291904D01*
X136916666Y-57387142D01*
X136821428Y-57434761D01*
X136297619Y-57434761D01*
X136982380Y-174866190D02*
X135982380Y-174866190D01*
X136934761Y-174866190D02*
X136982380Y-174961428D01*
X136982380Y-175151904D01*
X136934761Y-175247142D01*
X136887142Y-175294761D01*
X136791904Y-175342380D01*
X136506190Y-175342380D01*
X136410952Y-175294761D01*
X136363333Y-175247142D01*
X136315714Y-175151904D01*
X136315714Y-174961428D01*
X136363333Y-174866190D01*
X136982380Y-174247142D02*
X136934761Y-174342380D01*
X136887142Y-174390000D01*
X136791904Y-174437619D01*
X136506190Y-174437619D01*
X136410952Y-174390000D01*
X136363333Y-174342380D01*
X136315714Y-174247142D01*
X136315714Y-174104285D01*
X136363333Y-174009047D01*
X136410952Y-173961428D01*
X136506190Y-173913809D01*
X136791904Y-173913809D01*
X136887142Y-173961428D01*
X136934761Y-174009047D01*
X136982380Y-174104285D01*
X136982380Y-174247142D01*
X136315714Y-173056666D02*
X136982380Y-173056666D01*
X136315714Y-173485238D02*
X136839523Y-173485238D01*
X136934761Y-173437619D01*
X136982380Y-173342380D01*
X136982380Y-173199523D01*
X136934761Y-173104285D01*
X136887142Y-173056666D01*
X136315714Y-172723333D02*
X136315714Y-172342380D01*
X135982380Y-172580476D02*
X136839523Y-172580476D01*
X136934761Y-172532857D01*
X136982380Y-172437619D01*
X136982380Y-172342380D01*
X141732380Y-174866190D02*
X140732380Y-174866190D01*
X141684761Y-174866190D02*
X141732380Y-174961428D01*
X141732380Y-175151904D01*
X141684761Y-175247142D01*
X141637142Y-175294761D01*
X141541904Y-175342380D01*
X141256190Y-175342380D01*
X141160952Y-175294761D01*
X141113333Y-175247142D01*
X141065714Y-175151904D01*
X141065714Y-174961428D01*
X141113333Y-174866190D01*
X141732380Y-174390000D02*
X141065714Y-174390000D01*
X140732380Y-174390000D02*
X140780000Y-174437619D01*
X140827619Y-174390000D01*
X140780000Y-174342380D01*
X140732380Y-174390000D01*
X140827619Y-174390000D01*
X141065714Y-173913809D02*
X141732380Y-173913809D01*
X141160952Y-173913809D02*
X141113333Y-173866190D01*
X141065714Y-173770952D01*
X141065714Y-173628095D01*
X141113333Y-173532857D01*
X141208571Y-173485238D01*
X141732380Y-173485238D01*
X178623809Y-88922380D02*
X178623809Y-87922380D01*
X178623809Y-88874761D02*
X178528571Y-88922380D01*
X178338095Y-88922380D01*
X178242857Y-88874761D01*
X178195238Y-88827142D01*
X178147619Y-88731904D01*
X178147619Y-88446190D01*
X178195238Y-88350952D01*
X178242857Y-88303333D01*
X178338095Y-88255714D01*
X178528571Y-88255714D01*
X178623809Y-88303333D01*
X179100000Y-88922380D02*
X179100000Y-88255714D01*
X179100000Y-87922380D02*
X179052380Y-87970000D01*
X179100000Y-88017619D01*
X179147619Y-87970000D01*
X179100000Y-87922380D01*
X179100000Y-88017619D01*
X179576190Y-88255714D02*
X179576190Y-88922380D01*
X179576190Y-88350952D02*
X179623809Y-88303333D01*
X179719047Y-88255714D01*
X179861904Y-88255714D01*
X179957142Y-88303333D01*
X180004761Y-88398571D01*
X180004761Y-88922380D01*
X177623809Y-93672380D02*
X177623809Y-92672380D01*
X177623809Y-93624761D02*
X177528571Y-93672380D01*
X177338095Y-93672380D01*
X177242857Y-93624761D01*
X177195238Y-93577142D01*
X177147619Y-93481904D01*
X177147619Y-93196190D01*
X177195238Y-93100952D01*
X177242857Y-93053333D01*
X177338095Y-93005714D01*
X177528571Y-93005714D01*
X177623809Y-93053333D01*
X178242857Y-93672380D02*
X178147619Y-93624761D01*
X178100000Y-93577142D01*
X178052380Y-93481904D01*
X178052380Y-93196190D01*
X178100000Y-93100952D01*
X178147619Y-93053333D01*
X178242857Y-93005714D01*
X178385714Y-93005714D01*
X178480952Y-93053333D01*
X178528571Y-93100952D01*
X178576190Y-93196190D01*
X178576190Y-93481904D01*
X178528571Y-93577142D01*
X178480952Y-93624761D01*
X178385714Y-93672380D01*
X178242857Y-93672380D01*
X179433333Y-93005714D02*
X179433333Y-93672380D01*
X179004761Y-93005714D02*
X179004761Y-93529523D01*
X179052380Y-93624761D01*
X179147619Y-93672380D01*
X179290476Y-93672380D01*
X179385714Y-93624761D01*
X179433333Y-93577142D01*
X179766666Y-93005714D02*
X180147619Y-93005714D01*
X179909523Y-92672380D02*
X179909523Y-93529523D01*
X179957142Y-93624761D01*
X180052380Y-93672380D01*
X180147619Y-93672380D01*
D10*
X107527142Y-57250000D02*
X107598571Y-57035714D01*
X107598571Y-56678571D01*
X107527142Y-56535714D01*
X107455714Y-56464285D01*
X107312857Y-56392857D01*
X107170000Y-56392857D01*
X107027142Y-56464285D01*
X106955714Y-56535714D01*
X106884285Y-56678571D01*
X106812857Y-56964285D01*
X106741428Y-57107143D01*
X106670000Y-57178571D01*
X106527142Y-57250000D01*
X106384285Y-57250000D01*
X106241428Y-57178571D01*
X106170000Y-57107143D01*
X106098571Y-56964285D01*
X106098571Y-56607143D01*
X106170000Y-56392857D01*
X106241428Y-55821428D02*
X106170000Y-55750000D01*
X106098571Y-55607143D01*
X106098571Y-55250000D01*
X106170000Y-55107143D01*
X106241428Y-55035714D01*
X106384285Y-54964285D01*
X106527142Y-54964285D01*
X106741428Y-55035714D01*
X107598571Y-55892857D01*
X107598571Y-54964285D01*
X121098571Y-58821428D02*
X122598571Y-58321428D01*
X121098571Y-57821428D01*
X122455714Y-56464285D02*
X122527142Y-56535713D01*
X122598571Y-56749999D01*
X122598571Y-56892856D01*
X122527142Y-57107142D01*
X122384285Y-57249999D01*
X122241428Y-57321428D01*
X121955714Y-57392856D01*
X121741428Y-57392856D01*
X121455714Y-57321428D01*
X121312857Y-57249999D01*
X121170000Y-57107142D01*
X121098571Y-56892856D01*
X121098571Y-56749999D01*
X121170000Y-56535713D01*
X121241428Y-56464285D01*
X122455714Y-54964285D02*
X122527142Y-55035713D01*
X122598571Y-55249999D01*
X122598571Y-55392856D01*
X122527142Y-55607142D01*
X122384285Y-55749999D01*
X122241428Y-55821428D01*
X121955714Y-55892856D01*
X121741428Y-55892856D01*
X121455714Y-55821428D01*
X121312857Y-55749999D01*
X121170000Y-55607142D01*
X121098571Y-55392856D01*
X121098571Y-55249999D01*
X121170000Y-55035713D01*
X121241428Y-54964285D01*
X112527142Y-57250000D02*
X112598571Y-57035714D01*
X112598571Y-56678571D01*
X112527142Y-56535714D01*
X112455714Y-56464285D01*
X112312857Y-56392857D01*
X112170000Y-56392857D01*
X112027142Y-56464285D01*
X111955714Y-56535714D01*
X111884285Y-56678571D01*
X111812857Y-56964285D01*
X111741428Y-57107143D01*
X111670000Y-57178571D01*
X111527142Y-57250000D01*
X111384285Y-57250000D01*
X111241428Y-57178571D01*
X111170000Y-57107143D01*
X111098571Y-56964285D01*
X111098571Y-56607143D01*
X111170000Y-56392857D01*
X112598571Y-54964285D02*
X112598571Y-55821428D01*
X112598571Y-55392857D02*
X111098571Y-55392857D01*
X111312857Y-55535714D01*
X111455714Y-55678571D01*
X111527142Y-55821428D01*
X102527142Y-57250000D02*
X102598571Y-57035714D01*
X102598571Y-56678571D01*
X102527142Y-56535714D01*
X102455714Y-56464285D01*
X102312857Y-56392857D01*
X102170000Y-56392857D01*
X102027142Y-56464285D01*
X101955714Y-56535714D01*
X101884285Y-56678571D01*
X101812857Y-56964285D01*
X101741428Y-57107143D01*
X101670000Y-57178571D01*
X101527142Y-57250000D01*
X101384285Y-57250000D01*
X101241428Y-57178571D01*
X101170000Y-57107143D01*
X101098571Y-56964285D01*
X101098571Y-56607143D01*
X101170000Y-56392857D01*
X101098571Y-55892857D02*
X101098571Y-54964285D01*
X101670000Y-55464285D01*
X101670000Y-55250000D01*
X101741428Y-55107143D01*
X101812857Y-55035714D01*
X101955714Y-54964285D01*
X102312857Y-54964285D01*
X102455714Y-55035714D01*
X102527142Y-55107143D01*
X102598571Y-55250000D01*
X102598571Y-55678571D01*
X102527142Y-55821428D01*
X102455714Y-55892857D01*
X117527142Y-57250000D02*
X117598571Y-57035714D01*
X117598571Y-56678571D01*
X117527142Y-56535714D01*
X117455714Y-56464285D01*
X117312857Y-56392857D01*
X117170000Y-56392857D01*
X117027142Y-56464285D01*
X116955714Y-56535714D01*
X116884285Y-56678571D01*
X116812857Y-56964285D01*
X116741428Y-57107143D01*
X116670000Y-57178571D01*
X116527142Y-57250000D01*
X116384285Y-57250000D01*
X116241428Y-57178571D01*
X116170000Y-57107143D01*
X116098571Y-56964285D01*
X116098571Y-56607143D01*
X116170000Y-56392857D01*
X116098571Y-55464285D02*
X116098571Y-55321428D01*
X116170000Y-55178571D01*
X116241428Y-55107143D01*
X116384285Y-55035714D01*
X116670000Y-54964285D01*
X117027142Y-54964285D01*
X117312857Y-55035714D01*
X117455714Y-55107143D01*
X117527142Y-55178571D01*
X117598571Y-55321428D01*
X117598571Y-55464285D01*
X117527142Y-55607143D01*
X117455714Y-55678571D01*
X117312857Y-55750000D01*
X117027142Y-55821428D01*
X116670000Y-55821428D01*
X116384285Y-55750000D01*
X116241428Y-55678571D01*
X116170000Y-55607143D01*
X116098571Y-55464285D01*
X126170000Y-58107143D02*
X126098571Y-58250000D01*
X126098571Y-58464286D01*
X126170000Y-58678571D01*
X126312857Y-58821428D01*
X126455714Y-58892857D01*
X126741428Y-58964286D01*
X126955714Y-58964286D01*
X127241428Y-58892857D01*
X127384285Y-58821428D01*
X127527142Y-58678571D01*
X127598571Y-58464286D01*
X127598571Y-58321428D01*
X127527142Y-58107143D01*
X127455714Y-58035714D01*
X126955714Y-58035714D01*
X126955714Y-58321428D01*
X127598571Y-57392857D02*
X126098571Y-57392857D01*
X127598571Y-56535714D01*
X126098571Y-56535714D01*
X127598571Y-55821428D02*
X126098571Y-55821428D01*
X126098571Y-55464286D01*
X126170000Y-55250000D01*
X126312857Y-55107143D01*
X126455714Y-55035714D01*
X126741428Y-54964286D01*
X126955714Y-54964286D01*
X127241428Y-55035714D01*
X127384285Y-55107143D01*
X127527142Y-55250000D01*
X127598571Y-55464286D01*
X127598571Y-55821428D01*
X177154285Y-113347142D02*
X177368571Y-113418571D01*
X177725714Y-113418571D01*
X177868571Y-113347142D01*
X177940000Y-113275714D01*
X178011428Y-113132857D01*
X178011428Y-112990000D01*
X177940000Y-112847142D01*
X177868571Y-112775714D01*
X177725714Y-112704285D01*
X177440000Y-112632857D01*
X177297143Y-112561428D01*
X177225714Y-112490000D01*
X177154285Y-112347142D01*
X177154285Y-112204285D01*
X177225714Y-112061428D01*
X177297143Y-111990000D01*
X177440000Y-111918571D01*
X177797143Y-111918571D01*
X178011428Y-111990000D01*
X178940000Y-111918571D02*
X179082857Y-111918571D01*
X179225714Y-111990000D01*
X179297143Y-112061428D01*
X179368571Y-112204285D01*
X179440000Y-112490000D01*
X179440000Y-112847142D01*
X179368571Y-113132857D01*
X179297143Y-113275714D01*
X179225714Y-113347142D01*
X179082857Y-113418571D01*
X178940000Y-113418571D01*
X178797143Y-113347142D01*
X178725714Y-113275714D01*
X178654285Y-113132857D01*
X178582857Y-112847142D01*
X178582857Y-112490000D01*
X178654285Y-112204285D01*
X178725714Y-112061428D01*
X178797143Y-111990000D01*
X178940000Y-111918571D01*
X177154285Y-123347142D02*
X177368571Y-123418571D01*
X177725714Y-123418571D01*
X177868571Y-123347142D01*
X177940000Y-123275714D01*
X178011428Y-123132857D01*
X178011428Y-122990000D01*
X177940000Y-122847142D01*
X177868571Y-122775714D01*
X177725714Y-122704285D01*
X177440000Y-122632857D01*
X177297143Y-122561428D01*
X177225714Y-122490000D01*
X177154285Y-122347142D01*
X177154285Y-122204285D01*
X177225714Y-122061428D01*
X177297143Y-121990000D01*
X177440000Y-121918571D01*
X177797143Y-121918571D01*
X178011428Y-121990000D01*
X178582857Y-122061428D02*
X178654285Y-121990000D01*
X178797143Y-121918571D01*
X179154285Y-121918571D01*
X179297143Y-121990000D01*
X179368571Y-122061428D01*
X179440000Y-122204285D01*
X179440000Y-122347142D01*
X179368571Y-122561428D01*
X178511428Y-123418571D01*
X179440000Y-123418571D01*
X177154285Y-118347142D02*
X177368571Y-118418571D01*
X177725714Y-118418571D01*
X177868571Y-118347142D01*
X177940000Y-118275714D01*
X178011428Y-118132857D01*
X178011428Y-117990000D01*
X177940000Y-117847142D01*
X177868571Y-117775714D01*
X177725714Y-117704285D01*
X177440000Y-117632857D01*
X177297143Y-117561428D01*
X177225714Y-117490000D01*
X177154285Y-117347142D01*
X177154285Y-117204285D01*
X177225714Y-117061428D01*
X177297143Y-116990000D01*
X177440000Y-116918571D01*
X177797143Y-116918571D01*
X178011428Y-116990000D01*
X179440000Y-118418571D02*
X178582857Y-118418571D01*
X179011428Y-118418571D02*
X179011428Y-116918571D01*
X178868571Y-117132857D01*
X178725714Y-117275714D01*
X178582857Y-117347142D01*
X175582858Y-106918571D02*
X176082858Y-108418571D01*
X176582858Y-106918571D01*
X177940000Y-108275714D02*
X177868572Y-108347142D01*
X177654286Y-108418571D01*
X177511429Y-108418571D01*
X177297143Y-108347142D01*
X177154286Y-108204285D01*
X177082858Y-108061428D01*
X177011429Y-107775714D01*
X177011429Y-107561428D01*
X177082858Y-107275714D01*
X177154286Y-107132857D01*
X177297143Y-106990000D01*
X177511429Y-106918571D01*
X177654286Y-106918571D01*
X177868572Y-106990000D01*
X177940000Y-107061428D01*
X179440000Y-108275714D02*
X179368572Y-108347142D01*
X179154286Y-108418571D01*
X179011429Y-108418571D01*
X178797143Y-108347142D01*
X178654286Y-108204285D01*
X178582858Y-108061428D01*
X178511429Y-107775714D01*
X178511429Y-107561428D01*
X178582858Y-107275714D01*
X178654286Y-107132857D01*
X178797143Y-106990000D01*
X179011429Y-106918571D01*
X179154286Y-106918571D01*
X179368572Y-106990000D01*
X179440000Y-107061428D01*
X177154285Y-128347142D02*
X177368571Y-128418571D01*
X177725714Y-128418571D01*
X177868571Y-128347142D01*
X177940000Y-128275714D01*
X178011428Y-128132857D01*
X178011428Y-127990000D01*
X177940000Y-127847142D01*
X177868571Y-127775714D01*
X177725714Y-127704285D01*
X177440000Y-127632857D01*
X177297143Y-127561428D01*
X177225714Y-127490000D01*
X177154285Y-127347142D01*
X177154285Y-127204285D01*
X177225714Y-127061428D01*
X177297143Y-126990000D01*
X177440000Y-126918571D01*
X177797143Y-126918571D01*
X178011428Y-126990000D01*
X178511428Y-126918571D02*
X179440000Y-126918571D01*
X178940000Y-127490000D01*
X179154285Y-127490000D01*
X179297143Y-127561428D01*
X179368571Y-127632857D01*
X179440000Y-127775714D01*
X179440000Y-128132857D01*
X179368571Y-128275714D01*
X179297143Y-128347142D01*
X179154285Y-128418571D01*
X178725714Y-128418571D01*
X178582857Y-128347142D01*
X178511428Y-128275714D01*
X176297142Y-101990000D02*
X176154285Y-101918571D01*
X175940000Y-101918571D01*
X175725714Y-101990000D01*
X175582857Y-102132857D01*
X175511428Y-102275714D01*
X175440000Y-102561428D01*
X175440000Y-102775714D01*
X175511428Y-103061428D01*
X175582857Y-103204285D01*
X175725714Y-103347142D01*
X175940000Y-103418571D01*
X176082857Y-103418571D01*
X176297142Y-103347142D01*
X176368571Y-103275714D01*
X176368571Y-102775714D01*
X176082857Y-102775714D01*
X177011428Y-103418571D02*
X177011428Y-101918571D01*
X177868571Y-103418571D01*
X177868571Y-101918571D01*
X178582857Y-103418571D02*
X178582857Y-101918571D01*
X178940000Y-101918571D01*
X179154285Y-101990000D01*
X179297142Y-102132857D01*
X179368571Y-102275714D01*
X179440000Y-102561428D01*
X179440000Y-102775714D01*
X179368571Y-103061428D01*
X179297142Y-103204285D01*
X179154285Y-103347142D01*
X178940000Y-103418571D01*
X178582857Y-103418571D01*
X112957142Y-174945714D02*
X113028571Y-174731428D01*
X113028571Y-174374285D01*
X112957142Y-174231428D01*
X112885714Y-174159999D01*
X112742857Y-174088571D01*
X112600000Y-174088571D01*
X112457142Y-174159999D01*
X112385714Y-174231428D01*
X112314285Y-174374285D01*
X112242857Y-174659999D01*
X112171428Y-174802857D01*
X112100000Y-174874285D01*
X111957142Y-174945714D01*
X111814285Y-174945714D01*
X111671428Y-174874285D01*
X111600000Y-174802857D01*
X111528571Y-174659999D01*
X111528571Y-174302857D01*
X111600000Y-174088571D01*
X113028571Y-172659999D02*
X113028571Y-173517142D01*
X113028571Y-173088571D02*
X111528571Y-173088571D01*
X111742857Y-173231428D01*
X111885714Y-173374285D01*
X111957142Y-173517142D01*
X107957142Y-174945714D02*
X108028571Y-174731428D01*
X108028571Y-174374285D01*
X107957142Y-174231428D01*
X107885714Y-174159999D01*
X107742857Y-174088571D01*
X107600000Y-174088571D01*
X107457142Y-174159999D01*
X107385714Y-174231428D01*
X107314285Y-174374285D01*
X107242857Y-174659999D01*
X107171428Y-174802857D01*
X107100000Y-174874285D01*
X106957142Y-174945714D01*
X106814285Y-174945714D01*
X106671428Y-174874285D01*
X106600000Y-174802857D01*
X106528571Y-174659999D01*
X106528571Y-174302857D01*
X106600000Y-174088571D01*
X106671428Y-173517142D02*
X106600000Y-173445714D01*
X106528571Y-173302857D01*
X106528571Y-172945714D01*
X106600000Y-172802857D01*
X106671428Y-172731428D01*
X106814285Y-172659999D01*
X106957142Y-172659999D01*
X107171428Y-172731428D01*
X108028571Y-173588571D01*
X108028571Y-172659999D01*
X102957142Y-174945714D02*
X103028571Y-174731428D01*
X103028571Y-174374285D01*
X102957142Y-174231428D01*
X102885714Y-174159999D01*
X102742857Y-174088571D01*
X102600000Y-174088571D01*
X102457142Y-174159999D01*
X102385714Y-174231428D01*
X102314285Y-174374285D01*
X102242857Y-174659999D01*
X102171428Y-174802857D01*
X102100000Y-174874285D01*
X101957142Y-174945714D01*
X101814285Y-174945714D01*
X101671428Y-174874285D01*
X101600000Y-174802857D01*
X101528571Y-174659999D01*
X101528571Y-174302857D01*
X101600000Y-174088571D01*
X101528571Y-173588571D02*
X101528571Y-172659999D01*
X102100000Y-173159999D01*
X102100000Y-172945714D01*
X102171428Y-172802857D01*
X102242857Y-172731428D01*
X102385714Y-172659999D01*
X102742857Y-172659999D01*
X102885714Y-172731428D01*
X102957142Y-172802857D01*
X103028571Y-172945714D01*
X103028571Y-173374285D01*
X102957142Y-173517142D01*
X102885714Y-173588571D01*
X117957142Y-174945714D02*
X118028571Y-174731428D01*
X118028571Y-174374285D01*
X117957142Y-174231428D01*
X117885714Y-174159999D01*
X117742857Y-174088571D01*
X117600000Y-174088571D01*
X117457142Y-174159999D01*
X117385714Y-174231428D01*
X117314285Y-174374285D01*
X117242857Y-174659999D01*
X117171428Y-174802857D01*
X117100000Y-174874285D01*
X116957142Y-174945714D01*
X116814285Y-174945714D01*
X116671428Y-174874285D01*
X116600000Y-174802857D01*
X116528571Y-174659999D01*
X116528571Y-174302857D01*
X116600000Y-174088571D01*
X116528571Y-173159999D02*
X116528571Y-173017142D01*
X116600000Y-172874285D01*
X116671428Y-172802857D01*
X116814285Y-172731428D01*
X117100000Y-172659999D01*
X117457142Y-172659999D01*
X117742857Y-172731428D01*
X117885714Y-172802857D01*
X117957142Y-172874285D01*
X118028571Y-173017142D01*
X118028571Y-173159999D01*
X117957142Y-173302857D01*
X117885714Y-173374285D01*
X117742857Y-173445714D01*
X117457142Y-173517142D01*
X117100000Y-173517142D01*
X116814285Y-173445714D01*
X116671428Y-173374285D01*
X116600000Y-173302857D01*
X116528571Y-173159999D01*
X126600000Y-174088571D02*
X126528571Y-174231428D01*
X126528571Y-174445714D01*
X126600000Y-174659999D01*
X126742857Y-174802856D01*
X126885714Y-174874285D01*
X127171428Y-174945714D01*
X127385714Y-174945714D01*
X127671428Y-174874285D01*
X127814285Y-174802856D01*
X127957142Y-174659999D01*
X128028571Y-174445714D01*
X128028571Y-174302856D01*
X127957142Y-174088571D01*
X127885714Y-174017142D01*
X127385714Y-174017142D01*
X127385714Y-174302856D01*
X128028571Y-173374285D02*
X126528571Y-173374285D01*
X128028571Y-172517142D01*
X126528571Y-172517142D01*
X128028571Y-171802856D02*
X126528571Y-171802856D01*
X126528571Y-171445714D01*
X126600000Y-171231428D01*
X126742857Y-171088571D01*
X126885714Y-171017142D01*
X127171428Y-170945714D01*
X127385714Y-170945714D01*
X127671428Y-171017142D01*
X127814285Y-171088571D01*
X127957142Y-171231428D01*
X128028571Y-171445714D01*
X128028571Y-171802856D01*
X121528571Y-175088571D02*
X123028571Y-174588571D01*
X121528571Y-174088571D01*
X122885714Y-172731428D02*
X122957142Y-172802856D01*
X123028571Y-173017142D01*
X123028571Y-173159999D01*
X122957142Y-173374285D01*
X122814285Y-173517142D01*
X122671428Y-173588571D01*
X122385714Y-173659999D01*
X122171428Y-173659999D01*
X121885714Y-173588571D01*
X121742857Y-173517142D01*
X121600000Y-173374285D01*
X121528571Y-173159999D01*
X121528571Y-173017142D01*
X121600000Y-172802856D01*
X121671428Y-172731428D01*
X122885714Y-171231428D02*
X122957142Y-171302856D01*
X123028571Y-171517142D01*
X123028571Y-171659999D01*
X122957142Y-171874285D01*
X122814285Y-172017142D01*
X122671428Y-172088571D01*
X122385714Y-172159999D01*
X122171428Y-172159999D01*
X121885714Y-172088571D01*
X121742857Y-172017142D01*
X121600000Y-171874285D01*
X121528571Y-171659999D01*
X121528571Y-171517142D01*
X121600000Y-171302856D01*
X121671428Y-171231428D01*
D11*
X60433809Y-88602380D02*
X60433809Y-87602380D01*
X60433809Y-88554761D02*
X60338571Y-88602380D01*
X60148095Y-88602380D01*
X60052857Y-88554761D01*
X60005238Y-88507142D01*
X59957619Y-88411904D01*
X59957619Y-88126190D01*
X60005238Y-88030952D01*
X60052857Y-87983333D01*
X60148095Y-87935714D01*
X60338571Y-87935714D01*
X60433809Y-87983333D01*
X61052857Y-88602380D02*
X60957619Y-88554761D01*
X60910000Y-88507142D01*
X60862380Y-88411904D01*
X60862380Y-88126190D01*
X60910000Y-88030952D01*
X60957619Y-87983333D01*
X61052857Y-87935714D01*
X61195714Y-87935714D01*
X61290952Y-87983333D01*
X61338571Y-88030952D01*
X61386190Y-88126190D01*
X61386190Y-88411904D01*
X61338571Y-88507142D01*
X61290952Y-88554761D01*
X61195714Y-88602380D01*
X61052857Y-88602380D01*
X62243333Y-87935714D02*
X62243333Y-88602380D01*
X61814761Y-87935714D02*
X61814761Y-88459523D01*
X61862380Y-88554761D01*
X61957619Y-88602380D01*
X62100476Y-88602380D01*
X62195714Y-88554761D01*
X62243333Y-88507142D01*
X62576666Y-87935714D02*
X62957619Y-87935714D01*
X62719523Y-87602380D02*
X62719523Y-88459523D01*
X62767142Y-88554761D01*
X62862380Y-88602380D01*
X62957619Y-88602380D01*
X60433809Y-93102380D02*
X60433809Y-92102380D01*
X60433809Y-93054761D02*
X60338571Y-93102380D01*
X60148095Y-93102380D01*
X60052857Y-93054761D01*
X60005238Y-93007142D01*
X59957619Y-92911904D01*
X59957619Y-92626190D01*
X60005238Y-92530952D01*
X60052857Y-92483333D01*
X60148095Y-92435714D01*
X60338571Y-92435714D01*
X60433809Y-92483333D01*
X60910000Y-93102380D02*
X60910000Y-92435714D01*
X60910000Y-92102380D02*
X60862380Y-92150000D01*
X60910000Y-92197619D01*
X60957619Y-92150000D01*
X60910000Y-92102380D01*
X60910000Y-92197619D01*
X61386190Y-92435714D02*
X61386190Y-93102380D01*
X61386190Y-92530952D02*
X61433809Y-92483333D01*
X61529047Y-92435714D01*
X61671904Y-92435714D01*
X61767142Y-92483333D01*
X61814761Y-92578571D01*
X61814761Y-93102380D01*
D12*
%TO.C,SW7*%
X115752659Y-131000000D02*
G75*
G03*
X115752659Y-131000000I-11752659J0D01*
G01*
X117500000Y-131000000D02*
G75*
G03*
X117500000Y-131000000I-13500000J0D01*
G01*
%TO.C,SW2*%
X83252659Y-98500000D02*
G75*
G03*
X83252659Y-98500000I-11752659J0D01*
G01*
X85000000Y-98500000D02*
G75*
G03*
X85000000Y-98500000I-13500000J0D01*
G01*
%TO.C,SW5*%
X115752659Y-66000000D02*
G75*
G03*
X115752659Y-66000000I-11752659J0D01*
G01*
X117500000Y-66000000D02*
G75*
G03*
X117500000Y-66000000I-13500000J0D01*
G01*
%TO.C,SW16*%
X180752659Y-163500000D02*
G75*
G03*
X180752659Y-163500000I-11752659J0D01*
G01*
X182500000Y-163500000D02*
G75*
G03*
X182500000Y-163500000I-13500000J0D01*
G01*
%TO.C,SW6*%
X115752659Y-98500000D02*
G75*
G03*
X115752659Y-98500000I-11752659J0D01*
G01*
X117500000Y-98500000D02*
G75*
G03*
X117500000Y-98500000I-13500000J0D01*
G01*
%TO.C,SW1*%
X83252659Y-66000000D02*
G75*
G03*
X83252659Y-66000000I-11752659J0D01*
G01*
X85000000Y-66000000D02*
G75*
G03*
X85000000Y-66000000I-13500000J0D01*
G01*
%TO.C,D1*%
X59650000Y-72950000D02*
X59650000Y-74100000D01*
X66950000Y-72950000D02*
X59650000Y-72950000D01*
X66950000Y-78450000D02*
X59650000Y-78450000D01*
%TO.C,SW3*%
X83252659Y-131000000D02*
G75*
G03*
X83252659Y-131000000I-11752659J0D01*
G01*
X85000000Y-131000000D02*
G75*
G03*
X85000000Y-131000000I-13500000J0D01*
G01*
%TO.C,SW4*%
X83252659Y-163500000D02*
G75*
G03*
X83252659Y-163500000I-11752659J0D01*
G01*
X85000000Y-163500000D02*
G75*
G03*
X85000000Y-163500000I-13500000J0D01*
G01*
%TO.C,SW8*%
X115752659Y-163500000D02*
G75*
G03*
X115752659Y-163500000I-11752659J0D01*
G01*
X117500000Y-163500000D02*
G75*
G03*
X117500000Y-163500000I-13500000J0D01*
G01*
%TO.C,SW9*%
X148252659Y-66000000D02*
G75*
G03*
X148252659Y-66000000I-11752659J0D01*
G01*
X150000000Y-66000000D02*
G75*
G03*
X150000000Y-66000000I-13500000J0D01*
G01*
%TO.C,SW10*%
X148252659Y-98500000D02*
G75*
G03*
X148252659Y-98500000I-11752659J0D01*
G01*
X150000000Y-98500000D02*
G75*
G03*
X150000000Y-98500000I-13500000J0D01*
G01*
%TO.C,SW11*%
X148252659Y-131000000D02*
G75*
G03*
X148252659Y-131000000I-11752659J0D01*
G01*
X150000000Y-131000000D02*
G75*
G03*
X150000000Y-131000000I-13500000J0D01*
G01*
%TO.C,SW12*%
X148252659Y-163500000D02*
G75*
G03*
X148252659Y-163500000I-11752659J0D01*
G01*
X150000000Y-163500000D02*
G75*
G03*
X150000000Y-163500000I-13500000J0D01*
G01*
%TO.C,SW13*%
X180752659Y-66000000D02*
G75*
G03*
X180752659Y-66000000I-11752659J0D01*
G01*
X182500000Y-66000000D02*
G75*
G03*
X182500000Y-66000000I-13500000J0D01*
G01*
%TO.C,SW14*%
X180752659Y-97100000D02*
G75*
G03*
X180752659Y-97100000I-11752659J0D01*
G01*
X182500000Y-97100000D02*
G75*
G03*
X182500000Y-97100000I-13500000J0D01*
G01*
%TO.C,SW15*%
X180752659Y-131000000D02*
G75*
G03*
X180752659Y-131000000I-11752659J0D01*
G01*
X182500000Y-131000000D02*
G75*
G03*
X182500000Y-131000000I-13500000J0D01*
G01*
%TO.C,D5*%
X131950000Y-78450000D02*
X124650000Y-78450000D01*
X131950000Y-72950000D02*
X124650000Y-72950000D01*
X124650000Y-72950000D02*
X124650000Y-74100000D01*
%TO.C,D9*%
X59750000Y-105350000D02*
X59750000Y-106500000D01*
X67050000Y-105350000D02*
X59750000Y-105350000D01*
X67050000Y-110850000D02*
X59750000Y-110850000D01*
%TO.C,D13*%
X124750000Y-105350000D02*
X124750000Y-106500000D01*
X132050000Y-105350000D02*
X124750000Y-105350000D01*
X132050000Y-110850000D02*
X124750000Y-110850000D01*
%TO.C,D3*%
X92150000Y-72950000D02*
X92150000Y-74100000D01*
X99450000Y-72950000D02*
X92150000Y-72950000D01*
X99450000Y-78450000D02*
X92150000Y-78450000D01*
%TO.C,D7*%
X164450000Y-78450000D02*
X157150000Y-78450000D01*
X164450000Y-72950000D02*
X157150000Y-72950000D01*
X157150000Y-72950000D02*
X157150000Y-74100000D01*
%TO.C,D11*%
X92250000Y-105350000D02*
X92250000Y-106500000D01*
X99550000Y-105350000D02*
X92250000Y-105350000D01*
X99550000Y-110850000D02*
X92250000Y-110850000D01*
%TO.C,D15*%
X159350000Y-105650000D02*
X159350000Y-106800000D01*
X166650000Y-105650000D02*
X159350000Y-105650000D01*
X166650000Y-111150000D02*
X159350000Y-111150000D01*
%TO.C,D17*%
X59750000Y-137850000D02*
X59750000Y-139000000D01*
X67050000Y-137850000D02*
X59750000Y-137850000D01*
X67050000Y-143350000D02*
X59750000Y-143350000D01*
%TO.C,D21*%
X132050000Y-143350000D02*
X124750000Y-143350000D01*
X132050000Y-137850000D02*
X124750000Y-137850000D01*
X124750000Y-137850000D02*
X124750000Y-139000000D01*
%TO.C,D25*%
X59750000Y-170350000D02*
X59750000Y-171500000D01*
X67050000Y-170350000D02*
X59750000Y-170350000D01*
X67050000Y-175850000D02*
X59750000Y-175850000D01*
%TO.C,D29*%
X124750000Y-170350000D02*
X124750000Y-171500000D01*
X132050000Y-170350000D02*
X124750000Y-170350000D01*
X132050000Y-175850000D02*
X124750000Y-175850000D01*
%TO.C,D19*%
X92250000Y-137850000D02*
X92250000Y-139000000D01*
X99550000Y-137850000D02*
X92250000Y-137850000D01*
X99550000Y-143350000D02*
X92250000Y-143350000D01*
%TO.C,D23*%
X157250000Y-137850000D02*
X157250000Y-139000000D01*
X164550000Y-137850000D02*
X157250000Y-137850000D01*
X164550000Y-143350000D02*
X157250000Y-143350000D01*
%TO.C,D27*%
X92250000Y-170350000D02*
X92250000Y-171500000D01*
X99550000Y-170350000D02*
X92250000Y-170350000D01*
X99550000Y-175850000D02*
X92250000Y-175850000D01*
%TO.C,D31*%
X164550000Y-175850000D02*
X157250000Y-175850000D01*
X164550000Y-170350000D02*
X157250000Y-170350000D01*
X157250000Y-170350000D02*
X157250000Y-171500000D01*
%TO.C,C1*%
X66615580Y-79090000D02*
X66334420Y-79090000D01*
X66615580Y-80110000D02*
X66334420Y-80110000D01*
%TO.C,C2*%
X99890000Y-76740580D02*
X99890000Y-76459420D01*
X100910000Y-76740580D02*
X100910000Y-76459420D01*
%TO.C,C3*%
X132590000Y-77040580D02*
X132590000Y-76759420D01*
X133610000Y-77040580D02*
X133610000Y-76759420D01*
%TO.C,C4*%
X164690000Y-76040580D02*
X164690000Y-75759420D01*
X165710000Y-76040580D02*
X165710000Y-75759420D01*
%TO.C,C5*%
X61715580Y-104810000D02*
X61434420Y-104810000D01*
X61715580Y-103790000D02*
X61434420Y-103790000D01*
%TO.C,C6*%
X100990000Y-109125580D02*
X100990000Y-108844420D01*
X99970000Y-109125580D02*
X99970000Y-108844420D01*
%TO.C,C7*%
X133610000Y-109215580D02*
X133610000Y-108934420D01*
X132590000Y-109215580D02*
X132590000Y-108934420D01*
%TO.C,C8*%
X164655580Y-112590000D02*
X164374420Y-112590000D01*
X164655580Y-113610000D02*
X164374420Y-113610000D01*
%TO.C,C9*%
X68805000Y-141510580D02*
X68805000Y-141229420D01*
X67785000Y-141510580D02*
X67785000Y-141229420D01*
%TO.C,C10*%
X101110000Y-141215580D02*
X101110000Y-140934420D01*
X100090000Y-141215580D02*
X100090000Y-140934420D01*
%TO.C,C11*%
X131284420Y-145010000D02*
X131565580Y-145010000D01*
X131284420Y-143990000D02*
X131565580Y-143990000D01*
%TO.C,C12*%
X163075580Y-145030000D02*
X162794420Y-145030000D01*
X163075580Y-144010000D02*
X162794420Y-144010000D01*
%TO.C,C13*%
X68990000Y-173965580D02*
X68990000Y-173684420D01*
X70010000Y-173965580D02*
X70010000Y-173684420D01*
%TO.C,C14*%
X98325580Y-177820000D02*
X98044420Y-177820000D01*
X98325580Y-176800000D02*
X98044420Y-176800000D01*
%TO.C,C15*%
X132490000Y-173640580D02*
X132490000Y-173359420D01*
X133510000Y-173640580D02*
X133510000Y-173359420D01*
%TO.C,C16*%
X166210000Y-174135580D02*
X166210000Y-173854420D01*
X165190000Y-174135580D02*
X165190000Y-173854420D01*
%TO.C,ws2812b_pins4*%
X96850000Y-54530000D02*
X96850000Y-51870000D01*
X89170000Y-54530000D02*
X96850000Y-54530000D01*
X89170000Y-51870000D02*
X96850000Y-51870000D01*
X89170000Y-54530000D02*
X89170000Y-51870000D01*
X87900000Y-54530000D02*
X86570000Y-54530000D01*
X86570000Y-54530000D02*
X86570000Y-53200000D01*
D11*
%TO.C,74hc4067*%
X82700000Y-116075000D02*
X82700000Y-117675000D01*
X91125000Y-116075000D02*
X91125000Y-110325000D01*
X82475000Y-116075000D02*
X82475000Y-110325000D01*
X91125000Y-116075000D02*
X90825000Y-116075000D01*
X91125000Y-110325000D02*
X90825000Y-110325000D01*
X82475000Y-110325000D02*
X82775000Y-110325000D01*
X82475000Y-116075000D02*
X82700000Y-116075000D01*
%TO.C,SW7*%
X103116666Y-147404761D02*
X103259523Y-147452380D01*
X103497619Y-147452380D01*
X103592857Y-147404761D01*
X103640476Y-147357142D01*
X103688095Y-147261904D01*
X103688095Y-147166666D01*
X103640476Y-147071428D01*
X103592857Y-147023809D01*
X103497619Y-146976190D01*
X103307142Y-146928571D01*
X103211904Y-146880952D01*
X103164285Y-146833333D01*
X103116666Y-146738095D01*
X103116666Y-146642857D01*
X103164285Y-146547619D01*
X103211904Y-146500000D01*
X103307142Y-146452380D01*
X103545238Y-146452380D01*
X103688095Y-146500000D01*
X104021428Y-146452380D02*
X104259523Y-147452380D01*
X104450000Y-146738095D01*
X104640476Y-147452380D01*
X104878571Y-146452380D01*
X105164285Y-146452380D02*
X105830952Y-146452380D01*
X105402380Y-147452380D01*
%TO.C,SW2*%
X70616666Y-114904761D02*
X70759523Y-114952380D01*
X70997619Y-114952380D01*
X71092857Y-114904761D01*
X71140476Y-114857142D01*
X71188095Y-114761904D01*
X71188095Y-114666666D01*
X71140476Y-114571428D01*
X71092857Y-114523809D01*
X70997619Y-114476190D01*
X70807142Y-114428571D01*
X70711904Y-114380952D01*
X70664285Y-114333333D01*
X70616666Y-114238095D01*
X70616666Y-114142857D01*
X70664285Y-114047619D01*
X70711904Y-114000000D01*
X70807142Y-113952380D01*
X71045238Y-113952380D01*
X71188095Y-114000000D01*
X71521428Y-113952380D02*
X71759523Y-114952380D01*
X71950000Y-114238095D01*
X72140476Y-114952380D01*
X72378571Y-113952380D01*
X72711904Y-114047619D02*
X72759523Y-114000000D01*
X72854761Y-113952380D01*
X73092857Y-113952380D01*
X73188095Y-114000000D01*
X73235714Y-114047619D01*
X73283333Y-114142857D01*
X73283333Y-114238095D01*
X73235714Y-114380952D01*
X72664285Y-114952380D01*
X73283333Y-114952380D01*
%TO.C,SW5*%
X103116666Y-82404761D02*
X103259523Y-82452380D01*
X103497619Y-82452380D01*
X103592857Y-82404761D01*
X103640476Y-82357142D01*
X103688095Y-82261904D01*
X103688095Y-82166666D01*
X103640476Y-82071428D01*
X103592857Y-82023809D01*
X103497619Y-81976190D01*
X103307142Y-81928571D01*
X103211904Y-81880952D01*
X103164285Y-81833333D01*
X103116666Y-81738095D01*
X103116666Y-81642857D01*
X103164285Y-81547619D01*
X103211904Y-81500000D01*
X103307142Y-81452380D01*
X103545238Y-81452380D01*
X103688095Y-81500000D01*
X104021428Y-81452380D02*
X104259523Y-82452380D01*
X104450000Y-81738095D01*
X104640476Y-82452380D01*
X104878571Y-81452380D01*
X105735714Y-81452380D02*
X105259523Y-81452380D01*
X105211904Y-81928571D01*
X105259523Y-81880952D01*
X105354761Y-81833333D01*
X105592857Y-81833333D01*
X105688095Y-81880952D01*
X105735714Y-81928571D01*
X105783333Y-82023809D01*
X105783333Y-82261904D01*
X105735714Y-82357142D01*
X105688095Y-82404761D01*
X105592857Y-82452380D01*
X105354761Y-82452380D01*
X105259523Y-82404761D01*
X105211904Y-82357142D01*
%TO.C,SW16*%
X167640476Y-178904761D02*
X167783333Y-178952380D01*
X168021428Y-178952380D01*
X168116666Y-178904761D01*
X168164285Y-178857142D01*
X168211904Y-178761904D01*
X168211904Y-178666666D01*
X168164285Y-178571428D01*
X168116666Y-178523809D01*
X168021428Y-178476190D01*
X167830952Y-178428571D01*
X167735714Y-178380952D01*
X167688095Y-178333333D01*
X167640476Y-178238095D01*
X167640476Y-178142857D01*
X167688095Y-178047619D01*
X167735714Y-178000000D01*
X167830952Y-177952380D01*
X168069047Y-177952380D01*
X168211904Y-178000000D01*
X168545238Y-177952380D02*
X168783333Y-178952380D01*
X168973809Y-178238095D01*
X169164285Y-178952380D01*
X169402380Y-177952380D01*
X170307142Y-178952380D02*
X169735714Y-178952380D01*
X170021428Y-178952380D02*
X170021428Y-177952380D01*
X169926190Y-178095238D01*
X169830952Y-178190476D01*
X169735714Y-178238095D01*
X171164285Y-177952380D02*
X170973809Y-177952380D01*
X170878571Y-178000000D01*
X170830952Y-178047619D01*
X170735714Y-178190476D01*
X170688095Y-178380952D01*
X170688095Y-178761904D01*
X170735714Y-178857142D01*
X170783333Y-178904761D01*
X170878571Y-178952380D01*
X171069047Y-178952380D01*
X171164285Y-178904761D01*
X171211904Y-178857142D01*
X171259523Y-178761904D01*
X171259523Y-178523809D01*
X171211904Y-178428571D01*
X171164285Y-178380952D01*
X171069047Y-178333333D01*
X170878571Y-178333333D01*
X170783333Y-178380952D01*
X170735714Y-178428571D01*
X170688095Y-178523809D01*
%TO.C,SW6*%
X103116666Y-114904761D02*
X103259523Y-114952380D01*
X103497619Y-114952380D01*
X103592857Y-114904761D01*
X103640476Y-114857142D01*
X103688095Y-114761904D01*
X103688095Y-114666666D01*
X103640476Y-114571428D01*
X103592857Y-114523809D01*
X103497619Y-114476190D01*
X103307142Y-114428571D01*
X103211904Y-114380952D01*
X103164285Y-114333333D01*
X103116666Y-114238095D01*
X103116666Y-114142857D01*
X103164285Y-114047619D01*
X103211904Y-114000000D01*
X103307142Y-113952380D01*
X103545238Y-113952380D01*
X103688095Y-114000000D01*
X104021428Y-113952380D02*
X104259523Y-114952380D01*
X104450000Y-114238095D01*
X104640476Y-114952380D01*
X104878571Y-113952380D01*
X105688095Y-113952380D02*
X105497619Y-113952380D01*
X105402380Y-114000000D01*
X105354761Y-114047619D01*
X105259523Y-114190476D01*
X105211904Y-114380952D01*
X105211904Y-114761904D01*
X105259523Y-114857142D01*
X105307142Y-114904761D01*
X105402380Y-114952380D01*
X105592857Y-114952380D01*
X105688095Y-114904761D01*
X105735714Y-114857142D01*
X105783333Y-114761904D01*
X105783333Y-114523809D01*
X105735714Y-114428571D01*
X105688095Y-114380952D01*
X105592857Y-114333333D01*
X105402380Y-114333333D01*
X105307142Y-114380952D01*
X105259523Y-114428571D01*
X105211904Y-114523809D01*
%TO.C,SW1*%
X70616666Y-82404761D02*
X70759523Y-82452380D01*
X70997619Y-82452380D01*
X71092857Y-82404761D01*
X71140476Y-82357142D01*
X71188095Y-82261904D01*
X71188095Y-82166666D01*
X71140476Y-82071428D01*
X71092857Y-82023809D01*
X70997619Y-81976190D01*
X70807142Y-81928571D01*
X70711904Y-81880952D01*
X70664285Y-81833333D01*
X70616666Y-81738095D01*
X70616666Y-81642857D01*
X70664285Y-81547619D01*
X70711904Y-81500000D01*
X70807142Y-81452380D01*
X71045238Y-81452380D01*
X71188095Y-81500000D01*
X71521428Y-81452380D02*
X71759523Y-82452380D01*
X71950000Y-81738095D01*
X72140476Y-82452380D01*
X72378571Y-81452380D01*
X73283333Y-82452380D02*
X72711904Y-82452380D01*
X72997619Y-82452380D02*
X72997619Y-81452380D01*
X72902380Y-81595238D01*
X72807142Y-81690476D01*
X72711904Y-81738095D01*
%TO.C,D1*%
X62561904Y-79652380D02*
X62561904Y-78652380D01*
X62800000Y-78652380D01*
X62942857Y-78700000D01*
X63038095Y-78795238D01*
X63085714Y-78890476D01*
X63133333Y-79080952D01*
X63133333Y-79223809D01*
X63085714Y-79414285D01*
X63038095Y-79509523D01*
X62942857Y-79604761D01*
X62800000Y-79652380D01*
X62561904Y-79652380D01*
X64085714Y-79652380D02*
X63514285Y-79652380D01*
X63800000Y-79652380D02*
X63800000Y-78652380D01*
X63704761Y-78795238D01*
X63609523Y-78890476D01*
X63514285Y-78938095D01*
%TO.C,4067_pads1*%
X168312857Y-115285714D02*
X168312857Y-115952380D01*
X168074761Y-114904761D02*
X167836666Y-115619047D01*
X168455714Y-115619047D01*
X169027142Y-114952380D02*
X169122380Y-114952380D01*
X169217619Y-115000000D01*
X169265238Y-115047619D01*
X169312857Y-115142857D01*
X169360476Y-115333333D01*
X169360476Y-115571428D01*
X169312857Y-115761904D01*
X169265238Y-115857142D01*
X169217619Y-115904761D01*
X169122380Y-115952380D01*
X169027142Y-115952380D01*
X168931904Y-115904761D01*
X168884285Y-115857142D01*
X168836666Y-115761904D01*
X168789047Y-115571428D01*
X168789047Y-115333333D01*
X168836666Y-115142857D01*
X168884285Y-115047619D01*
X168931904Y-115000000D01*
X169027142Y-114952380D01*
X170217619Y-114952380D02*
X170027142Y-114952380D01*
X169931904Y-115000000D01*
X169884285Y-115047619D01*
X169789047Y-115190476D01*
X169741428Y-115380952D01*
X169741428Y-115761904D01*
X169789047Y-115857142D01*
X169836666Y-115904761D01*
X169931904Y-115952380D01*
X170122380Y-115952380D01*
X170217619Y-115904761D01*
X170265238Y-115857142D01*
X170312857Y-115761904D01*
X170312857Y-115523809D01*
X170265238Y-115428571D01*
X170217619Y-115380952D01*
X170122380Y-115333333D01*
X169931904Y-115333333D01*
X169836666Y-115380952D01*
X169789047Y-115428571D01*
X169741428Y-115523809D01*
X170646190Y-114952380D02*
X171312857Y-114952380D01*
X170884285Y-115952380D01*
X171455714Y-116047619D02*
X172217619Y-116047619D01*
X172455714Y-115285714D02*
X172455714Y-116285714D01*
X172455714Y-115333333D02*
X172550952Y-115285714D01*
X172741428Y-115285714D01*
X172836666Y-115333333D01*
X172884285Y-115380952D01*
X172931904Y-115476190D01*
X172931904Y-115761904D01*
X172884285Y-115857142D01*
X172836666Y-115904761D01*
X172741428Y-115952380D01*
X172550952Y-115952380D01*
X172455714Y-115904761D01*
X173789047Y-115952380D02*
X173789047Y-115428571D01*
X173741428Y-115333333D01*
X173646190Y-115285714D01*
X173455714Y-115285714D01*
X173360476Y-115333333D01*
X173789047Y-115904761D02*
X173693809Y-115952380D01*
X173455714Y-115952380D01*
X173360476Y-115904761D01*
X173312857Y-115809523D01*
X173312857Y-115714285D01*
X173360476Y-115619047D01*
X173455714Y-115571428D01*
X173693809Y-115571428D01*
X173789047Y-115523809D01*
X174693809Y-115952380D02*
X174693809Y-114952380D01*
X174693809Y-115904761D02*
X174598571Y-115952380D01*
X174408095Y-115952380D01*
X174312857Y-115904761D01*
X174265238Y-115857142D01*
X174217619Y-115761904D01*
X174217619Y-115476190D01*
X174265238Y-115380952D01*
X174312857Y-115333333D01*
X174408095Y-115285714D01*
X174598571Y-115285714D01*
X174693809Y-115333333D01*
X175122380Y-115904761D02*
X175217619Y-115952380D01*
X175408095Y-115952380D01*
X175503333Y-115904761D01*
X175550952Y-115809523D01*
X175550952Y-115761904D01*
X175503333Y-115666666D01*
X175408095Y-115619047D01*
X175265238Y-115619047D01*
X175170000Y-115571428D01*
X175122380Y-115476190D01*
X175122380Y-115428571D01*
X175170000Y-115333333D01*
X175265238Y-115285714D01*
X175408095Y-115285714D01*
X175503333Y-115333333D01*
X176503333Y-115952380D02*
X175931904Y-115952380D01*
X176217619Y-115952380D02*
X176217619Y-114952380D01*
X176122380Y-115095238D01*
X176027142Y-115190476D01*
X175931904Y-115238095D01*
%TO.C,4067_pads2*%
X112542857Y-59355714D02*
X112542857Y-60022380D01*
X112304761Y-58974761D02*
X112066666Y-59689047D01*
X112685714Y-59689047D01*
X113257142Y-59022380D02*
X113352380Y-59022380D01*
X113447619Y-59070000D01*
X113495238Y-59117619D01*
X113542857Y-59212857D01*
X113590476Y-59403333D01*
X113590476Y-59641428D01*
X113542857Y-59831904D01*
X113495238Y-59927142D01*
X113447619Y-59974761D01*
X113352380Y-60022380D01*
X113257142Y-60022380D01*
X113161904Y-59974761D01*
X113114285Y-59927142D01*
X113066666Y-59831904D01*
X113019047Y-59641428D01*
X113019047Y-59403333D01*
X113066666Y-59212857D01*
X113114285Y-59117619D01*
X113161904Y-59070000D01*
X113257142Y-59022380D01*
X114447619Y-59022380D02*
X114257142Y-59022380D01*
X114161904Y-59070000D01*
X114114285Y-59117619D01*
X114019047Y-59260476D01*
X113971428Y-59450952D01*
X113971428Y-59831904D01*
X114019047Y-59927142D01*
X114066666Y-59974761D01*
X114161904Y-60022380D01*
X114352380Y-60022380D01*
X114447619Y-59974761D01*
X114495238Y-59927142D01*
X114542857Y-59831904D01*
X114542857Y-59593809D01*
X114495238Y-59498571D01*
X114447619Y-59450952D01*
X114352380Y-59403333D01*
X114161904Y-59403333D01*
X114066666Y-59450952D01*
X114019047Y-59498571D01*
X113971428Y-59593809D01*
X114876190Y-59022380D02*
X115542857Y-59022380D01*
X115114285Y-60022380D01*
X115685714Y-60117619D02*
X116447619Y-60117619D01*
X116685714Y-59355714D02*
X116685714Y-60355714D01*
X116685714Y-59403333D02*
X116780952Y-59355714D01*
X116971428Y-59355714D01*
X117066666Y-59403333D01*
X117114285Y-59450952D01*
X117161904Y-59546190D01*
X117161904Y-59831904D01*
X117114285Y-59927142D01*
X117066666Y-59974761D01*
X116971428Y-60022380D01*
X116780952Y-60022380D01*
X116685714Y-59974761D01*
X118019047Y-60022380D02*
X118019047Y-59498571D01*
X117971428Y-59403333D01*
X117876190Y-59355714D01*
X117685714Y-59355714D01*
X117590476Y-59403333D01*
X118019047Y-59974761D02*
X117923809Y-60022380D01*
X117685714Y-60022380D01*
X117590476Y-59974761D01*
X117542857Y-59879523D01*
X117542857Y-59784285D01*
X117590476Y-59689047D01*
X117685714Y-59641428D01*
X117923809Y-59641428D01*
X118019047Y-59593809D01*
X118923809Y-60022380D02*
X118923809Y-59022380D01*
X118923809Y-59974761D02*
X118828571Y-60022380D01*
X118638095Y-60022380D01*
X118542857Y-59974761D01*
X118495238Y-59927142D01*
X118447619Y-59831904D01*
X118447619Y-59546190D01*
X118495238Y-59450952D01*
X118542857Y-59403333D01*
X118638095Y-59355714D01*
X118828571Y-59355714D01*
X118923809Y-59403333D01*
X119352380Y-59974761D02*
X119447619Y-60022380D01*
X119638095Y-60022380D01*
X119733333Y-59974761D01*
X119780952Y-59879523D01*
X119780952Y-59831904D01*
X119733333Y-59736666D01*
X119638095Y-59689047D01*
X119495238Y-59689047D01*
X119400000Y-59641428D01*
X119352380Y-59546190D01*
X119352380Y-59498571D01*
X119400000Y-59403333D01*
X119495238Y-59355714D01*
X119638095Y-59355714D01*
X119733333Y-59403333D01*
X120161904Y-59117619D02*
X120209523Y-59070000D01*
X120304761Y-59022380D01*
X120542857Y-59022380D01*
X120638095Y-59070000D01*
X120685714Y-59117619D01*
X120733333Y-59212857D01*
X120733333Y-59308095D01*
X120685714Y-59450952D01*
X120114285Y-60022380D01*
X120733333Y-60022380D01*
%TO.C,4067_pads3*%
X66172857Y-118315714D02*
X66172857Y-118982380D01*
X65934761Y-117934761D02*
X65696666Y-118649047D01*
X66315714Y-118649047D01*
X66887142Y-117982380D02*
X66982380Y-117982380D01*
X67077619Y-118030000D01*
X67125238Y-118077619D01*
X67172857Y-118172857D01*
X67220476Y-118363333D01*
X67220476Y-118601428D01*
X67172857Y-118791904D01*
X67125238Y-118887142D01*
X67077619Y-118934761D01*
X66982380Y-118982380D01*
X66887142Y-118982380D01*
X66791904Y-118934761D01*
X66744285Y-118887142D01*
X66696666Y-118791904D01*
X66649047Y-118601428D01*
X66649047Y-118363333D01*
X66696666Y-118172857D01*
X66744285Y-118077619D01*
X66791904Y-118030000D01*
X66887142Y-117982380D01*
X68077619Y-117982380D02*
X67887142Y-117982380D01*
X67791904Y-118030000D01*
X67744285Y-118077619D01*
X67649047Y-118220476D01*
X67601428Y-118410952D01*
X67601428Y-118791904D01*
X67649047Y-118887142D01*
X67696666Y-118934761D01*
X67791904Y-118982380D01*
X67982380Y-118982380D01*
X68077619Y-118934761D01*
X68125238Y-118887142D01*
X68172857Y-118791904D01*
X68172857Y-118553809D01*
X68125238Y-118458571D01*
X68077619Y-118410952D01*
X67982380Y-118363333D01*
X67791904Y-118363333D01*
X67696666Y-118410952D01*
X67649047Y-118458571D01*
X67601428Y-118553809D01*
X68506190Y-117982380D02*
X69172857Y-117982380D01*
X68744285Y-118982380D01*
X69315714Y-119077619D02*
X70077619Y-119077619D01*
X70315714Y-118315714D02*
X70315714Y-119315714D01*
X70315714Y-118363333D02*
X70410952Y-118315714D01*
X70601428Y-118315714D01*
X70696666Y-118363333D01*
X70744285Y-118410952D01*
X70791904Y-118506190D01*
X70791904Y-118791904D01*
X70744285Y-118887142D01*
X70696666Y-118934761D01*
X70601428Y-118982380D01*
X70410952Y-118982380D01*
X70315714Y-118934761D01*
X71649047Y-118982380D02*
X71649047Y-118458571D01*
X71601428Y-118363333D01*
X71506190Y-118315714D01*
X71315714Y-118315714D01*
X71220476Y-118363333D01*
X71649047Y-118934761D02*
X71553809Y-118982380D01*
X71315714Y-118982380D01*
X71220476Y-118934761D01*
X71172857Y-118839523D01*
X71172857Y-118744285D01*
X71220476Y-118649047D01*
X71315714Y-118601428D01*
X71553809Y-118601428D01*
X71649047Y-118553809D01*
X72553809Y-118982380D02*
X72553809Y-117982380D01*
X72553809Y-118934761D02*
X72458571Y-118982380D01*
X72268095Y-118982380D01*
X72172857Y-118934761D01*
X72125238Y-118887142D01*
X72077619Y-118791904D01*
X72077619Y-118506190D01*
X72125238Y-118410952D01*
X72172857Y-118363333D01*
X72268095Y-118315714D01*
X72458571Y-118315714D01*
X72553809Y-118363333D01*
X72982380Y-118934761D02*
X73077619Y-118982380D01*
X73268095Y-118982380D01*
X73363333Y-118934761D01*
X73410952Y-118839523D01*
X73410952Y-118791904D01*
X73363333Y-118696666D01*
X73268095Y-118649047D01*
X73125238Y-118649047D01*
X73030000Y-118601428D01*
X72982380Y-118506190D01*
X72982380Y-118458571D01*
X73030000Y-118363333D01*
X73125238Y-118315714D01*
X73268095Y-118315714D01*
X73363333Y-118363333D01*
X73744285Y-117982380D02*
X74363333Y-117982380D01*
X74030000Y-118363333D01*
X74172857Y-118363333D01*
X74268095Y-118410952D01*
X74315714Y-118458571D01*
X74363333Y-118553809D01*
X74363333Y-118791904D01*
X74315714Y-118887142D01*
X74268095Y-118934761D01*
X74172857Y-118982380D01*
X73887142Y-118982380D01*
X73791904Y-118934761D01*
X73744285Y-118887142D01*
%TO.C,4067_pads4*%
X112132857Y-169395714D02*
X112132857Y-170062380D01*
X111894761Y-169014761D02*
X111656666Y-169729047D01*
X112275714Y-169729047D01*
X112847142Y-169062380D02*
X112942380Y-169062380D01*
X113037619Y-169110000D01*
X113085238Y-169157619D01*
X113132857Y-169252857D01*
X113180476Y-169443333D01*
X113180476Y-169681428D01*
X113132857Y-169871904D01*
X113085238Y-169967142D01*
X113037619Y-170014761D01*
X112942380Y-170062380D01*
X112847142Y-170062380D01*
X112751904Y-170014761D01*
X112704285Y-169967142D01*
X112656666Y-169871904D01*
X112609047Y-169681428D01*
X112609047Y-169443333D01*
X112656666Y-169252857D01*
X112704285Y-169157619D01*
X112751904Y-169110000D01*
X112847142Y-169062380D01*
X114037619Y-169062380D02*
X113847142Y-169062380D01*
X113751904Y-169110000D01*
X113704285Y-169157619D01*
X113609047Y-169300476D01*
X113561428Y-169490952D01*
X113561428Y-169871904D01*
X113609047Y-169967142D01*
X113656666Y-170014761D01*
X113751904Y-170062380D01*
X113942380Y-170062380D01*
X114037619Y-170014761D01*
X114085238Y-169967142D01*
X114132857Y-169871904D01*
X114132857Y-169633809D01*
X114085238Y-169538571D01*
X114037619Y-169490952D01*
X113942380Y-169443333D01*
X113751904Y-169443333D01*
X113656666Y-169490952D01*
X113609047Y-169538571D01*
X113561428Y-169633809D01*
X114466190Y-169062380D02*
X115132857Y-169062380D01*
X114704285Y-170062380D01*
X115275714Y-170157619D02*
X116037619Y-170157619D01*
X116275714Y-169395714D02*
X116275714Y-170395714D01*
X116275714Y-169443333D02*
X116370952Y-169395714D01*
X116561428Y-169395714D01*
X116656666Y-169443333D01*
X116704285Y-169490952D01*
X116751904Y-169586190D01*
X116751904Y-169871904D01*
X116704285Y-169967142D01*
X116656666Y-170014761D01*
X116561428Y-170062380D01*
X116370952Y-170062380D01*
X116275714Y-170014761D01*
X117609047Y-170062380D02*
X117609047Y-169538571D01*
X117561428Y-169443333D01*
X117466190Y-169395714D01*
X117275714Y-169395714D01*
X117180476Y-169443333D01*
X117609047Y-170014761D02*
X117513809Y-170062380D01*
X117275714Y-170062380D01*
X117180476Y-170014761D01*
X117132857Y-169919523D01*
X117132857Y-169824285D01*
X117180476Y-169729047D01*
X117275714Y-169681428D01*
X117513809Y-169681428D01*
X117609047Y-169633809D01*
X118513809Y-170062380D02*
X118513809Y-169062380D01*
X118513809Y-170014761D02*
X118418571Y-170062380D01*
X118228095Y-170062380D01*
X118132857Y-170014761D01*
X118085238Y-169967142D01*
X118037619Y-169871904D01*
X118037619Y-169586190D01*
X118085238Y-169490952D01*
X118132857Y-169443333D01*
X118228095Y-169395714D01*
X118418571Y-169395714D01*
X118513809Y-169443333D01*
X118942380Y-170014761D02*
X119037619Y-170062380D01*
X119228095Y-170062380D01*
X119323333Y-170014761D01*
X119370952Y-169919523D01*
X119370952Y-169871904D01*
X119323333Y-169776666D01*
X119228095Y-169729047D01*
X119085238Y-169729047D01*
X118990000Y-169681428D01*
X118942380Y-169586190D01*
X118942380Y-169538571D01*
X118990000Y-169443333D01*
X119085238Y-169395714D01*
X119228095Y-169395714D01*
X119323333Y-169443333D01*
X120228095Y-169395714D02*
X120228095Y-170062380D01*
X119990000Y-169014761D02*
X119751904Y-169729047D01*
X120370952Y-169729047D01*
%TO.C,ws2812b_pads4*%
X164028095Y-90265714D02*
X164218571Y-90932380D01*
X164409047Y-90456190D01*
X164599523Y-90932380D01*
X164790000Y-90265714D01*
X165123333Y-90884761D02*
X165218571Y-90932380D01*
X165409047Y-90932380D01*
X165504285Y-90884761D01*
X165551904Y-90789523D01*
X165551904Y-90741904D01*
X165504285Y-90646666D01*
X165409047Y-90599047D01*
X165266190Y-90599047D01*
X165170952Y-90551428D01*
X165123333Y-90456190D01*
X165123333Y-90408571D01*
X165170952Y-90313333D01*
X165266190Y-90265714D01*
X165409047Y-90265714D01*
X165504285Y-90313333D01*
X165932857Y-90027619D02*
X165980476Y-89980000D01*
X166075714Y-89932380D01*
X166313809Y-89932380D01*
X166409047Y-89980000D01*
X166456666Y-90027619D01*
X166504285Y-90122857D01*
X166504285Y-90218095D01*
X166456666Y-90360952D01*
X165885238Y-90932380D01*
X166504285Y-90932380D01*
X167075714Y-90360952D02*
X166980476Y-90313333D01*
X166932857Y-90265714D01*
X166885238Y-90170476D01*
X166885238Y-90122857D01*
X166932857Y-90027619D01*
X166980476Y-89980000D01*
X167075714Y-89932380D01*
X167266190Y-89932380D01*
X167361428Y-89980000D01*
X167409047Y-90027619D01*
X167456666Y-90122857D01*
X167456666Y-90170476D01*
X167409047Y-90265714D01*
X167361428Y-90313333D01*
X167266190Y-90360952D01*
X167075714Y-90360952D01*
X166980476Y-90408571D01*
X166932857Y-90456190D01*
X166885238Y-90551428D01*
X166885238Y-90741904D01*
X166932857Y-90837142D01*
X166980476Y-90884761D01*
X167075714Y-90932380D01*
X167266190Y-90932380D01*
X167361428Y-90884761D01*
X167409047Y-90837142D01*
X167456666Y-90741904D01*
X167456666Y-90551428D01*
X167409047Y-90456190D01*
X167361428Y-90408571D01*
X167266190Y-90360952D01*
X168409047Y-90932380D02*
X167837619Y-90932380D01*
X168123333Y-90932380D02*
X168123333Y-89932380D01*
X168028095Y-90075238D01*
X167932857Y-90170476D01*
X167837619Y-90218095D01*
X168790000Y-90027619D02*
X168837619Y-89980000D01*
X168932857Y-89932380D01*
X169170952Y-89932380D01*
X169266190Y-89980000D01*
X169313809Y-90027619D01*
X169361428Y-90122857D01*
X169361428Y-90218095D01*
X169313809Y-90360952D01*
X168742380Y-90932380D01*
X169361428Y-90932380D01*
X169790000Y-90932380D02*
X169790000Y-89932380D01*
X169790000Y-90313333D02*
X169885238Y-90265714D01*
X170075714Y-90265714D01*
X170170952Y-90313333D01*
X170218571Y-90360952D01*
X170266190Y-90456190D01*
X170266190Y-90741904D01*
X170218571Y-90837142D01*
X170170952Y-90884761D01*
X170075714Y-90932380D01*
X169885238Y-90932380D01*
X169790000Y-90884761D01*
X170456666Y-91027619D02*
X171218571Y-91027619D01*
X171456666Y-90265714D02*
X171456666Y-91265714D01*
X171456666Y-90313333D02*
X171551904Y-90265714D01*
X171742380Y-90265714D01*
X171837619Y-90313333D01*
X171885238Y-90360952D01*
X171932857Y-90456190D01*
X171932857Y-90741904D01*
X171885238Y-90837142D01*
X171837619Y-90884761D01*
X171742380Y-90932380D01*
X171551904Y-90932380D01*
X171456666Y-90884761D01*
X172790000Y-90932380D02*
X172790000Y-90408571D01*
X172742380Y-90313333D01*
X172647142Y-90265714D01*
X172456666Y-90265714D01*
X172361428Y-90313333D01*
X172790000Y-90884761D02*
X172694761Y-90932380D01*
X172456666Y-90932380D01*
X172361428Y-90884761D01*
X172313809Y-90789523D01*
X172313809Y-90694285D01*
X172361428Y-90599047D01*
X172456666Y-90551428D01*
X172694761Y-90551428D01*
X172790000Y-90503809D01*
X173694761Y-90932380D02*
X173694761Y-89932380D01*
X173694761Y-90884761D02*
X173599523Y-90932380D01*
X173409047Y-90932380D01*
X173313809Y-90884761D01*
X173266190Y-90837142D01*
X173218571Y-90741904D01*
X173218571Y-90456190D01*
X173266190Y-90360952D01*
X173313809Y-90313333D01*
X173409047Y-90265714D01*
X173599523Y-90265714D01*
X173694761Y-90313333D01*
X174123333Y-90884761D02*
X174218571Y-90932380D01*
X174409047Y-90932380D01*
X174504285Y-90884761D01*
X174551904Y-90789523D01*
X174551904Y-90741904D01*
X174504285Y-90646666D01*
X174409047Y-90599047D01*
X174266190Y-90599047D01*
X174170952Y-90551428D01*
X174123333Y-90456190D01*
X174123333Y-90408571D01*
X174170952Y-90313333D01*
X174266190Y-90265714D01*
X174409047Y-90265714D01*
X174504285Y-90313333D01*
X175409047Y-90265714D02*
X175409047Y-90932380D01*
X175170952Y-89884761D02*
X174932857Y-90599047D01*
X175551904Y-90599047D01*
%TO.C,ws2812b_pads1*%
X134558095Y-169395714D02*
X134748571Y-170062380D01*
X134939047Y-169586190D01*
X135129523Y-170062380D01*
X135320000Y-169395714D01*
X135653333Y-170014761D02*
X135748571Y-170062380D01*
X135939047Y-170062380D01*
X136034285Y-170014761D01*
X136081904Y-169919523D01*
X136081904Y-169871904D01*
X136034285Y-169776666D01*
X135939047Y-169729047D01*
X135796190Y-169729047D01*
X135700952Y-169681428D01*
X135653333Y-169586190D01*
X135653333Y-169538571D01*
X135700952Y-169443333D01*
X135796190Y-169395714D01*
X135939047Y-169395714D01*
X136034285Y-169443333D01*
X136462857Y-169157619D02*
X136510476Y-169110000D01*
X136605714Y-169062380D01*
X136843809Y-169062380D01*
X136939047Y-169110000D01*
X136986666Y-169157619D01*
X137034285Y-169252857D01*
X137034285Y-169348095D01*
X136986666Y-169490952D01*
X136415238Y-170062380D01*
X137034285Y-170062380D01*
X137605714Y-169490952D02*
X137510476Y-169443333D01*
X137462857Y-169395714D01*
X137415238Y-169300476D01*
X137415238Y-169252857D01*
X137462857Y-169157619D01*
X137510476Y-169110000D01*
X137605714Y-169062380D01*
X137796190Y-169062380D01*
X137891428Y-169110000D01*
X137939047Y-169157619D01*
X137986666Y-169252857D01*
X137986666Y-169300476D01*
X137939047Y-169395714D01*
X137891428Y-169443333D01*
X137796190Y-169490952D01*
X137605714Y-169490952D01*
X137510476Y-169538571D01*
X137462857Y-169586190D01*
X137415238Y-169681428D01*
X137415238Y-169871904D01*
X137462857Y-169967142D01*
X137510476Y-170014761D01*
X137605714Y-170062380D01*
X137796190Y-170062380D01*
X137891428Y-170014761D01*
X137939047Y-169967142D01*
X137986666Y-169871904D01*
X137986666Y-169681428D01*
X137939047Y-169586190D01*
X137891428Y-169538571D01*
X137796190Y-169490952D01*
X138939047Y-170062380D02*
X138367619Y-170062380D01*
X138653333Y-170062380D02*
X138653333Y-169062380D01*
X138558095Y-169205238D01*
X138462857Y-169300476D01*
X138367619Y-169348095D01*
X139320000Y-169157619D02*
X139367619Y-169110000D01*
X139462857Y-169062380D01*
X139700952Y-169062380D01*
X139796190Y-169110000D01*
X139843809Y-169157619D01*
X139891428Y-169252857D01*
X139891428Y-169348095D01*
X139843809Y-169490952D01*
X139272380Y-170062380D01*
X139891428Y-170062380D01*
X140320000Y-170062380D02*
X140320000Y-169062380D01*
X140320000Y-169443333D02*
X140415238Y-169395714D01*
X140605714Y-169395714D01*
X140700952Y-169443333D01*
X140748571Y-169490952D01*
X140796190Y-169586190D01*
X140796190Y-169871904D01*
X140748571Y-169967142D01*
X140700952Y-170014761D01*
X140605714Y-170062380D01*
X140415238Y-170062380D01*
X140320000Y-170014761D01*
X140986666Y-170157619D02*
X141748571Y-170157619D01*
X141986666Y-169395714D02*
X141986666Y-170395714D01*
X141986666Y-169443333D02*
X142081904Y-169395714D01*
X142272380Y-169395714D01*
X142367619Y-169443333D01*
X142415238Y-169490952D01*
X142462857Y-169586190D01*
X142462857Y-169871904D01*
X142415238Y-169967142D01*
X142367619Y-170014761D01*
X142272380Y-170062380D01*
X142081904Y-170062380D01*
X141986666Y-170014761D01*
X143320000Y-170062380D02*
X143320000Y-169538571D01*
X143272380Y-169443333D01*
X143177142Y-169395714D01*
X142986666Y-169395714D01*
X142891428Y-169443333D01*
X143320000Y-170014761D02*
X143224761Y-170062380D01*
X142986666Y-170062380D01*
X142891428Y-170014761D01*
X142843809Y-169919523D01*
X142843809Y-169824285D01*
X142891428Y-169729047D01*
X142986666Y-169681428D01*
X143224761Y-169681428D01*
X143320000Y-169633809D01*
X144224761Y-170062380D02*
X144224761Y-169062380D01*
X144224761Y-170014761D02*
X144129523Y-170062380D01*
X143939047Y-170062380D01*
X143843809Y-170014761D01*
X143796190Y-169967142D01*
X143748571Y-169871904D01*
X143748571Y-169586190D01*
X143796190Y-169490952D01*
X143843809Y-169443333D01*
X143939047Y-169395714D01*
X144129523Y-169395714D01*
X144224761Y-169443333D01*
X144653333Y-170014761D02*
X144748571Y-170062380D01*
X144939047Y-170062380D01*
X145034285Y-170014761D01*
X145081904Y-169919523D01*
X145081904Y-169871904D01*
X145034285Y-169776666D01*
X144939047Y-169729047D01*
X144796190Y-169729047D01*
X144700952Y-169681428D01*
X144653333Y-169586190D01*
X144653333Y-169538571D01*
X144700952Y-169443333D01*
X144796190Y-169395714D01*
X144939047Y-169395714D01*
X145034285Y-169443333D01*
X146034285Y-170062380D02*
X145462857Y-170062380D01*
X145748571Y-170062380D02*
X145748571Y-169062380D01*
X145653333Y-169205238D01*
X145558095Y-169300476D01*
X145462857Y-169348095D01*
%TO.C,ws2812b_pads3*%
X65218095Y-89825714D02*
X65408571Y-90492380D01*
X65599047Y-90016190D01*
X65789523Y-90492380D01*
X65980000Y-89825714D01*
X66313333Y-90444761D02*
X66408571Y-90492380D01*
X66599047Y-90492380D01*
X66694285Y-90444761D01*
X66741904Y-90349523D01*
X66741904Y-90301904D01*
X66694285Y-90206666D01*
X66599047Y-90159047D01*
X66456190Y-90159047D01*
X66360952Y-90111428D01*
X66313333Y-90016190D01*
X66313333Y-89968571D01*
X66360952Y-89873333D01*
X66456190Y-89825714D01*
X66599047Y-89825714D01*
X66694285Y-89873333D01*
X67122857Y-89587619D02*
X67170476Y-89540000D01*
X67265714Y-89492380D01*
X67503809Y-89492380D01*
X67599047Y-89540000D01*
X67646666Y-89587619D01*
X67694285Y-89682857D01*
X67694285Y-89778095D01*
X67646666Y-89920952D01*
X67075238Y-90492380D01*
X67694285Y-90492380D01*
X68265714Y-89920952D02*
X68170476Y-89873333D01*
X68122857Y-89825714D01*
X68075238Y-89730476D01*
X68075238Y-89682857D01*
X68122857Y-89587619D01*
X68170476Y-89540000D01*
X68265714Y-89492380D01*
X68456190Y-89492380D01*
X68551428Y-89540000D01*
X68599047Y-89587619D01*
X68646666Y-89682857D01*
X68646666Y-89730476D01*
X68599047Y-89825714D01*
X68551428Y-89873333D01*
X68456190Y-89920952D01*
X68265714Y-89920952D01*
X68170476Y-89968571D01*
X68122857Y-90016190D01*
X68075238Y-90111428D01*
X68075238Y-90301904D01*
X68122857Y-90397142D01*
X68170476Y-90444761D01*
X68265714Y-90492380D01*
X68456190Y-90492380D01*
X68551428Y-90444761D01*
X68599047Y-90397142D01*
X68646666Y-90301904D01*
X68646666Y-90111428D01*
X68599047Y-90016190D01*
X68551428Y-89968571D01*
X68456190Y-89920952D01*
X69599047Y-90492380D02*
X69027619Y-90492380D01*
X69313333Y-90492380D02*
X69313333Y-89492380D01*
X69218095Y-89635238D01*
X69122857Y-89730476D01*
X69027619Y-89778095D01*
X69980000Y-89587619D02*
X70027619Y-89540000D01*
X70122857Y-89492380D01*
X70360952Y-89492380D01*
X70456190Y-89540000D01*
X70503809Y-89587619D01*
X70551428Y-89682857D01*
X70551428Y-89778095D01*
X70503809Y-89920952D01*
X69932380Y-90492380D01*
X70551428Y-90492380D01*
X70980000Y-90492380D02*
X70980000Y-89492380D01*
X70980000Y-89873333D02*
X71075238Y-89825714D01*
X71265714Y-89825714D01*
X71360952Y-89873333D01*
X71408571Y-89920952D01*
X71456190Y-90016190D01*
X71456190Y-90301904D01*
X71408571Y-90397142D01*
X71360952Y-90444761D01*
X71265714Y-90492380D01*
X71075238Y-90492380D01*
X70980000Y-90444761D01*
X71646666Y-90587619D02*
X72408571Y-90587619D01*
X72646666Y-89825714D02*
X72646666Y-90825714D01*
X72646666Y-89873333D02*
X72741904Y-89825714D01*
X72932380Y-89825714D01*
X73027619Y-89873333D01*
X73075238Y-89920952D01*
X73122857Y-90016190D01*
X73122857Y-90301904D01*
X73075238Y-90397142D01*
X73027619Y-90444761D01*
X72932380Y-90492380D01*
X72741904Y-90492380D01*
X72646666Y-90444761D01*
X73980000Y-90492380D02*
X73980000Y-89968571D01*
X73932380Y-89873333D01*
X73837142Y-89825714D01*
X73646666Y-89825714D01*
X73551428Y-89873333D01*
X73980000Y-90444761D02*
X73884761Y-90492380D01*
X73646666Y-90492380D01*
X73551428Y-90444761D01*
X73503809Y-90349523D01*
X73503809Y-90254285D01*
X73551428Y-90159047D01*
X73646666Y-90111428D01*
X73884761Y-90111428D01*
X73980000Y-90063809D01*
X74884761Y-90492380D02*
X74884761Y-89492380D01*
X74884761Y-90444761D02*
X74789523Y-90492380D01*
X74599047Y-90492380D01*
X74503809Y-90444761D01*
X74456190Y-90397142D01*
X74408571Y-90301904D01*
X74408571Y-90016190D01*
X74456190Y-89920952D01*
X74503809Y-89873333D01*
X74599047Y-89825714D01*
X74789523Y-89825714D01*
X74884761Y-89873333D01*
X75313333Y-90444761D02*
X75408571Y-90492380D01*
X75599047Y-90492380D01*
X75694285Y-90444761D01*
X75741904Y-90349523D01*
X75741904Y-90301904D01*
X75694285Y-90206666D01*
X75599047Y-90159047D01*
X75456190Y-90159047D01*
X75360952Y-90111428D01*
X75313333Y-90016190D01*
X75313333Y-89968571D01*
X75360952Y-89873333D01*
X75456190Y-89825714D01*
X75599047Y-89825714D01*
X75694285Y-89873333D01*
X76075238Y-89492380D02*
X76694285Y-89492380D01*
X76360952Y-89873333D01*
X76503809Y-89873333D01*
X76599047Y-89920952D01*
X76646666Y-89968571D01*
X76694285Y-90063809D01*
X76694285Y-90301904D01*
X76646666Y-90397142D01*
X76599047Y-90444761D01*
X76503809Y-90492380D01*
X76218095Y-90492380D01*
X76122857Y-90444761D01*
X76075238Y-90397142D01*
%TO.C,ws2812b_pads2*%
X133718095Y-59355714D02*
X133908571Y-60022380D01*
X134099047Y-59546190D01*
X134289523Y-60022380D01*
X134480000Y-59355714D01*
X134813333Y-59974761D02*
X134908571Y-60022380D01*
X135099047Y-60022380D01*
X135194285Y-59974761D01*
X135241904Y-59879523D01*
X135241904Y-59831904D01*
X135194285Y-59736666D01*
X135099047Y-59689047D01*
X134956190Y-59689047D01*
X134860952Y-59641428D01*
X134813333Y-59546190D01*
X134813333Y-59498571D01*
X134860952Y-59403333D01*
X134956190Y-59355714D01*
X135099047Y-59355714D01*
X135194285Y-59403333D01*
X135622857Y-59117619D02*
X135670476Y-59070000D01*
X135765714Y-59022380D01*
X136003809Y-59022380D01*
X136099047Y-59070000D01*
X136146666Y-59117619D01*
X136194285Y-59212857D01*
X136194285Y-59308095D01*
X136146666Y-59450952D01*
X135575238Y-60022380D01*
X136194285Y-60022380D01*
X136765714Y-59450952D02*
X136670476Y-59403333D01*
X136622857Y-59355714D01*
X136575238Y-59260476D01*
X136575238Y-59212857D01*
X136622857Y-59117619D01*
X136670476Y-59070000D01*
X136765714Y-59022380D01*
X136956190Y-59022380D01*
X137051428Y-59070000D01*
X137099047Y-59117619D01*
X137146666Y-59212857D01*
X137146666Y-59260476D01*
X137099047Y-59355714D01*
X137051428Y-59403333D01*
X136956190Y-59450952D01*
X136765714Y-59450952D01*
X136670476Y-59498571D01*
X136622857Y-59546190D01*
X136575238Y-59641428D01*
X136575238Y-59831904D01*
X136622857Y-59927142D01*
X136670476Y-59974761D01*
X136765714Y-60022380D01*
X136956190Y-60022380D01*
X137051428Y-59974761D01*
X137099047Y-59927142D01*
X137146666Y-59831904D01*
X137146666Y-59641428D01*
X137099047Y-59546190D01*
X137051428Y-59498571D01*
X136956190Y-59450952D01*
X138099047Y-60022380D02*
X137527619Y-60022380D01*
X137813333Y-60022380D02*
X137813333Y-59022380D01*
X137718095Y-59165238D01*
X137622857Y-59260476D01*
X137527619Y-59308095D01*
X138480000Y-59117619D02*
X138527619Y-59070000D01*
X138622857Y-59022380D01*
X138860952Y-59022380D01*
X138956190Y-59070000D01*
X139003809Y-59117619D01*
X139051428Y-59212857D01*
X139051428Y-59308095D01*
X139003809Y-59450952D01*
X138432380Y-60022380D01*
X139051428Y-60022380D01*
X139480000Y-60022380D02*
X139480000Y-59022380D01*
X139480000Y-59403333D02*
X139575238Y-59355714D01*
X139765714Y-59355714D01*
X139860952Y-59403333D01*
X139908571Y-59450952D01*
X139956190Y-59546190D01*
X139956190Y-59831904D01*
X139908571Y-59927142D01*
X139860952Y-59974761D01*
X139765714Y-60022380D01*
X139575238Y-60022380D01*
X139480000Y-59974761D01*
X140146666Y-60117619D02*
X140908571Y-60117619D01*
X141146666Y-59355714D02*
X141146666Y-60355714D01*
X141146666Y-59403333D02*
X141241904Y-59355714D01*
X141432380Y-59355714D01*
X141527619Y-59403333D01*
X141575238Y-59450952D01*
X141622857Y-59546190D01*
X141622857Y-59831904D01*
X141575238Y-59927142D01*
X141527619Y-59974761D01*
X141432380Y-60022380D01*
X141241904Y-60022380D01*
X141146666Y-59974761D01*
X142480000Y-60022380D02*
X142480000Y-59498571D01*
X142432380Y-59403333D01*
X142337142Y-59355714D01*
X142146666Y-59355714D01*
X142051428Y-59403333D01*
X142480000Y-59974761D02*
X142384761Y-60022380D01*
X142146666Y-60022380D01*
X142051428Y-59974761D01*
X142003809Y-59879523D01*
X142003809Y-59784285D01*
X142051428Y-59689047D01*
X142146666Y-59641428D01*
X142384761Y-59641428D01*
X142480000Y-59593809D01*
X143384761Y-60022380D02*
X143384761Y-59022380D01*
X143384761Y-59974761D02*
X143289523Y-60022380D01*
X143099047Y-60022380D01*
X143003809Y-59974761D01*
X142956190Y-59927142D01*
X142908571Y-59831904D01*
X142908571Y-59546190D01*
X142956190Y-59450952D01*
X143003809Y-59403333D01*
X143099047Y-59355714D01*
X143289523Y-59355714D01*
X143384761Y-59403333D01*
X143813333Y-59974761D02*
X143908571Y-60022380D01*
X144099047Y-60022380D01*
X144194285Y-59974761D01*
X144241904Y-59879523D01*
X144241904Y-59831904D01*
X144194285Y-59736666D01*
X144099047Y-59689047D01*
X143956190Y-59689047D01*
X143860952Y-59641428D01*
X143813333Y-59546190D01*
X143813333Y-59498571D01*
X143860952Y-59403333D01*
X143956190Y-59355714D01*
X144099047Y-59355714D01*
X144194285Y-59403333D01*
X144622857Y-59117619D02*
X144670476Y-59070000D01*
X144765714Y-59022380D01*
X145003809Y-59022380D01*
X145099047Y-59070000D01*
X145146666Y-59117619D01*
X145194285Y-59212857D01*
X145194285Y-59308095D01*
X145146666Y-59450952D01*
X144575238Y-60022380D01*
X145194285Y-60022380D01*
%TO.C,SW3*%
X70616666Y-147404761D02*
X70759523Y-147452380D01*
X70997619Y-147452380D01*
X71092857Y-147404761D01*
X71140476Y-147357142D01*
X71188095Y-147261904D01*
X71188095Y-147166666D01*
X71140476Y-147071428D01*
X71092857Y-147023809D01*
X70997619Y-146976190D01*
X70807142Y-146928571D01*
X70711904Y-146880952D01*
X70664285Y-146833333D01*
X70616666Y-146738095D01*
X70616666Y-146642857D01*
X70664285Y-146547619D01*
X70711904Y-146500000D01*
X70807142Y-146452380D01*
X71045238Y-146452380D01*
X71188095Y-146500000D01*
X71521428Y-146452380D02*
X71759523Y-147452380D01*
X71950000Y-146738095D01*
X72140476Y-147452380D01*
X72378571Y-146452380D01*
X72664285Y-146452380D02*
X73283333Y-146452380D01*
X72950000Y-146833333D01*
X73092857Y-146833333D01*
X73188095Y-146880952D01*
X73235714Y-146928571D01*
X73283333Y-147023809D01*
X73283333Y-147261904D01*
X73235714Y-147357142D01*
X73188095Y-147404761D01*
X73092857Y-147452380D01*
X72807142Y-147452380D01*
X72711904Y-147404761D01*
X72664285Y-147357142D01*
%TO.C,SW4*%
X70616666Y-178904761D02*
X70759523Y-178952380D01*
X70997619Y-178952380D01*
X71092857Y-178904761D01*
X71140476Y-178857142D01*
X71188095Y-178761904D01*
X71188095Y-178666666D01*
X71140476Y-178571428D01*
X71092857Y-178523809D01*
X70997619Y-178476190D01*
X70807142Y-178428571D01*
X70711904Y-178380952D01*
X70664285Y-178333333D01*
X70616666Y-178238095D01*
X70616666Y-178142857D01*
X70664285Y-178047619D01*
X70711904Y-178000000D01*
X70807142Y-177952380D01*
X71045238Y-177952380D01*
X71188095Y-178000000D01*
X71521428Y-177952380D02*
X71759523Y-178952380D01*
X71950000Y-178238095D01*
X72140476Y-178952380D01*
X72378571Y-177952380D01*
X73188095Y-178285714D02*
X73188095Y-178952380D01*
X72950000Y-177904761D02*
X72711904Y-178619047D01*
X73330952Y-178619047D01*
%TO.C,SW9*%
X135616666Y-82404761D02*
X135759523Y-82452380D01*
X135997619Y-82452380D01*
X136092857Y-82404761D01*
X136140476Y-82357142D01*
X136188095Y-82261904D01*
X136188095Y-82166666D01*
X136140476Y-82071428D01*
X136092857Y-82023809D01*
X135997619Y-81976190D01*
X135807142Y-81928571D01*
X135711904Y-81880952D01*
X135664285Y-81833333D01*
X135616666Y-81738095D01*
X135616666Y-81642857D01*
X135664285Y-81547619D01*
X135711904Y-81500000D01*
X135807142Y-81452380D01*
X136045238Y-81452380D01*
X136188095Y-81500000D01*
X136521428Y-81452380D02*
X136759523Y-82452380D01*
X136950000Y-81738095D01*
X137140476Y-82452380D01*
X137378571Y-81452380D01*
X137807142Y-82452380D02*
X137997619Y-82452380D01*
X138092857Y-82404761D01*
X138140476Y-82357142D01*
X138235714Y-82214285D01*
X138283333Y-82023809D01*
X138283333Y-81642857D01*
X138235714Y-81547619D01*
X138188095Y-81500000D01*
X138092857Y-81452380D01*
X137902380Y-81452380D01*
X137807142Y-81500000D01*
X137759523Y-81547619D01*
X137711904Y-81642857D01*
X137711904Y-81880952D01*
X137759523Y-81976190D01*
X137807142Y-82023809D01*
X137902380Y-82071428D01*
X138092857Y-82071428D01*
X138188095Y-82023809D01*
X138235714Y-81976190D01*
X138283333Y-81880952D01*
%TO.C,SW10*%
X135140476Y-114904761D02*
X135283333Y-114952380D01*
X135521428Y-114952380D01*
X135616666Y-114904761D01*
X135664285Y-114857142D01*
X135711904Y-114761904D01*
X135711904Y-114666666D01*
X135664285Y-114571428D01*
X135616666Y-114523809D01*
X135521428Y-114476190D01*
X135330952Y-114428571D01*
X135235714Y-114380952D01*
X135188095Y-114333333D01*
X135140476Y-114238095D01*
X135140476Y-114142857D01*
X135188095Y-114047619D01*
X135235714Y-114000000D01*
X135330952Y-113952380D01*
X135569047Y-113952380D01*
X135711904Y-114000000D01*
X136045238Y-113952380D02*
X136283333Y-114952380D01*
X136473809Y-114238095D01*
X136664285Y-114952380D01*
X136902380Y-113952380D01*
X137807142Y-114952380D02*
X137235714Y-114952380D01*
X137521428Y-114952380D02*
X137521428Y-113952380D01*
X137426190Y-114095238D01*
X137330952Y-114190476D01*
X137235714Y-114238095D01*
X138426190Y-113952380D02*
X138521428Y-113952380D01*
X138616666Y-114000000D01*
X138664285Y-114047619D01*
X138711904Y-114142857D01*
X138759523Y-114333333D01*
X138759523Y-114571428D01*
X138711904Y-114761904D01*
X138664285Y-114857142D01*
X138616666Y-114904761D01*
X138521428Y-114952380D01*
X138426190Y-114952380D01*
X138330952Y-114904761D01*
X138283333Y-114857142D01*
X138235714Y-114761904D01*
X138188095Y-114571428D01*
X138188095Y-114333333D01*
X138235714Y-114142857D01*
X138283333Y-114047619D01*
X138330952Y-114000000D01*
X138426190Y-113952380D01*
%TO.C,SW11*%
X137690476Y-146104761D02*
X137833333Y-146152380D01*
X138071428Y-146152380D01*
X138166666Y-146104761D01*
X138214285Y-146057142D01*
X138261904Y-145961904D01*
X138261904Y-145866666D01*
X138214285Y-145771428D01*
X138166666Y-145723809D01*
X138071428Y-145676190D01*
X137880952Y-145628571D01*
X137785714Y-145580952D01*
X137738095Y-145533333D01*
X137690476Y-145438095D01*
X137690476Y-145342857D01*
X137738095Y-145247619D01*
X137785714Y-145200000D01*
X137880952Y-145152380D01*
X138119047Y-145152380D01*
X138261904Y-145200000D01*
X138595238Y-145152380D02*
X138833333Y-146152380D01*
X139023809Y-145438095D01*
X139214285Y-146152380D01*
X139452380Y-145152380D01*
X140357142Y-146152380D02*
X139785714Y-146152380D01*
X140071428Y-146152380D02*
X140071428Y-145152380D01*
X139976190Y-145295238D01*
X139880952Y-145390476D01*
X139785714Y-145438095D01*
X141309523Y-146152380D02*
X140738095Y-146152380D01*
X141023809Y-146152380D02*
X141023809Y-145152380D01*
X140928571Y-145295238D01*
X140833333Y-145390476D01*
X140738095Y-145438095D01*
%TO.C,SW12*%
X135140476Y-178904761D02*
X135283333Y-178952380D01*
X135521428Y-178952380D01*
X135616666Y-178904761D01*
X135664285Y-178857142D01*
X135711904Y-178761904D01*
X135711904Y-178666666D01*
X135664285Y-178571428D01*
X135616666Y-178523809D01*
X135521428Y-178476190D01*
X135330952Y-178428571D01*
X135235714Y-178380952D01*
X135188095Y-178333333D01*
X135140476Y-178238095D01*
X135140476Y-178142857D01*
X135188095Y-178047619D01*
X135235714Y-178000000D01*
X135330952Y-177952380D01*
X135569047Y-177952380D01*
X135711904Y-178000000D01*
X136045238Y-177952380D02*
X136283333Y-178952380D01*
X136473809Y-178238095D01*
X136664285Y-178952380D01*
X136902380Y-177952380D01*
X137807142Y-178952380D02*
X137235714Y-178952380D01*
X137521428Y-178952380D02*
X137521428Y-177952380D01*
X137426190Y-178095238D01*
X137330952Y-178190476D01*
X137235714Y-178238095D01*
X138188095Y-178047619D02*
X138235714Y-178000000D01*
X138330952Y-177952380D01*
X138569047Y-177952380D01*
X138664285Y-178000000D01*
X138711904Y-178047619D01*
X138759523Y-178142857D01*
X138759523Y-178238095D01*
X138711904Y-178380952D01*
X138140476Y-178952380D01*
X138759523Y-178952380D01*
%TO.C,SW13*%
X167640476Y-82404761D02*
X167783333Y-82452380D01*
X168021428Y-82452380D01*
X168116666Y-82404761D01*
X168164285Y-82357142D01*
X168211904Y-82261904D01*
X168211904Y-82166666D01*
X168164285Y-82071428D01*
X168116666Y-82023809D01*
X168021428Y-81976190D01*
X167830952Y-81928571D01*
X167735714Y-81880952D01*
X167688095Y-81833333D01*
X167640476Y-81738095D01*
X167640476Y-81642857D01*
X167688095Y-81547619D01*
X167735714Y-81500000D01*
X167830952Y-81452380D01*
X168069047Y-81452380D01*
X168211904Y-81500000D01*
X168545238Y-81452380D02*
X168783333Y-82452380D01*
X168973809Y-81738095D01*
X169164285Y-82452380D01*
X169402380Y-81452380D01*
X170307142Y-82452380D02*
X169735714Y-82452380D01*
X170021428Y-82452380D02*
X170021428Y-81452380D01*
X169926190Y-81595238D01*
X169830952Y-81690476D01*
X169735714Y-81738095D01*
X170640476Y-81452380D02*
X171259523Y-81452380D01*
X170926190Y-81833333D01*
X171069047Y-81833333D01*
X171164285Y-81880952D01*
X171211904Y-81928571D01*
X171259523Y-82023809D01*
X171259523Y-82261904D01*
X171211904Y-82357142D01*
X171164285Y-82404761D01*
X171069047Y-82452380D01*
X170783333Y-82452380D01*
X170688095Y-82404761D01*
X170640476Y-82357142D01*
%TO.C,SW14*%
X167640476Y-113504761D02*
X167783333Y-113552380D01*
X168021428Y-113552380D01*
X168116666Y-113504761D01*
X168164285Y-113457142D01*
X168211904Y-113361904D01*
X168211904Y-113266666D01*
X168164285Y-113171428D01*
X168116666Y-113123809D01*
X168021428Y-113076190D01*
X167830952Y-113028571D01*
X167735714Y-112980952D01*
X167688095Y-112933333D01*
X167640476Y-112838095D01*
X167640476Y-112742857D01*
X167688095Y-112647619D01*
X167735714Y-112600000D01*
X167830952Y-112552380D01*
X168069047Y-112552380D01*
X168211904Y-112600000D01*
X168545238Y-112552380D02*
X168783333Y-113552380D01*
X168973809Y-112838095D01*
X169164285Y-113552380D01*
X169402380Y-112552380D01*
X170307142Y-113552380D02*
X169735714Y-113552380D01*
X170021428Y-113552380D02*
X170021428Y-112552380D01*
X169926190Y-112695238D01*
X169830952Y-112790476D01*
X169735714Y-112838095D01*
X171164285Y-112885714D02*
X171164285Y-113552380D01*
X170926190Y-112504761D02*
X170688095Y-113219047D01*
X171307142Y-113219047D01*
%TO.C,SW15*%
X167640476Y-147404761D02*
X167783333Y-147452380D01*
X168021428Y-147452380D01*
X168116666Y-147404761D01*
X168164285Y-147357142D01*
X168211904Y-147261904D01*
X168211904Y-147166666D01*
X168164285Y-147071428D01*
X168116666Y-147023809D01*
X168021428Y-146976190D01*
X167830952Y-146928571D01*
X167735714Y-146880952D01*
X167688095Y-146833333D01*
X167640476Y-146738095D01*
X167640476Y-146642857D01*
X167688095Y-146547619D01*
X167735714Y-146500000D01*
X167830952Y-146452380D01*
X168069047Y-146452380D01*
X168211904Y-146500000D01*
X168545238Y-146452380D02*
X168783333Y-147452380D01*
X168973809Y-146738095D01*
X169164285Y-147452380D01*
X169402380Y-146452380D01*
X170307142Y-147452380D02*
X169735714Y-147452380D01*
X170021428Y-147452380D02*
X170021428Y-146452380D01*
X169926190Y-146595238D01*
X169830952Y-146690476D01*
X169735714Y-146738095D01*
X171211904Y-146452380D02*
X170735714Y-146452380D01*
X170688095Y-146928571D01*
X170735714Y-146880952D01*
X170830952Y-146833333D01*
X171069047Y-146833333D01*
X171164285Y-146880952D01*
X171211904Y-146928571D01*
X171259523Y-147023809D01*
X171259523Y-147261904D01*
X171211904Y-147357142D01*
X171164285Y-147404761D01*
X171069047Y-147452380D01*
X170830952Y-147452380D01*
X170735714Y-147404761D01*
X170688095Y-147357142D01*
%TO.C,D5*%
X127561904Y-79652380D02*
X127561904Y-78652380D01*
X127800000Y-78652380D01*
X127942857Y-78700000D01*
X128038095Y-78795238D01*
X128085714Y-78890476D01*
X128133333Y-79080952D01*
X128133333Y-79223809D01*
X128085714Y-79414285D01*
X128038095Y-79509523D01*
X127942857Y-79604761D01*
X127800000Y-79652380D01*
X127561904Y-79652380D01*
X129038095Y-78652380D02*
X128561904Y-78652380D01*
X128514285Y-79128571D01*
X128561904Y-79080952D01*
X128657142Y-79033333D01*
X128895238Y-79033333D01*
X128990476Y-79080952D01*
X129038095Y-79128571D01*
X129085714Y-79223809D01*
X129085714Y-79461904D01*
X129038095Y-79557142D01*
X128990476Y-79604761D01*
X128895238Y-79652380D01*
X128657142Y-79652380D01*
X128561904Y-79604761D01*
X128514285Y-79557142D01*
%TO.C,D9*%
X62661904Y-112052380D02*
X62661904Y-111052380D01*
X62900000Y-111052380D01*
X63042857Y-111100000D01*
X63138095Y-111195238D01*
X63185714Y-111290476D01*
X63233333Y-111480952D01*
X63233333Y-111623809D01*
X63185714Y-111814285D01*
X63138095Y-111909523D01*
X63042857Y-112004761D01*
X62900000Y-112052380D01*
X62661904Y-112052380D01*
X63709523Y-112052380D02*
X63900000Y-112052380D01*
X63995238Y-112004761D01*
X64042857Y-111957142D01*
X64138095Y-111814285D01*
X64185714Y-111623809D01*
X64185714Y-111242857D01*
X64138095Y-111147619D01*
X64090476Y-111100000D01*
X63995238Y-111052380D01*
X63804761Y-111052380D01*
X63709523Y-111100000D01*
X63661904Y-111147619D01*
X63614285Y-111242857D01*
X63614285Y-111480952D01*
X63661904Y-111576190D01*
X63709523Y-111623809D01*
X63804761Y-111671428D01*
X63995238Y-111671428D01*
X64090476Y-111623809D01*
X64138095Y-111576190D01*
X64185714Y-111480952D01*
%TO.C,D13*%
X127185714Y-112052380D02*
X127185714Y-111052380D01*
X127423809Y-111052380D01*
X127566666Y-111100000D01*
X127661904Y-111195238D01*
X127709523Y-111290476D01*
X127757142Y-111480952D01*
X127757142Y-111623809D01*
X127709523Y-111814285D01*
X127661904Y-111909523D01*
X127566666Y-112004761D01*
X127423809Y-112052380D01*
X127185714Y-112052380D01*
X128709523Y-112052380D02*
X128138095Y-112052380D01*
X128423809Y-112052380D02*
X128423809Y-111052380D01*
X128328571Y-111195238D01*
X128233333Y-111290476D01*
X128138095Y-111338095D01*
X129042857Y-111052380D02*
X129661904Y-111052380D01*
X129328571Y-111433333D01*
X129471428Y-111433333D01*
X129566666Y-111480952D01*
X129614285Y-111528571D01*
X129661904Y-111623809D01*
X129661904Y-111861904D01*
X129614285Y-111957142D01*
X129566666Y-112004761D01*
X129471428Y-112052380D01*
X129185714Y-112052380D01*
X129090476Y-112004761D01*
X129042857Y-111957142D01*
%TO.C,D3*%
X95061904Y-79652380D02*
X95061904Y-78652380D01*
X95300000Y-78652380D01*
X95442857Y-78700000D01*
X95538095Y-78795238D01*
X95585714Y-78890476D01*
X95633333Y-79080952D01*
X95633333Y-79223809D01*
X95585714Y-79414285D01*
X95538095Y-79509523D01*
X95442857Y-79604761D01*
X95300000Y-79652380D01*
X95061904Y-79652380D01*
X95966666Y-78652380D02*
X96585714Y-78652380D01*
X96252380Y-79033333D01*
X96395238Y-79033333D01*
X96490476Y-79080952D01*
X96538095Y-79128571D01*
X96585714Y-79223809D01*
X96585714Y-79461904D01*
X96538095Y-79557142D01*
X96490476Y-79604761D01*
X96395238Y-79652380D01*
X96109523Y-79652380D01*
X96014285Y-79604761D01*
X95966666Y-79557142D01*
X100235714Y-77752380D02*
X99664285Y-77752380D01*
X99950000Y-77752380D02*
X99950000Y-76752380D01*
X99854761Y-76895238D01*
X99759523Y-76990476D01*
X99664285Y-77038095D01*
%TO.C,D7*%
X160061904Y-79652380D02*
X160061904Y-78652380D01*
X160300000Y-78652380D01*
X160442857Y-78700000D01*
X160538095Y-78795238D01*
X160585714Y-78890476D01*
X160633333Y-79080952D01*
X160633333Y-79223809D01*
X160585714Y-79414285D01*
X160538095Y-79509523D01*
X160442857Y-79604761D01*
X160300000Y-79652380D01*
X160061904Y-79652380D01*
X160966666Y-78652380D02*
X161633333Y-78652380D01*
X161204761Y-79652380D01*
%TO.C,D11*%
X94685714Y-112052380D02*
X94685714Y-111052380D01*
X94923809Y-111052380D01*
X95066666Y-111100000D01*
X95161904Y-111195238D01*
X95209523Y-111290476D01*
X95257142Y-111480952D01*
X95257142Y-111623809D01*
X95209523Y-111814285D01*
X95161904Y-111909523D01*
X95066666Y-112004761D01*
X94923809Y-112052380D01*
X94685714Y-112052380D01*
X96209523Y-112052380D02*
X95638095Y-112052380D01*
X95923809Y-112052380D02*
X95923809Y-111052380D01*
X95828571Y-111195238D01*
X95733333Y-111290476D01*
X95638095Y-111338095D01*
X97161904Y-112052380D02*
X96590476Y-112052380D01*
X96876190Y-112052380D02*
X96876190Y-111052380D01*
X96780952Y-111195238D01*
X96685714Y-111290476D01*
X96590476Y-111338095D01*
%TO.C,D15*%
X159245714Y-112802380D02*
X159245714Y-111802380D01*
X159483809Y-111802380D01*
X159626666Y-111850000D01*
X159721904Y-111945238D01*
X159769523Y-112040476D01*
X159817142Y-112230952D01*
X159817142Y-112373809D01*
X159769523Y-112564285D01*
X159721904Y-112659523D01*
X159626666Y-112754761D01*
X159483809Y-112802380D01*
X159245714Y-112802380D01*
X160769523Y-112802380D02*
X160198095Y-112802380D01*
X160483809Y-112802380D02*
X160483809Y-111802380D01*
X160388571Y-111945238D01*
X160293333Y-112040476D01*
X160198095Y-112088095D01*
X161674285Y-111802380D02*
X161198095Y-111802380D01*
X161150476Y-112278571D01*
X161198095Y-112230952D01*
X161293333Y-112183333D01*
X161531428Y-112183333D01*
X161626666Y-112230952D01*
X161674285Y-112278571D01*
X161721904Y-112373809D01*
X161721904Y-112611904D01*
X161674285Y-112707142D01*
X161626666Y-112754761D01*
X161531428Y-112802380D01*
X161293333Y-112802380D01*
X161198095Y-112754761D01*
X161150476Y-112707142D01*
%TO.C,D17*%
X62185714Y-144552380D02*
X62185714Y-143552380D01*
X62423809Y-143552380D01*
X62566666Y-143600000D01*
X62661904Y-143695238D01*
X62709523Y-143790476D01*
X62757142Y-143980952D01*
X62757142Y-144123809D01*
X62709523Y-144314285D01*
X62661904Y-144409523D01*
X62566666Y-144504761D01*
X62423809Y-144552380D01*
X62185714Y-144552380D01*
X63709523Y-144552380D02*
X63138095Y-144552380D01*
X63423809Y-144552380D02*
X63423809Y-143552380D01*
X63328571Y-143695238D01*
X63233333Y-143790476D01*
X63138095Y-143838095D01*
X64042857Y-143552380D02*
X64709523Y-143552380D01*
X64280952Y-144552380D01*
%TO.C,D21*%
X127185714Y-144552380D02*
X127185714Y-143552380D01*
X127423809Y-143552380D01*
X127566666Y-143600000D01*
X127661904Y-143695238D01*
X127709523Y-143790476D01*
X127757142Y-143980952D01*
X127757142Y-144123809D01*
X127709523Y-144314285D01*
X127661904Y-144409523D01*
X127566666Y-144504761D01*
X127423809Y-144552380D01*
X127185714Y-144552380D01*
X128138095Y-143647619D02*
X128185714Y-143600000D01*
X128280952Y-143552380D01*
X128519047Y-143552380D01*
X128614285Y-143600000D01*
X128661904Y-143647619D01*
X128709523Y-143742857D01*
X128709523Y-143838095D01*
X128661904Y-143980952D01*
X128090476Y-144552380D01*
X128709523Y-144552380D01*
X129661904Y-144552380D02*
X129090476Y-144552380D01*
X129376190Y-144552380D02*
X129376190Y-143552380D01*
X129280952Y-143695238D01*
X129185714Y-143790476D01*
X129090476Y-143838095D01*
%TO.C,D25*%
X62185714Y-177052380D02*
X62185714Y-176052380D01*
X62423809Y-176052380D01*
X62566666Y-176100000D01*
X62661904Y-176195238D01*
X62709523Y-176290476D01*
X62757142Y-176480952D01*
X62757142Y-176623809D01*
X62709523Y-176814285D01*
X62661904Y-176909523D01*
X62566666Y-177004761D01*
X62423809Y-177052380D01*
X62185714Y-177052380D01*
X63138095Y-176147619D02*
X63185714Y-176100000D01*
X63280952Y-176052380D01*
X63519047Y-176052380D01*
X63614285Y-176100000D01*
X63661904Y-176147619D01*
X63709523Y-176242857D01*
X63709523Y-176338095D01*
X63661904Y-176480952D01*
X63090476Y-177052380D01*
X63709523Y-177052380D01*
X64614285Y-176052380D02*
X64138095Y-176052380D01*
X64090476Y-176528571D01*
X64138095Y-176480952D01*
X64233333Y-176433333D01*
X64471428Y-176433333D01*
X64566666Y-176480952D01*
X64614285Y-176528571D01*
X64661904Y-176623809D01*
X64661904Y-176861904D01*
X64614285Y-176957142D01*
X64566666Y-177004761D01*
X64471428Y-177052380D01*
X64233333Y-177052380D01*
X64138095Y-177004761D01*
X64090476Y-176957142D01*
%TO.C,D29*%
X129755714Y-177582380D02*
X129755714Y-176582380D01*
X129993809Y-176582380D01*
X130136666Y-176630000D01*
X130231904Y-176725238D01*
X130279523Y-176820476D01*
X130327142Y-177010952D01*
X130327142Y-177153809D01*
X130279523Y-177344285D01*
X130231904Y-177439523D01*
X130136666Y-177534761D01*
X129993809Y-177582380D01*
X129755714Y-177582380D01*
X130708095Y-176677619D02*
X130755714Y-176630000D01*
X130850952Y-176582380D01*
X131089047Y-176582380D01*
X131184285Y-176630000D01*
X131231904Y-176677619D01*
X131279523Y-176772857D01*
X131279523Y-176868095D01*
X131231904Y-177010952D01*
X130660476Y-177582380D01*
X131279523Y-177582380D01*
X131755714Y-177582380D02*
X131946190Y-177582380D01*
X132041428Y-177534761D01*
X132089047Y-177487142D01*
X132184285Y-177344285D01*
X132231904Y-177153809D01*
X132231904Y-176772857D01*
X132184285Y-176677619D01*
X132136666Y-176630000D01*
X132041428Y-176582380D01*
X131850952Y-176582380D01*
X131755714Y-176630000D01*
X131708095Y-176677619D01*
X131660476Y-176772857D01*
X131660476Y-177010952D01*
X131708095Y-177106190D01*
X131755714Y-177153809D01*
X131850952Y-177201428D01*
X132041428Y-177201428D01*
X132136666Y-177153809D01*
X132184285Y-177106190D01*
X132231904Y-177010952D01*
%TO.C,D19*%
X94685714Y-144552380D02*
X94685714Y-143552380D01*
X94923809Y-143552380D01*
X95066666Y-143600000D01*
X95161904Y-143695238D01*
X95209523Y-143790476D01*
X95257142Y-143980952D01*
X95257142Y-144123809D01*
X95209523Y-144314285D01*
X95161904Y-144409523D01*
X95066666Y-144504761D01*
X94923809Y-144552380D01*
X94685714Y-144552380D01*
X96209523Y-144552380D02*
X95638095Y-144552380D01*
X95923809Y-144552380D02*
X95923809Y-143552380D01*
X95828571Y-143695238D01*
X95733333Y-143790476D01*
X95638095Y-143838095D01*
X96685714Y-144552380D02*
X96876190Y-144552380D01*
X96971428Y-144504761D01*
X97019047Y-144457142D01*
X97114285Y-144314285D01*
X97161904Y-144123809D01*
X97161904Y-143742857D01*
X97114285Y-143647619D01*
X97066666Y-143600000D01*
X96971428Y-143552380D01*
X96780952Y-143552380D01*
X96685714Y-143600000D01*
X96638095Y-143647619D01*
X96590476Y-143742857D01*
X96590476Y-143980952D01*
X96638095Y-144076190D01*
X96685714Y-144123809D01*
X96780952Y-144171428D01*
X96971428Y-144171428D01*
X97066666Y-144123809D01*
X97114285Y-144076190D01*
X97161904Y-143980952D01*
%TO.C,D23*%
X158225714Y-144812380D02*
X158225714Y-143812380D01*
X158463809Y-143812380D01*
X158606666Y-143860000D01*
X158701904Y-143955238D01*
X158749523Y-144050476D01*
X158797142Y-144240952D01*
X158797142Y-144383809D01*
X158749523Y-144574285D01*
X158701904Y-144669523D01*
X158606666Y-144764761D01*
X158463809Y-144812380D01*
X158225714Y-144812380D01*
X159178095Y-143907619D02*
X159225714Y-143860000D01*
X159320952Y-143812380D01*
X159559047Y-143812380D01*
X159654285Y-143860000D01*
X159701904Y-143907619D01*
X159749523Y-144002857D01*
X159749523Y-144098095D01*
X159701904Y-144240952D01*
X159130476Y-144812380D01*
X159749523Y-144812380D01*
X160082857Y-143812380D02*
X160701904Y-143812380D01*
X160368571Y-144193333D01*
X160511428Y-144193333D01*
X160606666Y-144240952D01*
X160654285Y-144288571D01*
X160701904Y-144383809D01*
X160701904Y-144621904D01*
X160654285Y-144717142D01*
X160606666Y-144764761D01*
X160511428Y-144812380D01*
X160225714Y-144812380D01*
X160130476Y-144764761D01*
X160082857Y-144717142D01*
%TO.C,D27*%
X89505714Y-173762380D02*
X89505714Y-172762380D01*
X89743809Y-172762380D01*
X89886666Y-172810000D01*
X89981904Y-172905238D01*
X90029523Y-173000476D01*
X90077142Y-173190952D01*
X90077142Y-173333809D01*
X90029523Y-173524285D01*
X89981904Y-173619523D01*
X89886666Y-173714761D01*
X89743809Y-173762380D01*
X89505714Y-173762380D01*
X90458095Y-172857619D02*
X90505714Y-172810000D01*
X90600952Y-172762380D01*
X90839047Y-172762380D01*
X90934285Y-172810000D01*
X90981904Y-172857619D01*
X91029523Y-172952857D01*
X91029523Y-173048095D01*
X90981904Y-173190952D01*
X90410476Y-173762380D01*
X91029523Y-173762380D01*
X91362857Y-172762380D02*
X92029523Y-172762380D01*
X91600952Y-173762380D01*
%TO.C,D31*%
X159685714Y-177052380D02*
X159685714Y-176052380D01*
X159923809Y-176052380D01*
X160066666Y-176100000D01*
X160161904Y-176195238D01*
X160209523Y-176290476D01*
X160257142Y-176480952D01*
X160257142Y-176623809D01*
X160209523Y-176814285D01*
X160161904Y-176909523D01*
X160066666Y-177004761D01*
X159923809Y-177052380D01*
X159685714Y-177052380D01*
X160590476Y-176052380D02*
X161209523Y-176052380D01*
X160876190Y-176433333D01*
X161019047Y-176433333D01*
X161114285Y-176480952D01*
X161161904Y-176528571D01*
X161209523Y-176623809D01*
X161209523Y-176861904D01*
X161161904Y-176957142D01*
X161114285Y-177004761D01*
X161019047Y-177052380D01*
X160733333Y-177052380D01*
X160638095Y-177004761D01*
X160590476Y-176957142D01*
X162161904Y-177052380D02*
X161590476Y-177052380D01*
X161876190Y-177052380D02*
X161876190Y-176052380D01*
X161780952Y-176195238D01*
X161685714Y-176290476D01*
X161590476Y-176338095D01*
%TO.C,C1*%
X66308333Y-81387142D02*
X66260714Y-81434761D01*
X66117857Y-81482380D01*
X66022619Y-81482380D01*
X65879761Y-81434761D01*
X65784523Y-81339523D01*
X65736904Y-81244285D01*
X65689285Y-81053809D01*
X65689285Y-80910952D01*
X65736904Y-80720476D01*
X65784523Y-80625238D01*
X65879761Y-80530000D01*
X66022619Y-80482380D01*
X66117857Y-80482380D01*
X66260714Y-80530000D01*
X66308333Y-80577619D01*
X67260714Y-81482380D02*
X66689285Y-81482380D01*
X66975000Y-81482380D02*
X66975000Y-80482380D01*
X66879761Y-80625238D01*
X66784523Y-80720476D01*
X66689285Y-80768095D01*
%TO.C,C2*%
X100857142Y-79566666D02*
X100904761Y-79614285D01*
X100952380Y-79757142D01*
X100952380Y-79852380D01*
X100904761Y-79995238D01*
X100809523Y-80090476D01*
X100714285Y-80138095D01*
X100523809Y-80185714D01*
X100380952Y-80185714D01*
X100190476Y-80138095D01*
X100095238Y-80090476D01*
X100000000Y-79995238D01*
X99952380Y-79852380D01*
X99952380Y-79757142D01*
X100000000Y-79614285D01*
X100047619Y-79566666D01*
X100047619Y-79185714D02*
X100000000Y-79138095D01*
X99952380Y-79042857D01*
X99952380Y-78804761D01*
X100000000Y-78709523D01*
X100047619Y-78661904D01*
X100142857Y-78614285D01*
X100238095Y-78614285D01*
X100380952Y-78661904D01*
X100952380Y-79233333D01*
X100952380Y-78614285D01*
%TO.C,C3*%
X133457142Y-79566666D02*
X133504761Y-79614285D01*
X133552380Y-79757142D01*
X133552380Y-79852380D01*
X133504761Y-79995238D01*
X133409523Y-80090476D01*
X133314285Y-80138095D01*
X133123809Y-80185714D01*
X132980952Y-80185714D01*
X132790476Y-80138095D01*
X132695238Y-80090476D01*
X132600000Y-79995238D01*
X132552380Y-79852380D01*
X132552380Y-79757142D01*
X132600000Y-79614285D01*
X132647619Y-79566666D01*
X132552380Y-79233333D02*
X132552380Y-78614285D01*
X132933333Y-78947619D01*
X132933333Y-78804761D01*
X132980952Y-78709523D01*
X133028571Y-78661904D01*
X133123809Y-78614285D01*
X133361904Y-78614285D01*
X133457142Y-78661904D01*
X133504761Y-78709523D01*
X133552380Y-78804761D01*
X133552380Y-79090476D01*
X133504761Y-79185714D01*
X133457142Y-79233333D01*
%TO.C,C4*%
X165757142Y-79386666D02*
X165804761Y-79434285D01*
X165852380Y-79577142D01*
X165852380Y-79672380D01*
X165804761Y-79815238D01*
X165709523Y-79910476D01*
X165614285Y-79958095D01*
X165423809Y-80005714D01*
X165280952Y-80005714D01*
X165090476Y-79958095D01*
X164995238Y-79910476D01*
X164900000Y-79815238D01*
X164852380Y-79672380D01*
X164852380Y-79577142D01*
X164900000Y-79434285D01*
X164947619Y-79386666D01*
X165185714Y-78529523D02*
X165852380Y-78529523D01*
X164804761Y-78767619D02*
X165519047Y-79005714D01*
X165519047Y-78386666D01*
%TO.C,C5*%
X64133333Y-104657142D02*
X64085714Y-104704761D01*
X63942857Y-104752380D01*
X63847619Y-104752380D01*
X63704761Y-104704761D01*
X63609523Y-104609523D01*
X63561904Y-104514285D01*
X63514285Y-104323809D01*
X63514285Y-104180952D01*
X63561904Y-103990476D01*
X63609523Y-103895238D01*
X63704761Y-103800000D01*
X63847619Y-103752380D01*
X63942857Y-103752380D01*
X64085714Y-103800000D01*
X64133333Y-103847619D01*
X65038095Y-103752380D02*
X64561904Y-103752380D01*
X64514285Y-104228571D01*
X64561904Y-104180952D01*
X64657142Y-104133333D01*
X64895238Y-104133333D01*
X64990476Y-104180952D01*
X65038095Y-104228571D01*
X65085714Y-104323809D01*
X65085714Y-104561904D01*
X65038095Y-104657142D01*
X64990476Y-104704761D01*
X64895238Y-104752380D01*
X64657142Y-104752380D01*
X64561904Y-104704761D01*
X64514285Y-104657142D01*
%TO.C,C6*%
X100737142Y-106351666D02*
X100784761Y-106399285D01*
X100832380Y-106542142D01*
X100832380Y-106637380D01*
X100784761Y-106780238D01*
X100689523Y-106875476D01*
X100594285Y-106923095D01*
X100403809Y-106970714D01*
X100260952Y-106970714D01*
X100070476Y-106923095D01*
X99975238Y-106875476D01*
X99880000Y-106780238D01*
X99832380Y-106637380D01*
X99832380Y-106542142D01*
X99880000Y-106399285D01*
X99927619Y-106351666D01*
X99832380Y-105494523D02*
X99832380Y-105685000D01*
X99880000Y-105780238D01*
X99927619Y-105827857D01*
X100070476Y-105923095D01*
X100260952Y-105970714D01*
X100641904Y-105970714D01*
X100737142Y-105923095D01*
X100784761Y-105875476D01*
X100832380Y-105780238D01*
X100832380Y-105589761D01*
X100784761Y-105494523D01*
X100737142Y-105446904D01*
X100641904Y-105399285D01*
X100403809Y-105399285D01*
X100308571Y-105446904D01*
X100260952Y-105494523D01*
X100213333Y-105589761D01*
X100213333Y-105780238D01*
X100260952Y-105875476D01*
X100308571Y-105923095D01*
X100403809Y-105970714D01*
%TO.C,C7*%
X134457142Y-111666666D02*
X134504761Y-111714285D01*
X134552380Y-111857142D01*
X134552380Y-111952380D01*
X134504761Y-112095238D01*
X134409523Y-112190476D01*
X134314285Y-112238095D01*
X134123809Y-112285714D01*
X133980952Y-112285714D01*
X133790476Y-112238095D01*
X133695238Y-112190476D01*
X133600000Y-112095238D01*
X133552380Y-111952380D01*
X133552380Y-111857142D01*
X133600000Y-111714285D01*
X133647619Y-111666666D01*
X133552380Y-111333333D02*
X133552380Y-110666666D01*
X134552380Y-111095238D01*
%TO.C,C8*%
X164348333Y-114887142D02*
X164300714Y-114934761D01*
X164157857Y-114982380D01*
X164062619Y-114982380D01*
X163919761Y-114934761D01*
X163824523Y-114839523D01*
X163776904Y-114744285D01*
X163729285Y-114553809D01*
X163729285Y-114410952D01*
X163776904Y-114220476D01*
X163824523Y-114125238D01*
X163919761Y-114030000D01*
X164062619Y-113982380D01*
X164157857Y-113982380D01*
X164300714Y-114030000D01*
X164348333Y-114077619D01*
X164919761Y-114410952D02*
X164824523Y-114363333D01*
X164776904Y-114315714D01*
X164729285Y-114220476D01*
X164729285Y-114172857D01*
X164776904Y-114077619D01*
X164824523Y-114030000D01*
X164919761Y-113982380D01*
X165110238Y-113982380D01*
X165205476Y-114030000D01*
X165253095Y-114077619D01*
X165300714Y-114172857D01*
X165300714Y-114220476D01*
X165253095Y-114315714D01*
X165205476Y-114363333D01*
X165110238Y-114410952D01*
X164919761Y-114410952D01*
X164824523Y-114458571D01*
X164776904Y-114506190D01*
X164729285Y-114601428D01*
X164729285Y-114791904D01*
X164776904Y-114887142D01*
X164824523Y-114934761D01*
X164919761Y-114982380D01*
X165110238Y-114982380D01*
X165205476Y-114934761D01*
X165253095Y-114887142D01*
X165300714Y-114791904D01*
X165300714Y-114601428D01*
X165253095Y-114506190D01*
X165205476Y-114458571D01*
X165110238Y-114410952D01*
%TO.C,C9*%
X70487142Y-140646666D02*
X70534761Y-140694285D01*
X70582380Y-140837142D01*
X70582380Y-140932380D01*
X70534761Y-141075238D01*
X70439523Y-141170476D01*
X70344285Y-141218095D01*
X70153809Y-141265714D01*
X70010952Y-141265714D01*
X69820476Y-141218095D01*
X69725238Y-141170476D01*
X69630000Y-141075238D01*
X69582380Y-140932380D01*
X69582380Y-140837142D01*
X69630000Y-140694285D01*
X69677619Y-140646666D01*
X70582380Y-140170476D02*
X70582380Y-139980000D01*
X70534761Y-139884761D01*
X70487142Y-139837142D01*
X70344285Y-139741904D01*
X70153809Y-139694285D01*
X69772857Y-139694285D01*
X69677619Y-139741904D01*
X69630000Y-139789523D01*
X69582380Y-139884761D01*
X69582380Y-140075238D01*
X69630000Y-140170476D01*
X69677619Y-140218095D01*
X69772857Y-140265714D01*
X70010952Y-140265714D01*
X70106190Y-140218095D01*
X70153809Y-140170476D01*
X70201428Y-140075238D01*
X70201428Y-139884761D01*
X70153809Y-139789523D01*
X70106190Y-139741904D01*
X70010952Y-139694285D01*
%TO.C,C10*%
X101057142Y-144842857D02*
X101104761Y-144890476D01*
X101152380Y-145033333D01*
X101152380Y-145128571D01*
X101104761Y-145271428D01*
X101009523Y-145366666D01*
X100914285Y-145414285D01*
X100723809Y-145461904D01*
X100580952Y-145461904D01*
X100390476Y-145414285D01*
X100295238Y-145366666D01*
X100200000Y-145271428D01*
X100152380Y-145128571D01*
X100152380Y-145033333D01*
X100200000Y-144890476D01*
X100247619Y-144842857D01*
X101152380Y-143890476D02*
X101152380Y-144461904D01*
X101152380Y-144176190D02*
X100152380Y-144176190D01*
X100295238Y-144271428D01*
X100390476Y-144366666D01*
X100438095Y-144461904D01*
X100152380Y-143271428D02*
X100152380Y-143176190D01*
X100200000Y-143080952D01*
X100247619Y-143033333D01*
X100342857Y-142985714D01*
X100533333Y-142938095D01*
X100771428Y-142938095D01*
X100961904Y-142985714D01*
X101057142Y-143033333D01*
X101104761Y-143080952D01*
X101152380Y-143176190D01*
X101152380Y-143271428D01*
X101104761Y-143366666D01*
X101057142Y-143414285D01*
X100961904Y-143461904D01*
X100771428Y-143509523D01*
X100533333Y-143509523D01*
X100342857Y-143461904D01*
X100247619Y-143414285D01*
X100200000Y-143366666D01*
X100152380Y-143271428D01*
%TO.C,C11*%
X133857142Y-144957142D02*
X133809523Y-145004761D01*
X133666666Y-145052380D01*
X133571428Y-145052380D01*
X133428571Y-145004761D01*
X133333333Y-144909523D01*
X133285714Y-144814285D01*
X133238095Y-144623809D01*
X133238095Y-144480952D01*
X133285714Y-144290476D01*
X133333333Y-144195238D01*
X133428571Y-144100000D01*
X133571428Y-144052380D01*
X133666666Y-144052380D01*
X133809523Y-144100000D01*
X133857142Y-144147619D01*
X134809523Y-145052380D02*
X134238095Y-145052380D01*
X134523809Y-145052380D02*
X134523809Y-144052380D01*
X134428571Y-144195238D01*
X134333333Y-144290476D01*
X134238095Y-144338095D01*
X135761904Y-145052380D02*
X135190476Y-145052380D01*
X135476190Y-145052380D02*
X135476190Y-144052380D01*
X135380952Y-144195238D01*
X135285714Y-144290476D01*
X135190476Y-144338095D01*
%TO.C,C12*%
X165492142Y-145077142D02*
X165444523Y-145124761D01*
X165301666Y-145172380D01*
X165206428Y-145172380D01*
X165063571Y-145124761D01*
X164968333Y-145029523D01*
X164920714Y-144934285D01*
X164873095Y-144743809D01*
X164873095Y-144600952D01*
X164920714Y-144410476D01*
X164968333Y-144315238D01*
X165063571Y-144220000D01*
X165206428Y-144172380D01*
X165301666Y-144172380D01*
X165444523Y-144220000D01*
X165492142Y-144267619D01*
X166444523Y-145172380D02*
X165873095Y-145172380D01*
X166158809Y-145172380D02*
X166158809Y-144172380D01*
X166063571Y-144315238D01*
X165968333Y-144410476D01*
X165873095Y-144458095D01*
X166825476Y-144267619D02*
X166873095Y-144220000D01*
X166968333Y-144172380D01*
X167206428Y-144172380D01*
X167301666Y-144220000D01*
X167349285Y-144267619D01*
X167396904Y-144362857D01*
X167396904Y-144458095D01*
X167349285Y-144600952D01*
X166777857Y-145172380D01*
X167396904Y-145172380D01*
%TO.C,C13*%
X71457142Y-173542857D02*
X71504761Y-173590476D01*
X71552380Y-173733333D01*
X71552380Y-173828571D01*
X71504761Y-173971428D01*
X71409523Y-174066666D01*
X71314285Y-174114285D01*
X71123809Y-174161904D01*
X70980952Y-174161904D01*
X70790476Y-174114285D01*
X70695238Y-174066666D01*
X70600000Y-173971428D01*
X70552380Y-173828571D01*
X70552380Y-173733333D01*
X70600000Y-173590476D01*
X70647619Y-173542857D01*
X71552380Y-172590476D02*
X71552380Y-173161904D01*
X71552380Y-172876190D02*
X70552380Y-172876190D01*
X70695238Y-172971428D01*
X70790476Y-173066666D01*
X70838095Y-173161904D01*
X70552380Y-172257142D02*
X70552380Y-171638095D01*
X70933333Y-171971428D01*
X70933333Y-171828571D01*
X70980952Y-171733333D01*
X71028571Y-171685714D01*
X71123809Y-171638095D01*
X71361904Y-171638095D01*
X71457142Y-171685714D01*
X71504761Y-171733333D01*
X71552380Y-171828571D01*
X71552380Y-172114285D01*
X71504761Y-172209523D01*
X71457142Y-172257142D01*
%TO.C,C14*%
X94267142Y-177667142D02*
X94219523Y-177714761D01*
X94076666Y-177762380D01*
X93981428Y-177762380D01*
X93838571Y-177714761D01*
X93743333Y-177619523D01*
X93695714Y-177524285D01*
X93648095Y-177333809D01*
X93648095Y-177190952D01*
X93695714Y-177000476D01*
X93743333Y-176905238D01*
X93838571Y-176810000D01*
X93981428Y-176762380D01*
X94076666Y-176762380D01*
X94219523Y-176810000D01*
X94267142Y-176857619D01*
X95219523Y-177762380D02*
X94648095Y-177762380D01*
X94933809Y-177762380D02*
X94933809Y-176762380D01*
X94838571Y-176905238D01*
X94743333Y-177000476D01*
X94648095Y-177048095D01*
X96076666Y-177095714D02*
X96076666Y-177762380D01*
X95838571Y-176714761D02*
X95600476Y-177429047D01*
X96219523Y-177429047D01*
%TO.C,C15*%
X133557142Y-170942857D02*
X133604761Y-170990476D01*
X133652380Y-171133333D01*
X133652380Y-171228571D01*
X133604761Y-171371428D01*
X133509523Y-171466666D01*
X133414285Y-171514285D01*
X133223809Y-171561904D01*
X133080952Y-171561904D01*
X132890476Y-171514285D01*
X132795238Y-171466666D01*
X132700000Y-171371428D01*
X132652380Y-171228571D01*
X132652380Y-171133333D01*
X132700000Y-170990476D01*
X132747619Y-170942857D01*
X133652380Y-169990476D02*
X133652380Y-170561904D01*
X133652380Y-170276190D02*
X132652380Y-170276190D01*
X132795238Y-170371428D01*
X132890476Y-170466666D01*
X132938095Y-170561904D01*
X132652380Y-169085714D02*
X132652380Y-169561904D01*
X133128571Y-169609523D01*
X133080952Y-169561904D01*
X133033333Y-169466666D01*
X133033333Y-169228571D01*
X133080952Y-169133333D01*
X133128571Y-169085714D01*
X133223809Y-169038095D01*
X133461904Y-169038095D01*
X133557142Y-169085714D01*
X133604761Y-169133333D01*
X133652380Y-169228571D01*
X133652380Y-169466666D01*
X133604761Y-169561904D01*
X133557142Y-169609523D01*
%TO.C,C16*%
X166057142Y-177762857D02*
X166104761Y-177810476D01*
X166152380Y-177953333D01*
X166152380Y-178048571D01*
X166104761Y-178191428D01*
X166009523Y-178286666D01*
X165914285Y-178334285D01*
X165723809Y-178381904D01*
X165580952Y-178381904D01*
X165390476Y-178334285D01*
X165295238Y-178286666D01*
X165200000Y-178191428D01*
X165152380Y-178048571D01*
X165152380Y-177953333D01*
X165200000Y-177810476D01*
X165247619Y-177762857D01*
X166152380Y-176810476D02*
X166152380Y-177381904D01*
X166152380Y-177096190D02*
X165152380Y-177096190D01*
X165295238Y-177191428D01*
X165390476Y-177286666D01*
X165438095Y-177381904D01*
X165152380Y-175953333D02*
X165152380Y-176143809D01*
X165200000Y-176239047D01*
X165247619Y-176286666D01*
X165390476Y-176381904D01*
X165580952Y-176429523D01*
X165961904Y-176429523D01*
X166057142Y-176381904D01*
X166104761Y-176334285D01*
X166152380Y-176239047D01*
X166152380Y-176048571D01*
X166104761Y-175953333D01*
X166057142Y-175905714D01*
X165961904Y-175858095D01*
X165723809Y-175858095D01*
X165628571Y-175905714D01*
X165580952Y-175953333D01*
X165533333Y-176048571D01*
X165533333Y-176239047D01*
X165580952Y-176334285D01*
X165628571Y-176381904D01*
X165723809Y-176429523D01*
%TO.C,74hc4067*%
X81002380Y-116795238D02*
X81002380Y-116128571D01*
X82002380Y-116557142D01*
X81335714Y-115319047D02*
X82002380Y-115319047D01*
X80954761Y-115557142D02*
X81669047Y-115795238D01*
X81669047Y-115176190D01*
X82002380Y-114795238D02*
X81002380Y-114795238D01*
X82002380Y-114366666D02*
X81478571Y-114366666D01*
X81383333Y-114414285D01*
X81335714Y-114509523D01*
X81335714Y-114652380D01*
X81383333Y-114747619D01*
X81430952Y-114795238D01*
X81954761Y-113461904D02*
X82002380Y-113557142D01*
X82002380Y-113747619D01*
X81954761Y-113842857D01*
X81907142Y-113890476D01*
X81811904Y-113938095D01*
X81526190Y-113938095D01*
X81430952Y-113890476D01*
X81383333Y-113842857D01*
X81335714Y-113747619D01*
X81335714Y-113557142D01*
X81383333Y-113461904D01*
X81335714Y-112604761D02*
X82002380Y-112604761D01*
X80954761Y-112842857D02*
X81669047Y-113080952D01*
X81669047Y-112461904D01*
X81002380Y-111890476D02*
X81002380Y-111795238D01*
X81050000Y-111700000D01*
X81097619Y-111652380D01*
X81192857Y-111604761D01*
X81383333Y-111557142D01*
X81621428Y-111557142D01*
X81811904Y-111604761D01*
X81907142Y-111652380D01*
X81954761Y-111700000D01*
X82002380Y-111795238D01*
X82002380Y-111890476D01*
X81954761Y-111985714D01*
X81907142Y-112033333D01*
X81811904Y-112080952D01*
X81621428Y-112128571D01*
X81383333Y-112128571D01*
X81192857Y-112080952D01*
X81097619Y-112033333D01*
X81050000Y-111985714D01*
X81002380Y-111890476D01*
X81002380Y-110700000D02*
X81002380Y-110890476D01*
X81050000Y-110985714D01*
X81097619Y-111033333D01*
X81240476Y-111128571D01*
X81430952Y-111176190D01*
X81811904Y-111176190D01*
X81907142Y-111128571D01*
X81954761Y-111080952D01*
X82002380Y-110985714D01*
X82002380Y-110795238D01*
X81954761Y-110700000D01*
X81907142Y-110652380D01*
X81811904Y-110604761D01*
X81573809Y-110604761D01*
X81478571Y-110652380D01*
X81430952Y-110700000D01*
X81383333Y-110795238D01*
X81383333Y-110985714D01*
X81430952Y-111080952D01*
X81478571Y-111128571D01*
X81573809Y-111176190D01*
X81002380Y-110271428D02*
X81002380Y-109604761D01*
X82002380Y-110033333D01*
%TD*%
M02*
