M48
; DRILL file {KiCad (5.1.7-0-10_14)} date Wednesday, November 04, 2020 at 03:25:21 PM
; FORMAT={-:-/ absolute / metric / decimal}
; #@! TF.CreationDate,2020-11-04T15:25:21-03:00
; #@! TF.GenerationSoftware,Kicad,Pcbnew,(5.1.7-0-10_14)
; #@! TF.FileFunction,Plated,1,2,PTH
FMAT,2
METRIC
T1C0.400
T2C1.000
T3C2.900
%
G90
G05
T1
X59.12Y-62.59
X59.33Y-79.37
X59.63Y-60.04
X61.57Y-101.57
X61.88Y-54.77
X63.3Y-73.05
X63.327Y-106.007
X63.55Y-79.6
X63.62Y-75.18
X64.12Y-107.76
X64.36Y-116.325
X65.414Y-114.875
X71.24Y-59.59
X72.24Y-116.775
X72.69Y-114.425
X77.0Y-116.325
X77.11Y-114.875
X78.435Y-109.64
X79.885Y-109.67
X79.98Y-121.35
X80.99Y-113.515
X81.225Y-116.325
X81.42Y-70.45
X81.952Y-121.742
X82.54Y-60.0
X82.7Y-103.24
X82.7Y-104.75
X82.921Y-63.171
X83.15Y-95.65
X83.31Y-62.25
X83.35Y-74.4
X83.35Y-92.54
X83.353Y-61.14
X83.8Y-72.099
X83.8Y-93.96
X83.8Y-133.51
X83.8Y-139.11
X83.8Y-142.16
X84.078Y-70.202
X84.803Y-60.049
X84.803Y-61.23
X84.803Y-62.4
X84.803Y-63.6
X84.82Y-68.16
X85.7Y-100.35
X85.96Y-131.13
X86.15Y-97.8
X86.6Y-73.53
X86.6Y-74.53
X86.6Y-91.72
X86.618Y-101.708
X86.8Y-139.21
X86.8Y-142.39
X86.813Y-129.777
X86.942Y-131.958
X87.03Y-113.61
X87.134Y-99.226
X87.6Y-100.8
X87.8Y-111.63
X88.116Y-128.351
X88.41Y-114.345
X88.63Y-100.81
X88.683Y-96.857
X88.86Y-112.13
X89.0Y-113.538
X89.045Y-120.36
X89.15Y-105.19
X89.357Y-106.423
X89.57Y-115.235
X89.88Y-100.625
X90.107Y-119.647
X90.45Y-112.95
X90.453Y-105.467
X90.76Y-118.45
X90.94Y-121.36
X91.03Y-176.43
X91.65Y-173.06
X91.665Y-126.77
X92.09Y-112.63
X92.53Y-60.15
X92.758Y-126.852
X93.24Y-62.855
X93.75Y-60.505
X94.49Y-57.91
X96.02Y-73.74
X101.98Y-105.72
X102.14Y-107.82
X102.42Y-172.3
X105.39Y-59.78
X107.31Y-60.505
X107.707Y-168.697
X109.677Y-60.703
X109.79Y-161.175
X110.42Y-61.78
X110.5Y-59.23
X110.68Y-71.77
X111.03Y-62.83
X111.09Y-107.39
X111.165Y-139.16
X111.165Y-141.81
X111.35Y-58.11
X111.405Y-74.86
X111.405Y-94.28
X111.465Y-106.38
X111.465Y-123.56
X111.83Y-161.175
X111.89Y-159.275
X111.92Y-127.1
X112.0Y-130.8
X112.01Y-69.0
X112.09Y-96.4
X112.13Y-70.9
X112.19Y-98.3
X113.26Y-130.8
X113.27Y-161.175
X113.31Y-159.275
X113.33Y-71.05
X113.57Y-69.0
X113.58Y-96.4
X113.68Y-98.43
X113.7Y-126.65
X113.96Y-63.08
X113.965Y-139.16
X113.965Y-141.81
X114.02Y-138.13
X114.085Y-64.36
X114.085Y-65.67
X114.205Y-73.81
X114.205Y-75.0
X114.265Y-106.53
X114.265Y-107.64
X114.696Y-123.624
X114.82Y-159.2
X114.88Y-130.87
X114.91Y-161.29
X114.94Y-96.4
X115.01Y-69.0
X115.04Y-94.28
X115.06Y-98.3
X115.15Y-70.9
X115.61Y-126.2
X116.44Y-98.3
X116.58Y-96.4
X116.7Y-70.93
X116.73Y-69.0
X117.01Y-130.8
X117.01Y-161.175
X117.12Y-159.14
X117.725Y-168.68
X118.36Y-125.75
X118.68Y-159.275
X120.27Y-163.84
X121.48Y-173.71
X122.32Y-172.17
X123.02Y-70.9
X123.08Y-63.47
X127.78Y-170.78
X128.52Y-75.96
X128.61Y-174.62
X128.73Y-161.175
X129.28Y-158.825
X129.88Y-57.06
X130.435Y-75.825
X133.93Y-170.5
X135.725Y-74.17
X135.725Y-75.49
X135.725Y-77.8
X135.725Y-85.89
X135.775Y-169.65
X135.955Y-134.16
X135.955Y-139.16
X135.955Y-157.86
X136.1Y-100.93
X136.125Y-106.57
X136.125Y-124.08
X136.45Y-70.9
X136.47Y-160.725
X136.49Y-69.45
X136.54Y-55.79
X136.58Y-57.715
X136.68Y-159.275
X136.71Y-130.35
X136.83Y-97.85
X136.85Y-125.3
X136.95Y-96.4
X137.3Y-172.84
X137.49Y-69.45
X137.625Y-74.24
X137.625Y-77.97
X137.66Y-70.9
X137.69Y-85.74
X137.855Y-139.06
X137.87Y-160.75
X137.92Y-157.64
X138.025Y-106.73
X138.29Y-159.275
X138.3Y-97.9
X138.3Y-130.35
X138.403Y-171.627
X138.44Y-125.3
X138.48Y-96.4
X138.67Y-123.86
X138.86Y-87.14
X138.92Y-88.725
X140.73Y-173.77
X157.64Y-130.35
X157.8Y-124.85
X163.34Y-88.725
X163.42Y-86.375
X163.71Y-124.51
X164.65Y-118.08
X164.67Y-122.34
X165.03Y-102.57
X165.5Y-126.39
X166.33Y-128.75
X167.42Y-124.33
X168.38Y-128.225
X169.57Y-118.11
X170.99Y-119.75
X172.81Y-88.96
X172.9Y-86.53
X174.94Y-88.725
X175.14Y-87.23
T2
X58.0Y-53.2
X60.54Y-53.2
X63.08Y-53.2
X65.62Y-53.2
X68.16Y-53.2
X70.7Y-53.2
X73.24Y-53.2
X87.9Y-53.2
X90.44Y-53.2
X92.98Y-53.2
X95.52Y-53.2
T3
X164.75Y-132.4
X173.5Y-132.4
X99.75Y-67.4
X108.5Y-67.4
X99.75Y-164.9
X108.5Y-164.9
X99.75Y-99.9
X108.5Y-99.9
X99.75Y-132.4
X108.5Y-132.4
X67.25Y-164.9
X76.0Y-164.9
X164.75Y-164.9
X173.5Y-164.9
X164.75Y-98.5
X173.5Y-98.5
X164.75Y-67.4
X173.5Y-67.4
X67.25Y-67.4
X76.0Y-67.4
X67.25Y-132.4
X76.0Y-132.4
X67.25Y-99.9
X76.0Y-99.9
X132.25Y-164.9
X141.0Y-164.9
X132.25Y-132.4
X141.0Y-132.4
X132.25Y-99.9
X141.0Y-99.9
X132.25Y-67.4
X141.0Y-67.4
T0
M30
