%TF.GenerationSoftware,KiCad,Pcbnew,(5.1.7-0-10_14)*%
%TF.CreationDate,2020-11-04T15:25:09-03:00*%
%TF.ProjectId,Aracde button 24mm 4x4 - 3,41726163-6465-4206-9275-74746f6e2032,rev?*%
%TF.SameCoordinates,Original*%
%TF.FileFunction,Soldermask,Top*%
%TF.FilePolarity,Negative*%
%FSLAX46Y46*%
G04 Gerber Fmt 4.6, Leading zero omitted, Abs format (unit mm)*
G04 Created by KiCad (PCBNEW (5.1.7-0-10_14)) date 2020-11-04 15:25:09*
%MOMM*%
%LPD*%
G01*
G04 APERTURE LIST*
%ADD10C,4.000000*%
%ADD11C,8.000000*%
%ADD12R,1.500000X1.000000*%
%ADD13R,4.000000X4.000000*%
%ADD14R,1.700000X1.700000*%
%ADD15O,1.700000X1.700000*%
%ADD16R,0.450000X1.750000*%
G04 APERTURE END LIST*
D10*
%TO.C,SW7*%
X99750000Y-132400000D03*
X108500000Y-132400000D03*
%TD*%
%TO.C,SW2*%
X67250000Y-99900000D03*
X76000000Y-99900000D03*
%TD*%
%TO.C,SW5*%
X99750000Y-67400000D03*
X108500000Y-67400000D03*
%TD*%
%TO.C,SW16*%
X164750000Y-164900000D03*
X173500000Y-164900000D03*
%TD*%
%TO.C,SW6*%
X99750000Y-99900000D03*
X108500000Y-99900000D03*
%TD*%
D11*
%TO.C,REF\u002A\u002A*%
X120500000Y-113650000D03*
%TD*%
D10*
%TO.C,SW1*%
X76000000Y-67400000D03*
X67250000Y-67400000D03*
%TD*%
D12*
%TO.C,D1*%
X65750000Y-77300000D03*
X65750000Y-74100000D03*
X60850000Y-77300000D03*
X60850000Y-74100000D03*
%TD*%
D13*
%TO.C,4067_pads1*%
X183000000Y-127500000D03*
X183000000Y-122500000D03*
X183000000Y-112500000D03*
X183000000Y-117500000D03*
X183000000Y-102500000D03*
X183000000Y-107500000D03*
%TD*%
%TO.C,4067_pads2*%
X102000000Y-52000000D03*
X107000000Y-52000000D03*
X117000000Y-52000000D03*
X112000000Y-52000000D03*
X127000000Y-52000000D03*
X122000000Y-52000000D03*
%TD*%
%TO.C,4067_pads3*%
X57000000Y-127500000D03*
X57000000Y-122500000D03*
X57000000Y-112500000D03*
X57000000Y-117500000D03*
X57000000Y-102500000D03*
X57000000Y-107500000D03*
%TD*%
%TO.C,4067_pads4*%
X102000000Y-178000000D03*
X107000000Y-178000000D03*
X117000000Y-178000000D03*
X112000000Y-178000000D03*
X127000000Y-178000000D03*
X122000000Y-178000000D03*
%TD*%
%TO.C,ws2812b_pads4*%
X57000000Y-93000000D03*
X57000000Y-88000000D03*
%TD*%
%TO.C,ws2812b_pads1*%
X136500000Y-178000000D03*
X141500000Y-178000000D03*
%TD*%
%TO.C,ws2812b_pads3*%
X183000000Y-93000000D03*
X183000000Y-88000000D03*
%TD*%
%TO.C,ws2812b_pads2*%
X136500000Y-52000000D03*
X141500000Y-52000000D03*
%TD*%
D10*
%TO.C,SW3*%
X67250000Y-132400000D03*
X76000000Y-132400000D03*
%TD*%
%TO.C,SW4*%
X67250000Y-164900000D03*
X76000000Y-164900000D03*
%TD*%
%TO.C,SW8*%
X99750000Y-164900000D03*
X108500000Y-164900000D03*
%TD*%
%TO.C,SW9*%
X132250000Y-67400000D03*
X141000000Y-67400000D03*
%TD*%
%TO.C,SW10*%
X132250000Y-99900000D03*
X141000000Y-99900000D03*
%TD*%
%TO.C,SW11*%
X132250000Y-132400000D03*
X141000000Y-132400000D03*
%TD*%
%TO.C,SW12*%
X132250000Y-164900000D03*
X141000000Y-164900000D03*
%TD*%
%TO.C,SW13*%
X164750000Y-67400000D03*
X173500000Y-67400000D03*
%TD*%
%TO.C,SW14*%
X164750000Y-98500000D03*
X173500000Y-98500000D03*
%TD*%
%TO.C,SW15*%
X164750000Y-132400000D03*
X173500000Y-132400000D03*
%TD*%
D14*
%TO.C,4067_pins1*%
X58000000Y-53200000D03*
D15*
X60540000Y-53200000D03*
X63080000Y-53200000D03*
X65620000Y-53200000D03*
X68160000Y-53200000D03*
X70700000Y-53200000D03*
X73240000Y-53200000D03*
%TD*%
D12*
%TO.C,D5*%
X125850000Y-74100000D03*
X125850000Y-77300000D03*
X130750000Y-74100000D03*
X130750000Y-77300000D03*
%TD*%
%TO.C,D9*%
X65850000Y-109700000D03*
X65850000Y-106500000D03*
X60950000Y-109700000D03*
X60950000Y-106500000D03*
%TD*%
%TO.C,D13*%
X130850000Y-109700000D03*
X130850000Y-106500000D03*
X125950000Y-109700000D03*
X125950000Y-106500000D03*
%TD*%
%TO.C,D3*%
X98250000Y-77300000D03*
X98250000Y-74100000D03*
X93350000Y-77300000D03*
X93350000Y-74100000D03*
%TD*%
%TO.C,D7*%
X158350000Y-74100000D03*
X158350000Y-77300000D03*
X163250000Y-74100000D03*
X163250000Y-77300000D03*
%TD*%
%TO.C,D11*%
X98350000Y-109700000D03*
X98350000Y-106500000D03*
X93450000Y-109700000D03*
X93450000Y-106500000D03*
%TD*%
%TO.C,D15*%
X165450000Y-110000000D03*
X165450000Y-106800000D03*
X160550000Y-110000000D03*
X160550000Y-106800000D03*
%TD*%
%TO.C,D17*%
X65850000Y-142200000D03*
X65850000Y-139000000D03*
X60950000Y-142200000D03*
X60950000Y-139000000D03*
%TD*%
%TO.C,D21*%
X125950000Y-139000000D03*
X125950000Y-142200000D03*
X130850000Y-139000000D03*
X130850000Y-142200000D03*
%TD*%
%TO.C,D25*%
X65850000Y-174700000D03*
X65850000Y-171500000D03*
X60950000Y-174700000D03*
X60950000Y-171500000D03*
%TD*%
%TO.C,D29*%
X130850000Y-174700000D03*
X130850000Y-171500000D03*
X125950000Y-174700000D03*
X125950000Y-171500000D03*
%TD*%
%TO.C,D19*%
X98350000Y-142200000D03*
X98350000Y-139000000D03*
X93450000Y-142200000D03*
X93450000Y-139000000D03*
%TD*%
%TO.C,D23*%
X163350000Y-142200000D03*
X163350000Y-139000000D03*
X158450000Y-142200000D03*
X158450000Y-139000000D03*
%TD*%
%TO.C,D27*%
X98350000Y-174700000D03*
X98350000Y-171500000D03*
X93450000Y-174700000D03*
X93450000Y-171500000D03*
%TD*%
%TO.C,D31*%
X158450000Y-171500000D03*
X158450000Y-174700000D03*
X163350000Y-171500000D03*
X163350000Y-174700000D03*
%TD*%
%TO.C,C1*%
G36*
G01*
X66150000Y-79350000D02*
X66150000Y-79850000D01*
G75*
G02*
X65925000Y-80075000I-225000J0D01*
G01*
X65475000Y-80075000D01*
G75*
G02*
X65250000Y-79850000I0J225000D01*
G01*
X65250000Y-79350000D01*
G75*
G02*
X65475000Y-79125000I225000J0D01*
G01*
X65925000Y-79125000D01*
G75*
G02*
X66150000Y-79350000I0J-225000D01*
G01*
G37*
G36*
G01*
X67700000Y-79350000D02*
X67700000Y-79850000D01*
G75*
G02*
X67475000Y-80075000I-225000J0D01*
G01*
X67025000Y-80075000D01*
G75*
G02*
X66800000Y-79850000I0J225000D01*
G01*
X66800000Y-79350000D01*
G75*
G02*
X67025000Y-79125000I225000J0D01*
G01*
X67475000Y-79125000D01*
G75*
G02*
X67700000Y-79350000I0J-225000D01*
G01*
G37*
%TD*%
%TO.C,C2*%
G36*
G01*
X100650000Y-77825000D02*
X100150000Y-77825000D01*
G75*
G02*
X99925000Y-77600000I0J225000D01*
G01*
X99925000Y-77150000D01*
G75*
G02*
X100150000Y-76925000I225000J0D01*
G01*
X100650000Y-76925000D01*
G75*
G02*
X100875000Y-77150000I0J-225000D01*
G01*
X100875000Y-77600000D01*
G75*
G02*
X100650000Y-77825000I-225000J0D01*
G01*
G37*
G36*
G01*
X100650000Y-76275000D02*
X100150000Y-76275000D01*
G75*
G02*
X99925000Y-76050000I0J225000D01*
G01*
X99925000Y-75600000D01*
G75*
G02*
X100150000Y-75375000I225000J0D01*
G01*
X100650000Y-75375000D01*
G75*
G02*
X100875000Y-75600000I0J-225000D01*
G01*
X100875000Y-76050000D01*
G75*
G02*
X100650000Y-76275000I-225000J0D01*
G01*
G37*
%TD*%
%TO.C,C3*%
G36*
G01*
X133350000Y-78125000D02*
X132850000Y-78125000D01*
G75*
G02*
X132625000Y-77900000I0J225000D01*
G01*
X132625000Y-77450000D01*
G75*
G02*
X132850000Y-77225000I225000J0D01*
G01*
X133350000Y-77225000D01*
G75*
G02*
X133575000Y-77450000I0J-225000D01*
G01*
X133575000Y-77900000D01*
G75*
G02*
X133350000Y-78125000I-225000J0D01*
G01*
G37*
G36*
G01*
X133350000Y-76575000D02*
X132850000Y-76575000D01*
G75*
G02*
X132625000Y-76350000I0J225000D01*
G01*
X132625000Y-75900000D01*
G75*
G02*
X132850000Y-75675000I225000J0D01*
G01*
X133350000Y-75675000D01*
G75*
G02*
X133575000Y-75900000I0J-225000D01*
G01*
X133575000Y-76350000D01*
G75*
G02*
X133350000Y-76575000I-225000J0D01*
G01*
G37*
%TD*%
%TO.C,C4*%
G36*
G01*
X165450000Y-77125000D02*
X164950000Y-77125000D01*
G75*
G02*
X164725000Y-76900000I0J225000D01*
G01*
X164725000Y-76450000D01*
G75*
G02*
X164950000Y-76225000I225000J0D01*
G01*
X165450000Y-76225000D01*
G75*
G02*
X165675000Y-76450000I0J-225000D01*
G01*
X165675000Y-76900000D01*
G75*
G02*
X165450000Y-77125000I-225000J0D01*
G01*
G37*
G36*
G01*
X165450000Y-75575000D02*
X164950000Y-75575000D01*
G75*
G02*
X164725000Y-75350000I0J225000D01*
G01*
X164725000Y-74900000D01*
G75*
G02*
X164950000Y-74675000I225000J0D01*
G01*
X165450000Y-74675000D01*
G75*
G02*
X165675000Y-74900000I0J-225000D01*
G01*
X165675000Y-75350000D01*
G75*
G02*
X165450000Y-75575000I-225000J0D01*
G01*
G37*
%TD*%
%TO.C,C5*%
G36*
G01*
X62800000Y-104050000D02*
X62800000Y-104550000D01*
G75*
G02*
X62575000Y-104775000I-225000J0D01*
G01*
X62125000Y-104775000D01*
G75*
G02*
X61900000Y-104550000I0J225000D01*
G01*
X61900000Y-104050000D01*
G75*
G02*
X62125000Y-103825000I225000J0D01*
G01*
X62575000Y-103825000D01*
G75*
G02*
X62800000Y-104050000I0J-225000D01*
G01*
G37*
G36*
G01*
X61250000Y-104050000D02*
X61250000Y-104550000D01*
G75*
G02*
X61025000Y-104775000I-225000J0D01*
G01*
X60575000Y-104775000D01*
G75*
G02*
X60350000Y-104550000I0J225000D01*
G01*
X60350000Y-104050000D01*
G75*
G02*
X60575000Y-103825000I225000J0D01*
G01*
X61025000Y-103825000D01*
G75*
G02*
X61250000Y-104050000I0J-225000D01*
G01*
G37*
%TD*%
%TO.C,C6*%
G36*
G01*
X100730000Y-108660000D02*
X100230000Y-108660000D01*
G75*
G02*
X100005000Y-108435000I0J225000D01*
G01*
X100005000Y-107985000D01*
G75*
G02*
X100230000Y-107760000I225000J0D01*
G01*
X100730000Y-107760000D01*
G75*
G02*
X100955000Y-107985000I0J-225000D01*
G01*
X100955000Y-108435000D01*
G75*
G02*
X100730000Y-108660000I-225000J0D01*
G01*
G37*
G36*
G01*
X100730000Y-110210000D02*
X100230000Y-110210000D01*
G75*
G02*
X100005000Y-109985000I0J225000D01*
G01*
X100005000Y-109535000D01*
G75*
G02*
X100230000Y-109310000I225000J0D01*
G01*
X100730000Y-109310000D01*
G75*
G02*
X100955000Y-109535000I0J-225000D01*
G01*
X100955000Y-109985000D01*
G75*
G02*
X100730000Y-110210000I-225000J0D01*
G01*
G37*
%TD*%
%TO.C,C7*%
G36*
G01*
X133350000Y-108750000D02*
X132850000Y-108750000D01*
G75*
G02*
X132625000Y-108525000I0J225000D01*
G01*
X132625000Y-108075000D01*
G75*
G02*
X132850000Y-107850000I225000J0D01*
G01*
X133350000Y-107850000D01*
G75*
G02*
X133575000Y-108075000I0J-225000D01*
G01*
X133575000Y-108525000D01*
G75*
G02*
X133350000Y-108750000I-225000J0D01*
G01*
G37*
G36*
G01*
X133350000Y-110300000D02*
X132850000Y-110300000D01*
G75*
G02*
X132625000Y-110075000I0J225000D01*
G01*
X132625000Y-109625000D01*
G75*
G02*
X132850000Y-109400000I225000J0D01*
G01*
X133350000Y-109400000D01*
G75*
G02*
X133575000Y-109625000I0J-225000D01*
G01*
X133575000Y-110075000D01*
G75*
G02*
X133350000Y-110300000I-225000J0D01*
G01*
G37*
%TD*%
%TO.C,C8*%
G36*
G01*
X164190000Y-112850000D02*
X164190000Y-113350000D01*
G75*
G02*
X163965000Y-113575000I-225000J0D01*
G01*
X163515000Y-113575000D01*
G75*
G02*
X163290000Y-113350000I0J225000D01*
G01*
X163290000Y-112850000D01*
G75*
G02*
X163515000Y-112625000I225000J0D01*
G01*
X163965000Y-112625000D01*
G75*
G02*
X164190000Y-112850000I0J-225000D01*
G01*
G37*
G36*
G01*
X165740000Y-112850000D02*
X165740000Y-113350000D01*
G75*
G02*
X165515000Y-113575000I-225000J0D01*
G01*
X165065000Y-113575000D01*
G75*
G02*
X164840000Y-113350000I0J225000D01*
G01*
X164840000Y-112850000D01*
G75*
G02*
X165065000Y-112625000I225000J0D01*
G01*
X165515000Y-112625000D01*
G75*
G02*
X165740000Y-112850000I0J-225000D01*
G01*
G37*
%TD*%
%TO.C,C9*%
G36*
G01*
X68545000Y-141045000D02*
X68045000Y-141045000D01*
G75*
G02*
X67820000Y-140820000I0J225000D01*
G01*
X67820000Y-140370000D01*
G75*
G02*
X68045000Y-140145000I225000J0D01*
G01*
X68545000Y-140145000D01*
G75*
G02*
X68770000Y-140370000I0J-225000D01*
G01*
X68770000Y-140820000D01*
G75*
G02*
X68545000Y-141045000I-225000J0D01*
G01*
G37*
G36*
G01*
X68545000Y-142595000D02*
X68045000Y-142595000D01*
G75*
G02*
X67820000Y-142370000I0J225000D01*
G01*
X67820000Y-141920000D01*
G75*
G02*
X68045000Y-141695000I225000J0D01*
G01*
X68545000Y-141695000D01*
G75*
G02*
X68770000Y-141920000I0J-225000D01*
G01*
X68770000Y-142370000D01*
G75*
G02*
X68545000Y-142595000I-225000J0D01*
G01*
G37*
%TD*%
%TO.C,C10*%
G36*
G01*
X100850000Y-140750000D02*
X100350000Y-140750000D01*
G75*
G02*
X100125000Y-140525000I0J225000D01*
G01*
X100125000Y-140075000D01*
G75*
G02*
X100350000Y-139850000I225000J0D01*
G01*
X100850000Y-139850000D01*
G75*
G02*
X101075000Y-140075000I0J-225000D01*
G01*
X101075000Y-140525000D01*
G75*
G02*
X100850000Y-140750000I-225000J0D01*
G01*
G37*
G36*
G01*
X100850000Y-142300000D02*
X100350000Y-142300000D01*
G75*
G02*
X100125000Y-142075000I0J225000D01*
G01*
X100125000Y-141625000D01*
G75*
G02*
X100350000Y-141400000I225000J0D01*
G01*
X100850000Y-141400000D01*
G75*
G02*
X101075000Y-141625000I0J-225000D01*
G01*
X101075000Y-142075000D01*
G75*
G02*
X100850000Y-142300000I-225000J0D01*
G01*
G37*
%TD*%
%TO.C,C11*%
G36*
G01*
X131750000Y-144750000D02*
X131750000Y-144250000D01*
G75*
G02*
X131975000Y-144025000I225000J0D01*
G01*
X132425000Y-144025000D01*
G75*
G02*
X132650000Y-144250000I0J-225000D01*
G01*
X132650000Y-144750000D01*
G75*
G02*
X132425000Y-144975000I-225000J0D01*
G01*
X131975000Y-144975000D01*
G75*
G02*
X131750000Y-144750000I0J225000D01*
G01*
G37*
G36*
G01*
X130200000Y-144750000D02*
X130200000Y-144250000D01*
G75*
G02*
X130425000Y-144025000I225000J0D01*
G01*
X130875000Y-144025000D01*
G75*
G02*
X131100000Y-144250000I0J-225000D01*
G01*
X131100000Y-144750000D01*
G75*
G02*
X130875000Y-144975000I-225000J0D01*
G01*
X130425000Y-144975000D01*
G75*
G02*
X130200000Y-144750000I0J225000D01*
G01*
G37*
%TD*%
%TO.C,C12*%
G36*
G01*
X164160000Y-144270000D02*
X164160000Y-144770000D01*
G75*
G02*
X163935000Y-144995000I-225000J0D01*
G01*
X163485000Y-144995000D01*
G75*
G02*
X163260000Y-144770000I0J225000D01*
G01*
X163260000Y-144270000D01*
G75*
G02*
X163485000Y-144045000I225000J0D01*
G01*
X163935000Y-144045000D01*
G75*
G02*
X164160000Y-144270000I0J-225000D01*
G01*
G37*
G36*
G01*
X162610000Y-144270000D02*
X162610000Y-144770000D01*
G75*
G02*
X162385000Y-144995000I-225000J0D01*
G01*
X161935000Y-144995000D01*
G75*
G02*
X161710000Y-144770000I0J225000D01*
G01*
X161710000Y-144270000D01*
G75*
G02*
X161935000Y-144045000I225000J0D01*
G01*
X162385000Y-144045000D01*
G75*
G02*
X162610000Y-144270000I0J-225000D01*
G01*
G37*
%TD*%
%TO.C,C13*%
G36*
G01*
X69750000Y-175050000D02*
X69250000Y-175050000D01*
G75*
G02*
X69025000Y-174825000I0J225000D01*
G01*
X69025000Y-174375000D01*
G75*
G02*
X69250000Y-174150000I225000J0D01*
G01*
X69750000Y-174150000D01*
G75*
G02*
X69975000Y-174375000I0J-225000D01*
G01*
X69975000Y-174825000D01*
G75*
G02*
X69750000Y-175050000I-225000J0D01*
G01*
G37*
G36*
G01*
X69750000Y-173500000D02*
X69250000Y-173500000D01*
G75*
G02*
X69025000Y-173275000I0J225000D01*
G01*
X69025000Y-172825000D01*
G75*
G02*
X69250000Y-172600000I225000J0D01*
G01*
X69750000Y-172600000D01*
G75*
G02*
X69975000Y-172825000I0J-225000D01*
G01*
X69975000Y-173275000D01*
G75*
G02*
X69750000Y-173500000I-225000J0D01*
G01*
G37*
%TD*%
%TO.C,C14*%
G36*
G01*
X99410000Y-177060000D02*
X99410000Y-177560000D01*
G75*
G02*
X99185000Y-177785000I-225000J0D01*
G01*
X98735000Y-177785000D01*
G75*
G02*
X98510000Y-177560000I0J225000D01*
G01*
X98510000Y-177060000D01*
G75*
G02*
X98735000Y-176835000I225000J0D01*
G01*
X99185000Y-176835000D01*
G75*
G02*
X99410000Y-177060000I0J-225000D01*
G01*
G37*
G36*
G01*
X97860000Y-177060000D02*
X97860000Y-177560000D01*
G75*
G02*
X97635000Y-177785000I-225000J0D01*
G01*
X97185000Y-177785000D01*
G75*
G02*
X96960000Y-177560000I0J225000D01*
G01*
X96960000Y-177060000D01*
G75*
G02*
X97185000Y-176835000I225000J0D01*
G01*
X97635000Y-176835000D01*
G75*
G02*
X97860000Y-177060000I0J-225000D01*
G01*
G37*
%TD*%
%TO.C,C15*%
G36*
G01*
X133250000Y-174725000D02*
X132750000Y-174725000D01*
G75*
G02*
X132525000Y-174500000I0J225000D01*
G01*
X132525000Y-174050000D01*
G75*
G02*
X132750000Y-173825000I225000J0D01*
G01*
X133250000Y-173825000D01*
G75*
G02*
X133475000Y-174050000I0J-225000D01*
G01*
X133475000Y-174500000D01*
G75*
G02*
X133250000Y-174725000I-225000J0D01*
G01*
G37*
G36*
G01*
X133250000Y-173175000D02*
X132750000Y-173175000D01*
G75*
G02*
X132525000Y-172950000I0J225000D01*
G01*
X132525000Y-172500000D01*
G75*
G02*
X132750000Y-172275000I225000J0D01*
G01*
X133250000Y-172275000D01*
G75*
G02*
X133475000Y-172500000I0J-225000D01*
G01*
X133475000Y-172950000D01*
G75*
G02*
X133250000Y-173175000I-225000J0D01*
G01*
G37*
%TD*%
%TO.C,C16*%
G36*
G01*
X165950000Y-173670000D02*
X165450000Y-173670000D01*
G75*
G02*
X165225000Y-173445000I0J225000D01*
G01*
X165225000Y-172995000D01*
G75*
G02*
X165450000Y-172770000I225000J0D01*
G01*
X165950000Y-172770000D01*
G75*
G02*
X166175000Y-172995000I0J-225000D01*
G01*
X166175000Y-173445000D01*
G75*
G02*
X165950000Y-173670000I-225000J0D01*
G01*
G37*
G36*
G01*
X165950000Y-175220000D02*
X165450000Y-175220000D01*
G75*
G02*
X165225000Y-174995000I0J225000D01*
G01*
X165225000Y-174545000D01*
G75*
G02*
X165450000Y-174320000I225000J0D01*
G01*
X165950000Y-174320000D01*
G75*
G02*
X166175000Y-174545000I0J-225000D01*
G01*
X166175000Y-174995000D01*
G75*
G02*
X165950000Y-175220000I-225000J0D01*
G01*
G37*
%TD*%
D14*
%TO.C,ws2812b_pins4*%
X87900000Y-53200000D03*
D15*
X90440000Y-53200000D03*
X92980000Y-53200000D03*
X95520000Y-53200000D03*
%TD*%
D16*
%TO.C,74hc4067*%
X83225000Y-116800000D03*
X83875000Y-116800000D03*
X84525000Y-116800000D03*
X85175000Y-116800000D03*
X85825000Y-116800000D03*
X86475000Y-116800000D03*
X87125000Y-116800000D03*
X87775000Y-116800000D03*
X88425000Y-116800000D03*
X89075000Y-116800000D03*
X89725000Y-116800000D03*
X90375000Y-116800000D03*
X90375000Y-109600000D03*
X89725000Y-109600000D03*
X89075000Y-109600000D03*
X88425000Y-109600000D03*
X87775000Y-109600000D03*
X87125000Y-109600000D03*
X86475000Y-109600000D03*
X85825000Y-109600000D03*
X85175000Y-109600000D03*
X84525000Y-109600000D03*
X83875000Y-109600000D03*
X83225000Y-109600000D03*
%TD*%
M02*
