%TF.GenerationSoftware,KiCad,Pcbnew,(5.1.7-0-10_14)*%
%TF.CreationDate,2020-11-04T15:25:09-03:00*%
%TF.ProjectId,Aracde button 24mm 4x4 - 3,41726163-6465-4206-9275-74746f6e2032,rev?*%
%TF.SameCoordinates,Original*%
%TF.FileFunction,Legend,Bot*%
%TF.FilePolarity,Positive*%
%FSLAX46Y46*%
G04 Gerber Fmt 4.6, Leading zero omitted, Abs format (unit mm)*
G04 Created by KiCad (PCBNEW (5.1.7-0-10_14)) date 2020-11-04 15:25:09*
%MOMM*%
%LPD*%
G01*
G04 APERTURE LIST*
%ADD10C,0.200000*%
%ADD11C,0.150000*%
%ADD12C,0.120000*%
G04 APERTURE END LIST*
D10*
X96478571Y-55464285D02*
X94978571Y-55464285D01*
X94978571Y-55821428D01*
X95050000Y-56035714D01*
X95192857Y-56178571D01*
X95335714Y-56250000D01*
X95621428Y-56321428D01*
X95835714Y-56321428D01*
X96121428Y-56250000D01*
X96264285Y-56178571D01*
X96407142Y-56035714D01*
X96478571Y-55821428D01*
X96478571Y-55464285D01*
X94978571Y-57250000D02*
X94978571Y-57535714D01*
X95050000Y-57678571D01*
X95192857Y-57821428D01*
X95478571Y-57892857D01*
X95978571Y-57892857D01*
X96264285Y-57821428D01*
X96407142Y-57678571D01*
X96478571Y-57535714D01*
X96478571Y-57250000D01*
X96407142Y-57107142D01*
X96264285Y-56964285D01*
X95978571Y-56892857D01*
X95478571Y-56892857D01*
X95192857Y-56964285D01*
X95050000Y-57107142D01*
X94978571Y-57250000D01*
X94978571Y-58535714D02*
X96192857Y-58535714D01*
X96335714Y-58607142D01*
X96407142Y-58678571D01*
X96478571Y-58821428D01*
X96478571Y-59107142D01*
X96407142Y-59250000D01*
X96335714Y-59321428D01*
X96192857Y-59392857D01*
X94978571Y-59392857D01*
X94978571Y-59892857D02*
X94978571Y-60750000D01*
X96478571Y-60321428D02*
X94978571Y-60321428D01*
D11*
X179335833Y-73521428D02*
X179335833Y-74388095D01*
X179645357Y-73026190D02*
X179954880Y-73954761D01*
X179150119Y-73954761D01*
X178778690Y-74388095D02*
X178097738Y-73521428D01*
X178778690Y-73521428D02*
X178097738Y-74388095D01*
X177045357Y-73521428D02*
X177045357Y-74388095D01*
X177354880Y-73026190D02*
X177664404Y-73954761D01*
X176859642Y-73954761D01*
X175435833Y-73211904D02*
X175373928Y-73150000D01*
X175250119Y-73088095D01*
X174940595Y-73088095D01*
X174816785Y-73150000D01*
X174754880Y-73211904D01*
X174692976Y-73335714D01*
X174692976Y-73459523D01*
X174754880Y-73645238D01*
X175497738Y-74388095D01*
X174692976Y-74388095D01*
X173578690Y-73521428D02*
X173578690Y-74388095D01*
X173888214Y-73026190D02*
X174197738Y-73954761D01*
X173392976Y-73954761D01*
X172897738Y-74388095D02*
X172897738Y-73521428D01*
X172897738Y-73645238D02*
X172835833Y-73583333D01*
X172712023Y-73521428D01*
X172526309Y-73521428D01*
X172402499Y-73583333D01*
X172340595Y-73707142D01*
X172340595Y-74388095D01*
X172340595Y-73707142D02*
X172278690Y-73583333D01*
X172154880Y-73521428D01*
X171969166Y-73521428D01*
X171845357Y-73583333D01*
X171783452Y-73707142D01*
X171783452Y-74388095D01*
X171164404Y-74388095D02*
X171164404Y-73521428D01*
X171164404Y-73645238D02*
X171102499Y-73583333D01*
X170978690Y-73521428D01*
X170792976Y-73521428D01*
X170669166Y-73583333D01*
X170607261Y-73707142D01*
X170607261Y-74388095D01*
X170607261Y-73707142D02*
X170545357Y-73583333D01*
X170421547Y-73521428D01*
X170235833Y-73521428D01*
X170112023Y-73583333D01*
X170050119Y-73707142D01*
X170050119Y-74388095D01*
X168502499Y-74016666D02*
X167883452Y-74016666D01*
X168626309Y-74388095D02*
X168192976Y-73088095D01*
X167759642Y-74388095D01*
X167326309Y-74388095D02*
X167326309Y-73521428D01*
X167326309Y-73769047D02*
X167264404Y-73645238D01*
X167202499Y-73583333D01*
X167078690Y-73521428D01*
X166954880Y-73521428D01*
X165964404Y-74326190D02*
X166088214Y-74388095D01*
X166335833Y-74388095D01*
X166459642Y-74326190D01*
X166521547Y-74264285D01*
X166583452Y-74140476D01*
X166583452Y-73769047D01*
X166521547Y-73645238D01*
X166459642Y-73583333D01*
X166335833Y-73521428D01*
X166088214Y-73521428D01*
X165964404Y-73583333D01*
X164850119Y-74388095D02*
X164850119Y-73707142D01*
X164912023Y-73583333D01*
X165035833Y-73521428D01*
X165283452Y-73521428D01*
X165407261Y-73583333D01*
X164850119Y-74326190D02*
X164973928Y-74388095D01*
X165283452Y-74388095D01*
X165407261Y-74326190D01*
X165469166Y-74202380D01*
X165469166Y-74078571D01*
X165407261Y-73954761D01*
X165283452Y-73892857D01*
X164973928Y-73892857D01*
X164850119Y-73830952D01*
X163673928Y-74388095D02*
X163673928Y-73088095D01*
X163673928Y-74326190D02*
X163797738Y-74388095D01*
X164045357Y-74388095D01*
X164169166Y-74326190D01*
X164231071Y-74264285D01*
X164292976Y-74140476D01*
X164292976Y-73769047D01*
X164231071Y-73645238D01*
X164169166Y-73583333D01*
X164045357Y-73521428D01*
X163797738Y-73521428D01*
X163673928Y-73583333D01*
X162559642Y-74326190D02*
X162683452Y-74388095D01*
X162931071Y-74388095D01*
X163054880Y-74326190D01*
X163116785Y-74202380D01*
X163116785Y-73707142D01*
X163054880Y-73583333D01*
X162931071Y-73521428D01*
X162683452Y-73521428D01*
X162559642Y-73583333D01*
X162497738Y-73707142D01*
X162497738Y-73830952D01*
X163116785Y-73954761D01*
X160950119Y-74388095D02*
X160950119Y-73088095D01*
X160950119Y-73583333D02*
X160826309Y-73521428D01*
X160578690Y-73521428D01*
X160454880Y-73583333D01*
X160392976Y-73645238D01*
X160331071Y-73769047D01*
X160331071Y-74140476D01*
X160392976Y-74264285D01*
X160454880Y-74326190D01*
X160578690Y-74388095D01*
X160826309Y-74388095D01*
X160950119Y-74326190D01*
X159216785Y-73521428D02*
X159216785Y-74388095D01*
X159773928Y-73521428D02*
X159773928Y-74202380D01*
X159712023Y-74326190D01*
X159588214Y-74388095D01*
X159402499Y-74388095D01*
X159278690Y-74326190D01*
X159216785Y-74264285D01*
X158783452Y-73521428D02*
X158288214Y-73521428D01*
X158597738Y-73088095D02*
X158597738Y-74202380D01*
X158535833Y-74326190D01*
X158412023Y-74388095D01*
X158288214Y-74388095D01*
X158040595Y-73521428D02*
X157545357Y-73521428D01*
X157854880Y-73088095D02*
X157854880Y-74202380D01*
X157792976Y-74326190D01*
X157669166Y-74388095D01*
X157545357Y-74388095D01*
X156926309Y-74388095D02*
X157050119Y-74326190D01*
X157112023Y-74264285D01*
X157173928Y-74140476D01*
X157173928Y-73769047D01*
X157112023Y-73645238D01*
X157050119Y-73583333D01*
X156926309Y-73521428D01*
X156740595Y-73521428D01*
X156616785Y-73583333D01*
X156554880Y-73645238D01*
X156492976Y-73769047D01*
X156492976Y-74140476D01*
X156554880Y-74264285D01*
X156616785Y-74326190D01*
X156740595Y-74388095D01*
X156926309Y-74388095D01*
X155935833Y-73521428D02*
X155935833Y-74388095D01*
X155935833Y-73645238D02*
X155873928Y-73583333D01*
X155750119Y-73521428D01*
X155564404Y-73521428D01*
X155440595Y-73583333D01*
X155378690Y-73707142D01*
X155378690Y-74388095D01*
X153769166Y-73892857D02*
X152778690Y-73892857D01*
X153273928Y-74388095D02*
X153273928Y-73397619D01*
X151292976Y-73088095D02*
X150983452Y-74388095D01*
X150735833Y-73459523D01*
X150488214Y-74388095D01*
X150178690Y-73088095D01*
X149745357Y-74326190D02*
X149559642Y-74388095D01*
X149250119Y-74388095D01*
X149126309Y-74326190D01*
X149064404Y-74264285D01*
X149002499Y-74140476D01*
X149002499Y-74016666D01*
X149064404Y-73892857D01*
X149126309Y-73830952D01*
X149250119Y-73769047D01*
X149497738Y-73707142D01*
X149621547Y-73645238D01*
X149683452Y-73583333D01*
X149745357Y-73459523D01*
X149745357Y-73335714D01*
X149683452Y-73211904D01*
X149621547Y-73150000D01*
X149497738Y-73088095D01*
X149188214Y-73088095D01*
X149002499Y-73150000D01*
X148507261Y-73211904D02*
X148445357Y-73150000D01*
X148321547Y-73088095D01*
X148012023Y-73088095D01*
X147888214Y-73150000D01*
X147826309Y-73211904D01*
X147764404Y-73335714D01*
X147764404Y-73459523D01*
X147826309Y-73645238D01*
X148569166Y-74388095D01*
X147764404Y-74388095D01*
X147021547Y-73645238D02*
X147145357Y-73583333D01*
X147207261Y-73521428D01*
X147269166Y-73397619D01*
X147269166Y-73335714D01*
X147207261Y-73211904D01*
X147145357Y-73150000D01*
X147021547Y-73088095D01*
X146773928Y-73088095D01*
X146650119Y-73150000D01*
X146588214Y-73211904D01*
X146526309Y-73335714D01*
X146526309Y-73397619D01*
X146588214Y-73521428D01*
X146650119Y-73583333D01*
X146773928Y-73645238D01*
X147021547Y-73645238D01*
X147145357Y-73707142D01*
X147207261Y-73769047D01*
X147269166Y-73892857D01*
X147269166Y-74140476D01*
X147207261Y-74264285D01*
X147145357Y-74326190D01*
X147021547Y-74388095D01*
X146773928Y-74388095D01*
X146650119Y-74326190D01*
X146588214Y-74264285D01*
X146526309Y-74140476D01*
X146526309Y-73892857D01*
X146588214Y-73769047D01*
X146650119Y-73707142D01*
X146773928Y-73645238D01*
X145288214Y-74388095D02*
X146031071Y-74388095D01*
X145659642Y-74388095D02*
X145659642Y-73088095D01*
X145783452Y-73273809D01*
X145907261Y-73397619D01*
X146031071Y-73459523D01*
X144792976Y-73211904D02*
X144731071Y-73150000D01*
X144607261Y-73088095D01*
X144297738Y-73088095D01*
X144173928Y-73150000D01*
X144112023Y-73211904D01*
X144050119Y-73335714D01*
X144050119Y-73459523D01*
X144112023Y-73645238D01*
X144854880Y-74388095D01*
X144050119Y-74388095D01*
X143492976Y-74388095D02*
X143492976Y-73088095D01*
X143492976Y-73583333D02*
X143369166Y-73521428D01*
X143121547Y-73521428D01*
X142997738Y-73583333D01*
X142935833Y-73645238D01*
X142873928Y-73769047D01*
X142873928Y-74140476D01*
X142935833Y-74264285D01*
X142997738Y-74326190D01*
X143121547Y-74388095D01*
X143369166Y-74388095D01*
X143492976Y-74326190D01*
X141326309Y-74388095D02*
X141326309Y-73088095D01*
X140831071Y-73088095D01*
X140707261Y-73150000D01*
X140645357Y-73211904D01*
X140583452Y-73335714D01*
X140583452Y-73521428D01*
X140645357Y-73645238D01*
X140707261Y-73707142D01*
X140831071Y-73769047D01*
X141326309Y-73769047D01*
X139283452Y-74264285D02*
X139345357Y-74326190D01*
X139531071Y-74388095D01*
X139654880Y-74388095D01*
X139840595Y-74326190D01*
X139964404Y-74202380D01*
X140026309Y-74078571D01*
X140088214Y-73830952D01*
X140088214Y-73645238D01*
X140026309Y-73397619D01*
X139964404Y-73273809D01*
X139840595Y-73150000D01*
X139654880Y-73088095D01*
X139531071Y-73088095D01*
X139345357Y-73150000D01*
X139283452Y-73211904D01*
X138292976Y-73707142D02*
X138107261Y-73769047D01*
X138045357Y-73830952D01*
X137983452Y-73954761D01*
X137983452Y-74140476D01*
X138045357Y-74264285D01*
X138107261Y-74326190D01*
X138231071Y-74388095D01*
X138726309Y-74388095D01*
X138726309Y-73088095D01*
X138292976Y-73088095D01*
X138169166Y-73150000D01*
X138107261Y-73211904D01*
X138045357Y-73335714D01*
X138045357Y-73459523D01*
X138107261Y-73583333D01*
X138169166Y-73645238D01*
X138292976Y-73707142D01*
X138726309Y-73707142D01*
X179892976Y-76488095D02*
X179892976Y-75188095D01*
X179892976Y-75683333D02*
X179769166Y-75621428D01*
X179521547Y-75621428D01*
X179397738Y-75683333D01*
X179335833Y-75745238D01*
X179273928Y-75869047D01*
X179273928Y-76240476D01*
X179335833Y-76364285D01*
X179397738Y-76426190D01*
X179521547Y-76488095D01*
X179769166Y-76488095D01*
X179892976Y-76426190D01*
X178840595Y-75621428D02*
X178531071Y-76488095D01*
X178221547Y-75621428D02*
X178531071Y-76488095D01*
X178654880Y-76797619D01*
X178716785Y-76859523D01*
X178840595Y-76921428D01*
X176054880Y-75250000D02*
X176178690Y-75188095D01*
X176364404Y-75188095D01*
X176550119Y-75250000D01*
X176673928Y-75373809D01*
X176735833Y-75497619D01*
X176797738Y-75745238D01*
X176797738Y-75930952D01*
X176735833Y-76178571D01*
X176673928Y-76302380D01*
X176550119Y-76426190D01*
X176364404Y-76488095D01*
X176240595Y-76488095D01*
X176054880Y-76426190D01*
X175992976Y-76364285D01*
X175992976Y-75930952D01*
X176240595Y-75930952D01*
X174878690Y-75621428D02*
X174878690Y-76488095D01*
X175435833Y-75621428D02*
X175435833Y-76302380D01*
X175373928Y-76426190D01*
X175250119Y-76488095D01*
X175064404Y-76488095D01*
X174940595Y-76426190D01*
X174878690Y-76364285D01*
X174321547Y-76426190D02*
X174197738Y-76488095D01*
X173950119Y-76488095D01*
X173826309Y-76426190D01*
X173764404Y-76302380D01*
X173764404Y-76240476D01*
X173826309Y-76116666D01*
X173950119Y-76054761D01*
X174135833Y-76054761D01*
X174259642Y-75992857D01*
X174321547Y-75869047D01*
X174321547Y-75807142D01*
X174259642Y-75683333D01*
X174135833Y-75621428D01*
X173950119Y-75621428D01*
X173826309Y-75683333D01*
X173392976Y-75621428D02*
X172897738Y-75621428D01*
X173207261Y-75188095D02*
X173207261Y-76302380D01*
X173145357Y-76426190D01*
X173021547Y-76488095D01*
X172897738Y-76488095D01*
X171907261Y-76488095D02*
X171907261Y-75807142D01*
X171969166Y-75683333D01*
X172092976Y-75621428D01*
X172340595Y-75621428D01*
X172464404Y-75683333D01*
X171907261Y-76426190D02*
X172031071Y-76488095D01*
X172340595Y-76488095D01*
X172464404Y-76426190D01*
X172526309Y-76302380D01*
X172526309Y-76178571D01*
X172464404Y-76054761D01*
X172340595Y-75992857D01*
X172031071Y-75992857D01*
X171907261Y-75930952D01*
X171412023Y-75621428D02*
X171102500Y-76488095D01*
X170792976Y-75621428D01*
X170112023Y-76488095D02*
X170235833Y-76426190D01*
X170297738Y-76364285D01*
X170359642Y-76240476D01*
X170359642Y-75869047D01*
X170297738Y-75745238D01*
X170235833Y-75683333D01*
X170112023Y-75621428D01*
X169926309Y-75621428D01*
X169802500Y-75683333D01*
X169740595Y-75745238D01*
X169678690Y-75869047D01*
X169678690Y-76240476D01*
X169740595Y-76364285D01*
X169802500Y-76426190D01*
X169926309Y-76488095D01*
X170112023Y-76488095D01*
X168192976Y-76426190D02*
X168007261Y-76488095D01*
X167697738Y-76488095D01*
X167573928Y-76426190D01*
X167512023Y-76364285D01*
X167450119Y-76240476D01*
X167450119Y-76116666D01*
X167512023Y-75992857D01*
X167573928Y-75930952D01*
X167697738Y-75869047D01*
X167945357Y-75807142D01*
X168069166Y-75745238D01*
X168131071Y-75683333D01*
X168192976Y-75559523D01*
X168192976Y-75435714D01*
X168131071Y-75311904D01*
X168069166Y-75250000D01*
X167945357Y-75188095D01*
X167635833Y-75188095D01*
X167450119Y-75250000D01*
X166892976Y-76488095D02*
X166892976Y-75621428D01*
X166892976Y-75188095D02*
X166954880Y-75250000D01*
X166892976Y-75311904D01*
X166831071Y-75250000D01*
X166892976Y-75188095D01*
X166892976Y-75311904D01*
X166088214Y-76488095D02*
X166212023Y-76426190D01*
X166273928Y-76302380D01*
X166273928Y-75188095D01*
X165716785Y-75621428D02*
X165407261Y-76488095D01*
X165097738Y-75621428D01*
X164107261Y-76426190D02*
X164231071Y-76488095D01*
X164478690Y-76488095D01*
X164602500Y-76426190D01*
X164664404Y-76302380D01*
X164664404Y-75807142D01*
X164602500Y-75683333D01*
X164478690Y-75621428D01*
X164231071Y-75621428D01*
X164107261Y-75683333D01*
X164045357Y-75807142D01*
X164045357Y-75930952D01*
X164664404Y-76054761D01*
X163488214Y-76488095D02*
X163488214Y-75621428D01*
X163488214Y-75188095D02*
X163550119Y-75250000D01*
X163488214Y-75311904D01*
X163426309Y-75250000D01*
X163488214Y-75188095D01*
X163488214Y-75311904D01*
X162869166Y-76488095D02*
X162869166Y-75621428D01*
X162869166Y-75869047D02*
X162807261Y-75745238D01*
X162745357Y-75683333D01*
X162621547Y-75621428D01*
X162497738Y-75621428D01*
X161507261Y-76488095D02*
X161507261Y-75807142D01*
X161569166Y-75683333D01*
X161692976Y-75621428D01*
X161940595Y-75621428D01*
X162064404Y-75683333D01*
X161507261Y-76426190D02*
X161631071Y-76488095D01*
X161940595Y-76488095D01*
X162064404Y-76426190D01*
X162126309Y-76302380D01*
X162126309Y-76178571D01*
X162064404Y-76054761D01*
X161940595Y-75992857D01*
X161631071Y-75992857D01*
X161507261Y-75930952D01*
X159897738Y-75992857D02*
X158907261Y-75992857D01*
X156740595Y-76488095D02*
X156740595Y-75807142D01*
X156802500Y-75683333D01*
X156926309Y-75621428D01*
X157173928Y-75621428D01*
X157297738Y-75683333D01*
X156740595Y-76426190D02*
X156864404Y-76488095D01*
X157173928Y-76488095D01*
X157297738Y-76426190D01*
X157359642Y-76302380D01*
X157359642Y-76178571D01*
X157297738Y-76054761D01*
X157173928Y-75992857D01*
X156864404Y-75992857D01*
X156740595Y-75930952D01*
X156121547Y-76364285D02*
X156059642Y-76426190D01*
X156121547Y-76488095D01*
X156183452Y-76426190D01*
X156121547Y-76364285D01*
X156121547Y-76488095D01*
X155502500Y-76488095D02*
X155502500Y-75188095D01*
X155378690Y-75992857D02*
X155007261Y-76488095D01*
X155007261Y-75621428D02*
X155502500Y-76116666D01*
X154450119Y-76364285D02*
X154388214Y-76426190D01*
X154450119Y-76488095D01*
X154512023Y-76426190D01*
X154450119Y-76364285D01*
X154450119Y-76488095D01*
X153273928Y-76488095D02*
X153273928Y-75807142D01*
X153335833Y-75683333D01*
X153459642Y-75621428D01*
X153707261Y-75621428D01*
X153831071Y-75683333D01*
X153273928Y-76426190D02*
X153397738Y-76488095D01*
X153707261Y-76488095D01*
X153831071Y-76426190D01*
X153892976Y-76302380D01*
X153892976Y-76178571D01*
X153831071Y-76054761D01*
X153707261Y-75992857D01*
X153397738Y-75992857D01*
X153273928Y-75930952D01*
X152654880Y-76364285D02*
X152592976Y-76426190D01*
X152654880Y-76488095D01*
X152716785Y-76426190D01*
X152654880Y-76364285D01*
X152654880Y-76488095D01*
X151045357Y-76488095D02*
X151045357Y-75188095D01*
X150612023Y-76116666D01*
X150178690Y-75188095D01*
X150178690Y-76488095D01*
X149002500Y-75621428D02*
X149002500Y-76488095D01*
X149559642Y-75621428D02*
X149559642Y-76302380D01*
X149497738Y-76426190D01*
X149373928Y-76488095D01*
X149188214Y-76488095D01*
X149064404Y-76426190D01*
X149002500Y-76364285D01*
X148445357Y-76426190D02*
X148321547Y-76488095D01*
X148073928Y-76488095D01*
X147950119Y-76426190D01*
X147888214Y-76302380D01*
X147888214Y-76240476D01*
X147950119Y-76116666D01*
X148073928Y-76054761D01*
X148259642Y-76054761D01*
X148383452Y-75992857D01*
X148445357Y-75869047D01*
X148445357Y-75807142D01*
X148383452Y-75683333D01*
X148259642Y-75621428D01*
X148073928Y-75621428D01*
X147950119Y-75683333D01*
X147331071Y-76488095D02*
X147331071Y-75621428D01*
X147331071Y-75188095D02*
X147392976Y-75250000D01*
X147331071Y-75311904D01*
X147269166Y-75250000D01*
X147331071Y-75188095D01*
X147331071Y-75311904D01*
X146154880Y-76426190D02*
X146278690Y-76488095D01*
X146526309Y-76488095D01*
X146650119Y-76426190D01*
X146712023Y-76364285D01*
X146773928Y-76240476D01*
X146773928Y-75869047D01*
X146712023Y-75745238D01*
X146650119Y-75683333D01*
X146526309Y-75621428D01*
X146278690Y-75621428D01*
X146154880Y-75683333D01*
X145412023Y-76488095D02*
X145535833Y-76426190D01*
X145597738Y-76364285D01*
X145659642Y-76240476D01*
X145659642Y-75869047D01*
X145597738Y-75745238D01*
X145535833Y-75683333D01*
X145412023Y-75621428D01*
X145226309Y-75621428D01*
X145102500Y-75683333D01*
X145040595Y-75745238D01*
X144978690Y-75869047D01*
X144978690Y-76240476D01*
X145040595Y-76364285D01*
X145102500Y-76426190D01*
X145226309Y-76488095D01*
X145412023Y-76488095D01*
X143431071Y-76488095D02*
X143431071Y-75188095D01*
X142688214Y-76488095D01*
X142688214Y-75188095D01*
X141573928Y-76426190D02*
X141697738Y-76488095D01*
X141945357Y-76488095D01*
X142069166Y-76426190D01*
X142131071Y-76302380D01*
X142131071Y-75807142D01*
X142069166Y-75683333D01*
X141945357Y-75621428D01*
X141697738Y-75621428D01*
X141573928Y-75683333D01*
X141512023Y-75807142D01*
X141512023Y-75930952D01*
X142131071Y-76054761D01*
X140954880Y-76488095D02*
X140954880Y-75621428D01*
X140954880Y-75869047D02*
X140892976Y-75745238D01*
X140831071Y-75683333D01*
X140707261Y-75621428D01*
X140583452Y-75621428D01*
X139592976Y-76488095D02*
X139592976Y-75188095D01*
X139592976Y-76426190D02*
X139716785Y-76488095D01*
X139964404Y-76488095D01*
X140088214Y-76426190D01*
X140150119Y-76364285D01*
X140212023Y-76240476D01*
X140212023Y-75869047D01*
X140150119Y-75745238D01*
X140088214Y-75683333D01*
X139964404Y-75621428D01*
X139716785Y-75621428D01*
X139592976Y-75683333D01*
X179335833Y-77721428D02*
X179335833Y-78773809D01*
X179397738Y-78897619D01*
X179459642Y-78959523D01*
X179583452Y-79021428D01*
X179769166Y-79021428D01*
X179892976Y-78959523D01*
X179335833Y-78526190D02*
X179459642Y-78588095D01*
X179707261Y-78588095D01*
X179831071Y-78526190D01*
X179892976Y-78464285D01*
X179954880Y-78340476D01*
X179954880Y-77969047D01*
X179892976Y-77845238D01*
X179831071Y-77783333D01*
X179707261Y-77721428D01*
X179459642Y-77721428D01*
X179335833Y-77783333D01*
X178159642Y-77721428D02*
X178159642Y-78588095D01*
X178716785Y-77721428D02*
X178716785Y-78402380D01*
X178654880Y-78526190D01*
X178531071Y-78588095D01*
X178345357Y-78588095D01*
X178221547Y-78526190D01*
X178159642Y-78464285D01*
X177602500Y-78526190D02*
X177478690Y-78588095D01*
X177231071Y-78588095D01*
X177107261Y-78526190D01*
X177045357Y-78402380D01*
X177045357Y-78340476D01*
X177107261Y-78216666D01*
X177231071Y-78154761D01*
X177416785Y-78154761D01*
X177540595Y-78092857D01*
X177602500Y-77969047D01*
X177602500Y-77907142D01*
X177540595Y-77783333D01*
X177416785Y-77721428D01*
X177231071Y-77721428D01*
X177107261Y-77783333D01*
X176673928Y-77721428D02*
X176178690Y-77721428D01*
X176488214Y-77288095D02*
X176488214Y-78402380D01*
X176426309Y-78526190D01*
X176302500Y-78588095D01*
X176178690Y-78588095D01*
X175188214Y-78588095D02*
X175188214Y-77907142D01*
X175250119Y-77783333D01*
X175373928Y-77721428D01*
X175621547Y-77721428D01*
X175745357Y-77783333D01*
X175188214Y-78526190D02*
X175312023Y-78588095D01*
X175621547Y-78588095D01*
X175745357Y-78526190D01*
X175807261Y-78402380D01*
X175807261Y-78278571D01*
X175745357Y-78154761D01*
X175621547Y-78092857D01*
X175312023Y-78092857D01*
X175188214Y-78030952D01*
X174692976Y-77721428D02*
X174383452Y-78588095D01*
X174073928Y-77721428D01*
X173392976Y-78588095D02*
X173516785Y-78526190D01*
X173578690Y-78464285D01*
X173640595Y-78340476D01*
X173640595Y-77969047D01*
X173578690Y-77845238D01*
X173516785Y-77783333D01*
X173392976Y-77721428D01*
X173207261Y-77721428D01*
X173083452Y-77783333D01*
X173021547Y-77845238D01*
X172959642Y-77969047D01*
X172959642Y-78340476D01*
X173021547Y-78464285D01*
X173083452Y-78526190D01*
X173207261Y-78588095D01*
X173392976Y-78588095D01*
X172464404Y-78526190D02*
X172340595Y-78588095D01*
X172092976Y-78588095D01*
X171969166Y-78526190D01*
X171907261Y-78402380D01*
X171907261Y-78340476D01*
X171969166Y-78216666D01*
X172092976Y-78154761D01*
X172278690Y-78154761D01*
X172402500Y-78092857D01*
X172464404Y-77969047D01*
X172464404Y-77907142D01*
X172402500Y-77783333D01*
X172278690Y-77721428D01*
X172092976Y-77721428D01*
X171969166Y-77783333D01*
X171350119Y-78588095D02*
X171350119Y-77721428D01*
X171350119Y-77288095D02*
X171412023Y-77350000D01*
X171350119Y-77411904D01*
X171288214Y-77350000D01*
X171350119Y-77288095D01*
X171350119Y-77411904D01*
X170545357Y-78588095D02*
X170669166Y-78526190D01*
X170731071Y-78402380D01*
X170731071Y-77288095D01*
X170173928Y-77721428D02*
X169864404Y-78588095D01*
X169554880Y-77721428D01*
X168564404Y-78526190D02*
X168688214Y-78588095D01*
X168935833Y-78588095D01*
X169059642Y-78526190D01*
X169121547Y-78402380D01*
X169121547Y-77907142D01*
X169059642Y-77783333D01*
X168935833Y-77721428D01*
X168688214Y-77721428D01*
X168564404Y-77783333D01*
X168502500Y-77907142D01*
X168502500Y-78030952D01*
X169121547Y-78154761D01*
X167945357Y-78588095D02*
X167945357Y-77721428D01*
X167945357Y-77288095D02*
X168007261Y-77350000D01*
X167945357Y-77411904D01*
X167883452Y-77350000D01*
X167945357Y-77288095D01*
X167945357Y-77411904D01*
X167326309Y-78588095D02*
X167326309Y-77721428D01*
X167326309Y-77969047D02*
X167264404Y-77845238D01*
X167202500Y-77783333D01*
X167078690Y-77721428D01*
X166954880Y-77721428D01*
X165964404Y-78588095D02*
X165964404Y-77907142D01*
X166026309Y-77783333D01*
X166150119Y-77721428D01*
X166397738Y-77721428D01*
X166521547Y-77783333D01*
X165964404Y-78526190D02*
X166088214Y-78588095D01*
X166397738Y-78588095D01*
X166521547Y-78526190D01*
X166583452Y-78402380D01*
X166583452Y-78278571D01*
X166521547Y-78154761D01*
X166397738Y-78092857D01*
X166088214Y-78092857D01*
X165964404Y-78030952D01*
X164540595Y-77969047D02*
X164602500Y-77907142D01*
X164726309Y-77845238D01*
X164850119Y-77845238D01*
X164973928Y-77907142D01*
X165035833Y-77969047D01*
X165097738Y-78092857D01*
X165097738Y-78216666D01*
X165035833Y-78340476D01*
X164973928Y-78402380D01*
X164850119Y-78464285D01*
X164726309Y-78464285D01*
X164602500Y-78402380D01*
X164540595Y-78340476D01*
X164540595Y-77845238D02*
X164540595Y-78340476D01*
X164478690Y-78402380D01*
X164416785Y-78402380D01*
X164292976Y-78340476D01*
X164231071Y-78216666D01*
X164231071Y-77907142D01*
X164354880Y-77721428D01*
X164540595Y-77597619D01*
X164788214Y-77535714D01*
X165035833Y-77597619D01*
X165221547Y-77721428D01*
X165345357Y-77907142D01*
X165407261Y-78154761D01*
X165345357Y-78402380D01*
X165221547Y-78588095D01*
X165035833Y-78711904D01*
X164788214Y-78773809D01*
X164540595Y-78711904D01*
X164354880Y-78588095D01*
X163673928Y-78588095D02*
X163673928Y-77721428D01*
X163673928Y-77845238D02*
X163612023Y-77783333D01*
X163488214Y-77721428D01*
X163302500Y-77721428D01*
X163178690Y-77783333D01*
X163116785Y-77907142D01*
X163116785Y-78588095D01*
X163116785Y-77907142D02*
X163054880Y-77783333D01*
X162931071Y-77721428D01*
X162745357Y-77721428D01*
X162621547Y-77783333D01*
X162559642Y-77907142D01*
X162559642Y-78588095D01*
X161383452Y-77721428D02*
X161383452Y-78588095D01*
X161940595Y-77721428D02*
X161940595Y-78402380D01*
X161878690Y-78526190D01*
X161754880Y-78588095D01*
X161569166Y-78588095D01*
X161445357Y-78526190D01*
X161383452Y-78464285D01*
X160826309Y-78526190D02*
X160702500Y-78588095D01*
X160454880Y-78588095D01*
X160331071Y-78526190D01*
X160269166Y-78402380D01*
X160269166Y-78340476D01*
X160331071Y-78216666D01*
X160454880Y-78154761D01*
X160640595Y-78154761D01*
X160764404Y-78092857D01*
X160826309Y-77969047D01*
X160826309Y-77907142D01*
X160764404Y-77783333D01*
X160640595Y-77721428D01*
X160454880Y-77721428D01*
X160331071Y-77783333D01*
X159712023Y-78588095D02*
X159712023Y-77721428D01*
X159712023Y-77288095D02*
X159773928Y-77350000D01*
X159712023Y-77411904D01*
X159650119Y-77350000D01*
X159712023Y-77288095D01*
X159712023Y-77411904D01*
X158535833Y-78526190D02*
X158659642Y-78588095D01*
X158907261Y-78588095D01*
X159031071Y-78526190D01*
X159092976Y-78464285D01*
X159154880Y-78340476D01*
X159154880Y-77969047D01*
X159092976Y-77845238D01*
X159031071Y-77783333D01*
X158907261Y-77721428D01*
X158659642Y-77721428D01*
X158535833Y-77783333D01*
X157792976Y-78588095D02*
X157916785Y-78526190D01*
X157978690Y-78464285D01*
X158040595Y-78340476D01*
X158040595Y-77969047D01*
X157978690Y-77845238D01*
X157916785Y-77783333D01*
X157792976Y-77721428D01*
X157607261Y-77721428D01*
X157483452Y-77783333D01*
X157421547Y-77845238D01*
X157359642Y-77969047D01*
X157359642Y-78340476D01*
X157421547Y-78464285D01*
X157483452Y-78526190D01*
X157607261Y-78588095D01*
X157792976Y-78588095D01*
X156802500Y-77721428D02*
X156802500Y-78588095D01*
X156802500Y-77845238D02*
X156740595Y-77783333D01*
X156616785Y-77721428D01*
X156431071Y-77721428D01*
X156307261Y-77783333D01*
X156245357Y-77907142D01*
X156245357Y-78588095D01*
X155131071Y-78526190D02*
X155254880Y-78588095D01*
X155502500Y-78588095D01*
X155626309Y-78526190D01*
X155688214Y-78402380D01*
X155688214Y-77907142D01*
X155626309Y-77783333D01*
X155502500Y-77721428D01*
X155254880Y-77721428D01*
X155131071Y-77783333D01*
X155069166Y-77907142D01*
X155069166Y-78030952D01*
X155688214Y-78154761D01*
X154512023Y-78588095D02*
X154512023Y-77721428D01*
X154512023Y-77969047D02*
X154450119Y-77845238D01*
X154388214Y-77783333D01*
X154264404Y-77721428D01*
X154140595Y-77721428D01*
X153150119Y-78588095D02*
X153150119Y-77288095D01*
X153150119Y-78526190D02*
X153273928Y-78588095D01*
X153521547Y-78588095D01*
X153645357Y-78526190D01*
X153707261Y-78464285D01*
X153769166Y-78340476D01*
X153769166Y-77969047D01*
X153707261Y-77845238D01*
X153645357Y-77783333D01*
X153521547Y-77721428D01*
X153273928Y-77721428D01*
X153150119Y-77783333D01*
X152531071Y-78464285D02*
X152469166Y-78526190D01*
X152531071Y-78588095D01*
X152592976Y-78526190D01*
X152531071Y-78464285D01*
X152531071Y-78588095D01*
X151354880Y-78526190D02*
X151478690Y-78588095D01*
X151726309Y-78588095D01*
X151850119Y-78526190D01*
X151912023Y-78464285D01*
X151973928Y-78340476D01*
X151973928Y-77969047D01*
X151912023Y-77845238D01*
X151850119Y-77783333D01*
X151726309Y-77721428D01*
X151478690Y-77721428D01*
X151354880Y-77783333D01*
X150612023Y-78588095D02*
X150735833Y-78526190D01*
X150797738Y-78464285D01*
X150859642Y-78340476D01*
X150859642Y-77969047D01*
X150797738Y-77845238D01*
X150735833Y-77783333D01*
X150612023Y-77721428D01*
X150426309Y-77721428D01*
X150302500Y-77783333D01*
X150240595Y-77845238D01*
X150178690Y-77969047D01*
X150178690Y-78340476D01*
X150240595Y-78464285D01*
X150302500Y-78526190D01*
X150426309Y-78588095D01*
X150612023Y-78588095D01*
X149621547Y-78588095D02*
X149621547Y-77721428D01*
X149621547Y-77845238D02*
X149559642Y-77783333D01*
X149435833Y-77721428D01*
X149250119Y-77721428D01*
X149126309Y-77783333D01*
X149064404Y-77907142D01*
X149064404Y-78588095D01*
X149064404Y-77907142D02*
X149002500Y-77783333D01*
X148878690Y-77721428D01*
X148692976Y-77721428D01*
X148569166Y-77783333D01*
X148507261Y-77907142D01*
X148507261Y-78588095D01*
X179150119Y-80688095D02*
X179583452Y-80069047D01*
X179892976Y-80688095D02*
X179892976Y-79388095D01*
X179397738Y-79388095D01*
X179273928Y-79450000D01*
X179212023Y-79511904D01*
X179150119Y-79635714D01*
X179150119Y-79821428D01*
X179212023Y-79945238D01*
X179273928Y-80007142D01*
X179397738Y-80069047D01*
X179892976Y-80069047D01*
X178097738Y-80626190D02*
X178221547Y-80688095D01*
X178469166Y-80688095D01*
X178592976Y-80626190D01*
X178654880Y-80502380D01*
X178654880Y-80007142D01*
X178592976Y-79883333D01*
X178469166Y-79821428D01*
X178221547Y-79821428D01*
X178097738Y-79883333D01*
X178035833Y-80007142D01*
X178035833Y-80130952D01*
X178654880Y-80254761D01*
X177602500Y-79821428D02*
X177292976Y-80688095D01*
X176983452Y-79821428D01*
X176488214Y-80564285D02*
X176426309Y-80626190D01*
X176488214Y-80688095D01*
X176550119Y-80626190D01*
X176488214Y-80564285D01*
X176488214Y-80688095D01*
X174197738Y-80688095D02*
X174940595Y-80688095D01*
X174569166Y-80688095D02*
X174569166Y-79388095D01*
X174692976Y-79573809D01*
X174816785Y-79697619D01*
X174940595Y-79759523D01*
X172650119Y-80192857D02*
X171659642Y-80192857D01*
X169616785Y-80007142D02*
X170050119Y-80007142D01*
X170050119Y-80688095D02*
X170050119Y-79388095D01*
X169431071Y-79388095D01*
X168750119Y-80688095D02*
X168873928Y-80626190D01*
X168935833Y-80564285D01*
X168997738Y-80440476D01*
X168997738Y-80069047D01*
X168935833Y-79945238D01*
X168873928Y-79883333D01*
X168750119Y-79821428D01*
X168564404Y-79821428D01*
X168440595Y-79883333D01*
X168378690Y-79945238D01*
X168316785Y-80069047D01*
X168316785Y-80440476D01*
X168378690Y-80564285D01*
X168440595Y-80626190D01*
X168564404Y-80688095D01*
X168750119Y-80688095D01*
X167759642Y-80688095D02*
X167759642Y-79821428D01*
X167759642Y-80069047D02*
X167697738Y-79945238D01*
X167635833Y-79883333D01*
X167512023Y-79821428D01*
X167388214Y-79821428D01*
X165964404Y-79821428D02*
X165964404Y-81121428D01*
X165964404Y-79883333D02*
X165840595Y-79821428D01*
X165592976Y-79821428D01*
X165469166Y-79883333D01*
X165407261Y-79945238D01*
X165345357Y-80069047D01*
X165345357Y-80440476D01*
X165407261Y-80564285D01*
X165469166Y-80626190D01*
X165592976Y-80688095D01*
X165840595Y-80688095D01*
X165964404Y-80626190D01*
X164292976Y-80626190D02*
X164416785Y-80688095D01*
X164664404Y-80688095D01*
X164788214Y-80626190D01*
X164850119Y-80502380D01*
X164850119Y-80007142D01*
X164788214Y-79883333D01*
X164664404Y-79821428D01*
X164416785Y-79821428D01*
X164292976Y-79883333D01*
X164231071Y-80007142D01*
X164231071Y-80130952D01*
X164850119Y-80254761D01*
X163673928Y-80688095D02*
X163673928Y-79821428D01*
X163673928Y-80069047D02*
X163612023Y-79945238D01*
X163550119Y-79883333D01*
X163426309Y-79821428D01*
X163302500Y-79821428D01*
X162931071Y-80626190D02*
X162807261Y-80688095D01*
X162559642Y-80688095D01*
X162435833Y-80626190D01*
X162373928Y-80502380D01*
X162373928Y-80440476D01*
X162435833Y-80316666D01*
X162559642Y-80254761D01*
X162745357Y-80254761D01*
X162869166Y-80192857D01*
X162931071Y-80069047D01*
X162931071Y-80007142D01*
X162869166Y-79883333D01*
X162745357Y-79821428D01*
X162559642Y-79821428D01*
X162435833Y-79883333D01*
X161631071Y-80688095D02*
X161754880Y-80626190D01*
X161816785Y-80564285D01*
X161878690Y-80440476D01*
X161878690Y-80069047D01*
X161816785Y-79945238D01*
X161754880Y-79883333D01*
X161631071Y-79821428D01*
X161445357Y-79821428D01*
X161321547Y-79883333D01*
X161259642Y-79945238D01*
X161197738Y-80069047D01*
X161197738Y-80440476D01*
X161259642Y-80564285D01*
X161321547Y-80626190D01*
X161445357Y-80688095D01*
X161631071Y-80688095D01*
X160640595Y-79821428D02*
X160640595Y-80688095D01*
X160640595Y-79945238D02*
X160578690Y-79883333D01*
X160454880Y-79821428D01*
X160269166Y-79821428D01*
X160145357Y-79883333D01*
X160083452Y-80007142D01*
X160083452Y-80688095D01*
X158907261Y-80688095D02*
X158907261Y-80007142D01*
X158969166Y-79883333D01*
X159092976Y-79821428D01*
X159340595Y-79821428D01*
X159464404Y-79883333D01*
X158907261Y-80626190D02*
X159031071Y-80688095D01*
X159340595Y-80688095D01*
X159464404Y-80626190D01*
X159526309Y-80502380D01*
X159526309Y-80378571D01*
X159464404Y-80254761D01*
X159340595Y-80192857D01*
X159031071Y-80192857D01*
X158907261Y-80130952D01*
X158102500Y-80688095D02*
X158226309Y-80626190D01*
X158288214Y-80502380D01*
X158288214Y-79388095D01*
X156059642Y-79821428D02*
X156059642Y-80688095D01*
X156616785Y-79821428D02*
X156616785Y-80502380D01*
X156554880Y-80626190D01*
X156431071Y-80688095D01*
X156245357Y-80688095D01*
X156121547Y-80626190D01*
X156059642Y-80564285D01*
X155502500Y-80626190D02*
X155378690Y-80688095D01*
X155131071Y-80688095D01*
X155007261Y-80626190D01*
X154945357Y-80502380D01*
X154945357Y-80440476D01*
X155007261Y-80316666D01*
X155131071Y-80254761D01*
X155316785Y-80254761D01*
X155440595Y-80192857D01*
X155502500Y-80069047D01*
X155502500Y-80007142D01*
X155440595Y-79883333D01*
X155316785Y-79821428D01*
X155131071Y-79821428D01*
X155007261Y-79883333D01*
X153892976Y-80626190D02*
X154016785Y-80688095D01*
X154264404Y-80688095D01*
X154388214Y-80626190D01*
X154450119Y-80502380D01*
X154450119Y-80007142D01*
X154388214Y-79883333D01*
X154264404Y-79821428D01*
X154016785Y-79821428D01*
X153892976Y-79883333D01*
X153831071Y-80007142D01*
X153831071Y-80130952D01*
X154450119Y-80254761D01*
X152097738Y-80688095D02*
X152221547Y-80626190D01*
X152283452Y-80564285D01*
X152345357Y-80440476D01*
X152345357Y-80069047D01*
X152283452Y-79945238D01*
X152221547Y-79883333D01*
X152097738Y-79821428D01*
X151912023Y-79821428D01*
X151788214Y-79883333D01*
X151726309Y-79945238D01*
X151664404Y-80069047D01*
X151664404Y-80440476D01*
X151726309Y-80564285D01*
X151788214Y-80626190D01*
X151912023Y-80688095D01*
X152097738Y-80688095D01*
X151107261Y-79821428D02*
X151107261Y-80688095D01*
X151107261Y-79945238D02*
X151045357Y-79883333D01*
X150921547Y-79821428D01*
X150735833Y-79821428D01*
X150612023Y-79883333D01*
X150550119Y-80007142D01*
X150550119Y-80688095D01*
X149745357Y-80688095D02*
X149869166Y-80626190D01*
X149931071Y-80502380D01*
X149931071Y-79388095D01*
X149373928Y-79821428D02*
X149064404Y-80688095D01*
X148754880Y-79821428D02*
X149064404Y-80688095D01*
X149188214Y-80997619D01*
X149250119Y-81059523D01*
X149373928Y-81121428D01*
X179954880Y-81611904D02*
X179892976Y-81550000D01*
X179769166Y-81488095D01*
X179459642Y-81488095D01*
X179335833Y-81550000D01*
X179273928Y-81611904D01*
X179212023Y-81735714D01*
X179212023Y-81859523D01*
X179273928Y-82045238D01*
X180016785Y-82788095D01*
X179212023Y-82788095D01*
X178407261Y-81488095D02*
X178283452Y-81488095D01*
X178159642Y-81550000D01*
X178097738Y-81611904D01*
X178035833Y-81735714D01*
X177973928Y-81983333D01*
X177973928Y-82292857D01*
X178035833Y-82540476D01*
X178097738Y-82664285D01*
X178159642Y-82726190D01*
X178283452Y-82788095D01*
X178407261Y-82788095D01*
X178531071Y-82726190D01*
X178592976Y-82664285D01*
X178654880Y-82540476D01*
X178716785Y-82292857D01*
X178716785Y-81983333D01*
X178654880Y-81735714D01*
X178592976Y-81611904D01*
X178531071Y-81550000D01*
X178407261Y-81488095D01*
X177478690Y-81611904D02*
X177416785Y-81550000D01*
X177292976Y-81488095D01*
X176983452Y-81488095D01*
X176859642Y-81550000D01*
X176797738Y-81611904D01*
X176735833Y-81735714D01*
X176735833Y-81859523D01*
X176797738Y-82045238D01*
X177540595Y-82788095D01*
X176735833Y-82788095D01*
X175931071Y-81488095D02*
X175807261Y-81488095D01*
X175683452Y-81550000D01*
X175621547Y-81611904D01*
X175559642Y-81735714D01*
X175497738Y-81983333D01*
X175497738Y-82292857D01*
X175559642Y-82540476D01*
X175621547Y-82664285D01*
X175683452Y-82726190D01*
X175807261Y-82788095D01*
X175931071Y-82788095D01*
X176054880Y-82726190D01*
X176116785Y-82664285D01*
X176178690Y-82540476D01*
X176240595Y-82292857D01*
X176240595Y-81983333D01*
X176178690Y-81735714D01*
X176116785Y-81611904D01*
X176054880Y-81550000D01*
X175931071Y-81488095D01*
D10*
X89928571Y-55357143D02*
X91428571Y-55857143D01*
X89928571Y-56357143D01*
X91285714Y-57714285D02*
X91357142Y-57642857D01*
X91428571Y-57428571D01*
X91428571Y-57285714D01*
X91357142Y-57071428D01*
X91214285Y-56928571D01*
X91071428Y-56857143D01*
X90785714Y-56785714D01*
X90571428Y-56785714D01*
X90285714Y-56857143D01*
X90142857Y-56928571D01*
X90000000Y-57071428D01*
X89928571Y-57285714D01*
X89928571Y-57428571D01*
X90000000Y-57642857D01*
X90071428Y-57714285D01*
X91285714Y-59214285D02*
X91357142Y-59142857D01*
X91428571Y-58928571D01*
X91428571Y-58785714D01*
X91357142Y-58571428D01*
X91214285Y-58428571D01*
X91071428Y-58357143D01*
X90785714Y-58285714D01*
X90571428Y-58285714D01*
X90285714Y-58357143D01*
X90142857Y-58428571D01*
X90000000Y-58571428D01*
X89928571Y-58785714D01*
X89928571Y-58928571D01*
X90000000Y-59142857D01*
X90071428Y-59214285D01*
X87250000Y-56107142D02*
X87178571Y-55964285D01*
X87178571Y-55750000D01*
X87250000Y-55535714D01*
X87392857Y-55392857D01*
X87535714Y-55321428D01*
X87821428Y-55250000D01*
X88035714Y-55250000D01*
X88321428Y-55321428D01*
X88464285Y-55392857D01*
X88607142Y-55535714D01*
X88678571Y-55750000D01*
X88678571Y-55892857D01*
X88607142Y-56107142D01*
X88535714Y-56178571D01*
X88035714Y-56178571D01*
X88035714Y-55892857D01*
X88678571Y-56821428D02*
X87178571Y-56821428D01*
X88678571Y-57678571D01*
X87178571Y-57678571D01*
X88678571Y-58392857D02*
X87178571Y-58392857D01*
X87178571Y-58750000D01*
X87250000Y-58964285D01*
X87392857Y-59107142D01*
X87535714Y-59178571D01*
X87821428Y-59250000D01*
X88035714Y-59250000D01*
X88321428Y-59178571D01*
X88464285Y-59107142D01*
X88607142Y-58964285D01*
X88678571Y-58750000D01*
X88678571Y-58392857D01*
X93678571Y-55464285D02*
X92178571Y-55464285D01*
X92178571Y-55821428D01*
X92250000Y-56035714D01*
X92392857Y-56178571D01*
X92535714Y-56250000D01*
X92821428Y-56321428D01*
X93035714Y-56321428D01*
X93321428Y-56250000D01*
X93464285Y-56178571D01*
X93607142Y-56035714D01*
X93678571Y-55821428D01*
X93678571Y-55464285D01*
X93678571Y-56964285D02*
X92178571Y-56964285D01*
X93678571Y-57678571D02*
X92178571Y-57678571D01*
X93678571Y-58535714D01*
X92178571Y-58535714D01*
X73857142Y-55714285D02*
X73928571Y-55928571D01*
X73928571Y-56285714D01*
X73857142Y-56428571D01*
X73785714Y-56500000D01*
X73642857Y-56571428D01*
X73500000Y-56571428D01*
X73357142Y-56500000D01*
X73285714Y-56428571D01*
X73214285Y-56285714D01*
X73142857Y-56000000D01*
X73071428Y-55857142D01*
X73000000Y-55785714D01*
X72857142Y-55714285D01*
X72714285Y-55714285D01*
X72571428Y-55785714D01*
X72500000Y-55857142D01*
X72428571Y-56000000D01*
X72428571Y-56357142D01*
X72500000Y-56571428D01*
X73928571Y-57214285D02*
X72428571Y-57214285D01*
X72500000Y-58714285D02*
X72428571Y-58571428D01*
X72428571Y-58357142D01*
X72500000Y-58142857D01*
X72642857Y-58000000D01*
X72785714Y-57928571D01*
X73071428Y-57857142D01*
X73285714Y-57857142D01*
X73571428Y-57928571D01*
X73714285Y-58000000D01*
X73857142Y-58142857D01*
X73928571Y-58357142D01*
X73928571Y-58500000D01*
X73857142Y-58714285D01*
X73785714Y-58785714D01*
X73285714Y-58785714D01*
X73285714Y-58500000D01*
X68857142Y-55714285D02*
X68928571Y-55928571D01*
X68928571Y-56285714D01*
X68857142Y-56428571D01*
X68785714Y-56500000D01*
X68642857Y-56571428D01*
X68500000Y-56571428D01*
X68357142Y-56500000D01*
X68285714Y-56428571D01*
X68214285Y-56285714D01*
X68142857Y-56000000D01*
X68071428Y-55857143D01*
X68000000Y-55785714D01*
X67857142Y-55714285D01*
X67714285Y-55714285D01*
X67571428Y-55785714D01*
X67500000Y-55857143D01*
X67428571Y-56000000D01*
X67428571Y-56357143D01*
X67500000Y-56571428D01*
X67571428Y-57142857D02*
X67500000Y-57214285D01*
X67428571Y-57357143D01*
X67428571Y-57714285D01*
X67500000Y-57857143D01*
X67571428Y-57928571D01*
X67714285Y-58000000D01*
X67857142Y-58000000D01*
X68071428Y-57928571D01*
X68928571Y-57071428D01*
X68928571Y-58000000D01*
X59928571Y-55571428D02*
X61428571Y-56071428D01*
X59928571Y-56571428D01*
X61285714Y-57928570D02*
X61357142Y-57857142D01*
X61428571Y-57642856D01*
X61428571Y-57499999D01*
X61357142Y-57285713D01*
X61214285Y-57142856D01*
X61071428Y-57071428D01*
X60785714Y-56999999D01*
X60571428Y-56999999D01*
X60285714Y-57071428D01*
X60142857Y-57142856D01*
X60000000Y-57285713D01*
X59928571Y-57499999D01*
X59928571Y-57642856D01*
X60000000Y-57857142D01*
X60071428Y-57928570D01*
X61285714Y-59428570D02*
X61357142Y-59357142D01*
X61428571Y-59142856D01*
X61428571Y-58999999D01*
X61357142Y-58785713D01*
X61214285Y-58642856D01*
X61071428Y-58571428D01*
X60785714Y-58499999D01*
X60571428Y-58499999D01*
X60285714Y-58571428D01*
X60142857Y-58642856D01*
X60000000Y-58785713D01*
X59928571Y-58999999D01*
X59928571Y-59142856D01*
X60000000Y-59357142D01*
X60071428Y-59428570D01*
X66107142Y-55714285D02*
X66178571Y-55928571D01*
X66178571Y-56285714D01*
X66107142Y-56428571D01*
X66035714Y-56500000D01*
X65892857Y-56571428D01*
X65750000Y-56571428D01*
X65607142Y-56500000D01*
X65535714Y-56428571D01*
X65464285Y-56285714D01*
X65392857Y-56000000D01*
X65321428Y-55857143D01*
X65250000Y-55785714D01*
X65107142Y-55714285D01*
X64964285Y-55714285D01*
X64821428Y-55785714D01*
X64750000Y-55857143D01*
X64678571Y-56000000D01*
X64678571Y-56357143D01*
X64750000Y-56571428D01*
X66178571Y-58000000D02*
X66178571Y-57142857D01*
X66178571Y-57571428D02*
X64678571Y-57571428D01*
X64892857Y-57428571D01*
X65035714Y-57285714D01*
X65107142Y-57142857D01*
X71357142Y-55714285D02*
X71428571Y-55928571D01*
X71428571Y-56285714D01*
X71357142Y-56428571D01*
X71285714Y-56500000D01*
X71142857Y-56571428D01*
X71000000Y-56571428D01*
X70857142Y-56500000D01*
X70785714Y-56428571D01*
X70714285Y-56285714D01*
X70642857Y-56000000D01*
X70571428Y-55857143D01*
X70500000Y-55785714D01*
X70357142Y-55714285D01*
X70214285Y-55714285D01*
X70071428Y-55785714D01*
X70000000Y-55857143D01*
X69928571Y-56000000D01*
X69928571Y-56357143D01*
X70000000Y-56571428D01*
X69928571Y-57071428D02*
X69928571Y-58000000D01*
X70500000Y-57500000D01*
X70500000Y-57714285D01*
X70571428Y-57857143D01*
X70642857Y-57928571D01*
X70785714Y-58000000D01*
X71142857Y-58000000D01*
X71285714Y-57928571D01*
X71357142Y-57857143D01*
X71428571Y-57714285D01*
X71428571Y-57285714D01*
X71357142Y-57142857D01*
X71285714Y-57071428D01*
X63607142Y-55714285D02*
X63678571Y-55928571D01*
X63678571Y-56285714D01*
X63607142Y-56428571D01*
X63535714Y-56500000D01*
X63392857Y-56571428D01*
X63250000Y-56571428D01*
X63107142Y-56500000D01*
X63035714Y-56428571D01*
X62964285Y-56285714D01*
X62892857Y-56000000D01*
X62821428Y-55857143D01*
X62750000Y-55785714D01*
X62607142Y-55714285D01*
X62464285Y-55714285D01*
X62321428Y-55785714D01*
X62250000Y-55857143D01*
X62178571Y-56000000D01*
X62178571Y-56357143D01*
X62250000Y-56571428D01*
X62178571Y-57500000D02*
X62178571Y-57642857D01*
X62250000Y-57785714D01*
X62321428Y-57857143D01*
X62464285Y-57928571D01*
X62750000Y-58000000D01*
X63107142Y-58000000D01*
X63392857Y-57928571D01*
X63535714Y-57857143D01*
X63607142Y-57785714D01*
X63678571Y-57642857D01*
X63678571Y-57500000D01*
X63607142Y-57357143D01*
X63535714Y-57285714D01*
X63392857Y-57214285D01*
X63107142Y-57142857D01*
X62750000Y-57142857D01*
X62464285Y-57214285D01*
X62321428Y-57285714D01*
X62250000Y-57357143D01*
X62178571Y-57500000D01*
X57250000Y-56571428D02*
X57178571Y-56428571D01*
X57178571Y-56214286D01*
X57250000Y-56000000D01*
X57392857Y-55857143D01*
X57535714Y-55785714D01*
X57821428Y-55714286D01*
X58035714Y-55714286D01*
X58321428Y-55785714D01*
X58464285Y-55857143D01*
X58607142Y-56000000D01*
X58678571Y-56214286D01*
X58678571Y-56357143D01*
X58607142Y-56571428D01*
X58535714Y-56642857D01*
X58035714Y-56642857D01*
X58035714Y-56357143D01*
X58678571Y-57285714D02*
X57178571Y-57285714D01*
X58678571Y-58142857D01*
X57178571Y-58142857D01*
X58678571Y-58857143D02*
X57178571Y-58857143D01*
X57178571Y-59214286D01*
X57250000Y-59428571D01*
X57392857Y-59571428D01*
X57535714Y-59642857D01*
X57821428Y-59714286D01*
X58035714Y-59714286D01*
X58321428Y-59642857D01*
X58464285Y-59571428D01*
X58607142Y-59428571D01*
X58678571Y-59214286D01*
X58678571Y-58857143D01*
D12*
%TO.C,4067_pins1*%
X74570000Y-51870000D02*
X74570000Y-54530000D01*
X59270000Y-51870000D02*
X74570000Y-51870000D01*
X59270000Y-54530000D02*
X74570000Y-54530000D01*
X59270000Y-51870000D02*
X59270000Y-54530000D01*
X58000000Y-51870000D02*
X56670000Y-51870000D01*
X56670000Y-51870000D02*
X56670000Y-53200000D01*
D11*
X76285714Y-52057142D02*
X76952380Y-52057142D01*
X75904761Y-51819047D02*
X76619047Y-51580952D01*
X76619047Y-52200000D01*
X75952380Y-52771428D02*
X75952380Y-52866666D01*
X76000000Y-52961904D01*
X76047619Y-53009523D01*
X76142857Y-53057142D01*
X76333333Y-53104761D01*
X76571428Y-53104761D01*
X76761904Y-53057142D01*
X76857142Y-53009523D01*
X76904761Y-52961904D01*
X76952380Y-52866666D01*
X76952380Y-52771428D01*
X76904761Y-52676190D01*
X76857142Y-52628571D01*
X76761904Y-52580952D01*
X76571428Y-52533333D01*
X76333333Y-52533333D01*
X76142857Y-52580952D01*
X76047619Y-52628571D01*
X76000000Y-52676190D01*
X75952380Y-52771428D01*
X75952380Y-53961904D02*
X75952380Y-53771428D01*
X76000000Y-53676190D01*
X76047619Y-53628571D01*
X76190476Y-53533333D01*
X76380952Y-53485714D01*
X76761904Y-53485714D01*
X76857142Y-53533333D01*
X76904761Y-53580952D01*
X76952380Y-53676190D01*
X76952380Y-53866666D01*
X76904761Y-53961904D01*
X76857142Y-54009523D01*
X76761904Y-54057142D01*
X76523809Y-54057142D01*
X76428571Y-54009523D01*
X76380952Y-53961904D01*
X76333333Y-53866666D01*
X76333333Y-53676190D01*
X76380952Y-53580952D01*
X76428571Y-53533333D01*
X76523809Y-53485714D01*
X75952380Y-54390476D02*
X75952380Y-55057142D01*
X76952380Y-54628571D01*
X77047619Y-55200000D02*
X77047619Y-55961904D01*
X76285714Y-56200000D02*
X77285714Y-56200000D01*
X76333333Y-56200000D02*
X76285714Y-56295238D01*
X76285714Y-56485714D01*
X76333333Y-56580952D01*
X76380952Y-56628571D01*
X76476190Y-56676190D01*
X76761904Y-56676190D01*
X76857142Y-56628571D01*
X76904761Y-56580952D01*
X76952380Y-56485714D01*
X76952380Y-56295238D01*
X76904761Y-56200000D01*
X76952380Y-57104761D02*
X76285714Y-57104761D01*
X75952380Y-57104761D02*
X76000000Y-57057142D01*
X76047619Y-57104761D01*
X76000000Y-57152380D01*
X75952380Y-57104761D01*
X76047619Y-57104761D01*
X76285714Y-57580952D02*
X76952380Y-57580952D01*
X76380952Y-57580952D02*
X76333333Y-57628571D01*
X76285714Y-57723809D01*
X76285714Y-57866666D01*
X76333333Y-57961904D01*
X76428571Y-58009523D01*
X76952380Y-58009523D01*
X76904761Y-58438095D02*
X76952380Y-58533333D01*
X76952380Y-58723809D01*
X76904761Y-58819047D01*
X76809523Y-58866666D01*
X76761904Y-58866666D01*
X76666666Y-58819047D01*
X76619047Y-58723809D01*
X76619047Y-58580952D01*
X76571428Y-58485714D01*
X76476190Y-58438095D01*
X76428571Y-58438095D01*
X76333333Y-58485714D01*
X76285714Y-58580952D01*
X76285714Y-58723809D01*
X76333333Y-58819047D01*
X76952380Y-59819047D02*
X76952380Y-59247619D01*
X76952380Y-59533333D02*
X75952380Y-59533333D01*
X76095238Y-59438095D01*
X76190476Y-59342857D01*
X76238095Y-59247619D01*
%TO.C,ws2812b_pins4*%
X84585714Y-51152380D02*
X85252380Y-51342857D01*
X84776190Y-51533333D01*
X85252380Y-51723809D01*
X84585714Y-51914285D01*
X85204761Y-52247619D02*
X85252380Y-52342857D01*
X85252380Y-52533333D01*
X85204761Y-52628571D01*
X85109523Y-52676190D01*
X85061904Y-52676190D01*
X84966666Y-52628571D01*
X84919047Y-52533333D01*
X84919047Y-52390476D01*
X84871428Y-52295238D01*
X84776190Y-52247619D01*
X84728571Y-52247619D01*
X84633333Y-52295238D01*
X84585714Y-52390476D01*
X84585714Y-52533333D01*
X84633333Y-52628571D01*
X84347619Y-53057142D02*
X84300000Y-53104761D01*
X84252380Y-53200000D01*
X84252380Y-53438095D01*
X84300000Y-53533333D01*
X84347619Y-53580952D01*
X84442857Y-53628571D01*
X84538095Y-53628571D01*
X84680952Y-53580952D01*
X85252380Y-53009523D01*
X85252380Y-53628571D01*
X84680952Y-54200000D02*
X84633333Y-54104761D01*
X84585714Y-54057142D01*
X84490476Y-54009523D01*
X84442857Y-54009523D01*
X84347619Y-54057142D01*
X84300000Y-54104761D01*
X84252380Y-54200000D01*
X84252380Y-54390476D01*
X84300000Y-54485714D01*
X84347619Y-54533333D01*
X84442857Y-54580952D01*
X84490476Y-54580952D01*
X84585714Y-54533333D01*
X84633333Y-54485714D01*
X84680952Y-54390476D01*
X84680952Y-54200000D01*
X84728571Y-54104761D01*
X84776190Y-54057142D01*
X84871428Y-54009523D01*
X85061904Y-54009523D01*
X85157142Y-54057142D01*
X85204761Y-54104761D01*
X85252380Y-54200000D01*
X85252380Y-54390476D01*
X85204761Y-54485714D01*
X85157142Y-54533333D01*
X85061904Y-54580952D01*
X84871428Y-54580952D01*
X84776190Y-54533333D01*
X84728571Y-54485714D01*
X84680952Y-54390476D01*
X85252380Y-55533333D02*
X85252380Y-54961904D01*
X85252380Y-55247619D02*
X84252380Y-55247619D01*
X84395238Y-55152380D01*
X84490476Y-55057142D01*
X84538095Y-54961904D01*
X84347619Y-55914285D02*
X84300000Y-55961904D01*
X84252380Y-56057142D01*
X84252380Y-56295238D01*
X84300000Y-56390476D01*
X84347619Y-56438095D01*
X84442857Y-56485714D01*
X84538095Y-56485714D01*
X84680952Y-56438095D01*
X85252380Y-55866666D01*
X85252380Y-56485714D01*
X85252380Y-56914285D02*
X84252380Y-56914285D01*
X84633333Y-56914285D02*
X84585714Y-57009523D01*
X84585714Y-57200000D01*
X84633333Y-57295238D01*
X84680952Y-57342857D01*
X84776190Y-57390476D01*
X85061904Y-57390476D01*
X85157142Y-57342857D01*
X85204761Y-57295238D01*
X85252380Y-57200000D01*
X85252380Y-57009523D01*
X85204761Y-56914285D01*
X85347619Y-57580952D02*
X85347619Y-58342857D01*
X84585714Y-58580952D02*
X85585714Y-58580952D01*
X84633333Y-58580952D02*
X84585714Y-58676190D01*
X84585714Y-58866666D01*
X84633333Y-58961904D01*
X84680952Y-59009523D01*
X84776190Y-59057142D01*
X85061904Y-59057142D01*
X85157142Y-59009523D01*
X85204761Y-58961904D01*
X85252380Y-58866666D01*
X85252380Y-58676190D01*
X85204761Y-58580952D01*
X85252380Y-59485714D02*
X84585714Y-59485714D01*
X84252380Y-59485714D02*
X84300000Y-59438095D01*
X84347619Y-59485714D01*
X84300000Y-59533333D01*
X84252380Y-59485714D01*
X84347619Y-59485714D01*
X84585714Y-59961904D02*
X85252380Y-59961904D01*
X84680952Y-59961904D02*
X84633333Y-60009523D01*
X84585714Y-60104761D01*
X84585714Y-60247619D01*
X84633333Y-60342857D01*
X84728571Y-60390476D01*
X85252380Y-60390476D01*
X85204761Y-60819047D02*
X85252380Y-60914285D01*
X85252380Y-61104761D01*
X85204761Y-61200000D01*
X85109523Y-61247619D01*
X85061904Y-61247619D01*
X84966666Y-61200000D01*
X84919047Y-61104761D01*
X84919047Y-60961904D01*
X84871428Y-60866666D01*
X84776190Y-60819047D01*
X84728571Y-60819047D01*
X84633333Y-60866666D01*
X84585714Y-60961904D01*
X84585714Y-61104761D01*
X84633333Y-61200000D01*
X84585714Y-62104761D02*
X85252380Y-62104761D01*
X84204761Y-61866666D02*
X84919047Y-61628571D01*
X84919047Y-62247619D01*
%TD*%
M02*
