%TF.GenerationSoftware,KiCad,Pcbnew,(5.1.7-0-10_14)*%
%TF.CreationDate,2020-11-04T15:25:09-03:00*%
%TF.ProjectId,Aracde button 24mm 4x4 - 3,41726163-6465-4206-9275-74746f6e2032,rev?*%
%TF.SameCoordinates,Original*%
%TF.FileFunction,Soldermask,Bot*%
%TF.FilePolarity,Negative*%
%FSLAX46Y46*%
G04 Gerber Fmt 4.6, Leading zero omitted, Abs format (unit mm)*
G04 Created by KiCad (PCBNEW (5.1.7-0-10_14)) date 2020-11-04 15:25:09*
%MOMM*%
%LPD*%
G01*
G04 APERTURE LIST*
%ADD10C,4.000000*%
%ADD11C,8.000000*%
%ADD12R,4.000000X4.000000*%
%ADD13R,1.700000X1.700000*%
%ADD14O,1.700000X1.700000*%
G04 APERTURE END LIST*
D10*
%TO.C,SW7*%
X99750000Y-132400000D03*
X108500000Y-132400000D03*
%TD*%
%TO.C,SW2*%
X67250000Y-99900000D03*
X76000000Y-99900000D03*
%TD*%
%TO.C,SW5*%
X99750000Y-67400000D03*
X108500000Y-67400000D03*
%TD*%
%TO.C,SW16*%
X164750000Y-164900000D03*
X173500000Y-164900000D03*
%TD*%
%TO.C,SW6*%
X99750000Y-99900000D03*
X108500000Y-99900000D03*
%TD*%
D11*
%TO.C,REF\u002A\u002A*%
X120500000Y-113650000D03*
%TD*%
D10*
%TO.C,SW1*%
X76000000Y-67400000D03*
X67250000Y-67400000D03*
%TD*%
D12*
%TO.C,REF\u002A\u002A*%
X119600000Y-178000000D03*
%TD*%
%TO.C,REF\u002A\u002A*%
X119600000Y-52000000D03*
%TD*%
%TO.C,REF\u002A\u002A*%
X183000000Y-114550000D03*
%TD*%
%TO.C,REF\u002A\u002A*%
X57000000Y-114550000D03*
%TD*%
D10*
%TO.C,SW3*%
X67250000Y-132400000D03*
X76000000Y-132400000D03*
%TD*%
%TO.C,SW4*%
X67250000Y-164900000D03*
X76000000Y-164900000D03*
%TD*%
%TO.C,SW8*%
X99750000Y-164900000D03*
X108500000Y-164900000D03*
%TD*%
%TO.C,SW9*%
X132250000Y-67400000D03*
X141000000Y-67400000D03*
%TD*%
%TO.C,SW10*%
X132250000Y-99900000D03*
X141000000Y-99900000D03*
%TD*%
%TO.C,SW11*%
X132250000Y-132400000D03*
X141000000Y-132400000D03*
%TD*%
%TO.C,SW12*%
X132250000Y-164900000D03*
X141000000Y-164900000D03*
%TD*%
%TO.C,SW13*%
X164750000Y-67400000D03*
X173500000Y-67400000D03*
%TD*%
%TO.C,SW14*%
X164750000Y-98500000D03*
X173500000Y-98500000D03*
%TD*%
%TO.C,SW15*%
X164750000Y-132400000D03*
X173500000Y-132400000D03*
%TD*%
D13*
%TO.C,4067_pins1*%
X58000000Y-53200000D03*
D14*
X60540000Y-53200000D03*
X63080000Y-53200000D03*
X65620000Y-53200000D03*
X68160000Y-53200000D03*
X70700000Y-53200000D03*
X73240000Y-53200000D03*
%TD*%
D13*
%TO.C,ws2812b_pins4*%
X87900000Y-53200000D03*
D14*
X90440000Y-53200000D03*
X92980000Y-53200000D03*
X95520000Y-53200000D03*
%TD*%
M02*
