%TF.GenerationSoftware,KiCad,Pcbnew,(5.1.7-0-10_14)*%
%TF.CreationDate,2020-11-05T14:27:50-03:00*%
%TF.ProjectId,macedo module 2,6d616365-646f-4206-9d6f-64756c652032,rev?*%
%TF.SameCoordinates,Original*%
%TF.FileFunction,Soldermask,Top*%
%TF.FilePolarity,Negative*%
%FSLAX46Y46*%
G04 Gerber Fmt 4.6, Leading zero omitted, Abs format (unit mm)*
G04 Created by KiCad (PCBNEW (5.1.7-0-10_14)) date 2020-11-05 14:27:50*
%MOMM*%
%LPD*%
G01*
G04 APERTURE LIST*
%ADD10C,2.350000*%
%ADD11C,4.000000*%
%ADD12C,1.800000*%
%ADD13R,1.800000X1.800000*%
%ADD14O,1.700000X1.700000*%
%ADD15R,1.700000X1.700000*%
%ADD16O,2.400000X2.400000*%
%ADD17C,2.400000*%
%ADD18C,1.600000*%
G04 APERTURE END LIST*
D10*
%TO.C,SW1*%
X61000000Y-132500000D02*
G75*
G03*
X61000000Y-132500000I-3500000J0D01*
G01*
%TO.C,SW2*%
X61000000Y-157500000D02*
G75*
G03*
X61000000Y-157500000I-3500000J0D01*
G01*
%TO.C,SW3*%
X86000000Y-132500000D02*
G75*
G03*
X86000000Y-132500000I-3500000J0D01*
G01*
%TO.C,SW4*%
X86000000Y-157500000D02*
G75*
G03*
X86000000Y-157500000I-3500000J0D01*
G01*
%TO.C,SW5*%
X111000000Y-132500000D02*
G75*
G03*
X111000000Y-132500000I-3500000J0D01*
G01*
%TO.C,SW6*%
X111000000Y-157500000D02*
G75*
G03*
X111000000Y-157500000I-3500000J0D01*
G01*
%TO.C,SW7*%
X136000000Y-132500000D02*
G75*
G03*
X136000000Y-132500000I-3500000J0D01*
G01*
%TO.C,SW8*%
X136000000Y-157500000D02*
G75*
G03*
X136000000Y-157500000I-3500000J0D01*
G01*
%TO.C,SW9*%
X161000000Y-132500000D02*
G75*
G03*
X161000000Y-132500000I-3500000J0D01*
G01*
%TO.C,SW10*%
X161000000Y-157500000D02*
G75*
G03*
X161000000Y-157500000I-3500000J0D01*
G01*
%TO.C,SW11*%
X186000000Y-132500000D02*
G75*
G03*
X186000000Y-132500000I-3500000J0D01*
G01*
%TO.C,SW12*%
X186000000Y-157500000D02*
G75*
G03*
X186000000Y-157500000I-3500000J0D01*
G01*
%TO.C,SW13*%
X211000000Y-132500000D02*
G75*
G03*
X211000000Y-132500000I-3500000J0D01*
G01*
%TO.C,SW14*%
X211000000Y-157500000D02*
G75*
G03*
X211000000Y-157500000I-3500000J0D01*
G01*
%TO.C,SW15*%
X236000000Y-132500000D02*
G75*
G03*
X236000000Y-132500000I-3500000J0D01*
G01*
%TO.C,SW16*%
X236000000Y-157500000D02*
G75*
G03*
X236000000Y-157500000I-3500000J0D01*
G01*
%TD*%
D11*
%TO.C,REF\u002A\u002A*%
X242000000Y-167000000D03*
%TD*%
%TO.C,REF\u002A\u002A*%
X145000000Y-167000000D03*
%TD*%
%TO.C,REF\u002A\u002A*%
X48000000Y-167000000D03*
%TD*%
%TO.C,REF\u002A\u002A*%
X145000000Y-123000000D03*
%TD*%
%TO.C,REF\u002A\u002A*%
X48000000Y-123000000D03*
%TD*%
%TO.C,REF\u002A\u002A*%
X242000000Y-123000000D03*
%TD*%
D12*
%TO.C,D1*%
X58740000Y-132500000D03*
D13*
X56200000Y-132500000D03*
%TD*%
%TO.C,D2*%
X56200000Y-157500000D03*
D12*
X58740000Y-157500000D03*
%TD*%
D13*
%TO.C,D3*%
X81200000Y-132500000D03*
D12*
X83740000Y-132500000D03*
%TD*%
D13*
%TO.C,D4*%
X81200000Y-157500000D03*
D12*
X83740000Y-157500000D03*
%TD*%
%TO.C,D5*%
X108740000Y-132500000D03*
D13*
X106200000Y-132500000D03*
%TD*%
%TO.C,D6*%
X106200000Y-157500000D03*
D12*
X108740000Y-157500000D03*
%TD*%
D13*
%TO.C,D7*%
X131200000Y-132500000D03*
D12*
X133740000Y-132500000D03*
%TD*%
%TO.C,D8*%
X133740000Y-157500000D03*
D13*
X131200000Y-157500000D03*
%TD*%
%TO.C,D9*%
X156200000Y-132500000D03*
D12*
X158740000Y-132500000D03*
%TD*%
%TO.C,D10*%
X158740000Y-157500000D03*
D13*
X156200000Y-157500000D03*
%TD*%
D12*
%TO.C,D11*%
X183740000Y-132500000D03*
D13*
X181200000Y-132500000D03*
%TD*%
D12*
%TO.C,D12*%
X183740000Y-157500000D03*
D13*
X181200000Y-157500000D03*
%TD*%
%TO.C,D13*%
X206200000Y-132500000D03*
D12*
X208740000Y-132500000D03*
%TD*%
%TO.C,D14*%
X208740000Y-157500000D03*
D13*
X206200000Y-157500000D03*
%TD*%
D12*
%TO.C,D15*%
X233740000Y-132500000D03*
D13*
X231200000Y-132500000D03*
%TD*%
%TO.C,D16*%
X231200000Y-157500000D03*
D12*
X233740000Y-157500000D03*
%TD*%
D14*
%TO.C,4067_conn_1*%
X242500000Y-145300000D03*
X242500000Y-147840000D03*
X242500000Y-150380000D03*
X242500000Y-152920000D03*
X242500000Y-155460000D03*
X242500000Y-158000000D03*
D15*
X242500000Y-160540000D03*
%TD*%
%TO.C,4067_conn_2*%
X47500000Y-145290000D03*
D14*
X47500000Y-147830000D03*
X47500000Y-150370000D03*
X47500000Y-152910000D03*
X47500000Y-155450000D03*
X47500000Y-157990000D03*
X47500000Y-160530000D03*
%TD*%
D15*
%TO.C,595_conn_1*%
X47500000Y-138540000D03*
D14*
X47500000Y-136000000D03*
X47500000Y-133460000D03*
X47500000Y-130920000D03*
%TD*%
D16*
%TO.C,R1*%
X61300000Y-123500000D03*
D17*
X74000000Y-123500000D03*
%TD*%
%TO.C,R3*%
X96385714Y-123500000D03*
D16*
X83685714Y-123500000D03*
%TD*%
%TO.C,R5*%
X118771428Y-123500000D03*
D17*
X106071428Y-123500000D03*
%TD*%
%TO.C,R7*%
X128300000Y-123500000D03*
D16*
X141000000Y-123500000D03*
%TD*%
%TO.C,R9*%
X150842856Y-123500000D03*
D17*
X163542856Y-123500000D03*
%TD*%
%TO.C,R11*%
X185928570Y-123500000D03*
D16*
X173228570Y-123500000D03*
%TD*%
%TO.C,R13*%
X208314284Y-123500000D03*
D17*
X195614284Y-123500000D03*
%TD*%
%TO.C,R15*%
X218000000Y-123500000D03*
D16*
X230700000Y-123500000D03*
%TD*%
D17*
%TO.C,R2*%
X61250000Y-166350000D03*
D16*
X73950000Y-166350000D03*
%TD*%
%TO.C,R4*%
X96335714Y-166350000D03*
D17*
X83635714Y-166350000D03*
%TD*%
%TO.C,R6*%
X118721428Y-166350000D03*
D16*
X106021428Y-166350000D03*
%TD*%
%TO.C,R8*%
X127850000Y-166350000D03*
D17*
X140550000Y-166350000D03*
%TD*%
%TO.C,R10*%
X150792856Y-166350000D03*
D16*
X163492856Y-166350000D03*
%TD*%
%TO.C,R12*%
X185878570Y-166350000D03*
D17*
X173178570Y-166350000D03*
%TD*%
%TO.C,R14*%
X208264284Y-166350000D03*
D16*
X195564284Y-166350000D03*
%TD*%
%TO.C,R16*%
X217950000Y-166350000D03*
D17*
X230650000Y-166350000D03*
%TD*%
D15*
%TO.C,595_conn_2*%
X242500000Y-138540000D03*
D14*
X242500000Y-136000000D03*
X242500000Y-133460000D03*
X242500000Y-130920000D03*
%TD*%
D18*
%TO.C,C1*%
X189850000Y-139650000D03*
X187350000Y-139650000D03*
%TD*%
%TO.C,C2*%
X153850000Y-140340000D03*
X153850000Y-142840000D03*
%TD*%
%TO.C,C3*%
X103440000Y-143350000D03*
X103440000Y-140850000D03*
%TD*%
M02*
