%TF.GenerationSoftware,KiCad,Pcbnew,(5.1.7-0-10_14)*%
%TF.CreationDate,2020-11-05T14:27:50-03:00*%
%TF.ProjectId,macedo module 2,6d616365-646f-4206-9d6f-64756c652032,rev?*%
%TF.SameCoordinates,Original*%
%TF.FileFunction,Legend,Bot*%
%TF.FilePolarity,Positive*%
%FSLAX46Y46*%
G04 Gerber Fmt 4.6, Leading zero omitted, Abs format (unit mm)*
G04 Created by KiCad (PCBNEW (5.1.7-0-10_14)) date 2020-11-05 14:27:50*
%MOMM*%
%LPD*%
G01*
G04 APERTURE LIST*
%ADD10C,0.150000*%
%ADD11C,0.200000*%
%ADD12C,0.120000*%
%ADD13C,0.254000*%
G04 APERTURE END LIST*
D10*
X174076190Y-141905952D02*
X174171428Y-141858333D01*
X174219047Y-141810714D01*
X174266666Y-141715476D01*
X174266666Y-141667857D01*
X174219047Y-141572619D01*
X174171428Y-141525000D01*
X174076190Y-141477380D01*
X173885714Y-141477380D01*
X173790476Y-141525000D01*
X173742857Y-141572619D01*
X173695238Y-141667857D01*
X173695238Y-141715476D01*
X173742857Y-141810714D01*
X173790476Y-141858333D01*
X173885714Y-141905952D01*
X174076190Y-141905952D01*
X174171428Y-141953571D01*
X174219047Y-142001190D01*
X174266666Y-142096428D01*
X174266666Y-142286904D01*
X174219047Y-142382142D01*
X174171428Y-142429761D01*
X174076190Y-142477380D01*
X173885714Y-142477380D01*
X173790476Y-142429761D01*
X173742857Y-142382142D01*
X173695238Y-142286904D01*
X173695238Y-142096428D01*
X173742857Y-142001190D01*
X173790476Y-141953571D01*
X173885714Y-141905952D01*
X173361904Y-142477380D02*
X172838095Y-141810714D01*
X173361904Y-141810714D02*
X172838095Y-142477380D01*
X172504761Y-141572619D02*
X172457142Y-141525000D01*
X172361904Y-141477380D01*
X172123809Y-141477380D01*
X172028571Y-141525000D01*
X171980952Y-141572619D01*
X171933333Y-141667857D01*
X171933333Y-141763095D01*
X171980952Y-141905952D01*
X172552380Y-142477380D01*
X171933333Y-142477380D01*
X170742857Y-142477380D02*
X170742857Y-141477380D01*
X170742857Y-141858333D02*
X170647619Y-141810714D01*
X170457142Y-141810714D01*
X170361904Y-141858333D01*
X170314285Y-141905952D01*
X170266666Y-142001190D01*
X170266666Y-142286904D01*
X170314285Y-142382142D01*
X170361904Y-142429761D01*
X170457142Y-142477380D01*
X170647619Y-142477380D01*
X170742857Y-142429761D01*
X169409523Y-141810714D02*
X169409523Y-142477380D01*
X169838095Y-141810714D02*
X169838095Y-142334523D01*
X169790476Y-142429761D01*
X169695238Y-142477380D01*
X169552380Y-142477380D01*
X169457142Y-142429761D01*
X169409523Y-142382142D01*
X169076190Y-141810714D02*
X168695238Y-141810714D01*
X168933333Y-141477380D02*
X168933333Y-142334523D01*
X168885714Y-142429761D01*
X168790476Y-142477380D01*
X168695238Y-142477380D01*
X168504761Y-141810714D02*
X168123809Y-141810714D01*
X168361904Y-141477380D02*
X168361904Y-142334523D01*
X168314285Y-142429761D01*
X168219047Y-142477380D01*
X168123809Y-142477380D01*
X167647619Y-142477380D02*
X167742857Y-142429761D01*
X167790476Y-142382142D01*
X167838095Y-142286904D01*
X167838095Y-142001190D01*
X167790476Y-141905952D01*
X167742857Y-141858333D01*
X167647619Y-141810714D01*
X167504761Y-141810714D01*
X167409523Y-141858333D01*
X167361904Y-141905952D01*
X167314285Y-142001190D01*
X167314285Y-142286904D01*
X167361904Y-142382142D01*
X167409523Y-142429761D01*
X167504761Y-142477380D01*
X167647619Y-142477380D01*
X166885714Y-141810714D02*
X166885714Y-142477380D01*
X166885714Y-141905952D02*
X166838095Y-141858333D01*
X166742857Y-141810714D01*
X166600000Y-141810714D01*
X166504761Y-141858333D01*
X166457142Y-141953571D01*
X166457142Y-142477380D01*
X165219047Y-141810714D02*
X165219047Y-142810714D01*
X165219047Y-141858333D02*
X165123809Y-141810714D01*
X164933333Y-141810714D01*
X164838095Y-141858333D01*
X164790476Y-141905952D01*
X164742857Y-142001190D01*
X164742857Y-142286904D01*
X164790476Y-142382142D01*
X164838095Y-142429761D01*
X164933333Y-142477380D01*
X165123809Y-142477380D01*
X165219047Y-142429761D01*
X163885714Y-142477380D02*
X163885714Y-141953571D01*
X163933333Y-141858333D01*
X164028571Y-141810714D01*
X164219047Y-141810714D01*
X164314285Y-141858333D01*
X163885714Y-142429761D02*
X163980952Y-142477380D01*
X164219047Y-142477380D01*
X164314285Y-142429761D01*
X164361904Y-142334523D01*
X164361904Y-142239285D01*
X164314285Y-142144047D01*
X164219047Y-142096428D01*
X163980952Y-142096428D01*
X163885714Y-142048809D01*
X162980952Y-142477380D02*
X162980952Y-141477380D01*
X162980952Y-142429761D02*
X163076190Y-142477380D01*
X163266666Y-142477380D01*
X163361904Y-142429761D01*
X163409523Y-142382142D01*
X163457142Y-142286904D01*
X163457142Y-142001190D01*
X163409523Y-141905952D01*
X163361904Y-141858333D01*
X163266666Y-141810714D01*
X163076190Y-141810714D01*
X162980952Y-141858333D01*
X175671428Y-144127380D02*
X175671428Y-143127380D01*
X175671428Y-143508333D02*
X175576190Y-143460714D01*
X175385714Y-143460714D01*
X175290476Y-143508333D01*
X175242857Y-143555952D01*
X175195238Y-143651190D01*
X175195238Y-143936904D01*
X175242857Y-144032142D01*
X175290476Y-144079761D01*
X175385714Y-144127380D01*
X175576190Y-144127380D01*
X175671428Y-144079761D01*
X174861904Y-143460714D02*
X174623809Y-144127380D01*
X174385714Y-143460714D02*
X174623809Y-144127380D01*
X174719047Y-144365476D01*
X174766666Y-144413095D01*
X174861904Y-144460714D01*
X172719047Y-143175000D02*
X172814285Y-143127380D01*
X172957142Y-143127380D01*
X173100000Y-143175000D01*
X173195238Y-143270238D01*
X173242857Y-143365476D01*
X173290476Y-143555952D01*
X173290476Y-143698809D01*
X173242857Y-143889285D01*
X173195238Y-143984523D01*
X173100000Y-144079761D01*
X172957142Y-144127380D01*
X172861904Y-144127380D01*
X172719047Y-144079761D01*
X172671428Y-144032142D01*
X172671428Y-143698809D01*
X172861904Y-143698809D01*
X171814285Y-143460714D02*
X171814285Y-144127380D01*
X172242857Y-143460714D02*
X172242857Y-143984523D01*
X172195238Y-144079761D01*
X172100000Y-144127380D01*
X171957142Y-144127380D01*
X171861904Y-144079761D01*
X171814285Y-144032142D01*
X171385714Y-144079761D02*
X171290476Y-144127380D01*
X171100000Y-144127380D01*
X171004761Y-144079761D01*
X170957142Y-143984523D01*
X170957142Y-143936904D01*
X171004761Y-143841666D01*
X171100000Y-143794047D01*
X171242857Y-143794047D01*
X171338095Y-143746428D01*
X171385714Y-143651190D01*
X171385714Y-143603571D01*
X171338095Y-143508333D01*
X171242857Y-143460714D01*
X171100000Y-143460714D01*
X171004761Y-143508333D01*
X170671428Y-143460714D02*
X170290476Y-143460714D01*
X170528571Y-143127380D02*
X170528571Y-143984523D01*
X170480952Y-144079761D01*
X170385714Y-144127380D01*
X170290476Y-144127380D01*
X169528571Y-144127380D02*
X169528571Y-143603571D01*
X169576190Y-143508333D01*
X169671428Y-143460714D01*
X169861904Y-143460714D01*
X169957142Y-143508333D01*
X169528571Y-144079761D02*
X169623809Y-144127380D01*
X169861904Y-144127380D01*
X169957142Y-144079761D01*
X170004761Y-143984523D01*
X170004761Y-143889285D01*
X169957142Y-143794047D01*
X169861904Y-143746428D01*
X169623809Y-143746428D01*
X169528571Y-143698809D01*
X169147619Y-143460714D02*
X168909523Y-144127380D01*
X168671428Y-143460714D01*
X168147619Y-144127380D02*
X168242857Y-144079761D01*
X168290476Y-144032142D01*
X168338095Y-143936904D01*
X168338095Y-143651190D01*
X168290476Y-143555952D01*
X168242857Y-143508333D01*
X168147619Y-143460714D01*
X168004761Y-143460714D01*
X167909523Y-143508333D01*
X167861904Y-143555952D01*
X167814285Y-143651190D01*
X167814285Y-143936904D01*
X167861904Y-144032142D01*
X167909523Y-144079761D01*
X168004761Y-144127380D01*
X168147619Y-144127380D01*
X166671428Y-144079761D02*
X166528571Y-144127380D01*
X166290476Y-144127380D01*
X166195238Y-144079761D01*
X166147619Y-144032142D01*
X166100000Y-143936904D01*
X166100000Y-143841666D01*
X166147619Y-143746428D01*
X166195238Y-143698809D01*
X166290476Y-143651190D01*
X166480952Y-143603571D01*
X166576190Y-143555952D01*
X166623809Y-143508333D01*
X166671428Y-143413095D01*
X166671428Y-143317857D01*
X166623809Y-143222619D01*
X166576190Y-143175000D01*
X166480952Y-143127380D01*
X166242857Y-143127380D01*
X166100000Y-143175000D01*
X165671428Y-144127380D02*
X165671428Y-143460714D01*
X165671428Y-143127380D02*
X165719047Y-143175000D01*
X165671428Y-143222619D01*
X165623809Y-143175000D01*
X165671428Y-143127380D01*
X165671428Y-143222619D01*
X165052380Y-144127380D02*
X165147619Y-144079761D01*
X165195238Y-143984523D01*
X165195238Y-143127380D01*
X164766666Y-143460714D02*
X164528571Y-144127380D01*
X164290476Y-143460714D01*
X163528571Y-144079761D02*
X163623809Y-144127380D01*
X163814285Y-144127380D01*
X163909523Y-144079761D01*
X163957142Y-143984523D01*
X163957142Y-143603571D01*
X163909523Y-143508333D01*
X163814285Y-143460714D01*
X163623809Y-143460714D01*
X163528571Y-143508333D01*
X163480952Y-143603571D01*
X163480952Y-143698809D01*
X163957142Y-143794047D01*
X163052380Y-144127380D02*
X163052380Y-143460714D01*
X163052380Y-143127380D02*
X163100000Y-143175000D01*
X163052380Y-143222619D01*
X163004761Y-143175000D01*
X163052380Y-143127380D01*
X163052380Y-143222619D01*
X162576190Y-144127380D02*
X162576190Y-143460714D01*
X162576190Y-143651190D02*
X162528571Y-143555952D01*
X162480952Y-143508333D01*
X162385714Y-143460714D01*
X162290476Y-143460714D01*
X161528571Y-144127380D02*
X161528571Y-143603571D01*
X161576190Y-143508333D01*
X161671428Y-143460714D01*
X161861904Y-143460714D01*
X161957142Y-143508333D01*
X161528571Y-144079761D02*
X161623809Y-144127380D01*
X161861904Y-144127380D01*
X161957142Y-144079761D01*
X162004761Y-143984523D01*
X162004761Y-143889285D01*
X161957142Y-143794047D01*
X161861904Y-143746428D01*
X161623809Y-143746428D01*
X161528571Y-143698809D01*
X174266666Y-145777380D02*
X174266666Y-145253571D01*
X174314285Y-145158333D01*
X174409523Y-145110714D01*
X174600000Y-145110714D01*
X174695238Y-145158333D01*
X174266666Y-145729761D02*
X174361904Y-145777380D01*
X174600000Y-145777380D01*
X174695238Y-145729761D01*
X174742857Y-145634523D01*
X174742857Y-145539285D01*
X174695238Y-145444047D01*
X174600000Y-145396428D01*
X174361904Y-145396428D01*
X174266666Y-145348809D01*
X173790476Y-145777380D02*
X173790476Y-144777380D01*
X173695238Y-145396428D02*
X173409523Y-145777380D01*
X173409523Y-145110714D02*
X173790476Y-145491666D01*
X172552380Y-145777380D02*
X172552380Y-145253571D01*
X172600000Y-145158333D01*
X172695238Y-145110714D01*
X172885714Y-145110714D01*
X172980952Y-145158333D01*
X172552380Y-145729761D02*
X172647619Y-145777380D01*
X172885714Y-145777380D01*
X172980952Y-145729761D01*
X173028571Y-145634523D01*
X173028571Y-145539285D01*
X172980952Y-145444047D01*
X172885714Y-145396428D01*
X172647619Y-145396428D01*
X172552380Y-145348809D01*
X171314285Y-145777380D02*
X171314285Y-144777380D01*
X170980952Y-145491666D01*
X170647619Y-144777380D01*
X170647619Y-145777380D01*
X169742857Y-145110714D02*
X169742857Y-145777380D01*
X170171428Y-145110714D02*
X170171428Y-145634523D01*
X170123809Y-145729761D01*
X170028571Y-145777380D01*
X169885714Y-145777380D01*
X169790476Y-145729761D01*
X169742857Y-145682142D01*
X169314285Y-145729761D02*
X169219047Y-145777380D01*
X169028571Y-145777380D01*
X168933333Y-145729761D01*
X168885714Y-145634523D01*
X168885714Y-145586904D01*
X168933333Y-145491666D01*
X169028571Y-145444047D01*
X169171428Y-145444047D01*
X169266666Y-145396428D01*
X169314285Y-145301190D01*
X169314285Y-145253571D01*
X169266666Y-145158333D01*
X169171428Y-145110714D01*
X169028571Y-145110714D01*
X168933333Y-145158333D01*
X168457142Y-145777380D02*
X168457142Y-145110714D01*
X168457142Y-144777380D02*
X168504761Y-144825000D01*
X168457142Y-144872619D01*
X168409523Y-144825000D01*
X168457142Y-144777380D01*
X168457142Y-144872619D01*
X167552380Y-145729761D02*
X167647619Y-145777380D01*
X167838095Y-145777380D01*
X167933333Y-145729761D01*
X167980952Y-145682142D01*
X168028571Y-145586904D01*
X168028571Y-145301190D01*
X167980952Y-145205952D01*
X167933333Y-145158333D01*
X167838095Y-145110714D01*
X167647619Y-145110714D01*
X167552380Y-145158333D01*
X166980952Y-145777380D02*
X167076190Y-145729761D01*
X167123809Y-145682142D01*
X167171428Y-145586904D01*
X167171428Y-145301190D01*
X167123809Y-145205952D01*
X167076190Y-145158333D01*
X166980952Y-145110714D01*
X166838095Y-145110714D01*
X166742857Y-145158333D01*
X166695238Y-145205952D01*
X166647619Y-145301190D01*
X166647619Y-145586904D01*
X166695238Y-145682142D01*
X166742857Y-145729761D01*
X166838095Y-145777380D01*
X166980952Y-145777380D01*
X165457142Y-145777380D02*
X165457142Y-144777380D01*
X164885714Y-145777380D01*
X164885714Y-144777380D01*
X164028571Y-145729761D02*
X164123809Y-145777380D01*
X164314285Y-145777380D01*
X164409523Y-145729761D01*
X164457142Y-145634523D01*
X164457142Y-145253571D01*
X164409523Y-145158333D01*
X164314285Y-145110714D01*
X164123809Y-145110714D01*
X164028571Y-145158333D01*
X163980952Y-145253571D01*
X163980952Y-145348809D01*
X164457142Y-145444047D01*
X163552380Y-145777380D02*
X163552380Y-145110714D01*
X163552380Y-145301190D02*
X163504761Y-145205952D01*
X163457142Y-145158333D01*
X163361904Y-145110714D01*
X163266666Y-145110714D01*
X162504761Y-145777380D02*
X162504761Y-144777380D01*
X162504761Y-145729761D02*
X162600000Y-145777380D01*
X162790476Y-145777380D01*
X162885714Y-145729761D01*
X162933333Y-145682142D01*
X162980952Y-145586904D01*
X162980952Y-145301190D01*
X162933333Y-145205952D01*
X162885714Y-145158333D01*
X162790476Y-145110714D01*
X162600000Y-145110714D01*
X162504761Y-145158333D01*
X170195238Y-147427380D02*
X170195238Y-146760714D01*
X170195238Y-146951190D02*
X170147619Y-146855952D01*
X170100000Y-146808333D01*
X170004761Y-146760714D01*
X169909523Y-146760714D01*
X169195238Y-147379761D02*
X169290476Y-147427380D01*
X169480952Y-147427380D01*
X169576190Y-147379761D01*
X169623809Y-147284523D01*
X169623809Y-146903571D01*
X169576190Y-146808333D01*
X169480952Y-146760714D01*
X169290476Y-146760714D01*
X169195238Y-146808333D01*
X169147619Y-146903571D01*
X169147619Y-146998809D01*
X169623809Y-147094047D01*
X168719047Y-147332142D02*
X168671428Y-147379761D01*
X168719047Y-147427380D01*
X168766666Y-147379761D01*
X168719047Y-147332142D01*
X168719047Y-147427380D01*
X166957142Y-147427380D02*
X167528571Y-147427380D01*
X167242857Y-147427380D02*
X167242857Y-146427380D01*
X167338095Y-146570238D01*
X167433333Y-146665476D01*
X167528571Y-146713095D01*
X239916665Y-133154761D02*
X240011903Y-133202380D01*
X240202380Y-133202380D01*
X240297618Y-133154761D01*
X240345237Y-133107142D01*
X240392856Y-133011904D01*
X240392856Y-132726190D01*
X240345237Y-132630952D01*
X240297618Y-132583333D01*
X240202380Y-132535714D01*
X240011903Y-132535714D01*
X239916665Y-132583333D01*
X239345237Y-133202380D02*
X239440475Y-133154761D01*
X239488094Y-133059523D01*
X239488094Y-132202380D01*
X238821427Y-133202380D02*
X238916665Y-133154761D01*
X238964284Y-133107142D01*
X239011903Y-133011904D01*
X239011903Y-132726190D01*
X238964284Y-132630952D01*
X238916665Y-132583333D01*
X238821427Y-132535714D01*
X238678570Y-132535714D01*
X238583332Y-132583333D01*
X238535713Y-132630952D01*
X238488094Y-132726190D01*
X238488094Y-133011904D01*
X238535713Y-133107142D01*
X238583332Y-133154761D01*
X238678570Y-133202380D01*
X238821427Y-133202380D01*
X237630951Y-133154761D02*
X237726189Y-133202380D01*
X237916665Y-133202380D01*
X238011903Y-133154761D01*
X238059522Y-133107142D01*
X238107142Y-133011904D01*
X238107142Y-132726190D01*
X238059522Y-132630952D01*
X238011903Y-132583333D01*
X237916665Y-132535714D01*
X237726189Y-132535714D01*
X237630951Y-132583333D01*
X237202380Y-133202380D02*
X237202380Y-132202380D01*
X237107142Y-132821428D02*
X236821427Y-133202380D01*
X236821427Y-132535714D02*
X237202380Y-132916666D01*
X239916666Y-130702380D02*
X239916666Y-129702380D01*
X239916666Y-130654761D02*
X240011904Y-130702380D01*
X240202380Y-130702380D01*
X240297618Y-130654761D01*
X240345237Y-130607142D01*
X240392856Y-130511904D01*
X240392856Y-130226190D01*
X240345237Y-130130952D01*
X240297618Y-130083333D01*
X240202380Y-130035714D01*
X240011904Y-130035714D01*
X239916666Y-130083333D01*
X239011904Y-130702380D02*
X239011904Y-130178571D01*
X239059523Y-130083333D01*
X239154761Y-130035714D01*
X239345237Y-130035714D01*
X239440475Y-130083333D01*
X239011904Y-130654761D02*
X239107142Y-130702380D01*
X239345237Y-130702380D01*
X239440475Y-130654761D01*
X239488094Y-130559523D01*
X239488094Y-130464285D01*
X239440475Y-130369047D01*
X239345237Y-130321428D01*
X239107142Y-130321428D01*
X239011904Y-130273809D01*
X238678570Y-130035714D02*
X238297618Y-130035714D01*
X238535713Y-129702380D02*
X238535713Y-130559523D01*
X238488094Y-130654761D01*
X238392856Y-130702380D01*
X238297618Y-130702380D01*
X237535713Y-130702380D02*
X237535713Y-130178571D01*
X237583332Y-130083333D01*
X237678570Y-130035714D01*
X237869047Y-130035714D01*
X237964285Y-130083333D01*
X237535713Y-130654761D02*
X237630951Y-130702380D01*
X237869047Y-130702380D01*
X237964285Y-130654761D01*
X238011904Y-130559523D01*
X238011904Y-130464285D01*
X237964285Y-130369047D01*
X237869047Y-130321428D01*
X237630951Y-130321428D01*
X237535713Y-130273809D01*
X236154761Y-130702380D02*
X236249999Y-130654761D01*
X236297618Y-130607142D01*
X236345237Y-130511904D01*
X236345237Y-130226190D01*
X236297618Y-130130952D01*
X236249999Y-130083333D01*
X236154761Y-130035714D01*
X236011904Y-130035714D01*
X235916666Y-130083333D01*
X235869047Y-130130952D01*
X235821427Y-130226190D01*
X235821427Y-130511904D01*
X235869047Y-130607142D01*
X235916666Y-130654761D01*
X236011904Y-130702380D01*
X236154761Y-130702380D01*
X234964285Y-130035714D02*
X234964285Y-130702380D01*
X235392856Y-130035714D02*
X235392856Y-130559523D01*
X235345237Y-130654761D01*
X235249999Y-130702380D01*
X235107142Y-130702380D01*
X235011904Y-130654761D01*
X234964285Y-130607142D01*
X234630951Y-130035714D02*
X234249999Y-130035714D01*
X234488094Y-129702380D02*
X234488094Y-130559523D01*
X234440475Y-130654761D01*
X234345237Y-130702380D01*
X234249999Y-130702380D01*
X240392856Y-147404761D02*
X240297618Y-147452380D01*
X240107141Y-147452380D01*
X240011903Y-147404761D01*
X239964284Y-147309523D01*
X239964284Y-147261904D01*
X240011903Y-147166666D01*
X240107141Y-147119047D01*
X240249999Y-147119047D01*
X240345237Y-147071428D01*
X240392856Y-146976190D01*
X240392856Y-146928571D01*
X240345237Y-146833333D01*
X240249999Y-146785714D01*
X240107141Y-146785714D01*
X240011903Y-146833333D01*
X239583332Y-146547619D02*
X239535713Y-146500000D01*
X239440475Y-146452380D01*
X239202380Y-146452380D01*
X239107141Y-146500000D01*
X239059522Y-146547619D01*
X239011903Y-146642857D01*
X239011903Y-146738095D01*
X239059522Y-146880952D01*
X239630951Y-147452380D01*
X239011903Y-147452380D01*
X239916666Y-160285714D02*
X239916666Y-161095238D01*
X239964285Y-161190476D01*
X240011904Y-161238095D01*
X240107142Y-161285714D01*
X240249999Y-161285714D01*
X240345237Y-161238095D01*
X239916666Y-160904761D02*
X240011904Y-160952380D01*
X240202380Y-160952380D01*
X240297618Y-160904761D01*
X240345237Y-160857142D01*
X240392856Y-160761904D01*
X240392856Y-160476190D01*
X240345237Y-160380952D01*
X240297618Y-160333333D01*
X240202380Y-160285714D01*
X240011904Y-160285714D01*
X239916666Y-160333333D01*
X239440475Y-160285714D02*
X239440475Y-160952380D01*
X239440475Y-160380952D02*
X239392856Y-160333333D01*
X239297618Y-160285714D01*
X239154761Y-160285714D01*
X239059523Y-160333333D01*
X239011904Y-160428571D01*
X239011904Y-160952380D01*
X238107142Y-160952380D02*
X238107142Y-159952380D01*
X238107142Y-160904761D02*
X238202380Y-160952380D01*
X238392856Y-160952380D01*
X238488094Y-160904761D01*
X238535713Y-160857142D01*
X238583332Y-160761904D01*
X238583332Y-160476190D01*
X238535713Y-160380952D01*
X238488094Y-160333333D01*
X238392856Y-160285714D01*
X238202380Y-160285714D01*
X238107142Y-160333333D01*
X240392856Y-155404761D02*
X240297618Y-155452380D01*
X240107142Y-155452380D01*
X240011904Y-155404761D01*
X239964285Y-155309523D01*
X239964285Y-155261904D01*
X240011904Y-155166666D01*
X240107142Y-155119047D01*
X240249999Y-155119047D01*
X240345237Y-155071428D01*
X240392856Y-154976190D01*
X240392856Y-154928571D01*
X240345237Y-154833333D01*
X240249999Y-154785714D01*
X240107142Y-154785714D01*
X240011904Y-154833333D01*
X239535714Y-155452380D02*
X239535714Y-154785714D01*
X239535714Y-154452380D02*
X239583333Y-154500000D01*
X239535714Y-154547619D01*
X239488095Y-154500000D01*
X239535714Y-154452380D01*
X239535714Y-154547619D01*
X238630952Y-154785714D02*
X238630952Y-155595238D01*
X238678571Y-155690476D01*
X238726190Y-155738095D01*
X238821428Y-155785714D01*
X238964285Y-155785714D01*
X239059523Y-155738095D01*
X238630952Y-155404761D02*
X238726190Y-155452380D01*
X238916666Y-155452380D01*
X239011904Y-155404761D01*
X239059523Y-155357142D01*
X239107142Y-155261904D01*
X239107142Y-154976190D01*
X239059523Y-154880952D01*
X239011904Y-154833333D01*
X238916666Y-154785714D01*
X238726190Y-154785714D01*
X238630952Y-154833333D01*
X240392856Y-144904761D02*
X240297618Y-144952380D01*
X240107141Y-144952380D01*
X240011903Y-144904761D01*
X239964284Y-144809523D01*
X239964284Y-144761904D01*
X240011903Y-144666666D01*
X240107141Y-144619047D01*
X240249999Y-144619047D01*
X240345237Y-144571428D01*
X240392856Y-144476190D01*
X240392856Y-144428571D01*
X240345237Y-144333333D01*
X240249999Y-144285714D01*
X240107141Y-144285714D01*
X240011903Y-144333333D01*
X239630951Y-143952380D02*
X239011903Y-143952380D01*
X239345237Y-144333333D01*
X239202380Y-144333333D01*
X239107141Y-144380952D01*
X239059522Y-144428571D01*
X239011903Y-144523809D01*
X239011903Y-144761904D01*
X239059522Y-144857142D01*
X239107141Y-144904761D01*
X239202380Y-144952380D01*
X239488094Y-144952380D01*
X239583332Y-144904761D01*
X239630951Y-144857142D01*
X240440476Y-157285714D02*
X240202380Y-157952380D01*
X239964285Y-157285714D01*
X239154761Y-157904761D02*
X239249999Y-157952380D01*
X239440476Y-157952380D01*
X239535714Y-157904761D01*
X239583333Y-157857142D01*
X239630952Y-157761904D01*
X239630952Y-157476190D01*
X239583333Y-157380952D01*
X239535714Y-157333333D01*
X239440476Y-157285714D01*
X239249999Y-157285714D01*
X239154761Y-157333333D01*
X238297618Y-157904761D02*
X238392857Y-157952380D01*
X238583333Y-157952380D01*
X238678571Y-157904761D01*
X238726190Y-157857142D01*
X238773809Y-157761904D01*
X238773809Y-157476190D01*
X238726190Y-157380952D01*
X238678571Y-157333333D01*
X238583333Y-157285714D01*
X238392857Y-157285714D01*
X238297618Y-157333333D01*
X239916666Y-138202380D02*
X239916666Y-137202380D01*
X239916666Y-138154761D02*
X240011904Y-138202380D01*
X240202380Y-138202380D01*
X240297618Y-138154761D01*
X240345237Y-138107142D01*
X240392856Y-138011904D01*
X240392856Y-137726190D01*
X240345237Y-137630952D01*
X240297618Y-137583333D01*
X240202380Y-137535714D01*
X240011904Y-137535714D01*
X239916666Y-137583333D01*
X239011904Y-138202380D02*
X239011904Y-137678571D01*
X239059523Y-137583333D01*
X239154761Y-137535714D01*
X239345237Y-137535714D01*
X239440475Y-137583333D01*
X239011904Y-138154761D02*
X239107142Y-138202380D01*
X239345237Y-138202380D01*
X239440475Y-138154761D01*
X239488094Y-138059523D01*
X239488094Y-137964285D01*
X239440475Y-137869047D01*
X239345237Y-137821428D01*
X239107142Y-137821428D01*
X239011904Y-137773809D01*
X238678570Y-137535714D02*
X238297618Y-137535714D01*
X238535713Y-137202380D02*
X238535713Y-138059523D01*
X238488094Y-138154761D01*
X238392856Y-138202380D01*
X238297618Y-138202380D01*
X237535713Y-138202380D02*
X237535713Y-137678571D01*
X237583332Y-137583333D01*
X237678570Y-137535714D01*
X237869047Y-137535714D01*
X237964285Y-137583333D01*
X237535713Y-138154761D02*
X237630951Y-138202380D01*
X237869047Y-138202380D01*
X237964285Y-138154761D01*
X238011904Y-138059523D01*
X238011904Y-137964285D01*
X237964285Y-137869047D01*
X237869047Y-137821428D01*
X237630951Y-137821428D01*
X237535713Y-137773809D01*
X236297618Y-138202380D02*
X236297618Y-137535714D01*
X236297618Y-137202380D02*
X236345237Y-137250000D01*
X236297618Y-137297619D01*
X236249999Y-137250000D01*
X236297618Y-137202380D01*
X236297618Y-137297619D01*
X235821427Y-137535714D02*
X235821427Y-138202380D01*
X235821427Y-137630952D02*
X235773808Y-137583333D01*
X235678570Y-137535714D01*
X235535713Y-137535714D01*
X235440475Y-137583333D01*
X235392856Y-137678571D01*
X235392856Y-138202380D01*
X240202380Y-135702380D02*
X240297618Y-135654761D01*
X240345237Y-135559523D01*
X240345237Y-134702380D01*
X239392856Y-135702380D02*
X239392856Y-135178571D01*
X239440475Y-135083333D01*
X239535713Y-135035714D01*
X239726189Y-135035714D01*
X239821427Y-135083333D01*
X239392856Y-135654761D02*
X239488094Y-135702380D01*
X239726189Y-135702380D01*
X239821427Y-135654761D01*
X239869046Y-135559523D01*
X239869046Y-135464285D01*
X239821427Y-135369047D01*
X239726189Y-135321428D01*
X239488094Y-135321428D01*
X239392856Y-135273809D01*
X239059522Y-135035714D02*
X238678570Y-135035714D01*
X238916665Y-134702380D02*
X238916665Y-135559523D01*
X238869046Y-135654761D01*
X238773808Y-135702380D01*
X238678570Y-135702380D01*
X237916665Y-135654761D02*
X238011903Y-135702380D01*
X238202380Y-135702380D01*
X238297618Y-135654761D01*
X238345237Y-135607142D01*
X238392856Y-135511904D01*
X238392856Y-135226190D01*
X238345237Y-135130952D01*
X238297618Y-135083333D01*
X238202380Y-135035714D01*
X238011903Y-135035714D01*
X237916665Y-135083333D01*
X237488094Y-135702380D02*
X237488094Y-134702380D01*
X237059522Y-135702380D02*
X237059522Y-135178571D01*
X237107141Y-135083333D01*
X237202380Y-135035714D01*
X237345237Y-135035714D01*
X237440475Y-135083333D01*
X237488094Y-135130952D01*
X240392856Y-152904761D02*
X240297618Y-152952380D01*
X240107141Y-152952380D01*
X240011903Y-152904761D01*
X239964284Y-152809523D01*
X239964284Y-152761904D01*
X240011903Y-152666666D01*
X240107141Y-152619047D01*
X240249999Y-152619047D01*
X240345237Y-152571428D01*
X240392856Y-152476190D01*
X240392856Y-152428571D01*
X240345237Y-152333333D01*
X240249999Y-152285714D01*
X240107141Y-152285714D01*
X240011903Y-152333333D01*
X239345237Y-151952380D02*
X239249999Y-151952380D01*
X239154760Y-152000000D01*
X239107141Y-152047619D01*
X239059522Y-152142857D01*
X239011903Y-152333333D01*
X239011903Y-152571428D01*
X239059522Y-152761904D01*
X239107141Y-152857142D01*
X239154760Y-152904761D01*
X239249999Y-152952380D01*
X239345237Y-152952380D01*
X239440475Y-152904761D01*
X239488094Y-152857142D01*
X239535713Y-152761904D01*
X239583332Y-152571428D01*
X239583332Y-152333333D01*
X239535713Y-152142857D01*
X239488094Y-152047619D01*
X239440475Y-152000000D01*
X239345237Y-151952380D01*
X240392856Y-150404761D02*
X240297618Y-150452380D01*
X240107141Y-150452380D01*
X240011903Y-150404761D01*
X239964284Y-150309523D01*
X239964284Y-150261904D01*
X240011903Y-150166666D01*
X240107141Y-150119047D01*
X240249999Y-150119047D01*
X240345237Y-150071428D01*
X240392856Y-149976190D01*
X240392856Y-149928571D01*
X240345237Y-149833333D01*
X240249999Y-149785714D01*
X240107141Y-149785714D01*
X240011903Y-149833333D01*
X239011903Y-150452380D02*
X239583332Y-150452380D01*
X239297618Y-150452380D02*
X239297618Y-149452380D01*
X239392856Y-149595238D01*
X239488094Y-149690476D01*
X239583332Y-149738095D01*
X51690476Y-160785714D02*
X51690476Y-161595238D01*
X51738095Y-161690476D01*
X51785714Y-161738095D01*
X51880952Y-161785714D01*
X52023809Y-161785714D01*
X52119047Y-161738095D01*
X51690476Y-161404761D02*
X51785714Y-161452380D01*
X51976190Y-161452380D01*
X52071428Y-161404761D01*
X52119047Y-161357142D01*
X52166666Y-161261904D01*
X52166666Y-160976190D01*
X52119047Y-160880952D01*
X52071428Y-160833333D01*
X51976190Y-160785714D01*
X51785714Y-160785714D01*
X51690476Y-160833333D01*
X51214285Y-160785714D02*
X51214285Y-161452380D01*
X51214285Y-160880952D02*
X51166666Y-160833333D01*
X51071428Y-160785714D01*
X50928571Y-160785714D01*
X50833333Y-160833333D01*
X50785714Y-160928571D01*
X50785714Y-161452380D01*
X49880952Y-161452380D02*
X49880952Y-160452380D01*
X49880952Y-161404761D02*
X49976190Y-161452380D01*
X50166666Y-161452380D01*
X50261904Y-161404761D01*
X50309523Y-161357142D01*
X50357142Y-161261904D01*
X50357142Y-160976190D01*
X50309523Y-160880952D01*
X50261904Y-160833333D01*
X50166666Y-160785714D01*
X49976190Y-160785714D01*
X49880952Y-160833333D01*
X51976190Y-157785714D02*
X51738094Y-158452380D01*
X51499999Y-157785714D01*
X50690475Y-158404761D02*
X50785713Y-158452380D01*
X50976190Y-158452380D01*
X51071428Y-158404761D01*
X51119047Y-158357142D01*
X51166666Y-158261904D01*
X51166666Y-157976190D01*
X51119047Y-157880952D01*
X51071428Y-157833333D01*
X50976190Y-157785714D01*
X50785713Y-157785714D01*
X50690475Y-157833333D01*
X49833332Y-158404761D02*
X49928571Y-158452380D01*
X50119047Y-158452380D01*
X50214285Y-158404761D01*
X50261904Y-158357142D01*
X50309523Y-158261904D01*
X50309523Y-157976190D01*
X50261904Y-157880952D01*
X50214285Y-157833333D01*
X50119047Y-157785714D01*
X49928571Y-157785714D01*
X49833332Y-157833333D01*
X51642856Y-155904761D02*
X51547618Y-155952380D01*
X51357142Y-155952380D01*
X51261904Y-155904761D01*
X51214285Y-155809523D01*
X51214285Y-155761904D01*
X51261904Y-155666666D01*
X51357142Y-155619047D01*
X51499999Y-155619047D01*
X51595237Y-155571428D01*
X51642856Y-155476190D01*
X51642856Y-155428571D01*
X51595237Y-155333333D01*
X51499999Y-155285714D01*
X51357142Y-155285714D01*
X51261904Y-155333333D01*
X50785714Y-155952380D02*
X50785714Y-155285714D01*
X50785714Y-154952380D02*
X50833333Y-155000000D01*
X50785714Y-155047619D01*
X50738095Y-155000000D01*
X50785714Y-154952380D01*
X50785714Y-155047619D01*
X49880952Y-155285714D02*
X49880952Y-156095238D01*
X49928571Y-156190476D01*
X49976190Y-156238095D01*
X50071428Y-156285714D01*
X50214285Y-156285714D01*
X50309523Y-156238095D01*
X49880952Y-155904761D02*
X49976190Y-155952380D01*
X50166666Y-155952380D01*
X50261904Y-155904761D01*
X50309523Y-155857142D01*
X50357142Y-155761904D01*
X50357142Y-155476190D01*
X50309523Y-155380952D01*
X50261904Y-155333333D01*
X50166666Y-155285714D01*
X49976190Y-155285714D01*
X49880952Y-155333333D01*
X51190476Y-153404761D02*
X51095238Y-153452380D01*
X50904761Y-153452380D01*
X50809523Y-153404761D01*
X50761904Y-153309523D01*
X50761904Y-153261904D01*
X50809523Y-153166666D01*
X50904761Y-153119047D01*
X51047619Y-153119047D01*
X51142857Y-153071428D01*
X51190476Y-152976190D01*
X51190476Y-152928571D01*
X51142857Y-152833333D01*
X51047619Y-152785714D01*
X50904761Y-152785714D01*
X50809523Y-152833333D01*
X50142857Y-152452380D02*
X50047619Y-152452380D01*
X49952380Y-152500000D01*
X49904761Y-152547619D01*
X49857142Y-152642857D01*
X49809523Y-152833333D01*
X49809523Y-153071428D01*
X49857142Y-153261904D01*
X49904761Y-153357142D01*
X49952380Y-153404761D01*
X50047619Y-153452380D01*
X50142857Y-153452380D01*
X50238095Y-153404761D01*
X50285714Y-153357142D01*
X50333333Y-153261904D01*
X50380952Y-153071428D01*
X50380952Y-152833333D01*
X50333333Y-152642857D01*
X50285714Y-152547619D01*
X50238095Y-152500000D01*
X50142857Y-152452380D01*
X51214285Y-150904761D02*
X51119047Y-150952380D01*
X50928570Y-150952380D01*
X50833332Y-150904761D01*
X50785713Y-150809523D01*
X50785713Y-150761904D01*
X50833332Y-150666666D01*
X50928570Y-150619047D01*
X51071428Y-150619047D01*
X51166666Y-150571428D01*
X51214285Y-150476190D01*
X51214285Y-150428571D01*
X51166666Y-150333333D01*
X51071428Y-150285714D01*
X50928570Y-150285714D01*
X50833332Y-150333333D01*
X49833332Y-150952380D02*
X50404761Y-150952380D01*
X50119047Y-150952380D02*
X50119047Y-149952380D01*
X50214285Y-150095238D01*
X50309523Y-150190476D01*
X50404761Y-150238095D01*
X51214285Y-147904761D02*
X51119047Y-147952380D01*
X50928570Y-147952380D01*
X50833332Y-147904761D01*
X50785713Y-147809523D01*
X50785713Y-147761904D01*
X50833332Y-147666666D01*
X50928570Y-147619047D01*
X51071428Y-147619047D01*
X51166666Y-147571428D01*
X51214285Y-147476190D01*
X51214285Y-147428571D01*
X51166666Y-147333333D01*
X51071428Y-147285714D01*
X50928570Y-147285714D01*
X50833332Y-147333333D01*
X50404761Y-147047619D02*
X50357142Y-147000000D01*
X50261904Y-146952380D01*
X50023809Y-146952380D01*
X49928570Y-147000000D01*
X49880951Y-147047619D01*
X49833332Y-147142857D01*
X49833332Y-147238095D01*
X49880951Y-147380952D01*
X50452380Y-147952380D01*
X49833332Y-147952380D01*
X51214285Y-145404761D02*
X51119047Y-145452380D01*
X50928570Y-145452380D01*
X50833332Y-145404761D01*
X50785713Y-145309523D01*
X50785713Y-145261904D01*
X50833332Y-145166666D01*
X50928570Y-145119047D01*
X51071428Y-145119047D01*
X51166666Y-145071428D01*
X51214285Y-144976190D01*
X51214285Y-144928571D01*
X51166666Y-144833333D01*
X51071428Y-144785714D01*
X50928570Y-144785714D01*
X50833332Y-144833333D01*
X50452380Y-144452380D02*
X49833332Y-144452380D01*
X50166666Y-144833333D01*
X50023809Y-144833333D01*
X49928570Y-144880952D01*
X49880951Y-144928571D01*
X49833332Y-145023809D01*
X49833332Y-145261904D01*
X49880951Y-145357142D01*
X49928570Y-145404761D01*
X50023809Y-145452380D01*
X50309523Y-145452380D01*
X50404761Y-145404761D01*
X50452380Y-145357142D01*
X54297619Y-138702380D02*
X54297619Y-137702380D01*
X54297619Y-138654761D02*
X54392857Y-138702380D01*
X54583333Y-138702380D01*
X54678571Y-138654761D01*
X54726190Y-138607142D01*
X54773809Y-138511904D01*
X54773809Y-138226190D01*
X54726190Y-138130952D01*
X54678571Y-138083333D01*
X54583333Y-138035714D01*
X54392857Y-138035714D01*
X54297619Y-138083333D01*
X53392857Y-138702380D02*
X53392857Y-138178571D01*
X53440476Y-138083333D01*
X53535714Y-138035714D01*
X53726190Y-138035714D01*
X53821428Y-138083333D01*
X53392857Y-138654761D02*
X53488095Y-138702380D01*
X53726190Y-138702380D01*
X53821428Y-138654761D01*
X53869047Y-138559523D01*
X53869047Y-138464285D01*
X53821428Y-138369047D01*
X53726190Y-138321428D01*
X53488095Y-138321428D01*
X53392857Y-138273809D01*
X53059523Y-138035714D02*
X52678571Y-138035714D01*
X52916666Y-137702380D02*
X52916666Y-138559523D01*
X52869047Y-138654761D01*
X52773809Y-138702380D01*
X52678571Y-138702380D01*
X51916666Y-138702380D02*
X51916666Y-138178571D01*
X51964285Y-138083333D01*
X52059523Y-138035714D01*
X52250000Y-138035714D01*
X52345238Y-138083333D01*
X51916666Y-138654761D02*
X52011904Y-138702380D01*
X52250000Y-138702380D01*
X52345238Y-138654761D01*
X52392857Y-138559523D01*
X52392857Y-138464285D01*
X52345238Y-138369047D01*
X52250000Y-138321428D01*
X52011904Y-138321428D01*
X51916666Y-138273809D01*
X50678571Y-138702380D02*
X50678571Y-138035714D01*
X50678571Y-137702380D02*
X50726190Y-137750000D01*
X50678571Y-137797619D01*
X50630952Y-137750000D01*
X50678571Y-137702380D01*
X50678571Y-137797619D01*
X50202380Y-138035714D02*
X50202380Y-138702380D01*
X50202380Y-138130952D02*
X50154761Y-138083333D01*
X50059523Y-138035714D01*
X49916666Y-138035714D01*
X49821428Y-138083333D01*
X49773809Y-138178571D01*
X49773809Y-138702380D01*
X52916667Y-136202380D02*
X53011905Y-136154761D01*
X53059524Y-136059523D01*
X53059524Y-135202380D01*
X52107143Y-136202380D02*
X52107143Y-135678571D01*
X52154762Y-135583333D01*
X52250000Y-135535714D01*
X52440476Y-135535714D01*
X52535714Y-135583333D01*
X52107143Y-136154761D02*
X52202381Y-136202380D01*
X52440476Y-136202380D01*
X52535714Y-136154761D01*
X52583333Y-136059523D01*
X52583333Y-135964285D01*
X52535714Y-135869047D01*
X52440476Y-135821428D01*
X52202381Y-135821428D01*
X52107143Y-135773809D01*
X51773809Y-135535714D02*
X51392857Y-135535714D01*
X51630952Y-135202380D02*
X51630952Y-136059523D01*
X51583333Y-136154761D01*
X51488095Y-136202380D01*
X51392857Y-136202380D01*
X50630952Y-136154761D02*
X50726190Y-136202380D01*
X50916667Y-136202380D01*
X51011905Y-136154761D01*
X51059524Y-136107142D01*
X51107143Y-136011904D01*
X51107143Y-135726190D01*
X51059524Y-135630952D01*
X51011905Y-135583333D01*
X50916667Y-135535714D01*
X50726190Y-135535714D01*
X50630952Y-135583333D01*
X50202381Y-136202380D02*
X50202381Y-135202380D01*
X49773809Y-136202380D02*
X49773809Y-135678571D01*
X49821428Y-135583333D01*
X49916667Y-135535714D01*
X50059524Y-135535714D01*
X50154762Y-135583333D01*
X50202381Y-135630952D01*
X52821428Y-133654761D02*
X52916666Y-133702380D01*
X53107143Y-133702380D01*
X53202381Y-133654761D01*
X53250000Y-133607142D01*
X53297619Y-133511904D01*
X53297619Y-133226190D01*
X53250000Y-133130952D01*
X53202381Y-133083333D01*
X53107143Y-133035714D01*
X52916666Y-133035714D01*
X52821428Y-133083333D01*
X52250000Y-133702380D02*
X52345238Y-133654761D01*
X52392857Y-133559523D01*
X52392857Y-132702380D01*
X51726190Y-133702380D02*
X51821428Y-133654761D01*
X51869047Y-133607142D01*
X51916666Y-133511904D01*
X51916666Y-133226190D01*
X51869047Y-133130952D01*
X51821428Y-133083333D01*
X51726190Y-133035714D01*
X51583333Y-133035714D01*
X51488095Y-133083333D01*
X51440476Y-133130952D01*
X51392857Y-133226190D01*
X51392857Y-133511904D01*
X51440476Y-133607142D01*
X51488095Y-133654761D01*
X51583333Y-133702380D01*
X51726190Y-133702380D01*
X50535714Y-133654761D02*
X50630952Y-133702380D01*
X50821428Y-133702380D01*
X50916666Y-133654761D01*
X50964285Y-133607142D01*
X51011905Y-133511904D01*
X51011905Y-133226190D01*
X50964285Y-133130952D01*
X50916666Y-133083333D01*
X50821428Y-133035714D01*
X50630952Y-133035714D01*
X50535714Y-133083333D01*
X50107143Y-133702380D02*
X50107143Y-132702380D01*
X50011905Y-133321428D02*
X49726190Y-133702380D01*
X49726190Y-133035714D02*
X50107143Y-133416666D01*
X55297619Y-131202380D02*
X55297619Y-130202380D01*
X55297619Y-131154761D02*
X55392857Y-131202380D01*
X55583333Y-131202380D01*
X55678571Y-131154761D01*
X55726190Y-131107142D01*
X55773809Y-131011904D01*
X55773809Y-130726190D01*
X55726190Y-130630952D01*
X55678571Y-130583333D01*
X55583333Y-130535714D01*
X55392857Y-130535714D01*
X55297619Y-130583333D01*
X54392857Y-131202380D02*
X54392857Y-130678571D01*
X54440476Y-130583333D01*
X54535714Y-130535714D01*
X54726190Y-130535714D01*
X54821428Y-130583333D01*
X54392857Y-131154761D02*
X54488095Y-131202380D01*
X54726190Y-131202380D01*
X54821428Y-131154761D01*
X54869047Y-131059523D01*
X54869047Y-130964285D01*
X54821428Y-130869047D01*
X54726190Y-130821428D01*
X54488095Y-130821428D01*
X54392857Y-130773809D01*
X54059523Y-130535714D02*
X53678571Y-130535714D01*
X53916666Y-130202380D02*
X53916666Y-131059523D01*
X53869047Y-131154761D01*
X53773809Y-131202380D01*
X53678571Y-131202380D01*
X52916666Y-131202380D02*
X52916666Y-130678571D01*
X52964285Y-130583333D01*
X53059523Y-130535714D01*
X53250000Y-130535714D01*
X53345238Y-130583333D01*
X52916666Y-131154761D02*
X53011904Y-131202380D01*
X53250000Y-131202380D01*
X53345238Y-131154761D01*
X53392857Y-131059523D01*
X53392857Y-130964285D01*
X53345238Y-130869047D01*
X53250000Y-130821428D01*
X53011904Y-130821428D01*
X52916666Y-130773809D01*
X51535714Y-131202380D02*
X51630952Y-131154761D01*
X51678571Y-131107142D01*
X51726190Y-131011904D01*
X51726190Y-130726190D01*
X51678571Y-130630952D01*
X51630952Y-130583333D01*
X51535714Y-130535714D01*
X51392857Y-130535714D01*
X51297619Y-130583333D01*
X51250000Y-130630952D01*
X51202380Y-130726190D01*
X51202380Y-131011904D01*
X51250000Y-131107142D01*
X51297619Y-131154761D01*
X51392857Y-131202380D01*
X51535714Y-131202380D01*
X50345238Y-130535714D02*
X50345238Y-131202380D01*
X50773809Y-130535714D02*
X50773809Y-131059523D01*
X50726190Y-131154761D01*
X50630952Y-131202380D01*
X50488095Y-131202380D01*
X50392857Y-131154761D01*
X50345238Y-131107142D01*
X50011904Y-130535714D02*
X49630952Y-130535714D01*
X49869047Y-130202380D02*
X49869047Y-131059523D01*
X49821428Y-131154761D01*
X49726190Y-131202380D01*
X49630952Y-131202380D01*
D11*
%TO.C,cd4067d1*%
X134890000Y-139250000D02*
X134890000Y-141200000D01*
X150250000Y-141550000D02*
X134850000Y-141550000D01*
X150250000Y-148350000D02*
X150250000Y-141550000D01*
X134850000Y-148350000D02*
X150250000Y-148350000D01*
X134850000Y-141550000D02*
X134850000Y-148350000D01*
D12*
%TO.C,4067_conn_1*%
X241170000Y-161870000D02*
X242500000Y-161870000D01*
X241170000Y-160540000D02*
X241170000Y-161870000D01*
X241170000Y-159270000D02*
X243830000Y-159270000D01*
X243830000Y-159270000D02*
X243830000Y-143970000D01*
X241170000Y-159270000D02*
X241170000Y-143970000D01*
X241170000Y-143970000D02*
X243830000Y-143970000D01*
%TO.C,4067_conn_2*%
X48830000Y-161860000D02*
X46170000Y-161860000D01*
X48830000Y-146560000D02*
X48830000Y-161860000D01*
X46170000Y-146560000D02*
X46170000Y-161860000D01*
X48830000Y-146560000D02*
X46170000Y-146560000D01*
X48830000Y-145290000D02*
X48830000Y-143960000D01*
X48830000Y-143960000D02*
X47500000Y-143960000D01*
%TO.C,595_conn_1*%
X46170000Y-129590000D02*
X48830000Y-129590000D01*
X46170000Y-137270000D02*
X46170000Y-129590000D01*
X48830000Y-137270000D02*
X48830000Y-129590000D01*
X46170000Y-137270000D02*
X48830000Y-137270000D01*
X46170000Y-138540000D02*
X46170000Y-139870000D01*
X46170000Y-139870000D02*
X47500000Y-139870000D01*
%TO.C,R1*%
X62580000Y-125420000D02*
X62580000Y-124940000D01*
X72720000Y-125420000D02*
X62580000Y-125420000D01*
X72720000Y-124940000D02*
X72720000Y-125420000D01*
X62580000Y-121580000D02*
X62580000Y-122060000D01*
X72720000Y-121580000D02*
X62580000Y-121580000D01*
X72720000Y-122060000D02*
X72720000Y-121580000D01*
%TO.C,R3*%
X95105714Y-122060000D02*
X95105714Y-121580000D01*
X95105714Y-121580000D02*
X84965714Y-121580000D01*
X84965714Y-121580000D02*
X84965714Y-122060000D01*
X95105714Y-124940000D02*
X95105714Y-125420000D01*
X95105714Y-125420000D02*
X84965714Y-125420000D01*
X84965714Y-125420000D02*
X84965714Y-124940000D01*
%TO.C,R5*%
X117491428Y-121580000D02*
X117491428Y-122060000D01*
X107351428Y-121580000D02*
X117491428Y-121580000D01*
X107351428Y-122060000D02*
X107351428Y-121580000D01*
X117491428Y-125420000D02*
X117491428Y-124940000D01*
X107351428Y-125420000D02*
X117491428Y-125420000D01*
X107351428Y-124940000D02*
X107351428Y-125420000D01*
%TO.C,R7*%
X129580000Y-124940000D02*
X129580000Y-125420000D01*
X129580000Y-125420000D02*
X139720000Y-125420000D01*
X139720000Y-125420000D02*
X139720000Y-124940000D01*
X129580000Y-122060000D02*
X129580000Y-121580000D01*
X129580000Y-121580000D02*
X139720000Y-121580000D01*
X139720000Y-121580000D02*
X139720000Y-122060000D01*
%TO.C,R9*%
X152122856Y-125420000D02*
X152122856Y-124940000D01*
X162262856Y-125420000D02*
X152122856Y-125420000D01*
X162262856Y-124940000D02*
X162262856Y-125420000D01*
X152122856Y-121580000D02*
X152122856Y-122060000D01*
X162262856Y-121580000D02*
X152122856Y-121580000D01*
X162262856Y-122060000D02*
X162262856Y-121580000D01*
%TO.C,R11*%
X184648570Y-122060000D02*
X184648570Y-121580000D01*
X184648570Y-121580000D02*
X174508570Y-121580000D01*
X174508570Y-121580000D02*
X174508570Y-122060000D01*
X184648570Y-124940000D02*
X184648570Y-125420000D01*
X184648570Y-125420000D02*
X174508570Y-125420000D01*
X174508570Y-125420000D02*
X174508570Y-124940000D01*
%TO.C,R13*%
X207034284Y-121580000D02*
X207034284Y-122060000D01*
X196894284Y-121580000D02*
X207034284Y-121580000D01*
X196894284Y-122060000D02*
X196894284Y-121580000D01*
X207034284Y-125420000D02*
X207034284Y-124940000D01*
X196894284Y-125420000D02*
X207034284Y-125420000D01*
X196894284Y-124940000D02*
X196894284Y-125420000D01*
%TO.C,R15*%
X219280000Y-124940000D02*
X219280000Y-125420000D01*
X219280000Y-125420000D02*
X229420000Y-125420000D01*
X229420000Y-125420000D02*
X229420000Y-124940000D01*
X219280000Y-122060000D02*
X219280000Y-121580000D01*
X219280000Y-121580000D02*
X229420000Y-121580000D01*
X229420000Y-121580000D02*
X229420000Y-122060000D01*
%TO.C,74hc595*%
X100060000Y-145000000D02*
X100060000Y-148450000D01*
X100060000Y-145000000D02*
X100060000Y-143050000D01*
X89940000Y-145000000D02*
X89940000Y-146950000D01*
X89940000Y-145000000D02*
X89940000Y-143050000D01*
%TO.C,74hc595_2*%
X190940000Y-145000000D02*
X190940000Y-143050000D01*
X190940000Y-145000000D02*
X190940000Y-146950000D01*
X201060000Y-145000000D02*
X201060000Y-143050000D01*
X201060000Y-145000000D02*
X201060000Y-148450000D01*
%TO.C,R2*%
X62530000Y-167790000D02*
X62530000Y-168270000D01*
X62530000Y-168270000D02*
X72670000Y-168270000D01*
X72670000Y-168270000D02*
X72670000Y-167790000D01*
X62530000Y-164910000D02*
X62530000Y-164430000D01*
X62530000Y-164430000D02*
X72670000Y-164430000D01*
X72670000Y-164430000D02*
X72670000Y-164910000D01*
%TO.C,R4*%
X95055714Y-164430000D02*
X95055714Y-164910000D01*
X84915714Y-164430000D02*
X95055714Y-164430000D01*
X84915714Y-164910000D02*
X84915714Y-164430000D01*
X95055714Y-168270000D02*
X95055714Y-167790000D01*
X84915714Y-168270000D02*
X95055714Y-168270000D01*
X84915714Y-167790000D02*
X84915714Y-168270000D01*
%TO.C,R6*%
X117441428Y-164910000D02*
X117441428Y-164430000D01*
X117441428Y-164430000D02*
X107301428Y-164430000D01*
X107301428Y-164430000D02*
X107301428Y-164910000D01*
X117441428Y-167790000D02*
X117441428Y-168270000D01*
X117441428Y-168270000D02*
X107301428Y-168270000D01*
X107301428Y-168270000D02*
X107301428Y-167790000D01*
%TO.C,R8*%
X129130000Y-168270000D02*
X129130000Y-167790000D01*
X139270000Y-168270000D02*
X129130000Y-168270000D01*
X139270000Y-167790000D02*
X139270000Y-168270000D01*
X129130000Y-164430000D02*
X129130000Y-164910000D01*
X139270000Y-164430000D02*
X129130000Y-164430000D01*
X139270000Y-164910000D02*
X139270000Y-164430000D01*
%TO.C,R10*%
X152072856Y-167790000D02*
X152072856Y-168270000D01*
X152072856Y-168270000D02*
X162212856Y-168270000D01*
X162212856Y-168270000D02*
X162212856Y-167790000D01*
X152072856Y-164910000D02*
X152072856Y-164430000D01*
X152072856Y-164430000D02*
X162212856Y-164430000D01*
X162212856Y-164430000D02*
X162212856Y-164910000D01*
%TO.C,R12*%
X184598570Y-164430000D02*
X184598570Y-164910000D01*
X174458570Y-164430000D02*
X184598570Y-164430000D01*
X174458570Y-164910000D02*
X174458570Y-164430000D01*
X184598570Y-168270000D02*
X184598570Y-167790000D01*
X174458570Y-168270000D02*
X184598570Y-168270000D01*
X174458570Y-167790000D02*
X174458570Y-168270000D01*
%TO.C,R14*%
X206984284Y-164910000D02*
X206984284Y-164430000D01*
X206984284Y-164430000D02*
X196844284Y-164430000D01*
X196844284Y-164430000D02*
X196844284Y-164910000D01*
X206984284Y-167790000D02*
X206984284Y-168270000D01*
X206984284Y-168270000D02*
X196844284Y-168270000D01*
X196844284Y-168270000D02*
X196844284Y-167790000D01*
%TO.C,R16*%
X219230000Y-168270000D02*
X219230000Y-167790000D01*
X229370000Y-168270000D02*
X219230000Y-168270000D01*
X229370000Y-167790000D02*
X229370000Y-168270000D01*
X219230000Y-164430000D02*
X219230000Y-164910000D01*
X229370000Y-164430000D02*
X219230000Y-164430000D01*
X229370000Y-164910000D02*
X229370000Y-164430000D01*
%TO.C,595_conn_2*%
X241170000Y-129590000D02*
X243830000Y-129590000D01*
X241170000Y-137270000D02*
X241170000Y-129590000D01*
X243830000Y-137270000D02*
X243830000Y-129590000D01*
X241170000Y-137270000D02*
X243830000Y-137270000D01*
X241170000Y-138540000D02*
X241170000Y-139870000D01*
X241170000Y-139870000D02*
X242500000Y-139870000D01*
%TO.C,C1*%
X187971000Y-138730000D02*
X189229000Y-138730000D01*
X187971000Y-140570000D02*
X189229000Y-140570000D01*
%TO.C,C2*%
X152930000Y-140961000D02*
X152930000Y-142219000D01*
X154770000Y-140961000D02*
X154770000Y-142219000D01*
%TO.C,C3*%
X104360000Y-142729000D02*
X104360000Y-141471000D01*
X102520000Y-142729000D02*
X102520000Y-141471000D01*
%TO.C,cd4067d1*%
D13*
X152434047Y-141029523D02*
X152494523Y-140908571D01*
X152494523Y-140666666D01*
X152434047Y-140545714D01*
X152373571Y-140485238D01*
X152252619Y-140424761D01*
X151889761Y-140424761D01*
X151768809Y-140485238D01*
X151708333Y-140545714D01*
X151647857Y-140666666D01*
X151647857Y-140908571D01*
X151708333Y-141029523D01*
X152494523Y-142118095D02*
X151224523Y-142118095D01*
X152434047Y-142118095D02*
X152494523Y-141997142D01*
X152494523Y-141755238D01*
X152434047Y-141634285D01*
X152373571Y-141573809D01*
X152252619Y-141513333D01*
X151889761Y-141513333D01*
X151768809Y-141573809D01*
X151708333Y-141634285D01*
X151647857Y-141755238D01*
X151647857Y-141997142D01*
X151708333Y-142118095D01*
X151647857Y-143267142D02*
X152494523Y-143267142D01*
X151164047Y-142964761D02*
X152071190Y-142662380D01*
X152071190Y-143448571D01*
X151224523Y-144174285D02*
X151224523Y-144295238D01*
X151285000Y-144416190D01*
X151345476Y-144476666D01*
X151466428Y-144537142D01*
X151708333Y-144597619D01*
X152010714Y-144597619D01*
X152252619Y-144537142D01*
X152373571Y-144476666D01*
X152434047Y-144416190D01*
X152494523Y-144295238D01*
X152494523Y-144174285D01*
X152434047Y-144053333D01*
X152373571Y-143992857D01*
X152252619Y-143932380D01*
X152010714Y-143871904D01*
X151708333Y-143871904D01*
X151466428Y-143932380D01*
X151345476Y-143992857D01*
X151285000Y-144053333D01*
X151224523Y-144174285D01*
X151224523Y-145686190D02*
X151224523Y-145444285D01*
X151285000Y-145323333D01*
X151345476Y-145262857D01*
X151526904Y-145141904D01*
X151768809Y-145081428D01*
X152252619Y-145081428D01*
X152373571Y-145141904D01*
X152434047Y-145202380D01*
X152494523Y-145323333D01*
X152494523Y-145565238D01*
X152434047Y-145686190D01*
X152373571Y-145746666D01*
X152252619Y-145807142D01*
X151950238Y-145807142D01*
X151829285Y-145746666D01*
X151768809Y-145686190D01*
X151708333Y-145565238D01*
X151708333Y-145323333D01*
X151768809Y-145202380D01*
X151829285Y-145141904D01*
X151950238Y-145081428D01*
X151224523Y-146230476D02*
X151224523Y-147077142D01*
X152494523Y-146532857D01*
X152494523Y-148105238D02*
X151224523Y-148105238D01*
X152434047Y-148105238D02*
X152494523Y-147984285D01*
X152494523Y-147742380D01*
X152434047Y-147621428D01*
X152373571Y-147560952D01*
X152252619Y-147500476D01*
X151889761Y-147500476D01*
X151768809Y-147560952D01*
X151708333Y-147621428D01*
X151647857Y-147742380D01*
X151647857Y-147984285D01*
X151708333Y-148105238D01*
X152494523Y-149375238D02*
X152494523Y-148649523D01*
X152494523Y-149012380D02*
X151224523Y-149012380D01*
X151405952Y-148891428D01*
X151526904Y-148770476D01*
X151587380Y-148649523D01*
%TO.C,4067_conn_1*%
D10*
X243761904Y-142035714D02*
X243761904Y-142702380D01*
X244000000Y-141654761D02*
X244238095Y-142369047D01*
X243619047Y-142369047D01*
X243047619Y-141702380D02*
X242952380Y-141702380D01*
X242857142Y-141750000D01*
X242809523Y-141797619D01*
X242761904Y-141892857D01*
X242714285Y-142083333D01*
X242714285Y-142321428D01*
X242761904Y-142511904D01*
X242809523Y-142607142D01*
X242857142Y-142654761D01*
X242952380Y-142702380D01*
X243047619Y-142702380D01*
X243142857Y-142654761D01*
X243190476Y-142607142D01*
X243238095Y-142511904D01*
X243285714Y-142321428D01*
X243285714Y-142083333D01*
X243238095Y-141892857D01*
X243190476Y-141797619D01*
X243142857Y-141750000D01*
X243047619Y-141702380D01*
X241857142Y-141702380D02*
X242047619Y-141702380D01*
X242142857Y-141750000D01*
X242190476Y-141797619D01*
X242285714Y-141940476D01*
X242333333Y-142130952D01*
X242333333Y-142511904D01*
X242285714Y-142607142D01*
X242238095Y-142654761D01*
X242142857Y-142702380D01*
X241952380Y-142702380D01*
X241857142Y-142654761D01*
X241809523Y-142607142D01*
X241761904Y-142511904D01*
X241761904Y-142273809D01*
X241809523Y-142178571D01*
X241857142Y-142130952D01*
X241952380Y-142083333D01*
X242142857Y-142083333D01*
X242238095Y-142130952D01*
X242285714Y-142178571D01*
X242333333Y-142273809D01*
X241428571Y-141702380D02*
X240761904Y-141702380D01*
X241190476Y-142702380D01*
X240619047Y-142797619D02*
X239857142Y-142797619D01*
X239190476Y-142654761D02*
X239285714Y-142702380D01*
X239476190Y-142702380D01*
X239571428Y-142654761D01*
X239619047Y-142607142D01*
X239666666Y-142511904D01*
X239666666Y-142226190D01*
X239619047Y-142130952D01*
X239571428Y-142083333D01*
X239476190Y-142035714D01*
X239285714Y-142035714D01*
X239190476Y-142083333D01*
X238619047Y-142702380D02*
X238714285Y-142654761D01*
X238761904Y-142607142D01*
X238809523Y-142511904D01*
X238809523Y-142226190D01*
X238761904Y-142130952D01*
X238714285Y-142083333D01*
X238619047Y-142035714D01*
X238476190Y-142035714D01*
X238380952Y-142083333D01*
X238333333Y-142130952D01*
X238285714Y-142226190D01*
X238285714Y-142511904D01*
X238333333Y-142607142D01*
X238380952Y-142654761D01*
X238476190Y-142702380D01*
X238619047Y-142702380D01*
X237857142Y-142035714D02*
X237857142Y-142702380D01*
X237857142Y-142130952D02*
X237809523Y-142083333D01*
X237714285Y-142035714D01*
X237571428Y-142035714D01*
X237476190Y-142083333D01*
X237428571Y-142178571D01*
X237428571Y-142702380D01*
X236952380Y-142035714D02*
X236952380Y-142702380D01*
X236952380Y-142130952D02*
X236904761Y-142083333D01*
X236809523Y-142035714D01*
X236666666Y-142035714D01*
X236571428Y-142083333D01*
X236523809Y-142178571D01*
X236523809Y-142702380D01*
X236285714Y-142797619D02*
X235523809Y-142797619D01*
X234761904Y-142702380D02*
X235333333Y-142702380D01*
X235047619Y-142702380D02*
X235047619Y-141702380D01*
X235142857Y-141845238D01*
X235238095Y-141940476D01*
X235333333Y-141988095D01*
%TO.C,4067_conn_2*%
X55061904Y-163685714D02*
X55061904Y-164352380D01*
X55300000Y-163304761D02*
X55538095Y-164019047D01*
X54919047Y-164019047D01*
X54347619Y-163352380D02*
X54252380Y-163352380D01*
X54157142Y-163400000D01*
X54109523Y-163447619D01*
X54061904Y-163542857D01*
X54014285Y-163733333D01*
X54014285Y-163971428D01*
X54061904Y-164161904D01*
X54109523Y-164257142D01*
X54157142Y-164304761D01*
X54252380Y-164352380D01*
X54347619Y-164352380D01*
X54442857Y-164304761D01*
X54490476Y-164257142D01*
X54538095Y-164161904D01*
X54585714Y-163971428D01*
X54585714Y-163733333D01*
X54538095Y-163542857D01*
X54490476Y-163447619D01*
X54442857Y-163400000D01*
X54347619Y-163352380D01*
X53157142Y-163352380D02*
X53347619Y-163352380D01*
X53442857Y-163400000D01*
X53490476Y-163447619D01*
X53585714Y-163590476D01*
X53633333Y-163780952D01*
X53633333Y-164161904D01*
X53585714Y-164257142D01*
X53538095Y-164304761D01*
X53442857Y-164352380D01*
X53252380Y-164352380D01*
X53157142Y-164304761D01*
X53109523Y-164257142D01*
X53061904Y-164161904D01*
X53061904Y-163923809D01*
X53109523Y-163828571D01*
X53157142Y-163780952D01*
X53252380Y-163733333D01*
X53442857Y-163733333D01*
X53538095Y-163780952D01*
X53585714Y-163828571D01*
X53633333Y-163923809D01*
X52728571Y-163352380D02*
X52061904Y-163352380D01*
X52490476Y-164352380D01*
X51919047Y-164447619D02*
X51157142Y-164447619D01*
X50490476Y-164304761D02*
X50585714Y-164352380D01*
X50776190Y-164352380D01*
X50871428Y-164304761D01*
X50919047Y-164257142D01*
X50966666Y-164161904D01*
X50966666Y-163876190D01*
X50919047Y-163780952D01*
X50871428Y-163733333D01*
X50776190Y-163685714D01*
X50585714Y-163685714D01*
X50490476Y-163733333D01*
X49919047Y-164352380D02*
X50014285Y-164304761D01*
X50061904Y-164257142D01*
X50109523Y-164161904D01*
X50109523Y-163876190D01*
X50061904Y-163780952D01*
X50014285Y-163733333D01*
X49919047Y-163685714D01*
X49776190Y-163685714D01*
X49680952Y-163733333D01*
X49633333Y-163780952D01*
X49585714Y-163876190D01*
X49585714Y-164161904D01*
X49633333Y-164257142D01*
X49680952Y-164304761D01*
X49776190Y-164352380D01*
X49919047Y-164352380D01*
X49157142Y-163685714D02*
X49157142Y-164352380D01*
X49157142Y-163780952D02*
X49109523Y-163733333D01*
X49014285Y-163685714D01*
X48871428Y-163685714D01*
X48776190Y-163733333D01*
X48728571Y-163828571D01*
X48728571Y-164352380D01*
X48252380Y-163685714D02*
X48252380Y-164352380D01*
X48252380Y-163780952D02*
X48204761Y-163733333D01*
X48109523Y-163685714D01*
X47966666Y-163685714D01*
X47871428Y-163733333D01*
X47823809Y-163828571D01*
X47823809Y-164352380D01*
X47585714Y-164447619D02*
X46823809Y-164447619D01*
X46633333Y-163447619D02*
X46585714Y-163400000D01*
X46490476Y-163352380D01*
X46252380Y-163352380D01*
X46157142Y-163400000D01*
X46109523Y-163447619D01*
X46061904Y-163542857D01*
X46061904Y-163638095D01*
X46109523Y-163780952D01*
X46680952Y-164352380D01*
X46061904Y-164352380D01*
%TO.C,595_conn_1*%
X53738095Y-127452380D02*
X54214285Y-127452380D01*
X54261904Y-127928571D01*
X54214285Y-127880952D01*
X54119047Y-127833333D01*
X53880952Y-127833333D01*
X53785714Y-127880952D01*
X53738095Y-127928571D01*
X53690476Y-128023809D01*
X53690476Y-128261904D01*
X53738095Y-128357142D01*
X53785714Y-128404761D01*
X53880952Y-128452380D01*
X54119047Y-128452380D01*
X54214285Y-128404761D01*
X54261904Y-128357142D01*
X53214285Y-128452380D02*
X53023809Y-128452380D01*
X52928571Y-128404761D01*
X52880952Y-128357142D01*
X52785714Y-128214285D01*
X52738095Y-128023809D01*
X52738095Y-127642857D01*
X52785714Y-127547619D01*
X52833333Y-127500000D01*
X52928571Y-127452380D01*
X53119047Y-127452380D01*
X53214285Y-127500000D01*
X53261904Y-127547619D01*
X53309523Y-127642857D01*
X53309523Y-127880952D01*
X53261904Y-127976190D01*
X53214285Y-128023809D01*
X53119047Y-128071428D01*
X52928571Y-128071428D01*
X52833333Y-128023809D01*
X52785714Y-127976190D01*
X52738095Y-127880952D01*
X51833333Y-127452380D02*
X52309523Y-127452380D01*
X52357142Y-127928571D01*
X52309523Y-127880952D01*
X52214285Y-127833333D01*
X51976190Y-127833333D01*
X51880952Y-127880952D01*
X51833333Y-127928571D01*
X51785714Y-128023809D01*
X51785714Y-128261904D01*
X51833333Y-128357142D01*
X51880952Y-128404761D01*
X51976190Y-128452380D01*
X52214285Y-128452380D01*
X52309523Y-128404761D01*
X52357142Y-128357142D01*
X51595238Y-128547619D02*
X50833333Y-128547619D01*
X50166666Y-128404761D02*
X50261904Y-128452380D01*
X50452380Y-128452380D01*
X50547619Y-128404761D01*
X50595238Y-128357142D01*
X50642857Y-128261904D01*
X50642857Y-127976190D01*
X50595238Y-127880952D01*
X50547619Y-127833333D01*
X50452380Y-127785714D01*
X50261904Y-127785714D01*
X50166666Y-127833333D01*
X49595238Y-128452380D02*
X49690476Y-128404761D01*
X49738095Y-128357142D01*
X49785714Y-128261904D01*
X49785714Y-127976190D01*
X49738095Y-127880952D01*
X49690476Y-127833333D01*
X49595238Y-127785714D01*
X49452380Y-127785714D01*
X49357142Y-127833333D01*
X49309523Y-127880952D01*
X49261904Y-127976190D01*
X49261904Y-128261904D01*
X49309523Y-128357142D01*
X49357142Y-128404761D01*
X49452380Y-128452380D01*
X49595238Y-128452380D01*
X48833333Y-127785714D02*
X48833333Y-128452380D01*
X48833333Y-127880952D02*
X48785714Y-127833333D01*
X48690476Y-127785714D01*
X48547619Y-127785714D01*
X48452380Y-127833333D01*
X48404761Y-127928571D01*
X48404761Y-128452380D01*
X47928571Y-127785714D02*
X47928571Y-128452380D01*
X47928571Y-127880952D02*
X47880952Y-127833333D01*
X47785714Y-127785714D01*
X47642857Y-127785714D01*
X47547619Y-127833333D01*
X47499999Y-127928571D01*
X47499999Y-128452380D01*
X47261904Y-128547619D02*
X46499999Y-128547619D01*
X45738095Y-128452380D02*
X46309523Y-128452380D01*
X46023809Y-128452380D02*
X46023809Y-127452380D01*
X46119047Y-127595238D01*
X46214285Y-127690476D01*
X46309523Y-127738095D01*
%TO.C,R1*%
X67916666Y-127202380D02*
X68250000Y-126726190D01*
X68488095Y-127202380D02*
X68488095Y-126202380D01*
X68107142Y-126202380D01*
X68011904Y-126250000D01*
X67964285Y-126297619D01*
X67916666Y-126392857D01*
X67916666Y-126535714D01*
X67964285Y-126630952D01*
X68011904Y-126678571D01*
X68107142Y-126726190D01*
X68488095Y-126726190D01*
X66964285Y-127202380D02*
X67535714Y-127202380D01*
X67250000Y-127202380D02*
X67250000Y-126202380D01*
X67345238Y-126345238D01*
X67440476Y-126440476D01*
X67535714Y-126488095D01*
%TO.C,R3*%
X90416666Y-127202380D02*
X90750000Y-126726190D01*
X90988095Y-127202380D02*
X90988095Y-126202380D01*
X90607142Y-126202380D01*
X90511904Y-126250000D01*
X90464285Y-126297619D01*
X90416666Y-126392857D01*
X90416666Y-126535714D01*
X90464285Y-126630952D01*
X90511904Y-126678571D01*
X90607142Y-126726190D01*
X90988095Y-126726190D01*
X90083333Y-126202380D02*
X89464285Y-126202380D01*
X89797619Y-126583333D01*
X89654761Y-126583333D01*
X89559523Y-126630952D01*
X89511904Y-126678571D01*
X89464285Y-126773809D01*
X89464285Y-127011904D01*
X89511904Y-127107142D01*
X89559523Y-127154761D01*
X89654761Y-127202380D01*
X89940476Y-127202380D01*
X90035714Y-127154761D01*
X90083333Y-127107142D01*
%TO.C,R5*%
X112588094Y-126872380D02*
X112921428Y-126396190D01*
X113159523Y-126872380D02*
X113159523Y-125872380D01*
X112778570Y-125872380D01*
X112683332Y-125920000D01*
X112635713Y-125967619D01*
X112588094Y-126062857D01*
X112588094Y-126205714D01*
X112635713Y-126300952D01*
X112683332Y-126348571D01*
X112778570Y-126396190D01*
X113159523Y-126396190D01*
X111683332Y-125872380D02*
X112159523Y-125872380D01*
X112207142Y-126348571D01*
X112159523Y-126300952D01*
X112064285Y-126253333D01*
X111826189Y-126253333D01*
X111730951Y-126300952D01*
X111683332Y-126348571D01*
X111635713Y-126443809D01*
X111635713Y-126681904D01*
X111683332Y-126777142D01*
X111730951Y-126824761D01*
X111826189Y-126872380D01*
X112064285Y-126872380D01*
X112159523Y-126824761D01*
X112207142Y-126777142D01*
%TO.C,R7*%
X134816666Y-126872380D02*
X135150000Y-126396190D01*
X135388095Y-126872380D02*
X135388095Y-125872380D01*
X135007142Y-125872380D01*
X134911904Y-125920000D01*
X134864285Y-125967619D01*
X134816666Y-126062857D01*
X134816666Y-126205714D01*
X134864285Y-126300952D01*
X134911904Y-126348571D01*
X135007142Y-126396190D01*
X135388095Y-126396190D01*
X134483333Y-125872380D02*
X133816666Y-125872380D01*
X134245238Y-126872380D01*
%TO.C,R9*%
X156916666Y-126952380D02*
X157250000Y-126476190D01*
X157488095Y-126952380D02*
X157488095Y-125952380D01*
X157107142Y-125952380D01*
X157011904Y-126000000D01*
X156964285Y-126047619D01*
X156916666Y-126142857D01*
X156916666Y-126285714D01*
X156964285Y-126380952D01*
X157011904Y-126428571D01*
X157107142Y-126476190D01*
X157488095Y-126476190D01*
X156440476Y-126952380D02*
X156250000Y-126952380D01*
X156154761Y-126904761D01*
X156107142Y-126857142D01*
X156011904Y-126714285D01*
X155964285Y-126523809D01*
X155964285Y-126142857D01*
X156011904Y-126047619D01*
X156059523Y-126000000D01*
X156154761Y-125952380D01*
X156345238Y-125952380D01*
X156440476Y-126000000D01*
X156488095Y-126047619D01*
X156535714Y-126142857D01*
X156535714Y-126380952D01*
X156488095Y-126476190D01*
X156440476Y-126523809D01*
X156345238Y-126571428D01*
X156154761Y-126571428D01*
X156059523Y-126523809D01*
X156011904Y-126476190D01*
X155964285Y-126380952D01*
%TO.C,R11*%
X180642857Y-127202380D02*
X180976190Y-126726190D01*
X181214285Y-127202380D02*
X181214285Y-126202380D01*
X180833333Y-126202380D01*
X180738095Y-126250000D01*
X180690476Y-126297619D01*
X180642857Y-126392857D01*
X180642857Y-126535714D01*
X180690476Y-126630952D01*
X180738095Y-126678571D01*
X180833333Y-126726190D01*
X181214285Y-126726190D01*
X179690476Y-127202380D02*
X180261904Y-127202380D01*
X179976190Y-127202380D02*
X179976190Y-126202380D01*
X180071428Y-126345238D01*
X180166666Y-126440476D01*
X180261904Y-126488095D01*
X178738095Y-127202380D02*
X179309523Y-127202380D01*
X179023809Y-127202380D02*
X179023809Y-126202380D01*
X179119047Y-126345238D01*
X179214285Y-126440476D01*
X179309523Y-126488095D01*
%TO.C,R13*%
X202642857Y-126952380D02*
X202976190Y-126476190D01*
X203214285Y-126952380D02*
X203214285Y-125952380D01*
X202833333Y-125952380D01*
X202738095Y-126000000D01*
X202690476Y-126047619D01*
X202642857Y-126142857D01*
X202642857Y-126285714D01*
X202690476Y-126380952D01*
X202738095Y-126428571D01*
X202833333Y-126476190D01*
X203214285Y-126476190D01*
X201690476Y-126952380D02*
X202261904Y-126952380D01*
X201976190Y-126952380D02*
X201976190Y-125952380D01*
X202071428Y-126095238D01*
X202166666Y-126190476D01*
X202261904Y-126238095D01*
X201357142Y-125952380D02*
X200738095Y-125952380D01*
X201071428Y-126333333D01*
X200928571Y-126333333D01*
X200833333Y-126380952D01*
X200785714Y-126428571D01*
X200738095Y-126523809D01*
X200738095Y-126761904D01*
X200785714Y-126857142D01*
X200833333Y-126904761D01*
X200928571Y-126952380D01*
X201214285Y-126952380D01*
X201309523Y-126904761D01*
X201357142Y-126857142D01*
%TO.C,R15*%
X224992857Y-126872380D02*
X225326190Y-126396190D01*
X225564285Y-126872380D02*
X225564285Y-125872380D01*
X225183333Y-125872380D01*
X225088095Y-125920000D01*
X225040476Y-125967619D01*
X224992857Y-126062857D01*
X224992857Y-126205714D01*
X225040476Y-126300952D01*
X225088095Y-126348571D01*
X225183333Y-126396190D01*
X225564285Y-126396190D01*
X224040476Y-126872380D02*
X224611904Y-126872380D01*
X224326190Y-126872380D02*
X224326190Y-125872380D01*
X224421428Y-126015238D01*
X224516666Y-126110476D01*
X224611904Y-126158095D01*
X223135714Y-125872380D02*
X223611904Y-125872380D01*
X223659523Y-126348571D01*
X223611904Y-126300952D01*
X223516666Y-126253333D01*
X223278571Y-126253333D01*
X223183333Y-126300952D01*
X223135714Y-126348571D01*
X223088095Y-126443809D01*
X223088095Y-126681904D01*
X223135714Y-126777142D01*
X223183333Y-126824761D01*
X223278571Y-126872380D01*
X223516666Y-126872380D01*
X223611904Y-126824761D01*
X223659523Y-126777142D01*
%TO.C,74hc595*%
X100952380Y-141880952D02*
X100952380Y-142547619D01*
X101952380Y-142119047D01*
X101285714Y-143357142D02*
X101952380Y-143357142D01*
X100904761Y-143119047D02*
X101619047Y-142880952D01*
X101619047Y-143500000D01*
X101952380Y-143880952D02*
X100952380Y-143880952D01*
X101952380Y-144309523D02*
X101428571Y-144309523D01*
X101333333Y-144261904D01*
X101285714Y-144166666D01*
X101285714Y-144023809D01*
X101333333Y-143928571D01*
X101380952Y-143880952D01*
X101904761Y-145214285D02*
X101952380Y-145119047D01*
X101952380Y-144928571D01*
X101904761Y-144833333D01*
X101857142Y-144785714D01*
X101761904Y-144738095D01*
X101476190Y-144738095D01*
X101380952Y-144785714D01*
X101333333Y-144833333D01*
X101285714Y-144928571D01*
X101285714Y-145119047D01*
X101333333Y-145214285D01*
X100952380Y-146119047D02*
X100952380Y-145642857D01*
X101428571Y-145595238D01*
X101380952Y-145642857D01*
X101333333Y-145738095D01*
X101333333Y-145976190D01*
X101380952Y-146071428D01*
X101428571Y-146119047D01*
X101523809Y-146166666D01*
X101761904Y-146166666D01*
X101857142Y-146119047D01*
X101904761Y-146071428D01*
X101952380Y-145976190D01*
X101952380Y-145738095D01*
X101904761Y-145642857D01*
X101857142Y-145595238D01*
X101952380Y-146642857D02*
X101952380Y-146833333D01*
X101904761Y-146928571D01*
X101857142Y-146976190D01*
X101714285Y-147071428D01*
X101523809Y-147119047D01*
X101142857Y-147119047D01*
X101047619Y-147071428D01*
X101000000Y-147023809D01*
X100952380Y-146928571D01*
X100952380Y-146738095D01*
X101000000Y-146642857D01*
X101047619Y-146595238D01*
X101142857Y-146547619D01*
X101380952Y-146547619D01*
X101476190Y-146595238D01*
X101523809Y-146642857D01*
X101571428Y-146738095D01*
X101571428Y-146928571D01*
X101523809Y-147023809D01*
X101476190Y-147071428D01*
X101380952Y-147119047D01*
X100952380Y-148023809D02*
X100952380Y-147547619D01*
X101428571Y-147500000D01*
X101380952Y-147547619D01*
X101333333Y-147642857D01*
X101333333Y-147880952D01*
X101380952Y-147976190D01*
X101428571Y-148023809D01*
X101523809Y-148071428D01*
X101761904Y-148071428D01*
X101857142Y-148023809D01*
X101904761Y-147976190D01*
X101952380Y-147880952D01*
X101952380Y-147642857D01*
X101904761Y-147547619D01*
X101857142Y-147500000D01*
%TO.C,74hc595_2*%
X201952380Y-141023809D02*
X201952380Y-141690476D01*
X202952380Y-141261904D01*
X202285714Y-142500000D02*
X202952380Y-142500000D01*
X201904761Y-142261904D02*
X202619047Y-142023809D01*
X202619047Y-142642857D01*
X202952380Y-143023809D02*
X201952380Y-143023809D01*
X202952380Y-143452380D02*
X202428571Y-143452380D01*
X202333333Y-143404761D01*
X202285714Y-143309523D01*
X202285714Y-143166666D01*
X202333333Y-143071428D01*
X202380952Y-143023809D01*
X202904761Y-144357142D02*
X202952380Y-144261904D01*
X202952380Y-144071428D01*
X202904761Y-143976190D01*
X202857142Y-143928571D01*
X202761904Y-143880952D01*
X202476190Y-143880952D01*
X202380952Y-143928571D01*
X202333333Y-143976190D01*
X202285714Y-144071428D01*
X202285714Y-144261904D01*
X202333333Y-144357142D01*
X201952380Y-145261904D02*
X201952380Y-144785714D01*
X202428571Y-144738095D01*
X202380952Y-144785714D01*
X202333333Y-144880952D01*
X202333333Y-145119047D01*
X202380952Y-145214285D01*
X202428571Y-145261904D01*
X202523809Y-145309523D01*
X202761904Y-145309523D01*
X202857142Y-145261904D01*
X202904761Y-145214285D01*
X202952380Y-145119047D01*
X202952380Y-144880952D01*
X202904761Y-144785714D01*
X202857142Y-144738095D01*
X202952380Y-145785714D02*
X202952380Y-145976190D01*
X202904761Y-146071428D01*
X202857142Y-146119047D01*
X202714285Y-146214285D01*
X202523809Y-146261904D01*
X202142857Y-146261904D01*
X202047619Y-146214285D01*
X202000000Y-146166666D01*
X201952380Y-146071428D01*
X201952380Y-145880952D01*
X202000000Y-145785714D01*
X202047619Y-145738095D01*
X202142857Y-145690476D01*
X202380952Y-145690476D01*
X202476190Y-145738095D01*
X202523809Y-145785714D01*
X202571428Y-145880952D01*
X202571428Y-146071428D01*
X202523809Y-146166666D01*
X202476190Y-146214285D01*
X202380952Y-146261904D01*
X201952380Y-147166666D02*
X201952380Y-146690476D01*
X202428571Y-146642857D01*
X202380952Y-146690476D01*
X202333333Y-146785714D01*
X202333333Y-147023809D01*
X202380952Y-147119047D01*
X202428571Y-147166666D01*
X202523809Y-147214285D01*
X202761904Y-147214285D01*
X202857142Y-147166666D01*
X202904761Y-147119047D01*
X202952380Y-147023809D01*
X202952380Y-146785714D01*
X202904761Y-146690476D01*
X202857142Y-146642857D01*
X203047619Y-147404761D02*
X203047619Y-148166666D01*
X202047619Y-148357142D02*
X202000000Y-148404761D01*
X201952380Y-148500000D01*
X201952380Y-148738095D01*
X202000000Y-148833333D01*
X202047619Y-148880952D01*
X202142857Y-148928571D01*
X202238095Y-148928571D01*
X202380952Y-148880952D01*
X202952380Y-148309523D01*
X202952380Y-148928571D01*
%TO.C,R2*%
X68366666Y-163752380D02*
X68700000Y-163276190D01*
X68938095Y-163752380D02*
X68938095Y-162752380D01*
X68557142Y-162752380D01*
X68461904Y-162800000D01*
X68414285Y-162847619D01*
X68366666Y-162942857D01*
X68366666Y-163085714D01*
X68414285Y-163180952D01*
X68461904Y-163228571D01*
X68557142Y-163276190D01*
X68938095Y-163276190D01*
X67985714Y-162847619D02*
X67938095Y-162800000D01*
X67842857Y-162752380D01*
X67604761Y-162752380D01*
X67509523Y-162800000D01*
X67461904Y-162847619D01*
X67414285Y-162942857D01*
X67414285Y-163038095D01*
X67461904Y-163180952D01*
X68033333Y-163752380D01*
X67414285Y-163752380D01*
%TO.C,R4*%
X90095238Y-163752380D02*
X90428572Y-163276190D01*
X90666667Y-163752380D02*
X90666667Y-162752380D01*
X90285714Y-162752380D01*
X90190476Y-162800000D01*
X90142857Y-162847619D01*
X90095238Y-162942857D01*
X90095238Y-163085714D01*
X90142857Y-163180952D01*
X90190476Y-163228571D01*
X90285714Y-163276190D01*
X90666667Y-163276190D01*
X89238095Y-163085714D02*
X89238095Y-163752380D01*
X89476191Y-162704761D02*
X89714286Y-163419047D01*
X89095238Y-163419047D01*
%TO.C,R6*%
X112538094Y-163882380D02*
X112871428Y-163406190D01*
X113109523Y-163882380D02*
X113109523Y-162882380D01*
X112728570Y-162882380D01*
X112633332Y-162930000D01*
X112585713Y-162977619D01*
X112538094Y-163072857D01*
X112538094Y-163215714D01*
X112585713Y-163310952D01*
X112633332Y-163358571D01*
X112728570Y-163406190D01*
X113109523Y-163406190D01*
X111680951Y-162882380D02*
X111871428Y-162882380D01*
X111966666Y-162930000D01*
X112014285Y-162977619D01*
X112109523Y-163120476D01*
X112157142Y-163310952D01*
X112157142Y-163691904D01*
X112109523Y-163787142D01*
X112061904Y-163834761D01*
X111966666Y-163882380D01*
X111776189Y-163882380D01*
X111680951Y-163834761D01*
X111633332Y-163787142D01*
X111585713Y-163691904D01*
X111585713Y-163453809D01*
X111633332Y-163358571D01*
X111680951Y-163310952D01*
X111776189Y-163263333D01*
X111966666Y-163263333D01*
X112061904Y-163310952D01*
X112109523Y-163358571D01*
X112157142Y-163453809D01*
%TO.C,R8*%
X134366666Y-163882380D02*
X134700000Y-163406190D01*
X134938095Y-163882380D02*
X134938095Y-162882380D01*
X134557142Y-162882380D01*
X134461904Y-162930000D01*
X134414285Y-162977619D01*
X134366666Y-163072857D01*
X134366666Y-163215714D01*
X134414285Y-163310952D01*
X134461904Y-163358571D01*
X134557142Y-163406190D01*
X134938095Y-163406190D01*
X133795238Y-163310952D02*
X133890476Y-163263333D01*
X133938095Y-163215714D01*
X133985714Y-163120476D01*
X133985714Y-163072857D01*
X133938095Y-162977619D01*
X133890476Y-162930000D01*
X133795238Y-162882380D01*
X133604761Y-162882380D01*
X133509523Y-162930000D01*
X133461904Y-162977619D01*
X133414285Y-163072857D01*
X133414285Y-163120476D01*
X133461904Y-163215714D01*
X133509523Y-163263333D01*
X133604761Y-163310952D01*
X133795238Y-163310952D01*
X133890476Y-163358571D01*
X133938095Y-163406190D01*
X133985714Y-163501428D01*
X133985714Y-163691904D01*
X133938095Y-163787142D01*
X133890476Y-163834761D01*
X133795238Y-163882380D01*
X133604761Y-163882380D01*
X133509523Y-163834761D01*
X133461904Y-163787142D01*
X133414285Y-163691904D01*
X133414285Y-163501428D01*
X133461904Y-163406190D01*
X133509523Y-163358571D01*
X133604761Y-163310952D01*
%TO.C,R10*%
X157785713Y-163752380D02*
X158119046Y-163276190D01*
X158357141Y-163752380D02*
X158357141Y-162752380D01*
X157976189Y-162752380D01*
X157880951Y-162800000D01*
X157833332Y-162847619D01*
X157785713Y-162942857D01*
X157785713Y-163085714D01*
X157833332Y-163180952D01*
X157880951Y-163228571D01*
X157976189Y-163276190D01*
X158357141Y-163276190D01*
X156833332Y-163752380D02*
X157404760Y-163752380D01*
X157119046Y-163752380D02*
X157119046Y-162752380D01*
X157214284Y-162895238D01*
X157309522Y-162990476D01*
X157404760Y-163038095D01*
X156214284Y-162752380D02*
X156119046Y-162752380D01*
X156023808Y-162800000D01*
X155976189Y-162847619D01*
X155928570Y-162942857D01*
X155880951Y-163133333D01*
X155880951Y-163371428D01*
X155928570Y-163561904D01*
X155976189Y-163657142D01*
X156023808Y-163704761D01*
X156119046Y-163752380D01*
X156214284Y-163752380D01*
X156309522Y-163704761D01*
X156357141Y-163657142D01*
X156404760Y-163561904D01*
X156452379Y-163371428D01*
X156452379Y-163133333D01*
X156404760Y-162942857D01*
X156357141Y-162847619D01*
X156309522Y-162800000D01*
X156214284Y-162752380D01*
%TO.C,R12*%
X180592857Y-164002380D02*
X180926190Y-163526190D01*
X181164285Y-164002380D02*
X181164285Y-163002380D01*
X180783333Y-163002380D01*
X180688095Y-163050000D01*
X180640476Y-163097619D01*
X180592857Y-163192857D01*
X180592857Y-163335714D01*
X180640476Y-163430952D01*
X180688095Y-163478571D01*
X180783333Y-163526190D01*
X181164285Y-163526190D01*
X179640476Y-164002380D02*
X180211904Y-164002380D01*
X179926190Y-164002380D02*
X179926190Y-163002380D01*
X180021428Y-163145238D01*
X180116666Y-163240476D01*
X180211904Y-163288095D01*
X179259523Y-163097619D02*
X179211904Y-163050000D01*
X179116666Y-163002380D01*
X178878571Y-163002380D01*
X178783333Y-163050000D01*
X178735714Y-163097619D01*
X178688095Y-163192857D01*
X178688095Y-163288095D01*
X178735714Y-163430952D01*
X179307142Y-164002380D01*
X178688095Y-164002380D01*
%TO.C,R14*%
X202557141Y-163882380D02*
X202890474Y-163406190D01*
X203128569Y-163882380D02*
X203128569Y-162882380D01*
X202747617Y-162882380D01*
X202652379Y-162930000D01*
X202604760Y-162977619D01*
X202557141Y-163072857D01*
X202557141Y-163215714D01*
X202604760Y-163310952D01*
X202652379Y-163358571D01*
X202747617Y-163406190D01*
X203128569Y-163406190D01*
X201604760Y-163882380D02*
X202176188Y-163882380D01*
X201890474Y-163882380D02*
X201890474Y-162882380D01*
X201985712Y-163025238D01*
X202080950Y-163120476D01*
X202176188Y-163168095D01*
X200747617Y-163215714D02*
X200747617Y-163882380D01*
X200985712Y-162834761D02*
X201223807Y-163549047D01*
X200604760Y-163549047D01*
%TO.C,R16*%
X224942857Y-163882380D02*
X225276190Y-163406190D01*
X225514285Y-163882380D02*
X225514285Y-162882380D01*
X225133333Y-162882380D01*
X225038095Y-162930000D01*
X224990476Y-162977619D01*
X224942857Y-163072857D01*
X224942857Y-163215714D01*
X224990476Y-163310952D01*
X225038095Y-163358571D01*
X225133333Y-163406190D01*
X225514285Y-163406190D01*
X223990476Y-163882380D02*
X224561904Y-163882380D01*
X224276190Y-163882380D02*
X224276190Y-162882380D01*
X224371428Y-163025238D01*
X224466666Y-163120476D01*
X224561904Y-163168095D01*
X223133333Y-162882380D02*
X223323809Y-162882380D01*
X223419047Y-162930000D01*
X223466666Y-162977619D01*
X223561904Y-163120476D01*
X223609523Y-163310952D01*
X223609523Y-163691904D01*
X223561904Y-163787142D01*
X223514285Y-163834761D01*
X223419047Y-163882380D01*
X223228571Y-163882380D01*
X223133333Y-163834761D01*
X223085714Y-163787142D01*
X223038095Y-163691904D01*
X223038095Y-163453809D01*
X223085714Y-163358571D01*
X223133333Y-163310952D01*
X223228571Y-163263333D01*
X223419047Y-163263333D01*
X223514285Y-163310952D01*
X223561904Y-163358571D01*
X223609523Y-163453809D01*
%TO.C,595_conn_2*%
X243488095Y-126952380D02*
X243964285Y-126952380D01*
X244011904Y-127428571D01*
X243964285Y-127380952D01*
X243869047Y-127333333D01*
X243630952Y-127333333D01*
X243535714Y-127380952D01*
X243488095Y-127428571D01*
X243440476Y-127523809D01*
X243440476Y-127761904D01*
X243488095Y-127857142D01*
X243535714Y-127904761D01*
X243630952Y-127952380D01*
X243869047Y-127952380D01*
X243964285Y-127904761D01*
X244011904Y-127857142D01*
X242964285Y-127952380D02*
X242773809Y-127952380D01*
X242678571Y-127904761D01*
X242630952Y-127857142D01*
X242535714Y-127714285D01*
X242488095Y-127523809D01*
X242488095Y-127142857D01*
X242535714Y-127047619D01*
X242583333Y-127000000D01*
X242678571Y-126952380D01*
X242869047Y-126952380D01*
X242964285Y-127000000D01*
X243011904Y-127047619D01*
X243059523Y-127142857D01*
X243059523Y-127380952D01*
X243011904Y-127476190D01*
X242964285Y-127523809D01*
X242869047Y-127571428D01*
X242678571Y-127571428D01*
X242583333Y-127523809D01*
X242535714Y-127476190D01*
X242488095Y-127380952D01*
X241583333Y-126952380D02*
X242059523Y-126952380D01*
X242107142Y-127428571D01*
X242059523Y-127380952D01*
X241964285Y-127333333D01*
X241726190Y-127333333D01*
X241630952Y-127380952D01*
X241583333Y-127428571D01*
X241535714Y-127523809D01*
X241535714Y-127761904D01*
X241583333Y-127857142D01*
X241630952Y-127904761D01*
X241726190Y-127952380D01*
X241964285Y-127952380D01*
X242059523Y-127904761D01*
X242107142Y-127857142D01*
X241345238Y-128047619D02*
X240583333Y-128047619D01*
X239916666Y-127904761D02*
X240011904Y-127952380D01*
X240202380Y-127952380D01*
X240297619Y-127904761D01*
X240345238Y-127857142D01*
X240392857Y-127761904D01*
X240392857Y-127476190D01*
X240345238Y-127380952D01*
X240297619Y-127333333D01*
X240202380Y-127285714D01*
X240011904Y-127285714D01*
X239916666Y-127333333D01*
X239345238Y-127952380D02*
X239440476Y-127904761D01*
X239488095Y-127857142D01*
X239535714Y-127761904D01*
X239535714Y-127476190D01*
X239488095Y-127380952D01*
X239440476Y-127333333D01*
X239345238Y-127285714D01*
X239202380Y-127285714D01*
X239107142Y-127333333D01*
X239059523Y-127380952D01*
X239011904Y-127476190D01*
X239011904Y-127761904D01*
X239059523Y-127857142D01*
X239107142Y-127904761D01*
X239202380Y-127952380D01*
X239345238Y-127952380D01*
X238583333Y-127285714D02*
X238583333Y-127952380D01*
X238583333Y-127380952D02*
X238535714Y-127333333D01*
X238440476Y-127285714D01*
X238297619Y-127285714D01*
X238202380Y-127333333D01*
X238154761Y-127428571D01*
X238154761Y-127952380D01*
X237678571Y-127285714D02*
X237678571Y-127952380D01*
X237678571Y-127380952D02*
X237630952Y-127333333D01*
X237535714Y-127285714D01*
X237392857Y-127285714D01*
X237297619Y-127333333D01*
X237250000Y-127428571D01*
X237250000Y-127952380D01*
X237011904Y-128047619D02*
X236250000Y-128047619D01*
X236059523Y-127047619D02*
X236011904Y-127000000D01*
X235916666Y-126952380D01*
X235678571Y-126952380D01*
X235583333Y-127000000D01*
X235535714Y-127047619D01*
X235488095Y-127142857D01*
X235488095Y-127238095D01*
X235535714Y-127380952D01*
X236107142Y-127952380D01*
X235488095Y-127952380D01*
%TO.C,C1*%
X188766666Y-142057142D02*
X188814285Y-142104761D01*
X188957142Y-142152380D01*
X189052380Y-142152380D01*
X189195238Y-142104761D01*
X189290476Y-142009523D01*
X189338095Y-141914285D01*
X189385714Y-141723809D01*
X189385714Y-141580952D01*
X189338095Y-141390476D01*
X189290476Y-141295238D01*
X189195238Y-141200000D01*
X189052380Y-141152380D01*
X188957142Y-141152380D01*
X188814285Y-141200000D01*
X188766666Y-141247619D01*
X187814285Y-142152380D02*
X188385714Y-142152380D01*
X188100000Y-142152380D02*
X188100000Y-141152380D01*
X188195238Y-141295238D01*
X188290476Y-141390476D01*
X188385714Y-141438095D01*
%TO.C,C2*%
X156227142Y-141663333D02*
X156274761Y-141615714D01*
X156322380Y-141472857D01*
X156322380Y-141377619D01*
X156274761Y-141234761D01*
X156179523Y-141139523D01*
X156084285Y-141091904D01*
X155893809Y-141044285D01*
X155750952Y-141044285D01*
X155560476Y-141091904D01*
X155465238Y-141139523D01*
X155370000Y-141234761D01*
X155322380Y-141377619D01*
X155322380Y-141472857D01*
X155370000Y-141615714D01*
X155417619Y-141663333D01*
X155417619Y-142044285D02*
X155370000Y-142091904D01*
X155322380Y-142187142D01*
X155322380Y-142425238D01*
X155370000Y-142520476D01*
X155417619Y-142568095D01*
X155512857Y-142615714D01*
X155608095Y-142615714D01*
X155750952Y-142568095D01*
X156322380Y-141996666D01*
X156322380Y-142615714D01*
%TO.C,C3*%
X105847142Y-141933333D02*
X105894761Y-141885714D01*
X105942380Y-141742857D01*
X105942380Y-141647619D01*
X105894761Y-141504761D01*
X105799523Y-141409523D01*
X105704285Y-141361904D01*
X105513809Y-141314285D01*
X105370952Y-141314285D01*
X105180476Y-141361904D01*
X105085238Y-141409523D01*
X104990000Y-141504761D01*
X104942380Y-141647619D01*
X104942380Y-141742857D01*
X104990000Y-141885714D01*
X105037619Y-141933333D01*
X104942380Y-142266666D02*
X104942380Y-142885714D01*
X105323333Y-142552380D01*
X105323333Y-142695238D01*
X105370952Y-142790476D01*
X105418571Y-142838095D01*
X105513809Y-142885714D01*
X105751904Y-142885714D01*
X105847142Y-142838095D01*
X105894761Y-142790476D01*
X105942380Y-142695238D01*
X105942380Y-142409523D01*
X105894761Y-142314285D01*
X105847142Y-142266666D01*
%TD*%
M02*
