M48
; DRILL file {KiCad (5.1.7-0-10_14)} date Thursday, November 05, 2020 at 02:27:53 PM
; FORMAT={-:-/ absolute / metric / decimal}
; #@! TF.CreationDate,2020-11-05T14:27:53-03:00
; #@! TF.GenerationSoftware,Kicad,Pcbnew,(5.1.7-0-10_14)
; #@! TF.FileFunction,Plated,1,2,PTH
FMAT,2
METRIC
T1C0.400
T2C0.800
T3C0.900
T4C1.000
T5C1.200
%
G90
G05
T1
X51.5Y-131.9
X52.6Y-154.1
X57.583Y-133.756
X57.675Y-156.15
X75.25Y-152.0
X76.0Y-138.75
X76.8Y-155.5
X76.9Y-131.8
X79.0Y-141.0
X81.0Y-143.0
X82.475Y-143.75
X82.65Y-133.675
X82.7Y-156.05
X83.5Y-149.645
X87.5Y-139.0
X89.0Y-134.0
X89.0Y-138.5
X89.0Y-146.0
X89.0Y-150.0
X89.5Y-143.625
X90.8Y-140.725
X93.0Y-139.0
X93.5Y-136.0
X94.0Y-140.0
X94.5Y-151.225
X96.751Y-144.649
X97.0Y-139.0
X97.5Y-151.225
X97.725Y-135.3
X99.1Y-138.9
X100.325Y-140.425
X101.2Y-143.6
X101.3Y-155.6
X101.8Y-132.3
X101.9Y-138.325
X103.0Y-150.5
X105.27Y-143.48
X107.3Y-125.6
X107.6Y-133.85
X108.05Y-156.075
X110.5Y-122.0
X112.5Y-139.25
X113.5Y-122.5
X113.6Y-135.7
X113.75Y-151.75
X120.2Y-122.2
X124.74Y-135.25
X126.1Y-130.8
X126.95Y-150.8
X127.2Y-155.2
X128.2Y-146.2
X128.5Y-135.975
X132.6Y-133.875
X132.6Y-149.8
X133.15Y-156.1
X134.8Y-138.325
X135.0Y-166.5
X135.5Y-168.5
X139.38Y-121.68
X141.9Y-158.45
X144.5Y-156.0
X144.5Y-158.5
X144.5Y-161.2
X145.0Y-147.0
X145.9Y-156.5
X147.8Y-144.5
X148.65Y-146.25
X149.0Y-153.1
X149.4Y-138.0
X151.1Y-138.0
X151.8Y-132.0
X151.9Y-139.4
X151.9Y-159.7
X152.5Y-152.0
X157.35Y-155.975
X157.413Y-133.912
X173.3Y-155.8
X175.1Y-148.9
X175.5Y-156.8
X176.5Y-158.4
X176.7Y-132.4
X177.0Y-148.9
X179.0Y-149.6
X180.5Y-152.0
X181.0Y-149.343
X181.1Y-148.0
X181.8Y-138.1
X182.6Y-155.975
X182.625Y-133.9
X186.0Y-137.0
X189.3Y-145.6
X189.325Y-147.275
X189.5Y-134.5
X191.4Y-144.875
X192.6Y-137.5
X192.93Y-139.99
X193.0Y-144.7
X194.6Y-145.6
X195.0Y-152.0
X196.5Y-145.0
X198.0Y-134.5
X198.0Y-144.5
X198.0Y-152.0
X198.4Y-127.9
X199.0Y-139.5
X200.0Y-136.55
X200.0Y-152.0
X200.1Y-145.5
X201.0Y-136.55
X201.0Y-150.5
X201.5Y-138.0
X201.7Y-158.2
X202.4Y-149.3
X202.45Y-130.2
X202.5Y-134.4
X203.5Y-122.0
X207.65Y-133.825
X207.675Y-156.1
X226.8Y-158.8
X227.0Y-131.0
X232.55Y-133.825
X232.6Y-156.1
X233.5Y-152.0
X237.0Y-124.0
X238.181Y-123.019
X238.5Y-152.0
X239.5Y-134.5
X241.981Y-126.819
T2
X187.35Y-139.65
X189.85Y-139.65
X103.44Y-140.85
X103.44Y-143.35
X153.85Y-140.34
X153.85Y-142.84
T3
X156.2Y-157.5
X158.74Y-157.5
X81.2Y-157.5
X83.74Y-157.5
X206.2Y-157.5
X208.74Y-157.5
X156.2Y-132.5
X158.74Y-132.5
X81.2Y-132.5
X83.74Y-132.5
X206.2Y-132.5
X208.74Y-132.5
X131.2Y-157.5
X133.74Y-157.5
X56.2Y-157.5
X58.74Y-157.5
X181.2Y-157.5
X183.74Y-157.5
X131.2Y-132.5
X133.74Y-132.5
X56.2Y-132.5
X58.74Y-132.5
X181.2Y-132.5
X183.74Y-132.5
X106.2Y-157.5
X108.74Y-157.5
X231.2Y-157.5
X233.74Y-157.5
X106.2Y-132.5
X108.74Y-132.5
X231.2Y-132.5
X233.74Y-132.5
T4
X242.5Y-130.92
X242.5Y-133.46
X242.5Y-136.0
X242.5Y-138.54
X47.5Y-130.92
X47.5Y-133.46
X47.5Y-136.0
X47.5Y-138.54
X47.5Y-145.29
X47.5Y-147.83
X47.5Y-150.37
X47.5Y-152.91
X47.5Y-155.45
X47.5Y-157.99
X47.5Y-160.53
X242.5Y-145.3
X242.5Y-147.84
X242.5Y-150.38
X242.5Y-152.92
X242.5Y-155.46
X242.5Y-158.0
X242.5Y-160.54
T5
X217.95Y-166.35
X230.65Y-166.35
X173.229Y-123.5
X185.929Y-123.5
X218.0Y-123.5
X230.7Y-123.5
X61.25Y-166.35
X73.95Y-166.35
X61.3Y-123.5
X74.0Y-123.5
X106.021Y-166.35
X118.721Y-166.35
X106.071Y-123.5
X118.771Y-123.5
X150.793Y-166.35
X163.493Y-166.35
X150.843Y-123.5
X163.543Y-123.5
X195.564Y-166.35
X208.264Y-166.35
X195.614Y-123.5
X208.314Y-123.5
X83.636Y-166.35
X96.336Y-166.35
X83.686Y-123.5
X96.386Y-123.5
X127.85Y-166.35
X140.55Y-166.35
X128.3Y-123.5
X141.0Y-123.5
X173.179Y-166.35
X185.879Y-166.35
T0
M30
