%TF.GenerationSoftware,KiCad,Pcbnew,(5.1.7-0-10_14)*%
%TF.CreationDate,2020-11-05T14:27:50-03:00*%
%TF.ProjectId,macedo module 2,6d616365-646f-4206-9d6f-64756c652032,rev?*%
%TF.SameCoordinates,Original*%
%TF.FileFunction,Paste,Bot*%
%TF.FilePolarity,Positive*%
%FSLAX46Y46*%
G04 Gerber Fmt 4.6, Leading zero omitted, Abs format (unit mm)*
G04 Created by KiCad (PCBNEW (5.1.7-0-10_14)) date 2020-11-05 14:27:50*
%MOMM*%
%LPD*%
G01*
G04 APERTURE LIST*
%ADD10R,0.650000X1.950000*%
G04 APERTURE END LIST*
D10*
%TO.C,cd4067d1*%
X135565000Y-140225000D03*
X136835000Y-140225000D03*
X138105000Y-140225000D03*
X139375000Y-140225000D03*
X140645000Y-140225000D03*
X141915000Y-140225000D03*
X143185000Y-140225000D03*
X144455000Y-140225000D03*
X145725000Y-140225000D03*
X146995000Y-140225000D03*
X148265000Y-140225000D03*
X149535000Y-140225000D03*
X149535000Y-149675000D03*
X148265000Y-149675000D03*
X146995000Y-149675000D03*
X145725000Y-149675000D03*
X144455000Y-149675000D03*
X143185000Y-149675000D03*
X141915000Y-149675000D03*
X140645000Y-149675000D03*
X139375000Y-149675000D03*
X138105000Y-149675000D03*
X136835000Y-149675000D03*
X135565000Y-149675000D03*
%TD*%
%TO.C,74hc595*%
G36*
G01*
X99595000Y-143500000D02*
X99295000Y-143500000D01*
G75*
G02*
X99145000Y-143350000I0J150000D01*
G01*
X99145000Y-141700000D01*
G75*
G02*
X99295000Y-141550000I150000J0D01*
G01*
X99595000Y-141550000D01*
G75*
G02*
X99745000Y-141700000I0J-150000D01*
G01*
X99745000Y-143350000D01*
G75*
G02*
X99595000Y-143500000I-150000J0D01*
G01*
G37*
G36*
G01*
X98325000Y-143500000D02*
X98025000Y-143500000D01*
G75*
G02*
X97875000Y-143350000I0J150000D01*
G01*
X97875000Y-141700000D01*
G75*
G02*
X98025000Y-141550000I150000J0D01*
G01*
X98325000Y-141550000D01*
G75*
G02*
X98475000Y-141700000I0J-150000D01*
G01*
X98475000Y-143350000D01*
G75*
G02*
X98325000Y-143500000I-150000J0D01*
G01*
G37*
G36*
G01*
X97055000Y-143500000D02*
X96755000Y-143500000D01*
G75*
G02*
X96605000Y-143350000I0J150000D01*
G01*
X96605000Y-141700000D01*
G75*
G02*
X96755000Y-141550000I150000J0D01*
G01*
X97055000Y-141550000D01*
G75*
G02*
X97205000Y-141700000I0J-150000D01*
G01*
X97205000Y-143350000D01*
G75*
G02*
X97055000Y-143500000I-150000J0D01*
G01*
G37*
G36*
G01*
X95785000Y-143500000D02*
X95485000Y-143500000D01*
G75*
G02*
X95335000Y-143350000I0J150000D01*
G01*
X95335000Y-141700000D01*
G75*
G02*
X95485000Y-141550000I150000J0D01*
G01*
X95785000Y-141550000D01*
G75*
G02*
X95935000Y-141700000I0J-150000D01*
G01*
X95935000Y-143350000D01*
G75*
G02*
X95785000Y-143500000I-150000J0D01*
G01*
G37*
G36*
G01*
X94515000Y-143500000D02*
X94215000Y-143500000D01*
G75*
G02*
X94065000Y-143350000I0J150000D01*
G01*
X94065000Y-141700000D01*
G75*
G02*
X94215000Y-141550000I150000J0D01*
G01*
X94515000Y-141550000D01*
G75*
G02*
X94665000Y-141700000I0J-150000D01*
G01*
X94665000Y-143350000D01*
G75*
G02*
X94515000Y-143500000I-150000J0D01*
G01*
G37*
G36*
G01*
X93245000Y-143500000D02*
X92945000Y-143500000D01*
G75*
G02*
X92795000Y-143350000I0J150000D01*
G01*
X92795000Y-141700000D01*
G75*
G02*
X92945000Y-141550000I150000J0D01*
G01*
X93245000Y-141550000D01*
G75*
G02*
X93395000Y-141700000I0J-150000D01*
G01*
X93395000Y-143350000D01*
G75*
G02*
X93245000Y-143500000I-150000J0D01*
G01*
G37*
G36*
G01*
X91975000Y-143500000D02*
X91675000Y-143500000D01*
G75*
G02*
X91525000Y-143350000I0J150000D01*
G01*
X91525000Y-141700000D01*
G75*
G02*
X91675000Y-141550000I150000J0D01*
G01*
X91975000Y-141550000D01*
G75*
G02*
X92125000Y-141700000I0J-150000D01*
G01*
X92125000Y-143350000D01*
G75*
G02*
X91975000Y-143500000I-150000J0D01*
G01*
G37*
G36*
G01*
X90705000Y-143500000D02*
X90405000Y-143500000D01*
G75*
G02*
X90255000Y-143350000I0J150000D01*
G01*
X90255000Y-141700000D01*
G75*
G02*
X90405000Y-141550000I150000J0D01*
G01*
X90705000Y-141550000D01*
G75*
G02*
X90855000Y-141700000I0J-150000D01*
G01*
X90855000Y-143350000D01*
G75*
G02*
X90705000Y-143500000I-150000J0D01*
G01*
G37*
G36*
G01*
X90705000Y-148450000D02*
X90405000Y-148450000D01*
G75*
G02*
X90255000Y-148300000I0J150000D01*
G01*
X90255000Y-146650000D01*
G75*
G02*
X90405000Y-146500000I150000J0D01*
G01*
X90705000Y-146500000D01*
G75*
G02*
X90855000Y-146650000I0J-150000D01*
G01*
X90855000Y-148300000D01*
G75*
G02*
X90705000Y-148450000I-150000J0D01*
G01*
G37*
G36*
G01*
X91975000Y-148450000D02*
X91675000Y-148450000D01*
G75*
G02*
X91525000Y-148300000I0J150000D01*
G01*
X91525000Y-146650000D01*
G75*
G02*
X91675000Y-146500000I150000J0D01*
G01*
X91975000Y-146500000D01*
G75*
G02*
X92125000Y-146650000I0J-150000D01*
G01*
X92125000Y-148300000D01*
G75*
G02*
X91975000Y-148450000I-150000J0D01*
G01*
G37*
G36*
G01*
X93245000Y-148450000D02*
X92945000Y-148450000D01*
G75*
G02*
X92795000Y-148300000I0J150000D01*
G01*
X92795000Y-146650000D01*
G75*
G02*
X92945000Y-146500000I150000J0D01*
G01*
X93245000Y-146500000D01*
G75*
G02*
X93395000Y-146650000I0J-150000D01*
G01*
X93395000Y-148300000D01*
G75*
G02*
X93245000Y-148450000I-150000J0D01*
G01*
G37*
G36*
G01*
X94515000Y-148450000D02*
X94215000Y-148450000D01*
G75*
G02*
X94065000Y-148300000I0J150000D01*
G01*
X94065000Y-146650000D01*
G75*
G02*
X94215000Y-146500000I150000J0D01*
G01*
X94515000Y-146500000D01*
G75*
G02*
X94665000Y-146650000I0J-150000D01*
G01*
X94665000Y-148300000D01*
G75*
G02*
X94515000Y-148450000I-150000J0D01*
G01*
G37*
G36*
G01*
X95785000Y-148450000D02*
X95485000Y-148450000D01*
G75*
G02*
X95335000Y-148300000I0J150000D01*
G01*
X95335000Y-146650000D01*
G75*
G02*
X95485000Y-146500000I150000J0D01*
G01*
X95785000Y-146500000D01*
G75*
G02*
X95935000Y-146650000I0J-150000D01*
G01*
X95935000Y-148300000D01*
G75*
G02*
X95785000Y-148450000I-150000J0D01*
G01*
G37*
G36*
G01*
X97055000Y-148450000D02*
X96755000Y-148450000D01*
G75*
G02*
X96605000Y-148300000I0J150000D01*
G01*
X96605000Y-146650000D01*
G75*
G02*
X96755000Y-146500000I150000J0D01*
G01*
X97055000Y-146500000D01*
G75*
G02*
X97205000Y-146650000I0J-150000D01*
G01*
X97205000Y-148300000D01*
G75*
G02*
X97055000Y-148450000I-150000J0D01*
G01*
G37*
G36*
G01*
X98325000Y-148450000D02*
X98025000Y-148450000D01*
G75*
G02*
X97875000Y-148300000I0J150000D01*
G01*
X97875000Y-146650000D01*
G75*
G02*
X98025000Y-146500000I150000J0D01*
G01*
X98325000Y-146500000D01*
G75*
G02*
X98475000Y-146650000I0J-150000D01*
G01*
X98475000Y-148300000D01*
G75*
G02*
X98325000Y-148450000I-150000J0D01*
G01*
G37*
G36*
G01*
X99595000Y-148450000D02*
X99295000Y-148450000D01*
G75*
G02*
X99145000Y-148300000I0J150000D01*
G01*
X99145000Y-146650000D01*
G75*
G02*
X99295000Y-146500000I150000J0D01*
G01*
X99595000Y-146500000D01*
G75*
G02*
X99745000Y-146650000I0J-150000D01*
G01*
X99745000Y-148300000D01*
G75*
G02*
X99595000Y-148450000I-150000J0D01*
G01*
G37*
%TD*%
%TO.C,74hc595_2*%
G36*
G01*
X200595000Y-148450000D02*
X200295000Y-148450000D01*
G75*
G02*
X200145000Y-148300000I0J150000D01*
G01*
X200145000Y-146650000D01*
G75*
G02*
X200295000Y-146500000I150000J0D01*
G01*
X200595000Y-146500000D01*
G75*
G02*
X200745000Y-146650000I0J-150000D01*
G01*
X200745000Y-148300000D01*
G75*
G02*
X200595000Y-148450000I-150000J0D01*
G01*
G37*
G36*
G01*
X199325000Y-148450000D02*
X199025000Y-148450000D01*
G75*
G02*
X198875000Y-148300000I0J150000D01*
G01*
X198875000Y-146650000D01*
G75*
G02*
X199025000Y-146500000I150000J0D01*
G01*
X199325000Y-146500000D01*
G75*
G02*
X199475000Y-146650000I0J-150000D01*
G01*
X199475000Y-148300000D01*
G75*
G02*
X199325000Y-148450000I-150000J0D01*
G01*
G37*
G36*
G01*
X198055000Y-148450000D02*
X197755000Y-148450000D01*
G75*
G02*
X197605000Y-148300000I0J150000D01*
G01*
X197605000Y-146650000D01*
G75*
G02*
X197755000Y-146500000I150000J0D01*
G01*
X198055000Y-146500000D01*
G75*
G02*
X198205000Y-146650000I0J-150000D01*
G01*
X198205000Y-148300000D01*
G75*
G02*
X198055000Y-148450000I-150000J0D01*
G01*
G37*
G36*
G01*
X196785000Y-148450000D02*
X196485000Y-148450000D01*
G75*
G02*
X196335000Y-148300000I0J150000D01*
G01*
X196335000Y-146650000D01*
G75*
G02*
X196485000Y-146500000I150000J0D01*
G01*
X196785000Y-146500000D01*
G75*
G02*
X196935000Y-146650000I0J-150000D01*
G01*
X196935000Y-148300000D01*
G75*
G02*
X196785000Y-148450000I-150000J0D01*
G01*
G37*
G36*
G01*
X195515000Y-148450000D02*
X195215000Y-148450000D01*
G75*
G02*
X195065000Y-148300000I0J150000D01*
G01*
X195065000Y-146650000D01*
G75*
G02*
X195215000Y-146500000I150000J0D01*
G01*
X195515000Y-146500000D01*
G75*
G02*
X195665000Y-146650000I0J-150000D01*
G01*
X195665000Y-148300000D01*
G75*
G02*
X195515000Y-148450000I-150000J0D01*
G01*
G37*
G36*
G01*
X194245000Y-148450000D02*
X193945000Y-148450000D01*
G75*
G02*
X193795000Y-148300000I0J150000D01*
G01*
X193795000Y-146650000D01*
G75*
G02*
X193945000Y-146500000I150000J0D01*
G01*
X194245000Y-146500000D01*
G75*
G02*
X194395000Y-146650000I0J-150000D01*
G01*
X194395000Y-148300000D01*
G75*
G02*
X194245000Y-148450000I-150000J0D01*
G01*
G37*
G36*
G01*
X192975000Y-148450000D02*
X192675000Y-148450000D01*
G75*
G02*
X192525000Y-148300000I0J150000D01*
G01*
X192525000Y-146650000D01*
G75*
G02*
X192675000Y-146500000I150000J0D01*
G01*
X192975000Y-146500000D01*
G75*
G02*
X193125000Y-146650000I0J-150000D01*
G01*
X193125000Y-148300000D01*
G75*
G02*
X192975000Y-148450000I-150000J0D01*
G01*
G37*
G36*
G01*
X191705000Y-148450000D02*
X191405000Y-148450000D01*
G75*
G02*
X191255000Y-148300000I0J150000D01*
G01*
X191255000Y-146650000D01*
G75*
G02*
X191405000Y-146500000I150000J0D01*
G01*
X191705000Y-146500000D01*
G75*
G02*
X191855000Y-146650000I0J-150000D01*
G01*
X191855000Y-148300000D01*
G75*
G02*
X191705000Y-148450000I-150000J0D01*
G01*
G37*
G36*
G01*
X191705000Y-143500000D02*
X191405000Y-143500000D01*
G75*
G02*
X191255000Y-143350000I0J150000D01*
G01*
X191255000Y-141700000D01*
G75*
G02*
X191405000Y-141550000I150000J0D01*
G01*
X191705000Y-141550000D01*
G75*
G02*
X191855000Y-141700000I0J-150000D01*
G01*
X191855000Y-143350000D01*
G75*
G02*
X191705000Y-143500000I-150000J0D01*
G01*
G37*
G36*
G01*
X192975000Y-143500000D02*
X192675000Y-143500000D01*
G75*
G02*
X192525000Y-143350000I0J150000D01*
G01*
X192525000Y-141700000D01*
G75*
G02*
X192675000Y-141550000I150000J0D01*
G01*
X192975000Y-141550000D01*
G75*
G02*
X193125000Y-141700000I0J-150000D01*
G01*
X193125000Y-143350000D01*
G75*
G02*
X192975000Y-143500000I-150000J0D01*
G01*
G37*
G36*
G01*
X194245000Y-143500000D02*
X193945000Y-143500000D01*
G75*
G02*
X193795000Y-143350000I0J150000D01*
G01*
X193795000Y-141700000D01*
G75*
G02*
X193945000Y-141550000I150000J0D01*
G01*
X194245000Y-141550000D01*
G75*
G02*
X194395000Y-141700000I0J-150000D01*
G01*
X194395000Y-143350000D01*
G75*
G02*
X194245000Y-143500000I-150000J0D01*
G01*
G37*
G36*
G01*
X195515000Y-143500000D02*
X195215000Y-143500000D01*
G75*
G02*
X195065000Y-143350000I0J150000D01*
G01*
X195065000Y-141700000D01*
G75*
G02*
X195215000Y-141550000I150000J0D01*
G01*
X195515000Y-141550000D01*
G75*
G02*
X195665000Y-141700000I0J-150000D01*
G01*
X195665000Y-143350000D01*
G75*
G02*
X195515000Y-143500000I-150000J0D01*
G01*
G37*
G36*
G01*
X196785000Y-143500000D02*
X196485000Y-143500000D01*
G75*
G02*
X196335000Y-143350000I0J150000D01*
G01*
X196335000Y-141700000D01*
G75*
G02*
X196485000Y-141550000I150000J0D01*
G01*
X196785000Y-141550000D01*
G75*
G02*
X196935000Y-141700000I0J-150000D01*
G01*
X196935000Y-143350000D01*
G75*
G02*
X196785000Y-143500000I-150000J0D01*
G01*
G37*
G36*
G01*
X198055000Y-143500000D02*
X197755000Y-143500000D01*
G75*
G02*
X197605000Y-143350000I0J150000D01*
G01*
X197605000Y-141700000D01*
G75*
G02*
X197755000Y-141550000I150000J0D01*
G01*
X198055000Y-141550000D01*
G75*
G02*
X198205000Y-141700000I0J-150000D01*
G01*
X198205000Y-143350000D01*
G75*
G02*
X198055000Y-143500000I-150000J0D01*
G01*
G37*
G36*
G01*
X199325000Y-143500000D02*
X199025000Y-143500000D01*
G75*
G02*
X198875000Y-143350000I0J150000D01*
G01*
X198875000Y-141700000D01*
G75*
G02*
X199025000Y-141550000I150000J0D01*
G01*
X199325000Y-141550000D01*
G75*
G02*
X199475000Y-141700000I0J-150000D01*
G01*
X199475000Y-143350000D01*
G75*
G02*
X199325000Y-143500000I-150000J0D01*
G01*
G37*
G36*
G01*
X200595000Y-143500000D02*
X200295000Y-143500000D01*
G75*
G02*
X200145000Y-143350000I0J150000D01*
G01*
X200145000Y-141700000D01*
G75*
G02*
X200295000Y-141550000I150000J0D01*
G01*
X200595000Y-141550000D01*
G75*
G02*
X200745000Y-141700000I0J-150000D01*
G01*
X200745000Y-143350000D01*
G75*
G02*
X200595000Y-143500000I-150000J0D01*
G01*
G37*
%TD*%
M02*
