G04 #@! TF.GenerationSoftware,KiCad,Pcbnew,(5.1.2-1)-1*
G04 #@! TF.CreationDate,2019-07-10T19:42:19-04:00*
G04 #@! TF.ProjectId,SuperMux,53757065-724d-4757-982e-6b696361645f,rev?*
G04 #@! TF.SameCoordinates,Original*
G04 #@! TF.FileFunction,Legend,Top*
G04 #@! TF.FilePolarity,Positive*
%FSLAX46Y46*%
G04 Gerber Fmt 4.6, Leading zero omitted, Abs format (unit mm)*
G04 Created by KiCad (PCBNEW (5.1.2-1)-1) date 2019-07-10 19:42:19*
%MOMM*%
%LPD*%
G04 APERTURE LIST*
%ADD10C,0.150000*%
%ADD11C,0.120000*%
G04 APERTURE END LIST*
D10*
X210238095Y-65285714D02*
X210238095Y-66285714D01*
X210238095Y-65333333D02*
X210333333Y-65285714D01*
X210523809Y-65285714D01*
X210619047Y-65333333D01*
X210666666Y-65380952D01*
X210714285Y-65476190D01*
X210714285Y-65761904D01*
X210666666Y-65857142D01*
X210619047Y-65904761D01*
X210523809Y-65952380D01*
X210333333Y-65952380D01*
X210238095Y-65904761D01*
X211142857Y-65952380D02*
X211142857Y-65285714D01*
X211142857Y-64952380D02*
X211095238Y-65000000D01*
X211142857Y-65047619D01*
X211190476Y-65000000D01*
X211142857Y-64952380D01*
X211142857Y-65047619D01*
X211619047Y-65285714D02*
X211619047Y-65952380D01*
X211619047Y-65380952D02*
X211666666Y-65333333D01*
X211761904Y-65285714D01*
X211904761Y-65285714D01*
X212000000Y-65333333D01*
X212047619Y-65428571D01*
X212047619Y-65952380D01*
X213238095Y-65047619D02*
X213285714Y-65000000D01*
X213380952Y-64952380D01*
X213619047Y-64952380D01*
X213714285Y-65000000D01*
X213761904Y-65047619D01*
X213809523Y-65142857D01*
X213809523Y-65238095D01*
X213761904Y-65380952D01*
X213190476Y-65952380D01*
X213809523Y-65952380D01*
X210238095Y-62785714D02*
X210238095Y-63785714D01*
X210238095Y-62833333D02*
X210333333Y-62785714D01*
X210523809Y-62785714D01*
X210619047Y-62833333D01*
X210666666Y-62880952D01*
X210714285Y-62976190D01*
X210714285Y-63261904D01*
X210666666Y-63357142D01*
X210619047Y-63404761D01*
X210523809Y-63452380D01*
X210333333Y-63452380D01*
X210238095Y-63404761D01*
X211142857Y-63452380D02*
X211142857Y-62785714D01*
X211142857Y-62452380D02*
X211095238Y-62500000D01*
X211142857Y-62547619D01*
X211190476Y-62500000D01*
X211142857Y-62452380D01*
X211142857Y-62547619D01*
X211619047Y-62785714D02*
X211619047Y-63452380D01*
X211619047Y-62880952D02*
X211666666Y-62833333D01*
X211761904Y-62785714D01*
X211904761Y-62785714D01*
X212000000Y-62833333D01*
X212047619Y-62928571D01*
X212047619Y-63452380D01*
X213714285Y-62785714D02*
X213714285Y-63452380D01*
X213476190Y-62404761D02*
X213238095Y-63119047D01*
X213857142Y-63119047D01*
X210238095Y-60285714D02*
X210238095Y-61285714D01*
X210238095Y-60333333D02*
X210333333Y-60285714D01*
X210523809Y-60285714D01*
X210619047Y-60333333D01*
X210666666Y-60380952D01*
X210714285Y-60476190D01*
X210714285Y-60761904D01*
X210666666Y-60857142D01*
X210619047Y-60904761D01*
X210523809Y-60952380D01*
X210333333Y-60952380D01*
X210238095Y-60904761D01*
X211142857Y-60952380D02*
X211142857Y-60285714D01*
X211142857Y-59952380D02*
X211095238Y-60000000D01*
X211142857Y-60047619D01*
X211190476Y-60000000D01*
X211142857Y-59952380D01*
X211142857Y-60047619D01*
X211619047Y-60285714D02*
X211619047Y-60952380D01*
X211619047Y-60380952D02*
X211666666Y-60333333D01*
X211761904Y-60285714D01*
X211904761Y-60285714D01*
X212000000Y-60333333D01*
X212047619Y-60428571D01*
X212047619Y-60952380D01*
X213761904Y-59952380D02*
X213285714Y-59952380D01*
X213238095Y-60428571D01*
X213285714Y-60380952D01*
X213380952Y-60333333D01*
X213619047Y-60333333D01*
X213714285Y-60380952D01*
X213761904Y-60428571D01*
X213809523Y-60523809D01*
X213809523Y-60761904D01*
X213761904Y-60857142D01*
X213714285Y-60904761D01*
X213619047Y-60952380D01*
X213380952Y-60952380D01*
X213285714Y-60904761D01*
X213238095Y-60857142D01*
X201958095Y-72645714D02*
X201958095Y-73645714D01*
X201958095Y-72693333D02*
X202053333Y-72645714D01*
X202243809Y-72645714D01*
X202339047Y-72693333D01*
X202386666Y-72740952D01*
X202434285Y-72836190D01*
X202434285Y-73121904D01*
X202386666Y-73217142D01*
X202339047Y-73264761D01*
X202243809Y-73312380D01*
X202053333Y-73312380D01*
X201958095Y-73264761D01*
X202862857Y-73312380D02*
X202862857Y-72645714D01*
X202862857Y-72312380D02*
X202815238Y-72360000D01*
X202862857Y-72407619D01*
X202910476Y-72360000D01*
X202862857Y-72312380D01*
X202862857Y-72407619D01*
X203339047Y-72645714D02*
X203339047Y-73312380D01*
X203339047Y-72740952D02*
X203386666Y-72693333D01*
X203481904Y-72645714D01*
X203624761Y-72645714D01*
X203720000Y-72693333D01*
X203767619Y-72788571D01*
X203767619Y-73312380D01*
X205434285Y-72645714D02*
X205434285Y-73312380D01*
X205196190Y-72264761D02*
X204958095Y-72979047D01*
X205577142Y-72979047D01*
X202058095Y-75645714D02*
X202058095Y-76645714D01*
X202058095Y-75693333D02*
X202153333Y-75645714D01*
X202343809Y-75645714D01*
X202439047Y-75693333D01*
X202486666Y-75740952D01*
X202534285Y-75836190D01*
X202534285Y-76121904D01*
X202486666Y-76217142D01*
X202439047Y-76264761D01*
X202343809Y-76312380D01*
X202153333Y-76312380D01*
X202058095Y-76264761D01*
X202962857Y-76312380D02*
X202962857Y-75645714D01*
X202962857Y-75312380D02*
X202915238Y-75360000D01*
X202962857Y-75407619D01*
X203010476Y-75360000D01*
X202962857Y-75312380D01*
X202962857Y-75407619D01*
X203439047Y-75645714D02*
X203439047Y-76312380D01*
X203439047Y-75740952D02*
X203486666Y-75693333D01*
X203581904Y-75645714D01*
X203724761Y-75645714D01*
X203820000Y-75693333D01*
X203867619Y-75788571D01*
X203867619Y-76312380D01*
X205581904Y-75312380D02*
X205105714Y-75312380D01*
X205058095Y-75788571D01*
X205105714Y-75740952D01*
X205200952Y-75693333D01*
X205439047Y-75693333D01*
X205534285Y-75740952D01*
X205581904Y-75788571D01*
X205629523Y-75883809D01*
X205629523Y-76121904D01*
X205581904Y-76217142D01*
X205534285Y-76264761D01*
X205439047Y-76312380D01*
X205200952Y-76312380D01*
X205105714Y-76264761D01*
X205058095Y-76217142D01*
D11*
X55670000Y-118510000D02*
X88440000Y-118510000D01*
X88440000Y-118510000D02*
X90980000Y-115970000D01*
X90980000Y-115970000D02*
X93650000Y-115970000D01*
X93650000Y-115970000D02*
X93650000Y-49670000D01*
X93650000Y-49670000D02*
X90470000Y-49670000D01*
X90470000Y-49670000D02*
X90470000Y-47770000D01*
X90470000Y-47770000D02*
X81330000Y-47770000D01*
X81330000Y-47770000D02*
X81330000Y-49670000D01*
X81330000Y-49670000D02*
X61260000Y-49670000D01*
X61260000Y-49670000D02*
X61260000Y-43320000D01*
X61260000Y-43320000D02*
X49580000Y-43320000D01*
X49580000Y-43320000D02*
X49580000Y-49670000D01*
X49580000Y-49670000D02*
X40050000Y-49670000D01*
X40050000Y-49670000D02*
X40050000Y-114320000D01*
X40050000Y-114320000D02*
X41700000Y-115970000D01*
X41700000Y-115970000D02*
X53130000Y-115970000D01*
X53130000Y-115970000D02*
X55670000Y-118510000D01*
X96000000Y-69120000D02*
G75*
G02X96000000Y-71120000I0J-1000000D01*
G01*
X96000000Y-71120000D02*
X96000000Y-76180000D01*
X96000000Y-76180000D02*
X126600000Y-76180000D01*
X126600000Y-76180000D02*
X126600000Y-64060000D01*
X126600000Y-64060000D02*
X96000000Y-64060000D01*
X96000000Y-64060000D02*
X96000000Y-69120000D01*
X98540000Y-86570000D02*
X98540000Y-89230000D01*
X116380000Y-86570000D02*
X98540000Y-86570000D01*
X116380000Y-89230000D02*
X98540000Y-89230000D01*
X116380000Y-86570000D02*
X116380000Y-89230000D01*
X117650000Y-86570000D02*
X118980000Y-86570000D01*
X118980000Y-86570000D02*
X118980000Y-87900000D01*
X98540000Y-56210000D02*
X98540000Y-54880000D01*
X99870000Y-56210000D02*
X98540000Y-56210000D01*
X101140000Y-56210000D02*
X101140000Y-53550000D01*
X101140000Y-53550000D02*
X118980000Y-53550000D01*
X101140000Y-56210000D02*
X118980000Y-56210000D01*
X118980000Y-56210000D02*
X118980000Y-53550000D01*
X131560000Y-86570000D02*
X131560000Y-89230000D01*
X149400000Y-86570000D02*
X131560000Y-86570000D01*
X149400000Y-89230000D02*
X131560000Y-89230000D01*
X149400000Y-86570000D02*
X149400000Y-89230000D01*
X150670000Y-86570000D02*
X152000000Y-86570000D01*
X152000000Y-86570000D02*
X152000000Y-87900000D01*
X131560000Y-56210000D02*
X131560000Y-54880000D01*
X132890000Y-56210000D02*
X131560000Y-56210000D01*
X134160000Y-56210000D02*
X134160000Y-53550000D01*
X134160000Y-53550000D02*
X152000000Y-53550000D01*
X134160000Y-56210000D02*
X152000000Y-56210000D01*
X152000000Y-56210000D02*
X152000000Y-53550000D01*
X164580000Y-86570000D02*
X164580000Y-89230000D01*
X182420000Y-86570000D02*
X164580000Y-86570000D01*
X182420000Y-89230000D02*
X164580000Y-89230000D01*
X182420000Y-86570000D02*
X182420000Y-89230000D01*
X183690000Y-86570000D02*
X185020000Y-86570000D01*
X185020000Y-86570000D02*
X185020000Y-87900000D01*
X164580000Y-56210000D02*
X164580000Y-54880000D01*
X165910000Y-56210000D02*
X164580000Y-56210000D01*
X167180000Y-56210000D02*
X167180000Y-53550000D01*
X167180000Y-53550000D02*
X185020000Y-53550000D01*
X167180000Y-56210000D02*
X185020000Y-56210000D01*
X185020000Y-56210000D02*
X185020000Y-53550000D01*
X98540000Y-124670000D02*
X98540000Y-127330000D01*
X116380000Y-124670000D02*
X98540000Y-124670000D01*
X116380000Y-127330000D02*
X98540000Y-127330000D01*
X116380000Y-124670000D02*
X116380000Y-127330000D01*
X117650000Y-124670000D02*
X118980000Y-124670000D01*
X118980000Y-124670000D02*
X118980000Y-126000000D01*
X98540000Y-95580000D02*
X98540000Y-94250000D01*
X99870000Y-95580000D02*
X98540000Y-95580000D01*
X101140000Y-95580000D02*
X101140000Y-92920000D01*
X101140000Y-92920000D02*
X118980000Y-92920000D01*
X101140000Y-95580000D02*
X118980000Y-95580000D01*
X118980000Y-95580000D02*
X118980000Y-92920000D01*
X131560000Y-124670000D02*
X131560000Y-127330000D01*
X149400000Y-124670000D02*
X131560000Y-124670000D01*
X149400000Y-127330000D02*
X131560000Y-127330000D01*
X149400000Y-124670000D02*
X149400000Y-127330000D01*
X150670000Y-124670000D02*
X152000000Y-124670000D01*
X152000000Y-124670000D02*
X152000000Y-126000000D01*
X131560000Y-95580000D02*
X131560000Y-94250000D01*
X132890000Y-95580000D02*
X131560000Y-95580000D01*
X134160000Y-95580000D02*
X134160000Y-92920000D01*
X134160000Y-92920000D02*
X152000000Y-92920000D01*
X134160000Y-95580000D02*
X152000000Y-95580000D01*
X152000000Y-95580000D02*
X152000000Y-92920000D01*
X164580000Y-124670000D02*
X164580000Y-127330000D01*
X182420000Y-124670000D02*
X164580000Y-124670000D01*
X182420000Y-127330000D02*
X164580000Y-127330000D01*
X182420000Y-124670000D02*
X182420000Y-127330000D01*
X183690000Y-124670000D02*
X185020000Y-124670000D01*
X185020000Y-124670000D02*
X185020000Y-126000000D01*
X164580000Y-95580000D02*
X164580000Y-94250000D01*
X165910000Y-95580000D02*
X164580000Y-95580000D01*
X167180000Y-95580000D02*
X167180000Y-92920000D01*
X167180000Y-92920000D02*
X185020000Y-92920000D01*
X167180000Y-95580000D02*
X185020000Y-95580000D01*
X185020000Y-95580000D02*
X185020000Y-92920000D01*
X68060000Y-124670000D02*
X68060000Y-127330000D01*
X85900000Y-124670000D02*
X68060000Y-124670000D01*
X85900000Y-127330000D02*
X68060000Y-127330000D01*
X85900000Y-124670000D02*
X85900000Y-127330000D01*
X87170000Y-124670000D02*
X88500000Y-124670000D01*
X88500000Y-124670000D02*
X88500000Y-126000000D01*
X55360000Y-124670000D02*
X55360000Y-127330000D01*
X57960000Y-124670000D02*
X55360000Y-124670000D01*
X57960000Y-127330000D02*
X55360000Y-127330000D01*
X57960000Y-124670000D02*
X57960000Y-127330000D01*
X59230000Y-124670000D02*
X60560000Y-124670000D01*
X60560000Y-124670000D02*
X60560000Y-126000000D01*
X129020000Y-69120000D02*
G75*
G02X129020000Y-71120000I0J-1000000D01*
G01*
X129020000Y-71120000D02*
X129020000Y-76180000D01*
X129020000Y-76180000D02*
X159620000Y-76180000D01*
X159620000Y-76180000D02*
X159620000Y-64060000D01*
X159620000Y-64060000D02*
X129020000Y-64060000D01*
X129020000Y-64060000D02*
X129020000Y-69120000D01*
X162040000Y-64060000D02*
X162040000Y-69120000D01*
X192640000Y-64060000D02*
X162040000Y-64060000D01*
X192640000Y-76180000D02*
X192640000Y-64060000D01*
X162040000Y-76180000D02*
X192640000Y-76180000D01*
X162040000Y-71120000D02*
X162040000Y-76180000D01*
X162040000Y-69120000D02*
G75*
G02X162040000Y-71120000I0J-1000000D01*
G01*
X96000000Y-104700000D02*
X96000000Y-109760000D01*
X126600000Y-104700000D02*
X96000000Y-104700000D01*
X126600000Y-116820000D02*
X126600000Y-104700000D01*
X96000000Y-116820000D02*
X126600000Y-116820000D01*
X96000000Y-111760000D02*
X96000000Y-116820000D01*
X96000000Y-109760000D02*
G75*
G02X96000000Y-111760000I0J-1000000D01*
G01*
X129020000Y-109760000D02*
G75*
G02X129020000Y-111760000I0J-1000000D01*
G01*
X129020000Y-111760000D02*
X129020000Y-116820000D01*
X129020000Y-116820000D02*
X159620000Y-116820000D01*
X159620000Y-116820000D02*
X159620000Y-104700000D01*
X159620000Y-104700000D02*
X129020000Y-104700000D01*
X129020000Y-104700000D02*
X129020000Y-109760000D01*
X162040000Y-109760000D02*
G75*
G02X162040000Y-111760000I0J-1000000D01*
G01*
X162040000Y-111760000D02*
X162040000Y-116820000D01*
X162040000Y-116820000D02*
X192640000Y-116820000D01*
X192640000Y-116820000D02*
X192640000Y-104700000D01*
X192640000Y-104700000D02*
X162040000Y-104700000D01*
X162040000Y-104700000D02*
X162040000Y-109760000D01*
X203250000Y-106250000D02*
X203250000Y-110190000D01*
X203250000Y-110190000D02*
X212390000Y-110190000D01*
X212390000Y-110190000D02*
X212390000Y-106250000D01*
X212390000Y-106250000D02*
X203250000Y-106250000D01*
X203110000Y-108220000D02*
X203250000Y-108220000D01*
X212530000Y-108220000D02*
X212390000Y-108220000D01*
X204705000Y-106250000D02*
X204705000Y-110190000D01*
X204825000Y-106250000D02*
X204825000Y-110190000D01*
X204585000Y-106250000D02*
X204585000Y-110190000D01*
X209330000Y-74230000D02*
X206670000Y-74230000D01*
X209330000Y-74230000D02*
X209330000Y-71630000D01*
X209330000Y-71630000D02*
X206670000Y-71630000D01*
X206670000Y-74230000D02*
X206670000Y-71630000D01*
X206670000Y-76830000D02*
X206670000Y-75500000D01*
X208000000Y-76830000D02*
X206670000Y-76830000D01*
X204550000Y-78910000D02*
X204550000Y-81650000D01*
X204550000Y-81650000D02*
X211090000Y-81650000D01*
X211090000Y-81650000D02*
X211090000Y-78910000D01*
X211090000Y-78910000D02*
X204550000Y-78910000D01*
X203780000Y-80280000D02*
X204550000Y-80280000D01*
X211860000Y-80280000D02*
X211090000Y-80280000D01*
X204550000Y-101770000D02*
X204550000Y-104510000D01*
X204550000Y-104510000D02*
X211090000Y-104510000D01*
X211090000Y-104510000D02*
X211090000Y-101770000D01*
X211090000Y-101770000D02*
X204550000Y-101770000D01*
X203780000Y-103140000D02*
X204550000Y-103140000D01*
X211860000Y-103140000D02*
X211090000Y-103140000D01*
X211860000Y-98060000D02*
X211090000Y-98060000D01*
X203780000Y-98060000D02*
X204550000Y-98060000D01*
X211090000Y-96690000D02*
X204550000Y-96690000D01*
X211090000Y-99430000D02*
X211090000Y-96690000D01*
X204550000Y-99430000D02*
X211090000Y-99430000D01*
X204550000Y-96690000D02*
X204550000Y-99430000D01*
X212960000Y-90170000D02*
G75*
G02X212960000Y-88170000I0J1000000D01*
G01*
X212960000Y-88170000D02*
X212960000Y-86920000D01*
X212960000Y-86920000D02*
X202680000Y-86920000D01*
X202680000Y-86920000D02*
X202680000Y-91420000D01*
X202680000Y-91420000D02*
X212960000Y-91420000D01*
X212960000Y-91420000D02*
X212960000Y-90170000D01*
X45670000Y-127330000D02*
X45670000Y-126000000D01*
X47000000Y-127330000D02*
X45670000Y-127330000D01*
X48270000Y-127330000D02*
X48270000Y-124670000D01*
X48270000Y-124670000D02*
X50870000Y-124670000D01*
X48270000Y-127330000D02*
X50870000Y-127330000D01*
X50870000Y-127330000D02*
X50870000Y-124670000D01*
X206670000Y-66910000D02*
X209330000Y-66910000D01*
X206670000Y-61770000D02*
X206670000Y-66910000D01*
X209330000Y-61770000D02*
X209330000Y-66910000D01*
X206670000Y-61770000D02*
X209330000Y-61770000D01*
X206670000Y-60500000D02*
X206670000Y-59170000D01*
X206670000Y-59170000D02*
X208000000Y-59170000D01*
X202200000Y-66720000D02*
X202200000Y-65950000D01*
X202200000Y-58640000D02*
X202200000Y-59410000D01*
X203570000Y-65950000D02*
X203570000Y-59410000D01*
X200830000Y-65950000D02*
X203570000Y-65950000D01*
X200830000Y-59410000D02*
X200830000Y-65950000D01*
X203570000Y-59410000D02*
X200830000Y-59410000D01*
X196630000Y-65990000D02*
X199370000Y-65990000D01*
X199370000Y-65990000D02*
X199370000Y-59450000D01*
X199370000Y-59450000D02*
X196630000Y-59450000D01*
X196630000Y-59450000D02*
X196630000Y-65990000D01*
X198000000Y-66760000D02*
X198000000Y-65990000D01*
X198000000Y-58680000D02*
X198000000Y-59450000D01*
D10*
X94956666Y-82081428D02*
X94956666Y-81605238D01*
X95242380Y-82176666D02*
X94242380Y-81843333D01*
X95242380Y-81510000D01*
X95242380Y-81176666D02*
X94575714Y-81176666D01*
X94766190Y-81176666D02*
X94670952Y-81129047D01*
X94623333Y-81081428D01*
X94575714Y-80986190D01*
X94575714Y-80890952D01*
X95242380Y-80129047D02*
X94242380Y-80129047D01*
X95194761Y-80129047D02*
X95242380Y-80224285D01*
X95242380Y-80414761D01*
X95194761Y-80510000D01*
X95147142Y-80557619D01*
X95051904Y-80605238D01*
X94766190Y-80605238D01*
X94670952Y-80557619D01*
X94623333Y-80510000D01*
X94575714Y-80414761D01*
X94575714Y-80224285D01*
X94623333Y-80129047D01*
X94575714Y-79224285D02*
X95242380Y-79224285D01*
X94575714Y-79652857D02*
X95099523Y-79652857D01*
X95194761Y-79605238D01*
X95242380Y-79510000D01*
X95242380Y-79367142D01*
X95194761Y-79271904D01*
X95147142Y-79224285D01*
X95242380Y-78748095D02*
X94575714Y-78748095D01*
X94242380Y-78748095D02*
X94290000Y-78795714D01*
X94337619Y-78748095D01*
X94290000Y-78700476D01*
X94242380Y-78748095D01*
X94337619Y-78748095D01*
X94575714Y-78271904D02*
X95242380Y-78271904D01*
X94670952Y-78271904D02*
X94623333Y-78224285D01*
X94575714Y-78129047D01*
X94575714Y-77986190D01*
X94623333Y-77890952D01*
X94718571Y-77843333D01*
X95242380Y-77843333D01*
X95242380Y-77224285D02*
X95194761Y-77319523D01*
X95147142Y-77367142D01*
X95051904Y-77414761D01*
X94766190Y-77414761D01*
X94670952Y-77367142D01*
X94623333Y-77319523D01*
X94575714Y-77224285D01*
X94575714Y-77081428D01*
X94623333Y-76986190D01*
X94670952Y-76938571D01*
X94766190Y-76890952D01*
X95051904Y-76890952D01*
X95147142Y-76938571D01*
X95194761Y-76986190D01*
X95242380Y-77081428D01*
X95242380Y-77224285D01*
X95242380Y-75938571D02*
X95242380Y-76510000D01*
X95242380Y-76224285D02*
X94242380Y-76224285D01*
X94385238Y-76319523D01*
X94480476Y-76414761D01*
X94528095Y-76510000D01*
X95452380Y-72262857D02*
X94785714Y-72262857D01*
X94880952Y-72262857D02*
X94833333Y-72215238D01*
X94785714Y-72120000D01*
X94785714Y-71977142D01*
X94833333Y-71881904D01*
X94928571Y-71834285D01*
X95452380Y-71834285D01*
X94928571Y-71834285D02*
X94833333Y-71786666D01*
X94785714Y-71691428D01*
X94785714Y-71548571D01*
X94833333Y-71453333D01*
X94928571Y-71405714D01*
X95452380Y-71405714D01*
X94785714Y-70500952D02*
X95452380Y-70500952D01*
X94785714Y-70929523D02*
X95309523Y-70929523D01*
X95404761Y-70881904D01*
X95452380Y-70786666D01*
X95452380Y-70643809D01*
X95404761Y-70548571D01*
X95357142Y-70500952D01*
X95452380Y-70120000D02*
X94785714Y-69596190D01*
X94785714Y-70120000D02*
X95452380Y-69596190D01*
X95547619Y-69453333D02*
X95547619Y-68691428D01*
X95452380Y-67929523D02*
X95452380Y-68500952D01*
X95452380Y-68215238D02*
X94452380Y-68215238D01*
X94595238Y-68310476D01*
X94690476Y-68405714D01*
X94738095Y-68500952D01*
X103904761Y-85452380D02*
X103904761Y-84785714D01*
X103904761Y-84880952D02*
X103952380Y-84833333D01*
X104047619Y-84785714D01*
X104190476Y-84785714D01*
X104285714Y-84833333D01*
X104333333Y-84928571D01*
X104333333Y-85452380D01*
X104333333Y-84928571D02*
X104380952Y-84833333D01*
X104476190Y-84785714D01*
X104619047Y-84785714D01*
X104714285Y-84833333D01*
X104761904Y-84928571D01*
X104761904Y-85452380D01*
X105666666Y-84785714D02*
X105666666Y-85452380D01*
X105238095Y-84785714D02*
X105238095Y-85309523D01*
X105285714Y-85404761D01*
X105380952Y-85452380D01*
X105523809Y-85452380D01*
X105619047Y-85404761D01*
X105666666Y-85357142D01*
X106047619Y-85452380D02*
X106571428Y-84785714D01*
X106047619Y-84785714D02*
X106571428Y-85452380D01*
X106714285Y-85547619D02*
X107476190Y-85547619D01*
X108238095Y-85452380D02*
X107666666Y-85452380D01*
X107952380Y-85452380D02*
X107952380Y-84452380D01*
X107857142Y-84595238D01*
X107761904Y-84690476D01*
X107666666Y-84738095D01*
X108428571Y-85547619D02*
X109190476Y-85547619D01*
X109333333Y-84452380D02*
X110000000Y-84452380D01*
X109571428Y-85452380D01*
X110380952Y-85071428D02*
X111142857Y-85071428D01*
X111809523Y-84452380D02*
X111904761Y-84452380D01*
X112000000Y-84500000D01*
X112047619Y-84547619D01*
X112095238Y-84642857D01*
X112142857Y-84833333D01*
X112142857Y-85071428D01*
X112095238Y-85261904D01*
X112047619Y-85357142D01*
X112000000Y-85404761D01*
X111904761Y-85452380D01*
X111809523Y-85452380D01*
X111714285Y-85404761D01*
X111666666Y-85357142D01*
X111619047Y-85261904D01*
X111571428Y-85071428D01*
X111571428Y-84833333D01*
X111619047Y-84642857D01*
X111666666Y-84547619D01*
X111714285Y-84500000D01*
X111809523Y-84452380D01*
X104428571Y-52452380D02*
X104428571Y-51785714D01*
X104428571Y-51880952D02*
X104476190Y-51833333D01*
X104571428Y-51785714D01*
X104714285Y-51785714D01*
X104809523Y-51833333D01*
X104857142Y-51928571D01*
X104857142Y-52452380D01*
X104857142Y-51928571D02*
X104904761Y-51833333D01*
X105000000Y-51785714D01*
X105142857Y-51785714D01*
X105238095Y-51833333D01*
X105285714Y-51928571D01*
X105285714Y-52452380D01*
X106190476Y-51785714D02*
X106190476Y-52452380D01*
X105761904Y-51785714D02*
X105761904Y-52309523D01*
X105809523Y-52404761D01*
X105904761Y-52452380D01*
X106047619Y-52452380D01*
X106142857Y-52404761D01*
X106190476Y-52357142D01*
X106571428Y-52452380D02*
X107095238Y-51785714D01*
X106571428Y-51785714D02*
X107095238Y-52452380D01*
X107238095Y-52547619D02*
X108000000Y-52547619D01*
X108761904Y-52452380D02*
X108190476Y-52452380D01*
X108476190Y-52452380D02*
X108476190Y-51452380D01*
X108380952Y-51595238D01*
X108285714Y-51690476D01*
X108190476Y-51738095D01*
X108952380Y-52547619D02*
X109714285Y-52547619D01*
X110095238Y-51880952D02*
X110000000Y-51833333D01*
X109952380Y-51785714D01*
X109904761Y-51690476D01*
X109904761Y-51642857D01*
X109952380Y-51547619D01*
X110000000Y-51500000D01*
X110095238Y-51452380D01*
X110285714Y-51452380D01*
X110380952Y-51500000D01*
X110428571Y-51547619D01*
X110476190Y-51642857D01*
X110476190Y-51690476D01*
X110428571Y-51785714D01*
X110380952Y-51833333D01*
X110285714Y-51880952D01*
X110095238Y-51880952D01*
X110000000Y-51928571D01*
X109952380Y-51976190D01*
X109904761Y-52071428D01*
X109904761Y-52261904D01*
X109952380Y-52357142D01*
X110000000Y-52404761D01*
X110095238Y-52452380D01*
X110285714Y-52452380D01*
X110380952Y-52404761D01*
X110428571Y-52357142D01*
X110476190Y-52261904D01*
X110476190Y-52071428D01*
X110428571Y-51976190D01*
X110380952Y-51928571D01*
X110285714Y-51880952D01*
X110904761Y-52071428D02*
X111666666Y-52071428D01*
X112666666Y-52452380D02*
X112095238Y-52452380D01*
X112380952Y-52452380D02*
X112380952Y-51452380D01*
X112285714Y-51595238D01*
X112190476Y-51690476D01*
X112095238Y-51738095D01*
X113571428Y-51452380D02*
X113095238Y-51452380D01*
X113047619Y-51928571D01*
X113095238Y-51880952D01*
X113190476Y-51833333D01*
X113428571Y-51833333D01*
X113523809Y-51880952D01*
X113571428Y-51928571D01*
X113619047Y-52023809D01*
X113619047Y-52261904D01*
X113571428Y-52357142D01*
X113523809Y-52404761D01*
X113428571Y-52452380D01*
X113190476Y-52452380D01*
X113095238Y-52404761D01*
X113047619Y-52357142D01*
X138904761Y-85452380D02*
X138904761Y-84785714D01*
X138904761Y-84880952D02*
X138952380Y-84833333D01*
X139047619Y-84785714D01*
X139190476Y-84785714D01*
X139285714Y-84833333D01*
X139333333Y-84928571D01*
X139333333Y-85452380D01*
X139333333Y-84928571D02*
X139380952Y-84833333D01*
X139476190Y-84785714D01*
X139619047Y-84785714D01*
X139714285Y-84833333D01*
X139761904Y-84928571D01*
X139761904Y-85452380D01*
X140666666Y-84785714D02*
X140666666Y-85452380D01*
X140238095Y-84785714D02*
X140238095Y-85309523D01*
X140285714Y-85404761D01*
X140380952Y-85452380D01*
X140523809Y-85452380D01*
X140619047Y-85404761D01*
X140666666Y-85357142D01*
X141047619Y-85452380D02*
X141571428Y-84785714D01*
X141047619Y-84785714D02*
X141571428Y-85452380D01*
X141714285Y-85547619D02*
X142476190Y-85547619D01*
X142666666Y-84547619D02*
X142714285Y-84500000D01*
X142809523Y-84452380D01*
X143047619Y-84452380D01*
X143142857Y-84500000D01*
X143190476Y-84547619D01*
X143238095Y-84642857D01*
X143238095Y-84738095D01*
X143190476Y-84880952D01*
X142619047Y-85452380D01*
X143238095Y-85452380D01*
X143428571Y-85547619D02*
X144190476Y-85547619D01*
X144333333Y-84452380D02*
X145000000Y-84452380D01*
X144571428Y-85452380D01*
X145380952Y-85071428D02*
X146142857Y-85071428D01*
X146809523Y-84452380D02*
X146904761Y-84452380D01*
X147000000Y-84500000D01*
X147047619Y-84547619D01*
X147095238Y-84642857D01*
X147142857Y-84833333D01*
X147142857Y-85071428D01*
X147095238Y-85261904D01*
X147047619Y-85357142D01*
X147000000Y-85404761D01*
X146904761Y-85452380D01*
X146809523Y-85452380D01*
X146714285Y-85404761D01*
X146666666Y-85357142D01*
X146619047Y-85261904D01*
X146571428Y-85071428D01*
X146571428Y-84833333D01*
X146619047Y-84642857D01*
X146666666Y-84547619D01*
X146714285Y-84500000D01*
X146809523Y-84452380D01*
X137428571Y-52452380D02*
X137428571Y-51785714D01*
X137428571Y-51880952D02*
X137476190Y-51833333D01*
X137571428Y-51785714D01*
X137714285Y-51785714D01*
X137809523Y-51833333D01*
X137857142Y-51928571D01*
X137857142Y-52452380D01*
X137857142Y-51928571D02*
X137904761Y-51833333D01*
X138000000Y-51785714D01*
X138142857Y-51785714D01*
X138238095Y-51833333D01*
X138285714Y-51928571D01*
X138285714Y-52452380D01*
X139190476Y-51785714D02*
X139190476Y-52452380D01*
X138761904Y-51785714D02*
X138761904Y-52309523D01*
X138809523Y-52404761D01*
X138904761Y-52452380D01*
X139047619Y-52452380D01*
X139142857Y-52404761D01*
X139190476Y-52357142D01*
X139571428Y-52452380D02*
X140095238Y-51785714D01*
X139571428Y-51785714D02*
X140095238Y-52452380D01*
X140238095Y-52547619D02*
X141000000Y-52547619D01*
X141190476Y-51547619D02*
X141238095Y-51500000D01*
X141333333Y-51452380D01*
X141571428Y-51452380D01*
X141666666Y-51500000D01*
X141714285Y-51547619D01*
X141761904Y-51642857D01*
X141761904Y-51738095D01*
X141714285Y-51880952D01*
X141142857Y-52452380D01*
X141761904Y-52452380D01*
X141952380Y-52547619D02*
X142714285Y-52547619D01*
X143095238Y-51880952D02*
X143000000Y-51833333D01*
X142952380Y-51785714D01*
X142904761Y-51690476D01*
X142904761Y-51642857D01*
X142952380Y-51547619D01*
X143000000Y-51500000D01*
X143095238Y-51452380D01*
X143285714Y-51452380D01*
X143380952Y-51500000D01*
X143428571Y-51547619D01*
X143476190Y-51642857D01*
X143476190Y-51690476D01*
X143428571Y-51785714D01*
X143380952Y-51833333D01*
X143285714Y-51880952D01*
X143095238Y-51880952D01*
X143000000Y-51928571D01*
X142952380Y-51976190D01*
X142904761Y-52071428D01*
X142904761Y-52261904D01*
X142952380Y-52357142D01*
X143000000Y-52404761D01*
X143095238Y-52452380D01*
X143285714Y-52452380D01*
X143380952Y-52404761D01*
X143428571Y-52357142D01*
X143476190Y-52261904D01*
X143476190Y-52071428D01*
X143428571Y-51976190D01*
X143380952Y-51928571D01*
X143285714Y-51880952D01*
X143904761Y-52071428D02*
X144666666Y-52071428D01*
X145666666Y-52452380D02*
X145095238Y-52452380D01*
X145380952Y-52452380D02*
X145380952Y-51452380D01*
X145285714Y-51595238D01*
X145190476Y-51690476D01*
X145095238Y-51738095D01*
X146571428Y-51452380D02*
X146095238Y-51452380D01*
X146047619Y-51928571D01*
X146095238Y-51880952D01*
X146190476Y-51833333D01*
X146428571Y-51833333D01*
X146523809Y-51880952D01*
X146571428Y-51928571D01*
X146619047Y-52023809D01*
X146619047Y-52261904D01*
X146571428Y-52357142D01*
X146523809Y-52404761D01*
X146428571Y-52452380D01*
X146190476Y-52452380D01*
X146095238Y-52404761D01*
X146047619Y-52357142D01*
X169904761Y-85452380D02*
X169904761Y-84785714D01*
X169904761Y-84880952D02*
X169952380Y-84833333D01*
X170047619Y-84785714D01*
X170190476Y-84785714D01*
X170285714Y-84833333D01*
X170333333Y-84928571D01*
X170333333Y-85452380D01*
X170333333Y-84928571D02*
X170380952Y-84833333D01*
X170476190Y-84785714D01*
X170619047Y-84785714D01*
X170714285Y-84833333D01*
X170761904Y-84928571D01*
X170761904Y-85452380D01*
X171666666Y-84785714D02*
X171666666Y-85452380D01*
X171238095Y-84785714D02*
X171238095Y-85309523D01*
X171285714Y-85404761D01*
X171380952Y-85452380D01*
X171523809Y-85452380D01*
X171619047Y-85404761D01*
X171666666Y-85357142D01*
X172047619Y-85452380D02*
X172571428Y-84785714D01*
X172047619Y-84785714D02*
X172571428Y-85452380D01*
X172714285Y-85547619D02*
X173476190Y-85547619D01*
X173619047Y-84452380D02*
X174238095Y-84452380D01*
X173904761Y-84833333D01*
X174047619Y-84833333D01*
X174142857Y-84880952D01*
X174190476Y-84928571D01*
X174238095Y-85023809D01*
X174238095Y-85261904D01*
X174190476Y-85357142D01*
X174142857Y-85404761D01*
X174047619Y-85452380D01*
X173761904Y-85452380D01*
X173666666Y-85404761D01*
X173619047Y-85357142D01*
X174428571Y-85547619D02*
X175190476Y-85547619D01*
X175333333Y-84452380D02*
X176000000Y-84452380D01*
X175571428Y-85452380D01*
X176380952Y-85071428D02*
X177142857Y-85071428D01*
X177809523Y-84452380D02*
X177904761Y-84452380D01*
X178000000Y-84500000D01*
X178047619Y-84547619D01*
X178095238Y-84642857D01*
X178142857Y-84833333D01*
X178142857Y-85071428D01*
X178095238Y-85261904D01*
X178047619Y-85357142D01*
X178000000Y-85404761D01*
X177904761Y-85452380D01*
X177809523Y-85452380D01*
X177714285Y-85404761D01*
X177666666Y-85357142D01*
X177619047Y-85261904D01*
X177571428Y-85071428D01*
X177571428Y-84833333D01*
X177619047Y-84642857D01*
X177666666Y-84547619D01*
X177714285Y-84500000D01*
X177809523Y-84452380D01*
X168428571Y-52452380D02*
X168428571Y-51785714D01*
X168428571Y-51880952D02*
X168476190Y-51833333D01*
X168571428Y-51785714D01*
X168714285Y-51785714D01*
X168809523Y-51833333D01*
X168857142Y-51928571D01*
X168857142Y-52452380D01*
X168857142Y-51928571D02*
X168904761Y-51833333D01*
X169000000Y-51785714D01*
X169142857Y-51785714D01*
X169238095Y-51833333D01*
X169285714Y-51928571D01*
X169285714Y-52452380D01*
X170190476Y-51785714D02*
X170190476Y-52452380D01*
X169761904Y-51785714D02*
X169761904Y-52309523D01*
X169809523Y-52404761D01*
X169904761Y-52452380D01*
X170047619Y-52452380D01*
X170142857Y-52404761D01*
X170190476Y-52357142D01*
X170571428Y-52452380D02*
X171095238Y-51785714D01*
X170571428Y-51785714D02*
X171095238Y-52452380D01*
X171238095Y-52547619D02*
X172000000Y-52547619D01*
X172142857Y-51452380D02*
X172761904Y-51452380D01*
X172428571Y-51833333D01*
X172571428Y-51833333D01*
X172666666Y-51880952D01*
X172714285Y-51928571D01*
X172761904Y-52023809D01*
X172761904Y-52261904D01*
X172714285Y-52357142D01*
X172666666Y-52404761D01*
X172571428Y-52452380D01*
X172285714Y-52452380D01*
X172190476Y-52404761D01*
X172142857Y-52357142D01*
X172952380Y-52547619D02*
X173714285Y-52547619D01*
X174095238Y-51880952D02*
X174000000Y-51833333D01*
X173952380Y-51785714D01*
X173904761Y-51690476D01*
X173904761Y-51642857D01*
X173952380Y-51547619D01*
X174000000Y-51500000D01*
X174095238Y-51452380D01*
X174285714Y-51452380D01*
X174380952Y-51500000D01*
X174428571Y-51547619D01*
X174476190Y-51642857D01*
X174476190Y-51690476D01*
X174428571Y-51785714D01*
X174380952Y-51833333D01*
X174285714Y-51880952D01*
X174095238Y-51880952D01*
X174000000Y-51928571D01*
X173952380Y-51976190D01*
X173904761Y-52071428D01*
X173904761Y-52261904D01*
X173952380Y-52357142D01*
X174000000Y-52404761D01*
X174095238Y-52452380D01*
X174285714Y-52452380D01*
X174380952Y-52404761D01*
X174428571Y-52357142D01*
X174476190Y-52261904D01*
X174476190Y-52071428D01*
X174428571Y-51976190D01*
X174380952Y-51928571D01*
X174285714Y-51880952D01*
X174904761Y-52071428D02*
X175666666Y-52071428D01*
X176666666Y-52452380D02*
X176095238Y-52452380D01*
X176380952Y-52452380D02*
X176380952Y-51452380D01*
X176285714Y-51595238D01*
X176190476Y-51690476D01*
X176095238Y-51738095D01*
X177571428Y-51452380D02*
X177095238Y-51452380D01*
X177047619Y-51928571D01*
X177095238Y-51880952D01*
X177190476Y-51833333D01*
X177428571Y-51833333D01*
X177523809Y-51880952D01*
X177571428Y-51928571D01*
X177619047Y-52023809D01*
X177619047Y-52261904D01*
X177571428Y-52357142D01*
X177523809Y-52404761D01*
X177428571Y-52452380D01*
X177190476Y-52452380D01*
X177095238Y-52404761D01*
X177047619Y-52357142D01*
X104904761Y-123452380D02*
X104904761Y-122785714D01*
X104904761Y-122880952D02*
X104952380Y-122833333D01*
X105047619Y-122785714D01*
X105190476Y-122785714D01*
X105285714Y-122833333D01*
X105333333Y-122928571D01*
X105333333Y-123452380D01*
X105333333Y-122928571D02*
X105380952Y-122833333D01*
X105476190Y-122785714D01*
X105619047Y-122785714D01*
X105714285Y-122833333D01*
X105761904Y-122928571D01*
X105761904Y-123452380D01*
X106666666Y-122785714D02*
X106666666Y-123452380D01*
X106238095Y-122785714D02*
X106238095Y-123309523D01*
X106285714Y-123404761D01*
X106380952Y-123452380D01*
X106523809Y-123452380D01*
X106619047Y-123404761D01*
X106666666Y-123357142D01*
X107047619Y-123452380D02*
X107571428Y-122785714D01*
X107047619Y-122785714D02*
X107571428Y-123452380D01*
X107714285Y-123547619D02*
X108476190Y-123547619D01*
X109142857Y-122785714D02*
X109142857Y-123452380D01*
X108904761Y-122404761D02*
X108666666Y-123119047D01*
X109285714Y-123119047D01*
X109428571Y-123547619D02*
X110190476Y-123547619D01*
X110333333Y-122452380D02*
X111000000Y-122452380D01*
X110571428Y-123452380D01*
X111380952Y-123071428D02*
X112142857Y-123071428D01*
X112809523Y-122452380D02*
X112904761Y-122452380D01*
X113000000Y-122500000D01*
X113047619Y-122547619D01*
X113095238Y-122642857D01*
X113142857Y-122833333D01*
X113142857Y-123071428D01*
X113095238Y-123261904D01*
X113047619Y-123357142D01*
X113000000Y-123404761D01*
X112904761Y-123452380D01*
X112809523Y-123452380D01*
X112714285Y-123404761D01*
X112666666Y-123357142D01*
X112619047Y-123261904D01*
X112571428Y-123071428D01*
X112571428Y-122833333D01*
X112619047Y-122642857D01*
X112666666Y-122547619D01*
X112714285Y-122500000D01*
X112809523Y-122452380D01*
X103428571Y-97452380D02*
X103428571Y-96785714D01*
X103428571Y-96880952D02*
X103476190Y-96833333D01*
X103571428Y-96785714D01*
X103714285Y-96785714D01*
X103809523Y-96833333D01*
X103857142Y-96928571D01*
X103857142Y-97452380D01*
X103857142Y-96928571D02*
X103904761Y-96833333D01*
X104000000Y-96785714D01*
X104142857Y-96785714D01*
X104238095Y-96833333D01*
X104285714Y-96928571D01*
X104285714Y-97452380D01*
X105190476Y-96785714D02*
X105190476Y-97452380D01*
X104761904Y-96785714D02*
X104761904Y-97309523D01*
X104809523Y-97404761D01*
X104904761Y-97452380D01*
X105047619Y-97452380D01*
X105142857Y-97404761D01*
X105190476Y-97357142D01*
X105571428Y-97452380D02*
X106095238Y-96785714D01*
X105571428Y-96785714D02*
X106095238Y-97452380D01*
X106238095Y-97547619D02*
X107000000Y-97547619D01*
X107666666Y-96785714D02*
X107666666Y-97452380D01*
X107428571Y-96404761D02*
X107190476Y-97119047D01*
X107809523Y-97119047D01*
X107952380Y-97547619D02*
X108714285Y-97547619D01*
X109095238Y-96880952D02*
X109000000Y-96833333D01*
X108952380Y-96785714D01*
X108904761Y-96690476D01*
X108904761Y-96642857D01*
X108952380Y-96547619D01*
X109000000Y-96500000D01*
X109095238Y-96452380D01*
X109285714Y-96452380D01*
X109380952Y-96500000D01*
X109428571Y-96547619D01*
X109476190Y-96642857D01*
X109476190Y-96690476D01*
X109428571Y-96785714D01*
X109380952Y-96833333D01*
X109285714Y-96880952D01*
X109095238Y-96880952D01*
X109000000Y-96928571D01*
X108952380Y-96976190D01*
X108904761Y-97071428D01*
X108904761Y-97261904D01*
X108952380Y-97357142D01*
X109000000Y-97404761D01*
X109095238Y-97452380D01*
X109285714Y-97452380D01*
X109380952Y-97404761D01*
X109428571Y-97357142D01*
X109476190Y-97261904D01*
X109476190Y-97071428D01*
X109428571Y-96976190D01*
X109380952Y-96928571D01*
X109285714Y-96880952D01*
X109904761Y-97071428D02*
X110666666Y-97071428D01*
X111666666Y-97452380D02*
X111095238Y-97452380D01*
X111380952Y-97452380D02*
X111380952Y-96452380D01*
X111285714Y-96595238D01*
X111190476Y-96690476D01*
X111095238Y-96738095D01*
X112571428Y-96452380D02*
X112095238Y-96452380D01*
X112047619Y-96928571D01*
X112095238Y-96880952D01*
X112190476Y-96833333D01*
X112428571Y-96833333D01*
X112523809Y-96880952D01*
X112571428Y-96928571D01*
X112619047Y-97023809D01*
X112619047Y-97261904D01*
X112571428Y-97357142D01*
X112523809Y-97404761D01*
X112428571Y-97452380D01*
X112190476Y-97452380D01*
X112095238Y-97404761D01*
X112047619Y-97357142D01*
X138904761Y-123452380D02*
X138904761Y-122785714D01*
X138904761Y-122880952D02*
X138952380Y-122833333D01*
X139047619Y-122785714D01*
X139190476Y-122785714D01*
X139285714Y-122833333D01*
X139333333Y-122928571D01*
X139333333Y-123452380D01*
X139333333Y-122928571D02*
X139380952Y-122833333D01*
X139476190Y-122785714D01*
X139619047Y-122785714D01*
X139714285Y-122833333D01*
X139761904Y-122928571D01*
X139761904Y-123452380D01*
X140666666Y-122785714D02*
X140666666Y-123452380D01*
X140238095Y-122785714D02*
X140238095Y-123309523D01*
X140285714Y-123404761D01*
X140380952Y-123452380D01*
X140523809Y-123452380D01*
X140619047Y-123404761D01*
X140666666Y-123357142D01*
X141047619Y-123452380D02*
X141571428Y-122785714D01*
X141047619Y-122785714D02*
X141571428Y-123452380D01*
X141714285Y-123547619D02*
X142476190Y-123547619D01*
X143190476Y-122452380D02*
X142714285Y-122452380D01*
X142666666Y-122928571D01*
X142714285Y-122880952D01*
X142809523Y-122833333D01*
X143047619Y-122833333D01*
X143142857Y-122880952D01*
X143190476Y-122928571D01*
X143238095Y-123023809D01*
X143238095Y-123261904D01*
X143190476Y-123357142D01*
X143142857Y-123404761D01*
X143047619Y-123452380D01*
X142809523Y-123452380D01*
X142714285Y-123404761D01*
X142666666Y-123357142D01*
X143428571Y-123547619D02*
X144190476Y-123547619D01*
X144333333Y-122452380D02*
X145000000Y-122452380D01*
X144571428Y-123452380D01*
X145380952Y-123071428D02*
X146142857Y-123071428D01*
X146809523Y-122452380D02*
X146904761Y-122452380D01*
X147000000Y-122500000D01*
X147047619Y-122547619D01*
X147095238Y-122642857D01*
X147142857Y-122833333D01*
X147142857Y-123071428D01*
X147095238Y-123261904D01*
X147047619Y-123357142D01*
X147000000Y-123404761D01*
X146904761Y-123452380D01*
X146809523Y-123452380D01*
X146714285Y-123404761D01*
X146666666Y-123357142D01*
X146619047Y-123261904D01*
X146571428Y-123071428D01*
X146571428Y-122833333D01*
X146619047Y-122642857D01*
X146666666Y-122547619D01*
X146714285Y-122500000D01*
X146809523Y-122452380D01*
X137428571Y-97452380D02*
X137428571Y-96785714D01*
X137428571Y-96880952D02*
X137476190Y-96833333D01*
X137571428Y-96785714D01*
X137714285Y-96785714D01*
X137809523Y-96833333D01*
X137857142Y-96928571D01*
X137857142Y-97452380D01*
X137857142Y-96928571D02*
X137904761Y-96833333D01*
X138000000Y-96785714D01*
X138142857Y-96785714D01*
X138238095Y-96833333D01*
X138285714Y-96928571D01*
X138285714Y-97452380D01*
X139190476Y-96785714D02*
X139190476Y-97452380D01*
X138761904Y-96785714D02*
X138761904Y-97309523D01*
X138809523Y-97404761D01*
X138904761Y-97452380D01*
X139047619Y-97452380D01*
X139142857Y-97404761D01*
X139190476Y-97357142D01*
X139571428Y-97452380D02*
X140095238Y-96785714D01*
X139571428Y-96785714D02*
X140095238Y-97452380D01*
X140238095Y-97547619D02*
X141000000Y-97547619D01*
X141714285Y-96452380D02*
X141238095Y-96452380D01*
X141190476Y-96928571D01*
X141238095Y-96880952D01*
X141333333Y-96833333D01*
X141571428Y-96833333D01*
X141666666Y-96880952D01*
X141714285Y-96928571D01*
X141761904Y-97023809D01*
X141761904Y-97261904D01*
X141714285Y-97357142D01*
X141666666Y-97404761D01*
X141571428Y-97452380D01*
X141333333Y-97452380D01*
X141238095Y-97404761D01*
X141190476Y-97357142D01*
X141952380Y-97547619D02*
X142714285Y-97547619D01*
X143095238Y-96880952D02*
X143000000Y-96833333D01*
X142952380Y-96785714D01*
X142904761Y-96690476D01*
X142904761Y-96642857D01*
X142952380Y-96547619D01*
X143000000Y-96500000D01*
X143095238Y-96452380D01*
X143285714Y-96452380D01*
X143380952Y-96500000D01*
X143428571Y-96547619D01*
X143476190Y-96642857D01*
X143476190Y-96690476D01*
X143428571Y-96785714D01*
X143380952Y-96833333D01*
X143285714Y-96880952D01*
X143095238Y-96880952D01*
X143000000Y-96928571D01*
X142952380Y-96976190D01*
X142904761Y-97071428D01*
X142904761Y-97261904D01*
X142952380Y-97357142D01*
X143000000Y-97404761D01*
X143095238Y-97452380D01*
X143285714Y-97452380D01*
X143380952Y-97404761D01*
X143428571Y-97357142D01*
X143476190Y-97261904D01*
X143476190Y-97071428D01*
X143428571Y-96976190D01*
X143380952Y-96928571D01*
X143285714Y-96880952D01*
X143904761Y-97071428D02*
X144666666Y-97071428D01*
X145666666Y-97452380D02*
X145095238Y-97452380D01*
X145380952Y-97452380D02*
X145380952Y-96452380D01*
X145285714Y-96595238D01*
X145190476Y-96690476D01*
X145095238Y-96738095D01*
X146571428Y-96452380D02*
X146095238Y-96452380D01*
X146047619Y-96928571D01*
X146095238Y-96880952D01*
X146190476Y-96833333D01*
X146428571Y-96833333D01*
X146523809Y-96880952D01*
X146571428Y-96928571D01*
X146619047Y-97023809D01*
X146619047Y-97261904D01*
X146571428Y-97357142D01*
X146523809Y-97404761D01*
X146428571Y-97452380D01*
X146190476Y-97452380D01*
X146095238Y-97404761D01*
X146047619Y-97357142D01*
X170904761Y-123452380D02*
X170904761Y-122785714D01*
X170904761Y-122880952D02*
X170952380Y-122833333D01*
X171047619Y-122785714D01*
X171190476Y-122785714D01*
X171285714Y-122833333D01*
X171333333Y-122928571D01*
X171333333Y-123452380D01*
X171333333Y-122928571D02*
X171380952Y-122833333D01*
X171476190Y-122785714D01*
X171619047Y-122785714D01*
X171714285Y-122833333D01*
X171761904Y-122928571D01*
X171761904Y-123452380D01*
X172666666Y-122785714D02*
X172666666Y-123452380D01*
X172238095Y-122785714D02*
X172238095Y-123309523D01*
X172285714Y-123404761D01*
X172380952Y-123452380D01*
X172523809Y-123452380D01*
X172619047Y-123404761D01*
X172666666Y-123357142D01*
X173047619Y-123452380D02*
X173571428Y-122785714D01*
X173047619Y-122785714D02*
X173571428Y-123452380D01*
X173714285Y-123547619D02*
X174476190Y-123547619D01*
X175142857Y-122452380D02*
X174952380Y-122452380D01*
X174857142Y-122500000D01*
X174809523Y-122547619D01*
X174714285Y-122690476D01*
X174666666Y-122880952D01*
X174666666Y-123261904D01*
X174714285Y-123357142D01*
X174761904Y-123404761D01*
X174857142Y-123452380D01*
X175047619Y-123452380D01*
X175142857Y-123404761D01*
X175190476Y-123357142D01*
X175238095Y-123261904D01*
X175238095Y-123023809D01*
X175190476Y-122928571D01*
X175142857Y-122880952D01*
X175047619Y-122833333D01*
X174857142Y-122833333D01*
X174761904Y-122880952D01*
X174714285Y-122928571D01*
X174666666Y-123023809D01*
X175428571Y-123547619D02*
X176190476Y-123547619D01*
X176333333Y-122452380D02*
X177000000Y-122452380D01*
X176571428Y-123452380D01*
X177380952Y-123071428D02*
X178142857Y-123071428D01*
X178809523Y-122452380D02*
X178904761Y-122452380D01*
X179000000Y-122500000D01*
X179047619Y-122547619D01*
X179095238Y-122642857D01*
X179142857Y-122833333D01*
X179142857Y-123071428D01*
X179095238Y-123261904D01*
X179047619Y-123357142D01*
X179000000Y-123404761D01*
X178904761Y-123452380D01*
X178809523Y-123452380D01*
X178714285Y-123404761D01*
X178666666Y-123357142D01*
X178619047Y-123261904D01*
X178571428Y-123071428D01*
X178571428Y-122833333D01*
X178619047Y-122642857D01*
X178666666Y-122547619D01*
X178714285Y-122500000D01*
X178809523Y-122452380D01*
X170428571Y-97452380D02*
X170428571Y-96785714D01*
X170428571Y-96880952D02*
X170476190Y-96833333D01*
X170571428Y-96785714D01*
X170714285Y-96785714D01*
X170809523Y-96833333D01*
X170857142Y-96928571D01*
X170857142Y-97452380D01*
X170857142Y-96928571D02*
X170904761Y-96833333D01*
X171000000Y-96785714D01*
X171142857Y-96785714D01*
X171238095Y-96833333D01*
X171285714Y-96928571D01*
X171285714Y-97452380D01*
X172190476Y-96785714D02*
X172190476Y-97452380D01*
X171761904Y-96785714D02*
X171761904Y-97309523D01*
X171809523Y-97404761D01*
X171904761Y-97452380D01*
X172047619Y-97452380D01*
X172142857Y-97404761D01*
X172190476Y-97357142D01*
X172571428Y-97452380D02*
X173095238Y-96785714D01*
X172571428Y-96785714D02*
X173095238Y-97452380D01*
X173238095Y-97547619D02*
X174000000Y-97547619D01*
X174666666Y-96452380D02*
X174476190Y-96452380D01*
X174380952Y-96500000D01*
X174333333Y-96547619D01*
X174238095Y-96690476D01*
X174190476Y-96880952D01*
X174190476Y-97261904D01*
X174238095Y-97357142D01*
X174285714Y-97404761D01*
X174380952Y-97452380D01*
X174571428Y-97452380D01*
X174666666Y-97404761D01*
X174714285Y-97357142D01*
X174761904Y-97261904D01*
X174761904Y-97023809D01*
X174714285Y-96928571D01*
X174666666Y-96880952D01*
X174571428Y-96833333D01*
X174380952Y-96833333D01*
X174285714Y-96880952D01*
X174238095Y-96928571D01*
X174190476Y-97023809D01*
X174952380Y-97547619D02*
X175714285Y-97547619D01*
X176095238Y-96880952D02*
X176000000Y-96833333D01*
X175952380Y-96785714D01*
X175904761Y-96690476D01*
X175904761Y-96642857D01*
X175952380Y-96547619D01*
X176000000Y-96500000D01*
X176095238Y-96452380D01*
X176285714Y-96452380D01*
X176380952Y-96500000D01*
X176428571Y-96547619D01*
X176476190Y-96642857D01*
X176476190Y-96690476D01*
X176428571Y-96785714D01*
X176380952Y-96833333D01*
X176285714Y-96880952D01*
X176095238Y-96880952D01*
X176000000Y-96928571D01*
X175952380Y-96976190D01*
X175904761Y-97071428D01*
X175904761Y-97261904D01*
X175952380Y-97357142D01*
X176000000Y-97404761D01*
X176095238Y-97452380D01*
X176285714Y-97452380D01*
X176380952Y-97404761D01*
X176428571Y-97357142D01*
X176476190Y-97261904D01*
X176476190Y-97071428D01*
X176428571Y-96976190D01*
X176380952Y-96928571D01*
X176285714Y-96880952D01*
X176904761Y-97071428D02*
X177666666Y-97071428D01*
X178666666Y-97452380D02*
X178095238Y-97452380D01*
X178380952Y-97452380D02*
X178380952Y-96452380D01*
X178285714Y-96595238D01*
X178190476Y-96690476D01*
X178095238Y-96738095D01*
X179571428Y-96452380D02*
X179095238Y-96452380D01*
X179047619Y-96928571D01*
X179095238Y-96880952D01*
X179190476Y-96833333D01*
X179428571Y-96833333D01*
X179523809Y-96880952D01*
X179571428Y-96928571D01*
X179619047Y-97023809D01*
X179619047Y-97261904D01*
X179571428Y-97357142D01*
X179523809Y-97404761D01*
X179428571Y-97452380D01*
X179190476Y-97452380D01*
X179095238Y-97404761D01*
X179047619Y-97357142D01*
X65166666Y-123166666D02*
X65642857Y-123166666D01*
X65071428Y-123452380D02*
X65404761Y-122452380D01*
X65738095Y-123452380D01*
X66071428Y-123452380D02*
X66071428Y-122785714D01*
X66071428Y-122976190D02*
X66119047Y-122880952D01*
X66166666Y-122833333D01*
X66261904Y-122785714D01*
X66357142Y-122785714D01*
X67119047Y-123452380D02*
X67119047Y-122452380D01*
X67119047Y-123404761D02*
X67023809Y-123452380D01*
X66833333Y-123452380D01*
X66738095Y-123404761D01*
X66690476Y-123357142D01*
X66642857Y-123261904D01*
X66642857Y-122976190D01*
X66690476Y-122880952D01*
X66738095Y-122833333D01*
X66833333Y-122785714D01*
X67023809Y-122785714D01*
X67119047Y-122833333D01*
X68023809Y-122785714D02*
X68023809Y-123452380D01*
X67595238Y-122785714D02*
X67595238Y-123309523D01*
X67642857Y-123404761D01*
X67738095Y-123452380D01*
X67880952Y-123452380D01*
X67976190Y-123404761D01*
X68023809Y-123357142D01*
X68500000Y-123452380D02*
X68500000Y-122785714D01*
X68500000Y-122452380D02*
X68452380Y-122500000D01*
X68500000Y-122547619D01*
X68547619Y-122500000D01*
X68500000Y-122452380D01*
X68500000Y-122547619D01*
X68976190Y-122785714D02*
X68976190Y-123452380D01*
X68976190Y-122880952D02*
X69023809Y-122833333D01*
X69119047Y-122785714D01*
X69261904Y-122785714D01*
X69357142Y-122833333D01*
X69404761Y-122928571D01*
X69404761Y-123452380D01*
X70023809Y-123452380D02*
X69928571Y-123404761D01*
X69880952Y-123357142D01*
X69833333Y-123261904D01*
X69833333Y-122976190D01*
X69880952Y-122880952D01*
X69928571Y-122833333D01*
X70023809Y-122785714D01*
X70166666Y-122785714D01*
X70261904Y-122833333D01*
X70309523Y-122880952D01*
X70357142Y-122976190D01*
X70357142Y-123261904D01*
X70309523Y-123357142D01*
X70261904Y-123404761D01*
X70166666Y-123452380D01*
X70023809Y-123452380D01*
X71547619Y-123452380D02*
X71547619Y-122452380D01*
X71928571Y-122452380D01*
X72023809Y-122500000D01*
X72071428Y-122547619D01*
X72119047Y-122642857D01*
X72119047Y-122785714D01*
X72071428Y-122880952D01*
X72023809Y-122928571D01*
X71928571Y-122976190D01*
X71547619Y-122976190D01*
X72547619Y-123452380D02*
X72547619Y-122785714D01*
X72547619Y-122452380D02*
X72500000Y-122500000D01*
X72547619Y-122547619D01*
X72595238Y-122500000D01*
X72547619Y-122452380D01*
X72547619Y-122547619D01*
X73023809Y-122785714D02*
X73023809Y-123452380D01*
X73023809Y-122880952D02*
X73071428Y-122833333D01*
X73166666Y-122785714D01*
X73309523Y-122785714D01*
X73404761Y-122833333D01*
X73452380Y-122928571D01*
X73452380Y-123452380D01*
X73880952Y-123404761D02*
X73976190Y-123452380D01*
X74166666Y-123452380D01*
X74261904Y-123404761D01*
X74309523Y-123309523D01*
X74309523Y-123261904D01*
X74261904Y-123166666D01*
X74166666Y-123119047D01*
X74023809Y-123119047D01*
X73928571Y-123071428D01*
X73880952Y-122976190D01*
X73880952Y-122928571D01*
X73928571Y-122833333D01*
X74023809Y-122785714D01*
X74166666Y-122785714D01*
X74261904Y-122833333D01*
X75500000Y-123452380D02*
X75500000Y-122452380D01*
X75738095Y-122452380D01*
X75880952Y-122500000D01*
X75976190Y-122595238D01*
X76023809Y-122690476D01*
X76071428Y-122880952D01*
X76071428Y-123023809D01*
X76023809Y-123214285D01*
X75976190Y-123309523D01*
X75880952Y-123404761D01*
X75738095Y-123452380D01*
X75500000Y-123452380D01*
X76404761Y-122452380D02*
X77023809Y-122452380D01*
X76690476Y-122833333D01*
X76833333Y-122833333D01*
X76928571Y-122880952D01*
X76976190Y-122928571D01*
X77023809Y-123023809D01*
X77023809Y-123261904D01*
X76976190Y-123357142D01*
X76928571Y-123404761D01*
X76833333Y-123452380D01*
X76547619Y-123452380D01*
X76452380Y-123404761D01*
X76404761Y-123357142D01*
X77500000Y-123404761D02*
X77500000Y-123452380D01*
X77452380Y-123547619D01*
X77404761Y-123595238D01*
X78404761Y-122452380D02*
X77928571Y-122452380D01*
X77880952Y-122928571D01*
X77928571Y-122880952D01*
X78023809Y-122833333D01*
X78261904Y-122833333D01*
X78357142Y-122880952D01*
X78404761Y-122928571D01*
X78452380Y-123023809D01*
X78452380Y-123261904D01*
X78404761Y-123357142D01*
X78357142Y-123404761D01*
X78261904Y-123452380D01*
X78023809Y-123452380D01*
X77928571Y-123404761D01*
X77880952Y-123357142D01*
X78928571Y-123404761D02*
X78928571Y-123452380D01*
X78880952Y-123547619D01*
X78833333Y-123595238D01*
X79785714Y-122452380D02*
X79595238Y-122452380D01*
X79500000Y-122500000D01*
X79452380Y-122547619D01*
X79357142Y-122690476D01*
X79309523Y-122880952D01*
X79309523Y-123261904D01*
X79357142Y-123357142D01*
X79404761Y-123404761D01*
X79500000Y-123452380D01*
X79690476Y-123452380D01*
X79785714Y-123404761D01*
X79833333Y-123357142D01*
X79880952Y-123261904D01*
X79880952Y-123023809D01*
X79833333Y-122928571D01*
X79785714Y-122880952D01*
X79690476Y-122833333D01*
X79500000Y-122833333D01*
X79404761Y-122880952D01*
X79357142Y-122928571D01*
X79309523Y-123023809D01*
X80357142Y-123404761D02*
X80357142Y-123452380D01*
X80309523Y-123547619D01*
X80261904Y-123595238D01*
X80833333Y-123452380D02*
X81023809Y-123452380D01*
X81119047Y-123404761D01*
X81166666Y-123357142D01*
X81261904Y-123214285D01*
X81309523Y-123023809D01*
X81309523Y-122642857D01*
X81261904Y-122547619D01*
X81214285Y-122500000D01*
X81119047Y-122452380D01*
X80928571Y-122452380D01*
X80833333Y-122500000D01*
X80785714Y-122547619D01*
X80738095Y-122642857D01*
X80738095Y-122880952D01*
X80785714Y-122976190D01*
X80833333Y-123023809D01*
X80928571Y-123071428D01*
X81119047Y-123071428D01*
X81214285Y-123023809D01*
X81261904Y-122976190D01*
X81309523Y-122880952D01*
X81785714Y-123404761D02*
X81785714Y-123452380D01*
X81738095Y-123547619D01*
X81690476Y-123595238D01*
X82738095Y-123452380D02*
X82166666Y-123452380D01*
X82452380Y-123452380D02*
X82452380Y-122452380D01*
X82357142Y-122595238D01*
X82261904Y-122690476D01*
X82166666Y-122738095D01*
X83357142Y-122452380D02*
X83452380Y-122452380D01*
X83547619Y-122500000D01*
X83595238Y-122547619D01*
X83642857Y-122642857D01*
X83690476Y-122833333D01*
X83690476Y-123071428D01*
X83642857Y-123261904D01*
X83595238Y-123357142D01*
X83547619Y-123404761D01*
X83452380Y-123452380D01*
X83357142Y-123452380D01*
X83261904Y-123404761D01*
X83214285Y-123357142D01*
X83166666Y-123261904D01*
X83119047Y-123071428D01*
X83119047Y-122833333D01*
X83166666Y-122642857D01*
X83214285Y-122547619D01*
X83261904Y-122500000D01*
X83357142Y-122452380D01*
X84166666Y-123404761D02*
X84166666Y-123452380D01*
X84119047Y-123547619D01*
X84071428Y-123595238D01*
X85119047Y-123452380D02*
X84547619Y-123452380D01*
X84833333Y-123452380D02*
X84833333Y-122452380D01*
X84738095Y-122595238D01*
X84642857Y-122690476D01*
X84547619Y-122738095D01*
X86071428Y-123452380D02*
X85500000Y-123452380D01*
X85785714Y-123452380D02*
X85785714Y-122452380D01*
X85690476Y-122595238D01*
X85595238Y-122690476D01*
X85500000Y-122738095D01*
X86547619Y-123404761D02*
X86547619Y-123452380D01*
X86500000Y-123547619D01*
X86452380Y-123595238D01*
X87500000Y-123452380D02*
X86928571Y-123452380D01*
X87214285Y-123452380D02*
X87214285Y-122452380D01*
X87119047Y-122595238D01*
X87023809Y-122690476D01*
X86928571Y-122738095D01*
X87880952Y-122547619D02*
X87928571Y-122500000D01*
X88023809Y-122452380D01*
X88261904Y-122452380D01*
X88357142Y-122500000D01*
X88404761Y-122547619D01*
X88452380Y-122642857D01*
X88452380Y-122738095D01*
X88404761Y-122880952D01*
X87833333Y-123452380D01*
X88452380Y-123452380D01*
X88928571Y-123404761D02*
X88928571Y-123452380D01*
X88880952Y-123547619D01*
X88833333Y-123595238D01*
X89880952Y-123452380D02*
X89309523Y-123452380D01*
X89595238Y-123452380D02*
X89595238Y-122452380D01*
X89500000Y-122595238D01*
X89404761Y-122690476D01*
X89309523Y-122738095D01*
X90214285Y-122452380D02*
X90833333Y-122452380D01*
X90500000Y-122833333D01*
X90642857Y-122833333D01*
X90738095Y-122880952D01*
X90785714Y-122928571D01*
X90833333Y-123023809D01*
X90833333Y-123261904D01*
X90785714Y-123357142D01*
X90738095Y-123404761D01*
X90642857Y-123452380D01*
X90357142Y-123452380D01*
X90261904Y-123404761D01*
X90214285Y-123357142D01*
X56595238Y-123452380D02*
X56261904Y-122976190D01*
X56023809Y-123452380D02*
X56023809Y-122452380D01*
X56404761Y-122452380D01*
X56500000Y-122500000D01*
X56547619Y-122547619D01*
X56595238Y-122642857D01*
X56595238Y-122785714D01*
X56547619Y-122880952D01*
X56500000Y-122928571D01*
X56404761Y-122976190D01*
X56023809Y-122976190D01*
X56928571Y-122452380D02*
X57595238Y-123452380D01*
X57595238Y-122452380D02*
X56928571Y-123452380D01*
X58595238Y-122452380D02*
X59166666Y-122452380D01*
X58880952Y-123452380D02*
X58880952Y-122452380D01*
X59404761Y-122452380D02*
X60071428Y-123452380D01*
X60071428Y-122452380D02*
X59404761Y-123452380D01*
X128472380Y-72262857D02*
X127805714Y-72262857D01*
X127900952Y-72262857D02*
X127853333Y-72215238D01*
X127805714Y-72120000D01*
X127805714Y-71977142D01*
X127853333Y-71881904D01*
X127948571Y-71834285D01*
X128472380Y-71834285D01*
X127948571Y-71834285D02*
X127853333Y-71786666D01*
X127805714Y-71691428D01*
X127805714Y-71548571D01*
X127853333Y-71453333D01*
X127948571Y-71405714D01*
X128472380Y-71405714D01*
X127805714Y-70500952D02*
X128472380Y-70500952D01*
X127805714Y-70929523D02*
X128329523Y-70929523D01*
X128424761Y-70881904D01*
X128472380Y-70786666D01*
X128472380Y-70643809D01*
X128424761Y-70548571D01*
X128377142Y-70500952D01*
X128472380Y-70120000D02*
X127805714Y-69596190D01*
X127805714Y-70120000D02*
X128472380Y-69596190D01*
X128567619Y-69453333D02*
X128567619Y-68691428D01*
X127567619Y-68500952D02*
X127520000Y-68453333D01*
X127472380Y-68358095D01*
X127472380Y-68120000D01*
X127520000Y-68024761D01*
X127567619Y-67977142D01*
X127662857Y-67929523D01*
X127758095Y-67929523D01*
X127900952Y-67977142D01*
X128472380Y-68548571D01*
X128472380Y-67929523D01*
X161492380Y-72262857D02*
X160825714Y-72262857D01*
X160920952Y-72262857D02*
X160873333Y-72215238D01*
X160825714Y-72120000D01*
X160825714Y-71977142D01*
X160873333Y-71881904D01*
X160968571Y-71834285D01*
X161492380Y-71834285D01*
X160968571Y-71834285D02*
X160873333Y-71786666D01*
X160825714Y-71691428D01*
X160825714Y-71548571D01*
X160873333Y-71453333D01*
X160968571Y-71405714D01*
X161492380Y-71405714D01*
X160825714Y-70500952D02*
X161492380Y-70500952D01*
X160825714Y-70929523D02*
X161349523Y-70929523D01*
X161444761Y-70881904D01*
X161492380Y-70786666D01*
X161492380Y-70643809D01*
X161444761Y-70548571D01*
X161397142Y-70500952D01*
X161492380Y-70120000D02*
X160825714Y-69596190D01*
X160825714Y-70120000D02*
X161492380Y-69596190D01*
X161587619Y-69453333D02*
X161587619Y-68691428D01*
X160492380Y-68548571D02*
X160492380Y-67929523D01*
X160873333Y-68262857D01*
X160873333Y-68120000D01*
X160920952Y-68024761D01*
X160968571Y-67977142D01*
X161063809Y-67929523D01*
X161301904Y-67929523D01*
X161397142Y-67977142D01*
X161444761Y-68024761D01*
X161492380Y-68120000D01*
X161492380Y-68405714D01*
X161444761Y-68500952D01*
X161397142Y-68548571D01*
X95452380Y-112902857D02*
X94785714Y-112902857D01*
X94880952Y-112902857D02*
X94833333Y-112855238D01*
X94785714Y-112760000D01*
X94785714Y-112617142D01*
X94833333Y-112521904D01*
X94928571Y-112474285D01*
X95452380Y-112474285D01*
X94928571Y-112474285D02*
X94833333Y-112426666D01*
X94785714Y-112331428D01*
X94785714Y-112188571D01*
X94833333Y-112093333D01*
X94928571Y-112045714D01*
X95452380Y-112045714D01*
X94785714Y-111140952D02*
X95452380Y-111140952D01*
X94785714Y-111569523D02*
X95309523Y-111569523D01*
X95404761Y-111521904D01*
X95452380Y-111426666D01*
X95452380Y-111283809D01*
X95404761Y-111188571D01*
X95357142Y-111140952D01*
X95452380Y-110760000D02*
X94785714Y-110236190D01*
X94785714Y-110760000D02*
X95452380Y-110236190D01*
X95547619Y-110093333D02*
X95547619Y-109331428D01*
X94785714Y-108664761D02*
X95452380Y-108664761D01*
X94404761Y-108902857D02*
X95119047Y-109140952D01*
X95119047Y-108521904D01*
X128472380Y-112902857D02*
X127805714Y-112902857D01*
X127900952Y-112902857D02*
X127853333Y-112855238D01*
X127805714Y-112760000D01*
X127805714Y-112617142D01*
X127853333Y-112521904D01*
X127948571Y-112474285D01*
X128472380Y-112474285D01*
X127948571Y-112474285D02*
X127853333Y-112426666D01*
X127805714Y-112331428D01*
X127805714Y-112188571D01*
X127853333Y-112093333D01*
X127948571Y-112045714D01*
X128472380Y-112045714D01*
X127805714Y-111140952D02*
X128472380Y-111140952D01*
X127805714Y-111569523D02*
X128329523Y-111569523D01*
X128424761Y-111521904D01*
X128472380Y-111426666D01*
X128472380Y-111283809D01*
X128424761Y-111188571D01*
X128377142Y-111140952D01*
X128472380Y-110760000D02*
X127805714Y-110236190D01*
X127805714Y-110760000D02*
X128472380Y-110236190D01*
X128567619Y-110093333D02*
X128567619Y-109331428D01*
X127472380Y-108617142D02*
X127472380Y-109093333D01*
X127948571Y-109140952D01*
X127900952Y-109093333D01*
X127853333Y-108998095D01*
X127853333Y-108760000D01*
X127900952Y-108664761D01*
X127948571Y-108617142D01*
X128043809Y-108569523D01*
X128281904Y-108569523D01*
X128377142Y-108617142D01*
X128424761Y-108664761D01*
X128472380Y-108760000D01*
X128472380Y-108998095D01*
X128424761Y-109093333D01*
X128377142Y-109140952D01*
X161492380Y-112902857D02*
X160825714Y-112902857D01*
X160920952Y-112902857D02*
X160873333Y-112855238D01*
X160825714Y-112760000D01*
X160825714Y-112617142D01*
X160873333Y-112521904D01*
X160968571Y-112474285D01*
X161492380Y-112474285D01*
X160968571Y-112474285D02*
X160873333Y-112426666D01*
X160825714Y-112331428D01*
X160825714Y-112188571D01*
X160873333Y-112093333D01*
X160968571Y-112045714D01*
X161492380Y-112045714D01*
X160825714Y-111140952D02*
X161492380Y-111140952D01*
X160825714Y-111569523D02*
X161349523Y-111569523D01*
X161444761Y-111521904D01*
X161492380Y-111426666D01*
X161492380Y-111283809D01*
X161444761Y-111188571D01*
X161397142Y-111140952D01*
X161492380Y-110760000D02*
X160825714Y-110236190D01*
X160825714Y-110760000D02*
X161492380Y-110236190D01*
X161587619Y-110093333D02*
X161587619Y-109331428D01*
X160492380Y-108664761D02*
X160492380Y-108855238D01*
X160540000Y-108950476D01*
X160587619Y-108998095D01*
X160730476Y-109093333D01*
X160920952Y-109140952D01*
X161301904Y-109140952D01*
X161397142Y-109093333D01*
X161444761Y-109045714D01*
X161492380Y-108950476D01*
X161492380Y-108760000D01*
X161444761Y-108664761D01*
X161397142Y-108617142D01*
X161301904Y-108569523D01*
X161063809Y-108569523D01*
X160968571Y-108617142D01*
X160920952Y-108664761D01*
X160873333Y-108760000D01*
X160873333Y-108950476D01*
X160920952Y-109045714D01*
X160968571Y-109093333D01*
X161063809Y-109140952D01*
X206333333Y-108452380D02*
X205761904Y-108452380D01*
X206047619Y-108452380D02*
X206047619Y-107452380D01*
X205952380Y-107595238D01*
X205857142Y-107690476D01*
X205761904Y-107738095D01*
X206761904Y-108452380D02*
X206761904Y-107452380D01*
X207333333Y-108452380D01*
X207333333Y-107452380D01*
X207857142Y-108452380D02*
X208047619Y-108452380D01*
X208142857Y-108404761D01*
X208190476Y-108357142D01*
X208285714Y-108214285D01*
X208333333Y-108023809D01*
X208333333Y-107642857D01*
X208285714Y-107547619D01*
X208238095Y-107500000D01*
X208142857Y-107452380D01*
X207952380Y-107452380D01*
X207857142Y-107500000D01*
X207809523Y-107547619D01*
X207761904Y-107642857D01*
X207761904Y-107880952D01*
X207809523Y-107976190D01*
X207857142Y-108023809D01*
X207952380Y-108071428D01*
X208142857Y-108071428D01*
X208238095Y-108023809D01*
X208285714Y-107976190D01*
X208333333Y-107880952D01*
X209285714Y-108452380D02*
X208714285Y-108452380D01*
X209000000Y-108452380D02*
X209000000Y-107452380D01*
X208904761Y-107595238D01*
X208809523Y-107690476D01*
X208714285Y-107738095D01*
X210142857Y-107785714D02*
X210142857Y-108452380D01*
X209904761Y-107404761D02*
X209666666Y-108119047D01*
X210285714Y-108119047D01*
X201208095Y-106272380D02*
X201208095Y-105272380D01*
X201779523Y-106272380D02*
X201350952Y-105700952D01*
X201779523Y-105272380D02*
X201208095Y-105843809D01*
X205671428Y-70432380D02*
X205671428Y-69765714D01*
X205671428Y-69860952D02*
X205719047Y-69813333D01*
X205814285Y-69765714D01*
X205957142Y-69765714D01*
X206052380Y-69813333D01*
X206100000Y-69908571D01*
X206100000Y-70432380D01*
X206100000Y-69908571D02*
X206147619Y-69813333D01*
X206242857Y-69765714D01*
X206385714Y-69765714D01*
X206480952Y-69813333D01*
X206528571Y-69908571D01*
X206528571Y-70432380D01*
X207004761Y-70432380D02*
X207004761Y-69765714D01*
X207004761Y-69432380D02*
X206957142Y-69480000D01*
X207004761Y-69527619D01*
X207052380Y-69480000D01*
X207004761Y-69432380D01*
X207004761Y-69527619D01*
X207909523Y-70432380D02*
X207909523Y-69432380D01*
X207909523Y-70384761D02*
X207814285Y-70432380D01*
X207623809Y-70432380D01*
X207528571Y-70384761D01*
X207480952Y-70337142D01*
X207433333Y-70241904D01*
X207433333Y-69956190D01*
X207480952Y-69860952D01*
X207528571Y-69813333D01*
X207623809Y-69765714D01*
X207814285Y-69765714D01*
X207909523Y-69813333D01*
X208385714Y-70432380D02*
X208385714Y-69765714D01*
X208385714Y-69432380D02*
X208338095Y-69480000D01*
X208385714Y-69527619D01*
X208433333Y-69480000D01*
X208385714Y-69432380D01*
X208385714Y-69527619D01*
X209623809Y-70432380D02*
X209623809Y-69765714D01*
X209623809Y-69432380D02*
X209576190Y-69480000D01*
X209623809Y-69527619D01*
X209671428Y-69480000D01*
X209623809Y-69432380D01*
X209623809Y-69527619D01*
X210100000Y-69765714D02*
X210100000Y-70432380D01*
X210100000Y-69860952D02*
X210147619Y-69813333D01*
X210242857Y-69765714D01*
X210385714Y-69765714D01*
X210480952Y-69813333D01*
X210528571Y-69908571D01*
X210528571Y-70432380D01*
X206581904Y-79547619D02*
X206629523Y-79500000D01*
X206724761Y-79452380D01*
X206962857Y-79452380D01*
X207058095Y-79500000D01*
X207105714Y-79547619D01*
X207153333Y-79642857D01*
X207153333Y-79738095D01*
X207105714Y-79880952D01*
X206534285Y-80452380D01*
X207153333Y-80452380D01*
X207534285Y-79547619D02*
X207581904Y-79500000D01*
X207677142Y-79452380D01*
X207915238Y-79452380D01*
X208010476Y-79500000D01*
X208058095Y-79547619D01*
X208105714Y-79642857D01*
X208105714Y-79738095D01*
X208058095Y-79880952D01*
X207486666Y-80452380D01*
X208105714Y-80452380D01*
X208724761Y-79452380D02*
X208820000Y-79452380D01*
X208915238Y-79500000D01*
X208962857Y-79547619D01*
X209010476Y-79642857D01*
X209058095Y-79833333D01*
X209058095Y-80071428D01*
X209010476Y-80261904D01*
X208962857Y-80357142D01*
X208915238Y-80404761D01*
X208820000Y-80452380D01*
X208724761Y-80452380D01*
X208629523Y-80404761D01*
X208581904Y-80357142D01*
X208534285Y-80261904D01*
X208486666Y-80071428D01*
X208486666Y-79833333D01*
X208534285Y-79642857D01*
X208581904Y-79547619D01*
X208629523Y-79500000D01*
X208724761Y-79452380D01*
X206796190Y-102785714D02*
X206796190Y-103452380D01*
X206558095Y-102404761D02*
X206320000Y-103119047D01*
X206939047Y-103119047D01*
X207320000Y-103357142D02*
X207367619Y-103404761D01*
X207320000Y-103452380D01*
X207272380Y-103404761D01*
X207320000Y-103357142D01*
X207320000Y-103452380D01*
X207700952Y-102452380D02*
X208367619Y-102452380D01*
X207939047Y-103452380D01*
X208748571Y-103452380D02*
X208748571Y-102452380D01*
X209320000Y-103452380D02*
X208891428Y-102880952D01*
X209320000Y-102452380D02*
X208748571Y-103023809D01*
X206581904Y-97547619D02*
X206629523Y-97500000D01*
X206724761Y-97452380D01*
X206962857Y-97452380D01*
X207058095Y-97500000D01*
X207105714Y-97547619D01*
X207153333Y-97642857D01*
X207153333Y-97738095D01*
X207105714Y-97880952D01*
X206534285Y-98452380D01*
X207153333Y-98452380D01*
X207534285Y-97547619D02*
X207581904Y-97500000D01*
X207677142Y-97452380D01*
X207915238Y-97452380D01*
X208010476Y-97500000D01*
X208058095Y-97547619D01*
X208105714Y-97642857D01*
X208105714Y-97738095D01*
X208058095Y-97880952D01*
X207486666Y-98452380D01*
X208105714Y-98452380D01*
X208724761Y-97452380D02*
X208820000Y-97452380D01*
X208915238Y-97500000D01*
X208962857Y-97547619D01*
X209010476Y-97642857D01*
X209058095Y-97833333D01*
X209058095Y-98071428D01*
X209010476Y-98261904D01*
X208962857Y-98357142D01*
X208915238Y-98404761D01*
X208820000Y-98452380D01*
X208724761Y-98452380D01*
X208629523Y-98404761D01*
X208581904Y-98357142D01*
X208534285Y-98261904D01*
X208486666Y-98071428D01*
X208486666Y-97833333D01*
X208534285Y-97642857D01*
X208581904Y-97547619D01*
X208629523Y-97500000D01*
X208724761Y-97452380D01*
X206238095Y-88622380D02*
X206047619Y-88622380D01*
X205952380Y-88670000D01*
X205904761Y-88717619D01*
X205809523Y-88860476D01*
X205761904Y-89050952D01*
X205761904Y-89431904D01*
X205809523Y-89527142D01*
X205857142Y-89574761D01*
X205952380Y-89622380D01*
X206142857Y-89622380D01*
X206238095Y-89574761D01*
X206285714Y-89527142D01*
X206333333Y-89431904D01*
X206333333Y-89193809D01*
X206285714Y-89098571D01*
X206238095Y-89050952D01*
X206142857Y-89003333D01*
X205952380Y-89003333D01*
X205857142Y-89050952D01*
X205809523Y-89098571D01*
X205761904Y-89193809D01*
X206761904Y-89622380D02*
X206761904Y-88622380D01*
X207333333Y-89622380D01*
X207333333Y-88622380D01*
X208333333Y-89622380D02*
X207761904Y-89622380D01*
X208047619Y-89622380D02*
X208047619Y-88622380D01*
X207952380Y-88765238D01*
X207857142Y-88860476D01*
X207761904Y-88908095D01*
X208666666Y-88622380D02*
X209285714Y-88622380D01*
X208952380Y-89003333D01*
X209095238Y-89003333D01*
X209190476Y-89050952D01*
X209238095Y-89098571D01*
X209285714Y-89193809D01*
X209285714Y-89431904D01*
X209238095Y-89527142D01*
X209190476Y-89574761D01*
X209095238Y-89622380D01*
X208809523Y-89622380D01*
X208714285Y-89574761D01*
X208666666Y-89527142D01*
X209857142Y-89050952D02*
X209761904Y-89003333D01*
X209714285Y-88955714D01*
X209666666Y-88860476D01*
X209666666Y-88812857D01*
X209714285Y-88717619D01*
X209761904Y-88670000D01*
X209857142Y-88622380D01*
X210047619Y-88622380D01*
X210142857Y-88670000D01*
X210190476Y-88717619D01*
X210238095Y-88812857D01*
X210238095Y-88860476D01*
X210190476Y-88955714D01*
X210142857Y-89003333D01*
X210047619Y-89050952D01*
X209857142Y-89050952D01*
X209761904Y-89098571D01*
X209714285Y-89146190D01*
X209666666Y-89241428D01*
X209666666Y-89431904D01*
X209714285Y-89527142D01*
X209761904Y-89574761D01*
X209857142Y-89622380D01*
X210047619Y-89622380D01*
X210142857Y-89574761D01*
X210190476Y-89527142D01*
X210238095Y-89431904D01*
X210238095Y-89241428D01*
X210190476Y-89146190D01*
X210142857Y-89098571D01*
X210047619Y-89050952D01*
X47238095Y-122500000D02*
X47142857Y-122452380D01*
X47000000Y-122452380D01*
X46857142Y-122500000D01*
X46761904Y-122595238D01*
X46714285Y-122690476D01*
X46666666Y-122880952D01*
X46666666Y-123023809D01*
X46714285Y-123214285D01*
X46761904Y-123309523D01*
X46857142Y-123404761D01*
X47000000Y-123452380D01*
X47095238Y-123452380D01*
X47238095Y-123404761D01*
X47285714Y-123357142D01*
X47285714Y-123023809D01*
X47095238Y-123023809D01*
X47714285Y-123452380D02*
X47714285Y-122452380D01*
X48285714Y-123452380D01*
X48285714Y-122452380D01*
X48761904Y-123452380D02*
X48761904Y-122452380D01*
X49000000Y-122452380D01*
X49142857Y-122500000D01*
X49238095Y-122595238D01*
X49285714Y-122690476D01*
X49333333Y-122880952D01*
X49333333Y-123023809D01*
X49285714Y-123214285D01*
X49238095Y-123309523D01*
X49142857Y-123404761D01*
X49000000Y-123452380D01*
X48761904Y-123452380D01*
X205071428Y-57952380D02*
X205071428Y-57285714D01*
X205071428Y-57380952D02*
X205119047Y-57333333D01*
X205214285Y-57285714D01*
X205357142Y-57285714D01*
X205452380Y-57333333D01*
X205500000Y-57428571D01*
X205500000Y-57952380D01*
X205500000Y-57428571D02*
X205547619Y-57333333D01*
X205642857Y-57285714D01*
X205785714Y-57285714D01*
X205880952Y-57333333D01*
X205928571Y-57428571D01*
X205928571Y-57952380D01*
X206404761Y-57952380D02*
X206404761Y-57285714D01*
X206404761Y-56952380D02*
X206357142Y-57000000D01*
X206404761Y-57047619D01*
X206452380Y-57000000D01*
X206404761Y-56952380D01*
X206404761Y-57047619D01*
X207309523Y-57952380D02*
X207309523Y-56952380D01*
X207309523Y-57904761D02*
X207214285Y-57952380D01*
X207023809Y-57952380D01*
X206928571Y-57904761D01*
X206880952Y-57857142D01*
X206833333Y-57761904D01*
X206833333Y-57476190D01*
X206880952Y-57380952D01*
X206928571Y-57333333D01*
X207023809Y-57285714D01*
X207214285Y-57285714D01*
X207309523Y-57333333D01*
X207785714Y-57952380D02*
X207785714Y-57285714D01*
X207785714Y-56952380D02*
X207738095Y-57000000D01*
X207785714Y-57047619D01*
X207833333Y-57000000D01*
X207785714Y-56952380D01*
X207785714Y-57047619D01*
X209166666Y-57952380D02*
X209071428Y-57904761D01*
X209023809Y-57857142D01*
X208976190Y-57761904D01*
X208976190Y-57476190D01*
X209023809Y-57380952D01*
X209071428Y-57333333D01*
X209166666Y-57285714D01*
X209309523Y-57285714D01*
X209404761Y-57333333D01*
X209452380Y-57380952D01*
X209500000Y-57476190D01*
X209500000Y-57761904D01*
X209452380Y-57857142D01*
X209404761Y-57904761D01*
X209309523Y-57952380D01*
X209166666Y-57952380D01*
X210357142Y-57285714D02*
X210357142Y-57952380D01*
X209928571Y-57285714D02*
X209928571Y-57809523D01*
X209976190Y-57904761D01*
X210071428Y-57952380D01*
X210214285Y-57952380D01*
X210309523Y-57904761D01*
X210357142Y-57857142D01*
X210690476Y-57285714D02*
X211071428Y-57285714D01*
X210833333Y-56952380D02*
X210833333Y-57809523D01*
X210880952Y-57904761D01*
X210976190Y-57952380D01*
X211071428Y-57952380D01*
X201547619Y-63738095D02*
X201500000Y-63690476D01*
X201452380Y-63595238D01*
X201452380Y-63357142D01*
X201500000Y-63261904D01*
X201547619Y-63214285D01*
X201642857Y-63166666D01*
X201738095Y-63166666D01*
X201880952Y-63214285D01*
X202452380Y-63785714D01*
X202452380Y-63166666D01*
X201547619Y-62785714D02*
X201500000Y-62738095D01*
X201452380Y-62642857D01*
X201452380Y-62404761D01*
X201500000Y-62309523D01*
X201547619Y-62261904D01*
X201642857Y-62214285D01*
X201738095Y-62214285D01*
X201880952Y-62261904D01*
X202452380Y-62833333D01*
X202452380Y-62214285D01*
X201452380Y-61595238D02*
X201452380Y-61500000D01*
X201500000Y-61404761D01*
X201547619Y-61357142D01*
X201642857Y-61309523D01*
X201833333Y-61261904D01*
X202071428Y-61261904D01*
X202261904Y-61309523D01*
X202357142Y-61357142D01*
X202404761Y-61404761D01*
X202452380Y-61500000D01*
X202452380Y-61595238D01*
X202404761Y-61690476D01*
X202357142Y-61738095D01*
X202261904Y-61785714D01*
X202071428Y-61833333D01*
X201833333Y-61833333D01*
X201642857Y-61785714D01*
X201547619Y-61738095D01*
X201500000Y-61690476D01*
X201452380Y-61595238D01*
X197547619Y-63958095D02*
X197500000Y-63910476D01*
X197452380Y-63815238D01*
X197452380Y-63577142D01*
X197500000Y-63481904D01*
X197547619Y-63434285D01*
X197642857Y-63386666D01*
X197738095Y-63386666D01*
X197880952Y-63434285D01*
X198452380Y-64005714D01*
X198452380Y-63386666D01*
X197547619Y-63005714D02*
X197500000Y-62958095D01*
X197452380Y-62862857D01*
X197452380Y-62624761D01*
X197500000Y-62529523D01*
X197547619Y-62481904D01*
X197642857Y-62434285D01*
X197738095Y-62434285D01*
X197880952Y-62481904D01*
X198452380Y-63053333D01*
X198452380Y-62434285D01*
X197452380Y-61815238D02*
X197452380Y-61720000D01*
X197500000Y-61624761D01*
X197547619Y-61577142D01*
X197642857Y-61529523D01*
X197833333Y-61481904D01*
X198071428Y-61481904D01*
X198261904Y-61529523D01*
X198357142Y-61577142D01*
X198404761Y-61624761D01*
X198452380Y-61720000D01*
X198452380Y-61815238D01*
X198404761Y-61910476D01*
X198357142Y-61958095D01*
X198261904Y-62005714D01*
X198071428Y-62053333D01*
X197833333Y-62053333D01*
X197642857Y-62005714D01*
X197547619Y-61958095D01*
X197500000Y-61910476D01*
X197452380Y-61815238D01*
M02*
