M48
; DRILL file {KiCad (5.1.2-1)-1} date Wednesday, July 10, 2019 at 07:42:07 PM
; FORMAT={-:-/ absolute / metric / decimal}
; #@! TF.CreationDate,2019-07-10T19:42:07-04:00
; #@! TF.GenerationSoftware,Kicad,Pcbnew,(5.1.2-1)-1
; #@! TF.FileFunction,Plated,1,2,PTH
FMAT,2
METRIC
T1C0.400
T2C0.800
T3C1.000
T4C1.400
T5C3.200
%
G90
G05
T1
X71.25Y-110.51
X75.47Y-110.46
X85.43Y-90.42
X94.79Y-119.65
X94.79Y-122.19
X98.6Y-96.79
X98.6Y-98.06
X111.3Y-110.76
X116.38Y-110.76
X118.92Y-112.03
X118.92Y-120.92
X120.19Y-96.79
X120.19Y-98.06
X121.46Y-108.22
X122.73Y-112.03
X125.27Y-108.22
X126.78Y-84.19
X127.23Y-69.09
X131.62Y-80.28
X148.13Y-112.03
X151.59Y-73.99
X151.94Y-71.39
X151.94Y-122.19
X153.21Y-67.58
X153.21Y-80.28
X154.48Y-71.39
X154.48Y-108.22
X155.75Y-112.03
X157.02Y-108.22
X158.29Y-67.58
X178.15Y-113.96
X183.69Y-112.03
X183.96Y-73.9
X184.45Y-114.44
X184.96Y-71.39
X186.23Y-108.22
X187.5Y-67.58
X187.6Y-115.37
X188.77Y-71.39
X188.77Y-113.3
X190.04Y-67.58
X192.58Y-71.39
X193.5Y-127.0
X193.5Y-130.0
X195.12Y-70.12
X195.12Y-92.98
X195.12Y-95.52
X197.5Y-109.0
X197.565Y-89.5
X198.5Y-92.0
X198.5Y-106.5
X207.82Y-81.55
T2
X202.74Y-98.06
X212.9Y-98.06
X202.74Y-103.14
X212.9Y-103.14
X130.35Y-103.14
X130.35Y-118.38
X132.89Y-103.14
X132.89Y-118.38
X135.43Y-103.14
X135.43Y-118.38
X137.97Y-103.14
X137.97Y-118.38
X140.51Y-103.14
X140.51Y-118.38
X143.05Y-103.14
X143.05Y-118.38
X145.59Y-103.14
X145.59Y-118.38
X148.13Y-103.14
X148.13Y-118.38
X150.67Y-103.14
X150.67Y-118.38
X153.21Y-103.14
X153.21Y-118.38
X155.75Y-103.14
X155.75Y-118.38
X158.29Y-103.14
X158.29Y-118.38
X204.01Y-85.36
X204.01Y-92.98
X206.55Y-85.36
X206.55Y-92.98
X209.09Y-85.36
X209.09Y-92.98
X211.63Y-85.36
X211.63Y-92.98
X42.72Y-68.6
X42.72Y-71.14
X42.72Y-73.68
X42.72Y-76.22
X42.72Y-78.76
X42.72Y-81.3
X42.72Y-83.84
X42.72Y-86.38
X42.72Y-88.92
X42.72Y-91.46
X42.72Y-95.52
X42.72Y-98.06
X42.72Y-100.6
X42.72Y-103.14
X42.72Y-105.68
X42.72Y-108.22
X42.72Y-110.76
X42.72Y-113.3
X90.98Y-77.74
X90.98Y-80.28
X90.98Y-82.82
X90.98Y-85.36
X90.98Y-87.9
X90.98Y-90.44
X90.98Y-92.98
X90.98Y-95.52
X90.98Y-100.6
X90.98Y-103.14
X90.98Y-105.68
X90.98Y-108.22
X90.98Y-110.76
X90.98Y-113.3
X198.0Y-57.64
X198.0Y-67.8
X163.37Y-62.5
X163.37Y-77.74
X165.91Y-62.5
X165.91Y-77.74
X168.45Y-62.5
X168.45Y-77.74
X170.99Y-62.5
X170.99Y-77.74
X173.53Y-62.5
X173.53Y-77.74
X176.07Y-62.5
X176.07Y-77.74
X178.61Y-62.5
X178.61Y-77.74
X181.15Y-62.5
X181.15Y-77.74
X183.69Y-62.5
X183.69Y-77.74
X186.23Y-62.5
X186.23Y-77.74
X188.77Y-62.5
X188.77Y-77.74
X191.31Y-62.5
X191.31Y-77.74
X97.33Y-103.14
X97.33Y-118.38
X99.87Y-103.14
X99.87Y-118.38
X102.41Y-103.14
X102.41Y-118.38
X104.95Y-103.14
X104.95Y-118.38
X107.49Y-103.14
X107.49Y-118.38
X110.03Y-103.14
X110.03Y-118.38
X112.57Y-103.14
X112.57Y-118.38
X115.11Y-103.14
X115.11Y-118.38
X117.65Y-103.14
X117.65Y-118.38
X120.19Y-103.14
X120.19Y-118.38
X122.73Y-103.14
X122.73Y-118.38
X125.27Y-103.14
X125.27Y-118.38
X97.33Y-62.5
X97.33Y-77.74
X99.87Y-62.5
X99.87Y-77.74
X102.41Y-62.5
X102.41Y-77.74
X104.95Y-62.5
X104.95Y-77.74
X107.49Y-62.5
X107.49Y-77.74
X110.03Y-62.5
X110.03Y-77.74
X112.57Y-62.5
X112.57Y-77.74
X115.11Y-62.5
X115.11Y-77.74
X117.65Y-62.5
X117.65Y-77.74
X120.19Y-62.5
X120.19Y-77.74
X122.73Y-62.5
X122.73Y-77.74
X125.27Y-62.5
X125.27Y-77.74
X202.2Y-57.6
X202.2Y-67.76
X163.37Y-103.14
X163.37Y-118.38
X165.91Y-103.14
X165.91Y-118.38
X168.45Y-103.14
X168.45Y-118.38
X170.99Y-103.14
X170.99Y-118.38
X173.53Y-103.14
X173.53Y-118.38
X176.07Y-103.14
X176.07Y-118.38
X178.61Y-103.14
X178.61Y-118.38
X181.15Y-103.14
X181.15Y-118.38
X183.69Y-103.14
X183.69Y-118.38
X186.23Y-103.14
X186.23Y-118.38
X188.77Y-103.14
X188.77Y-118.38
X191.31Y-103.14
X191.31Y-118.38
X130.35Y-62.5
X130.35Y-77.74
X132.89Y-62.5
X132.89Y-77.74
X135.43Y-62.5
X135.43Y-77.74
X137.97Y-62.5
X137.97Y-77.74
X140.51Y-62.5
X140.51Y-77.74
X143.05Y-62.5
X143.05Y-77.74
X145.59Y-62.5
X145.59Y-77.74
X148.13Y-62.5
X148.13Y-77.74
X150.67Y-62.5
X150.67Y-77.74
X153.21Y-62.5
X153.21Y-77.74
X155.75Y-62.5
X155.75Y-77.74
X158.29Y-62.5
X158.29Y-77.74
X202.74Y-80.28
X212.9Y-80.28
T3
X165.91Y-54.88
X168.45Y-54.88
X170.99Y-54.88
X173.53Y-54.88
X176.07Y-54.88
X178.61Y-54.88
X181.15Y-54.88
X183.69Y-54.88
X132.89Y-87.9
X135.43Y-87.9
X137.97Y-87.9
X140.51Y-87.9
X143.05Y-87.9
X145.59Y-87.9
X148.13Y-87.9
X150.67Y-87.9
X165.91Y-94.25
X168.45Y-94.25
X170.99Y-94.25
X173.53Y-94.25
X176.07Y-94.25
X178.61Y-94.25
X181.15Y-94.25
X183.69Y-94.25
X47.0Y-126.0
X49.54Y-126.0
X99.87Y-94.25
X102.41Y-94.25
X104.95Y-94.25
X107.49Y-94.25
X110.03Y-94.25
X112.57Y-94.25
X115.11Y-94.25
X117.65Y-94.25
X132.89Y-126.0
X135.43Y-126.0
X137.97Y-126.0
X140.51Y-126.0
X143.05Y-126.0
X145.59Y-126.0
X148.13Y-126.0
X150.67Y-126.0
X132.89Y-54.88
X135.43Y-54.88
X137.97Y-54.88
X140.51Y-54.88
X143.05Y-54.88
X145.59Y-54.88
X148.13Y-54.88
X150.67Y-54.88
X132.89Y-94.25
X135.43Y-94.25
X137.97Y-94.25
X140.51Y-94.25
X143.05Y-94.25
X145.59Y-94.25
X148.13Y-94.25
X150.67Y-94.25
X208.0Y-60.5
X208.0Y-63.04
X208.0Y-65.58
X99.87Y-87.9
X102.41Y-87.9
X104.95Y-87.9
X107.49Y-87.9
X110.03Y-87.9
X112.57Y-87.9
X115.11Y-87.9
X117.65Y-87.9
X69.39Y-126.0
X71.93Y-126.0
X74.47Y-126.0
X77.01Y-126.0
X79.55Y-126.0
X82.09Y-126.0
X84.63Y-126.0
X87.17Y-126.0
X99.87Y-54.88
X102.41Y-54.88
X104.95Y-54.88
X107.49Y-54.88
X110.03Y-54.88
X112.57Y-54.88
X115.11Y-54.88
X117.65Y-54.88
X208.0Y-72.96
X208.0Y-75.5
X165.91Y-126.0
X168.45Y-126.0
X170.99Y-126.0
X173.53Y-126.0
X176.07Y-126.0
X178.61Y-126.0
X181.15Y-126.0
X183.69Y-126.0
X56.69Y-126.0
X59.23Y-126.0
X165.91Y-87.9
X168.45Y-87.9
X170.99Y-87.9
X173.53Y-87.9
X176.07Y-87.9
X178.61Y-87.9
X181.15Y-87.9
X183.69Y-87.9
X99.87Y-126.0
X102.41Y-126.0
X104.95Y-126.0
X107.49Y-126.0
X110.03Y-126.0
X112.57Y-126.0
X115.11Y-126.0
X117.65Y-126.0
T4
X201.47Y-108.22
X214.17Y-108.22
T5
X35.0Y-55.0
X35.1Y-126.0
X214.0Y-55.0
X214.0Y-126.0
T0
M30
