;Layer: Drill PTH
;EasyEDA v6.4.7, 2020-11-05T13:47:00--3:00
;c1199a7e55574453b5ef4e22c537c2a6,,NaN
;Gerber Generator version 0.2
M48
INCH,LZ,00.0000
;Holesize 1 = 0.036 INCH
T01C0.036
%
G05
G90
T01
X+000500Y+018000
X+001500Y+018000
X+003500Y+018000
X+004500Y+018000
X+005500Y+018000
X+006500Y+018000
X+007500Y+018000
X+008500Y+018000
X+009500Y+018000
X+010500Y+018000
X+011500Y+018000
X+012500Y+018000
X+013500Y+018000
X+014500Y+018000
X+015500Y+018000
X+016500Y+018000
X+017500Y+018000
X+018500Y+018000
X+019500Y+018000
X+020500Y+018000
X+021500Y+018000
X+022500Y+018000
X+023500Y+018000
X+024500Y+018000
X+025500Y+018000
X+026500Y+018000
X+027500Y+018000
X+028500Y+018000
X+029500Y+018000
X+000500Y+015000
X+000500Y+014000
X+000500Y+013000
X+000500Y+012000
X+000500Y+011000
X+000500Y+017000
X+001500Y+017000
X+002500Y+017000
X+003500Y+017000
X+004500Y+017000
X+005500Y+017000
X+006500Y+017000
X+007500Y+017000
X+008500Y+017000
X+009500Y+017000
X+010500Y+017000
X+011500Y+017000
X+012500Y+017000
X+013500Y+017000
X+014500Y+017000
X+015500Y+017000
X+016500Y+017000
X+017500Y+017000
X+018500Y+017000
X+019500Y+017000
X+020500Y+017000
X+021500Y+017000
X+022500Y+017000
X+023500Y+017000
X+024500Y+017000
X+025500Y+017000
X+026500Y+017000
X+027500Y+017000
X+028500Y+017000
X+029500Y+017000
X+000500Y+001000
X+001500Y+001000
X+002500Y+001000
X+003500Y+001000
X+004500Y+001000
X+005500Y+001000
X+006500Y+001000
X+007500Y+001000
X+008500Y+001000
X+009500Y+001000
X+010500Y+001000
X+011500Y+001000
X+012500Y+001000
X+013500Y+001000
X+014500Y+001000
X+015500Y+001000
X+016500Y+001000
X+017500Y+001000
X+018500Y+001000
X+019500Y+001000
X+020500Y+001000
X+021500Y+001000
X+022500Y+001000
X+023500Y+001000
X+024500Y+001000
X+025500Y+001000
X+026500Y+001000
X+027500Y+001000
X+028500Y+001000
X+029500Y+001000
X+000500Y+002000
X+001500Y+002000
X+002500Y+002000
X+003500Y+002000
X+004500Y+002000
X+005500Y+002000
X+006500Y+002000
X+007500Y+002000
X+008500Y+002000
X+009500Y+002000
X+010500Y+002000
X+011500Y+002000
X+012500Y+002000
X+013500Y+002000
X+014500Y+002000
X+015500Y+002000
X+016500Y+002000
X+017500Y+002000
X+018500Y+002000
X+019500Y+002000
X+020500Y+002000
X+021500Y+002000
X+022500Y+002000
X+023500Y+002000
X+024500Y+002000
X+025500Y+002000
X+026500Y+002000
X+027500Y+002000
X+028500Y+002000
X+029500Y+002000
X+000500Y+008000
X+000500Y+007000
X+000500Y+006000
X+000500Y+005000
X+000500Y+004000
X+001500Y+015000
X+001500Y+014000
X+001500Y+013000
X+001500Y+012000
X+001500Y+011000
X+002500Y+015000
X+002500Y+014000
X+002500Y+013000
X+002500Y+012000
X+002500Y+011000
X+003500Y+015000
X+003500Y+014000
X+003500Y+013000
X+003500Y+012000
X+003500Y+011000
X+004500Y+015000
X+004500Y+014000
X+004500Y+013000
X+004500Y+012000
X+004500Y+011000
X+005500Y+015000
X+005500Y+014000
X+005500Y+013000
X+005500Y+012000
X+005500Y+011000
X+006500Y+015000
X+006500Y+014000
X+006500Y+013000
X+006500Y+012000
X+006500Y+011000
X+007500Y+015000
X+007500Y+014000
X+007500Y+013000
X+007500Y+012000
X+007500Y+011000
X+008500Y+015000
X+008500Y+014000
X+008500Y+013000
X+008500Y+012000
X+008500Y+011000
X+009500Y+015000
X+009500Y+014000
X+009500Y+013000
X+009500Y+012000
X+009500Y+011000
X+010500Y+015000
X+010500Y+014000
X+010500Y+013000
X+010500Y+012000
X+010500Y+011000
X+011500Y+015000
X+011500Y+014000
X+011500Y+013000
X+011500Y+012000
X+011500Y+011000
X+012500Y+015000
X+012500Y+014000
X+012500Y+013000
X+012500Y+012000
X+012500Y+011000
X+013500Y+015000
X+013500Y+014000
X+013500Y+013000
X+013500Y+012000
X+013500Y+011000
X+014500Y+015000
X+014500Y+014000
X+014500Y+013000
X+014500Y+012000
X+014500Y+011000
X+015500Y+015000
X+015500Y+014000
X+015500Y+013000
X+015500Y+012000
X+015500Y+011000
X+016500Y+015000
X+016500Y+014000
X+016500Y+013000
X+016500Y+012000
X+016500Y+011000
X+017500Y+015000
X+017500Y+014000
X+017500Y+013000
X+017500Y+012000
X+017500Y+011000
X+018500Y+015000
X+018500Y+014000
X+018500Y+013000
X+018500Y+012000
X+018500Y+011000
X+019500Y+015000
X+019500Y+014000
X+019500Y+013000
X+019500Y+012000
X+019500Y+011000
X+020500Y+015000
X+020500Y+014000
X+020500Y+013000
X+020500Y+012000
X+020500Y+011000
X+021500Y+015000
X+021500Y+014000
X+021500Y+013000
X+021500Y+012000
X+021500Y+011000
X+022500Y+015000
X+022500Y+014000
X+022500Y+013000
X+022500Y+012000
X+022500Y+011000
X+023500Y+015000
X+023500Y+014000
X+023500Y+013000
X+023500Y+012000
X+023500Y+011000
X+024500Y+015000
X+024500Y+014000
X+024500Y+013000
X+024500Y+012000
X+024500Y+011000
X+025500Y+015000
X+025500Y+014000
X+025500Y+013000
X+025500Y+012000
X+025500Y+011000
X+026500Y+015000
X+026500Y+014000
X+026500Y+013000
X+026500Y+012000
X+026500Y+011000
X+027500Y+015000
X+027500Y+014000
X+027500Y+013000
X+027500Y+012000
X+027500Y+011000
X+028500Y+015000
X+028500Y+014000
X+028500Y+013000
X+028500Y+012000
X+028500Y+011000
X+029500Y+015000
X+029500Y+014000
X+029500Y+013000
X+029500Y+012000
X+029500Y+011000
X+001500Y+008000
X+001500Y+007000
X+001500Y+006000
X+001500Y+005000
X+001500Y+004000
X+002500Y+008000
X+002500Y+007000
X+002500Y+006000
X+002500Y+005000
X+002500Y+004000
X+003500Y+008000
X+003500Y+007000
X+003500Y+006000
X+003500Y+005000
X+003500Y+004000
X+004500Y+008000
X+004500Y+007000
X+004500Y+006000
X+004500Y+005000
X+004500Y+004000
X+005500Y+008000
X+005500Y+007000
X+005500Y+006000
X+005500Y+005000
X+005500Y+004000
X+006500Y+008000
X+006500Y+007000
X+006500Y+006000
X+006500Y+005000
X+006500Y+004000
X+007500Y+008000
X+007500Y+007000
X+007500Y+006000
X+007500Y+005000
X+007500Y+004000
X+008500Y+008000
X+008500Y+007000
X+008500Y+006000
X+008500Y+005000
X+008500Y+004000
X+009500Y+008000
X+009500Y+007000
X+009500Y+006000
X+009500Y+005000
X+009500Y+004000
X+010500Y+008000
X+010500Y+007000
X+010500Y+006000
X+010500Y+005000
X+010500Y+004000
X+011500Y+008000
X+011500Y+007000
X+011500Y+006000
X+011500Y+005000
X+011500Y+004000
X+012500Y+008000
X+012500Y+007000
X+012500Y+006000
X+012500Y+005000
X+012500Y+004000
X+013500Y+008000
X+013500Y+007000
X+013500Y+006000
X+013500Y+005000
X+013500Y+004000
X+014500Y+008000
X+014500Y+007000
X+014500Y+006000
X+014500Y+005000
X+014500Y+004000
X+015500Y+008000
X+015500Y+007000
X+015500Y+006000
X+015500Y+005000
X+015500Y+004000
X+016500Y+008000
X+016500Y+007000
X+016500Y+006000
X+016500Y+005000
X+016500Y+004000
X+017500Y+008000
X+017500Y+007000
X+017500Y+006000
X+017500Y+005000
X+017500Y+004000
X+018500Y+008000
X+018500Y+007000
X+018500Y+006000
X+018500Y+005000
X+018500Y+004000
X+019500Y+008000
X+019500Y+007000
X+019500Y+006000
X+019500Y+005000
X+019500Y+004000
X+020500Y+008000
X+020500Y+007000
X+020500Y+006000
X+020500Y+005000
X+020500Y+004000
X+021500Y+008000
X+021500Y+007000
X+021500Y+006000
X+021500Y+005000
X+021500Y+004000
X+022500Y+008000
X+022500Y+007000
X+022500Y+006000
X+022500Y+005000
X+022500Y+004000
X+023500Y+008000
X+023500Y+007000
X+023500Y+006000
X+023500Y+005000
X+023500Y+004000
X+024500Y+008000
X+024500Y+007000
X+024500Y+006000
X+024500Y+005000
X+024500Y+004000
X+025500Y+008000
X+025500Y+007000
X+025500Y+006000
X+025500Y+005000
X+025500Y+004000
X+026500Y+008000
X+026500Y+007000
X+026500Y+006000
X+026500Y+005000
X+026500Y+004000
X+027500Y+008000
X+027500Y+007000
X+027500Y+006000
X+027500Y+005000
X+027500Y+004000
X+028500Y+008000
X+028500Y+007000
X+028500Y+006000
X+028500Y+005000
X+028500Y+004000
X+029500Y+008000
X+029500Y+007000
X+029500Y+006000
X+029500Y+005000
X+029500Y+004000
X+002500Y+018000
M30
