%TF.GenerationSoftware,KiCad,Pcbnew,(5.1.7-0-10_14)*%
%TF.CreationDate,2020-10-27T13:19:28-03:00*%
%TF.ProjectId,macedo module 3,6d616365-646f-4206-9d6f-64756c652033,1*%
%TF.SameCoordinates,Original*%
%TF.FileFunction,Legend,Top*%
%TF.FilePolarity,Positive*%
%FSLAX46Y46*%
G04 Gerber Fmt 4.6, Leading zero omitted, Abs format (unit mm)*
G04 Created by KiCad (PCBNEW (5.1.7-0-10_14)) date 2020-10-27 13:19:28*
%MOMM*%
%LPD*%
G01*
G04 APERTURE LIST*
%ADD10C,0.120000*%
%ADD11C,0.150000*%
G04 APERTURE END LIST*
D10*
%TO.C,D1*%
X60510000Y-73164000D02*
X60510000Y-73320000D01*
X60510000Y-75480000D02*
X60510000Y-75636000D01*
X63111130Y-75479837D02*
G75*
G02*
X61029039Y-75480000I-1041130J1079837D01*
G01*
X63111130Y-73320163D02*
G75*
G03*
X61029039Y-73320000I-1041130J-1079837D01*
G01*
X63742335Y-75478608D02*
G75*
G02*
X60510000Y-75635516I-1672335J1078608D01*
G01*
X63742335Y-73321392D02*
G75*
G03*
X60510000Y-73164484I-1672335J-1078608D01*
G01*
%TO.C,D2*%
X60510000Y-100480000D02*
X60510000Y-100636000D01*
X60510000Y-98164000D02*
X60510000Y-98320000D01*
X63742335Y-98321392D02*
G75*
G03*
X60510000Y-98164484I-1672335J-1078608D01*
G01*
X63742335Y-100478608D02*
G75*
G02*
X60510000Y-100635516I-1672335J1078608D01*
G01*
X63111130Y-98320163D02*
G75*
G03*
X61029039Y-98320000I-1041130J-1079837D01*
G01*
X63111130Y-100479837D02*
G75*
G02*
X61029039Y-100480000I-1041130J1079837D01*
G01*
%TO.C,D3*%
X85510000Y-75480000D02*
X85510000Y-75636000D01*
X85510000Y-73164000D02*
X85510000Y-73320000D01*
X88742335Y-73321392D02*
G75*
G03*
X85510000Y-73164484I-1672335J-1078608D01*
G01*
X88742335Y-75478608D02*
G75*
G02*
X85510000Y-75635516I-1672335J1078608D01*
G01*
X88111130Y-73320163D02*
G75*
G03*
X86029039Y-73320000I-1041130J-1079837D01*
G01*
X88111130Y-75479837D02*
G75*
G02*
X86029039Y-75480000I-1041130J1079837D01*
G01*
%TO.C,D4*%
X85510000Y-100480000D02*
X85510000Y-100636000D01*
X85510000Y-98164000D02*
X85510000Y-98320000D01*
X88742335Y-98321392D02*
G75*
G03*
X85510000Y-98164484I-1672335J-1078608D01*
G01*
X88742335Y-100478608D02*
G75*
G02*
X85510000Y-100635516I-1672335J1078608D01*
G01*
X88111130Y-98320163D02*
G75*
G03*
X86029039Y-98320000I-1041130J-1079837D01*
G01*
X88111130Y-100479837D02*
G75*
G02*
X86029039Y-100480000I-1041130J1079837D01*
G01*
%TO.C,D5*%
X110510000Y-73164000D02*
X110510000Y-73320000D01*
X110510000Y-75480000D02*
X110510000Y-75636000D01*
X113111130Y-75479837D02*
G75*
G02*
X111029039Y-75480000I-1041130J1079837D01*
G01*
X113111130Y-73320163D02*
G75*
G03*
X111029039Y-73320000I-1041130J-1079837D01*
G01*
X113742335Y-75478608D02*
G75*
G02*
X110510000Y-75635516I-1672335J1078608D01*
G01*
X113742335Y-73321392D02*
G75*
G03*
X110510000Y-73164484I-1672335J-1078608D01*
G01*
%TO.C,D6*%
X110510000Y-100480000D02*
X110510000Y-100636000D01*
X110510000Y-98164000D02*
X110510000Y-98320000D01*
X113742335Y-98321392D02*
G75*
G03*
X110510000Y-98164484I-1672335J-1078608D01*
G01*
X113742335Y-100478608D02*
G75*
G02*
X110510000Y-100635516I-1672335J1078608D01*
G01*
X113111130Y-98320163D02*
G75*
G03*
X111029039Y-98320000I-1041130J-1079837D01*
G01*
X113111130Y-100479837D02*
G75*
G02*
X111029039Y-100480000I-1041130J1079837D01*
G01*
%TO.C,D7*%
X135510000Y-75480000D02*
X135510000Y-75636000D01*
X135510000Y-73164000D02*
X135510000Y-73320000D01*
X138742335Y-73321392D02*
G75*
G03*
X135510000Y-73164484I-1672335J-1078608D01*
G01*
X138742335Y-75478608D02*
G75*
G02*
X135510000Y-75635516I-1672335J1078608D01*
G01*
X138111130Y-73320163D02*
G75*
G03*
X136029039Y-73320000I-1041130J-1079837D01*
G01*
X138111130Y-75479837D02*
G75*
G02*
X136029039Y-75480000I-1041130J1079837D01*
G01*
%TO.C,D8*%
X135510000Y-98164000D02*
X135510000Y-98320000D01*
X135510000Y-100480000D02*
X135510000Y-100636000D01*
X138111130Y-100479837D02*
G75*
G02*
X136029039Y-100480000I-1041130J1079837D01*
G01*
X138111130Y-98320163D02*
G75*
G03*
X136029039Y-98320000I-1041130J-1079837D01*
G01*
X138742335Y-100478608D02*
G75*
G02*
X135510000Y-100635516I-1672335J1078608D01*
G01*
X138742335Y-98321392D02*
G75*
G03*
X135510000Y-98164484I-1672335J-1078608D01*
G01*
%TO.C,D9*%
X160510000Y-75480000D02*
X160510000Y-75636000D01*
X160510000Y-73164000D02*
X160510000Y-73320000D01*
X163742335Y-73321392D02*
G75*
G03*
X160510000Y-73164484I-1672335J-1078608D01*
G01*
X163742335Y-75478608D02*
G75*
G02*
X160510000Y-75635516I-1672335J1078608D01*
G01*
X163111130Y-73320163D02*
G75*
G03*
X161029039Y-73320000I-1041130J-1079837D01*
G01*
X163111130Y-75479837D02*
G75*
G02*
X161029039Y-75480000I-1041130J1079837D01*
G01*
%TO.C,D10*%
X160510000Y-98164000D02*
X160510000Y-98320000D01*
X160510000Y-100480000D02*
X160510000Y-100636000D01*
X163111130Y-100479837D02*
G75*
G02*
X161029039Y-100480000I-1041130J1079837D01*
G01*
X163111130Y-98320163D02*
G75*
G03*
X161029039Y-98320000I-1041130J-1079837D01*
G01*
X163742335Y-100478608D02*
G75*
G02*
X160510000Y-100635516I-1672335J1078608D01*
G01*
X163742335Y-98321392D02*
G75*
G03*
X160510000Y-98164484I-1672335J-1078608D01*
G01*
%TO.C,D11*%
X185510000Y-73164000D02*
X185510000Y-73320000D01*
X185510000Y-75480000D02*
X185510000Y-75636000D01*
X188111130Y-75479837D02*
G75*
G02*
X186029039Y-75480000I-1041130J1079837D01*
G01*
X188111130Y-73320163D02*
G75*
G03*
X186029039Y-73320000I-1041130J-1079837D01*
G01*
X188742335Y-75478608D02*
G75*
G02*
X185510000Y-75635516I-1672335J1078608D01*
G01*
X188742335Y-73321392D02*
G75*
G03*
X185510000Y-73164484I-1672335J-1078608D01*
G01*
%TO.C,D12*%
X185510000Y-98164000D02*
X185510000Y-98320000D01*
X185510000Y-100480000D02*
X185510000Y-100636000D01*
X188111130Y-100479837D02*
G75*
G02*
X186029039Y-100480000I-1041130J1079837D01*
G01*
X188111130Y-98320163D02*
G75*
G03*
X186029039Y-98320000I-1041130J-1079837D01*
G01*
X188742335Y-100478608D02*
G75*
G02*
X185510000Y-100635516I-1672335J1078608D01*
G01*
X188742335Y-98321392D02*
G75*
G03*
X185510000Y-98164484I-1672335J-1078608D01*
G01*
%TO.C,D13*%
X210510000Y-75480000D02*
X210510000Y-75636000D01*
X210510000Y-73164000D02*
X210510000Y-73320000D01*
X213742335Y-73321392D02*
G75*
G03*
X210510000Y-73164484I-1672335J-1078608D01*
G01*
X213742335Y-75478608D02*
G75*
G02*
X210510000Y-75635516I-1672335J1078608D01*
G01*
X213111130Y-73320163D02*
G75*
G03*
X211029039Y-73320000I-1041130J-1079837D01*
G01*
X213111130Y-75479837D02*
G75*
G02*
X211029039Y-75480000I-1041130J1079837D01*
G01*
%TO.C,D14*%
X210510000Y-98164000D02*
X210510000Y-98320000D01*
X210510000Y-100480000D02*
X210510000Y-100636000D01*
X213111130Y-100479837D02*
G75*
G02*
X211029039Y-100480000I-1041130J1079837D01*
G01*
X213111130Y-98320163D02*
G75*
G03*
X211029039Y-98320000I-1041130J-1079837D01*
G01*
X213742335Y-100478608D02*
G75*
G02*
X210510000Y-100635516I-1672335J1078608D01*
G01*
X213742335Y-98321392D02*
G75*
G03*
X210510000Y-98164484I-1672335J-1078608D01*
G01*
%TO.C,D15*%
X235510000Y-73164000D02*
X235510000Y-73320000D01*
X235510000Y-75480000D02*
X235510000Y-75636000D01*
X238111130Y-75479837D02*
G75*
G02*
X236029039Y-75480000I-1041130J1079837D01*
G01*
X238111130Y-73320163D02*
G75*
G03*
X236029039Y-73320000I-1041130J-1079837D01*
G01*
X238742335Y-75478608D02*
G75*
G02*
X235510000Y-75635516I-1672335J1078608D01*
G01*
X238742335Y-73321392D02*
G75*
G03*
X235510000Y-73164484I-1672335J-1078608D01*
G01*
%TO.C,D16*%
X235510000Y-100480000D02*
X235510000Y-100636000D01*
X235510000Y-98164000D02*
X235510000Y-98320000D01*
X238742335Y-98321392D02*
G75*
G03*
X235510000Y-98164484I-1672335J-1078608D01*
G01*
X238742335Y-100478608D02*
G75*
G02*
X235510000Y-100635516I-1672335J1078608D01*
G01*
X238111130Y-98320163D02*
G75*
G03*
X236029039Y-98320000I-1041130J-1079837D01*
G01*
X238111130Y-100479837D02*
G75*
G02*
X236029039Y-100480000I-1041130J1079837D01*
G01*
%TO.C,SW2*%
D11*
X53266666Y-92804761D02*
X53409523Y-92852380D01*
X53647619Y-92852380D01*
X53742857Y-92804761D01*
X53790476Y-92757142D01*
X53838095Y-92661904D01*
X53838095Y-92566666D01*
X53790476Y-92471428D01*
X53742857Y-92423809D01*
X53647619Y-92376190D01*
X53457142Y-92328571D01*
X53361904Y-92280952D01*
X53314285Y-92233333D01*
X53266666Y-92138095D01*
X53266666Y-92042857D01*
X53314285Y-91947619D01*
X53361904Y-91900000D01*
X53457142Y-91852380D01*
X53695238Y-91852380D01*
X53838095Y-91900000D01*
X54171428Y-91852380D02*
X54409523Y-92852380D01*
X54600000Y-92138095D01*
X54790476Y-92852380D01*
X55028571Y-91852380D01*
X55361904Y-91947619D02*
X55409523Y-91900000D01*
X55504761Y-91852380D01*
X55742857Y-91852380D01*
X55838095Y-91900000D01*
X55885714Y-91947619D01*
X55933333Y-92042857D01*
X55933333Y-92138095D01*
X55885714Y-92280952D01*
X55314285Y-92852380D01*
X55933333Y-92852380D01*
%TO.C,SW1*%
X53266666Y-67804761D02*
X53409523Y-67852380D01*
X53647619Y-67852380D01*
X53742857Y-67804761D01*
X53790476Y-67757142D01*
X53838095Y-67661904D01*
X53838095Y-67566666D01*
X53790476Y-67471428D01*
X53742857Y-67423809D01*
X53647619Y-67376190D01*
X53457142Y-67328571D01*
X53361904Y-67280952D01*
X53314285Y-67233333D01*
X53266666Y-67138095D01*
X53266666Y-67042857D01*
X53314285Y-66947619D01*
X53361904Y-66900000D01*
X53457142Y-66852380D01*
X53695238Y-66852380D01*
X53838095Y-66900000D01*
X54171428Y-66852380D02*
X54409523Y-67852380D01*
X54600000Y-67138095D01*
X54790476Y-67852380D01*
X55028571Y-66852380D01*
X55933333Y-67852380D02*
X55361904Y-67852380D01*
X55647619Y-67852380D02*
X55647619Y-66852380D01*
X55552380Y-66995238D01*
X55457142Y-67090476D01*
X55361904Y-67138095D01*
%TO.C,SW3*%
X78266666Y-67804761D02*
X78409523Y-67852380D01*
X78647619Y-67852380D01*
X78742857Y-67804761D01*
X78790476Y-67757142D01*
X78838095Y-67661904D01*
X78838095Y-67566666D01*
X78790476Y-67471428D01*
X78742857Y-67423809D01*
X78647619Y-67376190D01*
X78457142Y-67328571D01*
X78361904Y-67280952D01*
X78314285Y-67233333D01*
X78266666Y-67138095D01*
X78266666Y-67042857D01*
X78314285Y-66947619D01*
X78361904Y-66900000D01*
X78457142Y-66852380D01*
X78695238Y-66852380D01*
X78838095Y-66900000D01*
X79171428Y-66852380D02*
X79409523Y-67852380D01*
X79600000Y-67138095D01*
X79790476Y-67852380D01*
X80028571Y-66852380D01*
X80314285Y-66852380D02*
X80933333Y-66852380D01*
X80600000Y-67233333D01*
X80742857Y-67233333D01*
X80838095Y-67280952D01*
X80885714Y-67328571D01*
X80933333Y-67423809D01*
X80933333Y-67661904D01*
X80885714Y-67757142D01*
X80838095Y-67804761D01*
X80742857Y-67852380D01*
X80457142Y-67852380D01*
X80361904Y-67804761D01*
X80314285Y-67757142D01*
%TO.C,SW4*%
X78266666Y-92804761D02*
X78409523Y-92852380D01*
X78647619Y-92852380D01*
X78742857Y-92804761D01*
X78790476Y-92757142D01*
X78838095Y-92661904D01*
X78838095Y-92566666D01*
X78790476Y-92471428D01*
X78742857Y-92423809D01*
X78647619Y-92376190D01*
X78457142Y-92328571D01*
X78361904Y-92280952D01*
X78314285Y-92233333D01*
X78266666Y-92138095D01*
X78266666Y-92042857D01*
X78314285Y-91947619D01*
X78361904Y-91900000D01*
X78457142Y-91852380D01*
X78695238Y-91852380D01*
X78838095Y-91900000D01*
X79171428Y-91852380D02*
X79409523Y-92852380D01*
X79600000Y-92138095D01*
X79790476Y-92852380D01*
X80028571Y-91852380D01*
X80838095Y-92185714D02*
X80838095Y-92852380D01*
X80600000Y-91804761D02*
X80361904Y-92519047D01*
X80980952Y-92519047D01*
%TO.C,SW5*%
X103266666Y-67804761D02*
X103409523Y-67852380D01*
X103647619Y-67852380D01*
X103742857Y-67804761D01*
X103790476Y-67757142D01*
X103838095Y-67661904D01*
X103838095Y-67566666D01*
X103790476Y-67471428D01*
X103742857Y-67423809D01*
X103647619Y-67376190D01*
X103457142Y-67328571D01*
X103361904Y-67280952D01*
X103314285Y-67233333D01*
X103266666Y-67138095D01*
X103266666Y-67042857D01*
X103314285Y-66947619D01*
X103361904Y-66900000D01*
X103457142Y-66852380D01*
X103695238Y-66852380D01*
X103838095Y-66900000D01*
X104171428Y-66852380D02*
X104409523Y-67852380D01*
X104600000Y-67138095D01*
X104790476Y-67852380D01*
X105028571Y-66852380D01*
X105885714Y-66852380D02*
X105409523Y-66852380D01*
X105361904Y-67328571D01*
X105409523Y-67280952D01*
X105504761Y-67233333D01*
X105742857Y-67233333D01*
X105838095Y-67280952D01*
X105885714Y-67328571D01*
X105933333Y-67423809D01*
X105933333Y-67661904D01*
X105885714Y-67757142D01*
X105838095Y-67804761D01*
X105742857Y-67852380D01*
X105504761Y-67852380D01*
X105409523Y-67804761D01*
X105361904Y-67757142D01*
%TO.C,SW6*%
X103266666Y-92804761D02*
X103409523Y-92852380D01*
X103647619Y-92852380D01*
X103742857Y-92804761D01*
X103790476Y-92757142D01*
X103838095Y-92661904D01*
X103838095Y-92566666D01*
X103790476Y-92471428D01*
X103742857Y-92423809D01*
X103647619Y-92376190D01*
X103457142Y-92328571D01*
X103361904Y-92280952D01*
X103314285Y-92233333D01*
X103266666Y-92138095D01*
X103266666Y-92042857D01*
X103314285Y-91947619D01*
X103361904Y-91900000D01*
X103457142Y-91852380D01*
X103695238Y-91852380D01*
X103838095Y-91900000D01*
X104171428Y-91852380D02*
X104409523Y-92852380D01*
X104600000Y-92138095D01*
X104790476Y-92852380D01*
X105028571Y-91852380D01*
X105838095Y-91852380D02*
X105647619Y-91852380D01*
X105552380Y-91900000D01*
X105504761Y-91947619D01*
X105409523Y-92090476D01*
X105361904Y-92280952D01*
X105361904Y-92661904D01*
X105409523Y-92757142D01*
X105457142Y-92804761D01*
X105552380Y-92852380D01*
X105742857Y-92852380D01*
X105838095Y-92804761D01*
X105885714Y-92757142D01*
X105933333Y-92661904D01*
X105933333Y-92423809D01*
X105885714Y-92328571D01*
X105838095Y-92280952D01*
X105742857Y-92233333D01*
X105552380Y-92233333D01*
X105457142Y-92280952D01*
X105409523Y-92328571D01*
X105361904Y-92423809D01*
%TO.C,SW7*%
X128266666Y-67804761D02*
X128409523Y-67852380D01*
X128647619Y-67852380D01*
X128742857Y-67804761D01*
X128790476Y-67757142D01*
X128838095Y-67661904D01*
X128838095Y-67566666D01*
X128790476Y-67471428D01*
X128742857Y-67423809D01*
X128647619Y-67376190D01*
X128457142Y-67328571D01*
X128361904Y-67280952D01*
X128314285Y-67233333D01*
X128266666Y-67138095D01*
X128266666Y-67042857D01*
X128314285Y-66947619D01*
X128361904Y-66900000D01*
X128457142Y-66852380D01*
X128695238Y-66852380D01*
X128838095Y-66900000D01*
X129171428Y-66852380D02*
X129409523Y-67852380D01*
X129600000Y-67138095D01*
X129790476Y-67852380D01*
X130028571Y-66852380D01*
X130314285Y-66852380D02*
X130980952Y-66852380D01*
X130552380Y-67852380D01*
%TO.C,SW8*%
X128266666Y-92804761D02*
X128409523Y-92852380D01*
X128647619Y-92852380D01*
X128742857Y-92804761D01*
X128790476Y-92757142D01*
X128838095Y-92661904D01*
X128838095Y-92566666D01*
X128790476Y-92471428D01*
X128742857Y-92423809D01*
X128647619Y-92376190D01*
X128457142Y-92328571D01*
X128361904Y-92280952D01*
X128314285Y-92233333D01*
X128266666Y-92138095D01*
X128266666Y-92042857D01*
X128314285Y-91947619D01*
X128361904Y-91900000D01*
X128457142Y-91852380D01*
X128695238Y-91852380D01*
X128838095Y-91900000D01*
X129171428Y-91852380D02*
X129409523Y-92852380D01*
X129600000Y-92138095D01*
X129790476Y-92852380D01*
X130028571Y-91852380D01*
X130552380Y-92280952D02*
X130457142Y-92233333D01*
X130409523Y-92185714D01*
X130361904Y-92090476D01*
X130361904Y-92042857D01*
X130409523Y-91947619D01*
X130457142Y-91900000D01*
X130552380Y-91852380D01*
X130742857Y-91852380D01*
X130838095Y-91900000D01*
X130885714Y-91947619D01*
X130933333Y-92042857D01*
X130933333Y-92090476D01*
X130885714Y-92185714D01*
X130838095Y-92233333D01*
X130742857Y-92280952D01*
X130552380Y-92280952D01*
X130457142Y-92328571D01*
X130409523Y-92376190D01*
X130361904Y-92471428D01*
X130361904Y-92661904D01*
X130409523Y-92757142D01*
X130457142Y-92804761D01*
X130552380Y-92852380D01*
X130742857Y-92852380D01*
X130838095Y-92804761D01*
X130885714Y-92757142D01*
X130933333Y-92661904D01*
X130933333Y-92471428D01*
X130885714Y-92376190D01*
X130838095Y-92328571D01*
X130742857Y-92280952D01*
%TO.C,SW9*%
X153266666Y-67804761D02*
X153409523Y-67852380D01*
X153647619Y-67852380D01*
X153742857Y-67804761D01*
X153790476Y-67757142D01*
X153838095Y-67661904D01*
X153838095Y-67566666D01*
X153790476Y-67471428D01*
X153742857Y-67423809D01*
X153647619Y-67376190D01*
X153457142Y-67328571D01*
X153361904Y-67280952D01*
X153314285Y-67233333D01*
X153266666Y-67138095D01*
X153266666Y-67042857D01*
X153314285Y-66947619D01*
X153361904Y-66900000D01*
X153457142Y-66852380D01*
X153695238Y-66852380D01*
X153838095Y-66900000D01*
X154171428Y-66852380D02*
X154409523Y-67852380D01*
X154600000Y-67138095D01*
X154790476Y-67852380D01*
X155028571Y-66852380D01*
X155457142Y-67852380D02*
X155647619Y-67852380D01*
X155742857Y-67804761D01*
X155790476Y-67757142D01*
X155885714Y-67614285D01*
X155933333Y-67423809D01*
X155933333Y-67042857D01*
X155885714Y-66947619D01*
X155838095Y-66900000D01*
X155742857Y-66852380D01*
X155552380Y-66852380D01*
X155457142Y-66900000D01*
X155409523Y-66947619D01*
X155361904Y-67042857D01*
X155361904Y-67280952D01*
X155409523Y-67376190D01*
X155457142Y-67423809D01*
X155552380Y-67471428D01*
X155742857Y-67471428D01*
X155838095Y-67423809D01*
X155885714Y-67376190D01*
X155933333Y-67280952D01*
%TO.C,SW10*%
X152790476Y-92804761D02*
X152933333Y-92852380D01*
X153171428Y-92852380D01*
X153266666Y-92804761D01*
X153314285Y-92757142D01*
X153361904Y-92661904D01*
X153361904Y-92566666D01*
X153314285Y-92471428D01*
X153266666Y-92423809D01*
X153171428Y-92376190D01*
X152980952Y-92328571D01*
X152885714Y-92280952D01*
X152838095Y-92233333D01*
X152790476Y-92138095D01*
X152790476Y-92042857D01*
X152838095Y-91947619D01*
X152885714Y-91900000D01*
X152980952Y-91852380D01*
X153219047Y-91852380D01*
X153361904Y-91900000D01*
X153695238Y-91852380D02*
X153933333Y-92852380D01*
X154123809Y-92138095D01*
X154314285Y-92852380D01*
X154552380Y-91852380D01*
X155457142Y-92852380D02*
X154885714Y-92852380D01*
X155171428Y-92852380D02*
X155171428Y-91852380D01*
X155076190Y-91995238D01*
X154980952Y-92090476D01*
X154885714Y-92138095D01*
X156076190Y-91852380D02*
X156171428Y-91852380D01*
X156266666Y-91900000D01*
X156314285Y-91947619D01*
X156361904Y-92042857D01*
X156409523Y-92233333D01*
X156409523Y-92471428D01*
X156361904Y-92661904D01*
X156314285Y-92757142D01*
X156266666Y-92804761D01*
X156171428Y-92852380D01*
X156076190Y-92852380D01*
X155980952Y-92804761D01*
X155933333Y-92757142D01*
X155885714Y-92661904D01*
X155838095Y-92471428D01*
X155838095Y-92233333D01*
X155885714Y-92042857D01*
X155933333Y-91947619D01*
X155980952Y-91900000D01*
X156076190Y-91852380D01*
%TO.C,SW11*%
X177790476Y-67804761D02*
X177933333Y-67852380D01*
X178171428Y-67852380D01*
X178266666Y-67804761D01*
X178314285Y-67757142D01*
X178361904Y-67661904D01*
X178361904Y-67566666D01*
X178314285Y-67471428D01*
X178266666Y-67423809D01*
X178171428Y-67376190D01*
X177980952Y-67328571D01*
X177885714Y-67280952D01*
X177838095Y-67233333D01*
X177790476Y-67138095D01*
X177790476Y-67042857D01*
X177838095Y-66947619D01*
X177885714Y-66900000D01*
X177980952Y-66852380D01*
X178219047Y-66852380D01*
X178361904Y-66900000D01*
X178695238Y-66852380D02*
X178933333Y-67852380D01*
X179123809Y-67138095D01*
X179314285Y-67852380D01*
X179552380Y-66852380D01*
X180457142Y-67852380D02*
X179885714Y-67852380D01*
X180171428Y-67852380D02*
X180171428Y-66852380D01*
X180076190Y-66995238D01*
X179980952Y-67090476D01*
X179885714Y-67138095D01*
X181409523Y-67852380D02*
X180838095Y-67852380D01*
X181123809Y-67852380D02*
X181123809Y-66852380D01*
X181028571Y-66995238D01*
X180933333Y-67090476D01*
X180838095Y-67138095D01*
%TO.C,SW12*%
X177790476Y-92804761D02*
X177933333Y-92852380D01*
X178171428Y-92852380D01*
X178266666Y-92804761D01*
X178314285Y-92757142D01*
X178361904Y-92661904D01*
X178361904Y-92566666D01*
X178314285Y-92471428D01*
X178266666Y-92423809D01*
X178171428Y-92376190D01*
X177980952Y-92328571D01*
X177885714Y-92280952D01*
X177838095Y-92233333D01*
X177790476Y-92138095D01*
X177790476Y-92042857D01*
X177838095Y-91947619D01*
X177885714Y-91900000D01*
X177980952Y-91852380D01*
X178219047Y-91852380D01*
X178361904Y-91900000D01*
X178695238Y-91852380D02*
X178933333Y-92852380D01*
X179123809Y-92138095D01*
X179314285Y-92852380D01*
X179552380Y-91852380D01*
X180457142Y-92852380D02*
X179885714Y-92852380D01*
X180171428Y-92852380D02*
X180171428Y-91852380D01*
X180076190Y-91995238D01*
X179980952Y-92090476D01*
X179885714Y-92138095D01*
X180838095Y-91947619D02*
X180885714Y-91900000D01*
X180980952Y-91852380D01*
X181219047Y-91852380D01*
X181314285Y-91900000D01*
X181361904Y-91947619D01*
X181409523Y-92042857D01*
X181409523Y-92138095D01*
X181361904Y-92280952D01*
X180790476Y-92852380D01*
X181409523Y-92852380D01*
%TO.C,SW13*%
X202790476Y-67804761D02*
X202933333Y-67852380D01*
X203171428Y-67852380D01*
X203266666Y-67804761D01*
X203314285Y-67757142D01*
X203361904Y-67661904D01*
X203361904Y-67566666D01*
X203314285Y-67471428D01*
X203266666Y-67423809D01*
X203171428Y-67376190D01*
X202980952Y-67328571D01*
X202885714Y-67280952D01*
X202838095Y-67233333D01*
X202790476Y-67138095D01*
X202790476Y-67042857D01*
X202838095Y-66947619D01*
X202885714Y-66900000D01*
X202980952Y-66852380D01*
X203219047Y-66852380D01*
X203361904Y-66900000D01*
X203695238Y-66852380D02*
X203933333Y-67852380D01*
X204123809Y-67138095D01*
X204314285Y-67852380D01*
X204552380Y-66852380D01*
X205457142Y-67852380D02*
X204885714Y-67852380D01*
X205171428Y-67852380D02*
X205171428Y-66852380D01*
X205076190Y-66995238D01*
X204980952Y-67090476D01*
X204885714Y-67138095D01*
X205790476Y-66852380D02*
X206409523Y-66852380D01*
X206076190Y-67233333D01*
X206219047Y-67233333D01*
X206314285Y-67280952D01*
X206361904Y-67328571D01*
X206409523Y-67423809D01*
X206409523Y-67661904D01*
X206361904Y-67757142D01*
X206314285Y-67804761D01*
X206219047Y-67852380D01*
X205933333Y-67852380D01*
X205838095Y-67804761D01*
X205790476Y-67757142D01*
%TO.C,SW14*%
X202790476Y-92804761D02*
X202933333Y-92852380D01*
X203171428Y-92852380D01*
X203266666Y-92804761D01*
X203314285Y-92757142D01*
X203361904Y-92661904D01*
X203361904Y-92566666D01*
X203314285Y-92471428D01*
X203266666Y-92423809D01*
X203171428Y-92376190D01*
X202980952Y-92328571D01*
X202885714Y-92280952D01*
X202838095Y-92233333D01*
X202790476Y-92138095D01*
X202790476Y-92042857D01*
X202838095Y-91947619D01*
X202885714Y-91900000D01*
X202980952Y-91852380D01*
X203219047Y-91852380D01*
X203361904Y-91900000D01*
X203695238Y-91852380D02*
X203933333Y-92852380D01*
X204123809Y-92138095D01*
X204314285Y-92852380D01*
X204552380Y-91852380D01*
X205457142Y-92852380D02*
X204885714Y-92852380D01*
X205171428Y-92852380D02*
X205171428Y-91852380D01*
X205076190Y-91995238D01*
X204980952Y-92090476D01*
X204885714Y-92138095D01*
X206314285Y-92185714D02*
X206314285Y-92852380D01*
X206076190Y-91804761D02*
X205838095Y-92519047D01*
X206457142Y-92519047D01*
%TO.C,SW15*%
X227790476Y-67804761D02*
X227933333Y-67852380D01*
X228171428Y-67852380D01*
X228266666Y-67804761D01*
X228314285Y-67757142D01*
X228361904Y-67661904D01*
X228361904Y-67566666D01*
X228314285Y-67471428D01*
X228266666Y-67423809D01*
X228171428Y-67376190D01*
X227980952Y-67328571D01*
X227885714Y-67280952D01*
X227838095Y-67233333D01*
X227790476Y-67138095D01*
X227790476Y-67042857D01*
X227838095Y-66947619D01*
X227885714Y-66900000D01*
X227980952Y-66852380D01*
X228219047Y-66852380D01*
X228361904Y-66900000D01*
X228695238Y-66852380D02*
X228933333Y-67852380D01*
X229123809Y-67138095D01*
X229314285Y-67852380D01*
X229552380Y-66852380D01*
X230457142Y-67852380D02*
X229885714Y-67852380D01*
X230171428Y-67852380D02*
X230171428Y-66852380D01*
X230076190Y-66995238D01*
X229980952Y-67090476D01*
X229885714Y-67138095D01*
X231361904Y-66852380D02*
X230885714Y-66852380D01*
X230838095Y-67328571D01*
X230885714Y-67280952D01*
X230980952Y-67233333D01*
X231219047Y-67233333D01*
X231314285Y-67280952D01*
X231361904Y-67328571D01*
X231409523Y-67423809D01*
X231409523Y-67661904D01*
X231361904Y-67757142D01*
X231314285Y-67804761D01*
X231219047Y-67852380D01*
X230980952Y-67852380D01*
X230885714Y-67804761D01*
X230838095Y-67757142D01*
%TO.C,SW16*%
X227790476Y-92804761D02*
X227933333Y-92852380D01*
X228171428Y-92852380D01*
X228266666Y-92804761D01*
X228314285Y-92757142D01*
X228361904Y-92661904D01*
X228361904Y-92566666D01*
X228314285Y-92471428D01*
X228266666Y-92423809D01*
X228171428Y-92376190D01*
X227980952Y-92328571D01*
X227885714Y-92280952D01*
X227838095Y-92233333D01*
X227790476Y-92138095D01*
X227790476Y-92042857D01*
X227838095Y-91947619D01*
X227885714Y-91900000D01*
X227980952Y-91852380D01*
X228219047Y-91852380D01*
X228361904Y-91900000D01*
X228695238Y-91852380D02*
X228933333Y-92852380D01*
X229123809Y-92138095D01*
X229314285Y-92852380D01*
X229552380Y-91852380D01*
X230457142Y-92852380D02*
X229885714Y-92852380D01*
X230171428Y-92852380D02*
X230171428Y-91852380D01*
X230076190Y-91995238D01*
X229980952Y-92090476D01*
X229885714Y-92138095D01*
X231314285Y-91852380D02*
X231123809Y-91852380D01*
X231028571Y-91900000D01*
X230980952Y-91947619D01*
X230885714Y-92090476D01*
X230838095Y-92280952D01*
X230838095Y-92661904D01*
X230885714Y-92757142D01*
X230933333Y-92804761D01*
X231028571Y-92852380D01*
X231219047Y-92852380D01*
X231314285Y-92804761D01*
X231361904Y-92757142D01*
X231409523Y-92661904D01*
X231409523Y-92423809D01*
X231361904Y-92328571D01*
X231314285Y-92280952D01*
X231219047Y-92233333D01*
X231028571Y-92233333D01*
X230933333Y-92280952D01*
X230885714Y-92328571D01*
X230838095Y-92423809D01*
%TD*%
M02*
