%TF.GenerationSoftware,KiCad,Pcbnew,(5.1.7-0-10_14)*%
%TF.CreationDate,2020-10-27T13:19:28-03:00*%
%TF.ProjectId,macedo module 3,6d616365-646f-4206-9d6f-64756c652033,1*%
%TF.SameCoordinates,Original*%
%TF.FileFunction,Legend,Bot*%
%TF.FilePolarity,Positive*%
%FSLAX46Y46*%
G04 Gerber Fmt 4.6, Leading zero omitted, Abs format (unit mm)*
G04 Created by KiCad (PCBNEW (5.1.7-0-10_14)) date 2020-10-27 13:19:28*
%MOMM*%
%LPD*%
G01*
G04 APERTURE LIST*
%ADD10C,0.150000*%
%ADD11C,0.200000*%
%ADD12C,0.120000*%
%ADD13C,0.254000*%
G04 APERTURE END LIST*
D10*
X178676190Y-83805952D02*
X178771428Y-83758333D01*
X178819047Y-83710714D01*
X178866666Y-83615476D01*
X178866666Y-83567857D01*
X178819047Y-83472619D01*
X178771428Y-83425000D01*
X178676190Y-83377380D01*
X178485714Y-83377380D01*
X178390476Y-83425000D01*
X178342857Y-83472619D01*
X178295238Y-83567857D01*
X178295238Y-83615476D01*
X178342857Y-83710714D01*
X178390476Y-83758333D01*
X178485714Y-83805952D01*
X178676190Y-83805952D01*
X178771428Y-83853571D01*
X178819047Y-83901190D01*
X178866666Y-83996428D01*
X178866666Y-84186904D01*
X178819047Y-84282142D01*
X178771428Y-84329761D01*
X178676190Y-84377380D01*
X178485714Y-84377380D01*
X178390476Y-84329761D01*
X178342857Y-84282142D01*
X178295238Y-84186904D01*
X178295238Y-83996428D01*
X178342857Y-83901190D01*
X178390476Y-83853571D01*
X178485714Y-83805952D01*
X177961904Y-84377380D02*
X177438095Y-83710714D01*
X177961904Y-83710714D02*
X177438095Y-84377380D01*
X177104761Y-83472619D02*
X177057142Y-83425000D01*
X176961904Y-83377380D01*
X176723809Y-83377380D01*
X176628571Y-83425000D01*
X176580952Y-83472619D01*
X176533333Y-83567857D01*
X176533333Y-83663095D01*
X176580952Y-83805952D01*
X177152380Y-84377380D01*
X176533333Y-84377380D01*
X175342857Y-84377380D02*
X175342857Y-83377380D01*
X175342857Y-83758333D02*
X175247619Y-83710714D01*
X175057142Y-83710714D01*
X174961904Y-83758333D01*
X174914285Y-83805952D01*
X174866666Y-83901190D01*
X174866666Y-84186904D01*
X174914285Y-84282142D01*
X174961904Y-84329761D01*
X175057142Y-84377380D01*
X175247619Y-84377380D01*
X175342857Y-84329761D01*
X174009523Y-83710714D02*
X174009523Y-84377380D01*
X174438095Y-83710714D02*
X174438095Y-84234523D01*
X174390476Y-84329761D01*
X174295238Y-84377380D01*
X174152380Y-84377380D01*
X174057142Y-84329761D01*
X174009523Y-84282142D01*
X173676190Y-83710714D02*
X173295238Y-83710714D01*
X173533333Y-83377380D02*
X173533333Y-84234523D01*
X173485714Y-84329761D01*
X173390476Y-84377380D01*
X173295238Y-84377380D01*
X173104761Y-83710714D02*
X172723809Y-83710714D01*
X172961904Y-83377380D02*
X172961904Y-84234523D01*
X172914285Y-84329761D01*
X172819047Y-84377380D01*
X172723809Y-84377380D01*
X172247619Y-84377380D02*
X172342857Y-84329761D01*
X172390476Y-84282142D01*
X172438095Y-84186904D01*
X172438095Y-83901190D01*
X172390476Y-83805952D01*
X172342857Y-83758333D01*
X172247619Y-83710714D01*
X172104761Y-83710714D01*
X172009523Y-83758333D01*
X171961904Y-83805952D01*
X171914285Y-83901190D01*
X171914285Y-84186904D01*
X171961904Y-84282142D01*
X172009523Y-84329761D01*
X172104761Y-84377380D01*
X172247619Y-84377380D01*
X171485714Y-83710714D02*
X171485714Y-84377380D01*
X171485714Y-83805952D02*
X171438095Y-83758333D01*
X171342857Y-83710714D01*
X171200000Y-83710714D01*
X171104761Y-83758333D01*
X171057142Y-83853571D01*
X171057142Y-84377380D01*
X169819047Y-83710714D02*
X169819047Y-84710714D01*
X169819047Y-83758333D02*
X169723809Y-83710714D01*
X169533333Y-83710714D01*
X169438095Y-83758333D01*
X169390476Y-83805952D01*
X169342857Y-83901190D01*
X169342857Y-84186904D01*
X169390476Y-84282142D01*
X169438095Y-84329761D01*
X169533333Y-84377380D01*
X169723809Y-84377380D01*
X169819047Y-84329761D01*
X168485714Y-84377380D02*
X168485714Y-83853571D01*
X168533333Y-83758333D01*
X168628571Y-83710714D01*
X168819047Y-83710714D01*
X168914285Y-83758333D01*
X168485714Y-84329761D02*
X168580952Y-84377380D01*
X168819047Y-84377380D01*
X168914285Y-84329761D01*
X168961904Y-84234523D01*
X168961904Y-84139285D01*
X168914285Y-84044047D01*
X168819047Y-83996428D01*
X168580952Y-83996428D01*
X168485714Y-83948809D01*
X167580952Y-84377380D02*
X167580952Y-83377380D01*
X167580952Y-84329761D02*
X167676190Y-84377380D01*
X167866666Y-84377380D01*
X167961904Y-84329761D01*
X168009523Y-84282142D01*
X168057142Y-84186904D01*
X168057142Y-83901190D01*
X168009523Y-83805952D01*
X167961904Y-83758333D01*
X167866666Y-83710714D01*
X167676190Y-83710714D01*
X167580952Y-83758333D01*
X180271428Y-86027380D02*
X180271428Y-85027380D01*
X180271428Y-85408333D02*
X180176190Y-85360714D01*
X179985714Y-85360714D01*
X179890476Y-85408333D01*
X179842857Y-85455952D01*
X179795238Y-85551190D01*
X179795238Y-85836904D01*
X179842857Y-85932142D01*
X179890476Y-85979761D01*
X179985714Y-86027380D01*
X180176190Y-86027380D01*
X180271428Y-85979761D01*
X179461904Y-85360714D02*
X179223809Y-86027380D01*
X178985714Y-85360714D02*
X179223809Y-86027380D01*
X179319047Y-86265476D01*
X179366666Y-86313095D01*
X179461904Y-86360714D01*
X177319047Y-85075000D02*
X177414285Y-85027380D01*
X177557142Y-85027380D01*
X177700000Y-85075000D01*
X177795238Y-85170238D01*
X177842857Y-85265476D01*
X177890476Y-85455952D01*
X177890476Y-85598809D01*
X177842857Y-85789285D01*
X177795238Y-85884523D01*
X177700000Y-85979761D01*
X177557142Y-86027380D01*
X177461904Y-86027380D01*
X177319047Y-85979761D01*
X177271428Y-85932142D01*
X177271428Y-85598809D01*
X177461904Y-85598809D01*
X176414285Y-85360714D02*
X176414285Y-86027380D01*
X176842857Y-85360714D02*
X176842857Y-85884523D01*
X176795238Y-85979761D01*
X176700000Y-86027380D01*
X176557142Y-86027380D01*
X176461904Y-85979761D01*
X176414285Y-85932142D01*
X175985714Y-85979761D02*
X175890476Y-86027380D01*
X175700000Y-86027380D01*
X175604761Y-85979761D01*
X175557142Y-85884523D01*
X175557142Y-85836904D01*
X175604761Y-85741666D01*
X175700000Y-85694047D01*
X175842857Y-85694047D01*
X175938095Y-85646428D01*
X175985714Y-85551190D01*
X175985714Y-85503571D01*
X175938095Y-85408333D01*
X175842857Y-85360714D01*
X175700000Y-85360714D01*
X175604761Y-85408333D01*
X175271428Y-85360714D02*
X174890476Y-85360714D01*
X175128571Y-85027380D02*
X175128571Y-85884523D01*
X175080952Y-85979761D01*
X174985714Y-86027380D01*
X174890476Y-86027380D01*
X174128571Y-86027380D02*
X174128571Y-85503571D01*
X174176190Y-85408333D01*
X174271428Y-85360714D01*
X174461904Y-85360714D01*
X174557142Y-85408333D01*
X174128571Y-85979761D02*
X174223809Y-86027380D01*
X174461904Y-86027380D01*
X174557142Y-85979761D01*
X174604761Y-85884523D01*
X174604761Y-85789285D01*
X174557142Y-85694047D01*
X174461904Y-85646428D01*
X174223809Y-85646428D01*
X174128571Y-85598809D01*
X173747619Y-85360714D02*
X173509523Y-86027380D01*
X173271428Y-85360714D01*
X172747619Y-86027380D02*
X172842857Y-85979761D01*
X172890476Y-85932142D01*
X172938095Y-85836904D01*
X172938095Y-85551190D01*
X172890476Y-85455952D01*
X172842857Y-85408333D01*
X172747619Y-85360714D01*
X172604761Y-85360714D01*
X172509523Y-85408333D01*
X172461904Y-85455952D01*
X172414285Y-85551190D01*
X172414285Y-85836904D01*
X172461904Y-85932142D01*
X172509523Y-85979761D01*
X172604761Y-86027380D01*
X172747619Y-86027380D01*
X171271428Y-85979761D02*
X171128571Y-86027380D01*
X170890476Y-86027380D01*
X170795238Y-85979761D01*
X170747619Y-85932142D01*
X170700000Y-85836904D01*
X170700000Y-85741666D01*
X170747619Y-85646428D01*
X170795238Y-85598809D01*
X170890476Y-85551190D01*
X171080952Y-85503571D01*
X171176190Y-85455952D01*
X171223809Y-85408333D01*
X171271428Y-85313095D01*
X171271428Y-85217857D01*
X171223809Y-85122619D01*
X171176190Y-85075000D01*
X171080952Y-85027380D01*
X170842857Y-85027380D01*
X170700000Y-85075000D01*
X170271428Y-86027380D02*
X170271428Y-85360714D01*
X170271428Y-85027380D02*
X170319047Y-85075000D01*
X170271428Y-85122619D01*
X170223809Y-85075000D01*
X170271428Y-85027380D01*
X170271428Y-85122619D01*
X169652380Y-86027380D02*
X169747619Y-85979761D01*
X169795238Y-85884523D01*
X169795238Y-85027380D01*
X169366666Y-85360714D02*
X169128571Y-86027380D01*
X168890476Y-85360714D01*
X168128571Y-85979761D02*
X168223809Y-86027380D01*
X168414285Y-86027380D01*
X168509523Y-85979761D01*
X168557142Y-85884523D01*
X168557142Y-85503571D01*
X168509523Y-85408333D01*
X168414285Y-85360714D01*
X168223809Y-85360714D01*
X168128571Y-85408333D01*
X168080952Y-85503571D01*
X168080952Y-85598809D01*
X168557142Y-85694047D01*
X167652380Y-86027380D02*
X167652380Y-85360714D01*
X167652380Y-85027380D02*
X167700000Y-85075000D01*
X167652380Y-85122619D01*
X167604761Y-85075000D01*
X167652380Y-85027380D01*
X167652380Y-85122619D01*
X167176190Y-86027380D02*
X167176190Y-85360714D01*
X167176190Y-85551190D02*
X167128571Y-85455952D01*
X167080952Y-85408333D01*
X166985714Y-85360714D01*
X166890476Y-85360714D01*
X166128571Y-86027380D02*
X166128571Y-85503571D01*
X166176190Y-85408333D01*
X166271428Y-85360714D01*
X166461904Y-85360714D01*
X166557142Y-85408333D01*
X166128571Y-85979761D02*
X166223809Y-86027380D01*
X166461904Y-86027380D01*
X166557142Y-85979761D01*
X166604761Y-85884523D01*
X166604761Y-85789285D01*
X166557142Y-85694047D01*
X166461904Y-85646428D01*
X166223809Y-85646428D01*
X166128571Y-85598809D01*
X178866666Y-87677380D02*
X178866666Y-87153571D01*
X178914285Y-87058333D01*
X179009523Y-87010714D01*
X179200000Y-87010714D01*
X179295238Y-87058333D01*
X178866666Y-87629761D02*
X178961904Y-87677380D01*
X179200000Y-87677380D01*
X179295238Y-87629761D01*
X179342857Y-87534523D01*
X179342857Y-87439285D01*
X179295238Y-87344047D01*
X179200000Y-87296428D01*
X178961904Y-87296428D01*
X178866666Y-87248809D01*
X178390476Y-87677380D02*
X178390476Y-86677380D01*
X178295238Y-87296428D02*
X178009523Y-87677380D01*
X178009523Y-87010714D02*
X178390476Y-87391666D01*
X177152380Y-87677380D02*
X177152380Y-87153571D01*
X177200000Y-87058333D01*
X177295238Y-87010714D01*
X177485714Y-87010714D01*
X177580952Y-87058333D01*
X177152380Y-87629761D02*
X177247619Y-87677380D01*
X177485714Y-87677380D01*
X177580952Y-87629761D01*
X177628571Y-87534523D01*
X177628571Y-87439285D01*
X177580952Y-87344047D01*
X177485714Y-87296428D01*
X177247619Y-87296428D01*
X177152380Y-87248809D01*
X175914285Y-87677380D02*
X175914285Y-86677380D01*
X175580952Y-87391666D01*
X175247619Y-86677380D01*
X175247619Y-87677380D01*
X174342857Y-87010714D02*
X174342857Y-87677380D01*
X174771428Y-87010714D02*
X174771428Y-87534523D01*
X174723809Y-87629761D01*
X174628571Y-87677380D01*
X174485714Y-87677380D01*
X174390476Y-87629761D01*
X174342857Y-87582142D01*
X173914285Y-87629761D02*
X173819047Y-87677380D01*
X173628571Y-87677380D01*
X173533333Y-87629761D01*
X173485714Y-87534523D01*
X173485714Y-87486904D01*
X173533333Y-87391666D01*
X173628571Y-87344047D01*
X173771428Y-87344047D01*
X173866666Y-87296428D01*
X173914285Y-87201190D01*
X173914285Y-87153571D01*
X173866666Y-87058333D01*
X173771428Y-87010714D01*
X173628571Y-87010714D01*
X173533333Y-87058333D01*
X173057142Y-87677380D02*
X173057142Y-87010714D01*
X173057142Y-86677380D02*
X173104761Y-86725000D01*
X173057142Y-86772619D01*
X173009523Y-86725000D01*
X173057142Y-86677380D01*
X173057142Y-86772619D01*
X172152380Y-87629761D02*
X172247619Y-87677380D01*
X172438095Y-87677380D01*
X172533333Y-87629761D01*
X172580952Y-87582142D01*
X172628571Y-87486904D01*
X172628571Y-87201190D01*
X172580952Y-87105952D01*
X172533333Y-87058333D01*
X172438095Y-87010714D01*
X172247619Y-87010714D01*
X172152380Y-87058333D01*
X171580952Y-87677380D02*
X171676190Y-87629761D01*
X171723809Y-87582142D01*
X171771428Y-87486904D01*
X171771428Y-87201190D01*
X171723809Y-87105952D01*
X171676190Y-87058333D01*
X171580952Y-87010714D01*
X171438095Y-87010714D01*
X171342857Y-87058333D01*
X171295238Y-87105952D01*
X171247619Y-87201190D01*
X171247619Y-87486904D01*
X171295238Y-87582142D01*
X171342857Y-87629761D01*
X171438095Y-87677380D01*
X171580952Y-87677380D01*
X170057142Y-87677380D02*
X170057142Y-86677380D01*
X169485714Y-87677380D01*
X169485714Y-86677380D01*
X168628571Y-87629761D02*
X168723809Y-87677380D01*
X168914285Y-87677380D01*
X169009523Y-87629761D01*
X169057142Y-87534523D01*
X169057142Y-87153571D01*
X169009523Y-87058333D01*
X168914285Y-87010714D01*
X168723809Y-87010714D01*
X168628571Y-87058333D01*
X168580952Y-87153571D01*
X168580952Y-87248809D01*
X169057142Y-87344047D01*
X168152380Y-87677380D02*
X168152380Y-87010714D01*
X168152380Y-87201190D02*
X168104761Y-87105952D01*
X168057142Y-87058333D01*
X167961904Y-87010714D01*
X167866666Y-87010714D01*
X167104761Y-87677380D02*
X167104761Y-86677380D01*
X167104761Y-87629761D02*
X167200000Y-87677380D01*
X167390476Y-87677380D01*
X167485714Y-87629761D01*
X167533333Y-87582142D01*
X167580952Y-87486904D01*
X167580952Y-87201190D01*
X167533333Y-87105952D01*
X167485714Y-87058333D01*
X167390476Y-87010714D01*
X167200000Y-87010714D01*
X167104761Y-87058333D01*
X175176190Y-89327380D02*
X175176190Y-88660714D01*
X175176190Y-88851190D02*
X175128571Y-88755952D01*
X175080952Y-88708333D01*
X174985714Y-88660714D01*
X174890476Y-88660714D01*
X174176190Y-89279761D02*
X174271428Y-89327380D01*
X174461904Y-89327380D01*
X174557142Y-89279761D01*
X174604761Y-89184523D01*
X174604761Y-88803571D01*
X174557142Y-88708333D01*
X174461904Y-88660714D01*
X174271428Y-88660714D01*
X174176190Y-88708333D01*
X174128571Y-88803571D01*
X174128571Y-88898809D01*
X174604761Y-88994047D01*
X173795238Y-88660714D02*
X173557142Y-89327380D01*
X173319047Y-88660714D01*
X172938095Y-89232142D02*
X172890476Y-89279761D01*
X172938095Y-89327380D01*
X172985714Y-89279761D01*
X172938095Y-89232142D01*
X172938095Y-89327380D01*
X171176190Y-89327380D02*
X171747619Y-89327380D01*
X171461904Y-89327380D02*
X171461904Y-88327380D01*
X171557142Y-88470238D01*
X171652380Y-88565476D01*
X171747619Y-88613095D01*
X244516665Y-75054761D02*
X244611903Y-75102380D01*
X244802380Y-75102380D01*
X244897618Y-75054761D01*
X244945237Y-75007142D01*
X244992856Y-74911904D01*
X244992856Y-74626190D01*
X244945237Y-74530952D01*
X244897618Y-74483333D01*
X244802380Y-74435714D01*
X244611903Y-74435714D01*
X244516665Y-74483333D01*
X243945237Y-75102380D02*
X244040475Y-75054761D01*
X244088094Y-74959523D01*
X244088094Y-74102380D01*
X243421427Y-75102380D02*
X243516665Y-75054761D01*
X243564284Y-75007142D01*
X243611903Y-74911904D01*
X243611903Y-74626190D01*
X243564284Y-74530952D01*
X243516665Y-74483333D01*
X243421427Y-74435714D01*
X243278570Y-74435714D01*
X243183332Y-74483333D01*
X243135713Y-74530952D01*
X243088094Y-74626190D01*
X243088094Y-74911904D01*
X243135713Y-75007142D01*
X243183332Y-75054761D01*
X243278570Y-75102380D01*
X243421427Y-75102380D01*
X242230951Y-75054761D02*
X242326189Y-75102380D01*
X242516665Y-75102380D01*
X242611903Y-75054761D01*
X242659522Y-75007142D01*
X242707142Y-74911904D01*
X242707142Y-74626190D01*
X242659522Y-74530952D01*
X242611903Y-74483333D01*
X242516665Y-74435714D01*
X242326189Y-74435714D01*
X242230951Y-74483333D01*
X241802380Y-75102380D02*
X241802380Y-74102380D01*
X241707142Y-74721428D02*
X241421427Y-75102380D01*
X241421427Y-74435714D02*
X241802380Y-74816666D01*
X244516666Y-72602380D02*
X244516666Y-71602380D01*
X244516666Y-72554761D02*
X244611904Y-72602380D01*
X244802380Y-72602380D01*
X244897618Y-72554761D01*
X244945237Y-72507142D01*
X244992856Y-72411904D01*
X244992856Y-72126190D01*
X244945237Y-72030952D01*
X244897618Y-71983333D01*
X244802380Y-71935714D01*
X244611904Y-71935714D01*
X244516666Y-71983333D01*
X243611904Y-72602380D02*
X243611904Y-72078571D01*
X243659523Y-71983333D01*
X243754761Y-71935714D01*
X243945237Y-71935714D01*
X244040475Y-71983333D01*
X243611904Y-72554761D02*
X243707142Y-72602380D01*
X243945237Y-72602380D01*
X244040475Y-72554761D01*
X244088094Y-72459523D01*
X244088094Y-72364285D01*
X244040475Y-72269047D01*
X243945237Y-72221428D01*
X243707142Y-72221428D01*
X243611904Y-72173809D01*
X243278570Y-71935714D02*
X242897618Y-71935714D01*
X243135713Y-71602380D02*
X243135713Y-72459523D01*
X243088094Y-72554761D01*
X242992856Y-72602380D01*
X242897618Y-72602380D01*
X242135713Y-72602380D02*
X242135713Y-72078571D01*
X242183332Y-71983333D01*
X242278570Y-71935714D01*
X242469047Y-71935714D01*
X242564285Y-71983333D01*
X242135713Y-72554761D02*
X242230951Y-72602380D01*
X242469047Y-72602380D01*
X242564285Y-72554761D01*
X242611904Y-72459523D01*
X242611904Y-72364285D01*
X242564285Y-72269047D01*
X242469047Y-72221428D01*
X242230951Y-72221428D01*
X242135713Y-72173809D01*
X240754761Y-72602380D02*
X240849999Y-72554761D01*
X240897618Y-72507142D01*
X240945237Y-72411904D01*
X240945237Y-72126190D01*
X240897618Y-72030952D01*
X240849999Y-71983333D01*
X240754761Y-71935714D01*
X240611904Y-71935714D01*
X240516666Y-71983333D01*
X240469047Y-72030952D01*
X240421427Y-72126190D01*
X240421427Y-72411904D01*
X240469047Y-72507142D01*
X240516666Y-72554761D01*
X240611904Y-72602380D01*
X240754761Y-72602380D01*
X239564285Y-71935714D02*
X239564285Y-72602380D01*
X239992856Y-71935714D02*
X239992856Y-72459523D01*
X239945237Y-72554761D01*
X239849999Y-72602380D01*
X239707142Y-72602380D01*
X239611904Y-72554761D01*
X239564285Y-72507142D01*
X239230951Y-71935714D02*
X238849999Y-71935714D01*
X239088094Y-71602380D02*
X239088094Y-72459523D01*
X239040475Y-72554761D01*
X238945237Y-72602380D01*
X238849999Y-72602380D01*
X244992856Y-89304761D02*
X244897618Y-89352380D01*
X244707141Y-89352380D01*
X244611903Y-89304761D01*
X244564284Y-89209523D01*
X244564284Y-89161904D01*
X244611903Y-89066666D01*
X244707141Y-89019047D01*
X244849999Y-89019047D01*
X244945237Y-88971428D01*
X244992856Y-88876190D01*
X244992856Y-88828571D01*
X244945237Y-88733333D01*
X244849999Y-88685714D01*
X244707141Y-88685714D01*
X244611903Y-88733333D01*
X244183332Y-88447619D02*
X244135713Y-88400000D01*
X244040475Y-88352380D01*
X243802380Y-88352380D01*
X243707141Y-88400000D01*
X243659522Y-88447619D01*
X243611903Y-88542857D01*
X243611903Y-88638095D01*
X243659522Y-88780952D01*
X244230951Y-89352380D01*
X243611903Y-89352380D01*
X244516666Y-102185714D02*
X244516666Y-102995238D01*
X244564285Y-103090476D01*
X244611904Y-103138095D01*
X244707142Y-103185714D01*
X244849999Y-103185714D01*
X244945237Y-103138095D01*
X244516666Y-102804761D02*
X244611904Y-102852380D01*
X244802380Y-102852380D01*
X244897618Y-102804761D01*
X244945237Y-102757142D01*
X244992856Y-102661904D01*
X244992856Y-102376190D01*
X244945237Y-102280952D01*
X244897618Y-102233333D01*
X244802380Y-102185714D01*
X244611904Y-102185714D01*
X244516666Y-102233333D01*
X244040475Y-102185714D02*
X244040475Y-102852380D01*
X244040475Y-102280952D02*
X243992856Y-102233333D01*
X243897618Y-102185714D01*
X243754761Y-102185714D01*
X243659523Y-102233333D01*
X243611904Y-102328571D01*
X243611904Y-102852380D01*
X242707142Y-102852380D02*
X242707142Y-101852380D01*
X242707142Y-102804761D02*
X242802380Y-102852380D01*
X242992856Y-102852380D01*
X243088094Y-102804761D01*
X243135713Y-102757142D01*
X243183332Y-102661904D01*
X243183332Y-102376190D01*
X243135713Y-102280952D01*
X243088094Y-102233333D01*
X242992856Y-102185714D01*
X242802380Y-102185714D01*
X242707142Y-102233333D01*
X244992856Y-97304761D02*
X244897618Y-97352380D01*
X244707142Y-97352380D01*
X244611904Y-97304761D01*
X244564285Y-97209523D01*
X244564285Y-97161904D01*
X244611904Y-97066666D01*
X244707142Y-97019047D01*
X244849999Y-97019047D01*
X244945237Y-96971428D01*
X244992856Y-96876190D01*
X244992856Y-96828571D01*
X244945237Y-96733333D01*
X244849999Y-96685714D01*
X244707142Y-96685714D01*
X244611904Y-96733333D01*
X244135714Y-97352380D02*
X244135714Y-96685714D01*
X244135714Y-96352380D02*
X244183333Y-96400000D01*
X244135714Y-96447619D01*
X244088095Y-96400000D01*
X244135714Y-96352380D01*
X244135714Y-96447619D01*
X243230952Y-96685714D02*
X243230952Y-97495238D01*
X243278571Y-97590476D01*
X243326190Y-97638095D01*
X243421428Y-97685714D01*
X243564285Y-97685714D01*
X243659523Y-97638095D01*
X243230952Y-97304761D02*
X243326190Y-97352380D01*
X243516666Y-97352380D01*
X243611904Y-97304761D01*
X243659523Y-97257142D01*
X243707142Y-97161904D01*
X243707142Y-96876190D01*
X243659523Y-96780952D01*
X243611904Y-96733333D01*
X243516666Y-96685714D01*
X243326190Y-96685714D01*
X243230952Y-96733333D01*
X244992856Y-86804761D02*
X244897618Y-86852380D01*
X244707141Y-86852380D01*
X244611903Y-86804761D01*
X244564284Y-86709523D01*
X244564284Y-86661904D01*
X244611903Y-86566666D01*
X244707141Y-86519047D01*
X244849999Y-86519047D01*
X244945237Y-86471428D01*
X244992856Y-86376190D01*
X244992856Y-86328571D01*
X244945237Y-86233333D01*
X244849999Y-86185714D01*
X244707141Y-86185714D01*
X244611903Y-86233333D01*
X244230951Y-85852380D02*
X243611903Y-85852380D01*
X243945237Y-86233333D01*
X243802380Y-86233333D01*
X243707141Y-86280952D01*
X243659522Y-86328571D01*
X243611903Y-86423809D01*
X243611903Y-86661904D01*
X243659522Y-86757142D01*
X243707141Y-86804761D01*
X243802380Y-86852380D01*
X244088094Y-86852380D01*
X244183332Y-86804761D01*
X244230951Y-86757142D01*
X245040476Y-99185714D02*
X244802380Y-99852380D01*
X244564285Y-99185714D01*
X243754761Y-99804761D02*
X243849999Y-99852380D01*
X244040476Y-99852380D01*
X244135714Y-99804761D01*
X244183333Y-99757142D01*
X244230952Y-99661904D01*
X244230952Y-99376190D01*
X244183333Y-99280952D01*
X244135714Y-99233333D01*
X244040476Y-99185714D01*
X243849999Y-99185714D01*
X243754761Y-99233333D01*
X242897618Y-99804761D02*
X242992857Y-99852380D01*
X243183333Y-99852380D01*
X243278571Y-99804761D01*
X243326190Y-99757142D01*
X243373809Y-99661904D01*
X243373809Y-99376190D01*
X243326190Y-99280952D01*
X243278571Y-99233333D01*
X243183333Y-99185714D01*
X242992857Y-99185714D01*
X242897618Y-99233333D01*
X244516666Y-80102380D02*
X244516666Y-79102380D01*
X244516666Y-80054761D02*
X244611904Y-80102380D01*
X244802380Y-80102380D01*
X244897618Y-80054761D01*
X244945237Y-80007142D01*
X244992856Y-79911904D01*
X244992856Y-79626190D01*
X244945237Y-79530952D01*
X244897618Y-79483333D01*
X244802380Y-79435714D01*
X244611904Y-79435714D01*
X244516666Y-79483333D01*
X243611904Y-80102380D02*
X243611904Y-79578571D01*
X243659523Y-79483333D01*
X243754761Y-79435714D01*
X243945237Y-79435714D01*
X244040475Y-79483333D01*
X243611904Y-80054761D02*
X243707142Y-80102380D01*
X243945237Y-80102380D01*
X244040475Y-80054761D01*
X244088094Y-79959523D01*
X244088094Y-79864285D01*
X244040475Y-79769047D01*
X243945237Y-79721428D01*
X243707142Y-79721428D01*
X243611904Y-79673809D01*
X243278570Y-79435714D02*
X242897618Y-79435714D01*
X243135713Y-79102380D02*
X243135713Y-79959523D01*
X243088094Y-80054761D01*
X242992856Y-80102380D01*
X242897618Y-80102380D01*
X242135713Y-80102380D02*
X242135713Y-79578571D01*
X242183332Y-79483333D01*
X242278570Y-79435714D01*
X242469047Y-79435714D01*
X242564285Y-79483333D01*
X242135713Y-80054761D02*
X242230951Y-80102380D01*
X242469047Y-80102380D01*
X242564285Y-80054761D01*
X242611904Y-79959523D01*
X242611904Y-79864285D01*
X242564285Y-79769047D01*
X242469047Y-79721428D01*
X242230951Y-79721428D01*
X242135713Y-79673809D01*
X240897618Y-80102380D02*
X240897618Y-79435714D01*
X240897618Y-79102380D02*
X240945237Y-79150000D01*
X240897618Y-79197619D01*
X240849999Y-79150000D01*
X240897618Y-79102380D01*
X240897618Y-79197619D01*
X240421427Y-79435714D02*
X240421427Y-80102380D01*
X240421427Y-79530952D02*
X240373808Y-79483333D01*
X240278570Y-79435714D01*
X240135713Y-79435714D01*
X240040475Y-79483333D01*
X239992856Y-79578571D01*
X239992856Y-80102380D01*
X244802380Y-77602380D02*
X244897618Y-77554761D01*
X244945237Y-77459523D01*
X244945237Y-76602380D01*
X243992856Y-77602380D02*
X243992856Y-77078571D01*
X244040475Y-76983333D01*
X244135713Y-76935714D01*
X244326189Y-76935714D01*
X244421427Y-76983333D01*
X243992856Y-77554761D02*
X244088094Y-77602380D01*
X244326189Y-77602380D01*
X244421427Y-77554761D01*
X244469046Y-77459523D01*
X244469046Y-77364285D01*
X244421427Y-77269047D01*
X244326189Y-77221428D01*
X244088094Y-77221428D01*
X243992856Y-77173809D01*
X243659522Y-76935714D02*
X243278570Y-76935714D01*
X243516665Y-76602380D02*
X243516665Y-77459523D01*
X243469046Y-77554761D01*
X243373808Y-77602380D01*
X243278570Y-77602380D01*
X242516665Y-77554761D02*
X242611903Y-77602380D01*
X242802380Y-77602380D01*
X242897618Y-77554761D01*
X242945237Y-77507142D01*
X242992856Y-77411904D01*
X242992856Y-77126190D01*
X242945237Y-77030952D01*
X242897618Y-76983333D01*
X242802380Y-76935714D01*
X242611903Y-76935714D01*
X242516665Y-76983333D01*
X242088094Y-77602380D02*
X242088094Y-76602380D01*
X241659522Y-77602380D02*
X241659522Y-77078571D01*
X241707141Y-76983333D01*
X241802380Y-76935714D01*
X241945237Y-76935714D01*
X242040475Y-76983333D01*
X242088094Y-77030952D01*
X244992856Y-94804761D02*
X244897618Y-94852380D01*
X244707141Y-94852380D01*
X244611903Y-94804761D01*
X244564284Y-94709523D01*
X244564284Y-94661904D01*
X244611903Y-94566666D01*
X244707141Y-94519047D01*
X244849999Y-94519047D01*
X244945237Y-94471428D01*
X244992856Y-94376190D01*
X244992856Y-94328571D01*
X244945237Y-94233333D01*
X244849999Y-94185714D01*
X244707141Y-94185714D01*
X244611903Y-94233333D01*
X243945237Y-93852380D02*
X243849999Y-93852380D01*
X243754760Y-93900000D01*
X243707141Y-93947619D01*
X243659522Y-94042857D01*
X243611903Y-94233333D01*
X243611903Y-94471428D01*
X243659522Y-94661904D01*
X243707141Y-94757142D01*
X243754760Y-94804761D01*
X243849999Y-94852380D01*
X243945237Y-94852380D01*
X244040475Y-94804761D01*
X244088094Y-94757142D01*
X244135713Y-94661904D01*
X244183332Y-94471428D01*
X244183332Y-94233333D01*
X244135713Y-94042857D01*
X244088094Y-93947619D01*
X244040475Y-93900000D01*
X243945237Y-93852380D01*
X244992856Y-92304761D02*
X244897618Y-92352380D01*
X244707141Y-92352380D01*
X244611903Y-92304761D01*
X244564284Y-92209523D01*
X244564284Y-92161904D01*
X244611903Y-92066666D01*
X244707141Y-92019047D01*
X244849999Y-92019047D01*
X244945237Y-91971428D01*
X244992856Y-91876190D01*
X244992856Y-91828571D01*
X244945237Y-91733333D01*
X244849999Y-91685714D01*
X244707141Y-91685714D01*
X244611903Y-91733333D01*
X243611903Y-92352380D02*
X244183332Y-92352380D01*
X243897618Y-92352380D02*
X243897618Y-91352380D01*
X243992856Y-91495238D01*
X244088094Y-91590476D01*
X244183332Y-91638095D01*
X56290476Y-102685714D02*
X56290476Y-103495238D01*
X56338095Y-103590476D01*
X56385714Y-103638095D01*
X56480952Y-103685714D01*
X56623809Y-103685714D01*
X56719047Y-103638095D01*
X56290476Y-103304761D02*
X56385714Y-103352380D01*
X56576190Y-103352380D01*
X56671428Y-103304761D01*
X56719047Y-103257142D01*
X56766666Y-103161904D01*
X56766666Y-102876190D01*
X56719047Y-102780952D01*
X56671428Y-102733333D01*
X56576190Y-102685714D01*
X56385714Y-102685714D01*
X56290476Y-102733333D01*
X55814285Y-102685714D02*
X55814285Y-103352380D01*
X55814285Y-102780952D02*
X55766666Y-102733333D01*
X55671428Y-102685714D01*
X55528571Y-102685714D01*
X55433333Y-102733333D01*
X55385714Y-102828571D01*
X55385714Y-103352380D01*
X54480952Y-103352380D02*
X54480952Y-102352380D01*
X54480952Y-103304761D02*
X54576190Y-103352380D01*
X54766666Y-103352380D01*
X54861904Y-103304761D01*
X54909523Y-103257142D01*
X54957142Y-103161904D01*
X54957142Y-102876190D01*
X54909523Y-102780952D01*
X54861904Y-102733333D01*
X54766666Y-102685714D01*
X54576190Y-102685714D01*
X54480952Y-102733333D01*
X56576190Y-99685714D02*
X56338094Y-100352380D01*
X56099999Y-99685714D01*
X55290475Y-100304761D02*
X55385713Y-100352380D01*
X55576190Y-100352380D01*
X55671428Y-100304761D01*
X55719047Y-100257142D01*
X55766666Y-100161904D01*
X55766666Y-99876190D01*
X55719047Y-99780952D01*
X55671428Y-99733333D01*
X55576190Y-99685714D01*
X55385713Y-99685714D01*
X55290475Y-99733333D01*
X54433332Y-100304761D02*
X54528571Y-100352380D01*
X54719047Y-100352380D01*
X54814285Y-100304761D01*
X54861904Y-100257142D01*
X54909523Y-100161904D01*
X54909523Y-99876190D01*
X54861904Y-99780952D01*
X54814285Y-99733333D01*
X54719047Y-99685714D01*
X54528571Y-99685714D01*
X54433332Y-99733333D01*
X56242856Y-97804761D02*
X56147618Y-97852380D01*
X55957142Y-97852380D01*
X55861904Y-97804761D01*
X55814285Y-97709523D01*
X55814285Y-97661904D01*
X55861904Y-97566666D01*
X55957142Y-97519047D01*
X56099999Y-97519047D01*
X56195237Y-97471428D01*
X56242856Y-97376190D01*
X56242856Y-97328571D01*
X56195237Y-97233333D01*
X56099999Y-97185714D01*
X55957142Y-97185714D01*
X55861904Y-97233333D01*
X55385714Y-97852380D02*
X55385714Y-97185714D01*
X55385714Y-96852380D02*
X55433333Y-96900000D01*
X55385714Y-96947619D01*
X55338095Y-96900000D01*
X55385714Y-96852380D01*
X55385714Y-96947619D01*
X54480952Y-97185714D02*
X54480952Y-97995238D01*
X54528571Y-98090476D01*
X54576190Y-98138095D01*
X54671428Y-98185714D01*
X54814285Y-98185714D01*
X54909523Y-98138095D01*
X54480952Y-97804761D02*
X54576190Y-97852380D01*
X54766666Y-97852380D01*
X54861904Y-97804761D01*
X54909523Y-97757142D01*
X54957142Y-97661904D01*
X54957142Y-97376190D01*
X54909523Y-97280952D01*
X54861904Y-97233333D01*
X54766666Y-97185714D01*
X54576190Y-97185714D01*
X54480952Y-97233333D01*
X55790476Y-95304761D02*
X55695238Y-95352380D01*
X55504761Y-95352380D01*
X55409523Y-95304761D01*
X55361904Y-95209523D01*
X55361904Y-95161904D01*
X55409523Y-95066666D01*
X55504761Y-95019047D01*
X55647619Y-95019047D01*
X55742857Y-94971428D01*
X55790476Y-94876190D01*
X55790476Y-94828571D01*
X55742857Y-94733333D01*
X55647619Y-94685714D01*
X55504761Y-94685714D01*
X55409523Y-94733333D01*
X54742857Y-94352380D02*
X54647619Y-94352380D01*
X54552380Y-94400000D01*
X54504761Y-94447619D01*
X54457142Y-94542857D01*
X54409523Y-94733333D01*
X54409523Y-94971428D01*
X54457142Y-95161904D01*
X54504761Y-95257142D01*
X54552380Y-95304761D01*
X54647619Y-95352380D01*
X54742857Y-95352380D01*
X54838095Y-95304761D01*
X54885714Y-95257142D01*
X54933333Y-95161904D01*
X54980952Y-94971428D01*
X54980952Y-94733333D01*
X54933333Y-94542857D01*
X54885714Y-94447619D01*
X54838095Y-94400000D01*
X54742857Y-94352380D01*
X55814285Y-92804761D02*
X55719047Y-92852380D01*
X55528570Y-92852380D01*
X55433332Y-92804761D01*
X55385713Y-92709523D01*
X55385713Y-92661904D01*
X55433332Y-92566666D01*
X55528570Y-92519047D01*
X55671428Y-92519047D01*
X55766666Y-92471428D01*
X55814285Y-92376190D01*
X55814285Y-92328571D01*
X55766666Y-92233333D01*
X55671428Y-92185714D01*
X55528570Y-92185714D01*
X55433332Y-92233333D01*
X54433332Y-92852380D02*
X55004761Y-92852380D01*
X54719047Y-92852380D02*
X54719047Y-91852380D01*
X54814285Y-91995238D01*
X54909523Y-92090476D01*
X55004761Y-92138095D01*
X55814285Y-89804761D02*
X55719047Y-89852380D01*
X55528570Y-89852380D01*
X55433332Y-89804761D01*
X55385713Y-89709523D01*
X55385713Y-89661904D01*
X55433332Y-89566666D01*
X55528570Y-89519047D01*
X55671428Y-89519047D01*
X55766666Y-89471428D01*
X55814285Y-89376190D01*
X55814285Y-89328571D01*
X55766666Y-89233333D01*
X55671428Y-89185714D01*
X55528570Y-89185714D01*
X55433332Y-89233333D01*
X55004761Y-88947619D02*
X54957142Y-88900000D01*
X54861904Y-88852380D01*
X54623809Y-88852380D01*
X54528570Y-88900000D01*
X54480951Y-88947619D01*
X54433332Y-89042857D01*
X54433332Y-89138095D01*
X54480951Y-89280952D01*
X55052380Y-89852380D01*
X54433332Y-89852380D01*
X55814285Y-87304761D02*
X55719047Y-87352380D01*
X55528570Y-87352380D01*
X55433332Y-87304761D01*
X55385713Y-87209523D01*
X55385713Y-87161904D01*
X55433332Y-87066666D01*
X55528570Y-87019047D01*
X55671428Y-87019047D01*
X55766666Y-86971428D01*
X55814285Y-86876190D01*
X55814285Y-86828571D01*
X55766666Y-86733333D01*
X55671428Y-86685714D01*
X55528570Y-86685714D01*
X55433332Y-86733333D01*
X55052380Y-86352380D02*
X54433332Y-86352380D01*
X54766666Y-86733333D01*
X54623809Y-86733333D01*
X54528570Y-86780952D01*
X54480951Y-86828571D01*
X54433332Y-86923809D01*
X54433332Y-87161904D01*
X54480951Y-87257142D01*
X54528570Y-87304761D01*
X54623809Y-87352380D01*
X54909523Y-87352380D01*
X55004761Y-87304761D01*
X55052380Y-87257142D01*
X58897619Y-80602380D02*
X58897619Y-79602380D01*
X58897619Y-80554761D02*
X58992857Y-80602380D01*
X59183333Y-80602380D01*
X59278571Y-80554761D01*
X59326190Y-80507142D01*
X59373809Y-80411904D01*
X59373809Y-80126190D01*
X59326190Y-80030952D01*
X59278571Y-79983333D01*
X59183333Y-79935714D01*
X58992857Y-79935714D01*
X58897619Y-79983333D01*
X57992857Y-80602380D02*
X57992857Y-80078571D01*
X58040476Y-79983333D01*
X58135714Y-79935714D01*
X58326190Y-79935714D01*
X58421428Y-79983333D01*
X57992857Y-80554761D02*
X58088095Y-80602380D01*
X58326190Y-80602380D01*
X58421428Y-80554761D01*
X58469047Y-80459523D01*
X58469047Y-80364285D01*
X58421428Y-80269047D01*
X58326190Y-80221428D01*
X58088095Y-80221428D01*
X57992857Y-80173809D01*
X57659523Y-79935714D02*
X57278571Y-79935714D01*
X57516666Y-79602380D02*
X57516666Y-80459523D01*
X57469047Y-80554761D01*
X57373809Y-80602380D01*
X57278571Y-80602380D01*
X56516666Y-80602380D02*
X56516666Y-80078571D01*
X56564285Y-79983333D01*
X56659523Y-79935714D01*
X56850000Y-79935714D01*
X56945238Y-79983333D01*
X56516666Y-80554761D02*
X56611904Y-80602380D01*
X56850000Y-80602380D01*
X56945238Y-80554761D01*
X56992857Y-80459523D01*
X56992857Y-80364285D01*
X56945238Y-80269047D01*
X56850000Y-80221428D01*
X56611904Y-80221428D01*
X56516666Y-80173809D01*
X55278571Y-80602380D02*
X55278571Y-79935714D01*
X55278571Y-79602380D02*
X55326190Y-79650000D01*
X55278571Y-79697619D01*
X55230952Y-79650000D01*
X55278571Y-79602380D01*
X55278571Y-79697619D01*
X54802380Y-79935714D02*
X54802380Y-80602380D01*
X54802380Y-80030952D02*
X54754761Y-79983333D01*
X54659523Y-79935714D01*
X54516666Y-79935714D01*
X54421428Y-79983333D01*
X54373809Y-80078571D01*
X54373809Y-80602380D01*
X57516667Y-78102380D02*
X57611905Y-78054761D01*
X57659524Y-77959523D01*
X57659524Y-77102380D01*
X56707143Y-78102380D02*
X56707143Y-77578571D01*
X56754762Y-77483333D01*
X56850000Y-77435714D01*
X57040476Y-77435714D01*
X57135714Y-77483333D01*
X56707143Y-78054761D02*
X56802381Y-78102380D01*
X57040476Y-78102380D01*
X57135714Y-78054761D01*
X57183333Y-77959523D01*
X57183333Y-77864285D01*
X57135714Y-77769047D01*
X57040476Y-77721428D01*
X56802381Y-77721428D01*
X56707143Y-77673809D01*
X56373809Y-77435714D02*
X55992857Y-77435714D01*
X56230952Y-77102380D02*
X56230952Y-77959523D01*
X56183333Y-78054761D01*
X56088095Y-78102380D01*
X55992857Y-78102380D01*
X55230952Y-78054761D02*
X55326190Y-78102380D01*
X55516667Y-78102380D01*
X55611905Y-78054761D01*
X55659524Y-78007142D01*
X55707143Y-77911904D01*
X55707143Y-77626190D01*
X55659524Y-77530952D01*
X55611905Y-77483333D01*
X55516667Y-77435714D01*
X55326190Y-77435714D01*
X55230952Y-77483333D01*
X54802381Y-78102380D02*
X54802381Y-77102380D01*
X54373809Y-78102380D02*
X54373809Y-77578571D01*
X54421428Y-77483333D01*
X54516667Y-77435714D01*
X54659524Y-77435714D01*
X54754762Y-77483333D01*
X54802381Y-77530952D01*
X57421428Y-75554761D02*
X57516666Y-75602380D01*
X57707143Y-75602380D01*
X57802381Y-75554761D01*
X57850000Y-75507142D01*
X57897619Y-75411904D01*
X57897619Y-75126190D01*
X57850000Y-75030952D01*
X57802381Y-74983333D01*
X57707143Y-74935714D01*
X57516666Y-74935714D01*
X57421428Y-74983333D01*
X56850000Y-75602380D02*
X56945238Y-75554761D01*
X56992857Y-75459523D01*
X56992857Y-74602380D01*
X56326190Y-75602380D02*
X56421428Y-75554761D01*
X56469047Y-75507142D01*
X56516666Y-75411904D01*
X56516666Y-75126190D01*
X56469047Y-75030952D01*
X56421428Y-74983333D01*
X56326190Y-74935714D01*
X56183333Y-74935714D01*
X56088095Y-74983333D01*
X56040476Y-75030952D01*
X55992857Y-75126190D01*
X55992857Y-75411904D01*
X56040476Y-75507142D01*
X56088095Y-75554761D01*
X56183333Y-75602380D01*
X56326190Y-75602380D01*
X55135714Y-75554761D02*
X55230952Y-75602380D01*
X55421428Y-75602380D01*
X55516666Y-75554761D01*
X55564285Y-75507142D01*
X55611905Y-75411904D01*
X55611905Y-75126190D01*
X55564285Y-75030952D01*
X55516666Y-74983333D01*
X55421428Y-74935714D01*
X55230952Y-74935714D01*
X55135714Y-74983333D01*
X54707143Y-75602380D02*
X54707143Y-74602380D01*
X54611905Y-75221428D02*
X54326190Y-75602380D01*
X54326190Y-74935714D02*
X54707143Y-75316666D01*
X59897619Y-73102380D02*
X59897619Y-72102380D01*
X59897619Y-73054761D02*
X59992857Y-73102380D01*
X60183333Y-73102380D01*
X60278571Y-73054761D01*
X60326190Y-73007142D01*
X60373809Y-72911904D01*
X60373809Y-72626190D01*
X60326190Y-72530952D01*
X60278571Y-72483333D01*
X60183333Y-72435714D01*
X59992857Y-72435714D01*
X59897619Y-72483333D01*
X58992857Y-73102380D02*
X58992857Y-72578571D01*
X59040476Y-72483333D01*
X59135714Y-72435714D01*
X59326190Y-72435714D01*
X59421428Y-72483333D01*
X58992857Y-73054761D02*
X59088095Y-73102380D01*
X59326190Y-73102380D01*
X59421428Y-73054761D01*
X59469047Y-72959523D01*
X59469047Y-72864285D01*
X59421428Y-72769047D01*
X59326190Y-72721428D01*
X59088095Y-72721428D01*
X58992857Y-72673809D01*
X58659523Y-72435714D02*
X58278571Y-72435714D01*
X58516666Y-72102380D02*
X58516666Y-72959523D01*
X58469047Y-73054761D01*
X58373809Y-73102380D01*
X58278571Y-73102380D01*
X57516666Y-73102380D02*
X57516666Y-72578571D01*
X57564285Y-72483333D01*
X57659523Y-72435714D01*
X57850000Y-72435714D01*
X57945238Y-72483333D01*
X57516666Y-73054761D02*
X57611904Y-73102380D01*
X57850000Y-73102380D01*
X57945238Y-73054761D01*
X57992857Y-72959523D01*
X57992857Y-72864285D01*
X57945238Y-72769047D01*
X57850000Y-72721428D01*
X57611904Y-72721428D01*
X57516666Y-72673809D01*
X56135714Y-73102380D02*
X56230952Y-73054761D01*
X56278571Y-73007142D01*
X56326190Y-72911904D01*
X56326190Y-72626190D01*
X56278571Y-72530952D01*
X56230952Y-72483333D01*
X56135714Y-72435714D01*
X55992857Y-72435714D01*
X55897619Y-72483333D01*
X55850000Y-72530952D01*
X55802380Y-72626190D01*
X55802380Y-72911904D01*
X55850000Y-73007142D01*
X55897619Y-73054761D01*
X55992857Y-73102380D01*
X56135714Y-73102380D01*
X54945238Y-72435714D02*
X54945238Y-73102380D01*
X55373809Y-72435714D02*
X55373809Y-72959523D01*
X55326190Y-73054761D01*
X55230952Y-73102380D01*
X55088095Y-73102380D01*
X54992857Y-73054761D01*
X54945238Y-73007142D01*
X54611904Y-72435714D02*
X54230952Y-72435714D01*
X54469047Y-72102380D02*
X54469047Y-72959523D01*
X54421428Y-73054761D01*
X54326190Y-73102380D01*
X54230952Y-73102380D01*
D11*
%TO.C,cd4067d1*%
X139450000Y-83450000D02*
X139450000Y-90250000D01*
X139450000Y-90250000D02*
X154850000Y-90250000D01*
X154850000Y-90250000D02*
X154850000Y-83450000D01*
X154850000Y-83450000D02*
X139450000Y-83450000D01*
X139490000Y-81150000D02*
X139490000Y-83100000D01*
D12*
%TO.C,4067_conn_1*%
X245770000Y-85870000D02*
X248430000Y-85870000D01*
X245770000Y-101170000D02*
X245770000Y-85870000D01*
X248430000Y-101170000D02*
X248430000Y-85870000D01*
X245770000Y-101170000D02*
X248430000Y-101170000D01*
X245770000Y-102440000D02*
X245770000Y-103770000D01*
X245770000Y-103770000D02*
X247100000Y-103770000D01*
%TO.C,4067_conn_2*%
X53430000Y-85860000D02*
X52100000Y-85860000D01*
X53430000Y-87190000D02*
X53430000Y-85860000D01*
X53430000Y-88460000D02*
X50770000Y-88460000D01*
X50770000Y-88460000D02*
X50770000Y-103760000D01*
X53430000Y-88460000D02*
X53430000Y-103760000D01*
X53430000Y-103760000D02*
X50770000Y-103760000D01*
%TO.C,595_conn_1*%
X50770000Y-81770000D02*
X52100000Y-81770000D01*
X50770000Y-80440000D02*
X50770000Y-81770000D01*
X50770000Y-79170000D02*
X53430000Y-79170000D01*
X53430000Y-79170000D02*
X53430000Y-71490000D01*
X50770000Y-79170000D02*
X50770000Y-71490000D01*
X50770000Y-71490000D02*
X53430000Y-71490000D01*
%TO.C,74hc595*%
X94540000Y-86900000D02*
X94540000Y-84950000D01*
X94540000Y-86900000D02*
X94540000Y-88850000D01*
X104660000Y-86900000D02*
X104660000Y-84950000D01*
X104660000Y-86900000D02*
X104660000Y-90350000D01*
%TO.C,74hc595_2*%
X205660000Y-86900000D02*
X205660000Y-90350000D01*
X205660000Y-86900000D02*
X205660000Y-84950000D01*
X195540000Y-86900000D02*
X195540000Y-88850000D01*
X195540000Y-86900000D02*
X195540000Y-84950000D01*
%TO.C,595_conn_2*%
X245770000Y-81770000D02*
X247100000Y-81770000D01*
X245770000Y-80440000D02*
X245770000Y-81770000D01*
X245770000Y-79170000D02*
X248430000Y-79170000D01*
X248430000Y-79170000D02*
X248430000Y-71490000D01*
X245770000Y-79170000D02*
X245770000Y-71490000D01*
X245770000Y-71490000D02*
X248430000Y-71490000D01*
%TO.C,C1*%
X105890000Y-83134420D02*
X105890000Y-83415580D01*
X106910000Y-83134420D02*
X106910000Y-83415580D01*
%TO.C,C2*%
X137159420Y-92790000D02*
X137440580Y-92790000D01*
X137159420Y-93810000D02*
X137440580Y-93810000D01*
%TO.C,C3*%
X207410000Y-83159420D02*
X207410000Y-83440580D01*
X206390000Y-83159420D02*
X206390000Y-83440580D01*
%TO.C,R1*%
X72037258Y-65922500D02*
X71562742Y-65922500D01*
X72037258Y-64877500D02*
X71562742Y-64877500D01*
%TO.C,R2*%
X72087742Y-109222500D02*
X72562258Y-109222500D01*
X72087742Y-108177500D02*
X72562258Y-108177500D01*
%TO.C,R3*%
X95037258Y-64877500D02*
X94562742Y-64877500D01*
X95037258Y-65922500D02*
X94562742Y-65922500D01*
%TO.C,R4*%
X93962742Y-108177500D02*
X94437258Y-108177500D01*
X93962742Y-109222500D02*
X94437258Y-109222500D01*
%TO.C,R5*%
X115387742Y-65077500D02*
X115862258Y-65077500D01*
X115387742Y-66122500D02*
X115862258Y-66122500D01*
%TO.C,R6*%
X116912258Y-108177500D02*
X116437742Y-108177500D01*
X116912258Y-109222500D02*
X116437742Y-109222500D01*
%TO.C,R7*%
X138087742Y-65922500D02*
X138562258Y-65922500D01*
X138087742Y-64877500D02*
X138562258Y-64877500D01*
%TO.C,R8*%
X136612258Y-109222500D02*
X136137742Y-109222500D01*
X136612258Y-108177500D02*
X136137742Y-108177500D01*
%TO.C,R9*%
X162512258Y-65922500D02*
X162037742Y-65922500D01*
X162512258Y-64877500D02*
X162037742Y-64877500D01*
%TO.C,R10*%
X163787742Y-109222500D02*
X164262258Y-109222500D01*
X163787742Y-108177500D02*
X164262258Y-108177500D01*
%TO.C,R11*%
X186412258Y-64877500D02*
X185937742Y-64877500D01*
X186412258Y-65922500D02*
X185937742Y-65922500D01*
%TO.C,R12*%
X185587742Y-108177500D02*
X186062258Y-108177500D01*
X185587742Y-109222500D02*
X186062258Y-109222500D01*
%TO.C,R13*%
X206262742Y-64877500D02*
X206737258Y-64877500D01*
X206262742Y-65922500D02*
X206737258Y-65922500D01*
%TO.C,R14*%
X207012258Y-108177500D02*
X206537742Y-108177500D01*
X207012258Y-109222500D02*
X206537742Y-109222500D01*
%TO.C,R15*%
X228237742Y-65922500D02*
X228712258Y-65922500D01*
X228237742Y-64877500D02*
X228712258Y-64877500D01*
%TO.C,R16*%
X229162258Y-109322500D02*
X228687742Y-109322500D01*
X229162258Y-108277500D02*
X228687742Y-108277500D01*
%TO.C,cd4067d1*%
D13*
X157614047Y-82979523D02*
X157674523Y-82858571D01*
X157674523Y-82616666D01*
X157614047Y-82495714D01*
X157553571Y-82435238D01*
X157432619Y-82374761D01*
X157069761Y-82374761D01*
X156948809Y-82435238D01*
X156888333Y-82495714D01*
X156827857Y-82616666D01*
X156827857Y-82858571D01*
X156888333Y-82979523D01*
X157674523Y-84068095D02*
X156404523Y-84068095D01*
X157614047Y-84068095D02*
X157674523Y-83947142D01*
X157674523Y-83705238D01*
X157614047Y-83584285D01*
X157553571Y-83523809D01*
X157432619Y-83463333D01*
X157069761Y-83463333D01*
X156948809Y-83523809D01*
X156888333Y-83584285D01*
X156827857Y-83705238D01*
X156827857Y-83947142D01*
X156888333Y-84068095D01*
X156827857Y-85217142D02*
X157674523Y-85217142D01*
X156344047Y-84914761D02*
X157251190Y-84612380D01*
X157251190Y-85398571D01*
X156404523Y-86124285D02*
X156404523Y-86245238D01*
X156465000Y-86366190D01*
X156525476Y-86426666D01*
X156646428Y-86487142D01*
X156888333Y-86547619D01*
X157190714Y-86547619D01*
X157432619Y-86487142D01*
X157553571Y-86426666D01*
X157614047Y-86366190D01*
X157674523Y-86245238D01*
X157674523Y-86124285D01*
X157614047Y-86003333D01*
X157553571Y-85942857D01*
X157432619Y-85882380D01*
X157190714Y-85821904D01*
X156888333Y-85821904D01*
X156646428Y-85882380D01*
X156525476Y-85942857D01*
X156465000Y-86003333D01*
X156404523Y-86124285D01*
X156404523Y-87636190D02*
X156404523Y-87394285D01*
X156465000Y-87273333D01*
X156525476Y-87212857D01*
X156706904Y-87091904D01*
X156948809Y-87031428D01*
X157432619Y-87031428D01*
X157553571Y-87091904D01*
X157614047Y-87152380D01*
X157674523Y-87273333D01*
X157674523Y-87515238D01*
X157614047Y-87636190D01*
X157553571Y-87696666D01*
X157432619Y-87757142D01*
X157130238Y-87757142D01*
X157009285Y-87696666D01*
X156948809Y-87636190D01*
X156888333Y-87515238D01*
X156888333Y-87273333D01*
X156948809Y-87152380D01*
X157009285Y-87091904D01*
X157130238Y-87031428D01*
X156404523Y-88180476D02*
X156404523Y-89027142D01*
X157674523Y-88482857D01*
X157674523Y-90055238D02*
X156404523Y-90055238D01*
X157614047Y-90055238D02*
X157674523Y-89934285D01*
X157674523Y-89692380D01*
X157614047Y-89571428D01*
X157553571Y-89510952D01*
X157432619Y-89450476D01*
X157069761Y-89450476D01*
X156948809Y-89510952D01*
X156888333Y-89571428D01*
X156827857Y-89692380D01*
X156827857Y-89934285D01*
X156888333Y-90055238D01*
X157674523Y-91325238D02*
X157674523Y-90599523D01*
X157674523Y-90962380D02*
X156404523Y-90962380D01*
X156585952Y-90841428D01*
X156706904Y-90720476D01*
X156767380Y-90599523D01*
%TO.C,4067_conn_1*%
D10*
X248361904Y-83935714D02*
X248361904Y-84602380D01*
X248600000Y-83554761D02*
X248838095Y-84269047D01*
X248219047Y-84269047D01*
X247647619Y-83602380D02*
X247552380Y-83602380D01*
X247457142Y-83650000D01*
X247409523Y-83697619D01*
X247361904Y-83792857D01*
X247314285Y-83983333D01*
X247314285Y-84221428D01*
X247361904Y-84411904D01*
X247409523Y-84507142D01*
X247457142Y-84554761D01*
X247552380Y-84602380D01*
X247647619Y-84602380D01*
X247742857Y-84554761D01*
X247790476Y-84507142D01*
X247838095Y-84411904D01*
X247885714Y-84221428D01*
X247885714Y-83983333D01*
X247838095Y-83792857D01*
X247790476Y-83697619D01*
X247742857Y-83650000D01*
X247647619Y-83602380D01*
X246457142Y-83602380D02*
X246647619Y-83602380D01*
X246742857Y-83650000D01*
X246790476Y-83697619D01*
X246885714Y-83840476D01*
X246933333Y-84030952D01*
X246933333Y-84411904D01*
X246885714Y-84507142D01*
X246838095Y-84554761D01*
X246742857Y-84602380D01*
X246552380Y-84602380D01*
X246457142Y-84554761D01*
X246409523Y-84507142D01*
X246361904Y-84411904D01*
X246361904Y-84173809D01*
X246409523Y-84078571D01*
X246457142Y-84030952D01*
X246552380Y-83983333D01*
X246742857Y-83983333D01*
X246838095Y-84030952D01*
X246885714Y-84078571D01*
X246933333Y-84173809D01*
X246028571Y-83602380D02*
X245361904Y-83602380D01*
X245790476Y-84602380D01*
X245219047Y-84697619D02*
X244457142Y-84697619D01*
X243790476Y-84554761D02*
X243885714Y-84602380D01*
X244076190Y-84602380D01*
X244171428Y-84554761D01*
X244219047Y-84507142D01*
X244266666Y-84411904D01*
X244266666Y-84126190D01*
X244219047Y-84030952D01*
X244171428Y-83983333D01*
X244076190Y-83935714D01*
X243885714Y-83935714D01*
X243790476Y-83983333D01*
X243219047Y-84602380D02*
X243314285Y-84554761D01*
X243361904Y-84507142D01*
X243409523Y-84411904D01*
X243409523Y-84126190D01*
X243361904Y-84030952D01*
X243314285Y-83983333D01*
X243219047Y-83935714D01*
X243076190Y-83935714D01*
X242980952Y-83983333D01*
X242933333Y-84030952D01*
X242885714Y-84126190D01*
X242885714Y-84411904D01*
X242933333Y-84507142D01*
X242980952Y-84554761D01*
X243076190Y-84602380D01*
X243219047Y-84602380D01*
X242457142Y-83935714D02*
X242457142Y-84602380D01*
X242457142Y-84030952D02*
X242409523Y-83983333D01*
X242314285Y-83935714D01*
X242171428Y-83935714D01*
X242076190Y-83983333D01*
X242028571Y-84078571D01*
X242028571Y-84602380D01*
X241552380Y-83935714D02*
X241552380Y-84602380D01*
X241552380Y-84030952D02*
X241504761Y-83983333D01*
X241409523Y-83935714D01*
X241266666Y-83935714D01*
X241171428Y-83983333D01*
X241123809Y-84078571D01*
X241123809Y-84602380D01*
X240885714Y-84697619D02*
X240123809Y-84697619D01*
X239361904Y-84602380D02*
X239933333Y-84602380D01*
X239647619Y-84602380D02*
X239647619Y-83602380D01*
X239742857Y-83745238D01*
X239838095Y-83840476D01*
X239933333Y-83888095D01*
%TO.C,4067_conn_2*%
X59661904Y-105085714D02*
X59661904Y-105752380D01*
X59900000Y-104704761D02*
X60138095Y-105419047D01*
X59519047Y-105419047D01*
X58947619Y-104752380D02*
X58852380Y-104752380D01*
X58757142Y-104800000D01*
X58709523Y-104847619D01*
X58661904Y-104942857D01*
X58614285Y-105133333D01*
X58614285Y-105371428D01*
X58661904Y-105561904D01*
X58709523Y-105657142D01*
X58757142Y-105704761D01*
X58852380Y-105752380D01*
X58947619Y-105752380D01*
X59042857Y-105704761D01*
X59090476Y-105657142D01*
X59138095Y-105561904D01*
X59185714Y-105371428D01*
X59185714Y-105133333D01*
X59138095Y-104942857D01*
X59090476Y-104847619D01*
X59042857Y-104800000D01*
X58947619Y-104752380D01*
X57757142Y-104752380D02*
X57947619Y-104752380D01*
X58042857Y-104800000D01*
X58090476Y-104847619D01*
X58185714Y-104990476D01*
X58233333Y-105180952D01*
X58233333Y-105561904D01*
X58185714Y-105657142D01*
X58138095Y-105704761D01*
X58042857Y-105752380D01*
X57852380Y-105752380D01*
X57757142Y-105704761D01*
X57709523Y-105657142D01*
X57661904Y-105561904D01*
X57661904Y-105323809D01*
X57709523Y-105228571D01*
X57757142Y-105180952D01*
X57852380Y-105133333D01*
X58042857Y-105133333D01*
X58138095Y-105180952D01*
X58185714Y-105228571D01*
X58233333Y-105323809D01*
X57328571Y-104752380D02*
X56661904Y-104752380D01*
X57090476Y-105752380D01*
X56519047Y-105847619D02*
X55757142Y-105847619D01*
X55090476Y-105704761D02*
X55185714Y-105752380D01*
X55376190Y-105752380D01*
X55471428Y-105704761D01*
X55519047Y-105657142D01*
X55566666Y-105561904D01*
X55566666Y-105276190D01*
X55519047Y-105180952D01*
X55471428Y-105133333D01*
X55376190Y-105085714D01*
X55185714Y-105085714D01*
X55090476Y-105133333D01*
X54519047Y-105752380D02*
X54614285Y-105704761D01*
X54661904Y-105657142D01*
X54709523Y-105561904D01*
X54709523Y-105276190D01*
X54661904Y-105180952D01*
X54614285Y-105133333D01*
X54519047Y-105085714D01*
X54376190Y-105085714D01*
X54280952Y-105133333D01*
X54233333Y-105180952D01*
X54185714Y-105276190D01*
X54185714Y-105561904D01*
X54233333Y-105657142D01*
X54280952Y-105704761D01*
X54376190Y-105752380D01*
X54519047Y-105752380D01*
X53757142Y-105085714D02*
X53757142Y-105752380D01*
X53757142Y-105180952D02*
X53709523Y-105133333D01*
X53614285Y-105085714D01*
X53471428Y-105085714D01*
X53376190Y-105133333D01*
X53328571Y-105228571D01*
X53328571Y-105752380D01*
X52852380Y-105085714D02*
X52852380Y-105752380D01*
X52852380Y-105180952D02*
X52804761Y-105133333D01*
X52709523Y-105085714D01*
X52566666Y-105085714D01*
X52471428Y-105133333D01*
X52423809Y-105228571D01*
X52423809Y-105752380D01*
X52185714Y-105847619D02*
X51423809Y-105847619D01*
X51233333Y-104847619D02*
X51185714Y-104800000D01*
X51090476Y-104752380D01*
X50852380Y-104752380D01*
X50757142Y-104800000D01*
X50709523Y-104847619D01*
X50661904Y-104942857D01*
X50661904Y-105038095D01*
X50709523Y-105180952D01*
X51280952Y-105752380D01*
X50661904Y-105752380D01*
%TO.C,595_conn_1*%
X58338095Y-69352380D02*
X58814285Y-69352380D01*
X58861904Y-69828571D01*
X58814285Y-69780952D01*
X58719047Y-69733333D01*
X58480952Y-69733333D01*
X58385714Y-69780952D01*
X58338095Y-69828571D01*
X58290476Y-69923809D01*
X58290476Y-70161904D01*
X58338095Y-70257142D01*
X58385714Y-70304761D01*
X58480952Y-70352380D01*
X58719047Y-70352380D01*
X58814285Y-70304761D01*
X58861904Y-70257142D01*
X57814285Y-70352380D02*
X57623809Y-70352380D01*
X57528571Y-70304761D01*
X57480952Y-70257142D01*
X57385714Y-70114285D01*
X57338095Y-69923809D01*
X57338095Y-69542857D01*
X57385714Y-69447619D01*
X57433333Y-69400000D01*
X57528571Y-69352380D01*
X57719047Y-69352380D01*
X57814285Y-69400000D01*
X57861904Y-69447619D01*
X57909523Y-69542857D01*
X57909523Y-69780952D01*
X57861904Y-69876190D01*
X57814285Y-69923809D01*
X57719047Y-69971428D01*
X57528571Y-69971428D01*
X57433333Y-69923809D01*
X57385714Y-69876190D01*
X57338095Y-69780952D01*
X56433333Y-69352380D02*
X56909523Y-69352380D01*
X56957142Y-69828571D01*
X56909523Y-69780952D01*
X56814285Y-69733333D01*
X56576190Y-69733333D01*
X56480952Y-69780952D01*
X56433333Y-69828571D01*
X56385714Y-69923809D01*
X56385714Y-70161904D01*
X56433333Y-70257142D01*
X56480952Y-70304761D01*
X56576190Y-70352380D01*
X56814285Y-70352380D01*
X56909523Y-70304761D01*
X56957142Y-70257142D01*
X56195238Y-70447619D02*
X55433333Y-70447619D01*
X54766666Y-70304761D02*
X54861904Y-70352380D01*
X55052380Y-70352380D01*
X55147619Y-70304761D01*
X55195238Y-70257142D01*
X55242857Y-70161904D01*
X55242857Y-69876190D01*
X55195238Y-69780952D01*
X55147619Y-69733333D01*
X55052380Y-69685714D01*
X54861904Y-69685714D01*
X54766666Y-69733333D01*
X54195238Y-70352380D02*
X54290476Y-70304761D01*
X54338095Y-70257142D01*
X54385714Y-70161904D01*
X54385714Y-69876190D01*
X54338095Y-69780952D01*
X54290476Y-69733333D01*
X54195238Y-69685714D01*
X54052380Y-69685714D01*
X53957142Y-69733333D01*
X53909523Y-69780952D01*
X53861904Y-69876190D01*
X53861904Y-70161904D01*
X53909523Y-70257142D01*
X53957142Y-70304761D01*
X54052380Y-70352380D01*
X54195238Y-70352380D01*
X53433333Y-69685714D02*
X53433333Y-70352380D01*
X53433333Y-69780952D02*
X53385714Y-69733333D01*
X53290476Y-69685714D01*
X53147619Y-69685714D01*
X53052380Y-69733333D01*
X53004761Y-69828571D01*
X53004761Y-70352380D01*
X52528571Y-69685714D02*
X52528571Y-70352380D01*
X52528571Y-69780952D02*
X52480952Y-69733333D01*
X52385714Y-69685714D01*
X52242857Y-69685714D01*
X52147619Y-69733333D01*
X52099999Y-69828571D01*
X52099999Y-70352380D01*
X51861904Y-70447619D02*
X51099999Y-70447619D01*
X50338095Y-70352380D02*
X50909523Y-70352380D01*
X50623809Y-70352380D02*
X50623809Y-69352380D01*
X50719047Y-69495238D01*
X50814285Y-69590476D01*
X50909523Y-69638095D01*
%TO.C,74hc595*%
X105152380Y-85780952D02*
X105152380Y-86447619D01*
X106152380Y-86019047D01*
X105485714Y-87257142D02*
X106152380Y-87257142D01*
X105104761Y-87019047D02*
X105819047Y-86780952D01*
X105819047Y-87400000D01*
X106152380Y-87780952D02*
X105152380Y-87780952D01*
X106152380Y-88209523D02*
X105628571Y-88209523D01*
X105533333Y-88161904D01*
X105485714Y-88066666D01*
X105485714Y-87923809D01*
X105533333Y-87828571D01*
X105580952Y-87780952D01*
X106104761Y-89114285D02*
X106152380Y-89019047D01*
X106152380Y-88828571D01*
X106104761Y-88733333D01*
X106057142Y-88685714D01*
X105961904Y-88638095D01*
X105676190Y-88638095D01*
X105580952Y-88685714D01*
X105533333Y-88733333D01*
X105485714Y-88828571D01*
X105485714Y-89019047D01*
X105533333Y-89114285D01*
X105152380Y-90019047D02*
X105152380Y-89542857D01*
X105628571Y-89495238D01*
X105580952Y-89542857D01*
X105533333Y-89638095D01*
X105533333Y-89876190D01*
X105580952Y-89971428D01*
X105628571Y-90019047D01*
X105723809Y-90066666D01*
X105961904Y-90066666D01*
X106057142Y-90019047D01*
X106104761Y-89971428D01*
X106152380Y-89876190D01*
X106152380Y-89638095D01*
X106104761Y-89542857D01*
X106057142Y-89495238D01*
X106152380Y-90542857D02*
X106152380Y-90733333D01*
X106104761Y-90828571D01*
X106057142Y-90876190D01*
X105914285Y-90971428D01*
X105723809Y-91019047D01*
X105342857Y-91019047D01*
X105247619Y-90971428D01*
X105200000Y-90923809D01*
X105152380Y-90828571D01*
X105152380Y-90638095D01*
X105200000Y-90542857D01*
X105247619Y-90495238D01*
X105342857Y-90447619D01*
X105580952Y-90447619D01*
X105676190Y-90495238D01*
X105723809Y-90542857D01*
X105771428Y-90638095D01*
X105771428Y-90828571D01*
X105723809Y-90923809D01*
X105676190Y-90971428D01*
X105580952Y-91019047D01*
X105152380Y-91923809D02*
X105152380Y-91447619D01*
X105628571Y-91400000D01*
X105580952Y-91447619D01*
X105533333Y-91542857D01*
X105533333Y-91780952D01*
X105580952Y-91876190D01*
X105628571Y-91923809D01*
X105723809Y-91971428D01*
X105961904Y-91971428D01*
X106057142Y-91923809D01*
X106104761Y-91876190D01*
X106152380Y-91780952D01*
X106152380Y-91542857D01*
X106104761Y-91447619D01*
X106057142Y-91400000D01*
%TO.C,74hc595_2*%
X207952380Y-83523809D02*
X207952380Y-84190476D01*
X208952380Y-83761904D01*
X208285714Y-85000000D02*
X208952380Y-85000000D01*
X207904761Y-84761904D02*
X208619047Y-84523809D01*
X208619047Y-85142857D01*
X208952380Y-85523809D02*
X207952380Y-85523809D01*
X208952380Y-85952380D02*
X208428571Y-85952380D01*
X208333333Y-85904761D01*
X208285714Y-85809523D01*
X208285714Y-85666666D01*
X208333333Y-85571428D01*
X208380952Y-85523809D01*
X208904761Y-86857142D02*
X208952380Y-86761904D01*
X208952380Y-86571428D01*
X208904761Y-86476190D01*
X208857142Y-86428571D01*
X208761904Y-86380952D01*
X208476190Y-86380952D01*
X208380952Y-86428571D01*
X208333333Y-86476190D01*
X208285714Y-86571428D01*
X208285714Y-86761904D01*
X208333333Y-86857142D01*
X207952380Y-87761904D02*
X207952380Y-87285714D01*
X208428571Y-87238095D01*
X208380952Y-87285714D01*
X208333333Y-87380952D01*
X208333333Y-87619047D01*
X208380952Y-87714285D01*
X208428571Y-87761904D01*
X208523809Y-87809523D01*
X208761904Y-87809523D01*
X208857142Y-87761904D01*
X208904761Y-87714285D01*
X208952380Y-87619047D01*
X208952380Y-87380952D01*
X208904761Y-87285714D01*
X208857142Y-87238095D01*
X208952380Y-88285714D02*
X208952380Y-88476190D01*
X208904761Y-88571428D01*
X208857142Y-88619047D01*
X208714285Y-88714285D01*
X208523809Y-88761904D01*
X208142857Y-88761904D01*
X208047619Y-88714285D01*
X208000000Y-88666666D01*
X207952380Y-88571428D01*
X207952380Y-88380952D01*
X208000000Y-88285714D01*
X208047619Y-88238095D01*
X208142857Y-88190476D01*
X208380952Y-88190476D01*
X208476190Y-88238095D01*
X208523809Y-88285714D01*
X208571428Y-88380952D01*
X208571428Y-88571428D01*
X208523809Y-88666666D01*
X208476190Y-88714285D01*
X208380952Y-88761904D01*
X207952380Y-89666666D02*
X207952380Y-89190476D01*
X208428571Y-89142857D01*
X208380952Y-89190476D01*
X208333333Y-89285714D01*
X208333333Y-89523809D01*
X208380952Y-89619047D01*
X208428571Y-89666666D01*
X208523809Y-89714285D01*
X208761904Y-89714285D01*
X208857142Y-89666666D01*
X208904761Y-89619047D01*
X208952380Y-89523809D01*
X208952380Y-89285714D01*
X208904761Y-89190476D01*
X208857142Y-89142857D01*
X209047619Y-89904761D02*
X209047619Y-90666666D01*
X208047619Y-90857142D02*
X208000000Y-90904761D01*
X207952380Y-91000000D01*
X207952380Y-91238095D01*
X208000000Y-91333333D01*
X208047619Y-91380952D01*
X208142857Y-91428571D01*
X208238095Y-91428571D01*
X208380952Y-91380952D01*
X208952380Y-90809523D01*
X208952380Y-91428571D01*
%TO.C,595_conn_2*%
X248088095Y-68852380D02*
X248564285Y-68852380D01*
X248611904Y-69328571D01*
X248564285Y-69280952D01*
X248469047Y-69233333D01*
X248230952Y-69233333D01*
X248135714Y-69280952D01*
X248088095Y-69328571D01*
X248040476Y-69423809D01*
X248040476Y-69661904D01*
X248088095Y-69757142D01*
X248135714Y-69804761D01*
X248230952Y-69852380D01*
X248469047Y-69852380D01*
X248564285Y-69804761D01*
X248611904Y-69757142D01*
X247564285Y-69852380D02*
X247373809Y-69852380D01*
X247278571Y-69804761D01*
X247230952Y-69757142D01*
X247135714Y-69614285D01*
X247088095Y-69423809D01*
X247088095Y-69042857D01*
X247135714Y-68947619D01*
X247183333Y-68900000D01*
X247278571Y-68852380D01*
X247469047Y-68852380D01*
X247564285Y-68900000D01*
X247611904Y-68947619D01*
X247659523Y-69042857D01*
X247659523Y-69280952D01*
X247611904Y-69376190D01*
X247564285Y-69423809D01*
X247469047Y-69471428D01*
X247278571Y-69471428D01*
X247183333Y-69423809D01*
X247135714Y-69376190D01*
X247088095Y-69280952D01*
X246183333Y-68852380D02*
X246659523Y-68852380D01*
X246707142Y-69328571D01*
X246659523Y-69280952D01*
X246564285Y-69233333D01*
X246326190Y-69233333D01*
X246230952Y-69280952D01*
X246183333Y-69328571D01*
X246135714Y-69423809D01*
X246135714Y-69661904D01*
X246183333Y-69757142D01*
X246230952Y-69804761D01*
X246326190Y-69852380D01*
X246564285Y-69852380D01*
X246659523Y-69804761D01*
X246707142Y-69757142D01*
X245945238Y-69947619D02*
X245183333Y-69947619D01*
X244516666Y-69804761D02*
X244611904Y-69852380D01*
X244802380Y-69852380D01*
X244897619Y-69804761D01*
X244945238Y-69757142D01*
X244992857Y-69661904D01*
X244992857Y-69376190D01*
X244945238Y-69280952D01*
X244897619Y-69233333D01*
X244802380Y-69185714D01*
X244611904Y-69185714D01*
X244516666Y-69233333D01*
X243945238Y-69852380D02*
X244040476Y-69804761D01*
X244088095Y-69757142D01*
X244135714Y-69661904D01*
X244135714Y-69376190D01*
X244088095Y-69280952D01*
X244040476Y-69233333D01*
X243945238Y-69185714D01*
X243802380Y-69185714D01*
X243707142Y-69233333D01*
X243659523Y-69280952D01*
X243611904Y-69376190D01*
X243611904Y-69661904D01*
X243659523Y-69757142D01*
X243707142Y-69804761D01*
X243802380Y-69852380D01*
X243945238Y-69852380D01*
X243183333Y-69185714D02*
X243183333Y-69852380D01*
X243183333Y-69280952D02*
X243135714Y-69233333D01*
X243040476Y-69185714D01*
X242897619Y-69185714D01*
X242802380Y-69233333D01*
X242754761Y-69328571D01*
X242754761Y-69852380D01*
X242278571Y-69185714D02*
X242278571Y-69852380D01*
X242278571Y-69280952D02*
X242230952Y-69233333D01*
X242135714Y-69185714D01*
X241992857Y-69185714D01*
X241897619Y-69233333D01*
X241850000Y-69328571D01*
X241850000Y-69852380D01*
X241611904Y-69947619D02*
X240850000Y-69947619D01*
X240659523Y-68947619D02*
X240611904Y-68900000D01*
X240516666Y-68852380D01*
X240278571Y-68852380D01*
X240183333Y-68900000D01*
X240135714Y-68947619D01*
X240088095Y-69042857D01*
X240088095Y-69138095D01*
X240135714Y-69280952D01*
X240707142Y-69852380D01*
X240088095Y-69852380D01*
%TO.C,C1*%
X108257142Y-83233333D02*
X108304761Y-83185714D01*
X108352380Y-83042857D01*
X108352380Y-82947619D01*
X108304761Y-82804761D01*
X108209523Y-82709523D01*
X108114285Y-82661904D01*
X107923809Y-82614285D01*
X107780952Y-82614285D01*
X107590476Y-82661904D01*
X107495238Y-82709523D01*
X107400000Y-82804761D01*
X107352380Y-82947619D01*
X107352380Y-83042857D01*
X107400000Y-83185714D01*
X107447619Y-83233333D01*
X108352380Y-84185714D02*
X108352380Y-83614285D01*
X108352380Y-83900000D02*
X107352380Y-83900000D01*
X107495238Y-83804761D01*
X107590476Y-83709523D01*
X107638095Y-83614285D01*
%TO.C,C2*%
X137466666Y-95087142D02*
X137514285Y-95134761D01*
X137657142Y-95182380D01*
X137752380Y-95182380D01*
X137895238Y-95134761D01*
X137990476Y-95039523D01*
X138038095Y-94944285D01*
X138085714Y-94753809D01*
X138085714Y-94610952D01*
X138038095Y-94420476D01*
X137990476Y-94325238D01*
X137895238Y-94230000D01*
X137752380Y-94182380D01*
X137657142Y-94182380D01*
X137514285Y-94230000D01*
X137466666Y-94277619D01*
X137085714Y-94277619D02*
X137038095Y-94230000D01*
X136942857Y-94182380D01*
X136704761Y-94182380D01*
X136609523Y-94230000D01*
X136561904Y-94277619D01*
X136514285Y-94372857D01*
X136514285Y-94468095D01*
X136561904Y-94610952D01*
X137133333Y-95182380D01*
X136514285Y-95182380D01*
%TO.C,C3*%
X207657142Y-80633333D02*
X207704761Y-80585714D01*
X207752380Y-80442857D01*
X207752380Y-80347619D01*
X207704761Y-80204761D01*
X207609523Y-80109523D01*
X207514285Y-80061904D01*
X207323809Y-80014285D01*
X207180952Y-80014285D01*
X206990476Y-80061904D01*
X206895238Y-80109523D01*
X206800000Y-80204761D01*
X206752380Y-80347619D01*
X206752380Y-80442857D01*
X206800000Y-80585714D01*
X206847619Y-80633333D01*
X206752380Y-80966666D02*
X206752380Y-81585714D01*
X207133333Y-81252380D01*
X207133333Y-81395238D01*
X207180952Y-81490476D01*
X207228571Y-81538095D01*
X207323809Y-81585714D01*
X207561904Y-81585714D01*
X207657142Y-81538095D01*
X207704761Y-81490476D01*
X207752380Y-81395238D01*
X207752380Y-81109523D01*
X207704761Y-81014285D01*
X207657142Y-80966666D01*
%TO.C,R1*%
X71966666Y-64422380D02*
X72300000Y-63946190D01*
X72538095Y-64422380D02*
X72538095Y-63422380D01*
X72157142Y-63422380D01*
X72061904Y-63470000D01*
X72014285Y-63517619D01*
X71966666Y-63612857D01*
X71966666Y-63755714D01*
X72014285Y-63850952D01*
X72061904Y-63898571D01*
X72157142Y-63946190D01*
X72538095Y-63946190D01*
X71014285Y-64422380D02*
X71585714Y-64422380D01*
X71300000Y-64422380D02*
X71300000Y-63422380D01*
X71395238Y-63565238D01*
X71490476Y-63660476D01*
X71585714Y-63708095D01*
%TO.C,R2*%
X72491666Y-110582380D02*
X72825000Y-110106190D01*
X73063095Y-110582380D02*
X73063095Y-109582380D01*
X72682142Y-109582380D01*
X72586904Y-109630000D01*
X72539285Y-109677619D01*
X72491666Y-109772857D01*
X72491666Y-109915714D01*
X72539285Y-110010952D01*
X72586904Y-110058571D01*
X72682142Y-110106190D01*
X73063095Y-110106190D01*
X72110714Y-109677619D02*
X72063095Y-109630000D01*
X71967857Y-109582380D01*
X71729761Y-109582380D01*
X71634523Y-109630000D01*
X71586904Y-109677619D01*
X71539285Y-109772857D01*
X71539285Y-109868095D01*
X71586904Y-110010952D01*
X72158333Y-110582380D01*
X71539285Y-110582380D01*
%TO.C,R3*%
X94966666Y-64422380D02*
X95300000Y-63946190D01*
X95538095Y-64422380D02*
X95538095Y-63422380D01*
X95157142Y-63422380D01*
X95061904Y-63470000D01*
X95014285Y-63517619D01*
X94966666Y-63612857D01*
X94966666Y-63755714D01*
X95014285Y-63850952D01*
X95061904Y-63898571D01*
X95157142Y-63946190D01*
X95538095Y-63946190D01*
X94633333Y-63422380D02*
X94014285Y-63422380D01*
X94347619Y-63803333D01*
X94204761Y-63803333D01*
X94109523Y-63850952D01*
X94061904Y-63898571D01*
X94014285Y-63993809D01*
X94014285Y-64231904D01*
X94061904Y-64327142D01*
X94109523Y-64374761D01*
X94204761Y-64422380D01*
X94490476Y-64422380D01*
X94585714Y-64374761D01*
X94633333Y-64327142D01*
%TO.C,R4*%
X94366666Y-110582380D02*
X94700000Y-110106190D01*
X94938095Y-110582380D02*
X94938095Y-109582380D01*
X94557142Y-109582380D01*
X94461904Y-109630000D01*
X94414285Y-109677619D01*
X94366666Y-109772857D01*
X94366666Y-109915714D01*
X94414285Y-110010952D01*
X94461904Y-110058571D01*
X94557142Y-110106190D01*
X94938095Y-110106190D01*
X93509523Y-109915714D02*
X93509523Y-110582380D01*
X93747619Y-109534761D02*
X93985714Y-110249047D01*
X93366666Y-110249047D01*
%TO.C,R5*%
X115791666Y-67482380D02*
X116125000Y-67006190D01*
X116363095Y-67482380D02*
X116363095Y-66482380D01*
X115982142Y-66482380D01*
X115886904Y-66530000D01*
X115839285Y-66577619D01*
X115791666Y-66672857D01*
X115791666Y-66815714D01*
X115839285Y-66910952D01*
X115886904Y-66958571D01*
X115982142Y-67006190D01*
X116363095Y-67006190D01*
X114886904Y-66482380D02*
X115363095Y-66482380D01*
X115410714Y-66958571D01*
X115363095Y-66910952D01*
X115267857Y-66863333D01*
X115029761Y-66863333D01*
X114934523Y-66910952D01*
X114886904Y-66958571D01*
X114839285Y-67053809D01*
X114839285Y-67291904D01*
X114886904Y-67387142D01*
X114934523Y-67434761D01*
X115029761Y-67482380D01*
X115267857Y-67482380D01*
X115363095Y-67434761D01*
X115410714Y-67387142D01*
%TO.C,R6*%
X116841666Y-107722380D02*
X117175000Y-107246190D01*
X117413095Y-107722380D02*
X117413095Y-106722380D01*
X117032142Y-106722380D01*
X116936904Y-106770000D01*
X116889285Y-106817619D01*
X116841666Y-106912857D01*
X116841666Y-107055714D01*
X116889285Y-107150952D01*
X116936904Y-107198571D01*
X117032142Y-107246190D01*
X117413095Y-107246190D01*
X115984523Y-106722380D02*
X116175000Y-106722380D01*
X116270238Y-106770000D01*
X116317857Y-106817619D01*
X116413095Y-106960476D01*
X116460714Y-107150952D01*
X116460714Y-107531904D01*
X116413095Y-107627142D01*
X116365476Y-107674761D01*
X116270238Y-107722380D01*
X116079761Y-107722380D01*
X115984523Y-107674761D01*
X115936904Y-107627142D01*
X115889285Y-107531904D01*
X115889285Y-107293809D01*
X115936904Y-107198571D01*
X115984523Y-107150952D01*
X116079761Y-107103333D01*
X116270238Y-107103333D01*
X116365476Y-107150952D01*
X116413095Y-107198571D01*
X116460714Y-107293809D01*
%TO.C,R7*%
X138491666Y-67282380D02*
X138825000Y-66806190D01*
X139063095Y-67282380D02*
X139063095Y-66282380D01*
X138682142Y-66282380D01*
X138586904Y-66330000D01*
X138539285Y-66377619D01*
X138491666Y-66472857D01*
X138491666Y-66615714D01*
X138539285Y-66710952D01*
X138586904Y-66758571D01*
X138682142Y-66806190D01*
X139063095Y-66806190D01*
X138158333Y-66282380D02*
X137491666Y-66282380D01*
X137920238Y-67282380D01*
%TO.C,R8*%
X136541666Y-107722380D02*
X136875000Y-107246190D01*
X137113095Y-107722380D02*
X137113095Y-106722380D01*
X136732142Y-106722380D01*
X136636904Y-106770000D01*
X136589285Y-106817619D01*
X136541666Y-106912857D01*
X136541666Y-107055714D01*
X136589285Y-107150952D01*
X136636904Y-107198571D01*
X136732142Y-107246190D01*
X137113095Y-107246190D01*
X135970238Y-107150952D02*
X136065476Y-107103333D01*
X136113095Y-107055714D01*
X136160714Y-106960476D01*
X136160714Y-106912857D01*
X136113095Y-106817619D01*
X136065476Y-106770000D01*
X135970238Y-106722380D01*
X135779761Y-106722380D01*
X135684523Y-106770000D01*
X135636904Y-106817619D01*
X135589285Y-106912857D01*
X135589285Y-106960476D01*
X135636904Y-107055714D01*
X135684523Y-107103333D01*
X135779761Y-107150952D01*
X135970238Y-107150952D01*
X136065476Y-107198571D01*
X136113095Y-107246190D01*
X136160714Y-107341428D01*
X136160714Y-107531904D01*
X136113095Y-107627142D01*
X136065476Y-107674761D01*
X135970238Y-107722380D01*
X135779761Y-107722380D01*
X135684523Y-107674761D01*
X135636904Y-107627142D01*
X135589285Y-107531904D01*
X135589285Y-107341428D01*
X135636904Y-107246190D01*
X135684523Y-107198571D01*
X135779761Y-107150952D01*
%TO.C,R9*%
X162441666Y-64422380D02*
X162775000Y-63946190D01*
X163013095Y-64422380D02*
X163013095Y-63422380D01*
X162632142Y-63422380D01*
X162536904Y-63470000D01*
X162489285Y-63517619D01*
X162441666Y-63612857D01*
X162441666Y-63755714D01*
X162489285Y-63850952D01*
X162536904Y-63898571D01*
X162632142Y-63946190D01*
X163013095Y-63946190D01*
X161965476Y-64422380D02*
X161775000Y-64422380D01*
X161679761Y-64374761D01*
X161632142Y-64327142D01*
X161536904Y-64184285D01*
X161489285Y-63993809D01*
X161489285Y-63612857D01*
X161536904Y-63517619D01*
X161584523Y-63470000D01*
X161679761Y-63422380D01*
X161870238Y-63422380D01*
X161965476Y-63470000D01*
X162013095Y-63517619D01*
X162060714Y-63612857D01*
X162060714Y-63850952D01*
X162013095Y-63946190D01*
X161965476Y-63993809D01*
X161870238Y-64041428D01*
X161679761Y-64041428D01*
X161584523Y-63993809D01*
X161536904Y-63946190D01*
X161489285Y-63850952D01*
%TO.C,R10*%
X164667857Y-110582380D02*
X165001190Y-110106190D01*
X165239285Y-110582380D02*
X165239285Y-109582380D01*
X164858333Y-109582380D01*
X164763095Y-109630000D01*
X164715476Y-109677619D01*
X164667857Y-109772857D01*
X164667857Y-109915714D01*
X164715476Y-110010952D01*
X164763095Y-110058571D01*
X164858333Y-110106190D01*
X165239285Y-110106190D01*
X163715476Y-110582380D02*
X164286904Y-110582380D01*
X164001190Y-110582380D02*
X164001190Y-109582380D01*
X164096428Y-109725238D01*
X164191666Y-109820476D01*
X164286904Y-109868095D01*
X163096428Y-109582380D02*
X163001190Y-109582380D01*
X162905952Y-109630000D01*
X162858333Y-109677619D01*
X162810714Y-109772857D01*
X162763095Y-109963333D01*
X162763095Y-110201428D01*
X162810714Y-110391904D01*
X162858333Y-110487142D01*
X162905952Y-110534761D01*
X163001190Y-110582380D01*
X163096428Y-110582380D01*
X163191666Y-110534761D01*
X163239285Y-110487142D01*
X163286904Y-110391904D01*
X163334523Y-110201428D01*
X163334523Y-109963333D01*
X163286904Y-109772857D01*
X163239285Y-109677619D01*
X163191666Y-109630000D01*
X163096428Y-109582380D01*
%TO.C,R11*%
X186817857Y-64422380D02*
X187151190Y-63946190D01*
X187389285Y-64422380D02*
X187389285Y-63422380D01*
X187008333Y-63422380D01*
X186913095Y-63470000D01*
X186865476Y-63517619D01*
X186817857Y-63612857D01*
X186817857Y-63755714D01*
X186865476Y-63850952D01*
X186913095Y-63898571D01*
X187008333Y-63946190D01*
X187389285Y-63946190D01*
X185865476Y-64422380D02*
X186436904Y-64422380D01*
X186151190Y-64422380D02*
X186151190Y-63422380D01*
X186246428Y-63565238D01*
X186341666Y-63660476D01*
X186436904Y-63708095D01*
X184913095Y-64422380D02*
X185484523Y-64422380D01*
X185198809Y-64422380D02*
X185198809Y-63422380D01*
X185294047Y-63565238D01*
X185389285Y-63660476D01*
X185484523Y-63708095D01*
%TO.C,R12*%
X186467857Y-110582380D02*
X186801190Y-110106190D01*
X187039285Y-110582380D02*
X187039285Y-109582380D01*
X186658333Y-109582380D01*
X186563095Y-109630000D01*
X186515476Y-109677619D01*
X186467857Y-109772857D01*
X186467857Y-109915714D01*
X186515476Y-110010952D01*
X186563095Y-110058571D01*
X186658333Y-110106190D01*
X187039285Y-110106190D01*
X185515476Y-110582380D02*
X186086904Y-110582380D01*
X185801190Y-110582380D02*
X185801190Y-109582380D01*
X185896428Y-109725238D01*
X185991666Y-109820476D01*
X186086904Y-109868095D01*
X185134523Y-109677619D02*
X185086904Y-109630000D01*
X184991666Y-109582380D01*
X184753571Y-109582380D01*
X184658333Y-109630000D01*
X184610714Y-109677619D01*
X184563095Y-109772857D01*
X184563095Y-109868095D01*
X184610714Y-110010952D01*
X185182142Y-110582380D01*
X184563095Y-110582380D01*
%TO.C,R13*%
X207142857Y-67282380D02*
X207476190Y-66806190D01*
X207714285Y-67282380D02*
X207714285Y-66282380D01*
X207333333Y-66282380D01*
X207238095Y-66330000D01*
X207190476Y-66377619D01*
X207142857Y-66472857D01*
X207142857Y-66615714D01*
X207190476Y-66710952D01*
X207238095Y-66758571D01*
X207333333Y-66806190D01*
X207714285Y-66806190D01*
X206190476Y-67282380D02*
X206761904Y-67282380D01*
X206476190Y-67282380D02*
X206476190Y-66282380D01*
X206571428Y-66425238D01*
X206666666Y-66520476D01*
X206761904Y-66568095D01*
X205857142Y-66282380D02*
X205238095Y-66282380D01*
X205571428Y-66663333D01*
X205428571Y-66663333D01*
X205333333Y-66710952D01*
X205285714Y-66758571D01*
X205238095Y-66853809D01*
X205238095Y-67091904D01*
X205285714Y-67187142D01*
X205333333Y-67234761D01*
X205428571Y-67282380D01*
X205714285Y-67282380D01*
X205809523Y-67234761D01*
X205857142Y-67187142D01*
%TO.C,R14*%
X207417857Y-107722380D02*
X207751190Y-107246190D01*
X207989285Y-107722380D02*
X207989285Y-106722380D01*
X207608333Y-106722380D01*
X207513095Y-106770000D01*
X207465476Y-106817619D01*
X207417857Y-106912857D01*
X207417857Y-107055714D01*
X207465476Y-107150952D01*
X207513095Y-107198571D01*
X207608333Y-107246190D01*
X207989285Y-107246190D01*
X206465476Y-107722380D02*
X207036904Y-107722380D01*
X206751190Y-107722380D02*
X206751190Y-106722380D01*
X206846428Y-106865238D01*
X206941666Y-106960476D01*
X207036904Y-107008095D01*
X205608333Y-107055714D02*
X205608333Y-107722380D01*
X205846428Y-106674761D02*
X206084523Y-107389047D01*
X205465476Y-107389047D01*
%TO.C,R15*%
X229117857Y-67282380D02*
X229451190Y-66806190D01*
X229689285Y-67282380D02*
X229689285Y-66282380D01*
X229308333Y-66282380D01*
X229213095Y-66330000D01*
X229165476Y-66377619D01*
X229117857Y-66472857D01*
X229117857Y-66615714D01*
X229165476Y-66710952D01*
X229213095Y-66758571D01*
X229308333Y-66806190D01*
X229689285Y-66806190D01*
X228165476Y-67282380D02*
X228736904Y-67282380D01*
X228451190Y-67282380D02*
X228451190Y-66282380D01*
X228546428Y-66425238D01*
X228641666Y-66520476D01*
X228736904Y-66568095D01*
X227260714Y-66282380D02*
X227736904Y-66282380D01*
X227784523Y-66758571D01*
X227736904Y-66710952D01*
X227641666Y-66663333D01*
X227403571Y-66663333D01*
X227308333Y-66710952D01*
X227260714Y-66758571D01*
X227213095Y-66853809D01*
X227213095Y-67091904D01*
X227260714Y-67187142D01*
X227308333Y-67234761D01*
X227403571Y-67282380D01*
X227641666Y-67282380D01*
X227736904Y-67234761D01*
X227784523Y-67187142D01*
%TO.C,R16*%
X229567857Y-107822380D02*
X229901190Y-107346190D01*
X230139285Y-107822380D02*
X230139285Y-106822380D01*
X229758333Y-106822380D01*
X229663095Y-106870000D01*
X229615476Y-106917619D01*
X229567857Y-107012857D01*
X229567857Y-107155714D01*
X229615476Y-107250952D01*
X229663095Y-107298571D01*
X229758333Y-107346190D01*
X230139285Y-107346190D01*
X228615476Y-107822380D02*
X229186904Y-107822380D01*
X228901190Y-107822380D02*
X228901190Y-106822380D01*
X228996428Y-106965238D01*
X229091666Y-107060476D01*
X229186904Y-107108095D01*
X227758333Y-106822380D02*
X227948809Y-106822380D01*
X228044047Y-106870000D01*
X228091666Y-106917619D01*
X228186904Y-107060476D01*
X228234523Y-107250952D01*
X228234523Y-107631904D01*
X228186904Y-107727142D01*
X228139285Y-107774761D01*
X228044047Y-107822380D01*
X227853571Y-107822380D01*
X227758333Y-107774761D01*
X227710714Y-107727142D01*
X227663095Y-107631904D01*
X227663095Y-107393809D01*
X227710714Y-107298571D01*
X227758333Y-107250952D01*
X227853571Y-107203333D01*
X228044047Y-107203333D01*
X228139285Y-107250952D01*
X228186904Y-107298571D01*
X228234523Y-107393809D01*
%TD*%
M02*
