%TF.GenerationSoftware,KiCad,Pcbnew,(5.1.7-0-10_14)*%
%TF.CreationDate,2020-10-27T13:19:28-03:00*%
%TF.ProjectId,macedo module 3,6d616365-646f-4206-9d6f-64756c652033,1*%
%TF.SameCoordinates,Original*%
%TF.FileFunction,Paste,Bot*%
%TF.FilePolarity,Positive*%
%FSLAX46Y46*%
G04 Gerber Fmt 4.6, Leading zero omitted, Abs format (unit mm)*
G04 Created by KiCad (PCBNEW (5.1.7-0-10_14)) date 2020-10-27 13:19:28*
%MOMM*%
%LPD*%
G01*
G04 APERTURE LIST*
%ADD10R,0.650000X1.950000*%
G04 APERTURE END LIST*
D10*
%TO.C,cd4067d1*%
X140165000Y-82125000D03*
X141435000Y-82125000D03*
X142705000Y-82125000D03*
X143975000Y-82125000D03*
X145245000Y-82125000D03*
X146515000Y-82125000D03*
X147785000Y-82125000D03*
X149055000Y-82125000D03*
X150325000Y-82125000D03*
X151595000Y-82125000D03*
X152865000Y-82125000D03*
X154135000Y-82125000D03*
X154135000Y-91575000D03*
X152865000Y-91575000D03*
X151595000Y-91575000D03*
X150325000Y-91575000D03*
X149055000Y-91575000D03*
X147785000Y-91575000D03*
X146515000Y-91575000D03*
X145245000Y-91575000D03*
X143975000Y-91575000D03*
X142705000Y-91575000D03*
X141435000Y-91575000D03*
X140165000Y-91575000D03*
%TD*%
%TO.C,74hc595*%
G36*
G01*
X104195000Y-85400000D02*
X103895000Y-85400000D01*
G75*
G02*
X103745000Y-85250000I0J150000D01*
G01*
X103745000Y-83600000D01*
G75*
G02*
X103895000Y-83450000I150000J0D01*
G01*
X104195000Y-83450000D01*
G75*
G02*
X104345000Y-83600000I0J-150000D01*
G01*
X104345000Y-85250000D01*
G75*
G02*
X104195000Y-85400000I-150000J0D01*
G01*
G37*
G36*
G01*
X102925000Y-85400000D02*
X102625000Y-85400000D01*
G75*
G02*
X102475000Y-85250000I0J150000D01*
G01*
X102475000Y-83600000D01*
G75*
G02*
X102625000Y-83450000I150000J0D01*
G01*
X102925000Y-83450000D01*
G75*
G02*
X103075000Y-83600000I0J-150000D01*
G01*
X103075000Y-85250000D01*
G75*
G02*
X102925000Y-85400000I-150000J0D01*
G01*
G37*
G36*
G01*
X101655000Y-85400000D02*
X101355000Y-85400000D01*
G75*
G02*
X101205000Y-85250000I0J150000D01*
G01*
X101205000Y-83600000D01*
G75*
G02*
X101355000Y-83450000I150000J0D01*
G01*
X101655000Y-83450000D01*
G75*
G02*
X101805000Y-83600000I0J-150000D01*
G01*
X101805000Y-85250000D01*
G75*
G02*
X101655000Y-85400000I-150000J0D01*
G01*
G37*
G36*
G01*
X100385000Y-85400000D02*
X100085000Y-85400000D01*
G75*
G02*
X99935000Y-85250000I0J150000D01*
G01*
X99935000Y-83600000D01*
G75*
G02*
X100085000Y-83450000I150000J0D01*
G01*
X100385000Y-83450000D01*
G75*
G02*
X100535000Y-83600000I0J-150000D01*
G01*
X100535000Y-85250000D01*
G75*
G02*
X100385000Y-85400000I-150000J0D01*
G01*
G37*
G36*
G01*
X99115000Y-85400000D02*
X98815000Y-85400000D01*
G75*
G02*
X98665000Y-85250000I0J150000D01*
G01*
X98665000Y-83600000D01*
G75*
G02*
X98815000Y-83450000I150000J0D01*
G01*
X99115000Y-83450000D01*
G75*
G02*
X99265000Y-83600000I0J-150000D01*
G01*
X99265000Y-85250000D01*
G75*
G02*
X99115000Y-85400000I-150000J0D01*
G01*
G37*
G36*
G01*
X97845000Y-85400000D02*
X97545000Y-85400000D01*
G75*
G02*
X97395000Y-85250000I0J150000D01*
G01*
X97395000Y-83600000D01*
G75*
G02*
X97545000Y-83450000I150000J0D01*
G01*
X97845000Y-83450000D01*
G75*
G02*
X97995000Y-83600000I0J-150000D01*
G01*
X97995000Y-85250000D01*
G75*
G02*
X97845000Y-85400000I-150000J0D01*
G01*
G37*
G36*
G01*
X96575000Y-85400000D02*
X96275000Y-85400000D01*
G75*
G02*
X96125000Y-85250000I0J150000D01*
G01*
X96125000Y-83600000D01*
G75*
G02*
X96275000Y-83450000I150000J0D01*
G01*
X96575000Y-83450000D01*
G75*
G02*
X96725000Y-83600000I0J-150000D01*
G01*
X96725000Y-85250000D01*
G75*
G02*
X96575000Y-85400000I-150000J0D01*
G01*
G37*
G36*
G01*
X95305000Y-85400000D02*
X95005000Y-85400000D01*
G75*
G02*
X94855000Y-85250000I0J150000D01*
G01*
X94855000Y-83600000D01*
G75*
G02*
X95005000Y-83450000I150000J0D01*
G01*
X95305000Y-83450000D01*
G75*
G02*
X95455000Y-83600000I0J-150000D01*
G01*
X95455000Y-85250000D01*
G75*
G02*
X95305000Y-85400000I-150000J0D01*
G01*
G37*
G36*
G01*
X95305000Y-90350000D02*
X95005000Y-90350000D01*
G75*
G02*
X94855000Y-90200000I0J150000D01*
G01*
X94855000Y-88550000D01*
G75*
G02*
X95005000Y-88400000I150000J0D01*
G01*
X95305000Y-88400000D01*
G75*
G02*
X95455000Y-88550000I0J-150000D01*
G01*
X95455000Y-90200000D01*
G75*
G02*
X95305000Y-90350000I-150000J0D01*
G01*
G37*
G36*
G01*
X96575000Y-90350000D02*
X96275000Y-90350000D01*
G75*
G02*
X96125000Y-90200000I0J150000D01*
G01*
X96125000Y-88550000D01*
G75*
G02*
X96275000Y-88400000I150000J0D01*
G01*
X96575000Y-88400000D01*
G75*
G02*
X96725000Y-88550000I0J-150000D01*
G01*
X96725000Y-90200000D01*
G75*
G02*
X96575000Y-90350000I-150000J0D01*
G01*
G37*
G36*
G01*
X97845000Y-90350000D02*
X97545000Y-90350000D01*
G75*
G02*
X97395000Y-90200000I0J150000D01*
G01*
X97395000Y-88550000D01*
G75*
G02*
X97545000Y-88400000I150000J0D01*
G01*
X97845000Y-88400000D01*
G75*
G02*
X97995000Y-88550000I0J-150000D01*
G01*
X97995000Y-90200000D01*
G75*
G02*
X97845000Y-90350000I-150000J0D01*
G01*
G37*
G36*
G01*
X99115000Y-90350000D02*
X98815000Y-90350000D01*
G75*
G02*
X98665000Y-90200000I0J150000D01*
G01*
X98665000Y-88550000D01*
G75*
G02*
X98815000Y-88400000I150000J0D01*
G01*
X99115000Y-88400000D01*
G75*
G02*
X99265000Y-88550000I0J-150000D01*
G01*
X99265000Y-90200000D01*
G75*
G02*
X99115000Y-90350000I-150000J0D01*
G01*
G37*
G36*
G01*
X100385000Y-90350000D02*
X100085000Y-90350000D01*
G75*
G02*
X99935000Y-90200000I0J150000D01*
G01*
X99935000Y-88550000D01*
G75*
G02*
X100085000Y-88400000I150000J0D01*
G01*
X100385000Y-88400000D01*
G75*
G02*
X100535000Y-88550000I0J-150000D01*
G01*
X100535000Y-90200000D01*
G75*
G02*
X100385000Y-90350000I-150000J0D01*
G01*
G37*
G36*
G01*
X101655000Y-90350000D02*
X101355000Y-90350000D01*
G75*
G02*
X101205000Y-90200000I0J150000D01*
G01*
X101205000Y-88550000D01*
G75*
G02*
X101355000Y-88400000I150000J0D01*
G01*
X101655000Y-88400000D01*
G75*
G02*
X101805000Y-88550000I0J-150000D01*
G01*
X101805000Y-90200000D01*
G75*
G02*
X101655000Y-90350000I-150000J0D01*
G01*
G37*
G36*
G01*
X102925000Y-90350000D02*
X102625000Y-90350000D01*
G75*
G02*
X102475000Y-90200000I0J150000D01*
G01*
X102475000Y-88550000D01*
G75*
G02*
X102625000Y-88400000I150000J0D01*
G01*
X102925000Y-88400000D01*
G75*
G02*
X103075000Y-88550000I0J-150000D01*
G01*
X103075000Y-90200000D01*
G75*
G02*
X102925000Y-90350000I-150000J0D01*
G01*
G37*
G36*
G01*
X104195000Y-90350000D02*
X103895000Y-90350000D01*
G75*
G02*
X103745000Y-90200000I0J150000D01*
G01*
X103745000Y-88550000D01*
G75*
G02*
X103895000Y-88400000I150000J0D01*
G01*
X104195000Y-88400000D01*
G75*
G02*
X104345000Y-88550000I0J-150000D01*
G01*
X104345000Y-90200000D01*
G75*
G02*
X104195000Y-90350000I-150000J0D01*
G01*
G37*
%TD*%
%TO.C,74hc595_2*%
G36*
G01*
X205195000Y-90350000D02*
X204895000Y-90350000D01*
G75*
G02*
X204745000Y-90200000I0J150000D01*
G01*
X204745000Y-88550000D01*
G75*
G02*
X204895000Y-88400000I150000J0D01*
G01*
X205195000Y-88400000D01*
G75*
G02*
X205345000Y-88550000I0J-150000D01*
G01*
X205345000Y-90200000D01*
G75*
G02*
X205195000Y-90350000I-150000J0D01*
G01*
G37*
G36*
G01*
X203925000Y-90350000D02*
X203625000Y-90350000D01*
G75*
G02*
X203475000Y-90200000I0J150000D01*
G01*
X203475000Y-88550000D01*
G75*
G02*
X203625000Y-88400000I150000J0D01*
G01*
X203925000Y-88400000D01*
G75*
G02*
X204075000Y-88550000I0J-150000D01*
G01*
X204075000Y-90200000D01*
G75*
G02*
X203925000Y-90350000I-150000J0D01*
G01*
G37*
G36*
G01*
X202655000Y-90350000D02*
X202355000Y-90350000D01*
G75*
G02*
X202205000Y-90200000I0J150000D01*
G01*
X202205000Y-88550000D01*
G75*
G02*
X202355000Y-88400000I150000J0D01*
G01*
X202655000Y-88400000D01*
G75*
G02*
X202805000Y-88550000I0J-150000D01*
G01*
X202805000Y-90200000D01*
G75*
G02*
X202655000Y-90350000I-150000J0D01*
G01*
G37*
G36*
G01*
X201385000Y-90350000D02*
X201085000Y-90350000D01*
G75*
G02*
X200935000Y-90200000I0J150000D01*
G01*
X200935000Y-88550000D01*
G75*
G02*
X201085000Y-88400000I150000J0D01*
G01*
X201385000Y-88400000D01*
G75*
G02*
X201535000Y-88550000I0J-150000D01*
G01*
X201535000Y-90200000D01*
G75*
G02*
X201385000Y-90350000I-150000J0D01*
G01*
G37*
G36*
G01*
X200115000Y-90350000D02*
X199815000Y-90350000D01*
G75*
G02*
X199665000Y-90200000I0J150000D01*
G01*
X199665000Y-88550000D01*
G75*
G02*
X199815000Y-88400000I150000J0D01*
G01*
X200115000Y-88400000D01*
G75*
G02*
X200265000Y-88550000I0J-150000D01*
G01*
X200265000Y-90200000D01*
G75*
G02*
X200115000Y-90350000I-150000J0D01*
G01*
G37*
G36*
G01*
X198845000Y-90350000D02*
X198545000Y-90350000D01*
G75*
G02*
X198395000Y-90200000I0J150000D01*
G01*
X198395000Y-88550000D01*
G75*
G02*
X198545000Y-88400000I150000J0D01*
G01*
X198845000Y-88400000D01*
G75*
G02*
X198995000Y-88550000I0J-150000D01*
G01*
X198995000Y-90200000D01*
G75*
G02*
X198845000Y-90350000I-150000J0D01*
G01*
G37*
G36*
G01*
X197575000Y-90350000D02*
X197275000Y-90350000D01*
G75*
G02*
X197125000Y-90200000I0J150000D01*
G01*
X197125000Y-88550000D01*
G75*
G02*
X197275000Y-88400000I150000J0D01*
G01*
X197575000Y-88400000D01*
G75*
G02*
X197725000Y-88550000I0J-150000D01*
G01*
X197725000Y-90200000D01*
G75*
G02*
X197575000Y-90350000I-150000J0D01*
G01*
G37*
G36*
G01*
X196305000Y-90350000D02*
X196005000Y-90350000D01*
G75*
G02*
X195855000Y-90200000I0J150000D01*
G01*
X195855000Y-88550000D01*
G75*
G02*
X196005000Y-88400000I150000J0D01*
G01*
X196305000Y-88400000D01*
G75*
G02*
X196455000Y-88550000I0J-150000D01*
G01*
X196455000Y-90200000D01*
G75*
G02*
X196305000Y-90350000I-150000J0D01*
G01*
G37*
G36*
G01*
X196305000Y-85400000D02*
X196005000Y-85400000D01*
G75*
G02*
X195855000Y-85250000I0J150000D01*
G01*
X195855000Y-83600000D01*
G75*
G02*
X196005000Y-83450000I150000J0D01*
G01*
X196305000Y-83450000D01*
G75*
G02*
X196455000Y-83600000I0J-150000D01*
G01*
X196455000Y-85250000D01*
G75*
G02*
X196305000Y-85400000I-150000J0D01*
G01*
G37*
G36*
G01*
X197575000Y-85400000D02*
X197275000Y-85400000D01*
G75*
G02*
X197125000Y-85250000I0J150000D01*
G01*
X197125000Y-83600000D01*
G75*
G02*
X197275000Y-83450000I150000J0D01*
G01*
X197575000Y-83450000D01*
G75*
G02*
X197725000Y-83600000I0J-150000D01*
G01*
X197725000Y-85250000D01*
G75*
G02*
X197575000Y-85400000I-150000J0D01*
G01*
G37*
G36*
G01*
X198845000Y-85400000D02*
X198545000Y-85400000D01*
G75*
G02*
X198395000Y-85250000I0J150000D01*
G01*
X198395000Y-83600000D01*
G75*
G02*
X198545000Y-83450000I150000J0D01*
G01*
X198845000Y-83450000D01*
G75*
G02*
X198995000Y-83600000I0J-150000D01*
G01*
X198995000Y-85250000D01*
G75*
G02*
X198845000Y-85400000I-150000J0D01*
G01*
G37*
G36*
G01*
X200115000Y-85400000D02*
X199815000Y-85400000D01*
G75*
G02*
X199665000Y-85250000I0J150000D01*
G01*
X199665000Y-83600000D01*
G75*
G02*
X199815000Y-83450000I150000J0D01*
G01*
X200115000Y-83450000D01*
G75*
G02*
X200265000Y-83600000I0J-150000D01*
G01*
X200265000Y-85250000D01*
G75*
G02*
X200115000Y-85400000I-150000J0D01*
G01*
G37*
G36*
G01*
X201385000Y-85400000D02*
X201085000Y-85400000D01*
G75*
G02*
X200935000Y-85250000I0J150000D01*
G01*
X200935000Y-83600000D01*
G75*
G02*
X201085000Y-83450000I150000J0D01*
G01*
X201385000Y-83450000D01*
G75*
G02*
X201535000Y-83600000I0J-150000D01*
G01*
X201535000Y-85250000D01*
G75*
G02*
X201385000Y-85400000I-150000J0D01*
G01*
G37*
G36*
G01*
X202655000Y-85400000D02*
X202355000Y-85400000D01*
G75*
G02*
X202205000Y-85250000I0J150000D01*
G01*
X202205000Y-83600000D01*
G75*
G02*
X202355000Y-83450000I150000J0D01*
G01*
X202655000Y-83450000D01*
G75*
G02*
X202805000Y-83600000I0J-150000D01*
G01*
X202805000Y-85250000D01*
G75*
G02*
X202655000Y-85400000I-150000J0D01*
G01*
G37*
G36*
G01*
X203925000Y-85400000D02*
X203625000Y-85400000D01*
G75*
G02*
X203475000Y-85250000I0J150000D01*
G01*
X203475000Y-83600000D01*
G75*
G02*
X203625000Y-83450000I150000J0D01*
G01*
X203925000Y-83450000D01*
G75*
G02*
X204075000Y-83600000I0J-150000D01*
G01*
X204075000Y-85250000D01*
G75*
G02*
X203925000Y-85400000I-150000J0D01*
G01*
G37*
G36*
G01*
X205195000Y-85400000D02*
X204895000Y-85400000D01*
G75*
G02*
X204745000Y-85250000I0J150000D01*
G01*
X204745000Y-83600000D01*
G75*
G02*
X204895000Y-83450000I150000J0D01*
G01*
X205195000Y-83450000D01*
G75*
G02*
X205345000Y-83600000I0J-150000D01*
G01*
X205345000Y-85250000D01*
G75*
G02*
X205195000Y-85400000I-150000J0D01*
G01*
G37*
%TD*%
%TO.C,C1*%
G36*
G01*
X106150000Y-83600000D02*
X106650000Y-83600000D01*
G75*
G02*
X106875000Y-83825000I0J-225000D01*
G01*
X106875000Y-84275000D01*
G75*
G02*
X106650000Y-84500000I-225000J0D01*
G01*
X106150000Y-84500000D01*
G75*
G02*
X105925000Y-84275000I0J225000D01*
G01*
X105925000Y-83825000D01*
G75*
G02*
X106150000Y-83600000I225000J0D01*
G01*
G37*
G36*
G01*
X106150000Y-82050000D02*
X106650000Y-82050000D01*
G75*
G02*
X106875000Y-82275000I0J-225000D01*
G01*
X106875000Y-82725000D01*
G75*
G02*
X106650000Y-82950000I-225000J0D01*
G01*
X106150000Y-82950000D01*
G75*
G02*
X105925000Y-82725000I0J225000D01*
G01*
X105925000Y-82275000D01*
G75*
G02*
X106150000Y-82050000I225000J0D01*
G01*
G37*
%TD*%
%TO.C,C2*%
G36*
G01*
X136075000Y-93550000D02*
X136075000Y-93050000D01*
G75*
G02*
X136300000Y-92825000I225000J0D01*
G01*
X136750000Y-92825000D01*
G75*
G02*
X136975000Y-93050000I0J-225000D01*
G01*
X136975000Y-93550000D01*
G75*
G02*
X136750000Y-93775000I-225000J0D01*
G01*
X136300000Y-93775000D01*
G75*
G02*
X136075000Y-93550000I0J225000D01*
G01*
G37*
G36*
G01*
X137625000Y-93550000D02*
X137625000Y-93050000D01*
G75*
G02*
X137850000Y-92825000I225000J0D01*
G01*
X138300000Y-92825000D01*
G75*
G02*
X138525000Y-93050000I0J-225000D01*
G01*
X138525000Y-93550000D01*
G75*
G02*
X138300000Y-93775000I-225000J0D01*
G01*
X137850000Y-93775000D01*
G75*
G02*
X137625000Y-93550000I0J225000D01*
G01*
G37*
%TD*%
%TO.C,C3*%
G36*
G01*
X206650000Y-82075000D02*
X207150000Y-82075000D01*
G75*
G02*
X207375000Y-82300000I0J-225000D01*
G01*
X207375000Y-82750000D01*
G75*
G02*
X207150000Y-82975000I-225000J0D01*
G01*
X206650000Y-82975000D01*
G75*
G02*
X206425000Y-82750000I0J225000D01*
G01*
X206425000Y-82300000D01*
G75*
G02*
X206650000Y-82075000I225000J0D01*
G01*
G37*
G36*
G01*
X206650000Y-83625000D02*
X207150000Y-83625000D01*
G75*
G02*
X207375000Y-83850000I0J-225000D01*
G01*
X207375000Y-84300000D01*
G75*
G02*
X207150000Y-84525000I-225000J0D01*
G01*
X206650000Y-84525000D01*
G75*
G02*
X206425000Y-84300000I0J225000D01*
G01*
X206425000Y-83850000D01*
G75*
G02*
X206650000Y-83625000I225000J0D01*
G01*
G37*
%TD*%
%TO.C,R1*%
G36*
G01*
X73025000Y-65125000D02*
X73025000Y-65675000D01*
G75*
G02*
X72825000Y-65875000I-200000J0D01*
G01*
X72425000Y-65875000D01*
G75*
G02*
X72225000Y-65675000I0J200000D01*
G01*
X72225000Y-65125000D01*
G75*
G02*
X72425000Y-64925000I200000J0D01*
G01*
X72825000Y-64925000D01*
G75*
G02*
X73025000Y-65125000I0J-200000D01*
G01*
G37*
G36*
G01*
X71375000Y-65125000D02*
X71375000Y-65675000D01*
G75*
G02*
X71175000Y-65875000I-200000J0D01*
G01*
X70775000Y-65875000D01*
G75*
G02*
X70575000Y-65675000I0J200000D01*
G01*
X70575000Y-65125000D01*
G75*
G02*
X70775000Y-64925000I200000J0D01*
G01*
X71175000Y-64925000D01*
G75*
G02*
X71375000Y-65125000I0J-200000D01*
G01*
G37*
%TD*%
%TO.C,R2*%
G36*
G01*
X72750000Y-108975000D02*
X72750000Y-108425000D01*
G75*
G02*
X72950000Y-108225000I200000J0D01*
G01*
X73350000Y-108225000D01*
G75*
G02*
X73550000Y-108425000I0J-200000D01*
G01*
X73550000Y-108975000D01*
G75*
G02*
X73350000Y-109175000I-200000J0D01*
G01*
X72950000Y-109175000D01*
G75*
G02*
X72750000Y-108975000I0J200000D01*
G01*
G37*
G36*
G01*
X71100000Y-108975000D02*
X71100000Y-108425000D01*
G75*
G02*
X71300000Y-108225000I200000J0D01*
G01*
X71700000Y-108225000D01*
G75*
G02*
X71900000Y-108425000I0J-200000D01*
G01*
X71900000Y-108975000D01*
G75*
G02*
X71700000Y-109175000I-200000J0D01*
G01*
X71300000Y-109175000D01*
G75*
G02*
X71100000Y-108975000I0J200000D01*
G01*
G37*
%TD*%
%TO.C,R3*%
G36*
G01*
X94375000Y-65125000D02*
X94375000Y-65675000D01*
G75*
G02*
X94175000Y-65875000I-200000J0D01*
G01*
X93775000Y-65875000D01*
G75*
G02*
X93575000Y-65675000I0J200000D01*
G01*
X93575000Y-65125000D01*
G75*
G02*
X93775000Y-64925000I200000J0D01*
G01*
X94175000Y-64925000D01*
G75*
G02*
X94375000Y-65125000I0J-200000D01*
G01*
G37*
G36*
G01*
X96025000Y-65125000D02*
X96025000Y-65675000D01*
G75*
G02*
X95825000Y-65875000I-200000J0D01*
G01*
X95425000Y-65875000D01*
G75*
G02*
X95225000Y-65675000I0J200000D01*
G01*
X95225000Y-65125000D01*
G75*
G02*
X95425000Y-64925000I200000J0D01*
G01*
X95825000Y-64925000D01*
G75*
G02*
X96025000Y-65125000I0J-200000D01*
G01*
G37*
%TD*%
%TO.C,R4*%
G36*
G01*
X92975000Y-108975000D02*
X92975000Y-108425000D01*
G75*
G02*
X93175000Y-108225000I200000J0D01*
G01*
X93575000Y-108225000D01*
G75*
G02*
X93775000Y-108425000I0J-200000D01*
G01*
X93775000Y-108975000D01*
G75*
G02*
X93575000Y-109175000I-200000J0D01*
G01*
X93175000Y-109175000D01*
G75*
G02*
X92975000Y-108975000I0J200000D01*
G01*
G37*
G36*
G01*
X94625000Y-108975000D02*
X94625000Y-108425000D01*
G75*
G02*
X94825000Y-108225000I200000J0D01*
G01*
X95225000Y-108225000D01*
G75*
G02*
X95425000Y-108425000I0J-200000D01*
G01*
X95425000Y-108975000D01*
G75*
G02*
X95225000Y-109175000I-200000J0D01*
G01*
X94825000Y-109175000D01*
G75*
G02*
X94625000Y-108975000I0J200000D01*
G01*
G37*
%TD*%
%TO.C,R5*%
G36*
G01*
X114400000Y-65875000D02*
X114400000Y-65325000D01*
G75*
G02*
X114600000Y-65125000I200000J0D01*
G01*
X115000000Y-65125000D01*
G75*
G02*
X115200000Y-65325000I0J-200000D01*
G01*
X115200000Y-65875000D01*
G75*
G02*
X115000000Y-66075000I-200000J0D01*
G01*
X114600000Y-66075000D01*
G75*
G02*
X114400000Y-65875000I0J200000D01*
G01*
G37*
G36*
G01*
X116050000Y-65875000D02*
X116050000Y-65325000D01*
G75*
G02*
X116250000Y-65125000I200000J0D01*
G01*
X116650000Y-65125000D01*
G75*
G02*
X116850000Y-65325000I0J-200000D01*
G01*
X116850000Y-65875000D01*
G75*
G02*
X116650000Y-66075000I-200000J0D01*
G01*
X116250000Y-66075000D01*
G75*
G02*
X116050000Y-65875000I0J200000D01*
G01*
G37*
%TD*%
%TO.C,R6*%
G36*
G01*
X116250000Y-108425000D02*
X116250000Y-108975000D01*
G75*
G02*
X116050000Y-109175000I-200000J0D01*
G01*
X115650000Y-109175000D01*
G75*
G02*
X115450000Y-108975000I0J200000D01*
G01*
X115450000Y-108425000D01*
G75*
G02*
X115650000Y-108225000I200000J0D01*
G01*
X116050000Y-108225000D01*
G75*
G02*
X116250000Y-108425000I0J-200000D01*
G01*
G37*
G36*
G01*
X117900000Y-108425000D02*
X117900000Y-108975000D01*
G75*
G02*
X117700000Y-109175000I-200000J0D01*
G01*
X117300000Y-109175000D01*
G75*
G02*
X117100000Y-108975000I0J200000D01*
G01*
X117100000Y-108425000D01*
G75*
G02*
X117300000Y-108225000I200000J0D01*
G01*
X117700000Y-108225000D01*
G75*
G02*
X117900000Y-108425000I0J-200000D01*
G01*
G37*
%TD*%
%TO.C,R7*%
G36*
G01*
X138750000Y-65675000D02*
X138750000Y-65125000D01*
G75*
G02*
X138950000Y-64925000I200000J0D01*
G01*
X139350000Y-64925000D01*
G75*
G02*
X139550000Y-65125000I0J-200000D01*
G01*
X139550000Y-65675000D01*
G75*
G02*
X139350000Y-65875000I-200000J0D01*
G01*
X138950000Y-65875000D01*
G75*
G02*
X138750000Y-65675000I0J200000D01*
G01*
G37*
G36*
G01*
X137100000Y-65675000D02*
X137100000Y-65125000D01*
G75*
G02*
X137300000Y-64925000I200000J0D01*
G01*
X137700000Y-64925000D01*
G75*
G02*
X137900000Y-65125000I0J-200000D01*
G01*
X137900000Y-65675000D01*
G75*
G02*
X137700000Y-65875000I-200000J0D01*
G01*
X137300000Y-65875000D01*
G75*
G02*
X137100000Y-65675000I0J200000D01*
G01*
G37*
%TD*%
%TO.C,R8*%
G36*
G01*
X137600000Y-108425000D02*
X137600000Y-108975000D01*
G75*
G02*
X137400000Y-109175000I-200000J0D01*
G01*
X137000000Y-109175000D01*
G75*
G02*
X136800000Y-108975000I0J200000D01*
G01*
X136800000Y-108425000D01*
G75*
G02*
X137000000Y-108225000I200000J0D01*
G01*
X137400000Y-108225000D01*
G75*
G02*
X137600000Y-108425000I0J-200000D01*
G01*
G37*
G36*
G01*
X135950000Y-108425000D02*
X135950000Y-108975000D01*
G75*
G02*
X135750000Y-109175000I-200000J0D01*
G01*
X135350000Y-109175000D01*
G75*
G02*
X135150000Y-108975000I0J200000D01*
G01*
X135150000Y-108425000D01*
G75*
G02*
X135350000Y-108225000I200000J0D01*
G01*
X135750000Y-108225000D01*
G75*
G02*
X135950000Y-108425000I0J-200000D01*
G01*
G37*
%TD*%
%TO.C,R9*%
G36*
G01*
X163500000Y-65125000D02*
X163500000Y-65675000D01*
G75*
G02*
X163300000Y-65875000I-200000J0D01*
G01*
X162900000Y-65875000D01*
G75*
G02*
X162700000Y-65675000I0J200000D01*
G01*
X162700000Y-65125000D01*
G75*
G02*
X162900000Y-64925000I200000J0D01*
G01*
X163300000Y-64925000D01*
G75*
G02*
X163500000Y-65125000I0J-200000D01*
G01*
G37*
G36*
G01*
X161850000Y-65125000D02*
X161850000Y-65675000D01*
G75*
G02*
X161650000Y-65875000I-200000J0D01*
G01*
X161250000Y-65875000D01*
G75*
G02*
X161050000Y-65675000I0J200000D01*
G01*
X161050000Y-65125000D01*
G75*
G02*
X161250000Y-64925000I200000J0D01*
G01*
X161650000Y-64925000D01*
G75*
G02*
X161850000Y-65125000I0J-200000D01*
G01*
G37*
%TD*%
%TO.C,R10*%
G36*
G01*
X164450000Y-108975000D02*
X164450000Y-108425000D01*
G75*
G02*
X164650000Y-108225000I200000J0D01*
G01*
X165050000Y-108225000D01*
G75*
G02*
X165250000Y-108425000I0J-200000D01*
G01*
X165250000Y-108975000D01*
G75*
G02*
X165050000Y-109175000I-200000J0D01*
G01*
X164650000Y-109175000D01*
G75*
G02*
X164450000Y-108975000I0J200000D01*
G01*
G37*
G36*
G01*
X162800000Y-108975000D02*
X162800000Y-108425000D01*
G75*
G02*
X163000000Y-108225000I200000J0D01*
G01*
X163400000Y-108225000D01*
G75*
G02*
X163600000Y-108425000I0J-200000D01*
G01*
X163600000Y-108975000D01*
G75*
G02*
X163400000Y-109175000I-200000J0D01*
G01*
X163000000Y-109175000D01*
G75*
G02*
X162800000Y-108975000I0J200000D01*
G01*
G37*
%TD*%
%TO.C,R11*%
G36*
G01*
X185750000Y-65125000D02*
X185750000Y-65675000D01*
G75*
G02*
X185550000Y-65875000I-200000J0D01*
G01*
X185150000Y-65875000D01*
G75*
G02*
X184950000Y-65675000I0J200000D01*
G01*
X184950000Y-65125000D01*
G75*
G02*
X185150000Y-64925000I200000J0D01*
G01*
X185550000Y-64925000D01*
G75*
G02*
X185750000Y-65125000I0J-200000D01*
G01*
G37*
G36*
G01*
X187400000Y-65125000D02*
X187400000Y-65675000D01*
G75*
G02*
X187200000Y-65875000I-200000J0D01*
G01*
X186800000Y-65875000D01*
G75*
G02*
X186600000Y-65675000I0J200000D01*
G01*
X186600000Y-65125000D01*
G75*
G02*
X186800000Y-64925000I200000J0D01*
G01*
X187200000Y-64925000D01*
G75*
G02*
X187400000Y-65125000I0J-200000D01*
G01*
G37*
%TD*%
%TO.C,R12*%
G36*
G01*
X184600000Y-108975000D02*
X184600000Y-108425000D01*
G75*
G02*
X184800000Y-108225000I200000J0D01*
G01*
X185200000Y-108225000D01*
G75*
G02*
X185400000Y-108425000I0J-200000D01*
G01*
X185400000Y-108975000D01*
G75*
G02*
X185200000Y-109175000I-200000J0D01*
G01*
X184800000Y-109175000D01*
G75*
G02*
X184600000Y-108975000I0J200000D01*
G01*
G37*
G36*
G01*
X186250000Y-108975000D02*
X186250000Y-108425000D01*
G75*
G02*
X186450000Y-108225000I200000J0D01*
G01*
X186850000Y-108225000D01*
G75*
G02*
X187050000Y-108425000I0J-200000D01*
G01*
X187050000Y-108975000D01*
G75*
G02*
X186850000Y-109175000I-200000J0D01*
G01*
X186450000Y-109175000D01*
G75*
G02*
X186250000Y-108975000I0J200000D01*
G01*
G37*
%TD*%
%TO.C,R13*%
G36*
G01*
X205275000Y-65675000D02*
X205275000Y-65125000D01*
G75*
G02*
X205475000Y-64925000I200000J0D01*
G01*
X205875000Y-64925000D01*
G75*
G02*
X206075000Y-65125000I0J-200000D01*
G01*
X206075000Y-65675000D01*
G75*
G02*
X205875000Y-65875000I-200000J0D01*
G01*
X205475000Y-65875000D01*
G75*
G02*
X205275000Y-65675000I0J200000D01*
G01*
G37*
G36*
G01*
X206925000Y-65675000D02*
X206925000Y-65125000D01*
G75*
G02*
X207125000Y-64925000I200000J0D01*
G01*
X207525000Y-64925000D01*
G75*
G02*
X207725000Y-65125000I0J-200000D01*
G01*
X207725000Y-65675000D01*
G75*
G02*
X207525000Y-65875000I-200000J0D01*
G01*
X207125000Y-65875000D01*
G75*
G02*
X206925000Y-65675000I0J200000D01*
G01*
G37*
%TD*%
%TO.C,R14*%
G36*
G01*
X206350000Y-108425000D02*
X206350000Y-108975000D01*
G75*
G02*
X206150000Y-109175000I-200000J0D01*
G01*
X205750000Y-109175000D01*
G75*
G02*
X205550000Y-108975000I0J200000D01*
G01*
X205550000Y-108425000D01*
G75*
G02*
X205750000Y-108225000I200000J0D01*
G01*
X206150000Y-108225000D01*
G75*
G02*
X206350000Y-108425000I0J-200000D01*
G01*
G37*
G36*
G01*
X208000000Y-108425000D02*
X208000000Y-108975000D01*
G75*
G02*
X207800000Y-109175000I-200000J0D01*
G01*
X207400000Y-109175000D01*
G75*
G02*
X207200000Y-108975000I0J200000D01*
G01*
X207200000Y-108425000D01*
G75*
G02*
X207400000Y-108225000I200000J0D01*
G01*
X207800000Y-108225000D01*
G75*
G02*
X208000000Y-108425000I0J-200000D01*
G01*
G37*
%TD*%
%TO.C,R15*%
G36*
G01*
X228900000Y-65675000D02*
X228900000Y-65125000D01*
G75*
G02*
X229100000Y-64925000I200000J0D01*
G01*
X229500000Y-64925000D01*
G75*
G02*
X229700000Y-65125000I0J-200000D01*
G01*
X229700000Y-65675000D01*
G75*
G02*
X229500000Y-65875000I-200000J0D01*
G01*
X229100000Y-65875000D01*
G75*
G02*
X228900000Y-65675000I0J200000D01*
G01*
G37*
G36*
G01*
X227250000Y-65675000D02*
X227250000Y-65125000D01*
G75*
G02*
X227450000Y-64925000I200000J0D01*
G01*
X227850000Y-64925000D01*
G75*
G02*
X228050000Y-65125000I0J-200000D01*
G01*
X228050000Y-65675000D01*
G75*
G02*
X227850000Y-65875000I-200000J0D01*
G01*
X227450000Y-65875000D01*
G75*
G02*
X227250000Y-65675000I0J200000D01*
G01*
G37*
%TD*%
%TO.C,R16*%
G36*
G01*
X230150000Y-108525000D02*
X230150000Y-109075000D01*
G75*
G02*
X229950000Y-109275000I-200000J0D01*
G01*
X229550000Y-109275000D01*
G75*
G02*
X229350000Y-109075000I0J200000D01*
G01*
X229350000Y-108525000D01*
G75*
G02*
X229550000Y-108325000I200000J0D01*
G01*
X229950000Y-108325000D01*
G75*
G02*
X230150000Y-108525000I0J-200000D01*
G01*
G37*
G36*
G01*
X228500000Y-108525000D02*
X228500000Y-109075000D01*
G75*
G02*
X228300000Y-109275000I-200000J0D01*
G01*
X227900000Y-109275000D01*
G75*
G02*
X227700000Y-109075000I0J200000D01*
G01*
X227700000Y-108525000D01*
G75*
G02*
X227900000Y-108325000I200000J0D01*
G01*
X228300000Y-108325000D01*
G75*
G02*
X228500000Y-108525000I0J-200000D01*
G01*
G37*
%TD*%
M02*
