M48
; DRILL file {KiCad (5.1.7-0-10_14)} date Tuesday, October 27, 2020 at 01:19:32 PM
; FORMAT={-:-/ absolute / metric / decimal}
; #@! TF.CreationDate,2020-10-27T13:19:32-03:00
; #@! TF.GenerationSoftware,Kicad,Pcbnew,(5.1.7-0-10_14)
; #@! TF.FileFunction,Plated,1,2,PTH
FMAT,2
METRIC
T1C0.400
T2C0.900
T3C1.000
T4C3.000
%
G90
G05
T1
X56.1Y-73.8
X57.2Y-96.0
X62.183Y-75.656
X62.275Y-98.05
X78.6Y-108.5
X78.68Y-78.69
X79.85Y-93.9
X80.6Y-80.65
X81.4Y-97.4
X81.5Y-73.7
X83.6Y-82.9
X85.6Y-84.9
X87.075Y-85.65
X87.25Y-75.575
X87.3Y-97.95
X88.1Y-91.545
X92.1Y-80.9
X93.6Y-75.9
X93.6Y-80.4
X93.6Y-87.9
X93.6Y-91.9
X94.1Y-85.525
X94.99Y-75.65
X95.4Y-82.625
X96.74Y-77.175
X97.6Y-80.9
X98.1Y-77.9
X98.6Y-81.9
X99.1Y-93.125
X100.986Y-108.7
X101.351Y-86.549
X101.6Y-80.9
X102.1Y-93.125
X102.325Y-77.2
X103.7Y-80.8
X104.925Y-82.325
X105.8Y-85.5
X105.9Y-97.5
X106.4Y-74.2
X106.5Y-80.225
X107.6Y-92.4
X110.671Y-108.7
X111.9Y-67.5
X112.2Y-75.75
X112.65Y-97.975
X115.1Y-63.9
X117.1Y-81.15
X118.1Y-64.4
X118.2Y-77.6
X118.35Y-93.65
X121.27Y-77.09
X124.8Y-64.1
X130.6Y-93.4
X130.6Y-97.9
X130.7Y-72.7
X131.8Y-97.1
X132.8Y-88.1
X133.057Y-108.7
X133.1Y-77.875
X137.2Y-75.775
X137.2Y-91.7
X137.407Y-105.733
X137.75Y-98.0
X138.77Y-104.92
X139.4Y-80.225
X139.6Y-108.4
X140.1Y-110.4
X149.1Y-97.9
X149.1Y-100.4
X149.6Y-88.9
X150.5Y-98.4
X152.4Y-86.4
X153.6Y-95.0
X154.0Y-79.9
X155.7Y-79.9
X156.4Y-73.9
X156.5Y-81.3
X156.5Y-101.6
X157.1Y-93.9
X158.35Y-94.15
X161.95Y-97.875
X162.013Y-75.812
X168.143Y-108.7
X168.95Y-76.1
X177.9Y-97.7
X179.7Y-90.8
X180.1Y-98.7
X181.1Y-100.3
X181.3Y-74.3
X181.6Y-90.8
X183.6Y-91.5
X185.1Y-93.9
X185.6Y-91.243
X185.7Y-89.9
X186.4Y-80.0
X187.2Y-97.875
X187.225Y-75.8
X190.6Y-78.9
X190.684Y-108.544
X193.9Y-87.5
X193.925Y-89.175
X194.1Y-76.4
X196.0Y-86.775
X196.36Y-75.675
X197.2Y-79.4
X197.6Y-86.6
X199.2Y-87.5
X199.6Y-93.9
X200.214Y-108.7
X201.1Y-86.9
X201.54Y-75.19
X202.6Y-76.4
X202.6Y-86.4
X202.6Y-93.9
X203.0Y-69.8
X203.6Y-81.4
X204.6Y-78.45
X204.6Y-93.9
X204.7Y-87.4
X205.6Y-78.45
X205.6Y-92.4
X206.1Y-79.9
X206.3Y-100.1
X207.0Y-91.2
X207.05Y-72.1
X207.1Y-76.3
X208.1Y-63.9
X209.01Y-79.42
X212.25Y-75.725
X212.275Y-98.0
X222.51Y-65.44
X222.59Y-108.66
X231.4Y-100.7
X231.6Y-72.9
X237.15Y-75.725
X237.2Y-98.0
X238.1Y-93.9
X241.6Y-65.9
X242.781Y-64.919
X243.1Y-93.9
X244.1Y-76.4
X246.581Y-68.719
T2
X235.8Y-74.4
X238.34Y-74.4
X110.8Y-74.4
X113.34Y-74.4
X210.8Y-99.4
X213.34Y-99.4
X160.8Y-74.4
X163.34Y-74.4
X85.8Y-99.4
X88.34Y-99.4
X210.8Y-74.4
X213.34Y-74.4
X135.8Y-99.4
X138.34Y-99.4
X85.8Y-74.4
X88.34Y-74.4
X185.8Y-99.4
X188.34Y-99.4
X135.8Y-74.4
X138.34Y-74.4
X60.8Y-99.4
X63.34Y-99.4
X185.8Y-74.4
X188.34Y-74.4
X110.8Y-99.4
X113.34Y-99.4
X60.8Y-74.4
X63.34Y-74.4
X235.8Y-99.4
X238.34Y-99.4
X160.8Y-99.4
X163.34Y-99.4
T3
X52.1Y-87.19
X52.1Y-89.73
X52.1Y-92.27
X52.1Y-94.81
X52.1Y-97.35
X52.1Y-99.89
X52.1Y-102.43
X247.1Y-87.2
X247.1Y-89.74
X247.1Y-92.28
X247.1Y-94.82
X247.1Y-97.36
X247.1Y-99.9
X247.1Y-102.44
X52.1Y-72.82
X52.1Y-75.36
X52.1Y-77.9
X52.1Y-80.44
X247.1Y-72.82
X247.1Y-75.36
X247.1Y-77.9
X247.1Y-80.44
T4
X247.1Y-64.4
X247.1Y-109.4
X52.1Y-109.4
T0
M30
