<?xml version="1.0" standalone="no"?>
 <!DOCTYPE svg PUBLIC "-//W3C//DTD SVG 1.1//EN" 
 "http://www.w3.org/Graphics/SVG/1.1/DTD/svg11.dtd"> 
<svg
  xmlns:svg="http://www.w3.org/2000/svg"
  xmlns="http://www.w3.org/2000/svg"
  xmlns:xlink="http://www.w3.org/1999/xlink"
  version="1.1"
  width="21.000720cm" height="29.700220cm" viewBox="0 0 82680 116930">
<title>SVG Picture created as Faduino-1-F_Fab.svg date 2021/11/30 15:20:05 </title>
  <desc>Picture generated by PCBNEW </desc>
<g style="fill:#000000; fill-opacity:1;stroke:#000000; stroke-opacity:1;
stroke-linecap:round; stroke-linejoin:round;"
 transform="translate(0 0) scale(1 1)">
</g>
<g style="fill:#000000; fill-opacity:0.0; 
stroke:#000000; stroke-width:-0.000393701; stroke-opacity:1; 
stroke-linecap:round; stroke-linejoin:round;">
</g>
<g style="fill:#000000; fill-opacity:0.0; 
stroke:#000000; stroke-width:59.0551; stroke-opacity:1; 
stroke-linecap:round; stroke-linejoin:round;">
<path d="M67755 69429
L67755 71122
" />
<path d="M67755 71122
L64527 71122
" />
<path d="M64527 71122
L64527 69035
" />
<path d="M64527 69035
L67362 69035
" />
<path d="M67362 69035
L67755 69429
" />
<path d="M67755 33996
L67755 35688
" />
<path d="M67755 35688
L64527 35688
" />
<path d="M64527 35688
L64527 33602
" />
<path d="M64527 33602
L67362 33602
" />
<path d="M67362 33602
L67755 33996
" />
</g>
<g style="fill:#000000; fill-opacity:0.0; 
stroke:#000000; stroke-width:39.3701; stroke-opacity:1; 
stroke-linecap:round; stroke-linejoin:round;">
<path d="M39295 33480
L39295 33165
" />
<path d="M39295 33165
L39925 33165
" />
<path d="M39925 33165
L39925 33480
" />
<path d="M39925 33480
L39295 33480
" />
<path d="M29885 33165
L29885 33480
" />
<path d="M29885 33480
L29255 33480
" />
<path d="M29255 33480
L29255 33165
" />
<path d="M29255 33165
L29885 33165
" />
<path d="M58980 33480
L58980 33165
" />
<path d="M58980 33165
L59610 33165
" />
<path d="M59610 33165
L59610 33480
" />
<path d="M59610 33480
L58980 33480
" />
<path d="M49137 33480
L49137 33165
" />
<path d="M49137 33165
L49767 33165
" />
<path d="M49767 33165
L49767 33480
" />
<path d="M49767 33480
L49137 33480
" />
<path d="M67559 37086
L67874 37086
" />
<path d="M67874 37086
L67874 37716
" />
<path d="M67874 37716
L67559 37716
" />
<path d="M67559 37716
L67559 37086
" />
<path d="M67559 72519
L67874 72519
" />
<path d="M67874 72519
L67874 73149
" />
<path d="M67874 73149
L67559 73149
" />
<path d="M67559 73149
L67559 72519
" />
<path d="M42047 12244
L42047 12559
" />
<path d="M42047 12559
L41417 12559
" />
<path d="M41417 12559
L41417 12244
" />
<path d="M41417 12244
L42047 12244
" />
<path d="M41850 14015
L41850 14330
" />
<path d="M41850 14330
L41220 14330
" />
<path d="M41220 14330
L41220 14015
" />
<path d="M41220 14015
L41850 14015
" />
<path d="M29212 23976
L29212 23661
" />
<path d="M29212 23661
L29842 23661
" />
<path d="M29842 23661
L29842 23976
" />
<path d="M29842 23976
L29212 23976
" />
<path d="M49007 53385
L49007 53070
" />
<path d="M49007 53070
L49637 53070
" />
<path d="M49637 53070
L49637 53385
" />
<path d="M49637 53385
L49007 53385
" />
<path d="M39055 23976
L39055 23661
" />
<path d="M39055 23661
L39685 23661
" />
<path d="M39685 23661
L39685 23976
" />
<path d="M39685 23976
L39055 23976
" />
<path d="M59047 53188
L59047 52874
" />
<path d="M59047 52874
L59677 52874
" />
<path d="M59677 52874
L59677 53188
" />
<path d="M59677 53188
L59047 53188
" />
<path d="M48986 23976
L48986 23661
" />
<path d="M48986 23661
L49616 23661
" />
<path d="M49616 23661
L49616 23976
" />
<path d="M49616 23976
L48986 23976
" />
<path d="M29161 63086
L29161 62771
" />
<path d="M29161 62771
L29791 62771
" />
<path d="M29791 62771
L29791 63086
" />
<path d="M29791 63086
L29161 63086
" />
<path d="M59566 23661
L59566 23976
" />
<path d="M59566 23976
L58937 23976
" />
<path d="M58937 23976
L58937 23661
" />
<path d="M58937 23661
L59566 23661
" />
<path d="M39003 63086
L39003 62771
" />
<path d="M39003 62771
L39633 62771
" />
<path d="M39633 62771
L39633 63086
" />
<path d="M39633 63086
L39003 63086
" />
<path d="M49043 63086
L49043 62771
" />
<path d="M49043 62771
L49673 62771
" />
<path d="M49673 62771
L49673 63086
" />
<path d="M49673 63086
L49043 63086
" />
<path d="M58885 63086
L58885 62771
" />
<path d="M58885 62771
L59515 62771
" />
<path d="M59515 62771
L59515 63086
" />
<path d="M59515 63086
L58885 63086
" />
<path d="M29212 72818
L29212 72503
" />
<path d="M29212 72503
L29842 72503
" />
<path d="M29842 72503
L29842 72818
" />
<path d="M29842 72818
L29212 72818
" />
<path d="M39055 73015
L39055 72700
" />
<path d="M39055 72700
L39685 72700
" />
<path d="M39685 72700
L39685 73015
" />
<path d="M39685 73015
L39055 73015
" />
<path d="M58803 72811
L58803 72496
" />
<path d="M58803 72496
L59433 72496
" />
<path d="M59433 72496
L59433 72811
" />
<path d="M59433 72811
L58803 72811
" />
<path d="M48897 72818
L48897 72503
" />
<path d="M48897 72503
L49527 72503
" />
<path d="M49527 72503
L49527 72818
" />
<path d="M49527 72818
L48897 72818
" />
<path d="M58740 82846
L58740 82531
" />
<path d="M58740 82531
L59370 82531
" />
<path d="M59370 82531
L59370 82846
" />
<path d="M59370 82846
L58740 82846
" />
<path d="M29173 82846
L29173 82531
" />
<path d="M29173 82531
L29803 82531
" />
<path d="M29803 82531
L29803 82846
" />
<path d="M29803 82846
L29173 82846
" />
<path d="M29322 53385
L29322 53070
" />
<path d="M29322 53070
L29952 53070
" />
<path d="M29952 53070
L29952 53385
" />
<path d="M29952 53385
L29322 53385
" />
<path d="M39015 82846
L39015 82531
" />
<path d="M39015 82531
L39645 82531
" />
<path d="M39645 82531
L39645 82846
" />
<path d="M39645 82846
L39015 82846
" />
<path d="M39165 53385
L39165 53070
" />
<path d="M39165 53070
L39795 53070
" />
<path d="M39795 53070
L39795 53385
" />
<path d="M39795 53385
L39165 53385
" />
<path d="M49055 82846
L49055 82531
" />
<path d="M49055 82531
L49685 82531
" />
<path d="M49685 82531
L49685 82846
" />
<path d="M49685 82846
L49055 82846
" />
<path d="M39724 43149
L40039 43149
" />
<path d="M40039 43149
L40039 43779
" />
<path d="M40039 43779
L39724 43779
" />
<path d="M39724 43779
L39724 43149
" />
<path d="M49251 43110
L49566 43110
" />
<path d="M49566 43110
L49566 43740
" />
<path d="M49566 43740
L49251 43740
" />
<path d="M49251 43740
L49251 43110
" />
<path d="M50118 14370
L48307 14370
" />
<path d="M48307 14370
L48307 13188
" />
<path d="M50118 13188
L50118 14370
" />
<path d="M50118 13188
L48307 13188
" />
<path d="M48956 13779
L48601 13779
" />
<path d="M49409 13779
L49802 13779
" />
<path d="M48956 13464
L48956 14094
" />
<path d="M49409 14074
L49409 13464
" />
<path d="M48956 13779
L49409 14074
" />
<path d="M48956 13779
L49409 13464
" />
</g>
<g style="fill:#000000; fill-opacity:0.0; 
stroke:#000000; stroke-width:47.2441; stroke-opacity:1; 
stroke-linecap:round; stroke-linejoin:round;">
<circle cx="44311" cy="39381.9" r="1181.1" /> 
<path d="M42027 41350
L42027 37019
" />
<path d="M42027 37019
L46594 37019
" />
<path d="M46594 37019
L46594 41744
" />
<path d="M46594 41744
L42460 41744
" />
<path d="M42460 41744
L42027 41350
" />
<path d="M43129 39381
L45492 39381
" />
<path d="M44311 40562
L44311 38200
" />
</g>
<g style="fill:#000000; fill-opacity:0.0; 
stroke:#000000; stroke-width:39.3701; stroke-opacity:1; 
stroke-linecap:round; stroke-linejoin:round;">
<path d="M65821 23598
L66146 23598
" />
<path d="M66146 23598
L66146 24228
" />
<path d="M66146 24228
L65821 24228
" />
<path d="M65821 24228
L65821 23598
" />
<path d="M40930 43799
L40605 43799
" />
<path d="M40605 43799
L40605 43169
" />
<path d="M40605 43169
L40930 43169
" />
<path d="M40930 43169
L40930 43799
" />
<path d="M41772 43881
L41447 43881
" />
<path d="M41447 43881
L41447 43251
" />
<path d="M41447 43251
L41772 43251
" />
<path d="M41772 43251
L41772 43881
" />
<path d="M48193 43740
L47869 43740
" />
<path d="M47869 43740
L47869 43110
" />
<path d="M47869 43110
L48193 43110
" />
<path d="M48193 43110
L48193 43740
" />
<path d="M48538 43110
L48863 43110
" />
<path d="M48863 43110
L48863 43740
" />
<path d="M48863 43740
L48538 43740
" />
<path d="M48538 43740
L48538 43110
" />
<path d="M32115 23885
L31790 23885
" />
<path d="M31790 23885
L31790 23255
" />
<path d="M31790 23255
L32115 23255
" />
<path d="M32115 23255
L32115 23885
" />
<path d="M46240 12125
L46633 12125
" />
<path d="M46633 12125
L46633 14251
" />
<path d="M46633 14251
L46240 14251
" />
<path d="M46240 11909
L46240 14468
" />
<path d="M46240 14468
L43791 14468
" />
<path d="M43791 14468
L43791 12303
" />
<path d="M43791 12303
L44185 11909
" />
<path d="M44185 11909
L46240 11909
" />
<path d="M43950 12143
L42728 12143
" />
<path d="M42728 12143
L42728 12438
" />
<path d="M42728 12438
L43791 12438
" />
<path d="M43791 13938
L42728 13938
" />
<path d="M42728 13938
L42728 14234
" />
<path d="M42728 14234
L43791 14234
" />
<g >
</g>
<g >
</g>
<g >
</g>
<g >
</g>
<g >
</g>
<g >
</g>
<g >
</g>
<g >
</g>
<g >
</g>
<g >
</g>
<g >
</g>
<g >
</g>
<g >
</g>
<g >
</g>
<g >
</g>
<g >
</g>
<g >
</g>
<g >
</g>
<g >
</g>
<g >
</g>
<g >
</g>
<g >
</g>
<g >
</g>
<g >
</g>
<g >
</g>
<g >
</g>
<g >
</g>
<g >
</g>
<g >
</g>
<g >
</g>
<g >
</g>
<g >
</g>
<g >
</g>
<g >
</g>
<g >
</g>
<g >
</g>
<g >
</g>
<g >
</g>
<g >
</g>
<g >
</g>
<g >
</g>
<g >
</g>
<g >
</g>
<g >
</g>
<g >
</g>
<g >
</g>
<g >
</g>
<g >
</g>
<g >
</g>
<g >
</g>
<g >
</g>
<g >
</g>
<g >
</g>
<g >
</g>
<g >
</g>
<g >
</g>
<g >
</g>
<g >
</g>
<g >
</g>
<g >
</g>
<g >
</g>
<g >
</g>
<g >
</g>
<g >
</g>
<g >
</g>
<g >
</g>
<g >
</g>
<g >
</g>
<g >
</g>
<g >
</g>
<g >
</g>
<g >
</g>
<g >
</g>
<g >
</g>
<g >
</g>
<g >
</g>
<g >
</g>
<g >
</g>
<g >
</g>
<g >
</g>
<g >
</g>
<g >
</g>
<g >
</g>
<g >
</g>
<g >
</g>
<g >
</g>
<g >
</g>
<g >
</g>
<g >
</g>
<g >
</g>
<g >
</g>
<g >
</g>
<g >
</g>
<g >
</g>
<g >
</g>
<g >
</g>
<g >
</g>
<g >
</g>
<g >
</g>
<g >
</g>
<g >
</g>
<g >
</g>
</g>
<g style="fill:#000000; fill-opacity:0.0; 
stroke:#000000; stroke-width:39.3701; stroke-opacity:1; 
stroke-linecap:round; stroke-linejoin:round;">
</g>
<g style="fill:#000000; fill-opacity:0.0; 
stroke:#000000; stroke-width:59.0551; stroke-opacity:1; 
stroke-linecap:round; stroke-linejoin:round;">
<g transform="rotate(-90 64074.8 70078.7)">
<text x="64074.8" y="70275.6"
textLength="5019.31" font-size="524.934" lengthAdjust="spacingAndGlyphs"
text-anchor="middle" opacity="0">CD74HC4067M_2</text>
</g>
<path d="M64215 72244
L64234 72262
L64252 72319
L64252 72356
L64234 72412
L64196 72450
L64159 72469
L64084 72487
L64027 72487
L63952 72469
L63915 72450
L63877 72412
L63859 72356
L63859 72319
L63877 72262
L63896 72244
" />
<path d="M64252 72075
L63859 72075
L63859 71981
L63877 71925
L63915 71887
L63952 71869
L64027 71850
L64084 71850
L64159 71869
L64196 71887
L64234 71925
L64252 71981
L64252 72075
" />
<path d="M63859 71719
L63859 71456
L64252 71625
" />
<path d="M63990 71137
L64252 71137
" />
<path d="M63840 71231
L64121 71325
L64121 71081
" />
<path d="M64252 70931
L63859 70931
" />
<path d="M64046 70931
L64046 70706
" />
<path d="M64252 70706
L63859 70706
" />
<path d="M64215 70294
L64234 70313
L64252 70369
L64252 70406
L64234 70463
L64196 70500
L64159 70519
L64084 70538
L64027 70538
L63952 70519
L63915 70500
L63877 70463
L63859 70406
L63859 70369
L63877 70313
L63896 70294
" />
<path d="M63990 69956
L64252 69956
" />
<path d="M63840 70050
L64121 70144
L64121 69900
" />
<path d="M63859 69675
L63859 69638
L63877 69600
L63896 69581
L63934 69563
L64009 69544
L64102 69544
L64177 69563
L64215 69581
L64234 69600
L64252 69638
L64252 69675
L64234 69713
L64215 69731
L64177 69750
L64102 69769
L64009 69769
L63934 69750
L63896 69731
L63877 69713
L63859 69675
" />
<path d="M63859 69206
L63859 69281
L63877 69319
L63896 69338
L63952 69375
L64027 69394
L64177 69394
L64215 69375
L64234 69356
L64252 69319
L64252 69244
L64234 69206
L64215 69188
L64177 69169
L64084 69169
L64046 69188
L64027 69206
L64009 69244
L64009 69319
L64027 69356
L64046 69375
L64084 69394
" />
<path d="M63859 69038
L63859 68775
L64252 68944
" />
<path d="M64252 68625
L63859 68625
L64140 68494
L63859 68363
L64252 68363
" />
<path d="M64290 68269
L64290 67969
" />
<path d="M63896 67894
L63877 67875
L63859 67838
L63859 67744
L63877 67707
L63896 67688
L63934 67669
L63971 67669
L64027 67688
L64252 67913
L64252 67669
" />
<g transform="rotate(-90 66141.7 70078.7)">
<text x="66141.7" y="70236.2"
textLength="1516.59" font-size="419.947" lengthAdjust="spacingAndGlyphs"
text-anchor="middle" opacity="0">Mux_2</text>
</g>
<path d="M66284 70723
L65969 70723
L66194 70618
L65969 70513
L66284 70513
" />
<path d="M66074 70228
L66284 70228
" />
<path d="M66074 70363
L66239 70363
L66269 70348
L66284 70318
L66284 70273
L66269 70243
L66254 70228
" />
<path d="M66284 70108
L66074 69943
" />
<path d="M66074 70108
L66284 69943
" />
<path d="M66314 69898
L66314 69658
" />
<path d="M65999 69598
L65984 69583
L65969 69553
L65969 69478
L65984 69448
L65999 69433
L66029 69418
L66059 69418
L66104 69433
L66284 69613
L66284 69418
" />
<g transform="rotate(-90 64074.8 34645.7)">
<text x="64074.8" y="34842.5"
textLength="5044.9" font-size="524.934" lengthAdjust="spacingAndGlyphs"
text-anchor="middle" opacity="0">CD74HC4067M_2</text>
</g>
<path d="M64215 36811
L64234 36829
L64252 36886
L64252 36923
L64234 36979
L64196 37017
L64159 37035
L64084 37054
L64027 37054
L63952 37035
L63915 37017
L63877 36979
L63859 36923
L63859 36886
L63877 36829
L63896 36811
" />
<path d="M64252 36642
L63859 36642
L63859 36548
L63877 36492
L63915 36454
L63952 36436
L64027 36417
L64084 36417
L64159 36436
L64196 36454
L64234 36492
L64252 36548
L64252 36642
" />
<path d="M63859 36286
L63859 36023
L64252 36192
" />
<path d="M63990 35704
L64252 35704
" />
<path d="M63840 35798
L64121 35892
L64121 35648
" />
<path d="M64252 35498
L63859 35498
" />
<path d="M64046 35498
L64046 35273
" />
<path d="M64252 35273
L63859 35273
" />
<path d="M64215 34861
L64234 34880
L64252 34936
L64252 34973
L64234 35029
L64196 35067
L64159 35086
L64084 35104
L64027 35104
L63952 35086
L63915 35067
L63877 35029
L63859 34973
L63859 34936
L63877 34880
L63896 34861
" />
<path d="M63990 34523
L64252 34523
" />
<path d="M63840 34617
L64121 34711
L64121 34467
" />
<path d="M63859 34242
L63859 34205
L63877 34167
L63896 34148
L63934 34130
L64009 34111
L64102 34111
L64177 34130
L64215 34148
L64234 34167
L64252 34205
L64252 34242
L64234 34280
L64215 34298
L64177 34317
L64102 34336
L64009 34336
L63934 34317
L63896 34298
L63877 34280
L63859 34242
" />
<path d="M63859 33773
L63859 33848
L63877 33886
L63896 33905
L63952 33942
L64027 33961
L64177 33961
L64215 33942
L64234 33923
L64252 33886
L64252 33811
L64234 33773
L64215 33755
L64177 33736
L64084 33736
L64046 33755
L64027 33773
L64009 33811
L64009 33886
L64027 33923
L64046 33942
L64084 33961
" />
<path d="M63859 33605
L63859 33342
L64252 33511
" />
<path d="M64252 33192
L63859 33192
L64140 33061
L63859 32930
L64252 32930
" />
<path d="M64290 32836
L64290 32536
" />
<path d="M63896 32461
L63877 32442
L63859 32405
L63859 32311
L63877 32274
L63896 32255
L63934 32236
L63971 32236
L64027 32255
L64252 32480
L64252 32236
" />
<g transform="rotate(-90 66141.7 34645.7)">
<text x="66141.7" y="34803.1"
textLength="1516.59" font-size="419.947" lengthAdjust="spacingAndGlyphs"
text-anchor="middle" opacity="0">Mux_1</text>
</g>
<path d="M66284 35290
L65969 35290
L66194 35185
L65969 35080
L66284 35080
" />
<path d="M66074 34795
L66284 34795
" />
<path d="M66074 34930
L66239 34930
L66269 34915
L66284 34885
L66284 34840
L66269 34810
L66254 34795
" />
<path d="M66284 34675
L66074 34510
" />
<path d="M66074 34675
L66284 34510
" />
<path d="M66314 34465
L66314 34225
" />
<path d="M66284 33985
L66284 34165
" />
<path d="M66284 34075
L65969 34075
L66014 34105
L66044 34135
L66059 34165
" />
<text x="39610.2" y="34082.7"
textLength="1895.29" font-size="524.934" lengthAdjust="spacingAndGlyphs"
text-anchor="middle" opacity="0">100nF</text>
<path d="M39000 34063
L38775 34063
" />
<path d="M38888 34063
L38888 33670
L38850 33726
L38813 33763
L38775 33782
" />
<path d="M39244 33670
L39282 33670
L39319 33688
L39338 33707
L39357 33745
L39375 33820
L39375 33913
L39357 33988
L39338 34026
L39319 34045
L39282 34063
L39244 34063
L39207 34045
L39188 34026
L39169 33988
L39150 33913
L39150 33820
L39169 33745
L39188 33707
L39207 33688
L39244 33670
" />
<path d="M39619 33670
L39657 33670
L39694 33688
L39713 33707
L39732 33745
L39750 33820
L39750 33913
L39732 33988
L39713 34026
L39694 34045
L39657 34063
L39619 34063
L39582 34045
L39563 34026
L39544 33988
L39525 33913
L39525 33820
L39544 33745
L39563 33707
L39582 33688
L39619 33670
" />
<path d="M39919 33801
L39919 34063
" />
<path d="M39919 33838
L39938 33820
L39975 33801
L40032 33801
L40069 33820
L40088 33857
L40088 34063
" />
<path d="M40407 33857
L40275 33857
" />
<path d="M40275 34063
L40275 33670
L40463 33670
" />
</g>
<g style="fill:#000000; fill-opacity:0.0; 
stroke:#000000; stroke-width:23.622; stroke-opacity:1; 
stroke-linecap:round; stroke-linejoin:round;">
<text x="39610.2" y="33401.6"
textLength="384.233" font-size="209.974" lengthAdjust="spacingAndGlyphs"
text-anchor="middle" opacity="0">C6</text>
<path d="M39583 33379
L39576 33386
L39553 33394
L39538 33394
L39516 33386
L39501 33371
L39494 33356
L39486 33326
L39486 33304
L39494 33274
L39501 33259
L39516 33244
L39538 33236
L39553 33236
L39576 33244
L39583 33251
" />
<path d="M39718 33236
L39688 33236
L39673 33244
L39666 33251
L39651 33274
L39643 33304
L39643 33364
L39651 33379
L39658 33386
L39673 33394
L39703 33394
L39718 33386
L39726 33379
L39733 33364
L39733 33326
L39726 33311
L39718 33304
L39703 33296
L39673 33296
L39658 33304
L39651 33311
L39643 33326
" />
</g>
<g style="fill:#000000; fill-opacity:0.0; 
stroke:#000000; stroke-width:59.0551; stroke-opacity:1; 
stroke-linecap:round; stroke-linejoin:round;">
<text x="29570.9" y="32956.7"
textLength="1849.23" font-size="524.934" lengthAdjust="spacingAndGlyphs"
text-anchor="middle" opacity="0">100nF</text>
<path d="M28961 32937
L28736 32937
" />
<path d="M28849 32937
L28849 32544
L28811 32600
L28774 32637
L28736 32656
" />
<path d="M29205 32544
L29242 32544
L29280 32562
L29299 32581
L29317 32619
L29336 32694
L29336 32787
L29317 32862
L29299 32900
L29280 32919
L29242 32937
L29205 32937
L29167 32919
L29149 32900
L29130 32862
L29111 32787
L29111 32694
L29130 32619
L29149 32581
L29167 32562
L29205 32544
" />
<path d="M29580 32544
L29617 32544
L29655 32562
L29673 32581
L29692 32619
L29711 32694
L29711 32787
L29692 32862
L29673 32900
L29655 32919
L29617 32937
L29580 32937
L29542 32919
L29523 32900
L29505 32862
L29486 32787
L29486 32694
L29505 32619
L29523 32581
L29542 32562
L29580 32544
" />
<path d="M29880 32675
L29880 32937
" />
<path d="M29880 32712
L29898 32694
L29936 32675
L29992 32675
L30030 32694
L30048 32731
L30048 32937
" />
<path d="M30367 32731
L30236 32731
" />
<path d="M30236 32937
L30236 32544
L30423 32544
" />
</g>
<g style="fill:#000000; fill-opacity:0.0; 
stroke:#000000; stroke-width:23.622; stroke-opacity:1; 
stroke-linecap:round; stroke-linejoin:round;">
<text x="29570.9" y="33401.6"
textLength="384.233" font-size="209.974" lengthAdjust="spacingAndGlyphs"
text-anchor="middle" opacity="0">C5</text>
<path d="M29544 33379
L29537 33386
L29514 33394
L29499 33394
L29477 33386
L29462 33371
L29454 33356
L29447 33326
L29447 33304
L29454 33274
L29462 33259
L29477 33244
L29499 33236
L29514 33236
L29537 33244
L29544 33251
" />
<path d="M29687 33236
L29612 33236
L29604 33311
L29612 33304
L29627 33296
L29664 33296
L29679 33304
L29687 33311
L29694 33326
L29694 33364
L29687 33379
L29679 33386
L29664 33394
L29627 33394
L29612 33386
L29604 33379
" />
</g>
<g style="fill:#000000; fill-opacity:0.0; 
stroke:#000000; stroke-width:59.0551; stroke-opacity:1; 
stroke-linecap:round; stroke-linejoin:round;">
<text x="59295.3" y="34082.7"
textLength="1849.23" font-size="524.934" lengthAdjust="spacingAndGlyphs"
text-anchor="middle" opacity="0">100nF</text>
<path d="M58685 34063
L58461 34063
" />
<path d="M58573 34063
L58573 33670
L58535 33726
L58498 33763
L58461 33782
" />
<path d="M58929 33670
L58967 33670
L59004 33688
L59023 33707
L59042 33745
L59060 33820
L59060 33913
L59042 33988
L59023 34026
L59004 34045
L58967 34063
L58929 34063
L58892 34045
L58873 34026
L58854 33988
L58835 33913
L58835 33820
L58854 33745
L58873 33707
L58892 33688
L58929 33670
" />
<path d="M59304 33670
L59342 33670
L59379 33688
L59398 33707
L59417 33745
L59435 33820
L59435 33913
L59417 33988
L59398 34026
L59379 34045
L59342 34063
L59304 34063
L59267 34045
L59248 34026
L59229 33988
L59210 33913
L59210 33820
L59229 33745
L59248 33707
L59267 33688
L59304 33670
" />
<path d="M59604 33801
L59604 34063
" />
<path d="M59604 33838
L59623 33820
L59660 33801
L59717 33801
L59754 33820
L59773 33857
L59773 34063
" />
<path d="M60092 33857
L59960 33857
" />
<path d="M59960 34063
L59960 33670
L60148 33670
" />
</g>
<g style="fill:#000000; fill-opacity:0.0; 
stroke:#000000; stroke-width:23.622; stroke-opacity:1; 
stroke-linecap:round; stroke-linejoin:round;">
<text x="59295.3" y="33401.6"
textLength="384.233" font-size="209.974" lengthAdjust="spacingAndGlyphs"
text-anchor="middle" opacity="0">C8</text>
<path d="M59269 33379
L59261 33386
L59239 33394
L59224 33394
L59201 33386
L59186 33371
L59179 33356
L59171 33326
L59171 33304
L59179 33274
L59186 33259
L59201 33244
L59224 33236
L59239 33236
L59261 33244
L59269 33251
" />
<path d="M59359 33304
L59344 33296
L59336 33289
L59329 33274
L59329 33266
L59336 33251
L59344 33244
L59359 33236
L59389 33236
L59404 33244
L59411 33251
L59419 33266
L59419 33274
L59411 33289
L59404 33296
L59389 33304
L59359 33304
L59344 33311
L59336 33319
L59329 33334
L59329 33364
L59336 33379
L59344 33386
L59359 33394
L59389 33394
L59404 33386
L59411 33379
L59419 33364
L59419 33334
L59411 33319
L59404 33311
L59389 33304
" />
</g>
<g style="fill:#000000; fill-opacity:0.0; 
stroke:#000000; stroke-width:59.0551; stroke-opacity:1; 
stroke-linecap:round; stroke-linejoin:round;">
<text x="49452.8" y="34082.7"
textLength="1849.23" font-size="524.934" lengthAdjust="spacingAndGlyphs"
text-anchor="middle" opacity="0">100nF</text>
<path d="M48843 34063
L48618 34063
" />
<path d="M48730 34063
L48730 33670
L48693 33726
L48655 33763
L48618 33782
" />
<path d="M49087 33670
L49124 33670
L49162 33688
L49180 33707
L49199 33745
L49218 33820
L49218 33913
L49199 33988
L49180 34026
L49162 34045
L49124 34063
L49087 34063
L49049 34045
L49030 34026
L49012 33988
L48993 33913
L48993 33820
L49012 33745
L49030 33707
L49049 33688
L49087 33670
" />
<path d="M49462 33670
L49499 33670
L49537 33688
L49555 33707
L49574 33745
L49593 33820
L49593 33913
L49574 33988
L49555 34026
L49537 34045
L49499 34063
L49462 34063
L49424 34045
L49405 34026
L49387 33988
L49368 33913
L49368 33820
L49387 33745
L49405 33707
L49424 33688
L49462 33670
" />
<path d="M49762 33801
L49762 34063
" />
<path d="M49762 33838
L49780 33820
L49818 33801
L49874 33801
L49912 33820
L49930 33857
L49930 34063
" />
<path d="M50249 33857
L50118 33857
" />
<path d="M50118 34063
L50118 33670
L50305 33670
" />
</g>
<g style="fill:#000000; fill-opacity:0.0; 
stroke:#000000; stroke-width:23.622; stroke-opacity:1; 
stroke-linecap:round; stroke-linejoin:round;">
<text x="49452.8" y="33401.6"
textLength="384.233" font-size="209.974" lengthAdjust="spacingAndGlyphs"
text-anchor="middle" opacity="0">C7</text>
<path d="M49426 33379
L49419 33386
L49396 33394
L49381 33394
L49359 33386
L49344 33371
L49336 33356
L49329 33326
L49329 33304
L49336 33274
L49344 33259
L49359 33244
L49381 33236
L49396 33236
L49419 33244
L49426 33251
" />
<path d="M49479 33236
L49583 33236
L49516 33394
" />
</g>
<g style="fill:#000000; fill-opacity:0.0; 
stroke:#000000; stroke-width:59.0551; stroke-opacity:1; 
stroke-linecap:round; stroke-linejoin:round;">
<g transform="rotate(-90 67153.5 37401.6)">
<text x="67153.5" y="37598.4"
textLength="1849.23" font-size="524.934" lengthAdjust="spacingAndGlyphs"
text-anchor="middle" opacity="0">100nF</text>
</g>
<path d="M67331 38010
L67331 38235
" />
<path d="M67331 38123
L66937 38123
L66994 38160
L67031 38198
L67050 38235
" />
<path d="M66937 37767
L66937 37729
L66956 37692
L66975 37673
L67012 37654
L67087 37635
L67181 37635
L67256 37654
L67294 37673
L67312 37692
L67331 37729
L67331 37767
L67312 37804
L67294 37823
L67256 37842
L67181 37860
L67087 37860
L67012 37842
L66975 37823
L66956 37804
L66937 37767
" />
<path d="M66937 37392
L66937 37354
L66956 37317
L66975 37298
L67012 37279
L67087 37260
L67181 37260
L67256 37279
L67294 37298
L67312 37317
L67331 37354
L67331 37392
L67312 37429
L67294 37448
L67256 37467
L67181 37485
L67087 37485
L67012 37467
L66975 37448
L66956 37429
L66937 37392
" />
<path d="M67069 37092
L67331 37092
" />
<path d="M67106 37092
L67087 37073
L67069 37035
L67069 36979
L67087 36942
L67125 36923
L67331 36923
" />
<path d="M67125 36604
L67125 36736
" />
<path d="M67331 36736
L66937 36736
L66937 36548
" />
</g>
<g style="fill:#000000; fill-opacity:0.0; 
stroke:#000000; stroke-width:23.622; stroke-opacity:1; 
stroke-linecap:round; stroke-linejoin:round;">
<g transform="rotate(-90 67716.5 37401.6)">
<text x="67716.5" y="37480.3"
textLength="1104.14" font-size="209.974" lengthAdjust="spacingAndGlyphs"
text-anchor="middle" opacity="0">C_mux_1</text>
</g>
<path d="M67772 37787
L67780 37795
L67787 37817
L67787 37832
L67780 37855
L67765 37870
L67750 37877
L67720 37885
L67697 37885
L67667 37877
L67652 37870
L67637 37855
L67630 37832
L67630 37817
L67637 37795
L67645 37787
" />
<path d="M67802 37757
L67802 37637
" />
<path d="M67787 37600
L67682 37600
" />
<path d="M67697 37600
L67690 37592
L67682 37577
L67682 37555
L67690 37540
L67705 37532
L67787 37532
" />
<path d="M67705 37532
L67690 37525
L67682 37510
L67682 37487
L67690 37472
L67705 37465
L67787 37465
" />
<path d="M67682 37322
L67787 37322
" />
<path d="M67682 37390
L67765 37390
L67780 37382
L67787 37367
L67787 37345
L67780 37330
L67772 37322
" />
<path d="M67787 37262
L67682 37180
" />
<path d="M67682 37262
L67787 37180
" />
<path d="M67802 37157
L67802 37037
" />
<path d="M67787 36917
L67787 37007
" />
<path d="M67787 36962
L67630 36962
L67652 36977
L67667 36992
L67675 37007
" />
</g>
<g style="fill:#000000; fill-opacity:0.0; 
stroke:#000000; stroke-width:59.0551; stroke-opacity:1; 
stroke-linecap:round; stroke-linejoin:round;">
<g transform="rotate(-90 67153.5 72834.6)">
<text x="67153.5" y="73031.5"
textLength="1849.23" font-size="524.934" lengthAdjust="spacingAndGlyphs"
text-anchor="middle" opacity="0">100nF</text>
</g>
<path d="M67331 73443
L67331 73668
" />
<path d="M67331 73556
L66937 73556
L66994 73593
L67031 73631
L67050 73668
" />
<path d="M66937 73200
L66937 73162
L66956 73125
L66975 73106
L67012 73087
L67087 73068
L67181 73068
L67256 73087
L67294 73106
L67312 73125
L67331 73162
L67331 73200
L67312 73237
L67294 73256
L67256 73275
L67181 73293
L67087 73293
L67012 73275
L66975 73256
L66956 73237
L66937 73200
" />
<path d="M66937 72825
L66937 72787
L66956 72750
L66975 72731
L67012 72712
L67087 72694
L67181 72694
L67256 72712
L67294 72731
L67312 72750
L67331 72787
L67331 72825
L67312 72862
L67294 72881
L67256 72900
L67181 72919
L67087 72919
L67012 72900
L66975 72881
L66956 72862
L66937 72825
" />
<path d="M67069 72525
L67331 72525
" />
<path d="M67106 72525
L67087 72506
L67069 72469
L67069 72412
L67087 72375
L67125 72356
L67331 72356
" />
<path d="M67125 72037
L67125 72169
" />
<path d="M67331 72169
L66937 72169
L66937 71981
" />
</g>
<g style="fill:#000000; fill-opacity:0.0; 
stroke:#000000; stroke-width:23.622; stroke-opacity:1; 
stroke-linecap:round; stroke-linejoin:round;">
<g transform="rotate(-90 67716.5 72834.6)">
<text x="67716.5" y="72913.4"
textLength="1104.14" font-size="209.974" lengthAdjust="spacingAndGlyphs"
text-anchor="middle" opacity="0">C_mux_2</text>
</g>
<path d="M67772 73220
L67780 73228
L67787 73250
L67787 73265
L67780 73288
L67765 73303
L67750 73310
L67720 73318
L67697 73318
L67667 73310
L67652 73303
L67637 73288
L67630 73265
L67630 73250
L67637 73228
L67645 73220
" />
<path d="M67802 73190
L67802 73070
" />
<path d="M67787 73033
L67682 73033
" />
<path d="M67697 73033
L67690 73025
L67682 73010
L67682 72988
L67690 72973
L67705 72965
L67787 72965
" />
<path d="M67705 72965
L67690 72958
L67682 72943
L67682 72920
L67690 72905
L67705 72898
L67787 72898
" />
<path d="M67682 72755
L67787 72755
" />
<path d="M67682 72823
L67765 72823
L67780 72815
L67787 72800
L67787 72778
L67780 72763
L67772 72755
" />
<path d="M67787 72695
L67682 72613
" />
<path d="M67682 72695
L67787 72613
" />
<path d="M67802 72590
L67802 72470
" />
<path d="M67645 72440
L67637 72433
L67630 72418
L67630 72380
L67637 72365
L67645 72358
L67660 72350
L67675 72350
L67697 72358
L67787 72448
L67787 72350
" />
</g>
<g style="fill:#000000; fill-opacity:0.0; 
stroke:#000000; stroke-width:59.0551; stroke-opacity:1; 
stroke-linecap:round; stroke-linejoin:round;">
<text x="41732.3" y="12035.4"
textLength="1849.23" font-size="524.934" lengthAdjust="spacingAndGlyphs"
text-anchor="middle" opacity="0">330nF</text>
<path d="M40879 11622
L41122 11622
L40991 11772
L41047 11772
L41085 11791
L41104 11810
L41122 11847
L41122 11941
L41104 11979
L41085 11997
L41047 12016
L40935 12016
L40898 11997
L40879 11979
" />
<path d="M41254 11622
L41497 11622
L41366 11772
L41422 11772
L41460 11791
L41479 11810
L41497 11847
L41497 11941
L41479 11979
L41460 11997
L41422 12016
L41310 12016
L41272 11997
L41254 11979
" />
<path d="M41741 11622
L41779 11622
L41816 11641
L41835 11660
L41854 11697
L41872 11772
L41872 11866
L41854 11941
L41835 11979
L41816 11997
L41779 12016
L41741 12016
L41704 11997
L41685 11979
L41666 11941
L41647 11866
L41647 11772
L41666 11697
L41685 11660
L41704 11641
L41741 11622
" />
<path d="M42041 11754
L42041 12016
" />
<path d="M42041 11791
L42060 11772
L42097 11754
L42154 11754
L42191 11772
L42210 11810
L42210 12016
" />
<path d="M42529 11810
L42397 11810
" />
<path d="M42397 12016
L42397 11622
L42585 11622
" />
</g>
<g style="fill:#000000; fill-opacity:0.0; 
stroke:#000000; stroke-width:23.622; stroke-opacity:1; 
stroke-linecap:round; stroke-linejoin:round;">
<text x="41732.3" y="12480.3"
textLength="1029.15" font-size="209.974" lengthAdjust="spacingAndGlyphs"
text-anchor="middle" opacity="0">C_pwr_1</text>
<path d="M41383 12457
L41376 12465
L41353 12472
L41338 12472
L41316 12465
L41301 12450
L41293 12435
L41286 12405
L41286 12382
L41293 12352
L41301 12337
L41316 12322
L41338 12315
L41353 12315
L41376 12322
L41383 12330
" />
<path d="M41413 12487
L41533 12487
" />
<path d="M41571 12367
L41571 12525
" />
<path d="M41571 12375
L41586 12367
L41616 12367
L41631 12375
L41638 12382
L41646 12397
L41646 12442
L41638 12457
L41631 12465
L41616 12472
L41586 12472
L41571 12465
" />
<path d="M41698 12367
L41728 12472
L41758 12397
L41788 12472
L41818 12367
" />
<path d="M41878 12472
L41878 12367
" />
<path d="M41878 12397
L41886 12382
L41893 12375
L41908 12367
L41923 12367
" />
<path d="M41938 12487
L42058 12487
" />
<path d="M42178 12472
L42088 12472
" />
<path d="M42133 12472
L42133 12315
L42118 12337
L42103 12352
L42088 12360
" />
</g>
<g style="fill:#000000; fill-opacity:0.0; 
stroke:#000000; stroke-width:59.0551; stroke-opacity:1; 
stroke-linecap:round; stroke-linejoin:round;">
<text x="41535.4" y="13807.1"
textLength="1849.23" font-size="524.934" lengthAdjust="spacingAndGlyphs"
text-anchor="middle" opacity="0">100nF</text>
<path d="M40926 13788
L40701 13788
" />
<path d="M40813 13788
L40813 13394
L40776 13450
L40738 13488
L40701 13507
" />
<path d="M41169 13394
L41207 13394
L41244 13413
L41263 13432
L41282 13469
L41301 13544
L41301 13638
L41282 13713
L41263 13750
L41244 13769
L41207 13788
L41169 13788
L41132 13769
L41113 13750
L41094 13713
L41076 13638
L41076 13544
L41094 13469
L41113 13432
L41132 13413
L41169 13394
" />
<path d="M41544 13394
L41582 13394
L41619 13413
L41638 13432
L41657 13469
L41676 13544
L41676 13638
L41657 13713
L41638 13750
L41619 13769
L41582 13788
L41544 13788
L41507 13769
L41488 13750
L41469 13713
L41451 13638
L41451 13544
L41469 13469
L41488 13432
L41507 13413
L41544 13394
" />
<path d="M41844 13525
L41844 13788
" />
<path d="M41844 13563
L41863 13544
L41901 13525
L41957 13525
L41994 13544
L42013 13582
L42013 13788
" />
<path d="M42332 13582
L42200 13582
" />
<path d="M42200 13788
L42200 13394
L42388 13394
" />
</g>
<g style="fill:#000000; fill-opacity:0.0; 
stroke:#000000; stroke-width:23.622; stroke-opacity:1; 
stroke-linecap:round; stroke-linejoin:round;">
<text x="41535.4" y="14252"
textLength="1029.15" font-size="209.974" lengthAdjust="spacingAndGlyphs"
text-anchor="middle" opacity="0">C_pwr_2</text>
<path d="M41186 14229
L41179 14236
L41156 14244
L41141 14244
L41119 14236
L41104 14221
L41096 14206
L41089 14176
L41089 14154
L41096 14124
L41104 14109
L41119 14094
L41141 14086
L41156 14086
L41179 14094
L41186 14101
" />
<path d="M41216 14259
L41336 14259
" />
<path d="M41374 14139
L41374 14296
" />
<path d="M41374 14146
L41389 14139
L41419 14139
L41434 14146
L41441 14154
L41449 14169
L41449 14214
L41441 14229
L41434 14236
L41419 14244
L41389 14244
L41374 14236
" />
<path d="M41501 14139
L41531 14244
L41561 14169
L41591 14244
L41621 14139
" />
<path d="M41681 14244
L41681 14139
" />
<path d="M41681 14169
L41689 14154
L41696 14146
L41711 14139
L41726 14139
" />
<path d="M41741 14259
L41861 14259
" />
<path d="M41891 14101
L41899 14094
L41914 14086
L41951 14086
L41966 14094
L41974 14101
L41981 14116
L41981 14131
L41974 14154
L41884 14244
L41981 14244
" />
</g>
<g style="fill:#000000; fill-opacity:0.0; 
stroke:#000000; stroke-width:59.0551; stroke-opacity:1; 
stroke-linecap:round; stroke-linejoin:round;">
<text x="29527.6" y="24578.7"
textLength="1849.23" font-size="524.934" lengthAdjust="spacingAndGlyphs"
text-anchor="middle" opacity="0">100nF</text>
<path d="M28918 24559
L28693 24559
" />
<path d="M28805 24559
L28805 24166
L28768 24222
L28730 24260
L28693 24278
" />
<path d="M29161 24166
L29199 24166
L29236 24185
L29255 24203
L29274 24241
L29293 24316
L29293 24410
L29274 24485
L29255 24522
L29236 24541
L29199 24559
L29161 24559
L29124 24541
L29105 24522
L29086 24485
L29068 24410
L29068 24316
L29086 24241
L29105 24203
L29124 24185
L29161 24166
" />
<path d="M29536 24166
L29574 24166
L29611 24185
L29630 24203
L29649 24241
L29668 24316
L29668 24410
L29649 24485
L29630 24522
L29611 24541
L29574 24559
L29536 24559
L29499 24541
L29480 24522
L29461 24485
L29443 24410
L29443 24316
L29461 24241
L29480 24203
L29499 24185
L29536 24166
" />
<path d="M29836 24297
L29836 24559
" />
<path d="M29836 24335
L29855 24316
L29893 24297
L29949 24297
L29986 24316
L30005 24353
L30005 24559
" />
<path d="M30324 24353
L30193 24353
" />
<path d="M30193 24559
L30193 24166
L30380 24166
" />
</g>
<g style="fill:#000000; fill-opacity:0.0; 
stroke:#000000; stroke-width:23.622; stroke-opacity:1; 
stroke-linecap:round; stroke-linejoin:round;">
<text x="29527.6" y="23897.6"
textLength="384.233" font-size="209.974" lengthAdjust="spacingAndGlyphs"
text-anchor="middle" opacity="0">C1</text>
<path d="M29501 23875
L29493 23882
L29471 23890
L29456 23890
L29433 23882
L29418 23867
L29411 23852
L29403 23822
L29403 23800
L29411 23770
L29418 23755
L29433 23740
L29456 23732
L29471 23732
L29493 23740
L29501 23747
" />
<path d="M29651 23890
L29561 23890
" />
<path d="M29606 23890
L29606 23732
L29591 23755
L29576 23770
L29561 23777
" />
</g>
<g style="fill:#000000; fill-opacity:0.0; 
stroke:#000000; stroke-width:59.0551; stroke-opacity:1; 
stroke-linecap:round; stroke-linejoin:round;">
<text x="49322.8" y="53988.2"
textLength="1849.23" font-size="524.934" lengthAdjust="spacingAndGlyphs"
text-anchor="middle" opacity="0">100nF</text>
<path d="M48713 53969
L48488 53969
" />
<path d="M48601 53969
L48601 53575
L48563 53631
L48526 53669
L48488 53688
" />
<path d="M48957 53575
L48994 53575
L49032 53594
L49050 53613
L49069 53650
L49088 53725
L49088 53819
L49069 53894
L49050 53931
L49032 53950
L48994 53969
L48957 53969
L48919 53950
L48901 53931
L48882 53894
L48863 53819
L48863 53725
L48882 53650
L48901 53613
L48919 53594
L48957 53575
" />
<path d="M49332 53575
L49369 53575
L49407 53594
L49425 53613
L49444 53650
L49463 53725
L49463 53819
L49444 53894
L49425 53931
L49407 53950
L49369 53969
L49332 53969
L49294 53950
L49275 53931
L49257 53894
L49238 53819
L49238 53725
L49257 53650
L49275 53613
L49294 53594
L49332 53575
" />
<path d="M49632 53706
L49632 53969
" />
<path d="M49632 53744
L49650 53725
L49688 53706
L49744 53706
L49782 53725
L49800 53763
L49800 53969
" />
<path d="M50119 53763
L49988 53763
" />
<path d="M49988 53969
L49988 53575
L50175 53575
" />
</g>
<g style="fill:#000000; fill-opacity:0.0; 
stroke:#000000; stroke-width:23.622; stroke-opacity:1; 
stroke-linecap:round; stroke-linejoin:round;">
<text x="49322.8" y="53307.1"
textLength="534.215" font-size="209.974" lengthAdjust="spacingAndGlyphs"
text-anchor="middle" opacity="0">C13</text>
<path d="M49221 53284
L49214 53292
L49191 53299
L49176 53299
L49154 53292
L49139 53277
L49131 53262
L49124 53232
L49124 53209
L49131 53179
L49139 53164
L49154 53149
L49176 53142
L49191 53142
L49214 53149
L49221 53157
" />
<path d="M49371 53299
L49281 53299
" />
<path d="M49326 53299
L49326 53142
L49311 53164
L49296 53179
L49281 53187
" />
<path d="M49424 53142
L49521 53142
L49469 53202
L49491 53202
L49506 53209
L49514 53217
L49521 53232
L49521 53269
L49514 53284
L49506 53292
L49491 53299
L49446 53299
L49431 53292
L49424 53284
" />
</g>
<g style="fill:#000000; fill-opacity:0.0; 
stroke:#000000; stroke-width:59.0551; stroke-opacity:1; 
stroke-linecap:round; stroke-linejoin:round;">
<text x="39370.1" y="24578.7"
textLength="1849.23" font-size="524.934" lengthAdjust="spacingAndGlyphs"
text-anchor="middle" opacity="0">100nF</text>
<path d="M38760 24559
L38535 24559
" />
<path d="M38648 24559
L38648 24166
L38610 24222
L38573 24260
L38535 24278
" />
<path d="M39004 24166
L39041 24166
L39079 24185
L39098 24203
L39116 24241
L39135 24316
L39135 24410
L39116 24485
L39098 24522
L39079 24541
L39041 24559
L39004 24559
L38967 24541
L38948 24522
L38929 24485
L38910 24410
L38910 24316
L38929 24241
L38948 24203
L38967 24185
L39004 24166
" />
<path d="M39379 24166
L39416 24166
L39454 24185
L39473 24203
L39491 24241
L39510 24316
L39510 24410
L39491 24485
L39473 24522
L39454 24541
L39416 24559
L39379 24559
L39341 24541
L39323 24522
L39304 24485
L39285 24410
L39285 24316
L39304 24241
L39323 24203
L39341 24185
L39379 24166
" />
<path d="M39679 24297
L39679 24559
" />
<path d="M39679 24335
L39698 24316
L39735 24297
L39791 24297
L39829 24316
L39848 24353
L39848 24559
" />
<path d="M40166 24353
L40035 24353
" />
<path d="M40035 24559
L40035 24166
L40223 24166
" />
</g>
<g style="fill:#000000; fill-opacity:0.0; 
stroke:#000000; stroke-width:23.622; stroke-opacity:1; 
stroke-linecap:round; stroke-linejoin:round;">
<text x="39370.1" y="23897.6"
textLength="384.233" font-size="209.974" lengthAdjust="spacingAndGlyphs"
text-anchor="middle" opacity="0">C2</text>
<path d="M39343 23875
L39336 23882
L39313 23890
L39298 23890
L39276 23882
L39261 23867
L39253 23852
L39246 23822
L39246 23800
L39253 23770
L39261 23755
L39276 23740
L39298 23732
L39313 23732
L39336 23740
L39343 23747
" />
<path d="M39403 23747
L39411 23740
L39426 23732
L39463 23732
L39478 23740
L39486 23747
L39493 23762
L39493 23777
L39486 23800
L39396 23890
L39493 23890
" />
</g>
<g style="fill:#000000; fill-opacity:0.0; 
stroke:#000000; stroke-width:59.0551; stroke-opacity:1; 
stroke-linecap:round; stroke-linejoin:round;">
<text x="59362.2" y="53791.3"
textLength="1849.23" font-size="524.934" lengthAdjust="spacingAndGlyphs"
text-anchor="middle" opacity="0">100nF</text>
<path d="M58752 53772
L58527 53772
" />
<path d="M58640 53772
L58640 53378
L58602 53435
L58565 53472
L58527 53491
" />
<path d="M58996 53378
L59034 53378
L59071 53397
L59090 53416
L59109 53453
L59127 53528
L59127 53622
L59109 53697
L59090 53735
L59071 53753
L59034 53772
L58996 53772
L58959 53753
L58940 53735
L58921 53697
L58902 53622
L58902 53528
L58921 53453
L58940 53416
L58959 53397
L58996 53378
" />
<path d="M59371 53378
L59409 53378
L59446 53397
L59465 53416
L59484 53453
L59502 53528
L59502 53622
L59484 53697
L59465 53735
L59446 53753
L59409 53772
L59371 53772
L59334 53753
L59315 53735
L59296 53697
L59277 53622
L59277 53528
L59296 53453
L59315 53416
L59334 53397
L59371 53378
" />
<path d="M59671 53510
L59671 53772
" />
<path d="M59671 53547
L59690 53528
L59727 53510
L59784 53510
L59821 53528
L59840 53566
L59840 53772
" />
<path d="M60158 53566
L60027 53566
" />
<path d="M60027 53772
L60027 53378
L60215 53378
" />
</g>
<g style="fill:#000000; fill-opacity:0.0; 
stroke:#000000; stroke-width:23.622; stroke-opacity:1; 
stroke-linecap:round; stroke-linejoin:round;">
<text x="59362.2" y="53110.2"
textLength="534.215" font-size="209.974" lengthAdjust="spacingAndGlyphs"
text-anchor="middle" opacity="0">C14</text>
<path d="M59260 53087
L59253 53095
L59230 53102
L59215 53102
L59193 53095
L59178 53080
L59170 53065
L59163 53035
L59163 53012
L59170 52982
L59178 52967
L59193 52952
L59215 52945
L59230 52945
L59253 52952
L59260 52960
" />
<path d="M59410 53102
L59320 53102
" />
<path d="M59365 53102
L59365 52945
L59350 52967
L59335 52982
L59320 52990
" />
<path d="M59545 52997
L59545 53102
" />
<path d="M59508 52937
L59470 53050
L59568 53050
" />
</g>
<g style="fill:#000000; fill-opacity:0.0; 
stroke:#000000; stroke-width:59.0551; stroke-opacity:1; 
stroke-linecap:round; stroke-linejoin:round;">
<text x="49301.2" y="24578.7"
textLength="1849.23" font-size="524.934" lengthAdjust="spacingAndGlyphs"
text-anchor="middle" opacity="0">100nF</text>
<path d="M48691 24559
L48466 24559
" />
<path d="M48579 24559
L48579 24166
L48541 24222
L48504 24260
L48466 24278
" />
<path d="M48935 24166
L48973 24166
L49010 24185
L49029 24203
L49048 24241
L49066 24316
L49066 24410
L49048 24485
L49029 24522
L49010 24541
L48973 24559
L48935 24559
L48898 24541
L48879 24522
L48860 24485
L48841 24410
L48841 24316
L48860 24241
L48879 24203
L48898 24185
L48935 24166
" />
<path d="M49310 24166
L49348 24166
L49385 24185
L49404 24203
L49423 24241
L49441 24316
L49441 24410
L49423 24485
L49404 24522
L49385 24541
L49348 24559
L49310 24559
L49273 24541
L49254 24522
L49235 24485
L49216 24410
L49216 24316
L49235 24241
L49254 24203
L49273 24185
L49310 24166
" />
<path d="M49610 24297
L49610 24559
" />
<path d="M49610 24335
L49629 24316
L49666 24297
L49723 24297
L49760 24316
L49779 24353
L49779 24559
" />
<path d="M50097 24353
L49966 24353
" />
<path d="M49966 24559
L49966 24166
L50154 24166
" />
</g>
<g style="fill:#000000; fill-opacity:0.0; 
stroke:#000000; stroke-width:23.622; stroke-opacity:1; 
stroke-linecap:round; stroke-linejoin:round;">
<text x="49301.2" y="23897.6"
textLength="384.233" font-size="209.974" lengthAdjust="spacingAndGlyphs"
text-anchor="middle" opacity="0">C3</text>
<path d="M49274 23875
L49267 23882
L49244 23890
L49229 23890
L49207 23882
L49192 23867
L49184 23852
L49177 23822
L49177 23800
L49184 23770
L49192 23755
L49207 23740
L49229 23732
L49244 23732
L49267 23740
L49274 23747
" />
<path d="M49327 23732
L49424 23732
L49372 23792
L49394 23792
L49409 23800
L49417 23807
L49424 23822
L49424 23860
L49417 23875
L49409 23882
L49394 23890
L49349 23890
L49334 23882
L49327 23875
" />
</g>
<g style="fill:#000000; fill-opacity:0.0; 
stroke:#000000; stroke-width:59.0551; stroke-opacity:1; 
stroke-linecap:round; stroke-linejoin:round;">
<text x="29476.4" y="63689"
textLength="1849.23" font-size="524.934" lengthAdjust="spacingAndGlyphs"
text-anchor="middle" opacity="0">100nF</text>
<path d="M28867 63670
L28642 63670
" />
<path d="M28754 63670
L28754 63276
L28717 63332
L28679 63370
L28642 63389
" />
<path d="M29110 63276
L29148 63276
L29185 63295
L29204 63314
L29223 63351
L29242 63426
L29242 63520
L29223 63595
L29204 63632
L29185 63651
L29148 63670
L29110 63670
L29073 63651
L29054 63632
L29035 63595
L29017 63520
L29017 63426
L29035 63351
L29054 63314
L29073 63295
L29110 63276
" />
<path d="M29485 63276
L29523 63276
L29560 63295
L29579 63314
L29598 63351
L29616 63426
L29616 63520
L29598 63595
L29579 63632
L29560 63651
L29523 63670
L29485 63670
L29448 63651
L29429 63632
L29410 63595
L29392 63520
L29392 63426
L29410 63351
L29429 63314
L29448 63295
L29485 63276
" />
<path d="M29785 63407
L29785 63670
" />
<path d="M29785 63445
L29804 63426
L29841 63407
L29898 63407
L29935 63426
L29954 63464
L29954 63670
" />
<path d="M30273 63464
L30141 63464
" />
<path d="M30141 63670
L30141 63276
L30329 63276
" />
</g>
<g style="fill:#000000; fill-opacity:0.0; 
stroke:#000000; stroke-width:23.622; stroke-opacity:1; 
stroke-linecap:round; stroke-linejoin:round;">
<text x="29476.4" y="63007.9"
textLength="534.215" font-size="209.974" lengthAdjust="spacingAndGlyphs"
text-anchor="middle" opacity="0">C15</text>
<path d="M29375 62985
L29367 62992
L29345 63000
L29330 63000
L29307 62992
L29292 62977
L29285 62962
L29277 62932
L29277 62910
L29285 62880
L29292 62865
L29307 62850
L29330 62842
L29345 62842
L29367 62850
L29375 62857
" />
<path d="M29525 63000
L29435 63000
" />
<path d="M29480 63000
L29480 62842
L29465 62865
L29450 62880
L29435 62887
" />
<path d="M29667 62842
L29592 62842
L29585 62917
L29592 62910
L29607 62902
L29645 62902
L29660 62910
L29667 62917
L29675 62932
L29675 62970
L29667 62985
L29660 62992
L29645 63000
L29607 63000
L29592 62992
L29585 62985
" />
</g>
<g style="fill:#000000; fill-opacity:0.0; 
stroke:#000000; stroke-width:59.0551; stroke-opacity:1; 
stroke-linecap:round; stroke-linejoin:round;">
<text x="59252" y="23452.8"
textLength="1849.23" font-size="524.934" lengthAdjust="spacingAndGlyphs"
text-anchor="middle" opacity="0">100nF</text>
<path d="M58642 23434
L58417 23434
" />
<path d="M58530 23434
L58530 23040
L58492 23096
L58455 23134
L58417 23152
" />
<path d="M58886 23040
L58923 23040
L58961 23059
L58980 23077
L58998 23115
L59017 23190
L59017 23284
L58998 23359
L58980 23396
L58961 23415
L58923 23434
L58886 23434
L58848 23415
L58830 23396
L58811 23359
L58792 23284
L58792 23190
L58811 23115
L58830 23077
L58848 23059
L58886 23040
" />
<path d="M59261 23040
L59298 23040
L59336 23059
L59355 23077
L59373 23115
L59392 23190
L59392 23284
L59373 23359
L59355 23396
L59336 23415
L59298 23434
L59261 23434
L59223 23415
L59205 23396
L59186 23359
L59167 23284
L59167 23190
L59186 23115
L59205 23077
L59223 23059
L59261 23040
" />
<path d="M59561 23171
L59561 23434
" />
<path d="M59561 23209
L59580 23190
L59617 23171
L59673 23171
L59711 23190
L59730 23227
L59730 23434
" />
<path d="M60048 23227
L59917 23227
" />
<path d="M59917 23434
L59917 23040
L60104 23040
" />
</g>
<g style="fill:#000000; fill-opacity:0.0; 
stroke:#000000; stroke-width:23.622; stroke-opacity:1; 
stroke-linecap:round; stroke-linejoin:round;">
<text x="59252" y="23897.6"
textLength="384.233" font-size="209.974" lengthAdjust="spacingAndGlyphs"
text-anchor="middle" opacity="0">C4</text>
<path d="M59225 23875
L59218 23882
L59195 23890
L59180 23890
L59158 23882
L59143 23867
L59135 23852
L59128 23822
L59128 23800
L59135 23770
L59143 23755
L59158 23740
L59180 23732
L59195 23732
L59218 23740
L59225 23747
" />
<path d="M59360 23785
L59360 23890
" />
<path d="M59323 23725
L59285 23837
L59383 23837
" />
</g>
<g style="fill:#000000; fill-opacity:0.0; 
stroke:#000000; stroke-width:59.0551; stroke-opacity:1; 
stroke-linecap:round; stroke-linejoin:round;">
<text x="39318.9" y="63689"
textLength="1849.23" font-size="524.934" lengthAdjust="spacingAndGlyphs"
text-anchor="middle" opacity="0">100nF</text>
<path d="M38709 63670
L38484 63670
" />
<path d="M38597 63670
L38597 63276
L38559 63332
L38522 63370
L38484 63389
" />
<path d="M38953 63276
L38990 63276
L39028 63295
L39047 63314
L39065 63351
L39084 63426
L39084 63520
L39065 63595
L39047 63632
L39028 63651
L38990 63670
L38953 63670
L38915 63651
L38897 63632
L38878 63595
L38859 63520
L38859 63426
L38878 63351
L38897 63314
L38915 63295
L38953 63276
" />
<path d="M39328 63276
L39365 63276
L39403 63295
L39422 63314
L39440 63351
L39459 63426
L39459 63520
L39440 63595
L39422 63632
L39403 63651
L39365 63670
L39328 63670
L39290 63651
L39272 63632
L39253 63595
L39234 63520
L39234 63426
L39253 63351
L39272 63314
L39290 63295
L39328 63276
" />
<path d="M39628 63407
L39628 63670
" />
<path d="M39628 63445
L39646 63426
L39684 63407
L39740 63407
L39778 63426
L39796 63464
L39796 63670
" />
<path d="M40115 63464
L39984 63464
" />
<path d="M39984 63670
L39984 63276
L40171 63276
" />
</g>
<g style="fill:#000000; fill-opacity:0.0; 
stroke:#000000; stroke-width:23.622; stroke-opacity:1; 
stroke-linecap:round; stroke-linejoin:round;">
<text x="39318.9" y="63007.9"
textLength="534.215" font-size="209.974" lengthAdjust="spacingAndGlyphs"
text-anchor="middle" opacity="0">C16</text>
<path d="M39217 62985
L39210 62992
L39187 63000
L39172 63000
L39150 62992
L39135 62977
L39127 62962
L39120 62932
L39120 62910
L39127 62880
L39135 62865
L39150 62850
L39172 62842
L39187 62842
L39210 62850
L39217 62857
" />
<path d="M39367 63000
L39277 63000
" />
<path d="M39322 63000
L39322 62842
L39307 62865
L39292 62880
L39277 62887
" />
<path d="M39502 62842
L39472 62842
L39457 62850
L39450 62857
L39435 62880
L39427 62910
L39427 62970
L39435 62985
L39442 62992
L39457 63000
L39487 63000
L39502 62992
L39510 62985
L39517 62970
L39517 62932
L39510 62917
L39502 62910
L39487 62902
L39457 62902
L39442 62910
L39435 62917
L39427 62932
" />
</g>
<g style="fill:#000000; fill-opacity:0.0; 
stroke:#000000; stroke-width:59.0551; stroke-opacity:1; 
stroke-linecap:round; stroke-linejoin:round;">
<text x="49358.3" y="63689"
textLength="1849.23" font-size="524.934" lengthAdjust="spacingAndGlyphs"
text-anchor="middle" opacity="0">100nF</text>
<path d="M48748 63670
L48523 63670
" />
<path d="M48636 63670
L48636 63276
L48598 63332
L48561 63370
L48523 63389
" />
<path d="M48992 63276
L49030 63276
L49067 63295
L49086 63314
L49105 63351
L49123 63426
L49123 63520
L49105 63595
L49086 63632
L49067 63651
L49030 63670
L48992 63670
L48955 63651
L48936 63632
L48917 63595
L48898 63520
L48898 63426
L48917 63351
L48936 63314
L48955 63295
L48992 63276
" />
<path d="M49367 63276
L49405 63276
L49442 63295
L49461 63314
L49480 63351
L49498 63426
L49498 63520
L49480 63595
L49461 63632
L49442 63651
L49405 63670
L49367 63670
L49330 63651
L49311 63632
L49292 63595
L49273 63520
L49273 63426
L49292 63351
L49311 63314
L49330 63295
L49367 63276
" />
<path d="M49667 63407
L49667 63670
" />
<path d="M49667 63445
L49686 63426
L49723 63407
L49780 63407
L49817 63426
L49836 63464
L49836 63670
" />
<path d="M50155 63464
L50023 63464
" />
<path d="M50023 63670
L50023 63276
L50211 63276
" />
</g>
<g style="fill:#000000; fill-opacity:0.0; 
stroke:#000000; stroke-width:23.622; stroke-opacity:1; 
stroke-linecap:round; stroke-linejoin:round;">
<text x="49358.3" y="63007.9"
textLength="534.215" font-size="209.974" lengthAdjust="spacingAndGlyphs"
text-anchor="middle" opacity="0">C17</text>
<path d="M49257 62985
L49249 62992
L49227 63000
L49212 63000
L49189 62992
L49174 62977
L49167 62962
L49159 62932
L49159 62910
L49167 62880
L49174 62865
L49189 62850
L49212 62842
L49227 62842
L49249 62850
L49257 62857
" />
<path d="M49407 63000
L49317 63000
" />
<path d="M49362 63000
L49362 62842
L49347 62865
L49332 62880
L49317 62887
" />
<path d="M49459 62842
L49564 62842
L49497 63000
" />
</g>
<g style="fill:#000000; fill-opacity:0.0; 
stroke:#000000; stroke-width:59.0551; stroke-opacity:1; 
stroke-linecap:round; stroke-linejoin:round;">
<text x="59200.8" y="63689"
textLength="1849.23" font-size="524.934" lengthAdjust="spacingAndGlyphs"
text-anchor="middle" opacity="0">100nF</text>
<path d="M58591 63670
L58366 63670
" />
<path d="M58479 63670
L58479 63276
L58441 63332
L58404 63370
L58366 63389
" />
<path d="M58835 63276
L58872 63276
L58910 63295
L58928 63314
L58947 63351
L58966 63426
L58966 63520
L58947 63595
L58928 63632
L58910 63651
L58872 63670
L58835 63670
L58797 63651
L58778 63632
L58760 63595
L58741 63520
L58741 63426
L58760 63351
L58778 63314
L58797 63295
L58835 63276
" />
<path d="M59210 63276
L59247 63276
L59285 63295
L59303 63314
L59322 63351
L59341 63426
L59341 63520
L59322 63595
L59303 63632
L59285 63651
L59247 63670
L59210 63670
L59172 63651
L59153 63632
L59135 63595
L59116 63520
L59116 63426
L59135 63351
L59153 63314
L59172 63295
L59210 63276
" />
<path d="M59510 63407
L59510 63670
" />
<path d="M59510 63445
L59528 63426
L59566 63407
L59622 63407
L59660 63426
L59678 63464
L59678 63670
" />
<path d="M59997 63464
L59866 63464
" />
<path d="M59866 63670
L59866 63276
L60053 63276
" />
</g>
<g style="fill:#000000; fill-opacity:0.0; 
stroke:#000000; stroke-width:23.622; stroke-opacity:1; 
stroke-linecap:round; stroke-linejoin:round;">
<text x="59200.8" y="63007.9"
textLength="534.215" font-size="209.974" lengthAdjust="spacingAndGlyphs"
text-anchor="middle" opacity="0">C18</text>
<path d="M59099 62985
L59092 62992
L59069 63000
L59054 63000
L59032 62992
L59017 62977
L59009 62962
L59002 62932
L59002 62910
L59009 62880
L59017 62865
L59032 62850
L59054 62842
L59069 62842
L59092 62850
L59099 62857
" />
<path d="M59249 63000
L59159 63000
" />
<path d="M59204 63000
L59204 62842
L59189 62865
L59174 62880
L59159 62887
" />
<path d="M59339 62910
L59324 62902
L59317 62895
L59309 62880
L59309 62872
L59317 62857
L59324 62850
L59339 62842
L59369 62842
L59384 62850
L59392 62857
L59399 62872
L59399 62880
L59392 62895
L59384 62902
L59369 62910
L59339 62910
L59324 62917
L59317 62925
L59309 62940
L59309 62970
L59317 62985
L59324 62992
L59339 63000
L59369 63000
L59384 62992
L59392 62985
L59399 62970
L59399 62940
L59392 62925
L59384 62917
L59369 62910
" />
</g>
<g style="fill:#000000; fill-opacity:0.0; 
stroke:#000000; stroke-width:59.0551; stroke-opacity:1; 
stroke-linecap:round; stroke-linejoin:round;">
<text x="29527.6" y="73421.3"
textLength="1849.23" font-size="524.934" lengthAdjust="spacingAndGlyphs"
text-anchor="middle" opacity="0">100nF</text>
<path d="M28918 73402
L28693 73402
" />
<path d="M28805 73402
L28805 73008
L28768 73065
L28730 73102
L28693 73121
" />
<path d="M29161 73008
L29199 73008
L29236 73027
L29255 73046
L29274 73083
L29293 73158
L29293 73252
L29274 73327
L29255 73365
L29236 73383
L29199 73402
L29161 73402
L29124 73383
L29105 73365
L29086 73327
L29068 73252
L29068 73158
L29086 73083
L29105 73046
L29124 73027
L29161 73008
" />
<path d="M29536 73008
L29574 73008
L29611 73027
L29630 73046
L29649 73083
L29668 73158
L29668 73252
L29649 73327
L29630 73365
L29611 73383
L29574 73402
L29536 73402
L29499 73383
L29480 73365
L29461 73327
L29443 73252
L29443 73158
L29461 73083
L29480 73046
L29499 73027
L29536 73008
" />
<path d="M29836 73140
L29836 73402
" />
<path d="M29836 73177
L29855 73158
L29893 73140
L29949 73140
L29986 73158
L30005 73196
L30005 73402
" />
<path d="M30324 73196
L30193 73196
" />
<path d="M30193 73402
L30193 73008
L30380 73008
" />
</g>
<g style="fill:#000000; fill-opacity:0.0; 
stroke:#000000; stroke-width:23.622; stroke-opacity:1; 
stroke-linecap:round; stroke-linejoin:round;">
<text x="29527.6" y="72740.2"
textLength="534.215" font-size="209.974" lengthAdjust="spacingAndGlyphs"
text-anchor="middle" opacity="0">C19</text>
<path d="M29426 72717
L29418 72725
L29396 72732
L29381 72732
L29358 72725
L29343 72710
L29336 72695
L29328 72665
L29328 72642
L29336 72612
L29343 72597
L29358 72582
L29381 72575
L29396 72575
L29418 72582
L29426 72590
" />
<path d="M29576 72732
L29486 72732
" />
<path d="M29531 72732
L29531 72575
L29516 72597
L29501 72612
L29486 72620
" />
<path d="M29651 72732
L29681 72732
L29696 72725
L29703 72717
L29718 72695
L29726 72665
L29726 72605
L29718 72590
L29711 72582
L29696 72575
L29666 72575
L29651 72582
L29643 72590
L29636 72605
L29636 72642
L29643 72657
L29651 72665
L29666 72672
L29696 72672
L29711 72665
L29718 72657
L29726 72642
" />
</g>
<g style="fill:#000000; fill-opacity:0.0; 
stroke:#000000; stroke-width:59.0551; stroke-opacity:1; 
stroke-linecap:round; stroke-linejoin:round;">
<text x="39370.1" y="73618.1"
textLength="1849.23" font-size="524.934" lengthAdjust="spacingAndGlyphs"
text-anchor="middle" opacity="0">100nF</text>
<path d="M38760 73599
L38535 73599
" />
<path d="M38648 73599
L38648 73205
L38610 73261
L38573 73299
L38535 73318
" />
<path d="M39004 73205
L39041 73205
L39079 73224
L39098 73243
L39116 73280
L39135 73355
L39135 73449
L39116 73524
L39098 73561
L39079 73580
L39041 73599
L39004 73599
L38967 73580
L38948 73561
L38929 73524
L38910 73449
L38910 73355
L38929 73280
L38948 73243
L38967 73224
L39004 73205
" />
<path d="M39379 73205
L39416 73205
L39454 73224
L39473 73243
L39491 73280
L39510 73355
L39510 73449
L39491 73524
L39473 73561
L39454 73580
L39416 73599
L39379 73599
L39341 73580
L39323 73561
L39304 73524
L39285 73449
L39285 73355
L39304 73280
L39323 73243
L39341 73224
L39379 73205
" />
<path d="M39679 73336
L39679 73599
" />
<path d="M39679 73374
L39698 73355
L39735 73336
L39791 73336
L39829 73355
L39848 73393
L39848 73599
" />
<path d="M40166 73393
L40035 73393
" />
<path d="M40035 73599
L40035 73205
L40223 73205
" />
</g>
<g style="fill:#000000; fill-opacity:0.0; 
stroke:#000000; stroke-width:23.622; stroke-opacity:1; 
stroke-linecap:round; stroke-linejoin:round;">
<text x="39370.1" y="72937"
textLength="534.215" font-size="209.974" lengthAdjust="spacingAndGlyphs"
text-anchor="middle" opacity="0">C20</text>
<path d="M39268 72914
L39261 72922
L39238 72929
L39223 72929
L39201 72922
L39186 72907
L39178 72892
L39171 72862
L39171 72839
L39178 72809
L39186 72794
L39201 72779
L39223 72772
L39238 72772
L39261 72779
L39268 72787
" />
<path d="M39328 72787
L39336 72779
L39351 72772
L39388 72772
L39403 72779
L39411 72787
L39418 72802
L39418 72817
L39411 72839
L39321 72929
L39418 72929
" />
<path d="M39516 72772
L39531 72772
L39546 72779
L39553 72787
L39561 72802
L39568 72832
L39568 72869
L39561 72899
L39553 72914
L39546 72922
L39531 72929
L39516 72929
L39501 72922
L39493 72914
L39486 72899
L39478 72869
L39478 72832
L39486 72802
L39493 72787
L39501 72779
L39516 72772
" />
</g>
<g style="fill:#000000; fill-opacity:0.0; 
stroke:#000000; stroke-width:59.0551; stroke-opacity:1; 
stroke-linecap:round; stroke-linejoin:round;">
<text x="59118.1" y="73413.4"
textLength="1849.23" font-size="524.934" lengthAdjust="spacingAndGlyphs"
text-anchor="middle" opacity="0">100nF</text>
<path d="M58508 73394
L58283 73394
" />
<path d="M58396 73394
L58396 73000
L58358 73057
L58321 73094
L58283 73113
" />
<path d="M58752 73000
L58790 73000
L58827 73019
L58846 73038
L58865 73075
L58883 73150
L58883 73244
L58865 73319
L58846 73357
L58827 73375
L58790 73394
L58752 73394
L58715 73375
L58696 73357
L58677 73319
L58658 73244
L58658 73150
L58677 73075
L58696 73038
L58715 73019
L58752 73000
" />
<path d="M59127 73000
L59164 73000
L59202 73019
L59221 73038
L59239 73075
L59258 73150
L59258 73244
L59239 73319
L59221 73357
L59202 73375
L59164 73394
L59127 73394
L59089 73375
L59071 73357
L59052 73319
L59033 73244
L59033 73150
L59052 73075
L59071 73038
L59089 73019
L59127 73000
" />
<path d="M59427 73132
L59427 73394
" />
<path d="M59427 73169
L59446 73150
L59483 73132
L59539 73132
L59577 73150
L59596 73188
L59596 73394
" />
<path d="M59914 73188
L59783 73188
" />
<path d="M59783 73394
L59783 73000
L59971 73000
" />
</g>
<g style="fill:#000000; fill-opacity:0.0; 
stroke:#000000; stroke-width:23.622; stroke-opacity:1; 
stroke-linecap:round; stroke-linejoin:round;">
<text x="59118.1" y="72732.3"
textLength="384.233" font-size="209.974" lengthAdjust="spacingAndGlyphs"
text-anchor="middle" opacity="0">C9</text>
<path d="M59091 72709
L59084 72717
L59061 72724
L59046 72724
L59024 72717
L59009 72702
L59001 72687
L58994 72657
L58994 72634
L59001 72604
L59009 72589
L59024 72574
L59046 72567
L59061 72567
L59084 72574
L59091 72582
" />
<path d="M59166 72724
L59196 72724
L59211 72717
L59219 72709
L59234 72687
L59241 72657
L59241 72597
L59234 72582
L59226 72574
L59211 72567
L59181 72567
L59166 72574
L59159 72582
L59151 72597
L59151 72634
L59159 72649
L59166 72657
L59181 72664
L59211 72664
L59226 72657
L59234 72649
L59241 72634
" />
</g>
<g style="fill:#000000; fill-opacity:0.0; 
stroke:#000000; stroke-width:59.0551; stroke-opacity:1; 
stroke-linecap:round; stroke-linejoin:round;">
<text x="49212.6" y="73421.3"
textLength="1849.23" font-size="524.934" lengthAdjust="spacingAndGlyphs"
text-anchor="middle" opacity="0">100nF</text>
<path d="M48603 73402
L48378 73402
" />
<path d="M48490 73402
L48490 73008
L48453 73065
L48415 73102
L48378 73121
" />
<path d="M48847 73008
L48884 73008
L48922 73027
L48940 73046
L48959 73083
L48978 73158
L48978 73252
L48959 73327
L48940 73365
L48922 73383
L48884 73402
L48847 73402
L48809 73383
L48790 73365
L48772 73327
L48753 73252
L48753 73158
L48772 73083
L48790 73046
L48809 73027
L48847 73008
" />
<path d="M49221 73008
L49259 73008
L49296 73027
L49315 73046
L49334 73083
L49353 73158
L49353 73252
L49334 73327
L49315 73365
L49296 73383
L49259 73402
L49221 73402
L49184 73383
L49165 73365
L49146 73327
L49128 73252
L49128 73158
L49146 73083
L49165 73046
L49184 73027
L49221 73008
" />
<path d="M49521 73140
L49521 73402
" />
<path d="M49521 73177
L49540 73158
L49578 73140
L49634 73140
L49671 73158
L49690 73196
L49690 73402
" />
<path d="M50009 73196
L49878 73196
" />
<path d="M49878 73402
L49878 73008
L50065 73008
" />
</g>
<g style="fill:#000000; fill-opacity:0.0; 
stroke:#000000; stroke-width:23.622; stroke-opacity:1; 
stroke-linecap:round; stroke-linejoin:round;">
<text x="49212.6" y="72740.2"
textLength="534.215" font-size="209.974" lengthAdjust="spacingAndGlyphs"
text-anchor="middle" opacity="0">C21</text>
<path d="M49111 72717
L49103 72725
L49081 72732
L49066 72732
L49043 72725
L49028 72710
L49021 72695
L49013 72665
L49013 72642
L49021 72612
L49028 72597
L49043 72582
L49066 72575
L49081 72575
L49103 72582
L49111 72590
" />
<path d="M49171 72590
L49178 72582
L49193 72575
L49231 72575
L49246 72582
L49253 72590
L49261 72605
L49261 72620
L49253 72642
L49163 72732
L49261 72732
" />
<path d="M49411 72732
L49321 72732
" />
<path d="M49366 72732
L49366 72575
L49351 72597
L49336 72612
L49321 72620
" />
</g>
<g style="fill:#000000; fill-opacity:0.0; 
stroke:#000000; stroke-width:59.0551; stroke-opacity:1; 
stroke-linecap:round; stroke-linejoin:round;">
<text x="59055.1" y="83448.8"
textLength="1849.23" font-size="524.934" lengthAdjust="spacingAndGlyphs"
text-anchor="middle" opacity="0">100nF</text>
<path d="M58445 83430
L58220 83430
" />
<path d="M58333 83430
L58333 83036
L58295 83092
L58258 83130
L58220 83148
" />
<path d="M58689 83036
L58727 83036
L58764 83055
L58783 83073
L58802 83111
L58820 83186
L58820 83280
L58802 83355
L58783 83392
L58764 83411
L58727 83430
L58689 83430
L58652 83411
L58633 83392
L58614 83355
L58595 83280
L58595 83186
L58614 83111
L58633 83073
L58652 83055
L58689 83036
" />
<path d="M59064 83036
L59101 83036
L59139 83055
L59158 83073
L59176 83111
L59195 83186
L59195 83280
L59176 83355
L59158 83392
L59139 83411
L59101 83430
L59064 83430
L59026 83411
L59008 83392
L58989 83355
L58970 83280
L58970 83186
L58989 83111
L59008 83073
L59026 83055
L59064 83036
" />
<path d="M59364 83167
L59364 83430
" />
<path d="M59364 83205
L59383 83186
L59420 83167
L59476 83167
L59514 83186
L59533 83223
L59533 83430
" />
<path d="M59851 83223
L59720 83223
" />
<path d="M59720 83430
L59720 83036
L59908 83036
" />
</g>
<g style="fill:#000000; fill-opacity:0.0; 
stroke:#000000; stroke-width:23.622; stroke-opacity:1; 
stroke-linecap:round; stroke-linejoin:round;">
<text x="59055.1" y="82767.7"
textLength="534.215" font-size="209.974" lengthAdjust="spacingAndGlyphs"
text-anchor="middle" opacity="0">C10</text>
<path d="M58953 82745
L58946 82752
L58923 82760
L58908 82760
L58886 82752
L58871 82737
L58863 82722
L58856 82692
L58856 82670
L58863 82640
L58871 82625
L58886 82610
L58908 82602
L58923 82602
L58946 82610
L58953 82617
" />
<path d="M59103 82760
L59013 82760
" />
<path d="M59058 82760
L59058 82602
L59043 82625
L59028 82640
L59013 82647
" />
<path d="M59201 82602
L59216 82602
L59231 82610
L59238 82617
L59246 82632
L59253 82662
L59253 82700
L59246 82730
L59238 82745
L59231 82752
L59216 82760
L59201 82760
L59186 82752
L59178 82745
L59171 82730
L59163 82700
L59163 82662
L59171 82632
L59178 82617
L59186 82610
L59201 82602
" />
</g>
<g style="fill:#000000; fill-opacity:0.0; 
stroke:#000000; stroke-width:59.0551; stroke-opacity:1; 
stroke-linecap:round; stroke-linejoin:round;">
<text x="29488.2" y="83448.8"
textLength="1849.23" font-size="524.934" lengthAdjust="spacingAndGlyphs"
text-anchor="middle" opacity="0">100nF</text>
<path d="M28878 83430
L28653 83430
" />
<path d="M28766 83430
L28766 83036
L28728 83092
L28691 83130
L28653 83148
" />
<path d="M29122 83036
L29160 83036
L29197 83055
L29216 83073
L29235 83111
L29253 83186
L29253 83280
L29235 83355
L29216 83392
L29197 83411
L29160 83430
L29122 83430
L29085 83411
L29066 83392
L29047 83355
L29028 83280
L29028 83186
L29047 83111
L29066 83073
L29085 83055
L29122 83036
" />
<path d="M29497 83036
L29535 83036
L29572 83055
L29591 83073
L29610 83111
L29628 83186
L29628 83280
L29610 83355
L29591 83392
L29572 83411
L29535 83430
L29497 83430
L29460 83411
L29441 83392
L29422 83355
L29403 83280
L29403 83186
L29422 83111
L29441 83073
L29460 83055
L29497 83036
" />
<path d="M29797 83167
L29797 83430
" />
<path d="M29797 83205
L29816 83186
L29853 83167
L29910 83167
L29947 83186
L29966 83223
L29966 83430
" />
<path d="M30284 83223
L30153 83223
" />
<path d="M30153 83430
L30153 83036
L30341 83036
" />
</g>
<g style="fill:#000000; fill-opacity:0.0; 
stroke:#000000; stroke-width:23.622; stroke-opacity:1; 
stroke-linecap:round; stroke-linejoin:round;">
<text x="29488.2" y="82767.7"
textLength="534.215" font-size="209.974" lengthAdjust="spacingAndGlyphs"
text-anchor="middle" opacity="0">C22</text>
<path d="M29386 82745
L29379 82752
L29356 82760
L29341 82760
L29319 82752
L29304 82737
L29296 82722
L29289 82692
L29289 82670
L29296 82640
L29304 82625
L29319 82610
L29341 82602
L29356 82602
L29379 82610
L29386 82617
" />
<path d="M29446 82617
L29454 82610
L29469 82602
L29506 82602
L29521 82610
L29529 82617
L29536 82632
L29536 82647
L29529 82670
L29439 82760
L29536 82760
" />
<path d="M29596 82617
L29604 82610
L29619 82602
L29656 82602
L29671 82610
L29679 82617
L29686 82632
L29686 82647
L29679 82670
L29589 82760
L29686 82760
" />
</g>
<g style="fill:#000000; fill-opacity:0.0; 
stroke:#000000; stroke-width:59.0551; stroke-opacity:1; 
stroke-linecap:round; stroke-linejoin:round;">
<text x="29637.8" y="53988.2"
textLength="1849.23" font-size="524.934" lengthAdjust="spacingAndGlyphs"
text-anchor="middle" opacity="0">100nF</text>
<path d="M29028 53969
L28803 53969
" />
<path d="M28916 53969
L28916 53575
L28878 53631
L28841 53669
L28803 53688
" />
<path d="M29272 53575
L29309 53575
L29347 53594
L29365 53613
L29384 53650
L29403 53725
L29403 53819
L29384 53894
L29365 53931
L29347 53950
L29309 53969
L29272 53969
L29234 53950
L29215 53931
L29197 53894
L29178 53819
L29178 53725
L29197 53650
L29215 53613
L29234 53594
L29272 53575
" />
<path d="M29647 53575
L29684 53575
L29722 53594
L29740 53613
L29759 53650
L29778 53725
L29778 53819
L29759 53894
L29740 53931
L29722 53950
L29684 53969
L29647 53969
L29609 53950
L29590 53931
L29572 53894
L29553 53819
L29553 53725
L29572 53650
L29590 53613
L29609 53594
L29647 53575
" />
<path d="M29947 53706
L29947 53969
" />
<path d="M29947 53744
L29965 53725
L30003 53706
L30059 53706
L30097 53725
L30115 53763
L30115 53969
" />
<path d="M30434 53763
L30303 53763
" />
<path d="M30303 53969
L30303 53575
L30490 53575
" />
</g>
<g style="fill:#000000; fill-opacity:0.0; 
stroke:#000000; stroke-width:23.622; stroke-opacity:1; 
stroke-linecap:round; stroke-linejoin:round;">
<text x="29637.8" y="53307.1"
textLength="534.215" font-size="209.974" lengthAdjust="spacingAndGlyphs"
text-anchor="middle" opacity="0">C11</text>
<path d="M29536 53284
L29529 53292
L29506 53299
L29491 53299
L29469 53292
L29454 53277
L29446 53262
L29439 53232
L29439 53209
L29446 53179
L29454 53164
L29469 53149
L29491 53142
L29506 53142
L29529 53149
L29536 53157
" />
<path d="M29686 53299
L29596 53299
" />
<path d="M29641 53299
L29641 53142
L29626 53164
L29611 53179
L29596 53187
" />
<path d="M29836 53299
L29746 53299
" />
<path d="M29791 53299
L29791 53142
L29776 53164
L29761 53179
L29746 53187
" />
</g>
<g style="fill:#000000; fill-opacity:0.0; 
stroke:#000000; stroke-width:59.0551; stroke-opacity:1; 
stroke-linecap:round; stroke-linejoin:round;">
<text x="39330.7" y="83448.8"
textLength="1849.23" font-size="524.934" lengthAdjust="spacingAndGlyphs"
text-anchor="middle" opacity="0">100nF</text>
<path d="M38721 83430
L38496 83430
" />
<path d="M38608 83430
L38608 83036
L38571 83092
L38533 83130
L38496 83148
" />
<path d="M38965 83036
L39002 83036
L39040 83055
L39058 83073
L39077 83111
L39096 83186
L39096 83280
L39077 83355
L39058 83392
L39040 83411
L39002 83430
L38965 83430
L38927 83411
L38908 83392
L38890 83355
L38871 83280
L38871 83186
L38890 83111
L38908 83073
L38927 83055
L38965 83036
" />
<path d="M39340 83036
L39377 83036
L39415 83055
L39433 83073
L39452 83111
L39471 83186
L39471 83280
L39452 83355
L39433 83392
L39415 83411
L39377 83430
L39340 83430
L39302 83411
L39283 83392
L39265 83355
L39246 83280
L39246 83186
L39265 83111
L39283 83073
L39302 83055
L39340 83036
" />
<path d="M39640 83167
L39640 83430
" />
<path d="M39640 83205
L39658 83186
L39696 83167
L39752 83167
L39790 83186
L39808 83223
L39808 83430
" />
<path d="M40127 83223
L39996 83223
" />
<path d="M39996 83430
L39996 83036
L40183 83036
" />
</g>
<g style="fill:#000000; fill-opacity:0.0; 
stroke:#000000; stroke-width:23.622; stroke-opacity:1; 
stroke-linecap:round; stroke-linejoin:round;">
<text x="39330.7" y="82767.7"
textLength="534.215" font-size="209.974" lengthAdjust="spacingAndGlyphs"
text-anchor="middle" opacity="0">C23</text>
<path d="M39229 82745
L39221 82752
L39199 82760
L39184 82760
L39161 82752
L39146 82737
L39139 82722
L39131 82692
L39131 82670
L39139 82640
L39146 82625
L39161 82610
L39184 82602
L39199 82602
L39221 82610
L39229 82617
" />
<path d="M39289 82617
L39296 82610
L39311 82602
L39349 82602
L39364 82610
L39371 82617
L39379 82632
L39379 82647
L39371 82670
L39281 82760
L39379 82760
" />
<path d="M39431 82602
L39529 82602
L39476 82662
L39499 82662
L39514 82670
L39521 82677
L39529 82692
L39529 82730
L39521 82745
L39514 82752
L39499 82760
L39454 82760
L39439 82752
L39431 82745
" />
</g>
<g style="fill:#000000; fill-opacity:0.0; 
stroke:#000000; stroke-width:59.0551; stroke-opacity:1; 
stroke-linecap:round; stroke-linejoin:round;">
<text x="39480.3" y="53988.2"
textLength="1849.23" font-size="524.934" lengthAdjust="spacingAndGlyphs"
text-anchor="middle" opacity="0">100nF</text>
<path d="M38871 53969
L38646 53969
" />
<path d="M38758 53969
L38758 53575
L38721 53631
L38683 53669
L38646 53688
" />
<path d="M39114 53575
L39152 53575
L39189 53594
L39208 53613
L39227 53650
L39245 53725
L39245 53819
L39227 53894
L39208 53931
L39189 53950
L39152 53969
L39114 53969
L39077 53950
L39058 53931
L39039 53894
L39020 53819
L39020 53725
L39039 53650
L39058 53613
L39077 53594
L39114 53575
" />
<path d="M39489 53575
L39527 53575
L39564 53594
L39583 53613
L39602 53650
L39620 53725
L39620 53819
L39602 53894
L39583 53931
L39564 53950
L39527 53969
L39489 53969
L39452 53950
L39433 53931
L39414 53894
L39395 53819
L39395 53725
L39414 53650
L39433 53613
L39452 53594
L39489 53575
" />
<path d="M39789 53706
L39789 53969
" />
<path d="M39789 53744
L39808 53725
L39845 53706
L39902 53706
L39939 53725
L39958 53763
L39958 53969
" />
<path d="M40277 53763
L40145 53763
" />
<path d="M40145 53969
L40145 53575
L40333 53575
" />
</g>
<g style="fill:#000000; fill-opacity:0.0; 
stroke:#000000; stroke-width:23.622; stroke-opacity:1; 
stroke-linecap:round; stroke-linejoin:round;">
<text x="39480.3" y="53307.1"
textLength="534.215" font-size="209.974" lengthAdjust="spacingAndGlyphs"
text-anchor="middle" opacity="0">C12</text>
<path d="M39379 53284
L39371 53292
L39349 53299
L39334 53299
L39311 53292
L39296 53277
L39289 53262
L39281 53232
L39281 53209
L39289 53179
L39296 53164
L39311 53149
L39334 53142
L39349 53142
L39371 53149
L39379 53157
" />
<path d="M39529 53299
L39439 53299
" />
<path d="M39484 53299
L39484 53142
L39469 53164
L39454 53179
L39439 53187
" />
<path d="M39589 53157
L39596 53149
L39611 53142
L39649 53142
L39664 53149
L39671 53157
L39679 53172
L39679 53187
L39671 53209
L39581 53299
L39679 53299
" />
</g>
<g style="fill:#000000; fill-opacity:0.0; 
stroke:#000000; stroke-width:59.0551; stroke-opacity:1; 
stroke-linecap:round; stroke-linejoin:round;">
<text x="49370.1" y="83448.8"
textLength="1849.23" font-size="524.934" lengthAdjust="spacingAndGlyphs"
text-anchor="middle" opacity="0">100nF</text>
<path d="M48760 83430
L48535 83430
" />
<path d="M48648 83430
L48648 83036
L48610 83092
L48573 83130
L48535 83148
" />
<path d="M49004 83036
L49041 83036
L49079 83055
L49098 83073
L49116 83111
L49135 83186
L49135 83280
L49116 83355
L49098 83392
L49079 83411
L49041 83430
L49004 83430
L48967 83411
L48948 83392
L48929 83355
L48910 83280
L48910 83186
L48929 83111
L48948 83073
L48967 83055
L49004 83036
" />
<path d="M49379 83036
L49416 83036
L49454 83055
L49473 83073
L49491 83111
L49510 83186
L49510 83280
L49491 83355
L49473 83392
L49454 83411
L49416 83430
L49379 83430
L49341 83411
L49323 83392
L49304 83355
L49285 83280
L49285 83186
L49304 83111
L49323 83073
L49341 83055
L49379 83036
" />
<path d="M49679 83167
L49679 83430
" />
<path d="M49679 83205
L49698 83186
L49735 83167
L49791 83167
L49829 83186
L49848 83223
L49848 83430
" />
<path d="M50166 83223
L50035 83223
" />
<path d="M50035 83430
L50035 83036
L50223 83036
" />
</g>
<g style="fill:#000000; fill-opacity:0.0; 
stroke:#000000; stroke-width:23.622; stroke-opacity:1; 
stroke-linecap:round; stroke-linejoin:round;">
<text x="49370.1" y="82767.7"
textLength="534.215" font-size="209.974" lengthAdjust="spacingAndGlyphs"
text-anchor="middle" opacity="0">C24</text>
<path d="M49268 82745
L49261 82752
L49238 82760
L49223 82760
L49201 82752
L49186 82737
L49178 82722
L49171 82692
L49171 82670
L49178 82640
L49186 82625
L49201 82610
L49223 82602
L49238 82602
L49261 82610
L49268 82617
" />
<path d="M49328 82617
L49336 82610
L49351 82602
L49388 82602
L49403 82610
L49411 82617
L49418 82632
L49418 82647
L49411 82670
L49321 82760
L49418 82760
" />
<path d="M49553 82655
L49553 82760
" />
<path d="M49516 82595
L49478 82707
L49576 82707
" />
</g>
<g style="fill:#000000; fill-opacity:0.0; 
stroke:#000000; stroke-width:59.0551; stroke-opacity:1; 
stroke-linecap:round; stroke-linejoin:round;">
<g transform="rotate(-90 39318.9 43464.6)">
<text x="39318.9" y="43661.4"
textLength="1474.28" font-size="524.934" lengthAdjust="spacingAndGlyphs"
text-anchor="middle" opacity="0">10nF</text>
</g>
<path d="M39497 43886
L39497 44111
" />
<path d="M39497 43998
L39103 43998
L39159 44036
L39197 44073
L39215 44111
" />
<path d="M39103 43642
L39103 43605
L39122 43567
L39140 43548
L39178 43530
L39253 43511
L39347 43511
L39422 43530
L39459 43548
L39478 43567
L39497 43605
L39497 43642
L39478 43680
L39459 43698
L39422 43717
L39347 43736
L39253 43736
L39178 43717
L39140 43698
L39122 43680
L39103 43642
" />
<path d="M39234 43342
L39497 43342
" />
<path d="M39272 43342
L39253 43323
L39234 43286
L39234 43230
L39253 43192
L39290 43173
L39497 43173
" />
<path d="M39290 42855
L39290 42986
" />
<path d="M39497 42986
L39103 42986
L39103 42799
" />
</g>
<g style="fill:#000000; fill-opacity:0.0; 
stroke:#000000; stroke-width:23.622; stroke-opacity:1; 
stroke-linecap:round; stroke-linejoin:round;">
<g transform="rotate(-90 39881.9 43464.6)">
<text x="39881.9" y="43543.3"
textLength="1036.65" font-size="209.974" lengthAdjust="spacingAndGlyphs"
text-anchor="middle" opacity="0">C_enc_1</text>
</g>
<path d="M39938 43817
L39945 43824
L39953 43847
L39953 43862
L39945 43884
L39930 43899
L39915 43907
L39885 43914
L39863 43914
L39833 43907
L39818 43899
L39803 43884
L39795 43862
L39795 43847
L39803 43824
L39810 43817
" />
<path d="M39968 43787
L39968 43667
" />
<path d="M39945 43569
L39953 43584
L39953 43614
L39945 43629
L39930 43637
L39870 43637
L39855 43629
L39848 43614
L39848 43584
L39855 43569
L39870 43562
L39885 43562
L39900 43637
" />
<path d="M39848 43494
L39953 43494
" />
<path d="M39863 43494
L39855 43487
L39848 43472
L39848 43449
L39855 43434
L39870 43427
L39953 43427
" />
<path d="M39945 43284
L39953 43299
L39953 43329
L39945 43344
L39938 43352
L39923 43359
L39878 43359
L39863 43352
L39855 43344
L39848 43329
L39848 43299
L39855 43284
" />
<path d="M39968 43254
L39968 43134
" />
<path d="M39953 43014
L39953 43104
" />
<path d="M39953 43059
L39795 43059
L39818 43074
L39833 43089
L39840 43104
" />
</g>
<g style="fill:#000000; fill-opacity:0.0; 
stroke:#000000; stroke-width:59.0551; stroke-opacity:1; 
stroke-linecap:round; stroke-linejoin:round;">
<g transform="rotate(-90 48846.5 43425.2)">
<text x="48846.5" y="43622"
textLength="1474.28" font-size="524.934" lengthAdjust="spacingAndGlyphs"
text-anchor="middle" opacity="0">10nF</text>
</g>
<path d="M49024 43847
L49024 44071
" />
<path d="M49024 43959
L48630 43959
L48687 43997
L48724 44034
L48743 44071
" />
<path d="M48630 43603
L48630 43565
L48649 43528
L48668 43509
L48705 43490
L48780 43472
L48874 43472
L48949 43490
L48987 43509
L49005 43528
L49024 43565
L49024 43603
L49005 43640
L48987 43659
L48949 43678
L48874 43697
L48780 43697
L48705 43678
L48668 43659
L48649 43640
L48630 43603
" />
<path d="M48762 43303
L49024 43303
" />
<path d="M48799 43303
L48780 43284
L48762 43247
L48762 43190
L48780 43153
L48818 43134
L49024 43134
" />
<path d="M48818 42815
L48818 42947
" />
<path d="M49024 42947
L48630 42947
L48630 42759
" />
</g>
<g style="fill:#000000; fill-opacity:0.0; 
stroke:#000000; stroke-width:23.622; stroke-opacity:1; 
stroke-linecap:round; stroke-linejoin:round;">
<g transform="rotate(-90 49409.4 43425.2)">
<text x="49409.4" y="43503.9"
textLength="1036.65" font-size="209.974" lengthAdjust="spacingAndGlyphs"
text-anchor="middle" opacity="0">C_enc_2</text>
</g>
<path d="M49465 43777
L49473 43785
L49480 43807
L49480 43822
L49473 43845
L49458 43860
L49443 43867
L49413 43875
L49390 43875
L49360 43867
L49345 43860
L49330 43845
L49323 43822
L49323 43807
L49330 43785
L49338 43777
" />
<path d="M49495 43747
L49495 43627
" />
<path d="M49473 43530
L49480 43545
L49480 43575
L49473 43590
L49458 43597
L49398 43597
L49383 43590
L49375 43575
L49375 43545
L49383 43530
L49398 43522
L49413 43522
L49428 43597
" />
<path d="M49375 43455
L49480 43455
" />
<path d="M49390 43455
L49383 43447
L49375 43432
L49375 43410
L49383 43395
L49398 43387
L49480 43387
" />
<path d="M49473 43245
L49480 43260
L49480 43290
L49473 43305
L49465 43312
L49450 43320
L49405 43320
L49390 43312
L49383 43305
L49375 43290
L49375 43260
L49383 43245
" />
<path d="M49495 43215
L49495 43095
" />
<path d="M49338 43065
L49330 43057
L49323 43042
L49323 43005
L49330 42990
L49338 42982
L49353 42975
L49368 42975
L49390 42982
L49480 43072
L49480 42975
" />
</g>
<g style="fill:#000000; fill-opacity:0.0; 
stroke:#000000; stroke-width:59.0551; stroke-opacity:1; 
stroke-linecap:round; stroke-linejoin:round;">
<text x="49212.6" y="15000"
textLength="2317.92" font-size="524.934" lengthAdjust="spacingAndGlyphs"
text-anchor="middle" opacity="0">1N4007</text>
<path d="M48368 14981
L48143 14981
" />
<path d="M48256 14981
L48256 14587
L48218 14643
L48181 14681
L48143 14700
" />
<path d="M48537 14981
L48537 14587
L48762 14981
L48762 14587
" />
<path d="M49118 14718
L49118 14981
" />
<path d="M49025 14568
L48931 14850
L49175 14850
" />
<path d="M49400 14587
L49437 14587
L49475 14606
L49493 14625
L49512 14662
L49531 14737
L49531 14831
L49512 14906
L49493 14943
L49475 14962
L49437 14981
L49400 14981
L49362 14962
L49343 14943
L49325 14906
L49306 14831
L49306 14737
L49325 14662
L49343 14625
L49362 14606
L49400 14587
" />
<path d="M49775 14587
L49812 14587
L49850 14606
L49868 14625
L49887 14662
L49906 14737
L49906 14831
L49887 14906
L49868 14943
L49850 14962
L49812 14981
L49775 14981
L49737 14962
L49718 14943
L49700 14906
L49681 14831
L49681 14737
L49700 14662
L49718 14625
L49737 14606
L49775 14587
" />
<path d="M50037 14587
L50299 14587
L50131 14981
" />
<text x="49212.6" y="12992.1"
textLength="2082.77" font-size="524.934" lengthAdjust="spacingAndGlyphs"
text-anchor="middle" opacity="0">Diode1</text>
<path d="M48303 12973
L48303 12579
L48397 12579
L48453 12598
L48490 12635
L48509 12673
L48528 12748
L48528 12804
L48509 12879
L48490 12917
L48453 12954
L48397 12973
L48303 12973
" />
<path d="M48697 12973
L48697 12710
" />
<path d="M48697 12579
L48678 12598
L48697 12617
L48715 12598
L48697 12579
L48697 12617
" />
<path d="M48940 12973
L48903 12954
L48884 12935
L48865 12898
L48865 12785
L48884 12748
L48903 12729
L48940 12710
L48997 12710
L49034 12729
L49053 12748
L49071 12785
L49071 12898
L49053 12935
L49034 12954
L48997 12973
L48940 12973
" />
<path d="M49409 12973
L49409 12579
" />
<path d="M49409 12954
L49371 12973
L49296 12973
L49259 12954
L49240 12935
L49221 12898
L49221 12785
L49240 12748
L49259 12729
L49296 12710
L49371 12710
L49409 12729
" />
<path d="M49746 12954
L49709 12973
L49634 12973
L49596 12954
L49578 12917
L49578 12767
L49596 12729
L49634 12710
L49709 12710
L49746 12729
L49765 12767
L49765 12804
L49578 12842
" />
<path d="M50140 12973
L49915 12973
" />
<path d="M50028 12973
L50028 12579
L49990 12635
L49953 12673
L49915 12692
" />
<text x="47244.1" y="43661.4"
textLength="6788.43" font-size="524.934" lengthAdjust="spacingAndGlyphs"
text-anchor="middle" opacity="0">Rotary_Encoder_Switch</text>
<path d="M44206 43642
L44075 43455
" />
<path d="M43982 43642
L43982 43248
L44131 43248
L44169 43267
L44188 43286
L44206 43323
L44206 43380
L44188 43417
L44169 43436
L44131 43455
L43982 43455
" />
<path d="M44431 43642
L44394 43623
L44375 43605
L44356 43567
L44356 43455
L44375 43417
L44394 43398
L44431 43380
L44488 43380
L44525 43398
L44544 43417
L44563 43455
L44563 43567
L44544 43605
L44525 43623
L44488 43642
L44431 43642
" />
<path d="M44675 43380
L44825 43380
" />
<path d="M44731 43248
L44731 43586
L44750 43623
L44788 43642
L44825 43642
" />
<path d="M45125 43642
L45125 43436
L45106 43398
L45069 43380
L44994 43380
L44956 43398
" />
<path d="M45125 43623
L45088 43642
L44994 43642
L44956 43623
L44938 43586
L44938 43548
L44956 43511
L44994 43492
L45088 43492
L45125 43473
" />
<path d="M45313 43642
L45313 43380
" />
<path d="M45313 43455
L45331 43417
L45350 43398
L45388 43380
L45425 43380
" />
<path d="M45519 43380
L45613 43642
" />
<path d="M45706 43380
L45613 43642
L45575 43736
L45556 43755
L45519 43773
" />
<path d="M45763 43680
L46062 43680
" />
<path d="M46156 43436
L46287 43436
" />
<path d="M46344 43642
L46156 43642
L46156 43248
L46344 43248
" />
<path d="M46512 43380
L46512 43642
" />
<path d="M46512 43417
L46531 43398
L46569 43380
L46625 43380
L46662 43398
L46681 43436
L46681 43642
" />
<path d="M47037 43623
L47000 43642
L46925 43642
L46887 43623
L46869 43605
L46850 43567
L46850 43455
L46869 43417
L46887 43398
L46925 43380
L47000 43380
L47037 43398
" />
<path d="M47262 43642
L47225 43623
L47206 43605
L47187 43567
L47187 43455
L47206 43417
L47225 43398
L47262 43380
L47319 43380
L47356 43398
L47375 43417
L47394 43455
L47394 43567
L47375 43605
L47356 43623
L47319 43642
L47262 43642
" />
<path d="M47731 43642
L47731 43248
" />
<path d="M47731 43623
L47694 43642
L47619 43642
L47581 43623
L47562 43605
L47544 43567
L47544 43455
L47562 43417
L47581 43398
L47619 43380
L47694 43380
L47731 43398
" />
<path d="M48068 43623
L48031 43642
L47956 43642
L47919 43623
L47900 43586
L47900 43436
L47919 43398
L47956 43380
L48031 43380
L48068 43398
L48087 43436
L48087 43473
L47900 43511
" />
<path d="M48256 43642
L48256 43380
" />
<path d="M48256 43455
L48275 43417
L48293 43398
L48331 43380
L48368 43380
" />
<path d="M48406 43680
L48706 43680
" />
<path d="M48781 43623
L48837 43642
L48931 43642
L48968 43623
L48987 43605
L49006 43567
L49006 43530
L48987 43492
L48968 43473
L48931 43455
L48856 43436
L48818 43417
L48800 43398
L48781 43361
L48781 43323
L48800 43286
L48818 43267
L48856 43248
L48950 43248
L49006 43267
" />
<path d="M49137 43380
L49212 43642
L49287 43455
L49362 43642
L49437 43380
" />
<path d="M49587 43642
L49587 43380
" />
<path d="M49587 43248
L49568 43267
L49587 43286
L49606 43267
L49587 43248
L49587 43286
" />
<path d="M49718 43380
L49868 43380
" />
<path d="M49775 43248
L49775 43586
L49793 43623
L49831 43642
L49868 43642
" />
<path d="M50168 43623
L50131 43642
L50056 43642
L50018 43623
L50000 43605
L49981 43567
L49981 43455
L50000 43417
L50018 43398
L50056 43380
L50131 43380
L50168 43398
" />
<path d="M50337 43642
L50337 43248
" />
<path d="M50506 43642
L50506 43436
L50487 43398
L50449 43380
L50393 43380
L50356 43398
L50337 43417
" />
<g transform="rotate(-90 45807.1 37964.6)">
<text x="45807.1" y="38161.4"
textLength="2795.18" font-size="524.934" lengthAdjust="spacingAndGlyphs"
text-anchor="middle" opacity="0">Encoder1</text>
</g>
<path d="M45778 39230
L45778 39098
" />
<path d="M45985 39042
L45985 39230
L45591 39230
L45591 39042
" />
<path d="M45722 38873
L45985 38873
" />
<path d="M45760 38873
L45741 38855
L45722 38817
L45722 38761
L45741 38723
L45778 38705
L45985 38705
" />
<path d="M45966 38348
L45985 38386
L45985 38461
L45966 38498
L45947 38517
L45910 38536
L45797 38536
L45760 38517
L45741 38498
L45722 38461
L45722 38386
L45741 38348
" />
<path d="M45985 38123
L45966 38161
L45947 38180
L45910 38198
L45797 38198
L45760 38180
L45741 38161
L45722 38123
L45722 38067
L45741 38030
L45760 38011
L45797 37992
L45910 37992
L45947 38011
L45966 38030
L45985 38067
L45985 38123
" />
<path d="M45985 37655
L45591 37655
" />
<path d="M45966 37655
L45985 37692
L45985 37767
L45966 37805
L45947 37823
L45910 37842
L45797 37842
L45760 37823
L45741 37805
L45722 37767
L45722 37692
L45741 37655
" />
<path d="M45966 37317
L45985 37355
L45985 37430
L45966 37467
L45928 37486
L45778 37486
L45741 37467
L45722 37430
L45722 37355
L45741 37317
L45778 37299
L45816 37299
L45853 37486
" />
<path d="M45985 37130
L45722 37130
" />
<path d="M45797 37130
L45760 37111
L45741 37092
L45722 37055
L45722 37017
" />
<path d="M45985 36680
L45985 36905
" />
<path d="M45985 36792
L45591 36792
L45647 36830
L45685 36867
L45703 36905
" />
<g transform="rotate(-90 65421.3 23913.4)">
<text x="65421.3" y="24110.2"
textLength="901.669" font-size="524.934" lengthAdjust="spacingAndGlyphs"
text-anchor="middle" opacity="0">1M</text>
</g>
<path d="M65599 24025
L65599 24250
" />
<path d="M65599 24138
L65205 24138
L65261 24175
L65299 24213
L65318 24250
" />
<path d="M65599 23857
L65205 23857
L65486 23725
L65205 23594
L65599 23594
" />
</g>
<g style="fill:#000000; fill-opacity:0.0; 
stroke:#000000; stroke-width:23.622; stroke-opacity:1; 
stroke-linecap:round; stroke-linejoin:round;">
<g transform="rotate(-90 65984.3 23913.4)">
<text x="65984.3" y="23992.1"
textLength="384.233" font-size="209.974" lengthAdjust="spacingAndGlyphs"
text-anchor="middle" opacity="0">R1</text>
</g>
<path d="M66055 23939
L65980 23992
" />
<path d="M66055 24029
L65898 24029
L65898 23969
L65905 23954
L65913 23947
L65928 23939
L65950 23939
L65965 23947
L65973 23954
L65980 23969
L65980 24029
" />
<path d="M66055 23789
L66055 23879
" />
<path d="M66055 23834
L65898 23834
L65920 23849
L65935 23864
L65943 23879
" />
</g>
<g style="fill:#000000; fill-opacity:0.0; 
stroke:#000000; stroke-width:59.0551; stroke-opacity:1; 
stroke-linecap:round; stroke-linejoin:round;">
<g transform="rotate(-90 41535.4 42126)">
<text x="41535.4" y="42322.8"
textLength="1099.33" font-size="524.934" lengthAdjust="spacingAndGlyphs"
text-anchor="middle" opacity="0">10k</text>
</g>
<path d="M41713 42360
L41713 42585
" />
<path d="M41713 42472
L41319 42472
L41376 42510
L41413 42547
L41432 42585
" />
<path d="M41319 42116
L41319 42079
L41338 42041
L41357 42022
L41394 42004
L41469 41985
L41563 41985
L41638 42004
L41676 42022
L41694 42041
L41713 42079
L41713 42116
L41694 42154
L41676 42172
L41638 42191
L41563 42210
L41469 42210
L41394 42191
L41357 42172
L41338 42154
L41319 42116
" />
<path d="M41713 41816
L41319 41816
" />
<path d="M41563 41779
L41713 41666
" />
<path d="M41451 41666
L41601 41816
" />
</g>
<g style="fill:#000000; fill-opacity:0.0; 
stroke:#000000; stroke-width:23.622; stroke-opacity:1; 
stroke-linecap:round; stroke-linejoin:round;">
<g transform="rotate(-90 40767.7 43484.3)">
<text x="40767.7" y="43563"
textLength="384.233" font-size="209.974" lengthAdjust="spacingAndGlyphs"
text-anchor="middle" opacity="0">R2</text>
</g>
<path d="M40838 43510
L40763 43562
" />
<path d="M40838 43600
L40681 43600
L40681 43540
L40688 43525
L40696 43517
L40711 43510
L40733 43510
L40748 43517
L40756 43525
L40763 43540
L40763 43600
" />
<path d="M40696 43450
L40688 43443
L40681 43428
L40681 43390
L40688 43375
L40696 43368
L40711 43360
L40726 43360
L40748 43368
L40838 43458
L40838 43360
" />
</g>
<g style="fill:#000000; fill-opacity:0.0; 
stroke:#000000; stroke-width:59.0551; stroke-opacity:1; 
stroke-linecap:round; stroke-linejoin:round;">
<g transform="rotate(-90 42173.2 43566.9)">
<text x="42173.2" y="43763.8"
textLength="1099.33" font-size="524.934" lengthAdjust="spacingAndGlyphs"
text-anchor="middle" opacity="0">10k</text>
</g>
<path d="M42351 43801
L42351 44026
" />
<path d="M42351 43913
L41957 43913
L42013 43951
L42051 43988
L42070 44026
" />
<path d="M41957 43557
L41957 43520
L41976 43482
L41995 43463
L42032 43445
L42107 43426
L42201 43426
L42276 43445
L42313 43463
L42332 43482
L42351 43520
L42351 43557
L42332 43595
L42313 43613
L42276 43632
L42201 43651
L42107 43651
L42032 43632
L41995 43613
L41976 43595
L41957 43557
" />
<path d="M42351 43257
L41957 43257
" />
<path d="M42201 43220
L42351 43107
" />
<path d="M42088 43107
L42238 43257
" />
</g>
<g style="fill:#000000; fill-opacity:0.0; 
stroke:#000000; stroke-width:23.622; stroke-opacity:1; 
stroke-linecap:round; stroke-linejoin:round;">
<g transform="rotate(-90 41610.2 43566.9)">
<text x="41610.2" y="43645.7"
textLength="384.233" font-size="209.974" lengthAdjust="spacingAndGlyphs"
text-anchor="middle" opacity="0">R3</text>
</g>
<path d="M41681 43593
L41606 43645
" />
<path d="M41681 43683
L41523 43683
L41523 43623
L41531 43608
L41538 43600
L41553 43593
L41576 43593
L41591 43600
L41598 43608
L41606 43623
L41606 43683
" />
<path d="M41523 43540
L41523 43443
L41583 43495
L41583 43473
L41591 43458
L41598 43450
L41613 43443
L41651 43443
L41666 43450
L41673 43458
L41681 43473
L41681 43518
L41673 43533
L41666 43540
" />
</g>
<g style="fill:#000000; fill-opacity:0.0; 
stroke:#000000; stroke-width:59.0551; stroke-opacity:1; 
stroke-linecap:round; stroke-linejoin:round;">
<g transform="rotate(-90 48594.5 43425.2)">
<text x="48594.5" y="43622"
textLength="1099.33" font-size="524.934" lengthAdjust="spacingAndGlyphs"
text-anchor="middle" opacity="0">10k</text>
</g>
<path d="M48772 43659
L48772 43884
" />
<path d="M48772 43772
L48378 43772
L48435 43809
L48472 43847
L48491 43884
" />
<path d="M48378 43415
L48378 43378
L48397 43340
L48416 43322
L48453 43303
L48528 43284
L48622 43284
L48697 43303
L48735 43322
L48753 43340
L48772 43378
L48772 43415
L48753 43453
L48735 43472
L48697 43490
L48622 43509
L48528 43509
L48453 43490
L48416 43472
L48397 43453
L48378 43415
" />
<path d="M48772 43115
L48378 43115
" />
<path d="M48622 43078
L48772 42965
" />
<path d="M48510 42965
L48660 43115
" />
</g>
<g style="fill:#000000; fill-opacity:0.0; 
stroke:#000000; stroke-width:23.622; stroke-opacity:1; 
stroke-linecap:round; stroke-linejoin:round;">
<g transform="rotate(-90 48031.5 43425.2)">
<text x="48031.5" y="43503.9"
textLength="384.233" font-size="209.974" lengthAdjust="spacingAndGlyphs"
text-anchor="middle" opacity="0">R4</text>
</g>
<path d="M48102 43451
L48027 43503
" />
<path d="M48102 43541
L47945 43541
L47945 43481
L47952 43466
L47960 43458
L47975 43451
L47997 43451
L48012 43458
L48020 43466
L48027 43481
L48027 43541
" />
<path d="M47997 43316
L48102 43316
" />
<path d="M47937 43353
L48050 43391
L48050 43293
" />
</g>
<g style="fill:#000000; fill-opacity:0.0; 
stroke:#000000; stroke-width:59.0551; stroke-opacity:1; 
stroke-linecap:round; stroke-linejoin:round;">
<g transform="rotate(-90 48137.8 43425.2)">
<text x="48137.8" y="43622"
textLength="1099.33" font-size="524.934" lengthAdjust="spacingAndGlyphs"
text-anchor="middle" opacity="0">10k</text>
</g>
<path d="M48315 43659
L48315 43884
" />
<path d="M48315 43772
L47922 43772
L47978 43809
L48015 43847
L48034 43884
" />
<path d="M47922 43415
L47922 43378
L47940 43340
L47959 43322
L47997 43303
L48072 43284
L48165 43284
L48240 43303
L48278 43322
L48297 43340
L48315 43378
L48315 43415
L48297 43453
L48278 43472
L48240 43490
L48165 43509
L48072 43509
L47997 43490
L47959 43472
L47940 43453
L47922 43415
" />
<path d="M48315 43115
L47922 43115
" />
<path d="M48165 43078
L48315 42965
" />
<path d="M48053 42965
L48203 43115
" />
</g>
<g style="fill:#000000; fill-opacity:0.0; 
stroke:#000000; stroke-width:23.622; stroke-opacity:1; 
stroke-linecap:round; stroke-linejoin:round;">
<g transform="rotate(-90 48700.8 43425.2)">
<text x="48700.8" y="43503.9"
textLength="384.233" font-size="209.974" lengthAdjust="spacingAndGlyphs"
text-anchor="middle" opacity="0">R5</text>
</g>
<path d="M48772 43451
L48697 43503
" />
<path d="M48772 43541
L48614 43541
L48614 43481
L48622 43466
L48629 43458
L48644 43451
L48667 43451
L48682 43458
L48689 43466
L48697 43481
L48697 43541
" />
<path d="M48614 43308
L48614 43383
L48689 43391
L48682 43383
L48674 43368
L48674 43331
L48682 43316
L48689 43308
L48704 43301
L48742 43301
L48757 43308
L48764 43316
L48772 43331
L48772 43368
L48764 43383
L48757 43391
" />
</g>
<g style="fill:#000000; fill-opacity:0.0; 
stroke:#000000; stroke-width:59.0551; stroke-opacity:1; 
stroke-linecap:round; stroke-linejoin:round;">
<g transform="rotate(-90 32515.7 23570.9)">
<text x="32515.7" y="23767.7"
textLength="1155.57" font-size="524.934" lengthAdjust="spacingAndGlyphs"
text-anchor="middle" opacity="0">330</text>
</g>
<path d="M32300 24077
L32300 23833
L32450 23964
L32450 23908
L32468 23870
L32487 23852
L32525 23833
L32618 23833
L32656 23852
L32675 23870
L32693 23908
L32693 24020
L32675 24058
L32656 24077
" />
<path d="M32300 23702
L32300 23458
L32450 23589
L32450 23533
L32468 23495
L32487 23477
L32525 23458
L32618 23458
L32656 23477
L32675 23495
L32693 23533
L32693 23645
L32675 23683
L32656 23702
" />
<path d="M32300 23214
L32300 23177
L32318 23139
L32337 23120
L32375 23102
L32450 23083
L32543 23083
L32618 23102
L32656 23120
L32675 23139
L32693 23177
L32693 23214
L32675 23252
L32656 23270
L32618 23289
L32543 23308
L32450 23308
L32375 23289
L32337 23270
L32318 23252
L32300 23214
" />
</g>
<g style="fill:#000000; fill-opacity:0.0; 
stroke:#000000; stroke-width:23.622; stroke-opacity:1; 
stroke-linecap:round; stroke-linejoin:round;">
<g transform="rotate(-90 31952.8 23570.9)">
<text x="31952.8" y="23649.6"
textLength="534.215" font-size="209.974" lengthAdjust="spacingAndGlyphs"
text-anchor="middle" opacity="0">R19</text>
</g>
<path d="M32023 23672
L31949 23724
" />
<path d="M32023 23762
L31866 23762
L31866 23702
L31874 23687
L31881 23679
L31896 23672
L31919 23672
L31934 23679
L31941 23687
L31949 23702
L31949 23762
" />
<path d="M32023 23522
L32023 23612
" />
<path d="M32023 23567
L31866 23567
L31889 23582
L31904 23597
L31911 23612
" />
<path d="M32023 23447
L32023 23417
L32016 23402
L32008 23394
L31986 23379
L31956 23372
L31896 23372
L31881 23379
L31874 23387
L31866 23402
L31866 23432
L31874 23447
L31881 23454
L31896 23462
L31934 23462
L31949 23454
L31956 23447
L31964 23432
L31964 23402
L31956 23387
L31949 23379
L31934 23372
" />
</g>
<g style="fill:#000000; fill-opacity:0.0; 
stroke:#000000; stroke-width:59.0551; stroke-opacity:1; 
stroke-linecap:round; stroke-linejoin:round;">
<text x="44685" y="15157.5"
textLength="1849.23" font-size="524.934" lengthAdjust="spacingAndGlyphs"
text-anchor="middle" opacity="0">L7805</text>
<path d="M44056 15138
L43869 15138
L43869 14745
" />
<path d="M44150 14745
L44413 14745
L44244 15138
" />
<path d="M44619 14913
L44581 14895
L44563 14876
L44544 14838
L44544 14820
L44563 14782
L44581 14763
L44619 14745
L44694 14745
L44731 14763
L44750 14782
L44769 14820
L44769 14838
L44750 14876
L44731 14895
L44694 14913
L44619 14913
L44581 14932
L44563 14951
L44544 14988
L44544 15063
L44563 15101
L44581 15119
L44619 15138
L44694 15138
L44731 15119
L44750 15101
L44769 15063
L44769 14988
L44750 14951
L44731 14932
L44694 14913
" />
<path d="M45013 14745
L45050 14745
L45088 14763
L45106 14782
L45125 14820
L45144 14895
L45144 14988
L45125 15063
L45106 15101
L45088 15119
L45050 15138
L45013 15138
L44975 15119
L44956 15101
L44938 15063
L44919 14988
L44919 14895
L44938 14820
L44956 14782
L44975 14763
L45013 14745
" />
<path d="M45500 14745
L45313 14745
L45294 14932
L45313 14913
L45350 14895
L45444 14895
L45481 14913
L45500 14932
L45519 14970
L45519 15063
L45500 15101
L45481 15119
L45444 15138
L45350 15138
L45313 15119
L45294 15101
" />
<text x="44685" y="13385.8"
textLength="3901.29" font-size="524.934" lengthAdjust="spacingAndGlyphs"
text-anchor="middle" opacity="0">Tension_reg1</text>
<path d="M42810 12973
L43035 12973
" />
<path d="M42922 13367
L42922 12973
" />
<path d="M43316 13348
L43278 13367
L43203 13367
L43166 13348
L43147 13310
L43147 13160
L43166 13123
L43203 13104
L43278 13104
L43316 13123
L43335 13160
L43335 13198
L43147 13235
" />
<path d="M43503 13104
L43503 13367
" />
<path d="M43503 13142
L43522 13123
L43560 13104
L43616 13104
L43653 13123
L43672 13160
L43672 13367
" />
<path d="M43841 13348
L43878 13367
L43953 13367
L43991 13348
L44010 13310
L44010 13292
L43991 13254
L43953 13235
L43897 13235
L43860 13217
L43841 13179
L43841 13160
L43860 13123
L43897 13104
L43953 13104
L43991 13123
" />
<path d="M44178 13367
L44178 13104
" />
<path d="M44178 12973
L44160 12992
L44178 13010
L44197 12992
L44178 12973
L44178 13010
" />
<path d="M44422 13367
L44385 13348
L44366 13329
L44347 13292
L44347 13179
L44366 13142
L44385 13123
L44422 13104
L44478 13104
L44516 13123
L44535 13142
L44553 13179
L44553 13292
L44535 13329
L44516 13348
L44478 13367
L44422 13367
" />
<path d="M44722 13104
L44722 13367
" />
<path d="M44722 13142
L44741 13123
L44778 13104
L44835 13104
L44872 13123
L44891 13160
L44891 13367
" />
<path d="M44985 13404
L45284 13404
" />
<path d="M45378 13367
L45378 13104
" />
<path d="M45378 13179
L45397 13142
L45416 13123
L45453 13104
L45491 13104
" />
<path d="M45772 13348
L45734 13367
L45659 13367
L45622 13348
L45603 13310
L45603 13160
L45622 13123
L45659 13104
L45734 13104
L45772 13123
L45791 13160
L45791 13198
L45603 13235
" />
<path d="M46128 13104
L46128 13423
L46109 13460
L46091 13479
L46053 13498
L45997 13498
L45959 13479
" />
<path d="M46128 13348
L46091 13367
L46016 13367
L45978 13348
L45959 13329
L45941 13292
L45941 13179
L45959 13142
L45978 13123
L46016 13104
L46091 13104
L46128 13123
" />
<path d="M46522 13367
L46297 13367
" />
<path d="M46409 13367
L46409 12973
L46372 13029
L46334 13067
L46297 13085
" />
<g >
</g>
</g> 
</svg>
