<?xml version="1.0" standalone="no"?>
 <!DOCTYPE svg PUBLIC "-//W3C//DTD SVG 1.1//EN" 
 "http://www.w3.org/Graphics/SVG/1.1/DTD/svg11.dtd"> 
<svg
  xmlns:svg="http://www.w3.org/2000/svg"
  xmlns="http://www.w3.org/2000/svg"
  xmlns:xlink="http://www.w3.org/1999/xlink"
  version="1.1"
  width="21.000720cm" height="29.700220cm" viewBox="0 0 82680 116930">
<title>SVG Picture created as Faduino-1-F_CrtYd.svg date 2021/11/30 15:20:05 </title>
  <desc>Picture generated by PCBNEW </desc>
<g style="fill:#000000; fill-opacity:1;stroke:#000000; stroke-opacity:1;
stroke-linecap:round; stroke-linejoin:round;"
 transform="translate(0 0) scale(1 1)">
</g>
<g style="fill:#000000; fill-opacity:0.0; 
stroke:#000000; stroke-width:-0.000393701; stroke-opacity:1; 
stroke-linecap:round; stroke-linejoin:round;">
</g>
<g style="fill:#000000; fill-opacity:0.0; 
stroke:#000000; stroke-width:19.685; stroke-opacity:1; 
stroke-linecap:round; stroke-linejoin:round;">
<path d="M67913 68208
L64370 68208
" />
<path d="M67913 71948
L64370 71948
" />
<path d="M67913 68208
L67913 71948
" />
<path d="M64370 68208
L64370 71948
" />
<path d="M67913 32775
L64370 32775
" />
<path d="M67913 36515
L64370 36515
" />
<path d="M67913 32775
L67913 36515
" />
<path d="M64370 32775
L64370 36515
" />
<path d="M39027 33610
L39027 33035
" />
<path d="M39027 33035
L40192 33035
" />
<path d="M40192 33035
L40192 33610
" />
<path d="M40192 33610
L39027 33610
" />
<path d="M30153 33035
L30153 33610
" />
<path d="M30153 33610
L28988 33610
" />
<path d="M28988 33610
L28988 33035
" />
<path d="M28988 33035
L30153 33035
" />
<path d="M58712 33610
L58712 33035
" />
<path d="M58712 33035
L59877 33035
" />
<path d="M59877 33035
L59877 33610
" />
<path d="M59877 33610
L58712 33610
" />
<path d="M48870 33610
L48870 33035
" />
<path d="M48870 33035
L50035 33035
" />
<path d="M50035 33035
L50035 33610
" />
<path d="M50035 33610
L48870 33610
" />
<path d="M67429 36818
L68003 36818
" />
<path d="M68003 36818
L68003 37984
" />
<path d="M68003 37984
L67429 37984
" />
<path d="M67429 37984
L67429 36818
" />
<path d="M67429 72251
L68003 72251
" />
<path d="M68003 72251
L68003 73417
" />
<path d="M68003 73417
L67429 73417
" />
<path d="M67429 73417
L67429 72251
" />
<path d="M42314 12114
L42314 12688
" />
<path d="M42314 12688
L41149 12688
" />
<path d="M41149 12688
L41149 12114
" />
<path d="M41149 12114
L42314 12114
" />
<path d="M42118 13885
L42118 14460
" />
<path d="M42118 14460
L40952 14460
" />
<path d="M40952 14460
L40952 13885
" />
<path d="M40952 13885
L42118 13885
" />
<path d="M28944 24106
L28944 23531
" />
<path d="M28944 23531
L30110 23531
" />
<path d="M30110 23531
L30110 24106
" />
<path d="M30110 24106
L28944 24106
" />
<path d="M48740 53515
L48740 52940
" />
<path d="M48740 52940
L49905 52940
" />
<path d="M49905 52940
L49905 53515
" />
<path d="M49905 53515
L48740 53515
" />
<path d="M38787 24106
L38787 23531
" />
<path d="M38787 23531
L39952 23531
" />
<path d="M39952 23531
L39952 24106
" />
<path d="M39952 24106
L38787 24106
" />
<path d="M58779 53318
L58779 52744
" />
<path d="M58779 52744
L59944 52744
" />
<path d="M59944 52744
L59944 53318
" />
<path d="M59944 53318
L58779 53318
" />
<path d="M48718 24106
L48718 23531
" />
<path d="M48718 23531
L49883 23531
" />
<path d="M49883 23531
L49883 24106
" />
<path d="M49883 24106
L48718 24106
" />
<path d="M28893 63216
L28893 62641
" />
<path d="M28893 62641
L30059 62641
" />
<path d="M30059 62641
L30059 63216
" />
<path d="M30059 63216
L28893 63216
" />
<path d="M59834 23531
L59834 24106
" />
<path d="M59834 24106
L58669 24106
" />
<path d="M58669 24106
L58669 23531
" />
<path d="M58669 23531
L59834 23531
" />
<path d="M38736 63216
L38736 62641
" />
<path d="M38736 62641
L39901 62641
" />
<path d="M39901 62641
L39901 63216
" />
<path d="M39901 63216
L38736 63216
" />
<path d="M48775 63216
L48775 62641
" />
<path d="M48775 62641
L49940 62641
" />
<path d="M49940 62641
L49940 63216
" />
<path d="M49940 63216
L48775 63216
" />
<path d="M58618 63216
L58618 62641
" />
<path d="M58618 62641
L59783 62641
" />
<path d="M59783 62641
L59783 63216
" />
<path d="M59783 63216
L58618 63216
" />
<path d="M28944 72948
L28944 72374
" />
<path d="M28944 72374
L30110 72374
" />
<path d="M30110 72374
L30110 72948
" />
<path d="M30110 72948
L28944 72948
" />
<path d="M38787 73145
L38787 72570
" />
<path d="M38787 72570
L39952 72570
" />
<path d="M39952 72570
L39952 73145
" />
<path d="M39952 73145
L38787 73145
" />
<path d="M58535 72940
L58535 72366
" />
<path d="M58535 72366
L59700 72366
" />
<path d="M59700 72366
L59700 72940
" />
<path d="M59700 72940
L58535 72940
" />
<path d="M48629 72948
L48629 72374
" />
<path d="M48629 72374
L49795 72374
" />
<path d="M49795 72374
L49795 72948
" />
<path d="M49795 72948
L48629 72948
" />
<path d="M58472 82976
L58472 82401
" />
<path d="M58472 82401
L59637 82401
" />
<path d="M59637 82401
L59637 82976
" />
<path d="M59637 82976
L58472 82976
" />
<path d="M28905 82976
L28905 82401
" />
<path d="M28905 82401
L30070 82401
" />
<path d="M30070 82401
L30070 82976
" />
<path d="M30070 82976
L28905 82976
" />
<path d="M29055 53515
L29055 52940
" />
<path d="M29055 52940
L30220 52940
" />
<path d="M30220 52940
L30220 53515
" />
<path d="M30220 53515
L29055 53515
" />
<path d="M38748 82976
L38748 82401
" />
<path d="M38748 82401
L39913 82401
" />
<path d="M39913 82401
L39913 82976
" />
<path d="M39913 82976
L38748 82976
" />
<path d="M38897 53515
L38897 52940
" />
<path d="M38897 52940
L40062 52940
" />
<path d="M40062 52940
L40062 53515
" />
<path d="M40062 53515
L38897 53515
" />
<path d="M48787 82976
L48787 82401
" />
<path d="M48787 82401
L49952 82401
" />
<path d="M49952 82401
L49952 82976
" />
<path d="M49952 82976
L48787 82976
" />
<path d="M39594 42881
L40169 42881
" />
<path d="M40169 42881
L40169 44047
" />
<path d="M40169 44047
L39594 44047
" />
<path d="M39594 44047
L39594 42881
" />
<path d="M49122 42842
L49696 42842
" />
<path d="M49696 42842
L49696 44007
" />
<path d="M49696 44007
L49122 44007
" />
<path d="M49122 44007
L49122 42842
" />
</g>
<g style="fill:#000000; fill-opacity:0.0; 
stroke:#000000; stroke-width:47.2441; stroke-opacity:1; 
stroke-linecap:round; stroke-linejoin:round;">
<path d="M38685 20370
L38685 19000
" />
<path d="M40055 19000
L40055 20370
" />
<path d="M40055 20370
L38685 20370
" />
<path d="M40055 19000
L38685 19000
" />
<path d="M48527 20370
L48527 19000
" />
<path d="M49897 19000
L49897 20370
" />
<path d="M49897 20370
L48527 20370
" />
<path d="M49897 19000
L48527 19000
" />
<path d="M58370 20370
L58370 19000
" />
<path d="M59740 19000
L59740 20370
" />
<path d="M59740 20370
L58370 20370
" />
<path d="M59740 19000
L58370 19000
" />
<path d="M28842 30212
L28842 28842
" />
<path d="M30212 28842
L30212 30212
" />
<path d="M30212 30212
L28842 30212
" />
<path d="M30212 28842
L28842 28842
" />
<path d="M38685 30212
L38685 28842
" />
<path d="M40055 28842
L40055 30212
" />
<path d="M40055 30212
L38685 30212
" />
<path d="M40055 28842
L38685 28842
" />
<path d="M48527 30212
L48527 28842
" />
<path d="M49897 28842
L49897 30212
" />
<path d="M49897 30212
L48527 30212
" />
<path d="M49897 28842
L48527 28842
" />
<path d="M58370 30212
L58370 28842
" />
<path d="M59740 28842
L59740 30212
" />
<path d="M59740 30212
L58370 30212
" />
<path d="M59740 28842
L58370 28842
" />
<path d="M58370 69582
L58370 68212
" />
<path d="M59740 68212
L59740 69582
" />
<path d="M59740 69582
L58370 69582
" />
<path d="M59740 68212
L58370 68212
" />
<path d="M58370 79425
L58370 78055
" />
<path d="M59740 78055
L59740 79425
" />
<path d="M59740 79425
L58370 79425
" />
<path d="M59740 78055
L58370 78055
" />
<path d="M28842 49897
L28842 48527
" />
<path d="M30212 48527
L30212 49897
" />
<path d="M30212 49897
L28842 49897
" />
<path d="M30212 48527
L28842 48527
" />
<path d="M38685 49897
L38685 48527
" />
<path d="M40055 48527
L40055 49897
" />
<path d="M40055 49897
L38685 49897
" />
<path d="M40055 48527
L38685 48527
" />
<path d="M48527 49897
L48527 48527
" />
<path d="M49897 48527
L49897 49897
" />
<path d="M49897 49897
L48527 49897
" />
<path d="M49897 48527
L48527 48527
" />
<path d="M58370 49897
L58370 48527
" />
<path d="M59740 48527
L59740 49897
" />
<path d="M59740 49897
L58370 49897
" />
<path d="M59740 48527
L58370 48527
" />
<path d="M28842 59740
L28842 58370
" />
<path d="M30212 58370
L30212 59740
" />
<path d="M30212 59740
L28842 59740
" />
<path d="M30212 58370
L28842 58370
" />
<path d="M38685 59740
L38685 58370
" />
<path d="M40055 58370
L40055 59740
" />
<path d="M40055 59740
L38685 59740
" />
<path d="M40055 58370
L38685 58370
" />
<path d="M48527 59740
L48527 58370
" />
<path d="M49897 58370
L49897 59740
" />
<path d="M49897 59740
L48527 59740
" />
<path d="M49897 58370
L48527 58370
" />
<path d="M58370 59740
L58370 58370
" />
<path d="M59740 58370
L59740 59740
" />
<path d="M59740 59740
L58370 59740
" />
<path d="M59740 58370
L58370 58370
" />
<path d="M28842 69582
L28842 68212
" />
<path d="M30212 68212
L30212 69582
" />
<path d="M30212 69582
L28842 69582
" />
<path d="M30212 68212
L28842 68212
" />
<path d="M38685 69582
L38685 68212
" />
<path d="M40055 68212
L40055 69582
" />
<path d="M40055 69582
L38685 69582
" />
<path d="M40055 68212
L38685 68212
" />
<path d="M48527 69582
L48527 68212
" />
<path d="M49897 68212
L49897 69582
" />
<path d="M49897 69582
L48527 69582
" />
<path d="M49897 68212
L48527 68212
" />
<path d="M28842 79425
L28842 78055
" />
<path d="M30212 78055
L30212 79425
" />
<path d="M30212 79425
L28842 79425
" />
<path d="M30212 78055
L28842 78055
" />
<path d="M38685 79425
L38685 78055
" />
<path d="M40055 78055
L40055 79425
" />
<path d="M40055 79425
L38685 79425
" />
<path d="M40055 78055
L38685 78055
" />
<path d="M48527 79425
L48527 78055
" />
<path d="M49897 78055
L49897 79425
" />
<path d="M49897 79425
L48527 79425
" />
<path d="M49897 78055
L48527 78055
" />
<path d="M28842 20370
L28842 19000
" />
<path d="M30212 19000
L30212 20370
" />
<path d="M30212 20370
L28842 20370
" />
<path d="M30212 19000
L28842 19000
" />
</g>
<g style="fill:#000000; fill-opacity:0.0; 
stroke:#000000; stroke-width:19.685; stroke-opacity:1; 
stroke-linecap:round; stroke-linejoin:round;">
<path d="M47440 13090
L50984 13090
" />
<path d="M50984 13090
L50984 14468
" />
<path d="M50984 14468
L47440 14468
" />
<path d="M47440 14468
L47440 13090
" />
<path d="M47342 36035
L47342 42925
" />
<path d="M47342 36035
L41279 36035
" />
<path d="M41279 42925
L47342 42925
" />
<path d="M41279 42925
L41279 36035
" />
<path d="M65696 23330
L66271 23330
" />
<path d="M66271 23330
L66271 24496
" />
<path d="M66271 24496
L65696 24496
" />
<path d="M65696 24496
L65696 23330
" />
<path d="M41055 44066
L40480 44066
" />
<path d="M40480 44066
L40480 42901
" />
<path d="M40480 42901
L41055 42901
" />
<path d="M41055 42901
L41055 44066
" />
<path d="M41897 44149
L41322 44149
" />
<path d="M41322 44149
L41322 42984
" />
<path d="M41322 42984
L41897 42984
" />
<path d="M41897 42984
L41897 44149
" />
<path d="M48318 44007
L47744 44007
" />
<path d="M47744 44007
L47744 42842
" />
<path d="M47744 42842
L48318 42842
" />
<path d="M48318 42842
L48318 44007
" />
<path d="M48413 42842
L48988 42842
" />
<path d="M48988 42842
L48988 44007
" />
<path d="M48988 44007
L48413 44007
" />
<path d="M48413 44007
L48413 42842
" />
<path d="M32240 24153
L31665 24153
" />
<path d="M31665 24153
L31665 22988
" />
<path d="M31665 22988
L32240 22988
" />
<path d="M32240 22988
L32240 24153
" />
<path d="M42500 11811
L42500 14566
" />
<path d="M42500 14566
L46870 14566
" />
<path d="M46870 14566
L46870 11811
" />
<path d="M46870 11811
L42500 11811
" />
<g >
</g>
<g >
</g>
<g >
</g>
<g >
</g>
<g >
</g>
<g >
</g>
<g >
</g>
<g >
</g>
<g >
</g>
<g >
</g>
<g >
</g>
<g >
</g>
<g >
</g>
<g >
</g>
<g >
</g>
<g >
</g>
<g >
</g>
<g >
</g>
<g >
</g>
<g >
</g>
<g >
</g>
<g >
</g>
<g >
</g>
<g >
</g>
<g >
</g>
<g >
</g>
<g >
</g>
<g >
</g>
<g >
</g>
<g >
</g>
<g >
</g>
<g >
</g>
<g >
</g>
<g >
</g>
<g >
</g>
<g >
</g>
<g >
</g>
<g >
</g>
<g >
</g>
<g >
</g>
<g >
</g>
<g >
</g>
<g >
</g>
<g >
</g>
<g >
</g>
<g >
</g>
<g >
</g>
<g >
</g>
<g >
</g>
<g >
</g>
<g >
</g>
<g >
</g>
<g >
</g>
<g >
</g>
<g >
</g>
<g >
</g>
<g >
</g>
<g >
</g>
<g >
</g>
<g >
</g>
<g >
</g>
<g >
</g>
<g >
</g>
<g >
</g>
<g >
</g>
<g >
</g>
<g >
</g>
<g >
</g>
<g >
</g>
<g >
</g>
<g >
</g>
<g >
</g>
<g >
</g>
<g >
</g>
<g >
</g>
<g >
</g>
<g >
</g>
<g >
</g>
<g >
</g>
<g >
</g>
<g >
</g>
<g >
</g>
<g >
</g>
<g >
</g>
<g >
</g>
<g >
</g>
<g >
</g>
<g >
</g>
<g >
</g>
<g >
</g>
<g >
</g>
<g >
</g>
<g >
</g>
<g >
</g>
<g >
</g>
<g >
</g>
<g >
</g>
<g >
</g>
<g >
</g>
<g >
</g>
<g >
</g>
<g >
</g>
<g >
</g>
</g> 
</svg>
