<?xml version="1.0" standalone="no"?>
 <!DOCTYPE svg PUBLIC "-//W3C//DTD SVG 1.1//EN" 
 "http://www.w3.org/Graphics/SVG/1.1/DTD/svg11.dtd"> 
<svg
  xmlns:svg="http://www.w3.org/2000/svg"
  xmlns="http://www.w3.org/2000/svg"
  xmlns:xlink="http://www.w3.org/1999/xlink"
  version="1.1"
  width="21.000720cm" height="29.700220cm" viewBox="0 0 82680 116930">
<title>SVG Picture created as Faduino-1-F_SilkS.svg date 2021/11/30 15:20:04 </title>
  <desc>Picture generated by PCBNEW </desc>
<g style="fill:#000000; fill-opacity:1;stroke:#000000; stroke-opacity:1;
stroke-linecap:round; stroke-linejoin:round;"
 transform="translate(0 0) scale(1 1)">
</g>
<g style="fill:#000000; fill-opacity:0.0; 
stroke:#000000; stroke-width:-0.000393701; stroke-opacity:1; 
stroke-linecap:round; stroke-linejoin:round;">
</g>
<g style="fill:#000000; fill-opacity:0.0; 
stroke:#000000; stroke-width:47.2441; stroke-opacity:1; 
stroke-linecap:round; stroke-linejoin:round;">
<circle cx="67559.1" cy="69212.6" r="88.0343" /> 
</g>
<g style="fill:#000000; fill-opacity:0.0; 
stroke:#000000; stroke-width:59.0551; stroke-opacity:1; 
stroke-linecap:round; stroke-linejoin:round;">
<path d="M67844 68946
L67755 68946
" />
<path d="M67844 71210
L67726 71210
" />
<path d="M64438 71210
L64557 71210
" />
<path d="M64438 68946
L64557 68946
" />
<path d="M67844 68946
L67844 71210
" />
<path d="M64438 68946
L64438 71210
" />
<path d="M67755 68946
L67755 68316
" />
</g>
<g style="fill:#000000; fill-opacity:0.0; 
stroke:#000000; stroke-width:47.2441; stroke-opacity:1; 
stroke-linecap:round; stroke-linejoin:round;">
<circle cx="67559.1" cy="33779.5" r="88.0343" /> 
</g>
<g style="fill:#000000; fill-opacity:0.0; 
stroke:#000000; stroke-width:59.0551; stroke-opacity:1; 
stroke-linecap:round; stroke-linejoin:round;">
<path d="M67844 33513
L67755 33513
" />
<path d="M67844 35777
L67726 35777
" />
<path d="M64438 35777
L64557 35777
" />
<path d="M64438 33513
L64557 33513
" />
<path d="M67844 33513
L67844 35777
" />
<path d="M64438 33513
L64438 35777
" />
<path d="M67755 33513
L67755 32883
" />
</g>
<g style="fill:#000000; fill-opacity:0.0; 
stroke:#000000; stroke-width:47.2441; stroke-opacity:1; 
stroke-linecap:round; stroke-linejoin:round;">
<path d="M39554 33122
L39665 33122
" />
<path d="M39554 33523
L39665 33523
" />
<path d="M29626 33523
L29515 33523
" />
<path d="M29626 33122
L29515 33122
" />
<path d="M59239 33122
L59350 33122
" />
<path d="M59239 33523
L59350 33523
" />
<path d="M49397 33122
L49508 33122
" />
<path d="M49397 33523
L49508 33523
" />
<path d="M67917 37346
L67917 37456
" />
<path d="M67515 37346
L67515 37456
" />
<path d="M67917 72779
L67917 72889
" />
<path d="M67515 72779
L67515 72889
" />
<path d="M41787 12602
L41676 12602
" />
<path d="M41787 12200
L41676 12200
" />
<path d="M41590 14374
L41480 14374
" />
<path d="M41590 13972
L41480 13972
" />
<path d="M29472 23618
L29582 23618
" />
<path d="M29472 24019
L29582 24019
" />
<path d="M49267 53027
L49378 53027
" />
<path d="M49267 53429
L49378 53429
" />
<path d="M39314 23618
L39425 23618
" />
<path d="M39314 24019
L39425 24019
" />
<path d="M59306 52830
L59417 52830
" />
<path d="M59306 53232
L59417 53232
" />
<path d="M49245 23618
L49356 23618
" />
<path d="M49245 24019
L49356 24019
" />
<path d="M29421 62728
L29531 62728
" />
<path d="M29421 63129
L29531 63129
" />
<path d="M59307 24019
L59196 24019
" />
<path d="M59307 23618
L59196 23618
" />
<path d="M39263 62728
L39374 62728
" />
<path d="M39263 63129
L39374 63129
" />
<path d="M49302 62728
L49413 62728
" />
<path d="M49302 63129
L49413 63129
" />
<path d="M59145 62728
L59256 62728
" />
<path d="M59145 63129
L59256 63129
" />
<path d="M29472 72460
L29582 72460
" />
<path d="M29472 72862
L29582 72862
" />
<path d="M39314 72657
L39425 72657
" />
<path d="M39314 73059
L39425 73059
" />
<path d="M59062 72452
L59173 72452
" />
<path d="M59062 72854
L59173 72854
" />
<path d="M49157 72460
L49267 72460
" />
<path d="M49157 72862
L49267 72862
" />
<path d="M58999 82488
L59110 82488
" />
<path d="M58999 82889
L59110 82889
" />
<path d="M29432 82488
L29543 82488
" />
<path d="M29432 82889
L29543 82889
" />
<path d="M29582 53027
L29693 53027
" />
<path d="M29582 53429
L29693 53429
" />
<path d="M39275 82488
L39386 82488
" />
<path d="M39275 82889
L39386 82889
" />
<path d="M39424 53027
L39535 53027
" />
<path d="M39424 53429
L39535 53429
" />
<path d="M49314 82488
L49425 82488
" />
<path d="M49314 82889
L49425 82889
" />
<path d="M40082 43409
L40082 43519
" />
<path d="M39681 43409
L39681 43519
" />
<path d="M49610 43369
L49610 43480
" />
<path d="M49208 43369
L49208 43480
" />
<path d="M40055 19303
L39751 19000
" />
<path d="M39468 20370
L39271 20370
" />
<path d="M38779 20370
L38685 20370
" />
<path d="M38685 20370
L38685 19000
" />
<path d="M38685 19000
L38779 19000
" />
<path d="M39960 19000
L40055 19000
" />
<path d="M40055 19000
L40055 20370
" />
<path d="M40055 20370
L39960 20370
" />
<path d="M39464 19000
L39267 19000
" />
<path d="M49897 19303
L49594 19000
" />
<path d="M49311 20370
L49114 20370
" />
<path d="M48622 20370
L48527 20370
" />
<path d="M48527 20370
L48527 19000
" />
<path d="M48527 19000
L48622 19000
" />
<path d="M49803 19000
L49897 19000
" />
<path d="M49897 19000
L49897 20370
" />
<path d="M49897 20370
L49803 20370
" />
<path d="M49307 19000
L49110 19000
" />
<path d="M59740 19303
L59437 19000
" />
<path d="M59153 20370
L58956 20370
" />
<path d="M58464 20370
L58370 20370
" />
<path d="M58370 20370
L58370 19000
" />
<path d="M58370 19000
L58464 19000
" />
<path d="M59645 19000
L59740 19000
" />
<path d="M59740 19000
L59740 20370
" />
<path d="M59740 20370
L59645 20370
" />
<path d="M59149 19000
L58952 19000
" />
<path d="M30212 29145
L29909 28842
" />
<path d="M29625 30212
L29429 30212
" />
<path d="M28937 30212
L28842 30212
" />
<path d="M28842 30212
L28842 28842
" />
<path d="M28842 28842
L28937 28842
" />
<path d="M30118 28842
L30212 28842
" />
<path d="M30212 28842
L30212 30212
" />
<path d="M30212 30212
L30118 30212
" />
<path d="M29622 28842
L29425 28842
" />
<path d="M40055 29145
L39751 28842
" />
<path d="M39468 30212
L39271 30212
" />
<path d="M38779 30212
L38685 30212
" />
<path d="M38685 30212
L38685 28842
" />
<path d="M38685 28842
L38779 28842
" />
<path d="M39960 28842
L40055 28842
" />
<path d="M40055 28842
L40055 30212
" />
<path d="M40055 30212
L39960 30212
" />
<path d="M39464 28842
L39267 28842
" />
<path d="M49897 29145
L49594 28842
" />
<path d="M49311 30212
L49114 30212
" />
<path d="M48622 30212
L48527 30212
" />
<path d="M48527 30212
L48527 28842
" />
<path d="M48527 28842
L48622 28842
" />
<path d="M49803 28842
L49897 28842
" />
<path d="M49897 28842
L49897 30212
" />
<path d="M49897 30212
L49803 30212
" />
<path d="M49307 28842
L49110 28842
" />
<path d="M59740 29145
L59437 28842
" />
<path d="M59153 30212
L58956 30212
" />
<path d="M58464 30212
L58370 30212
" />
<path d="M58370 30212
L58370 28842
" />
<path d="M58370 28842
L58464 28842
" />
<path d="M59645 28842
L59740 28842
" />
<path d="M59740 28842
L59740 30212
" />
<path d="M59740 30212
L59645 30212
" />
<path d="M59149 28842
L58952 28842
" />
<path d="M59740 68515
L59437 68212
" />
<path d="M59153 69582
L58956 69582
" />
<path d="M58464 69582
L58370 69582
" />
<path d="M58370 69582
L58370 68212
" />
<path d="M58370 68212
L58464 68212
" />
<path d="M59645 68212
L59740 68212
" />
<path d="M59740 68212
L59740 69582
" />
<path d="M59740 69582
L59645 69582
" />
<path d="M59149 68212
L58952 68212
" />
<path d="M59740 78358
L59437 78055
" />
<path d="M59153 79425
L58956 79425
" />
<path d="M58464 79425
L58370 79425
" />
<path d="M58370 79425
L58370 78055
" />
<path d="M58370 78055
L58464 78055
" />
<path d="M59645 78055
L59740 78055
" />
<path d="M59740 78055
L59740 79425
" />
<path d="M59740 79425
L59645 79425
" />
<path d="M59149 78055
L58952 78055
" />
<path d="M30212 48830
L29909 48527
" />
<path d="M29625 49897
L29429 49897
" />
<path d="M28937 49897
L28842 49897
" />
<path d="M28842 49897
L28842 48527
" />
<path d="M28842 48527
L28937 48527
" />
<path d="M30118 48527
L30212 48527
" />
<path d="M30212 48527
L30212 49897
" />
<path d="M30212 49897
L30118 49897
" />
<path d="M29622 48527
L29425 48527
" />
<path d="M40055 48830
L39751 48527
" />
<path d="M39468 49897
L39271 49897
" />
<path d="M38779 49897
L38685 49897
" />
<path d="M38685 49897
L38685 48527
" />
<path d="M38685 48527
L38779 48527
" />
<path d="M39960 48527
L40055 48527
" />
<path d="M40055 48527
L40055 49897
" />
<path d="M40055 49897
L39960 49897
" />
<path d="M39464 48527
L39267 48527
" />
<path d="M49897 48830
L49594 48527
" />
<path d="M49311 49897
L49114 49897
" />
<path d="M48622 49897
L48527 49897
" />
<path d="M48527 49897
L48527 48527
" />
<path d="M48527 48527
L48622 48527
" />
<path d="M49803 48527
L49897 48527
" />
<path d="M49897 48527
L49897 49897
" />
<path d="M49897 49897
L49803 49897
" />
<path d="M49307 48527
L49110 48527
" />
<path d="M59740 48830
L59437 48527
" />
<path d="M59153 49897
L58956 49897
" />
<path d="M58464 49897
L58370 49897
" />
<path d="M58370 49897
L58370 48527
" />
<path d="M58370 48527
L58464 48527
" />
<path d="M59645 48527
L59740 48527
" />
<path d="M59740 48527
L59740 49897
" />
<path d="M59740 49897
L59645 49897
" />
<path d="M59149 48527
L58952 48527
" />
<path d="M30212 58673
L29909 58370
" />
<path d="M29625 59740
L29429 59740
" />
<path d="M28937 59740
L28842 59740
" />
<path d="M28842 59740
L28842 58370
" />
<path d="M28842 58370
L28937 58370
" />
<path d="M30118 58370
L30212 58370
" />
<path d="M30212 58370
L30212 59740
" />
<path d="M30212 59740
L30118 59740
" />
<path d="M29622 58370
L29425 58370
" />
<path d="M40055 58673
L39751 58370
" />
<path d="M39468 59740
L39271 59740
" />
<path d="M38779 59740
L38685 59740
" />
<path d="M38685 59740
L38685 58370
" />
<path d="M38685 58370
L38779 58370
" />
<path d="M39960 58370
L40055 58370
" />
<path d="M40055 58370
L40055 59740
" />
<path d="M40055 59740
L39960 59740
" />
<path d="M39464 58370
L39267 58370
" />
<path d="M49897 58673
L49594 58370
" />
<path d="M49311 59740
L49114 59740
" />
<path d="M48622 59740
L48527 59740
" />
<path d="M48527 59740
L48527 58370
" />
<path d="M48527 58370
L48622 58370
" />
<path d="M49803 58370
L49897 58370
" />
<path d="M49897 58370
L49897 59740
" />
<path d="M49897 59740
L49803 59740
" />
<path d="M49307 58370
L49110 58370
" />
<path d="M59740 58673
L59437 58370
" />
<path d="M59153 59740
L58956 59740
" />
<path d="M58464 59740
L58370 59740
" />
<path d="M58370 59740
L58370 58370
" />
<path d="M58370 58370
L58464 58370
" />
<path d="M59645 58370
L59740 58370
" />
<path d="M59740 58370
L59740 59740
" />
<path d="M59740 59740
L59645 59740
" />
<path d="M59149 58370
L58952 58370
" />
<path d="M30212 68515
L29909 68212
" />
<path d="M29625 69582
L29429 69582
" />
<path d="M28937 69582
L28842 69582
" />
<path d="M28842 69582
L28842 68212
" />
<path d="M28842 68212
L28937 68212
" />
<path d="M30118 68212
L30212 68212
" />
<path d="M30212 68212
L30212 69582
" />
<path d="M30212 69582
L30118 69582
" />
<path d="M29622 68212
L29425 68212
" />
<path d="M40055 68515
L39751 68212
" />
<path d="M39468 69582
L39271 69582
" />
<path d="M38779 69582
L38685 69582
" />
<path d="M38685 69582
L38685 68212
" />
<path d="M38685 68212
L38779 68212
" />
<path d="M39960 68212
L40055 68212
" />
<path d="M40055 68212
L40055 69582
" />
<path d="M40055 69582
L39960 69582
" />
<path d="M39464 68212
L39267 68212
" />
<path d="M49897 68515
L49594 68212
" />
<path d="M49311 69582
L49114 69582
" />
<path d="M48622 69582
L48527 69582
" />
<path d="M48527 69582
L48527 68212
" />
<path d="M48527 68212
L48622 68212
" />
<path d="M49803 68212
L49897 68212
" />
<path d="M49897 68212
L49897 69582
" />
<path d="M49897 69582
L49803 69582
" />
<path d="M49307 68212
L49110 68212
" />
<path d="M30212 78358
L29909 78055
" />
<path d="M29625 79425
L29429 79425
" />
<path d="M28937 79425
L28842 79425
" />
<path d="M28842 79425
L28842 78055
" />
<path d="M28842 78055
L28937 78055
" />
<path d="M30118 78055
L30212 78055
" />
<path d="M30212 78055
L30212 79425
" />
<path d="M30212 79425
L30118 79425
" />
<path d="M29622 78055
L29425 78055
" />
<path d="M40055 78358
L39751 78055
" />
<path d="M39468 79425
L39271 79425
" />
<path d="M38779 79425
L38685 79425
" />
<path d="M38685 79425
L38685 78055
" />
<path d="M38685 78055
L38779 78055
" />
<path d="M39960 78055
L40055 78055
" />
<path d="M40055 78055
L40055 79425
" />
<path d="M40055 79425
L39960 79425
" />
<path d="M39464 78055
L39267 78055
" />
<path d="M49897 78358
L49594 78055
" />
<path d="M49311 79425
L49114 79425
" />
<path d="M48622 79425
L48527 79425
" />
<path d="M48527 79425
L48527 78055
" />
<path d="M48527 78055
L48622 78055
" />
<path d="M49803 78055
L49897 78055
" />
<path d="M49897 78055
L49897 79425
" />
<path d="M49897 79425
L49803 79425
" />
<path d="M49307 78055
L49110 78055
" />
<path d="M30212 19303
L29909 19000
" />
<path d="M29625 20370
L29429 20370
" />
<path d="M28937 20370
L28842 20370
" />
<path d="M28842 20370
L28842 19000
" />
<path d="M28842 19000
L28937 19000
" />
<path d="M30118 19000
L30212 19000
" />
<path d="M30212 19000
L30212 20370
" />
<path d="M30212 20370
L30118 20370
" />
<path d="M29622 19000
L29425 19000
" />
<path d="M47480 13129
L47480 14429
" />
<path d="M47480 14429
L50196 14429
" />
<path d="M47480 13129
L50196 13129
" />
<circle cx="44311" cy="39381.9" r="1181.1" /> 
<path d="M41988 38594
L41988 36980
" />
<path d="M46633 36980
L46633 38594
" />
<path d="M46633 40169
L46633 41783
" />
<path d="M41988 40169
L41988 41783
" />
<path d="M41988 41783
L46633 41783
" />
<path d="M42814 42334
L42696 42452
" />
<path d="M42696 42452
L42696 42216
" />
<path d="M42696 42216
L42814 42334
" />
<path d="M41988 36980
L42933 36980
" />
<path d="M43799 36980
L44822 36980
" />
<path d="M45688 36980
L46633 36980
" />
<path d="M44114 39381
L44507 39381
" />
<path d="M44311 39578
L44311 39185
" />
<path d="M66189 23819
L66189 24006
" />
<path d="M65778 23819
L65778 24006
" />
<path d="M40562 43577
L40562 43390
" />
<path d="M40973 43577
L40973 43390
" />
<path d="M41404 43660
L41404 43473
" />
<path d="M41815 43660
L41815 43473
" />
<path d="M47825 43518
L47825 43331
" />
<path d="M48237 43518
L48237 43331
" />
<path d="M48906 43331
L48906 43518
" />
<path d="M48495 43331
L48495 43518
" />
<path d="M31747 23664
L31747 23477
" />
<path d="M32158 23664
L32158 23477
" />
<path d="M44303 11830
L43712 11830
" />
<path d="M43712 11830
L43712 11937
" />
<path d="M43712 11937
L42598 11937
" />
<path d="M44303 14547
L43712 14547
" />
<path d="M43712 14547
L43712 14440
" />
<path d="M43712 14440
L43279 14440
" />
<path d="M24606 14763
L34448 14763
" />
<path d="M24606 24606
L24606 14763
" />
<path d="M34448 24606
L24606 24606
" />
<path d="M34448 14763
L34448 24606
" />
<path d="M44291 14763
L44291 24606
" />
<path d="M44291 24606
L34448 24606
" />
<path d="M34448 24606
L34448 14763
" />
<path d="M34448 14763
L44291 14763
" />
<path d="M44291 14763
L54133 14763
" />
<path d="M44291 24606
L44291 14763
" />
<path d="M54133 24606
L44291 24606
" />
<path d="M54133 14763
L54133 24606
" />
<path d="M63976 14763
L63976 24606
" />
<path d="M63976 24606
L54133 24606
" />
<path d="M54133 24606
L54133 14763
" />
<path d="M54133 14763
L63976 14763
" />
<path d="M24606 24606
L34448 24606
" />
<path d="M24606 34448
L24606 24606
" />
<path d="M34448 34448
L24606 34448
" />
<path d="M34448 24606
L34448 34448
" />
<path d="M44291 24606
L44291 34448
" />
<path d="M44291 34448
L34448 34448
" />
<path d="M34448 34448
L34448 24606
" />
<path d="M34448 24606
L44291 24606
" />
<path d="M44291 24606
L54133 24606
" />
<path d="M44291 34448
L44291 24606
" />
<path d="M54133 34448
L44291 34448
" />
<path d="M54133 24606
L54133 34448
" />
<path d="M63976 24606
L63976 34448
" />
<path d="M63976 34448
L54133 34448
" />
<path d="M54133 34448
L54133 24606
" />
<path d="M54133 24606
L63976 24606
" />
<path d="M63976 63976
L63976 73818
" />
<path d="M63976 73818
L54133 73818
" />
<path d="M54133 73818
L54133 63976
" />
<path d="M54133 63976
L63976 63976
" />
<path d="M54133 73818
L63976 73818
" />
<path d="M54133 83661
L54133 73818
" />
<path d="M63976 83661
L54133 83661
" />
<path d="M63976 73818
L63976 83661
" />
<path d="M24606 44291
L34448 44291
" />
<path d="M24606 54133
L24606 44291
" />
<path d="M34448 54133
L24606 54133
" />
<path d="M34448 44291
L34448 54133
" />
<path d="M44291 44291
L44291 54133
" />
<path d="M44291 54133
L34448 54133
" />
<path d="M34448 54133
L34448 44291
" />
<path d="M34448 44291
L44291 44291
" />
<path d="M44291 44291
L54133 44291
" />
<path d="M44291 54133
L44291 44291
" />
<path d="M54133 54133
L44291 54133
" />
<path d="M54133 44291
L54133 54133
" />
<path d="M63976 44291
L63976 54133
" />
<path d="M63976 54133
L54133 54133
" />
<path d="M54133 54133
L54133 44291
" />
<path d="M54133 44291
L63976 44291
" />
<path d="M34448 54133
L34448 63976
" />
<path d="M34448 63976
L24606 63976
" />
<path d="M24606 63976
L24606 54133
" />
<path d="M24606 54133
L34448 54133
" />
<path d="M34448 54133
L44291 54133
" />
<path d="M34448 63976
L34448 54133
" />
<path d="M44291 63976
L34448 63976
" />
<path d="M44291 54133
L44291 63976
" />
<path d="M54133 54133
L54133 63976
" />
<path d="M54133 63976
L44291 63976
" />
<path d="M44291 63976
L44291 54133
" />
<path d="M44291 54133
L54133 54133
" />
<path d="M54133 54133
L63976 54133
" />
<path d="M54133 63976
L54133 54133
" />
<path d="M63976 63976
L54133 63976
" />
<path d="M63976 54133
L63976 63976
" />
<path d="M34448 63976
L34448 73818
" />
<path d="M34448 73818
L24606 73818
" />
<path d="M24606 73818
L24606 63976
" />
<path d="M24606 63976
L34448 63976
" />
<path d="M34448 63976
L44291 63976
" />
<path d="M34448 73818
L34448 63976
" />
<path d="M44291 73818
L34448 73818
" />
<path d="M44291 63976
L44291 73818
" />
<path d="M54133 63976
L54133 73818
" />
<path d="M54133 73818
L44291 73818
" />
<path d="M44291 73818
L44291 63976
" />
<path d="M44291 63976
L54133 63976
" />
<path d="M24606 73818
L34448 73818
" />
<path d="M24606 83661
L24606 73818
" />
<path d="M34448 83661
L24606 83661
" />
<path d="M34448 73818
L34448 83661
" />
<path d="M44291 73818
L44291 83661
" />
<path d="M44291 83661
L34448 83661
" />
<path d="M34448 83661
L34448 73818
" />
<path d="M34448 73818
L44291 73818
" />
<path d="M44291 73818
L54133 73818
" />
<path d="M44291 83661
L44291 73818
" />
<path d="M54133 83661
L44291 83661
" />
<path d="M54133 73818
L54133 83661
" />
</g>
<g style="fill:#000000; fill-opacity:0.0; 
stroke:#000000; stroke-width:59.0551; stroke-opacity:1; 
stroke-linecap:round; stroke-linejoin:round;">
<g transform="rotate(-90 68208.7 70078.7)">
<text x="68208.7" y="70275.6"
textLength="1876.55" font-size="524.934" lengthAdjust="spacingAndGlyphs"
text-anchor="middle" opacity="0">Mux_2</text>
</g>
<path d="M68386 70884
L67993 70884
L68274 70753
L67993 70622
L68386 70622
" />
<path d="M68124 70266
L68386 70266
" />
<path d="M68124 70434
L68330 70434
L68368 70416
L68386 70378
L68386 70322
L68368 70284
L68349 70266
" />
<path d="M68386 70116
L68124 69910
" />
<path d="M68124 70116
L68386 69910
" />
<path d="M68424 69853
L68424 69553
" />
<path d="M68030 69478
L68011 69460
L67993 69422
L67993 69328
L68011 69291
L68030 69272
L68068 69253
L68105 69253
L68161 69272
L68386 69497
L68386 69253
" />
<g transform="rotate(-90 68208.7 34645.7)">
<text x="68208.7" y="34842.5"
textLength="1876.55" font-size="524.934" lengthAdjust="spacingAndGlyphs"
text-anchor="middle" opacity="0">Mux_1</text>
</g>
<path d="M68386 35451
L67993 35451
L68274 35320
L67993 35189
L68386 35189
" />
<path d="M68124 34833
L68386 34833
" />
<path d="M68124 35001
L68330 35001
L68368 34983
L68386 34945
L68386 34889
L68368 34851
L68349 34833
" />
<path d="M68386 34683
L68124 34476
" />
<path d="M68124 34683
L68386 34476
" />
<path d="M68424 34420
L68424 34120
" />
<path d="M68386 33820
L68386 34045
" />
<path d="M68386 33933
L67993 33933
L68049 33970
L68086 34008
L68105 34045
" />
<text x="39610.2" y="32956.7"
textLength="845.426" font-size="524.934" lengthAdjust="spacingAndGlyphs"
text-anchor="middle" opacity="0">C6</text>
<path d="M39544 32900
L39525 32919
L39469 32937
L39432 32937
L39375 32919
L39338 32881
L39319 32844
L39300 32769
L39300 32712
L39319 32637
L39338 32600
L39375 32562
L39432 32544
L39469 32544
L39525 32562
L39544 32581
" />
<path d="M39882 32544
L39807 32544
L39769 32562
L39750 32581
L39713 32637
L39694 32712
L39694 32862
L39713 32900
L39732 32919
L39769 32937
L39844 32937
L39882 32919
L39900 32900
L39919 32862
L39919 32769
L39900 32731
L39882 32712
L39844 32694
L39769 32694
L39732 32712
L39713 32731
L39694 32769
" />
<text x="29570.9" y="34082.7"
textLength="845.426" font-size="524.934" lengthAdjust="spacingAndGlyphs"
text-anchor="middle" opacity="0">C5</text>
<path d="M29505 34026
L29486 34045
L29430 34063
L29392 34063
L29336 34045
L29299 34007
L29280 33970
L29261 33895
L29261 33838
L29280 33763
L29299 33726
L29336 33688
L29392 33670
L29430 33670
L29486 33688
L29505 33707
" />
<path d="M29861 33670
L29673 33670
L29655 33857
L29673 33838
L29711 33820
L29805 33820
L29842 33838
L29861 33857
L29880 33895
L29880 33988
L29861 34026
L29842 34045
L29805 34063
L29711 34063
L29673 34045
L29655 34026
" />
<text x="59295.3" y="32956.7"
textLength="845.426" font-size="524.934" lengthAdjust="spacingAndGlyphs"
text-anchor="middle" opacity="0">C8</text>
<path d="M59229 32900
L59210 32919
L59154 32937
L59117 32937
L59060 32919
L59023 32881
L59004 32844
L58985 32769
L58985 32712
L59004 32637
L59023 32600
L59060 32562
L59117 32544
L59154 32544
L59210 32562
L59229 32581
" />
<path d="M59454 32712
L59417 32694
L59398 32675
L59379 32637
L59379 32619
L59398 32581
L59417 32562
L59454 32544
L59529 32544
L59567 32562
L59585 32581
L59604 32619
L59604 32637
L59585 32675
L59567 32694
L59529 32712
L59454 32712
L59417 32731
L59398 32750
L59379 32787
L59379 32862
L59398 32900
L59417 32919
L59454 32937
L59529 32937
L59567 32919
L59585 32900
L59604 32862
L59604 32787
L59585 32750
L59567 32731
L59529 32712
" />
<text x="49452.8" y="32956.7"
textLength="845.426" font-size="524.934" lengthAdjust="spacingAndGlyphs"
text-anchor="middle" opacity="0">C7</text>
<path d="M49387 32900
L49368 32919
L49312 32937
L49274 32937
L49218 32919
L49180 32881
L49162 32844
L49143 32769
L49143 32712
L49162 32637
L49180 32600
L49218 32562
L49274 32544
L49312 32544
L49368 32562
L49387 32581
" />
<path d="M49518 32544
L49780 32544
L49612 32937
" />
<g transform="rotate(-90 68700.8 38189)">
<text x="68700.8" y="38385.8"
textLength="2645.2" font-size="524.934" lengthAdjust="spacingAndGlyphs"
text-anchor="middle" opacity="0">C_mux_1</text>
</g>
<path d="M68841 39154
L68860 39173
L68878 39229
L68878 39266
L68860 39323
L68822 39360
L68785 39379
L68710 39398
L68653 39398
L68578 39379
L68541 39360
L68503 39323
L68485 39266
L68485 39229
L68503 39173
L68522 39154
" />
<path d="M68916 39079
L68916 38779
" />
<path d="M68878 38685
L68616 38685
" />
<path d="M68653 38685
L68635 38667
L68616 38629
L68616 38573
L68635 38535
L68672 38517
L68878 38517
" />
<path d="M68672 38517
L68635 38498
L68616 38460
L68616 38404
L68635 38367
L68672 38348
L68878 38348
" />
<path d="M68616 37992
L68878 37992
" />
<path d="M68616 38160
L68822 38160
L68860 38142
L68878 38104
L68878 38048
L68860 38010
L68841 37992
" />
<path d="M68878 37842
L68616 37635
" />
<path d="M68616 37842
L68878 37635
" />
<path d="M68916 37579
L68916 37279
" />
<path d="M68878 36979
L68878 37204
" />
<path d="M68878 37092
L68485 37092
L68541 37129
L68578 37167
L68597 37204
" />
<g transform="rotate(-90 66929.1 73622)">
<text x="66929.1" y="73818.9"
textLength="2645.2" font-size="524.934" lengthAdjust="spacingAndGlyphs"
text-anchor="middle" opacity="0">C_mux_2</text>
</g>
<path d="M67069 74587
L67088 74606
L67107 74662
L67107 74700
L67088 74756
L67050 74793
L67013 74812
L66938 74831
L66882 74831
L66807 74812
L66769 74793
L66732 74756
L66713 74700
L66713 74662
L66732 74606
L66751 74587
" />
<path d="M67144 74512
L67144 74212
" />
<path d="M67107 74118
L66844 74118
" />
<path d="M66882 74118
L66863 74100
L66844 74062
L66844 74006
L66863 73968
L66901 73950
L67107 73950
" />
<path d="M66901 73950
L66863 73931
L66844 73893
L66844 73837
L66863 73800
L66901 73781
L67107 73781
" />
<path d="M66844 73425
L67107 73425
" />
<path d="M66844 73593
L67050 73593
L67088 73575
L67107 73537
L67107 73481
L67088 73443
L67069 73425
" />
<path d="M67107 73275
L66844 73068
" />
<path d="M66844 73275
L67107 73068
" />
<path d="M67144 73012
L67144 72712
" />
<path d="M66751 72637
L66732 72619
L66713 72581
L66713 72487
L66732 72450
L66751 72431
L66788 72412
L66826 72412
L66882 72431
L67107 72656
L67107 72412
" />
<text x="39960.6" y="12598.4"
textLength="2457.72" font-size="524.934" lengthAdjust="spacingAndGlyphs"
text-anchor="middle" opacity="0">C_pwr_1</text>
<path d="M39088 12542
L39070 12560
L39013 12579
L38976 12579
L38920 12560
L38882 12523
L38863 12485
L38845 12410
L38845 12354
L38863 12279
L38882 12242
L38920 12204
L38976 12185
L39013 12185
L39070 12204
L39088 12223
" />
<path d="M39163 12617
L39463 12617
" />
<path d="M39557 12317
L39557 12710
" />
<path d="M39557 12335
L39595 12317
L39670 12317
L39707 12335
L39726 12354
L39745 12392
L39745 12504
L39726 12542
L39707 12560
L39670 12579
L39595 12579
L39557 12560
" />
<path d="M39876 12317
L39951 12579
L40026 12392
L40101 12579
L40176 12317
" />
<path d="M40326 12579
L40326 12317
" />
<path d="M40326 12392
L40344 12354
L40363 12335
L40401 12317
L40438 12317
" />
<path d="M40476 12617
L40776 12617
" />
<path d="M41076 12579
L40851 12579
" />
<path d="M40963 12579
L40963 12185
L40926 12242
L40888 12279
L40851 12298
" />
<text x="39566.9" y="14370.1"
textLength="2457.72" font-size="524.934" lengthAdjust="spacingAndGlyphs"
text-anchor="middle" opacity="0">C_pwr_2</text>
<path d="M38695 14313
L38676 14332
L38620 14351
L38582 14351
L38526 14332
L38488 14295
L38470 14257
L38451 14182
L38451 14126
L38470 14051
L38488 14013
L38526 13976
L38582 13957
L38620 13957
L38676 13976
L38695 13995
" />
<path d="M38770 14388
L39070 14388
" />
<path d="M39163 14088
L39163 14482
" />
<path d="M39163 14107
L39201 14088
L39276 14088
L39313 14107
L39332 14126
L39351 14163
L39351 14276
L39332 14313
L39313 14332
L39276 14351
L39201 14351
L39163 14332
" />
<path d="M39482 14088
L39557 14351
L39632 14163
L39707 14351
L39782 14088
" />
<path d="M39932 14351
L39932 14088
" />
<path d="M39932 14163
L39951 14126
L39970 14107
L40007 14088
L40044 14088
" />
<path d="M40082 14388
L40382 14388
" />
<path d="M40457 13995
L40476 13976
L40513 13957
L40607 13957
L40644 13976
L40663 13995
L40682 14032
L40682 14070
L40663 14126
L40438 14351
L40682 14351
" />
<text x="29527.6" y="23452.8"
textLength="845.426" font-size="524.934" lengthAdjust="spacingAndGlyphs"
text-anchor="middle" opacity="0">C1</text>
<path d="M29461 23396
L29443 23415
L29386 23434
L29349 23434
L29293 23415
L29255 23377
L29236 23340
L29218 23265
L29218 23209
L29236 23134
L29255 23096
L29293 23059
L29349 23040
L29386 23040
L29443 23059
L29461 23077
" />
<path d="M29836 23434
L29611 23434
" />
<path d="M29724 23434
L29724 23040
L29686 23096
L29649 23134
L29611 23152
" />
<text x="49322.8" y="52862.2"
textLength="1220.38" font-size="524.934" lengthAdjust="spacingAndGlyphs"
text-anchor="middle" opacity="0">C13</text>
<path d="M49069 52805
L49050 52824
L48994 52843
L48957 52843
L48901 52824
L48863 52787
L48844 52749
L48826 52674
L48826 52618
L48844 52543
L48863 52505
L48901 52468
L48957 52449
L48994 52449
L49050 52468
L49069 52487
" />
<path d="M49444 52843
L49219 52843
" />
<path d="M49332 52843
L49332 52449
L49294 52505
L49257 52543
L49219 52562
" />
<path d="M49575 52449
L49819 52449
L49688 52599
L49744 52599
L49782 52618
L49800 52637
L49819 52674
L49819 52768
L49800 52805
L49782 52824
L49744 52843
L49632 52843
L49594 52824
L49575 52805
" />
<text x="39370.1" y="23452.8"
textLength="845.426" font-size="524.934" lengthAdjust="spacingAndGlyphs"
text-anchor="middle" opacity="0">C2</text>
<path d="M39304 23396
L39285 23415
L39229 23434
L39191 23434
L39135 23415
L39098 23377
L39079 23340
L39060 23265
L39060 23209
L39079 23134
L39098 23096
L39135 23059
L39191 23040
L39229 23040
L39285 23059
L39304 23077
" />
<path d="M39454 23077
L39473 23059
L39510 23040
L39604 23040
L39641 23059
L39660 23077
L39679 23115
L39679 23152
L39660 23209
L39435 23434
L39679 23434
" />
<text x="59362.2" y="52665.4"
textLength="1220.38" font-size="524.934" lengthAdjust="spacingAndGlyphs"
text-anchor="middle" opacity="0">C14</text>
<path d="M59109 52609
L59090 52627
L59034 52646
L58996 52646
L58940 52627
L58902 52590
L58884 52552
L58865 52477
L58865 52421
L58884 52346
L58902 52309
L58940 52271
L58996 52252
L59034 52252
L59090 52271
L59109 52290
" />
<path d="M59484 52646
L59259 52646
" />
<path d="M59371 52646
L59371 52252
L59334 52309
L59296 52346
L59259 52365
" />
<path d="M59821 52384
L59821 52646
" />
<path d="M59727 52234
L59634 52515
L59877 52515
" />
<text x="49301.2" y="23452.8"
textLength="845.426" font-size="524.934" lengthAdjust="spacingAndGlyphs"
text-anchor="middle" opacity="0">C3</text>
<path d="M49235 23396
L49216 23415
L49160 23434
L49123 23434
L49066 23415
L49029 23377
L49010 23340
L48991 23265
L48991 23209
L49010 23134
L49029 23096
L49066 23059
L49123 23040
L49160 23040
L49216 23059
L49235 23077
" />
<path d="M49366 23040
L49610 23040
L49479 23190
L49535 23190
L49573 23209
L49591 23227
L49610 23265
L49610 23359
L49591 23396
L49573 23415
L49535 23434
L49423 23434
L49385 23415
L49366 23396
" />
<text x="29476.4" y="62563"
textLength="1220.38" font-size="524.934" lengthAdjust="spacingAndGlyphs"
text-anchor="middle" opacity="0">C15</text>
<path d="M29223 62506
L29204 62525
L29148 62544
L29110 62544
L29054 62525
L29017 62488
L28998 62450
L28979 62375
L28979 62319
L28998 62244
L29017 62206
L29054 62169
L29110 62150
L29148 62150
L29204 62169
L29223 62188
" />
<path d="M29598 62544
L29373 62544
" />
<path d="M29485 62544
L29485 62150
L29448 62206
L29410 62244
L29373 62263
" />
<path d="M29954 62150
L29766 62150
L29748 62338
L29766 62319
L29804 62300
L29898 62300
L29935 62319
L29954 62338
L29973 62375
L29973 62469
L29954 62506
L29935 62525
L29898 62544
L29804 62544
L29766 62525
L29748 62506
" />
<text x="59252" y="24578.7"
textLength="845.426" font-size="524.934" lengthAdjust="spacingAndGlyphs"
text-anchor="middle" opacity="0">C4</text>
<path d="M59186 24522
L59167 24541
L59111 24559
L59073 24559
L59017 24541
L58980 24503
L58961 24466
L58942 24391
L58942 24335
L58961 24260
L58980 24222
L59017 24185
L59073 24166
L59111 24166
L59167 24185
L59186 24203
" />
<path d="M59523 24297
L59523 24559
" />
<path d="M59430 24147
L59336 24428
L59580 24428
" />
<text x="39318.9" y="62563"
textLength="1220.38" font-size="524.934" lengthAdjust="spacingAndGlyphs"
text-anchor="middle" opacity="0">C16</text>
<path d="M39065 62506
L39047 62525
L38990 62544
L38953 62544
L38897 62525
L38859 62488
L38840 62450
L38822 62375
L38822 62319
L38840 62244
L38859 62206
L38897 62169
L38953 62150
L38990 62150
L39047 62169
L39065 62188
" />
<path d="M39440 62544
L39215 62544
" />
<path d="M39328 62544
L39328 62150
L39290 62206
L39253 62244
L39215 62263
" />
<path d="M39778 62150
L39703 62150
L39665 62169
L39646 62188
L39609 62244
L39590 62319
L39590 62469
L39609 62506
L39628 62525
L39665 62544
L39740 62544
L39778 62525
L39796 62506
L39815 62469
L39815 62375
L39796 62338
L39778 62319
L39740 62300
L39665 62300
L39628 62319
L39609 62338
L39590 62375
" />
<text x="49358.3" y="62563"
textLength="1220.38" font-size="524.934" lengthAdjust="spacingAndGlyphs"
text-anchor="middle" opacity="0">C17</text>
<path d="M49105 62506
L49086 62525
L49030 62544
L48992 62544
L48936 62525
L48898 62488
L48880 62450
L48861 62375
L48861 62319
L48880 62244
L48898 62206
L48936 62169
L48992 62150
L49030 62150
L49086 62169
L49105 62188
" />
<path d="M49480 62544
L49255 62544
" />
<path d="M49367 62544
L49367 62150
L49330 62206
L49292 62244
L49255 62263
" />
<path d="M49611 62150
L49873 62150
L49705 62544
" />
<text x="59200.8" y="62563"
textLength="1220.38" font-size="524.934" lengthAdjust="spacingAndGlyphs"
text-anchor="middle" opacity="0">C18</text>
<path d="M58947 62506
L58928 62525
L58872 62544
L58835 62544
L58778 62525
L58741 62488
L58722 62450
L58703 62375
L58703 62319
L58722 62244
L58741 62206
L58778 62169
L58835 62150
L58872 62150
L58928 62169
L58947 62188
" />
<path d="M59322 62544
L59097 62544
" />
<path d="M59210 62544
L59210 62150
L59172 62206
L59135 62244
L59097 62263
" />
<path d="M59547 62319
L59510 62300
L59491 62281
L59472 62244
L59472 62225
L59491 62188
L59510 62169
L59547 62150
L59622 62150
L59660 62169
L59678 62188
L59697 62225
L59697 62244
L59678 62281
L59660 62300
L59622 62319
L59547 62319
L59510 62338
L59491 62356
L59472 62394
L59472 62469
L59491 62506
L59510 62525
L59547 62544
L59622 62544
L59660 62525
L59678 62506
L59697 62469
L59697 62394
L59678 62356
L59660 62338
L59622 62319
" />
<text x="29527.6" y="72295.3"
textLength="1220.38" font-size="524.934" lengthAdjust="spacingAndGlyphs"
text-anchor="middle" opacity="0">C19</text>
<path d="M29274 72239
L29255 72257
L29199 72276
L29161 72276
L29105 72257
L29068 72220
L29049 72182
L29030 72107
L29030 72051
L29049 71976
L29068 71939
L29105 71901
L29161 71882
L29199 71882
L29255 71901
L29274 71920
" />
<path d="M29649 72276
L29424 72276
" />
<path d="M29536 72276
L29536 71882
L29499 71939
L29461 71976
L29424 71995
" />
<path d="M29836 72276
L29911 72276
L29949 72257
L29968 72239
L30005 72182
L30024 72107
L30024 71957
L30005 71920
L29986 71901
L29949 71882
L29874 71882
L29836 71901
L29818 71920
L29799 71957
L29799 72051
L29818 72089
L29836 72107
L29874 72126
L29949 72126
L29986 72107
L30005 72089
L30024 72051
" />
<text x="39370.1" y="72492.1"
textLength="1220.38" font-size="524.934" lengthAdjust="spacingAndGlyphs"
text-anchor="middle" opacity="0">C20</text>
<path d="M39116 72435
L39098 72454
L39041 72473
L39004 72473
L38948 72454
L38910 72417
L38892 72379
L38873 72304
L38873 72248
L38892 72173
L38910 72135
L38948 72098
L39004 72079
L39041 72079
L39098 72098
L39116 72117
" />
<path d="M39266 72117
L39285 72098
L39323 72079
L39416 72079
L39454 72098
L39473 72117
L39491 72154
L39491 72192
L39473 72248
L39248 72473
L39491 72473
" />
<path d="M39735 72079
L39773 72079
L39810 72098
L39829 72117
L39848 72154
L39866 72229
L39866 72323
L39848 72398
L39829 72435
L39810 72454
L39773 72473
L39735 72473
L39698 72454
L39679 72435
L39660 72398
L39641 72323
L39641 72229
L39660 72154
L39679 72117
L39698 72098
L39735 72079
" />
<text x="59118.1" y="72287.4"
textLength="845.426" font-size="524.934" lengthAdjust="spacingAndGlyphs"
text-anchor="middle" opacity="0">C9</text>
<path d="M59052 72231
L59033 72249
L58977 72268
L58940 72268
L58883 72249
L58846 72212
L58827 72174
L58808 72099
L58808 72043
L58827 71968
L58846 71931
L58883 71893
L58940 71874
L58977 71874
L59033 71893
L59052 71912
" />
<path d="M59239 72268
L59314 72268
L59352 72249
L59371 72231
L59408 72174
L59427 72099
L59427 71949
L59408 71912
L59389 71893
L59352 71874
L59277 71874
L59239 71893
L59221 71912
L59202 71949
L59202 72043
L59221 72081
L59239 72099
L59277 72118
L59352 72118
L59389 72099
L59408 72081
L59427 72043
" />
<text x="49212.6" y="72295.3"
textLength="1220.38" font-size="524.934" lengthAdjust="spacingAndGlyphs"
text-anchor="middle" opacity="0">C21</text>
<path d="M48959 72239
L48940 72257
L48884 72276
L48847 72276
L48790 72257
L48753 72220
L48734 72182
L48715 72107
L48715 72051
L48734 71976
L48753 71939
L48790 71901
L48847 71882
L48884 71882
L48940 71901
L48959 71920
" />
<path d="M49109 71920
L49128 71901
L49165 71882
L49259 71882
L49296 71901
L49315 71920
L49334 71957
L49334 71995
L49315 72051
L49090 72276
L49334 72276
" />
<path d="M49709 72276
L49484 72276
" />
<path d="M49596 72276
L49596 71882
L49559 71939
L49521 71976
L49484 71995
" />
<text x="59055.1" y="82322.8"
textLength="1220.38" font-size="524.934" lengthAdjust="spacingAndGlyphs"
text-anchor="middle" opacity="0">C10</text>
<path d="M58802 82266
L58783 82285
L58727 82304
L58689 82304
L58633 82285
L58595 82247
L58577 82210
L58558 82135
L58558 82079
L58577 82004
L58595 81966
L58633 81929
L58689 81910
L58727 81910
L58783 81929
L58802 81947
" />
<path d="M59176 82304
L58952 82304
" />
<path d="M59064 82304
L59064 81910
L59026 81966
L58989 82004
L58952 82022
" />
<path d="M59420 81910
L59458 81910
L59495 81929
L59514 81947
L59533 81985
L59551 82060
L59551 82154
L59533 82229
L59514 82266
L59495 82285
L59458 82304
L59420 82304
L59383 82285
L59364 82266
L59345 82229
L59326 82154
L59326 82060
L59345 81985
L59364 81947
L59383 81929
L59420 81910
" />
<text x="29488.2" y="82322.8"
textLength="1220.38" font-size="524.934" lengthAdjust="spacingAndGlyphs"
text-anchor="middle" opacity="0">C22</text>
<path d="M29235 82266
L29216 82285
L29160 82304
L29122 82304
L29066 82285
L29028 82247
L29010 82210
L28991 82135
L28991 82079
L29010 82004
L29028 81966
L29066 81929
L29122 81910
L29160 81910
L29216 81929
L29235 81947
" />
<path d="M29385 81947
L29403 81929
L29441 81910
L29535 81910
L29572 81929
L29591 81947
L29610 81985
L29610 82022
L29591 82079
L29366 82304
L29610 82304
" />
<path d="M29760 81947
L29778 81929
L29816 81910
L29910 81910
L29947 81929
L29966 81947
L29985 81985
L29985 82022
L29966 82079
L29741 82304
L29985 82304
" />
<text x="29637.8" y="52862.2"
textLength="1220.38" font-size="524.934" lengthAdjust="spacingAndGlyphs"
text-anchor="middle" opacity="0">C11</text>
<path d="M29384 52805
L29365 52824
L29309 52843
L29272 52843
L29215 52824
L29178 52787
L29159 52749
L29140 52674
L29140 52618
L29159 52543
L29178 52505
L29215 52468
L29272 52449
L29309 52449
L29365 52468
L29384 52487
" />
<path d="M29759 52843
L29534 52843
" />
<path d="M29647 52843
L29647 52449
L29609 52505
L29572 52543
L29534 52562
" />
<path d="M30134 52843
L29909 52843
" />
<path d="M30022 52843
L30022 52449
L29984 52505
L29947 52543
L29909 52562
" />
<text x="39330.7" y="82322.8"
textLength="1220.38" font-size="524.934" lengthAdjust="spacingAndGlyphs"
text-anchor="middle" opacity="0">C23</text>
<path d="M39077 82266
L39058 82285
L39002 82304
L38965 82304
L38908 82285
L38871 82247
L38852 82210
L38833 82135
L38833 82079
L38852 82004
L38871 81966
L38908 81929
L38965 81910
L39002 81910
L39058 81929
L39077 81947
" />
<path d="M39227 81947
L39246 81929
L39283 81910
L39377 81910
L39415 81929
L39433 81947
L39452 81985
L39452 82022
L39433 82079
L39208 82304
L39452 82304
" />
<path d="M39583 81910
L39827 81910
L39696 82060
L39752 82060
L39790 82079
L39808 82097
L39827 82135
L39827 82229
L39808 82266
L39790 82285
L39752 82304
L39640 82304
L39602 82285
L39583 82266
" />
<text x="39480.3" y="52862.2"
textLength="1220.38" font-size="524.934" lengthAdjust="spacingAndGlyphs"
text-anchor="middle" opacity="0">C12</text>
<path d="M39227 52805
L39208 52824
L39152 52843
L39114 52843
L39058 52824
L39020 52787
L39002 52749
L38983 52674
L38983 52618
L39002 52543
L39020 52505
L39058 52468
L39114 52449
L39152 52449
L39208 52468
L39227 52487
" />
<path d="M39602 52843
L39377 52843
" />
<path d="M39489 52843
L39489 52449
L39452 52505
L39414 52543
L39377 52562
" />
<path d="M39752 52487
L39770 52468
L39808 52449
L39902 52449
L39939 52468
L39958 52487
L39977 52524
L39977 52562
L39958 52618
L39733 52843
L39977 52843
" />
<text x="49370.1" y="82322.8"
textLength="1220.38" font-size="524.934" lengthAdjust="spacingAndGlyphs"
text-anchor="middle" opacity="0">C24</text>
<path d="M49116 82266
L49098 82285
L49041 82304
L49004 82304
L48948 82285
L48910 82247
L48892 82210
L48873 82135
L48873 82079
L48892 82004
L48910 81966
L48948 81929
L49004 81910
L49041 81910
L49098 81929
L49116 81947
" />
<path d="M49266 81947
L49285 81929
L49323 81910
L49416 81910
L49454 81929
L49473 81947
L49491 81985
L49491 82022
L49473 82079
L49248 82304
L49491 82304
" />
<path d="M49829 82041
L49829 82304
" />
<path d="M49735 81891
L49641 82172
L49885 82172
" />
<g transform="rotate(-90 39763.8 41535.4)">
<text x="39763.8" y="41732.3"
textLength="2476.47" font-size="524.934" lengthAdjust="spacingAndGlyphs"
text-anchor="middle" opacity="0">C_enc_1</text>
</g>
<path d="M39904 42416
L39923 42435
L39941 42491
L39941 42529
L39923 42585
L39885 42622
L39848 42641
L39773 42660
L39716 42660
L39641 42641
L39604 42622
L39566 42585
L39548 42529
L39548 42491
L39566 42435
L39585 42416
" />
<path d="M39979 42341
L39979 42041
" />
<path d="M39923 41797
L39941 41835
L39941 41910
L39923 41947
L39885 41966
L39735 41966
L39698 41947
L39679 41910
L39679 41835
L39698 41797
L39735 41779
L39773 41779
L39810 41966
" />
<path d="M39679 41610
L39941 41610
" />
<path d="M39716 41610
L39698 41591
L39679 41554
L39679 41497
L39698 41460
L39735 41441
L39941 41441
" />
<path d="M39923 41085
L39941 41122
L39941 41197
L39923 41235
L39904 41254
L39866 41272
L39754 41272
L39716 41254
L39698 41235
L39679 41197
L39679 41122
L39698 41085
" />
<path d="M39979 41010
L39979 40710
" />
<path d="M39941 40410
L39941 40635
" />
<path d="M39941 40523
L39548 40523
L39604 40560
L39641 40598
L39660 40635
" />
<g transform="rotate(-90 49425.2 41358.3)">
<text x="49425.2" y="41555.1"
textLength="2476.47" font-size="524.934" lengthAdjust="spacingAndGlyphs"
text-anchor="middle" opacity="0">C_enc_2</text>
</g>
<path d="M49565 42239
L49584 42258
L49603 42314
L49603 42351
L49584 42408
L49547 42445
L49509 42464
L49434 42483
L49378 42483
L49303 42464
L49265 42445
L49228 42408
L49209 42351
L49209 42314
L49228 42258
L49247 42239
" />
<path d="M49640 42164
L49640 41864
" />
<path d="M49584 41620
L49603 41658
L49603 41733
L49584 41770
L49547 41789
L49397 41789
L49359 41770
L49340 41733
L49340 41658
L49359 41620
L49397 41601
L49434 41601
L49472 41789
" />
<path d="M49340 41433
L49603 41433
" />
<path d="M49378 41433
L49359 41414
L49340 41377
L49340 41320
L49359 41283
L49397 41264
L49603 41264
" />
<path d="M49584 40908
L49603 40945
L49603 41020
L49584 41058
L49565 41077
L49528 41095
L49415 41095
L49378 41077
L49359 41058
L49340 41020
L49340 40945
L49359 40908
" />
<path d="M49640 40833
L49640 40533
" />
<path d="M49247 40458
L49228 40439
L49209 40402
L49209 40308
L49228 40270
L49247 40252
L49284 40233
L49322 40233
L49378 40252
L49603 40477
L49603 40233
" />
</g>
<g style="fill:#000000; fill-opacity:0.0; 
stroke:#000000; stroke-width:78.7402; stroke-opacity:1; 
stroke-linecap:round; stroke-linejoin:round;">
<text x="39157.5" y="21015.7"
textLength="845.426" font-size="524.934" lengthAdjust="spacingAndGlyphs"
text-anchor="middle" opacity="0">D2</text>
<path d="M38866 20997
L38866 20603
L38960 20603
L39016 20622
L39054 20659
L39073 20697
L39091 20772
L39091 20828
L39073 20903
L39054 20940
L39016 20978
L38960 20997
L38866 20997
" />
<path d="M39241 20640
L39260 20622
L39298 20603
L39391 20603
L39429 20622
L39448 20640
L39466 20678
L39466 20715
L39448 20772
L39223 20997
L39466 20997
" />
<text x="49000" y="21015.7"
textLength="871.016" font-size="524.934" lengthAdjust="spacingAndGlyphs"
text-anchor="middle" opacity="0">D3</text>
<path d="M48709 20997
L48709 20603
L48803 20603
L48859 20622
L48896 20659
L48915 20697
L48934 20772
L48934 20828
L48915 20903
L48896 20940
L48859 20978
L48803 20997
L48709 20997
" />
<path d="M49065 20603
L49309 20603
L49178 20753
L49234 20753
L49271 20772
L49290 20790
L49309 20828
L49309 20922
L49290 20959
L49271 20978
L49234 20997
L49121 20997
L49084 20978
L49065 20959
" />
<text x="58842.5" y="21015.7"
textLength="871.016" font-size="524.934" lengthAdjust="spacingAndGlyphs"
text-anchor="middle" opacity="0">D4</text>
<path d="M58551 20997
L58551 20603
L58645 20603
L58701 20622
L58739 20659
L58758 20697
L58776 20772
L58776 20828
L58758 20903
L58739 20940
L58701 20978
L58645 20997
L58551 20997
" />
<path d="M59114 20734
L59114 20997
" />
<path d="M59020 20584
L58926 20865
L59170 20865
" />
<text x="29315" y="30858.3"
textLength="871.016" font-size="524.934" lengthAdjust="spacingAndGlyphs"
text-anchor="middle" opacity="0">D5</text>
<path d="M29024 30839
L29024 30445
L29118 30445
L29174 30464
L29211 30502
L29230 30539
L29249 30614
L29249 30670
L29230 30745
L29211 30783
L29174 30820
L29118 30839
L29024 30839
" />
<path d="M29605 30445
L29418 30445
L29399 30633
L29418 30614
L29455 30595
L29549 30595
L29586 30614
L29605 30633
L29624 30670
L29624 30764
L29605 30802
L29586 30820
L29549 30839
L29455 30839
L29418 30820
L29399 30802
" />
<text x="39157.5" y="30858.3"
textLength="871.016" font-size="524.934" lengthAdjust="spacingAndGlyphs"
text-anchor="middle" opacity="0">D6</text>
<path d="M38866 30839
L38866 30445
L38960 30445
L39016 30464
L39054 30502
L39073 30539
L39091 30614
L39091 30670
L39073 30745
L39054 30783
L39016 30820
L38960 30839
L38866 30839
" />
<path d="M39429 30445
L39354 30445
L39316 30464
L39298 30483
L39260 30539
L39241 30614
L39241 30764
L39260 30802
L39279 30820
L39316 30839
L39391 30839
L39429 30820
L39448 30802
L39466 30764
L39466 30670
L39448 30633
L39429 30614
L39391 30595
L39316 30595
L39279 30614
L39260 30633
L39241 30670
" />
<text x="49000" y="30858.3"
textLength="871.016" font-size="524.934" lengthAdjust="spacingAndGlyphs"
text-anchor="middle" opacity="0">D7</text>
<path d="M48709 30839
L48709 30445
L48803 30445
L48859 30464
L48896 30502
L48915 30539
L48934 30614
L48934 30670
L48915 30745
L48896 30783
L48859 30820
L48803 30839
L48709 30839
" />
<path d="M49065 30445
L49328 30445
L49159 30839
" />
<text x="58842.5" y="30858.3"
textLength="871.016" font-size="524.934" lengthAdjust="spacingAndGlyphs"
text-anchor="middle" opacity="0">D8</text>
<path d="M58551 30839
L58551 30445
L58645 30445
L58701 30464
L58739 30502
L58758 30539
L58776 30614
L58776 30670
L58758 30745
L58739 30783
L58701 30820
L58645 30839
L58551 30839
" />
<path d="M59001 30614
L58964 30595
L58945 30577
L58926 30539
L58926 30520
L58945 30483
L58964 30464
L59001 30445
L59076 30445
L59114 30464
L59133 30483
L59151 30520
L59151 30539
L59133 30577
L59114 30595
L59076 30614
L59001 30614
L58964 30633
L58945 30652
L58926 30689
L58926 30764
L58945 30802
L58964 30820
L59001 30839
L59076 30839
L59114 30820
L59133 30802
L59151 30764
L59151 30689
L59133 30652
L59114 30633
L59076 30614
" />
<text x="58842.5" y="70228.3"
textLength="871.016" font-size="524.934" lengthAdjust="spacingAndGlyphs"
text-anchor="middle" opacity="0">D9</text>
<path d="M58551 70209
L58551 69815
L58645 69815
L58701 69834
L58739 69872
L58758 69909
L58776 69984
L58776 70040
L58758 70115
L58739 70153
L58701 70190
L58645 70209
L58551 70209
" />
<path d="M58964 70209
L59039 70209
L59076 70190
L59095 70172
L59133 70115
L59151 70040
L59151 69890
L59133 69853
L59114 69834
L59076 69815
L59001 69815
L58964 69834
L58945 69853
L58926 69890
L58926 69984
L58945 70022
L58964 70040
L59001 70059
L59076 70059
L59114 70040
L59133 70022
L59151 69984
" />
<text x="58842.5" y="80070.9"
textLength="1245.97" font-size="524.934" lengthAdjust="spacingAndGlyphs"
text-anchor="middle" opacity="0">D10</text>
<path d="M58364 80052
L58364 79658
L58458 79658
L58514 79677
L58551 79714
L58570 79752
L58589 79827
L58589 79883
L58570 79958
L58551 79995
L58514 80033
L58458 80052
L58364 80052
" />
<path d="M58964 80052
L58739 80052
" />
<path d="M58851 80052
L58851 79658
L58814 79714
L58776 79752
L58739 79770
" />
<path d="M59208 79658
L59245 79658
L59283 79677
L59301 79695
L59320 79733
L59339 79808
L59339 79902
L59320 79977
L59301 80014
L59283 80033
L59245 80052
L59208 80052
L59170 80033
L59151 80014
L59133 79977
L59114 79902
L59114 79808
L59133 79733
L59151 79695
L59170 79677
L59208 79658
" />
<text x="29315" y="50543.3"
textLength="1245.97" font-size="524.934" lengthAdjust="spacingAndGlyphs"
text-anchor="middle" opacity="0">D11</text>
<path d="M28836 50524
L28836 50130
L28930 50130
L28986 50149
L29024 50187
L29043 50224
L29061 50299
L29061 50355
L29043 50430
L29024 50468
L28986 50505
L28930 50524
L28836 50524
" />
<path d="M29436 50524
L29211 50524
" />
<path d="M29324 50524
L29324 50130
L29286 50187
L29249 50224
L29211 50243
" />
<path d="M29811 50524
L29586 50524
" />
<path d="M29699 50524
L29699 50130
L29661 50187
L29624 50224
L29586 50243
" />
<text x="39157.5" y="50543.3"
textLength="1245.97" font-size="524.934" lengthAdjust="spacingAndGlyphs"
text-anchor="middle" opacity="0">D12</text>
<path d="M38679 50524
L38679 50130
L38773 50130
L38829 50149
L38866 50187
L38885 50224
L38904 50299
L38904 50355
L38885 50430
L38866 50468
L38829 50505
L38773 50524
L38679 50524
" />
<path d="M39279 50524
L39054 50524
" />
<path d="M39166 50524
L39166 50130
L39129 50187
L39091 50224
L39054 50243
" />
<path d="M39429 50168
L39448 50149
L39485 50130
L39579 50130
L39616 50149
L39635 50168
L39654 50205
L39654 50243
L39635 50299
L39410 50524
L39654 50524
" />
<text x="49000" y="50543.3"
textLength="1245.97" font-size="524.934" lengthAdjust="spacingAndGlyphs"
text-anchor="middle" opacity="0">D13</text>
<path d="M48521 50524
L48521 50130
L48615 50130
L48671 50149
L48709 50187
L48728 50224
L48746 50299
L48746 50355
L48728 50430
L48709 50468
L48671 50505
L48615 50524
L48521 50524
" />
<path d="M49121 50524
L48896 50524
" />
<path d="M49009 50524
L49009 50130
L48971 50187
L48934 50224
L48896 50243
" />
<path d="M49253 50130
L49496 50130
L49365 50280
L49421 50280
L49459 50299
L49478 50318
L49496 50355
L49496 50449
L49478 50487
L49459 50505
L49421 50524
L49309 50524
L49271 50505
L49253 50487
" />
<text x="58842.5" y="50543.3"
textLength="1245.97" font-size="524.934" lengthAdjust="spacingAndGlyphs"
text-anchor="middle" opacity="0">D14</text>
<path d="M58364 50524
L58364 50130
L58458 50130
L58514 50149
L58551 50187
L58570 50224
L58589 50299
L58589 50355
L58570 50430
L58551 50468
L58514 50505
L58458 50524
L58364 50524
" />
<path d="M58964 50524
L58739 50524
" />
<path d="M58851 50524
L58851 50130
L58814 50187
L58776 50224
L58739 50243
" />
<path d="M59301 50262
L59301 50524
" />
<path d="M59208 50112
L59114 50393
L59358 50393
" />
<text x="29315" y="60385.8"
textLength="1245.97" font-size="524.934" lengthAdjust="spacingAndGlyphs"
text-anchor="middle" opacity="0">D15</text>
<path d="M28836 60367
L28836 59973
L28930 59973
L28986 59992
L29024 60029
L29043 60067
L29061 60142
L29061 60198
L29043 60273
L29024 60310
L28986 60348
L28930 60367
L28836 60367
" />
<path d="M29436 60367
L29211 60367
" />
<path d="M29324 60367
L29324 59973
L29286 60029
L29249 60067
L29211 60085
" />
<path d="M29793 59973
L29605 59973
L29586 60160
L29605 60142
L29643 60123
L29736 60123
L29774 60142
L29793 60160
L29811 60198
L29811 60292
L29793 60329
L29774 60348
L29736 60367
L29643 60367
L29605 60348
L29586 60329
" />
<text x="39157.5" y="60385.8"
textLength="1245.97" font-size="524.934" lengthAdjust="spacingAndGlyphs"
text-anchor="middle" opacity="0">D16</text>
<path d="M38679 60367
L38679 59973
L38773 59973
L38829 59992
L38866 60029
L38885 60067
L38904 60142
L38904 60198
L38885 60273
L38866 60310
L38829 60348
L38773 60367
L38679 60367
" />
<path d="M39279 60367
L39054 60367
" />
<path d="M39166 60367
L39166 59973
L39129 60029
L39091 60067
L39054 60085
" />
<path d="M39616 59973
L39541 59973
L39504 59992
L39485 60010
L39448 60067
L39429 60142
L39429 60292
L39448 60329
L39466 60348
L39504 60367
L39579 60367
L39616 60348
L39635 60329
L39654 60292
L39654 60198
L39635 60160
L39616 60142
L39579 60123
L39504 60123
L39466 60142
L39448 60160
L39429 60198
" />
<text x="49000" y="60385.8"
textLength="1245.97" font-size="524.934" lengthAdjust="spacingAndGlyphs"
text-anchor="middle" opacity="0">D17</text>
<path d="M48521 60367
L48521 59973
L48615 59973
L48671 59992
L48709 60029
L48728 60067
L48746 60142
L48746 60198
L48728 60273
L48709 60310
L48671 60348
L48615 60367
L48521 60367
" />
<path d="M49121 60367
L48896 60367
" />
<path d="M49009 60367
L49009 59973
L48971 60029
L48934 60067
L48896 60085
" />
<path d="M49253 59973
L49515 59973
L49346 60367
" />
<text x="58842.5" y="60385.8"
textLength="1245.97" font-size="524.934" lengthAdjust="spacingAndGlyphs"
text-anchor="middle" opacity="0">D18</text>
<path d="M58364 60367
L58364 59973
L58458 59973
L58514 59992
L58551 60029
L58570 60067
L58589 60142
L58589 60198
L58570 60273
L58551 60310
L58514 60348
L58458 60367
L58364 60367
" />
<path d="M58964 60367
L58739 60367
" />
<path d="M58851 60367
L58851 59973
L58814 60029
L58776 60067
L58739 60085
" />
<path d="M59189 60142
L59151 60123
L59133 60104
L59114 60067
L59114 60048
L59133 60010
L59151 59992
L59189 59973
L59264 59973
L59301 59992
L59320 60010
L59339 60048
L59339 60067
L59320 60104
L59301 60123
L59264 60142
L59189 60142
L59151 60160
L59133 60179
L59114 60217
L59114 60292
L59133 60329
L59151 60348
L59189 60367
L59264 60367
L59301 60348
L59320 60329
L59339 60292
L59339 60217
L59320 60179
L59301 60160
L59264 60142
" />
<text x="29315" y="70228.3"
textLength="1245.97" font-size="524.934" lengthAdjust="spacingAndGlyphs"
text-anchor="middle" opacity="0">D19</text>
<path d="M28836 70209
L28836 69815
L28930 69815
L28986 69834
L29024 69872
L29043 69909
L29061 69984
L29061 70040
L29043 70115
L29024 70153
L28986 70190
L28930 70209
L28836 70209
" />
<path d="M29436 70209
L29211 70209
" />
<path d="M29324 70209
L29324 69815
L29286 69872
L29249 69909
L29211 69928
" />
<path d="M29624 70209
L29699 70209
L29736 70190
L29755 70172
L29793 70115
L29811 70040
L29811 69890
L29793 69853
L29774 69834
L29736 69815
L29661 69815
L29624 69834
L29605 69853
L29586 69890
L29586 69984
L29605 70022
L29624 70040
L29661 70059
L29736 70059
L29774 70040
L29793 70022
L29811 69984
" />
<text x="39157.5" y="70228.3"
textLength="1245.97" font-size="524.934" lengthAdjust="spacingAndGlyphs"
text-anchor="middle" opacity="0">D20</text>
<path d="M38679 70209
L38679 69815
L38773 69815
L38829 69834
L38866 69872
L38885 69909
L38904 69984
L38904 70040
L38885 70115
L38866 70153
L38829 70190
L38773 70209
L38679 70209
" />
<path d="M39054 69853
L39073 69834
L39110 69815
L39204 69815
L39241 69834
L39260 69853
L39279 69890
L39279 69928
L39260 69984
L39035 70209
L39279 70209
" />
<path d="M39523 69815
L39560 69815
L39598 69834
L39616 69853
L39635 69890
L39654 69965
L39654 70059
L39635 70134
L39616 70172
L39598 70190
L39560 70209
L39523 70209
L39485 70190
L39466 70172
L39448 70134
L39429 70059
L39429 69965
L39448 69890
L39466 69853
L39485 69834
L39523 69815
" />
<text x="49000" y="70228.3"
textLength="1245.97" font-size="524.934" lengthAdjust="spacingAndGlyphs"
text-anchor="middle" opacity="0">D21</text>
<path d="M48521 70209
L48521 69815
L48615 69815
L48671 69834
L48709 69872
L48728 69909
L48746 69984
L48746 70040
L48728 70115
L48709 70153
L48671 70190
L48615 70209
L48521 70209
" />
<path d="M48896 69853
L48915 69834
L48953 69815
L49046 69815
L49084 69834
L49103 69853
L49121 69890
L49121 69928
L49103 69984
L48878 70209
L49121 70209
" />
<path d="M49496 70209
L49271 70209
" />
<path d="M49384 70209
L49384 69815
L49346 69872
L49309 69909
L49271 69928
" />
<text x="29315" y="80070.9"
textLength="1245.97" font-size="524.934" lengthAdjust="spacingAndGlyphs"
text-anchor="middle" opacity="0">D22</text>
<path d="M28836 80052
L28836 79658
L28930 79658
L28986 79677
L29024 79714
L29043 79752
L29061 79827
L29061 79883
L29043 79958
L29024 79995
L28986 80033
L28930 80052
L28836 80052
" />
<path d="M29211 79695
L29230 79677
L29268 79658
L29361 79658
L29399 79677
L29418 79695
L29436 79733
L29436 79770
L29418 79827
L29193 80052
L29436 80052
" />
<path d="M29586 79695
L29605 79677
L29643 79658
L29736 79658
L29774 79677
L29793 79695
L29811 79733
L29811 79770
L29793 79827
L29568 80052
L29811 80052
" />
<text x="39157.5" y="80070.9"
textLength="1245.97" font-size="524.934" lengthAdjust="spacingAndGlyphs"
text-anchor="middle" opacity="0">D23</text>
<path d="M38679 80052
L38679 79658
L38773 79658
L38829 79677
L38866 79714
L38885 79752
L38904 79827
L38904 79883
L38885 79958
L38866 79995
L38829 80033
L38773 80052
L38679 80052
" />
<path d="M39054 79695
L39073 79677
L39110 79658
L39204 79658
L39241 79677
L39260 79695
L39279 79733
L39279 79770
L39260 79827
L39035 80052
L39279 80052
" />
<path d="M39410 79658
L39654 79658
L39523 79808
L39579 79808
L39616 79827
L39635 79845
L39654 79883
L39654 79977
L39635 80014
L39616 80033
L39579 80052
L39466 80052
L39429 80033
L39410 80014
" />
<text x="49000" y="80070.9"
textLength="1245.97" font-size="524.934" lengthAdjust="spacingAndGlyphs"
text-anchor="middle" opacity="0">D24</text>
<path d="M48521 80052
L48521 79658
L48615 79658
L48671 79677
L48709 79714
L48728 79752
L48746 79827
L48746 79883
L48728 79958
L48709 79995
L48671 80033
L48615 80052
L48521 80052
" />
<path d="M48896 79695
L48915 79677
L48953 79658
L49046 79658
L49084 79677
L49103 79695
L49121 79733
L49121 79770
L49103 79827
L48878 80052
L49121 80052
" />
<path d="M49459 79789
L49459 80052
" />
<path d="M49365 79639
L49271 79920
L49515 79920
" />
<text x="29315" y="21015.7"
textLength="1170.98" font-size="524.934" lengthAdjust="spacingAndGlyphs"
text-anchor="middle" opacity="0">D_1</text>
<path d="M28874 20997
L28874 20603
L28968 20603
L29024 20622
L29061 20659
L29080 20697
L29099 20772
L29099 20828
L29080 20903
L29061 20940
L29024 20978
L28968 20997
L28874 20997
" />
<path d="M29174 21034
L29474 21034
" />
<path d="M29774 20997
L29549 20997
" />
<path d="M29661 20997
L29661 20603
L29624 20659
L29586 20697
L29549 20715
" />
</g>
<g style="fill:#000000; fill-opacity:0.0; 
stroke:#000000; stroke-width:59.0551; stroke-opacity:1; 
stroke-linecap:round; stroke-linejoin:round;">
<text x="49212.6" y="12992.1"
textLength="2108.36" font-size="524.934" lengthAdjust="spacingAndGlyphs"
text-anchor="middle" opacity="0">Diode1</text>
<path d="M48303 12973
L48303 12579
L48397 12579
L48453 12598
L48490 12635
L48509 12673
L48528 12748
L48528 12804
L48509 12879
L48490 12917
L48453 12954
L48397 12973
L48303 12973
" />
<path d="M48697 12973
L48697 12710
" />
<path d="M48697 12579
L48678 12598
L48697 12617
L48715 12598
L48697 12579
L48697 12617
" />
<path d="M48940 12973
L48903 12954
L48884 12935
L48865 12898
L48865 12785
L48884 12748
L48903 12729
L48940 12710
L48997 12710
L49034 12729
L49053 12748
L49071 12785
L49071 12898
L49053 12935
L49034 12954
L48997 12973
L48940 12973
" />
<path d="M49409 12973
L49409 12579
" />
<path d="M49409 12954
L49371 12973
L49296 12973
L49259 12954
L49240 12935
L49221 12898
L49221 12785
L49240 12748
L49259 12729
L49296 12710
L49371 12710
L49409 12729
" />
<path d="M49746 12954
L49709 12973
L49634 12973
L49596 12954
L49578 12917
L49578 12767
L49596 12729
L49634 12710
L49709 12710
L49746 12729
L49765 12767
L49765 12804
L49578 12842
" />
<path d="M50140 12973
L49915 12973
" />
<path d="M50028 12973
L50028 12579
L49990 12635
L49953 12673
L49915 12692
" />
<text x="44291.3" y="35629.9"
textLength="2795.18" font-size="524.934" lengthAdjust="spacingAndGlyphs"
text-anchor="middle" opacity="0">Encoder1</text>
<path d="M43025 35404
L43157 35404
" />
<path d="M43213 35611
L43025 35611
L43025 35217
L43213 35217
" />
<path d="M43382 35348
L43382 35611
" />
<path d="M43382 35386
L43400 35367
L43438 35348
L43494 35348
L43532 35367
L43550 35404
L43550 35611
" />
<path d="M43907 35592
L43869 35611
L43794 35611
L43757 35592
L43738 35573
L43719 35536
L43719 35423
L43738 35386
L43757 35367
L43794 35348
L43869 35348
L43907 35367
" />
<path d="M44131 35611
L44094 35592
L44075 35573
L44056 35536
L44056 35423
L44075 35386
L44094 35367
L44131 35348
L44188 35348
L44225 35367
L44244 35386
L44263 35423
L44263 35536
L44244 35573
L44225 35592
L44188 35611
L44131 35611
" />
<path d="M44600 35611
L44600 35217
" />
<path d="M44600 35592
L44563 35611
L44488 35611
L44450 35592
L44431 35573
L44413 35536
L44413 35423
L44431 35386
L44450 35367
L44488 35348
L44563 35348
L44600 35367
" />
<path d="M44938 35592
L44900 35611
L44825 35611
L44788 35592
L44769 35554
L44769 35404
L44788 35367
L44825 35348
L44900 35348
L44938 35367
L44956 35404
L44956 35442
L44769 35479
" />
<path d="M45125 35611
L45125 35348
" />
<path d="M45125 35423
L45144 35386
L45163 35367
L45200 35348
L45238 35348
" />
<path d="M45575 35611
L45350 35611
" />
<path d="M45463 35611
L45463 35217
L45425 35273
L45388 35311
L45350 35329
" />
<g transform="rotate(-90 66547.2 23913.4)">
<text x="66547.2" y="24110.2"
textLength="845.426" font-size="524.934" lengthAdjust="spacingAndGlyphs"
text-anchor="middle" opacity="0">R1</text>
</g>
<path d="M66725 23979
L66537 24110
" />
<path d="M66725 24203
L66331 24203
L66331 24053
L66350 24016
L66369 23997
L66406 23979
L66462 23979
L66500 23997
L66519 24016
L66537 24053
L66537 24203
" />
<path d="M66725 23604
L66725 23829
" />
<path d="M66725 23716
L66331 23716
L66387 23754
L66425 23791
L66444 23829
" />
<g transform="rotate(-90 40748 42322.8)">
<text x="40748" y="42519.7"
textLength="845.426" font-size="524.934" lengthAdjust="spacingAndGlyphs"
text-anchor="middle" opacity="0">R2</text>
</g>
<path d="M40926 42388
L40738 42519
" />
<path d="M40926 42613
L40532 42613
L40532 42463
L40551 42425
L40569 42407
L40607 42388
L40663 42388
L40701 42407
L40719 42425
L40738 42463
L40738 42613
" />
<path d="M40569 42238
L40551 42219
L40532 42182
L40532 42088
L40551 42050
L40569 42032
L40607 42013
L40644 42013
L40701 42032
L40926 42257
L40926 42013
" />
<g transform="rotate(-90 41531.5 42425.2)">
<text x="41531.5" y="42622"
textLength="845.426" font-size="524.934" lengthAdjust="spacingAndGlyphs"
text-anchor="middle" opacity="0">R3</text>
</g>
<path d="M41709 42490
L41522 42622
" />
<path d="M41709 42715
L41315 42715
L41315 42565
L41334 42528
L41353 42509
L41390 42490
L41447 42490
L41484 42509
L41503 42528
L41522 42565
L41522 42715
" />
<path d="M41315 42359
L41315 42115
L41465 42247
L41465 42190
L41484 42153
L41503 42134
L41540 42115
L41634 42115
L41672 42134
L41690 42153
L41709 42190
L41709 42303
L41690 42340
L41672 42359
" />
<g transform="rotate(-90 48019.7 42141.7)">
<text x="48019.7" y="42338.6"
textLength="845.426" font-size="524.934" lengthAdjust="spacingAndGlyphs"
text-anchor="middle" opacity="0">R4</text>
</g>
<path d="M48197 42207
L48010 42338
" />
<path d="M48197 42432
L47804 42432
L47804 42282
L47822 42244
L47841 42226
L47879 42207
L47935 42207
L47972 42226
L47991 42244
L48010 42282
L48010 42432
" />
<path d="M47935 41869
L48197 41869
" />
<path d="M47785 41963
L48066 42057
L48066 41813
" />
<g transform="rotate(-90 48724.4 42122)">
<text x="48724.4" y="42318.9"
textLength="845.426" font-size="524.934" lengthAdjust="spacingAndGlyphs"
text-anchor="middle" opacity="0">R5</text>
</g>
<path d="M48902 42187
L48715 42318
" />
<path d="M48902 42412
L48508 42412
L48508 42262
L48527 42225
L48546 42206
L48583 42187
L48640 42187
L48677 42206
L48696 42225
L48715 42262
L48715 42412
" />
<path d="M48508 41831
L48508 42018
L48696 42037
L48677 42018
L48658 41981
L48658 41887
L48677 41850
L48696 41831
L48733 41812
L48827 41812
L48865 41831
L48883 41850
L48902 41887
L48902 41981
L48883 42018
L48865 42037
" />
<g transform="rotate(-90 31389.8 23570.9)">
<text x="31389.8" y="23767.7"
textLength="1220.38" font-size="524.934" lengthAdjust="spacingAndGlyphs"
text-anchor="middle" opacity="0">R19</text>
</g>
<path d="M31567 23823
L31380 23955
" />
<path d="M31567 24048
L31174 24048
L31174 23898
L31192 23861
L31211 23842
L31249 23823
L31305 23823
L31342 23842
L31361 23861
L31380 23898
L31380 24048
" />
<path d="M31567 23449
L31567 23673
" />
<path d="M31567 23561
L31174 23561
L31230 23598
L31267 23636
L31286 23673
" />
<path d="M31567 23261
L31567 23186
L31549 23149
L31530 23130
L31474 23092
L31399 23074
L31249 23074
L31211 23092
L31192 23111
L31174 23149
L31174 23224
L31192 23261
L31211 23280
L31249 23299
L31342 23299
L31380 23280
L31399 23261
L31417 23224
L31417 23149
L31399 23111
L31380 23092
L31342 23074
" />
<text x="48818.9" y="12401.6"
textLength="3901.29" font-size="524.934" lengthAdjust="spacingAndGlyphs"
text-anchor="middle" opacity="0">Tension_reg1</text>
<path d="M46944 11989
L47169 11989
" />
<path d="M47056 12382
L47056 11989
" />
<path d="M47450 12364
L47412 12382
L47337 12382
L47300 12364
L47281 12326
L47281 12176
L47300 12139
L47337 12120
L47412 12120
L47450 12139
L47469 12176
L47469 12214
L47281 12251
" />
<path d="M47637 12120
L47637 12382
" />
<path d="M47637 12157
L47656 12139
L47694 12120
L47750 12120
L47787 12139
L47806 12176
L47806 12382
" />
<path d="M47975 12364
L48012 12382
L48087 12382
L48125 12364
L48143 12326
L48143 12307
L48125 12270
L48087 12251
L48031 12251
L47994 12232
L47975 12195
L47975 12176
L47994 12139
L48031 12120
L48087 12120
L48125 12139
" />
<path d="M48312 12382
L48312 12120
" />
<path d="M48312 11989
L48293 12007
L48312 12026
L48331 12007
L48312 11989
L48312 12026
" />
<path d="M48556 12382
L48518 12364
L48500 12345
L48481 12307
L48481 12195
L48500 12157
L48518 12139
L48556 12120
L48612 12120
L48650 12139
L48668 12157
L48687 12195
L48687 12307
L48668 12345
L48650 12364
L48612 12382
L48556 12382
" />
<path d="M48856 12120
L48856 12382
" />
<path d="M48856 12157
L48875 12139
L48912 12120
L48968 12120
L49006 12139
L49025 12176
L49025 12382
" />
<path d="M49118 12420
L49418 12420
" />
<path d="M49512 12382
L49512 12120
" />
<path d="M49512 12195
L49531 12157
L49550 12139
L49587 12120
L49625 12120
" />
<path d="M49906 12364
L49868 12382
L49793 12382
L49756 12364
L49737 12326
L49737 12176
L49756 12139
L49793 12120
L49868 12120
L49906 12139
L49925 12176
L49925 12214
L49737 12251
" />
<path d="M50262 12120
L50262 12439
L50243 12476
L50224 12495
L50187 12514
L50131 12514
L50093 12495
" />
<path d="M50262 12364
L50224 12382
L50149 12382
L50112 12364
L50093 12345
L50074 12307
L50074 12195
L50093 12157
L50112 12139
L50149 12120
L50224 12120
L50262 12139
" />
<path d="M50656 12382
L50431 12382
" />
<path d="M50543 12382
L50543 11989
L50506 12045
L50468 12082
L50431 12101
" />
</g>
<g style="fill:#000000; fill-opacity:0.0; 
stroke:#000000; stroke-width:39.3701; stroke-opacity:1; 
stroke-linecap:round; stroke-linejoin:round;">
<text x="29566.9" y="16161.4"
textLength="1156.64" font-size="472.441" lengthAdjust="spacingAndGlyphs"
text-anchor="middle" opacity="0">SW1</text>
<path d="M29094 16127
L29145 16144
L29229 16144
L29263 16127
L29280 16110
L29296 16077
L29296 16043
L29280 16009
L29263 15992
L29229 15975
L29161 15958
L29128 15942
L29111 15925
L29094 15891
L29094 15857
L29111 15823
L29128 15807
L29161 15790
L29246 15790
L29296 15807
" />
<path d="M29415 15790
L29499 16144
L29566 15891
L29634 16144
L29718 15790
" />
<path d="M30039 16144
L29836 16144
" />
<path d="M29938 16144
L29938 15790
L29904 15840
L29870 15874
L29836 15891
" />
<text x="39409.4" y="16161.4"
textLength="1131.05" font-size="472.441" lengthAdjust="spacingAndGlyphs"
text-anchor="middle" opacity="0">SW2</text>
<path d="M38937 16127
L38987 16144
L39071 16144
L39105 16127
L39122 16110
L39139 16077
L39139 16043
L39122 16009
L39105 15992
L39071 15975
L39004 15958
L38970 15942
L38953 15925
L38937 15891
L38937 15857
L38953 15823
L38970 15807
L39004 15790
L39088 15790
L39139 15807
" />
<path d="M39257 15790
L39341 16144
L39409 15891
L39476 16144
L39561 15790
" />
<path d="M39679 15823
L39696 15807
L39730 15790
L39814 15790
L39848 15807
L39865 15823
L39881 15857
L39881 15891
L39865 15942
L39662 16144
L39881 16144
" />
<text x="49252" y="16161.4"
textLength="1131.05" font-size="472.441" lengthAdjust="spacingAndGlyphs"
text-anchor="middle" opacity="0">SW3</text>
<path d="M48779 16127
L48830 16144
L48914 16144
L48948 16127
L48965 16110
L48982 16077
L48982 16043
L48965 16009
L48948 15992
L48914 15975
L48847 15958
L48813 15942
L48796 15925
L48779 15891
L48779 15857
L48796 15823
L48813 15807
L48847 15790
L48931 15790
L48982 15807
" />
<path d="M49100 15790
L49184 16144
L49251 15891
L49319 16144
L49403 15790
" />
<path d="M49505 15790
L49724 15790
L49606 15925
L49656 15925
L49690 15942
L49707 15958
L49724 15992
L49724 16077
L49707 16110
L49690 16127
L49656 16144
L49555 16144
L49521 16127
L49505 16110
" />
<text x="59094.5" y="16161.4"
textLength="1131.05" font-size="472.441" lengthAdjust="spacingAndGlyphs"
text-anchor="middle" opacity="0">SW4</text>
<path d="M58622 16127
L58672 16144
L58757 16144
L58790 16127
L58807 16110
L58824 16077
L58824 16043
L58807 16009
L58790 15992
L58757 15975
L58689 15958
L58655 15942
L58638 15925
L58622 15891
L58622 15857
L58638 15823
L58655 15807
L58689 15790
L58773 15790
L58824 15807
" />
<path d="M58942 15790
L59026 16144
L59094 15891
L59161 16144
L59246 15790
" />
<path d="M59533 15908
L59533 16144
" />
<path d="M59448 15773
L59364 16026
L59583 16026
" />
<text x="29566.9" y="26003.9"
textLength="1131.05" font-size="472.441" lengthAdjust="spacingAndGlyphs"
text-anchor="middle" opacity="0">SW5</text>
<path d="M29094 25970
L29145 25987
L29229 25987
L29263 25970
L29280 25953
L29296 25919
L29296 25885
L29280 25852
L29263 25835
L29229 25818
L29161 25801
L29128 25784
L29111 25767
L29094 25733
L29094 25700
L29111 25666
L29128 25649
L29161 25632
L29246 25632
L29296 25649
" />
<path d="M29415 25632
L29499 25987
L29566 25733
L29634 25987
L29718 25632
" />
<path d="M30022 25632
L29853 25632
L29836 25801
L29853 25784
L29887 25767
L29971 25767
L30005 25784
L30022 25801
L30039 25835
L30039 25919
L30022 25953
L30005 25970
L29971 25987
L29887 25987
L29853 25970
L29836 25953
" />
<text x="39409.4" y="26003.9"
textLength="1131.05" font-size="472.441" lengthAdjust="spacingAndGlyphs"
text-anchor="middle" opacity="0">SW6</text>
<path d="M38937 25970
L38987 25987
L39071 25987
L39105 25970
L39122 25953
L39139 25919
L39139 25885
L39122 25852
L39105 25835
L39071 25818
L39004 25801
L38970 25784
L38953 25767
L38937 25733
L38937 25700
L38953 25666
L38970 25649
L39004 25632
L39088 25632
L39139 25649
" />
<path d="M39257 25632
L39341 25987
L39409 25733
L39476 25987
L39561 25632
" />
<path d="M39848 25632
L39780 25632
L39746 25649
L39730 25666
L39696 25717
L39679 25784
L39679 25919
L39696 25953
L39713 25970
L39746 25987
L39814 25987
L39848 25970
L39865 25953
L39881 25919
L39881 25835
L39865 25801
L39848 25784
L39814 25767
L39746 25767
L39713 25784
L39696 25801
L39679 25835
" />
<text x="49252" y="26003.9"
textLength="1131.05" font-size="472.441" lengthAdjust="spacingAndGlyphs"
text-anchor="middle" opacity="0">SW7</text>
<path d="M48779 25970
L48830 25987
L48914 25987
L48948 25970
L48965 25953
L48982 25919
L48982 25885
L48965 25852
L48948 25835
L48914 25818
L48847 25801
L48813 25784
L48796 25767
L48779 25733
L48779 25700
L48796 25666
L48813 25649
L48847 25632
L48931 25632
L48982 25649
" />
<path d="M49100 25632
L49184 25987
L49251 25733
L49319 25987
L49403 25632
" />
<path d="M49505 25632
L49741 25632
L49589 25987
" />
<text x="59094.5" y="26003.9"
textLength="1131.05" font-size="472.441" lengthAdjust="spacingAndGlyphs"
text-anchor="middle" opacity="0">SW8</text>
<path d="M58622 25970
L58672 25987
L58757 25987
L58790 25970
L58807 25953
L58824 25919
L58824 25885
L58807 25852
L58790 25835
L58757 25818
L58689 25801
L58655 25784
L58638 25767
L58622 25733
L58622 25700
L58638 25666
L58655 25649
L58689 25632
L58773 25632
L58824 25649
" />
<path d="M58942 25632
L59026 25987
L59094 25733
L59161 25987
L59246 25632
" />
<path d="M59431 25784
L59398 25767
L59381 25750
L59364 25717
L59364 25700
L59381 25666
L59398 25649
L59431 25632
L59499 25632
L59533 25649
L59550 25666
L59566 25700
L59566 25717
L59550 25750
L59533 25767
L59499 25784
L59431 25784
L59398 25801
L59381 25818
L59364 25852
L59364 25919
L59381 25953
L59398 25970
L59431 25987
L59499 25987
L59533 25970
L59550 25953
L59566 25919
L59566 25852
L59550 25818
L59533 25801
L59499 25784
" />
<text x="59094.5" y="65374"
textLength="1131.05" font-size="472.441" lengthAdjust="spacingAndGlyphs"
text-anchor="middle" opacity="0">SW9</text>
<path d="M58622 65340
L58672 65357
L58757 65357
L58790 65340
L58807 65323
L58824 65289
L58824 65255
L58807 65222
L58790 65205
L58757 65188
L58689 65171
L58655 65154
L58638 65137
L58622 65104
L58622 65070
L58638 65036
L58655 65019
L58689 65002
L58773 65002
L58824 65019
" />
<path d="M58942 65002
L59026 65357
L59094 65104
L59161 65357
L59246 65002
" />
<path d="M59398 65357
L59465 65357
L59499 65340
L59516 65323
L59550 65272
L59566 65205
L59566 65070
L59550 65036
L59533 65019
L59499 65002
L59431 65002
L59398 65019
L59381 65036
L59364 65070
L59364 65154
L59381 65188
L59398 65205
L59431 65222
L59499 65222
L59533 65205
L59550 65188
L59566 65154
" />
<text x="59094.5" y="75216.5"
textLength="1468.5" font-size="472.441" lengthAdjust="spacingAndGlyphs"
text-anchor="middle" opacity="0">SW10</text>
<path d="M58453 75182
L58503 75199
L58588 75199
L58622 75182
L58638 75165
L58655 75132
L58655 75098
L58638 75064
L58622 75047
L58588 75030
L58520 75014
L58487 74997
L58470 74980
L58453 74946
L58453 74912
L58470 74879
L58487 74862
L58520 74845
L58605 74845
L58655 74862
" />
<path d="M58773 74845
L58858 75199
L58925 74946
L58993 75199
L59077 74845
" />
<path d="M59398 75199
L59195 75199
" />
<path d="M59296 75199
L59296 74845
L59263 74895
L59229 74929
L59195 74946
" />
<path d="M59617 74845
L59651 74845
L59685 74862
L59701 74879
L59718 74912
L59735 74980
L59735 75064
L59718 75132
L59701 75165
L59685 75182
L59651 75199
L59617 75199
L59583 75182
L59566 75165
L59550 75132
L59533 75064
L59533 74980
L59550 74912
L59566 74879
L59583 74862
L59617 74845
" />
<text x="29566.9" y="45689"
textLength="1468.5" font-size="472.441" lengthAdjust="spacingAndGlyphs"
text-anchor="middle" opacity="0">SW11</text>
<path d="M28925 45655
L28976 45672
L29060 45672
L29094 45655
L29111 45638
L29128 45604
L29128 45570
L29111 45537
L29094 45520
L29060 45503
L28993 45486
L28959 45469
L28942 45452
L28925 45419
L28925 45385
L28942 45351
L28959 45334
L28993 45317
L29077 45317
L29128 45334
" />
<path d="M29246 45317
L29330 45672
L29398 45419
L29465 45672
L29550 45317
" />
<path d="M29870 45672
L29668 45672
" />
<path d="M29769 45672
L29769 45317
L29735 45368
L29701 45402
L29668 45419
" />
<path d="M30208 45672
L30005 45672
" />
<path d="M30106 45672
L30106 45317
L30073 45368
L30039 45402
L30005 45419
" />
<text x="39409.4" y="45689"
textLength="1468.5" font-size="472.441" lengthAdjust="spacingAndGlyphs"
text-anchor="middle" opacity="0">SW12</text>
<path d="M38768 45655
L38818 45672
L38903 45672
L38937 45655
L38953 45638
L38970 45604
L38970 45570
L38953 45537
L38937 45520
L38903 45503
L38835 45486
L38802 45469
L38785 45452
L38768 45419
L38768 45385
L38785 45351
L38802 45334
L38835 45317
L38920 45317
L38970 45334
" />
<path d="M39088 45317
L39173 45672
L39240 45419
L39308 45672
L39392 45317
" />
<path d="M39713 45672
L39510 45672
" />
<path d="M39611 45672
L39611 45317
L39578 45368
L39544 45402
L39510 45419
" />
<path d="M39848 45351
L39865 45334
L39898 45317
L39983 45317
L40016 45334
L40033 45351
L40050 45385
L40050 45419
L40033 45469
L39831 45672
L40050 45672
" />
<text x="49252" y="45689"
textLength="1468.5" font-size="472.441" lengthAdjust="spacingAndGlyphs"
text-anchor="middle" opacity="0">SW13</text>
<path d="M48610 45655
L48661 45672
L48745 45672
L48779 45655
L48796 45638
L48813 45604
L48813 45570
L48796 45537
L48779 45520
L48745 45503
L48678 45486
L48644 45469
L48627 45452
L48610 45419
L48610 45385
L48627 45351
L48644 45334
L48678 45317
L48762 45317
L48813 45334
" />
<path d="M48931 45317
L49015 45672
L49083 45419
L49150 45672
L49235 45317
" />
<path d="M49555 45672
L49353 45672
" />
<path d="M49454 45672
L49454 45317
L49420 45368
L49386 45402
L49353 45419
" />
<path d="M49673 45317
L49893 45317
L49775 45452
L49825 45452
L49859 45469
L49876 45486
L49893 45520
L49893 45604
L49876 45638
L49859 45655
L49825 45672
L49724 45672
L49690 45655
L49673 45638
" />
<text x="59094.5" y="45689"
textLength="1468.5" font-size="472.441" lengthAdjust="spacingAndGlyphs"
text-anchor="middle" opacity="0">SW14</text>
<path d="M58453 45655
L58503 45672
L58588 45672
L58622 45655
L58638 45638
L58655 45604
L58655 45570
L58638 45537
L58622 45520
L58588 45503
L58520 45486
L58487 45469
L58470 45452
L58453 45419
L58453 45385
L58470 45351
L58487 45334
L58520 45317
L58605 45317
L58655 45334
" />
<path d="M58773 45317
L58858 45672
L58925 45419
L58993 45672
L59077 45317
" />
<path d="M59398 45672
L59195 45672
" />
<path d="M59296 45672
L59296 45317
L59263 45368
L59229 45402
L59195 45419
" />
<path d="M59701 45435
L59701 45672
" />
<path d="M59617 45300
L59533 45553
L59752 45553
" />
<text x="29566.9" y="55531.5"
textLength="1468.5" font-size="472.441" lengthAdjust="spacingAndGlyphs"
text-anchor="middle" opacity="0">SW15</text>
<path d="M28925 55497
L28976 55514
L29060 55514
L29094 55497
L29111 55480
L29128 55447
L29128 55413
L29111 55379
L29094 55362
L29060 55345
L28993 55329
L28959 55312
L28942 55295
L28925 55261
L28925 55227
L28942 55194
L28959 55177
L28993 55160
L29077 55160
L29128 55177
" />
<path d="M29246 55160
L29330 55514
L29398 55261
L29465 55514
L29550 55160
" />
<path d="M29870 55514
L29668 55514
" />
<path d="M29769 55514
L29769 55160
L29735 55210
L29701 55244
L29668 55261
" />
<path d="M30191 55160
L30022 55160
L30005 55329
L30022 55312
L30056 55295
L30140 55295
L30174 55312
L30191 55329
L30208 55362
L30208 55447
L30191 55480
L30174 55497
L30140 55514
L30056 55514
L30022 55497
L30005 55480
" />
<text x="39409.4" y="55531.5"
textLength="1468.5" font-size="472.441" lengthAdjust="spacingAndGlyphs"
text-anchor="middle" opacity="0">SW16</text>
<path d="M38768 55497
L38818 55514
L38903 55514
L38937 55497
L38953 55480
L38970 55447
L38970 55413
L38953 55379
L38937 55362
L38903 55345
L38835 55329
L38802 55312
L38785 55295
L38768 55261
L38768 55227
L38785 55194
L38802 55177
L38835 55160
L38920 55160
L38970 55177
" />
<path d="M39088 55160
L39173 55514
L39240 55261
L39308 55514
L39392 55160
" />
<path d="M39713 55514
L39510 55514
" />
<path d="M39611 55514
L39611 55160
L39578 55210
L39544 55244
L39510 55261
" />
<path d="M40016 55160
L39949 55160
L39915 55177
L39898 55194
L39865 55244
L39848 55312
L39848 55447
L39865 55480
L39881 55497
L39915 55514
L39983 55514
L40016 55497
L40033 55480
L40050 55447
L40050 55362
L40033 55329
L40016 55312
L39983 55295
L39915 55295
L39881 55312
L39865 55329
L39848 55362
" />
<text x="49252" y="55531.5"
textLength="1468.5" font-size="472.441" lengthAdjust="spacingAndGlyphs"
text-anchor="middle" opacity="0">SW17</text>
<path d="M48610 55497
L48661 55514
L48745 55514
L48779 55497
L48796 55480
L48813 55447
L48813 55413
L48796 55379
L48779 55362
L48745 55345
L48678 55329
L48644 55312
L48627 55295
L48610 55261
L48610 55227
L48627 55194
L48644 55177
L48678 55160
L48762 55160
L48813 55177
" />
<path d="M48931 55160
L49015 55514
L49083 55261
L49150 55514
L49235 55160
" />
<path d="M49555 55514
L49353 55514
" />
<path d="M49454 55514
L49454 55160
L49420 55210
L49386 55244
L49353 55261
" />
<path d="M49673 55160
L49910 55160
L49758 55514
" />
<text x="59094.5" y="55531.5"
textLength="1468.5" font-size="472.441" lengthAdjust="spacingAndGlyphs"
text-anchor="middle" opacity="0">SW18</text>
<path d="M58453 55497
L58503 55514
L58588 55514
L58622 55497
L58638 55480
L58655 55447
L58655 55413
L58638 55379
L58622 55362
L58588 55345
L58520 55329
L58487 55312
L58470 55295
L58453 55261
L58453 55227
L58470 55194
L58487 55177
L58520 55160
L58605 55160
L58655 55177
" />
<path d="M58773 55160
L58858 55514
L58925 55261
L58993 55514
L59077 55160
" />
<path d="M59398 55514
L59195 55514
" />
<path d="M59296 55514
L59296 55160
L59263 55210
L59229 55244
L59195 55261
" />
<path d="M59600 55312
L59566 55295
L59550 55278
L59533 55244
L59533 55227
L59550 55194
L59566 55177
L59600 55160
L59668 55160
L59701 55177
L59718 55194
L59735 55227
L59735 55244
L59718 55278
L59701 55295
L59668 55312
L59600 55312
L59566 55329
L59550 55345
L59533 55379
L59533 55447
L59550 55480
L59566 55497
L59600 55514
L59668 55514
L59701 55497
L59718 55480
L59735 55447
L59735 55379
L59718 55345
L59701 55329
L59668 55312
" />
<text x="29566.9" y="65374"
textLength="1468.5" font-size="472.441" lengthAdjust="spacingAndGlyphs"
text-anchor="middle" opacity="0">SW19</text>
<path d="M28925 65340
L28976 65357
L29060 65357
L29094 65340
L29111 65323
L29128 65289
L29128 65255
L29111 65222
L29094 65205
L29060 65188
L28993 65171
L28959 65154
L28942 65137
L28925 65104
L28925 65070
L28942 65036
L28959 65019
L28993 65002
L29077 65002
L29128 65019
" />
<path d="M29246 65002
L29330 65357
L29398 65104
L29465 65357
L29550 65002
" />
<path d="M29870 65357
L29668 65357
" />
<path d="M29769 65357
L29769 65002
L29735 65053
L29701 65087
L29668 65104
" />
<path d="M30039 65357
L30106 65357
L30140 65340
L30157 65323
L30191 65272
L30208 65205
L30208 65070
L30191 65036
L30174 65019
L30140 65002
L30073 65002
L30039 65019
L30022 65036
L30005 65070
L30005 65154
L30022 65188
L30039 65205
L30073 65222
L30140 65222
L30174 65205
L30191 65188
L30208 65154
" />
<text x="39409.4" y="65374"
textLength="1468.5" font-size="472.441" lengthAdjust="spacingAndGlyphs"
text-anchor="middle" opacity="0">SW20</text>
<path d="M38768 65340
L38818 65357
L38903 65357
L38937 65340
L38953 65323
L38970 65289
L38970 65255
L38953 65222
L38937 65205
L38903 65188
L38835 65171
L38802 65154
L38785 65137
L38768 65104
L38768 65070
L38785 65036
L38802 65019
L38835 65002
L38920 65002
L38970 65019
" />
<path d="M39088 65002
L39173 65357
L39240 65104
L39308 65357
L39392 65002
" />
<path d="M39510 65036
L39527 65019
L39561 65002
L39645 65002
L39679 65019
L39696 65036
L39713 65070
L39713 65104
L39696 65154
L39493 65357
L39713 65357
" />
<path d="M39932 65002
L39966 65002
L40000 65019
L40016 65036
L40033 65070
L40050 65137
L40050 65222
L40033 65289
L40016 65323
L40000 65340
L39966 65357
L39932 65357
L39898 65340
L39881 65323
L39865 65289
L39848 65222
L39848 65137
L39865 65070
L39881 65036
L39898 65019
L39932 65002
" />
<text x="49252" y="65374"
textLength="1468.5" font-size="472.441" lengthAdjust="spacingAndGlyphs"
text-anchor="middle" opacity="0">SW21</text>
<path d="M48610 65340
L48661 65357
L48745 65357
L48779 65340
L48796 65323
L48813 65289
L48813 65255
L48796 65222
L48779 65205
L48745 65188
L48678 65171
L48644 65154
L48627 65137
L48610 65104
L48610 65070
L48627 65036
L48644 65019
L48678 65002
L48762 65002
L48813 65019
" />
<path d="M48931 65002
L49015 65357
L49083 65104
L49150 65357
L49235 65002
" />
<path d="M49353 65036
L49370 65019
L49403 65002
L49488 65002
L49521 65019
L49538 65036
L49555 65070
L49555 65104
L49538 65154
L49336 65357
L49555 65357
" />
<path d="M49893 65357
L49690 65357
" />
<path d="M49791 65357
L49791 65002
L49758 65053
L49724 65087
L49690 65104
" />
<text x="29566.9" y="75216.5"
textLength="1468.5" font-size="472.441" lengthAdjust="spacingAndGlyphs"
text-anchor="middle" opacity="0">SW22</text>
<path d="M28925 75182
L28976 75199
L29060 75199
L29094 75182
L29111 75165
L29128 75132
L29128 75098
L29111 75064
L29094 75047
L29060 75030
L28993 75014
L28959 74997
L28942 74980
L28925 74946
L28925 74912
L28942 74879
L28959 74862
L28993 74845
L29077 74845
L29128 74862
" />
<path d="M29246 74845
L29330 75199
L29398 74946
L29465 75199
L29550 74845
" />
<path d="M29668 74879
L29685 74862
L29718 74845
L29803 74845
L29836 74862
L29853 74879
L29870 74912
L29870 74946
L29853 74997
L29651 75199
L29870 75199
" />
<path d="M30005 74879
L30022 74862
L30056 74845
L30140 74845
L30174 74862
L30191 74879
L30208 74912
L30208 74946
L30191 74997
L29988 75199
L30208 75199
" />
<text x="39409.4" y="75216.5"
textLength="1468.5" font-size="472.441" lengthAdjust="spacingAndGlyphs"
text-anchor="middle" opacity="0">SW23</text>
<path d="M38768 75182
L38818 75199
L38903 75199
L38937 75182
L38953 75165
L38970 75132
L38970 75098
L38953 75064
L38937 75047
L38903 75030
L38835 75014
L38802 74997
L38785 74980
L38768 74946
L38768 74912
L38785 74879
L38802 74862
L38835 74845
L38920 74845
L38970 74862
" />
<path d="M39088 74845
L39173 75199
L39240 74946
L39308 75199
L39392 74845
" />
<path d="M39510 74879
L39527 74862
L39561 74845
L39645 74845
L39679 74862
L39696 74879
L39713 74912
L39713 74946
L39696 74997
L39493 75199
L39713 75199
" />
<path d="M39831 74845
L40050 74845
L39932 74980
L39983 74980
L40016 74997
L40033 75014
L40050 75047
L40050 75132
L40033 75165
L40016 75182
L39983 75199
L39881 75199
L39848 75182
L39831 75165
" />
<text x="49252" y="75216.5"
textLength="1468.5" font-size="472.441" lengthAdjust="spacingAndGlyphs"
text-anchor="middle" opacity="0">SW24</text>
<path d="M48610 75182
L48661 75199
L48745 75199
L48779 75182
L48796 75165
L48813 75132
L48813 75098
L48796 75064
L48779 75047
L48745 75030
L48678 75014
L48644 74997
L48627 74980
L48610 74946
L48610 74912
L48627 74879
L48644 74862
L48678 74845
L48762 74845
L48813 74862
" />
<path d="M48931 74845
L49015 75199
L49083 74946
L49150 75199
L49235 74845
" />
<path d="M49353 74879
L49370 74862
L49403 74845
L49488 74845
L49521 74862
L49538 74879
L49555 74912
L49555 74946
L49538 74997
L49336 75199
L49555 75199
" />
<path d="M49859 74963
L49859 75199
" />
<path d="M49775 74828
L49690 75081
L49910 75081
" />
<g >
</g>
</g> 
</svg>
