0
SECTION
2
HEADER
9
$INSUNITS
70
4
9
$ACADVER
1
AC1014
9
$HANDSEED
5
FFFF
0
ENDSEC
0
SECTION
2
TABLES
0
TABLE
2
VPORT
5
8
100
AcDbSymbolTable
0
ENDTAB
0
TABLE
2
LTYPE
5
5
100
AcDbSymbolTable
0
LTYPE
5
14
100
AcDbSymbolTableRecord
100
AcDbLinetypeTableRecord
2
BYBLOCK
70
0
0
LTYPE
5
15
100
AcDbSymbolTableRecord
100
AcDbLinetypeTableRecord
2
BYLAYER
70
0
0
ENDTAB
0
TABLE
2
LAYER
5
2
100
AcDbSymbolTable
70
2
0
LAYER
5
50
100
AcDbSymbolTableRecord
100
AcDbLayerTableRecord
2
0
70
0
6
CONTINUOUS
0
ENDTAB
0
TABLE
2
STYLE
5
3
100
AcDbSymbolTable
70
1
0
STYLE
5
11
100
AcDbSymbolTableRecord
100
AcDbTextStyleTableRecord
2
STANDARD
70
0
0
ENDTAB
0
TABLE
2
VIEW
5
6
100
AcDbSymbolTable
70
0
0
ENDTAB
0
TABLE
2
UCS
5
7
100
AcDbSymbolTable
70
0
0
ENDTAB
0
TABLE
2
APPID
5
9
100
AcDbSymbolTable
70
2
0
APPID
5
12
100
AcDbSymbolTableRecord
100
AcDbRegAppTableRecord
2
ACAD
70
0
0
ENDTAB
0
TABLE
2
DIMSTYLE
5
A
100
AcDbSymbolTable
70
1
0
ENDTAB
0
TABLE
2
BLOCK_RECORD
5
1
100
AcDbSymbolTable
70
1
0
BLOCK_RECORD
5
1F
100
AcDbSymbolTableRecord
100
AcDbBlockTableRecord
2
*MODEL_SPACE
0
BLOCK_RECORD
5
1B
100
AcDbSymbolTableRecord
100
AcDbBlockTableRecord
2
*PAPER_SPACE
0
ENDTAB
0
ENDSEC
0
SECTION
2
BLOCKS
0
BLOCK
5
20
100
AcDbEntity
100
AcDbBlockBegin
2
*MODEL_SPACE
0
ENDBLK
5
21
100
AcDbEntity
100
AcDbBlockEnd
0
BLOCK
5
1C
100
AcDbEntity
100
AcDbBlockBegin
2
*PAPER_SPACE
0
ENDBLK
5
1D
100
AcDbEntity
100
AcDbBlockEnd
0
ENDSEC
0
SECTION
2
ENTITIES
0
CIRCLE
5
100
100
AcDbEntity
8
0
100
AcDbCircle
10
-87.63672034537467
20
62.731480602922154
30
0
40
1.6000000000000014
210
0
220
-0
230
1
0
LWPOLYLINE
5
101
100
AcDbEntity
8
0
100
AcDbPolyline
90
4
70
1
43
0.0
10
-19.636720345374666
20
61.131480602922146
42
-0.99999999999999989
10
-19.63672034537467
20
64.331480602922142
10
-10.636720345374684
20
64.331480602922156
42
-0.99999999999999989
10
-10.636720345374684
20
61.131480602922153
0
LWPOLYLINE
5
102
100
AcDbEntity
8
0
100
AcDbPolyline
90
8
70
1
43
0.0
10
101.2899999999957
20
-93.290000000000049
42
-0.41421356237308982
10
98.289999999995686
20
-96.289999999999992
10
-98.28999999999796
20
-96.289999999999992
42
-0.41421356237308982
10
-101.28999999999795
20
-93.29000000000002
10
-101.28999999999988
20
93.289999999999921
42
-0.4142135623731002
10
-98.289999999999864
20
96.289999999999978
10
98.290000000000006
20
96.29000000000002
42
-0.41421356237310197
10
101.29000000000002
20
93.289999999999935
0
LWPOLYLINE
5
103
100
AcDbEntity
8
0
100
AcDbPolyline
90
4
70
1
43
0.0
10
71.249999999998209
20
88.700000000000117
10
71.249999999998977
20
92.500000000000014
10
26.249999999998987
20
92.500000000000128
10
26.249999999999005
20
88.700000000000117
0
LWPOLYLINE
5
104
100
AcDbEntity
8
0
100
AcDbPolyline
90
4
70
1
43
0.0
10
22.499999999998899
20
92.500000000000085
10
-22.500000000001101
20
92.500000000000128
10
-22.500000000001101
20
88.700000000000117
10
22.499999999998899
20
88.700000000000131
0
CIRCLE
5
105
100
AcDbEntity
8
0
100
AcDbCircle
10
-95.949999999999577
20
90.950000000000102
30
0
40
1.5499999999999934
210
6.5321008831513048e-201
220
-8.6361685550944465e-78
230
1
0
CIRCLE
5
106
100
AcDbEntity
8
0
100
AcDbCircle
10
-95.949999999999591
20
-90.949999999999918
30
0
40
1.5499999999999934
210
6.5321008831513048e-201
220
-8.6361685550944465e-78
230
1
0
CIRCLE
5
107
100
AcDbEntity
8
0
100
AcDbCircle
10
95.94999999999915
20
-90.949999999999918
30
0
40
1.5500000000000114
210
0
220
0
230
1
0
CIRCLE
5
108
100
AcDbEntity
8
0
100
AcDbCircle
10
95.949999999999193
20
90.950000000000102
30
0
40
1.5499999999999934
210
6.5321008831513048e-201
220
-8.6361685550944465e-78
230
1
0
LWPOLYLINE
5
109
100
AcDbEntity
8
0
100
AcDbPolyline
90
4
70
1
43
0.0
10
22.499999999998881
20
-88.699999999999903
10
-22.500000000001119
20
-88.699999999999903
10
-22.500000000001119
20
-92.499999999999929
10
22.499999999998892
20
-92.499999999999858
0
LWPOLYLINE
5
110
100
AcDbEntity
8
0
100
AcDbPolyline
90
4
70
1
43
0.0
10
-97.499999999999872
20
53.958333333334679
10
-97.500000000000483
20
7.7083333333346715
10
-93.700000000000486
20
7.7083333333346182
10
-93.699999999999989
20
53.958333333334643
0
LWPOLYLINE
5
111
100
AcDbEntity
8
0
100
AcDbPolyline
90
4
70
1
43
0.0
10
97.499999999999517
20
7.7083333333334281
10
97.499999999999503
20
53.958333333333428
10
93.699999999999633
20
53.958333333333428
10
93.699999999999505
20
7.7083333333334281
0
LWPOLYLINE
5
112
100
AcDbEntity
8
0
100
AcDbPolyline
90
4
70
1
43
0.0
10
71.249999999998181
20
-88.699999999999903
10
26.249999999998987
20
-88.699999999999903
10
26.24999999999897
20
-92.499999999999886
10
71.249999999998948
20
-92.499999999999787
0
LWPOLYLINE
5
113
100
AcDbEntity
8
0
100
AcDbPolyline
90
4
70
1
43
0.0
10
93.699999999999505
20
-7.7083333333332327
10
93.699999999999633
20
-53.958333333333229
10
97.499999999999517
20
-53.958333333333229
10
97.499999999999517
20
-7.7083333333332327
0
LWPOLYLINE
5
114
100
AcDbEntity
8
0
100
AcDbPolyline
90
4
70
1
43
0.0
10
-71.250000000001194
20
92.499999999999119
10
-71.250000000000369
20
88.699999999999207
10
-26.250000000001155
20
88.699999999999733
10
-26.25000000000119
20
92.499999999999744
0
LWPOLYLINE
5
115
100
AcDbEntity
8
0
100
AcDbPolyline
90
4
70
1
43
0.0
10
-26.25000000000119
20
-88.699999999999505
10
-71.250000000000398
20
-88.69999999999898
10
-71.250000000001194
20
-92.499999999998863
10
-26.250000000001226
20
-92.499999999999503
0
LWPOLYLINE
5
116
100
AcDbEntity
8
0
100
AcDbPolyline
90
4
70
1
43
0.0
10
-97.500000000001293
20
-53.958333333331971
10
-93.70000000000141
20
-53.958333333332021
10
-93.700000000000671
20
-7.7083333333320425
10
-97.500000000000654
20
-7.708333333332007
0
ENDSEC
0
SECTION
2
OBJECTS
0
DICTIONARY
5
C
100
AcDbDictionary
3
ACAD_GROUP
350
D
3
ACAD_MLINESTYLE
350
17
0
DICTIONARY
5
D
100
AcDbDictionary
0
DICTIONARY
5
1A
330
C
100
AcDbDictionary
0
DICTIONARY
5
17
100
AcDbDictionary
0
ENDSEC
0
EOF
