0
SECTION
2
HEADER
9
$INSUNITS
70
4
9
$ACADVER
1
AC1014
9
$HANDSEED
5
FFFF
0
ENDSEC
0
SECTION
2
TABLES
0
TABLE
2
VPORT
5
8
100
AcDbSymbolTable
0
ENDTAB
0
TABLE
2
LTYPE
5
5
100
AcDbSymbolTable
0
LTYPE
5
14
100
AcDbSymbolTableRecord
100
AcDbLinetypeTableRecord
2
BYBLOCK
70
0
0
LTYPE
5
15
100
AcDbSymbolTableRecord
100
AcDbLinetypeTableRecord
2
BYLAYER
70
0
0
ENDTAB
0
TABLE
2
LAYER
5
2
100
AcDbSymbolTable
70
2
0
LAYER
5
50
100
AcDbSymbolTableRecord
100
AcDbLayerTableRecord
2
0
70
0
6
CONTINUOUS
0
ENDTAB
0
TABLE
2
STYLE
5
3
100
AcDbSymbolTable
70
1
0
STYLE
5
11
100
AcDbSymbolTableRecord
100
AcDbTextStyleTableRecord
2
STANDARD
70
0
0
ENDTAB
0
TABLE
2
VIEW
5
6
100
AcDbSymbolTable
70
0
0
ENDTAB
0
TABLE
2
UCS
5
7
100
AcDbSymbolTable
70
0
0
ENDTAB
0
TABLE
2
APPID
5
9
100
AcDbSymbolTable
70
2
0
APPID
5
12
100
AcDbSymbolTableRecord
100
AcDbRegAppTableRecord
2
ACAD
70
0
0
ENDTAB
0
TABLE
2
DIMSTYLE
5
A
100
AcDbSymbolTable
70
1
0
ENDTAB
0
TABLE
2
BLOCK_RECORD
5
1
100
AcDbSymbolTable
70
1
0
BLOCK_RECORD
5
1F
100
AcDbSymbolTableRecord
100
AcDbBlockTableRecord
2
*MODEL_SPACE
0
BLOCK_RECORD
5
1B
100
AcDbSymbolTableRecord
100
AcDbBlockTableRecord
2
*PAPER_SPACE
0
ENDTAB
0
ENDSEC
0
SECTION
2
BLOCKS
0
BLOCK
5
20
100
AcDbEntity
100
AcDbBlockBegin
2
*MODEL_SPACE
0
ENDBLK
5
21
100
AcDbEntity
100
AcDbBlockEnd
0
BLOCK
5
1C
100
AcDbEntity
100
AcDbBlockBegin
2
*PAPER_SPACE
0
ENDBLK
5
1D
100
AcDbEntity
100
AcDbBlockEnd
0
ENDSEC
0
SECTION
2
ENTITIES
0
LWPOLYLINE
5
100
100
AcDbEntity
8
0
100
AcDbPolyline
90
8
70
1
43
0.0
10
70.743999999972417
20
14.100000000084467
10
70.743999999972417
20
19.700000000084433
42
0.41421356237309598
10
68.743999999972417
20
21.700000000084415
10
59.143999999972493
20
21.700000000084415
42
0.41421356237309509
10
57.143999999972486
20
19.70000000008443
10
57.143999999972493
20
14.100000000084464
42
0.41421356237309637
10
59.143999999972493
20
12.100000000084476
10
68.743999999972431
20
12.100000000084476
42
0.4142135623730957
0
ARC
5
101
100
AcDbEntity
8
0
100
AcDbCircle
10
-52.458333333347802
20
-3.0000000000008575
30
-3.1474477226045696e-45
40
1.5000000000000036
210
1.5405010578527791e-31
220
2.4651903288183244e-32
230
1
100
AcDbArc
50
180
51
270.00000000000898
0
LINE
5
102
100
AcDbEntity
8
0
100
AcDbLine
10
-52.458333333347568
20
-4.5000000000008615
30
3.6977854932234857e-32
11
-9.2083333333462036
21
-4.4999999999934994
31
-1.1484616732683791e-29
0
ARC
5
103
100
AcDbEntity
8
0
100
AcDbCircle
10
-9.2083333333464505
20
-2.9999999999935096
30
8.210733189403225e-46
40
1.4999999999999898
210
-3.5824089748162936e-31
220
-7.6564111551226379e-30
230
1
100
AcDbArc
50
270.00000000000938
51
360
0
LINE
5
104
100
AcDbEntity
8
0
100
AcDbLine
10
-7.7083333333464621
20
-2.9999999999947207
30
5.3736134622440824e-31
11
-7.7083333333440507
21
7.269740365245525e-12
31
-6.1629758220391547e-32
0
LINE
5
105
100
AcDbEntity
8
0
100
AcDbLine
10
-7.7083333333440507
20
7.269740365245525e-12
30
-6.1629758220391547e-32
11
7.7083333333196862
21
1.2325297056616046e-11
31
-3.6149009067294151e-30
0
LINE
5
106
100
AcDbEntity
8
0
100
AcDbLine
10
7.7083333333196862
20
1.2325297056616046e-11
30
-3.6149009067294151e-30
11
7.7083333333270065
21
-2.9999999999886819
31
-1.8488927466117464e-31
0
ARC
5
107
100
AcDbEntity
8
0
100
AcDbCircle
10
9.2083333333270012
20
-2.9999999999850226
30
3.28429327576129e-46
40
1.4999999999999947
210
-1.2325951644072361e-31
220
-2.4651903288327315e-32
230
1
100
AcDbArc
50
180
51
270.00000000010078
0
LINE
5
108
100
AcDbEntity
8
0
100
AcDbLine
10
9.2083333333296391
20
-4.4999999999850129
30
-3.6977854932234573e-32
11
52.458333333330813
21
-4.4999999999090488
31
-2.2551127476060132e-30
0
ARC
5
109
100
AcDbEntity
8
0
100
AcDbCircle
10
52.458333333328184
20
-2.9999999999090532
30
-2.7026996748452282e-46
40
1.4999999999999958
210
-9.2772425213940321e-33
220
-1.5034084984040291e-30
230
1
100
AcDbArc
50
-89.9999999998996
51
0
0
LINE
5
110
100
AcDbEntity
8
0
100
AcDbLine
10
53.958333333328177
20
-2.9999999999068585
30
1.3915863786053911e-32
11
53.958333333323772
21
9.3566265846334318e-11
31
1.2325951644078309e-31
0
LINE
5
111
100
AcDbEntity
8
0
100
AcDbLine
10
53.958333333323772
20
9.3566265846334318e-11
30
1.2325951644078309e-31
11
82.499999999999602
21
6.7815477170423877e-11
31
2.2087334500241482e-30
0
SPLINE
5
112
100
AcDbEntity
8
0
100
AcDbSpline
70
4
71
5
72
21
73
15
74
0
42
0.000000001
43
0.0000000001
44
0.0000000001
40
0
40
0
40
0
40
0
40
0
40
0
40
0.10000000000000001
40
0.20000000000000001
40
0.30000000000000004
40
0.40000000000000002
40
0.5
40
0.59999999999999998
40
0.69999999999999996
40
0.79999999999999993
40
0.89999999999999991
40
1
40
1
40
1
40
1
40
1
40
1
41
1
41
1
41
1
41
1
41
1
41
1
41
1
41
1
41
1
41
1
41
1
41
1
41
1
41
1
41
1
10
82.499999999972317
20
25.000000000093863
30
0
10
82.272457172386154
20
24.500000000088807
30
0
10
81.837242723915381
20
23.500000000078849
30
0
10
81.244032844390816
20
22.000000000064336
30
0
10
80.574287171289356
20
20.000000000046096
30
0
10
79.952815831599722
20
17.500000000026489
30
0
10
79.566333108125221
20
15.000000000011575
30
0
10
79.434015859206283
20
12.500000000002832
30
0
10
79.566333108127651
20
10.000000000001371
30
0
10
79.952815831605719
20
7.500000000007371
30
0
10
80.574287171300483
20
5.0000000000204983
30
0
10
81.244032844407471
20
3.0000000000363229
30
0
10
81.837242723937038
20
1.500000000050997
30
0
10
82.272457172411492
20
0.50000000006200518
30
0
10
82.499999999999631
20
6.7815477170423877e-11
30
0
0
LINE
5
113
100
AcDbEntity
8
0
100
AcDbLine
10
82.499999999972317
20
25.000000000093863
30
0
11
53.958333333319374
21
25.000000000000124
31
6.7576165944718962e-30
0
LINE
5
114
100
AcDbEntity
8
0
100
AcDbLine
10
53.958333333319374
20
25.000000000000124
30
6.7576165944718962e-30
11
53.958333333361487
21
30.999999999979735
31
-1.7763568394002505e-14
0
ARC
5
115
100
AcDbEntity
8
0
100
AcDbCircle
10
52.45833333336148
20
30.999999999990244
30
-1.1412919133270483e-44
40
1.5000000000000036
210
1.1842378929334975e-14
220
-8.295305744076698e-26
230
1
100
AcDbArc
50
0
51
89.999999999986969
0
LINE
5
116
100
AcDbEntity
8
0
100
AcDbLine
10
52.458333333361821
20
32.499999999990251
30
-7.3955709864470054e-32
11
9.2083333333142292
21
32.49999999999973
31
7.7655614516689127e-31
0
ARC
5
117
100
AcDbEntity
8
0
100
AcDbCircle
10
9.2083333333139006
20
30.999999999999737
30
0
40
1.4999999999999902
210
-4.9846017656149036e-31
220
-5.1770409677782171e-31
230
1
100
AcDbArc
50
89.999999999987452
51
180
0
LINE
5
118
100
AcDbEntity
8
0
100
AcDbLine
10
7.7083333333139104
20
30.999999999998291
30
-7.4769026484210434e-31
11
7.708333333319688
21
25.000000000000107
31
-1.7763568394002505e-14
0
LINE
5
119
100
AcDbEntity
8
0
100
AcDbLine
10
7.708333333319688
20
25.000000000000107
30
-1.7763568394002505e-14
11
-7.7083333333440489
21
24.999999999980563
31
-1.7763568394002505e-14
0
LINE
5
120
100
AcDbEntity
8
0
100
AcDbLine
10
-7.7083333333440489
20
24.999999999980563
30
-1.7763568394002505e-14
11
-7.7083333333412796
21
30.999999999999368
31
0
0
ARC
5
121
100
AcDbEntity
8
0
100
AcDbCircle
10
-9.2083333333412636
20
31.000000000000057
30
2.4632199568209675e-46
40
1.4999999999999836
210
1.6421466373424182e-46
220
-1.1654034949102766e-43
230
1
100
AcDbArc
50
0
51
90.000000000000057
0
LINE
5
122
100
AcDbEntity
8
0
100
AcDbLine
10
-9.2083333333412654
20
32.500000000000043
30
-4.2604290336090831e-47
11
-52.458333333340939
21
32.499999999999972
31
5.6452446484412278e-30
0
ARC
5
123
100
AcDbEntity
8
0
100
AcDbCircle
10
-52.458333333340939
20
30.999999999999975
30
-1.7763568394002505e-14
40
1.4999999999999947
210
0
220
-1.1842378929335048e-14
230
1
100
AcDbArc
50
90
51
180
0
LINE
5
124
100
AcDbEntity
8
0
100
AcDbLine
10
-53.958333333340946
20
31.000000000000682
30
-1.7763568394002505e-14
11
-53.958333333343731
21
25.000000000000018
31
0
0
LINE
5
125
100
AcDbEntity
8
0
100
AcDbLine
10
-53.958333333343731
20
25.000000000000018
30
0
11
-82.499999999996703
21
25.000000000014658
31
6.5734346016389557e-30
0
SPLINE
5
126
100
AcDbEntity
8
0
100
AcDbSpline
70
4
71
5
72
21
73
15
74
0
42
0.000000001
43
0.0000000001
44
0.0000000001
40
0
40
0
40
0
40
0
40
0
40
0
40
0.10000000000000001
40
0.20000000000000001
40
0.30000000000000004
40
0.40000000000000002
40
0.5
40
0.59999999999999998
40
0.69999999999999996
40
0.79999999999999993
40
0.89999999999999991
40
1
40
1
40
1
40
1
40
1
40
1
41
1
41
1
41
1
41
1
41
1
41
1
41
1
41
1
41
1
41
1
41
1
41
1
41
1
41
1
41
1
10
-82.499999999996717
20
25.000000000014658
30
0
10
-82.27245717238857
20
24.500000000010679
30
0
10
-81.837242723879143
20
23.500000000002608
30
0
10
-81.244032844312613
20
21.999999999990145
30
0
10
-80.574287171186668
20
19.999999999973188
30
0
10
-79.952815831509469
20
17.499999999953339
30
0
10
-79.566333108076023
20
14.999999999937126
30
0
10
-79.434015859211073
20
12.499999999926874
30
0
10
-79.566333108184239
20
9.9999999999243165
30
0
10
-79.952815831698473
20
7.4999999999298526
30
0
10
-80.574287171402986
20
4.9999999999432667
30
0
10
-81.24403284448961
20
2.9999999999599298
30
0
10
-81.837242723985369
20
1.4999999999755695
30
0
10
-82.272457172428815
20
0.49999999998737132
30
0
10
-82.499999999999304
20
-6.3841814080372858e-12
30
0
0
LINE
5
127
100
AcDbEntity
8
0
100
AcDbLine
10
-82.499999999999304
20
-6.384126213815382e-12
30
0
11
-53.958333333348698
21
-1.1441028392311793e-12
31
-2.682308535074932e-31
0
LINE
5
128
100
AcDbEntity
8
0
100
AcDbLine
10
-53.958333333348698
20
-1.1441028392311793e-12
30
-2.682308535074932e-31
11
-53.958333333347809
21
-3.0000000000013034
31
2.3107515867792525e-31
0
ENDSEC
0
SECTION
2
OBJECTS
0
DICTIONARY
5
C
100
AcDbDictionary
3
ACAD_GROUP
350
D
3
ACAD_MLINESTYLE
350
17
0
DICTIONARY
5
D
100
AcDbDictionary
0
DICTIONARY
5
1A
330
C
100
AcDbDictionary
0
DICTIONARY
5
17
100
AcDbDictionary
0
ENDSEC
0
EOF
