0
SECTION
2
HEADER
9
$INSUNITS
70
4
9
$ACADVER
1
AC1014
9
$HANDSEED
5
FFFF
0
ENDSEC
0
SECTION
2
TABLES
0
TABLE
2
VPORT
5
8
100
AcDbSymbolTable
0
ENDTAB
0
TABLE
2
LTYPE
5
5
100
AcDbSymbolTable
0
LTYPE
5
14
100
AcDbSymbolTableRecord
100
AcDbLinetypeTableRecord
2
BYBLOCK
70
0
0
LTYPE
5
15
100
AcDbSymbolTableRecord
100
AcDbLinetypeTableRecord
2
BYLAYER
70
0
0
ENDTAB
0
TABLE
2
LAYER
5
2
100
AcDbSymbolTable
70
2
0
LAYER
5
50
100
AcDbSymbolTableRecord
100
AcDbLayerTableRecord
2
0
70
0
6
CONTINUOUS
0
ENDTAB
0
TABLE
2
STYLE
5
3
100
AcDbSymbolTable
70
1
0
STYLE
5
11
100
AcDbSymbolTableRecord
100
AcDbTextStyleTableRecord
2
STANDARD
70
0
0
ENDTAB
0
TABLE
2
VIEW
5
6
100
AcDbSymbolTable
70
0
0
ENDTAB
0
TABLE
2
UCS
5
7
100
AcDbSymbolTable
70
0
0
ENDTAB
0
TABLE
2
APPID
5
9
100
AcDbSymbolTable
70
2
0
APPID
5
12
100
AcDbSymbolTableRecord
100
AcDbRegAppTableRecord
2
ACAD
70
0
0
ENDTAB
0
TABLE
2
DIMSTYLE
5
A
100
AcDbSymbolTable
70
1
0
ENDTAB
0
TABLE
2
BLOCK_RECORD
5
1
100
AcDbSymbolTable
70
1
0
BLOCK_RECORD
5
1F
100
AcDbSymbolTableRecord
100
AcDbBlockTableRecord
2
*MODEL_SPACE
0
BLOCK_RECORD
5
1B
100
AcDbSymbolTableRecord
100
AcDbBlockTableRecord
2
*PAPER_SPACE
0
ENDTAB
0
ENDSEC
0
SECTION
2
BLOCKS
0
BLOCK
5
20
100
AcDbEntity
100
AcDbBlockBegin
2
*MODEL_SPACE
0
ENDBLK
5
21
100
AcDbEntity
100
AcDbBlockEnd
0
BLOCK
5
1C
100
AcDbEntity
100
AcDbBlockBegin
2
*PAPER_SPACE
0
ENDBLK
5
1D
100
AcDbEntity
100
AcDbBlockEnd
0
ENDSEC
0
SECTION
2
ENTITIES
0
ARC
5
100
100
AcDbEntity
8
0
100
AcDbCircle
10
69.749999999999929
20
-3.0000000000002061
30
-1.4334571693166464e-45
40
1.4999999999999791
210
-8.1092610308785633e-33
220
-4.930380657631326e-32
230
1
100
AcDbArc
50
-90.000000000000568
51
0
0
LINE
5
101
100
AcDbEntity
8
0
100
AcDbLine
10
71.249999999999901
20
-3.0000000000001705
30
1.2163891546317988e-32
11
71.249999999999901
21
-1.4710455076283324e-13
31
0
0
LINE
5
102
100
AcDbEntity
8
0
100
AcDbLine
10
71.249999999999901
20
-1.4710455076283324e-13
30
0
11
87.499999999999872
21
-2.0293528255217448e-13
31
-1.6626847849757015e-31
0
SPLINE
5
103
100
AcDbEntity
8
0
100
AcDbSpline
70
4
71
5
72
21
73
15
74
0
42
0.000000001
43
0.0000000001
44
0.0000000001
40
0
40
0
40
0
40
0
40
0
40
0
40
0.10000000000000001
40
0.20000000000000001
40
0.30000000000000004
40
0.40000000000000002
40
0.5
40
0.59999999999999998
40
0.69999999999999996
40
0.79999999999999993
40
0.89999999999999991
40
1
40
1
40
1
40
1
40
1
40
1
41
1
41
1
41
1
41
1
41
1
41
1
41
1
41
1
41
1
41
1
41
1
41
1
41
1
41
1
41
1
10
87.499999999999915
20
24.999999999999996
30
0
10
87.272457172377088
20
24.499999999999964
30
0
10
86.837242723842763
20
23.499999999999893
30
0
10
86.244032844252644
20
21.999999999999758
30
0
10
85.574287171119408
20
19.999999999999613
30
0
10
84.952815831464733
20
17.499999999999645
30
0
10
84.566333108074531
20
14.99999999999976
30
0
10
84.434015859262587
20
12.499999999999956
30
0
10
84.566333108285733
20
10.000000000000149
30
0
10
84.952815831833973
20
7.5000000000002967
30
0
10
85.574287171542821
20
5.0000000000003162
30
0
10
86.244032844599502
20
3.0000000000001963
30
0
10
86.837242724049887
20
1.5000000000000271
30
0
10
87.272457172452448
20
0.49999999999987971
30
0
10
87.499999999999872
20
-2.0293528255217448e-13
30
0
0
LINE
5
104
100
AcDbEntity
8
0
100
AcDbLine
10
87.499999999999915
20
24.999999999999996
30
0
11
71.250000000001009
21
24.999999999999996
31
-1.5238830993698344e-32
0
LINE
5
105
100
AcDbEntity
8
0
100
AcDbLine
10
71.250000000001009
20
24.999999999999996
30
-1.5238830993698344e-32
11
71.250000000000597
21
31.000000000000153
31
-2.4651903288156619e-31
0
ARC
5
106
100
AcDbEntity
8
0
100
AcDbCircle
10
69.750000000000597
20
31.000000000000082
30
1.8337304123000536e-45
40
1.4999999999999947
210
1.6434602192104829e-31
220
-4.9303806576305262e-32
230
1
100
AcDbArc
50
0
51
90.00000000000054
0
LINE
5
107
100
AcDbEntity
8
0
100
AcDbLine
10
69.750000000000583
20
32.500000000000057
30
7.3955709864470623e-32
11
27.750000000000455
21
32.500000000000064
31
6.5845197605016749e-31
0
ARC
5
108
100
AcDbEntity
8
0
100
AcDbCircle
10
27.750000000000451
20
31.000000000000082
30
1.7763568394002505e-14
40
1.4999999999999813
210
3.5060484676490287e-29
220
1.184237892933515e-14
230
1
100
AcDbArc
50
89.999999999999858
51
180
0
LINE
5
109
100
AcDbEntity
8
0
100
AcDbLine
10
26.250000000000465
20
31.000000000000156
30
1.7763568394002505e-14
11
26.250000000000007
21
25.000000000000004
31
1.7763568394002505e-14
0
LINE
5
110
100
AcDbEntity
8
0
100
AcDbLine
10
26.250000000000007
20
25.000000000000004
30
1.7763568394002505e-14
11
22.500000000000021
21
25.000000000000004
31
1.7763568394002505e-14
0
LINE
5
111
100
AcDbEntity
8
0
100
AcDbLine
10
22.500000000000021
20
25.000000000000004
30
1.7763568394002505e-14
11
22.500000000000028
21
31.00000000000005
31
1.7763568394002505e-14
0
ARC
5
112
100
AcDbEntity
8
0
100
AcDbCircle
10
21.000000000000018
20
31.000000000000068
30
1.7763568394002505e-14
40
1.500000000000008
210
0
220
0
230
1
100
AcDbArc
50
0
51
89.999999999999858
0
LINE
5
113
100
AcDbEntity
8
0
100
AcDbLine
10
21.000000000000021
20
32.500000000000064
30
1.7763568394002505e-14
11
-20.999999999999915
21
32.500000000000064
31
1.7763568394002505e-14
0
ARC
5
114
100
AcDbEntity
8
0
100
AcDbCircle
10
-20.999999999999925
20
31.000000000000082
30
1.1939774512923856e-45
40
1.4999999999999858
210
-7.0126113441896885e-29
220
-1.1842378929335116e-14
230
1
100
AcDbArc
50
89.999999999999588
51
180
0
LINE
5
115
100
AcDbEntity
8
0
100
AcDbLine
10
-22.499999999999915
20
31.000000000000053
30
-7.7161333750951707e-33
11
-22.499999999999929
21
25.000000000000007
31
0
0
LINE
5
116
100
AcDbEntity
8
0
100
AcDbLine
10
-22.499999999999929
20
25.000000000000007
30
0
11
-26.249999999999925
21
25.000000000000007
31
5.9648479584298641e-33
0
LINE
5
117
100
AcDbEntity
8
0
100
AcDbLine
10
-26.249999999999925
20
25.000000000000007
30
5.9648479584298641e-33
11
-26.250000000000284
21
31.000000000000153
31
-2.4651903288156619e-31
0
ARC
5
118
100
AcDbEntity
8
0
100
AcDbCircle
10
-27.750000000000274
20
31.000000000000085
30
2.4375614156040824e-47
40
1.4999999999999902
210
1.6434602192104521e-31
220
7.5228579733849894e-45
230
1
100
AcDbArc
50
0
51
90.000000000000142
0
LINE
5
119
100
AcDbEntity
8
0
100
AcDbLine
10
-27.750000000000277
20
32.500000000000071
30
7.4550884627816807e-48
11
-69.750000000000199
21
32.500000000000099
31
8.8822153418231888e-31
0
ARC
5
120
100
AcDbEntity
8
0
100
AcDbCircle
10
-69.750000000000227
20
31.000000000000124
30
1.7763568394002505e-14
40
1.4999999999999725
210
2.1036290805894425e-28
220
1.1842378929335223e-14
230
1
100
AcDbArc
50
89.99999999999892
51
180
0
LINE
5
121
100
AcDbEntity
8
0
100
AcDbLine
10
-71.250000000000213
20
30.999999999999993
30
1.7763568394002505e-14
11
-71.249999999999829
21
25.000000000000018
31
1.7763568394002505e-14
0
LINE
5
122
100
AcDbEntity
8
0
100
AcDbLine
10
-71.249999999999829
20
25.000000000000018
30
1.7763568394002505e-14
11
-87.499999999999858
21
25.000000000000018
31
1.7763568394002505e-14
0
SPLINE
5
123
100
AcDbEntity
8
0
100
AcDbSpline
70
4
71
5
72
21
73
15
74
0
42
0.000000001
43
0.0000000001
44
0.0000000001
40
0
40
0
40
0
40
0
40
0
40
0
40
0.10000000000000001
40
0.20000000000000001
40
0.30000000000000004
40
0.40000000000000002
40
0.5
40
0.59999999999999998
40
0.69999999999999996
40
0.79999999999999993
40
0.89999999999999991
40
1
40
1
40
1
40
1
40
1
40
1
41
1
41
1
41
1
41
1
41
1
41
1
41
1
41
1
41
1
41
1
41
1
41
1
41
1
41
1
41
1
10
-87.499999999999858
20
25.000000000000018
30
1.7763568394002505e-14
10
-87.272457172415898
20
24.499999999999989
30
1.7763568394002505e-14
10
-86.837242723949402
20
23.499999999999915
30
1.7763568394002505e-14
10
-86.244032844430592
20
21.99999999999978
30
0
10
-85.574287171335612
20
19.999999999999634
30
0
10
-84.952815831651861
20
17.499999999999666
30
0
10
-84.5663331081807
20
14.999999999999783
30
0
10
-84.434015859262118
20
12.499999999999979
30
0
10
-84.566333108180231
20
10.000000000000171
30
0
10
-84.952815831651066
20
7.500000000000318
30
0
10
-85.574287171334689
20
5.0000000000003375
30
0
10
-86.244032844429839
20
3.000000000000218
30
0
10
-86.837242723948961
20
1.5000000000000488
30
0
10
-87.272457172415756
20
0.49999999999990158
30
0
10
-87.499999999999872
20
-1.8107776675486654e-13
30
0
0
LINE
5
124
100
AcDbEntity
8
0
100
AcDbLine
10
-87.499999999999872
20
-1.8138272777555501e-13
30
0
11
-71.249999999999901
21
-1.831073932217594e-13
31
1.5238830993730639e-32
0
LINE
5
125
100
AcDbEntity
8
0
100
AcDbLine
10
-71.249999999999901
20
-1.831073932217594e-13
30
1.5238830993730639e-32
11
-71.249999999999915
21
-3.0000000000002074
31
0
0
ARC
5
126
100
AcDbEntity
8
0
100
AcDbCircle
10
-69.749999999999929
20
-3.000000000000242
30
-1.3898376492479417e-46
40
1.4999999999999858
210
9.2655843283195292e-47
220
-7.4438044361294464e-47
230
1
100
AcDbArc
50
180
51
270.00000000000057
0
LINE
5
127
100
AcDbEntity
8
0
100
AcDbLine
10
-69.749999999999915
20
-4.5000000000002185
30
1.787884016230954e-47
11
-27.749999999999979
21
-4.5000000000002256
31
3.276241554760911e-31
0
ARC
5
128
100
AcDbEntity
8
0
100
AcDbCircle
10
-27.749999999999964
20
-3.0000000000002371
30
-1.0229205098464851e-45
40
1.4999999999999885
210
-8.109261030876133e-33
220
2.1841610365072983e-31
230
1
100
AcDbArc
50
-90.000000000000568
51
0
0
LINE
5
129
100
AcDbEntity
8
0
100
AcDbLine
10
-26.249999999999972
20
-3.0000000000002105
30
1.2163891546317955e-32
11
-26.249999999999968
21
-1.8929302569858919e-13
31
0
0
LINE
5
130
100
AcDbEntity
8
0
100
AcDbLine
10
-26.249999999999968
20
-1.8929302569858919e-13
30
0
11
-22.499999999999986
21
-6.0410401765918863e-14
31
3.6338873860148595e-32
0
LINE
5
131
100
AcDbEntity
8
0
100
AcDbLine
10
-22.499999999999986
20
-6.0410401765918863e-14
30
3.6338873860148595e-32
11
-22.499999999999996
21
-3.0000000000002136
31
0
0
ARC
5
132
100
AcDbEntity
8
0
100
AcDbCircle
10
-21.000000000000014
20
-3.0000000000002416
30
-7.5265054236196229e-47
40
1.4999999999999813
210
5.0176702824130019e-47
220
-7.7404199785549215e-47
230
1
100
AcDbArc
50
180
51
270.00000000000023
0
LINE
5
133
100
AcDbEntity
8
0
100
AcDbLine
10
-21.000000000000007
20
-4.5000000000002229
30
-2.8068856704915047e-48
11
20.999999999999936
21
-4.5000000000002318
31
3.276241554760911e-31
0
ARC
5
134
100
AcDbEntity
8
0
100
AcDbCircle
10
20.999999999999957
20
-3.0000000000002434
30
-1.1118701193983534e-45
40
1.499999999999988
210
-5.1440889167260577e-33
220
2.1841610365072997e-31
230
1
100
AcDbArc
50
-90.00000000000081
51
0
0
LINE
5
135
100
AcDbEntity
8
0
100
AcDbLine
10
22.499999999999947
20
-3.0000000000002167
30
7.7161333750951666e-33
11
22.49999999999995
21
-6.6613381477509392e-14
31
0
0
LINE
5
136
100
AcDbEntity
8
0
100
AcDbLine
10
22.49999999999995
20
-6.6613381477509392e-14
30
0
11
26.249999999999961
21
-1.4081910832561056e-13
31
-6.3275702038150427e-33
0
LINE
5
137
100
AcDbEntity
8
0
100
AcDbLine
10
26.249999999999961
20
-1.4081910832561056e-13
30
-6.3275702038150427e-33
11
26.249999999999961
21
-3.0000000000002176
31
0
0
ARC
5
138
100
AcDbEntity
8
0
100
AcDbCircle
10
27.749999999999954
20
-3.0000000000002447
30
-1.0331839263332391e-45
40
1.4999999999999947
210
-2.0526832973507798e-46
220
-4.9303806576313046e-32
230
1
100
AcDbArc
50
180
51
270.00000000000017
0
LINE
5
139
100
AcDbEntity
8
0
100
AcDbLine
10
27.749999999999957
20
-4.5000000000002309
30
-7.3955709864470404e-32
11
69.749999999999915
21
-4.5000000000001847
31
-7.3955709864470448e-32
0
ENDSEC
0
SECTION
2
OBJECTS
0
DICTIONARY
5
C
100
AcDbDictionary
3
ACAD_GROUP
350
D
3
ACAD_MLINESTYLE
350
17
0
DICTIONARY
5
D
100
AcDbDictionary
0
DICTIONARY
5
1A
330
C
100
AcDbDictionary
0
DICTIONARY
5
17
100
AcDbDictionary
0
ENDSEC
0
EOF
