0
SECTION
2
HEADER
9
$INSUNITS
70
4
9
$ACADVER
1
AC1014
9
$HANDSEED
5
FFFF
0
ENDSEC
0
SECTION
2
TABLES
0
TABLE
2
VPORT
5
8
100
AcDbSymbolTable
0
ENDTAB
0
TABLE
2
LTYPE
5
5
100
AcDbSymbolTable
0
LTYPE
5
14
100
AcDbSymbolTableRecord
100
AcDbLinetypeTableRecord
2
BYBLOCK
70
0
0
LTYPE
5
15
100
AcDbSymbolTableRecord
100
AcDbLinetypeTableRecord
2
BYLAYER
70
0
0
ENDTAB
0
TABLE
2
LAYER
5
2
100
AcDbSymbolTable
70
2
0
LAYER
5
50
100
AcDbSymbolTableRecord
100
AcDbLayerTableRecord
2
0
70
0
6
CONTINUOUS
0
ENDTAB
0
TABLE
2
STYLE
5
3
100
AcDbSymbolTable
70
1
0
STYLE
5
11
100
AcDbSymbolTableRecord
100
AcDbTextStyleTableRecord
2
STANDARD
70
0
0
ENDTAB
0
TABLE
2
VIEW
5
6
100
AcDbSymbolTable
70
0
0
ENDTAB
0
TABLE
2
UCS
5
7
100
AcDbSymbolTable
70
0
0
ENDTAB
0
TABLE
2
APPID
5
9
100
AcDbSymbolTable
70
2
0
APPID
5
12
100
AcDbSymbolTableRecord
100
AcDbRegAppTableRecord
2
ACAD
70
0
0
ENDTAB
0
TABLE
2
DIMSTYLE
5
A
100
AcDbSymbolTable
70
1
0
ENDTAB
0
TABLE
2
BLOCK_RECORD
5
1
100
AcDbSymbolTable
70
1
0
BLOCK_RECORD
5
1F
100
AcDbSymbolTableRecord
100
AcDbBlockTableRecord
2
*MODEL_SPACE
0
BLOCK_RECORD
5
1B
100
AcDbSymbolTableRecord
100
AcDbBlockTableRecord
2
*PAPER_SPACE
0
ENDTAB
0
ENDSEC
0
SECTION
2
BLOCKS
0
BLOCK
5
20
100
AcDbEntity
100
AcDbBlockBegin
2
*MODEL_SPACE
0
ENDBLK
5
21
100
AcDbEntity
100
AcDbBlockEnd
0
BLOCK
5
1C
100
AcDbEntity
100
AcDbBlockBegin
2
*PAPER_SPACE
0
ENDBLK
5
1D
100
AcDbEntity
100
AcDbBlockEnd
0
ENDSEC
0
SECTION
2
ENTITIES
0
LINE
5
100
100
AcDbEntity
8
0
100
AcDbLine
10
9.2083333333462392
20
-4.499999999988658
30
0
11
52.458333333347909
21
-4.4999999999959801
31
-4.9476931499286861e-31
0
ARC
5
101
100
AcDbEntity
8
0
100
AcDbCircle
10
52.458333333348186
20
-2.9999999999959845
30
0
40
1.4999999999999951
210
-2.5588387797016744e-31
220
-3.298462099951998e-31
230
1
100
AcDbArc
50
269.99999999998943
51
360
0
LINE
5
102
100
AcDbEntity
8
0
100
AcDbLine
10
53.958333333348172
20
-2.999999999996402
30
3.8382581695516393e-31
11
53.958333333349046
21
3.7930769636318473e-12
31
-2.4651903288156619e-31
0
LINE
5
103
100
AcDbEntity
8
0
100
AcDbLine
10
53.958333333349046
20
3.7930769636318473e-12
30
-2.4651903288156619e-31
11
82.499999999999858
21
-1.4248601761761609e-12
31
-3.0504450397156349e-30
0
SPLINE
5
104
100
AcDbEntity
8
0
100
AcDbSpline
70
4
71
5
72
21
73
15
74
0
42
0.000000001
43
0.0000000001
44
0.0000000001
40
-1
40
-1
40
-1
40
-1
40
-1
40
-1
40
-0.89999999999999991
40
-0.79999999999999993
40
-0.69999999999999996
40
-0.59999999999999998
40
-0.5
40
-0.40000000000000002
40
-0.30000000000000004
40
-0.20000000000000001
40
-0.10000000000000001
40
0
40
0
40
0
40
0
40
0
40
0
41
1
41
1
41
1
41
1
41
1
41
1
41
1
41
1
41
1
41
1
41
1
41
1
41
1
41
1
41
1
10
82.499999999999858
20
-1.4248601761761607e-12
30
0
10
82.27245717242937
20
0.49999999999233663
30
0
10
81.837242723985923
20
1.4999999999805469
30
0
10
81.244032844490164
20
2.9999999999649258
30
0
10
80.57428717140354
20
4.9999999999482885
30
0
10
79.952815831699013
20
7.4999999999349036
30
0
10
79.566333108184779
20
9.9999999999294005
30
0
10
79.434015859211627
20
12.49999999993199
30
0
10
79.566333108076577
20
14.99999999994227
30
0
10
79.952815831510009
20
17.499999999958519
30
0
10
80.574287171187223
20
19.9999999999784
30
0
10
81.244032844313168
20
21.999999999995374
30
0
10
81.837242723879697
20
23.500000000007862
30
0
10
82.272457172389124
20
24.500000000015941
30
0
10
82.499999999997272
20
25.000000000019931
30
0
0
LINE
5
105
100
AcDbEntity
8
0
100
AcDbLine
10
82.499999999997272
20
25.000000000019931
30
0
11
53.958333333344086
21
25.000000000005265
31
1.7163911936557629e-29
0
LINE
5
106
100
AcDbEntity
8
0
100
AcDbLine
10
53.958333333344086
20
25.000000000005265
30
1.7163911936557629e-29
11
53.958333333341301
21
31.000000000006004
31
4.9303806576313238e-31
0
ARC
5
107
100
AcDbEntity
8
0
100
AcDbCircle
10
52.458333333341272
20
31.00000000000529
30
0
40
1.5000000000000213
210
-3.2869204384211883e-31
220
7.3955709864313185e-32
230
1
100
AcDbArc
50
0
51
89.99999999999919
0
LINE
5
108
100
AcDbEntity
8
0
100
AcDbLine
10
52.458333333341294
20
32.500000000005322
30
-1.1093356479657374e-31
11
9.2083333333413098
21
32.500000000005357
31
-4.9285569997418279e-30
0
ARC
5
109
100
AcDbEntity
8
0
100
AcDbCircle
10
9.2083333333413009
20
31.000000000005347
30
0
40
1.5000000000000124
210
-1.5727401094751379e-31
220
3.2857046664945263e-30
230
1
100
AcDbArc
50
89.999999999999659
51
180
0
LINE
5
110
100
AcDbEntity
8
0
100
AcDbLine
10
7.7083333333412964
20
31.000000000004661
30
-2.3591101642128337e-31
11
7.7083333333440684
21
24.999999999985782
31
3.6977854932234928e-31
0
LINE
5
111
100
AcDbEntity
8
0
100
AcDbLine
10
7.7083333333440684
20
24.999999999985782
30
3.6977854932234928e-31
11
-7.7083333333197785
21
25.000000000000018
31
-3.267095068460564e-30
0
LINE
5
112
100
AcDbEntity
8
0
100
AcDbLine
10
-7.7083333333197785
20
25.000000000000018
30
-3.267095068460564e-30
11
-7.7083333333139947
21
31.000000000003567
31
3.6977854932234928e-31
0
ARC
5
113
100
AcDbEntity
8
0
100
AcDbCircle
10
-9.2083333333139983
20
31.000000000005016
30
0
40
1.5000000000000036
210
-2.465190328815894e-31
220
-2.4651903287918691e-32
230
1
100
AcDbArc
50
0
51
90.000000000012889
0
LINE
5
114
100
AcDbEntity
8
0
100
AcDbLine
10
-9.2083333333143358
20
32.500000000005016
30
3.6977854932218288e-32
11
-52.458333333362248
21
32.499999999995509
31
4.3160278788180079e-30
0
ARC
5
115
100
AcDbEntity
8
0
100
AcDbCircle
10
-52.458333333361907
20
30.999999999995506
30
0
40
1.5000000000000036
210
-2.3122690347408543e-31
220
-2.8773519192120508e-30
230
1
100
AcDbArc
50
90.000000000013031
51
180
0
LINE
5
116
100
AcDbEntity
8
0
100
AcDbLine
10
-53.958333333361907
20
30.999999999984979
30
-3.4684035521234942e-31
11
-53.958333333319793
21
25
31
-2.4651903288156619e-31
0
LINE
5
117
100
AcDbEntity
8
0
100
AcDbLine
10
-53.958333333319793
20
25
30
-2.4651903288156619e-31
11
-82.499999999972971
21
25.000000000099011
31
3.0492549964850728e-30
0
SPLINE
5
118
100
AcDbEntity
8
0
100
AcDbSpline
70
4
71
5
72
21
73
15
74
0
42
0.000000001
43
0.0000000001
44
0.0000000001
40
0
40
0
40
0
40
0
40
0
40
0
40
0.10000000000000001
40
0.20000000000000001
40
0.30000000000000004
40
0.40000000000000002
40
0.5
40
0.59999999999999998
40
0.69999999999999996
40
0.79999999999999993
40
0.89999999999999991
40
1
40
1
40
1
40
1
40
1
40
1
41
1
41
1
41
1
41
1
41
1
41
1
41
1
41
1
41
1
41
1
41
1
41
1
41
1
41
1
41
1
10
-82.499999999972971
20
25.000000000099011
30
0
10
-82.272457172386765
20
24.500000000093944
30
0
10
-81.837242723916006
20
23.500000000083979
30
0
10
-81.244032844391427
20
22.000000000069445
30
0
10
-80.574287171289967
20
20.00000000005118
30
0
10
-79.952815831600333
20
17.500000000031545
30
0
10
-79.566333108125818
20
15.000000000016605
30
0
10
-79.434015859206895
20
12.50000000000783
30
0
10
-79.566333108128276
20
10.00000000000634
30
0
10
-79.95281583160633
20
7.5000000000123013
30
0
10
-80.57428717130108
20
5.0000000000253975
30
0
10
-81.244032844408096
20
3.0000000000411959
30
0
10
-81.837242723937663
20
1.5000000000558504
30
0
10
-82.272457172412146
20
0.50000000006684575
30
0
10
-82.500000000000256
20
7.264974615776676e-11
30
0
0
LINE
5
119
100
AcDbEntity
8
0
100
AcDbLine
10
-82.500000000000256
20
7.2649181242035905e-11
30
0
11
-53.958333333324191
21
9.842492931864984e-11
31
-7.5966410887131399e-30
0
LINE
5
120
100
AcDbEntity
8
0
100
AcDbLine
10
-53.958333333324191
20
9.842492931864984e-11
30
-7.5966410887131399e-30
11
-53.958333333328596
21
-2.9999999999020388
31
3.0814879110195774e-31
0
ARC
5
121
100
AcDbEntity
8
0
100
AcDbCircle
10
-52.458333333328596
20
-2.999999999904237
30
0
40
1.5000000000000036
210
2.0543252740116018e-31
220
-9.8607613152927514e-32
230
1
100
AcDbArc
50
180
51
269.99999999989927
0
LINE
5
122
100
AcDbEntity
8
0
100
AcDbLine
10
-52.458333333331232
20
-4.499999999904249
30
-1.4791141972895454e-31
11
-9.2083333333297368
21
-4.4999999999801776
31
1.2625492669588082e-30
0
ARC
5
123
100
AcDbEntity
8
0
100
AcDbCircle
10
-9.2083333333271167
20
-2.9999999999801581
30
0
40
1.5000000000000195
210
-1.5729624912598644e-31
220
8.4169951130613593e-31
230
1
100
AcDbArc
50
269.9999999998999
51
360
0
LINE
5
124
100
AcDbEntity
8
0
100
AcDbLine
10
-7.7083333333271051
20
-2.9999999999838272
30
2.3594437369113503e-31
11
-7.7083333333197768
21
1.7216228442862302e-11
31
-1.8488927466117464e-31
0
LINE
5
125
100
AcDbEntity
8
0
100
AcDbLine
10
-7.7083333333197768
20
1.7216228442862302e-11
30
-1.8488927466117464e-31
11
7.7083333333440702
21
1.217143861448059e-11
31
-8.9357136969365683e-30
0
LINE
5
126
100
AcDbEntity
8
0
100
AcDbLine
10
7.7083333333440702
20
1.217143861448059e-11
30
-8.9357136969365683e-30
11
7.7083333333465021
21
-2.9999999999898557
31
3.0814879110195774e-31
0
ARC
5
127
100
AcDbEntity
8
0
100
AcDbCircle
10
9.2083333333464878
20
-2.9999999999886446
30
0
40
1.4999999999999858
210
2.054325274013071e-31
220
1.6593287565927019e-43
230
1
100
AcDbArc
50
180
51
269.99999999999045
0
ENDSEC
0
SECTION
2
OBJECTS
0
DICTIONARY
5
C
100
AcDbDictionary
3
ACAD_GROUP
350
D
3
ACAD_MLINESTYLE
350
17
0
DICTIONARY
5
D
100
AcDbDictionary
0
DICTIONARY
5
1A
330
C
100
AcDbDictionary
0
DICTIONARY
5
17
100
AcDbDictionary
0
ENDSEC
0
EOF
