0
SECTION
2
HEADER
9
$INSUNITS
70
4
9
$ACADVER
1
AC1014
9
$HANDSEED
5
FFFF
0
ENDSEC
0
SECTION
2
TABLES
0
TABLE
2
VPORT
5
8
100
AcDbSymbolTable
0
ENDTAB
0
TABLE
2
LTYPE
5
5
100
AcDbSymbolTable
0
LTYPE
5
14
100
AcDbSymbolTableRecord
100
AcDbLinetypeTableRecord
2
BYBLOCK
70
0
0
LTYPE
5
15
100
AcDbSymbolTableRecord
100
AcDbLinetypeTableRecord
2
BYLAYER
70
0
0
ENDTAB
0
TABLE
2
LAYER
5
2
100
AcDbSymbolTable
70
2
0
LAYER
5
50
100
AcDbSymbolTableRecord
100
AcDbLayerTableRecord
2
0
70
0
6
CONTINUOUS
0
ENDTAB
0
TABLE
2
STYLE
5
3
100
AcDbSymbolTable
70
1
0
STYLE
5
11
100
AcDbSymbolTableRecord
100
AcDbTextStyleTableRecord
2
STANDARD
70
0
0
ENDTAB
0
TABLE
2
VIEW
5
6
100
AcDbSymbolTable
70
0
0
ENDTAB
0
TABLE
2
UCS
5
7
100
AcDbSymbolTable
70
0
0
ENDTAB
0
TABLE
2
APPID
5
9
100
AcDbSymbolTable
70
2
0
APPID
5
12
100
AcDbSymbolTableRecord
100
AcDbRegAppTableRecord
2
ACAD
70
0
0
ENDTAB
0
TABLE
2
DIMSTYLE
5
A
100
AcDbSymbolTable
70
1
0
ENDTAB
0
TABLE
2
BLOCK_RECORD
5
1
100
AcDbSymbolTable
70
1
0
BLOCK_RECORD
5
1F
100
AcDbSymbolTableRecord
100
AcDbBlockTableRecord
2
*MODEL_SPACE
0
BLOCK_RECORD
5
1B
100
AcDbSymbolTableRecord
100
AcDbBlockTableRecord
2
*PAPER_SPACE
0
ENDTAB
0
ENDSEC
0
SECTION
2
BLOCKS
0
BLOCK
5
20
100
AcDbEntity
100
AcDbBlockBegin
2
*MODEL_SPACE
0
ENDBLK
5
21
100
AcDbEntity
100
AcDbBlockEnd
0
BLOCK
5
1C
100
AcDbEntity
100
AcDbBlockBegin
2
*PAPER_SPACE
0
ENDBLK
5
1D
100
AcDbEntity
100
AcDbBlockEnd
0
ENDSEC
0
SECTION
2
ENTITIES
0
ARC
5
100
100
AcDbEntity
8
0
100
AcDbCircle
10
21.000000000000043
20
-3.0000000000000471
30
-2.8053338397127686e-46
40
1.4999999999999891
210
2.4651903187435424e-32
220
-4.1176264881968999e-33
230
1
100
AcDbArc
50
-90.000000000000398
51
0
0
LINE
5
101
100
AcDbEntity
8
0
100
AcDbLine
10
22.500000000000032
20
-3.0000000000000266
30
-3.6977854781153064e-32
11
22.500000000000032
21
1.2878587085651816e-13
31
2.6797493545613696e-32
0
LINE
5
102
100
AcDbEntity
8
0
100
AcDbLine
10
22.500000000000032
20
1.2878587085651816e-13
30
2.6797493545613696e-32
11
26.250000000000004
21
-2.4454688061851366e-27
31
-1.4020396242198e-37
0
LINE
5
103
100
AcDbEntity
8
0
100
AcDbLine
10
26.250000000000004
20
-2.4454688061851366e-27
30
-1.4020396242198e-37
11
26.250000000000004
21
-3.0000000000000244
31
-2.6797353496482055e-32
0
ARC
5
104
100
AcDbEntity
8
0
100
AcDbCircle
10
27.750000000000004
20
-3.0000000000000449
30
-7.1843915407278219e-47
40
1.4999999999999991
210
-1.7864902330988045e-32
220
-3.475649533949277e-33
230
1
100
AcDbArc
50
180
51
270.00000000000068
0
LINE
5
105
100
AcDbEntity
8
0
100
AcDbLine
10
27.750000000000021
20
-4.5000000000000355
30
-5.2134743009243206e-33
11
69.749999999999943
21
-4.5000000000000364
31
-1.1271762042011567e-54
0
ARC
5
106
100
AcDbEntity
8
0
100
AcDbCircle
10
69.749999999999957
20
-3.00000000000006
30
-1.2872034843804014e-46
40
1.4999999999999769
210
1.0072127524630137e-40
220
8.5813563681131098e-47
230
1
100
AcDbArc
50
-90.000000000000568
51
0
0
LINE
5
107
100
AcDbEntity
8
0
100
AcDbLine
10
71.249999999999943
20
-3.0000000000000266
30
-1.510818647925836e-40
11
71.249999999999929
21
0
31
2.6797353496482055e-32
0
LINE
5
108
100
AcDbEntity
8
0
100
AcDbLine
10
71.249999999999929
20
0
30
2.6797353496482055e-32
11
87.499999999999915
21
-2.4409390189535444e-27
31
-4.3610984091116181e-55
0
SPLINE
5
109
100
AcDbEntity
8
0
100
AcDbSpline
70
4
71
5
72
21
73
15
74
0
42
0.000000001
43
0.0000000001
44
0.0000000001
40
-1
40
-1
40
-1
40
-1
40
-1
40
-1
40
-0.89999999999999991
40
-0.79999999999999993
40
-0.69999999999999996
40
-0.59999999999999998
40
-0.5
40
-0.40000000000000002
40
-0.30000000000000004
40
-0.20000000000000001
40
-0.10000000000000001
40
0
40
0
40
0
40
0
40
0
40
0
41
1
41
1
41
1
41
1
41
1
41
1
41
1
41
1
41
1
41
1
41
1
41
1
41
1
41
1
41
1
10
87.499999999999915
20
-2.4415245016590315e-27
30
0
10
87.272457172415798
20
0.50000000000008271
30
0
10
86.837242723948989
20
1.50000000000023
30
0
10
86.244032844429881
20
3.0000000000003997
30
0
10
85.574287171334731
20
5.0000000000005187
30
0
10
84.952815831651094
20
7.5000000000004983
30
0
10
84.566333108180274
20
10.000000000000352
30
0
10
84.434015859262161
20
12.500000000000158
30
0
10
84.566333108180743
20
14.999999999999963
30
0
10
84.952815831651918
20
17.499999999999847
30
0
10
85.574287171335641
20
19.999999999999815
30
0
10
86.24403284443062
20
21.999999999999961
30
0
10
86.83724272394943
20
23.500000000000099
30
0
10
87.272457172415955
20
24.500000000000171
30
0
10
87.499999999999886
20
25.000000000000199
30
0
0
LINE
5
110
100
AcDbEntity
8
0
100
AcDbLine
10
87.499999999999886
20
25.000000000000199
30
0
11
71.249999999999886
21
25.000000000000199
31
4.3610984091116326e-55
0
LINE
5
111
100
AcDbEntity
8
0
100
AcDbLine
10
71.249999999999886
20
25.000000000000199
30
4.3610984091116326e-55
11
71.250000000000256
21
31.000000000000178
31
2.2779750740951564e-32
0
ARC
5
112
100
AcDbEntity
8
0
100
AcDbCircle
10
69.750000000000256
20
31.000000000000302
30
8.9804894259097774e-47
40
1.4999999999999947
210
-1.5186500493968045e-32
220
-4.1176263045246814e-33
230
1
100
AcDbArc
50
0
51
90.00000000000054
0
LINE
5
113
100
AcDbEntity
8
0
100
AcDbLine
10
69.750000000000242
20
32.500000000000291
30
6.1764394567889425e-33
11
27.750000000000323
21
32.500000000000263
31
1.9721522340448133e-30
0
ARC
5
114
100
AcDbEntity
8
0
100
AcDbCircle
10
27.750000000000313
20
31.00000000000027
30
1.4967482376516296e-46
40
1.4999999999999902
210
6.7684663247596706e-38
220
-1.3147681560298839e-30
230
1
100
AcDbArc
50
89.999999999999588
51
180
0
LINE
5
115
100
AcDbEntity
8
0
100
AcDbLine
10
26.250000000000323
20
31.000000000000348
30
1.0152700729439749e-37
11
26.249999999999957
21
25.000000000000199
31
-5.3594808012009884e-32
0
LINE
5
116
100
AcDbEntity
8
0
100
AcDbLine
10
26.249999999999957
20
25.000000000000199
30
-5.3594808012009884e-32
11
22.499999999999961
21
25.000000000000199
31
-1.2325951644078309e-31
0
LINE
5
117
100
AcDbEntity
8
0
100
AcDbLine
10
22.499999999999961
20
25.000000000000199
30
-1.2325951644078309e-31
11
22.499999999999957
21
31.000000000000249
31
5.3594706992964111e-32
0
ARC
5
118
100
AcDbEntity
8
0
100
AcDbCircle
10
20.99999999999995
20
31.000000000000263
30
3.0790249460262094e-47
40
1.5000000000000036
210
-3.5729804661976003e-32
220
-3.4756495339492168e-33
230
1
100
AcDbArc
50
0
51
90.00000000000027
0
LINE
5
119
100
AcDbEntity
8
0
100
AcDbLine
10
20.999999999999943
20
32.500000000000263
30
5.2134743009243288e-33
11
-20.999999999999979
21
32.500000000000256
31
1.1271762042011567e-54
0
ARC
5
120
100
AcDbEntity
8
0
100
AcDbCircle
10
-20.999999999999993
20
31.00000000000027
30
8.6811397783794515e-47
40
1.4999999999999858
210
1.0072126352239734e-40
220
5.7874263543161562e-47
230
1
100
AcDbArc
50
89.99999999999946
51
180
0
LINE
5
121
100
AcDbEntity
8
0
100
AcDbLine
10
-22.499999999999979
20
31.000000000000249
30
1.5108185854846804e-40
11
-22.499999999999972
21
25.000000000000199
31
-5.3594702401189303e-32
0
LINE
5
122
100
AcDbEntity
8
0
100
AcDbLine
10
-22.499999999999972
20
25.000000000000199
30
-5.3594702401189303e-32
11
-26.249999999999961
21
25.000000000000199
31
-1.2325951644078309e-31
0
LINE
5
123
100
AcDbEntity
8
0
100
AcDbLine
10
-26.249999999999961
20
25.000000000000199
30
-1.2325951644078309e-31
11
-26.250000000000398
21
31.000000000000355
31
5.359482270568927e-32
0
ARC
5
124
100
AcDbEntity
8
0
100
AcDbCircle
10
-27.750000000000419
20
31.00000000000027
30
-1.967154826627856e-46
40
1.5000000000000213
210
-3.5729881803792239e-32
220
-4.1176263045292808e-33
230
1
100
AcDbArc
50
0
51
90.00000000000081
0
LINE
5
125
100
AcDbEntity
8
0
100
AcDbLine
10
-27.750000000000441
20
32.500000000000263
30
6.1764394567890287e-33
11
-69.750000000000554
21
32.500000000000256
31
9.8607613152626476e-31
0
ARC
5
126
100
AcDbEntity
8
0
100
AcDbCircle
10
-69.750000000000554
20
31.00000000000027
30
8.702521896060189e-47
40
1.4999999999999858
210
7.7454631290040892e-38
220
-6.5738408768418266e-31
230
1
100
AcDbArc
50
90
51
180
0
LINE
5
127
100
AcDbEntity
8
0
100
AcDbLine
10
-71.25000000000054
20
31.000000000000355
30
1.161819473160553e-37
11
-71.250000000000966
21
25.000000000000199
31
-5.3594818113914462e-32
0
LINE
5
128
100
AcDbEntity
8
0
100
AcDbLine
10
-71.250000000000966
20
25.000000000000199
30
-5.3594818113914462e-32
11
-87.499999999999872
21
25.000000000000199
31
4.361098409111332e-55
0
SPLINE
5
129
100
AcDbEntity
8
0
100
AcDbSpline
70
4
71
5
72
21
73
15
74
0
42
0.000000001
43
0.0000000001
44
0.0000000001
40
0
40
0
40
0
40
0
40
0
40
0
40
0.10000000000000001
40
0.20000000000000001
40
0.30000000000000004
40
0.40000000000000002
40
0.5
40
0.59999999999999998
40
0.69999999999999996
40
0.79999999999999993
40
0.89999999999999991
40
1
40
1
40
1
40
1
40
1
40
1
41
1
41
1
41
1
41
1
41
1
41
1
41
1
41
1
41
1
41
1
41
1
41
1
41
1
41
1
41
1
10
-87.499999999999872
20
25.000000000000199
30
0
10
-87.272457172377059
20
24.500000000000171
30
0
10
-86.837242723842735
20
23.500000000000099
30
0
10
-86.244032844252615
20
21.999999999999961
30
0
10
-85.57428717111938
20
19.999999999999815
30
0
10
-84.952815831464704
20
17.499999999999847
30
0
10
-84.566333108074488
20
14.999999999999963
30
0
10
-84.434015859262544
20
12.500000000000158
30
0
10
-84.566333108285662
20
10.000000000000352
30
0
10
-84.952815831833931
20
7.5000000000004983
30
0
10
-85.574287171542792
20
5.0000000000005187
30
0
10
-86.24403284459946
20
3.0000000000003997
30
0
10
-86.837242724049858
20
1.50000000000023
30
0
10
-87.272457172452405
20
0.50000000000008271
30
0
10
-87.499999999999844
20
-2.4306776642122426e-27
30
0
0
LINE
5
130
100
AcDbEntity
8
0
100
AcDbLine
10
-87.499999999999844
20
5.5507038489252213e-16
30
0
11
-71.249999999999872
21
5.4400928206630664e-14
31
5.9224087574801896e-38
0
LINE
5
131
100
AcDbEntity
8
0
100
AcDbLine
10
-71.249999999999872
20
5.4400928206630664e-14
30
5.9224087574801896e-38
11
-71.249999999999844
21
-2.999999999999972
31
-2.6797355792369459e-32
0
ARC
5
132
100
AcDbEntity
8
0
100
AcDbCircle
10
-69.749999999999886
20
-3.0000000000000071
30
-1.2572685196273688e-46
40
1.4999999999999591
210
-1.7864903861580123e-32
220
-3.4756495339491032e-33
230
1
100
AcDbArc
50
180
51
270.00000000000057
0
LINE
5
133
100
AcDbEntity
8
0
100
AcDbLine
10
-69.749999999999872
20
-4.499999999999984
30
-5.2134743009243247e-33
11
-27.749999999999922
21
-4.5000000000000355
31
-5.5598123029405862e-38
0
ARC
5
134
100
AcDbEntity
8
0
100
AcDbCircle
10
-27.749999999999922
20
-3.0000000000000426
30
-7.0347167169626589e-47
40
1.4999999999999925
210
1.0072123810130989e-40
220
-3.7065415306039323e-38
230
1
100
AcDbArc
50
-90
51
0
0
LINE
5
135
100
AcDbEntity
8
0
100
AcDbLine
10
-26.249999999999932
20
-3.0000000000000244
30
-1.5108186376316847e-40
11
-26.249999999999932
21
5.440092820663267e-14
31
2.6797410434489673e-32
0
LINE
5
136
100
AcDbEntity
8
0
100
AcDbLine
10
-26.249999999999932
20
5.440092820663267e-14
30
2.6797410434489673e-32
11
-22.499999999999915
21
1.2878587085651677e-13
31
8.0908986249114269e-38
0
LINE
5
137
100
AcDbEntity
8
0
100
AcDbLine
10
-22.499999999999915
20
1.2878587085651677e-13
30
8.0908986249114269e-38
11
-22.499999999999908
21
-3.0000000000000244
31
-2.6797493545613696e-32
0
ARC
5
138
100
AcDbEntity
8
0
100
AcDbCircle
10
-20.999999999999915
20
-3.0000000000000449
30
-7.1843915407278219e-47
40
1.4999999999999902
210
-1.7864995697075914e-32
220
-3.475649533949277e-33
230
1
100
AcDbArc
50
180
51
270.00000000000057
0
LINE
5
139
100
AcDbEntity
8
0
100
AcDbLine
10
-20.999999999999901
20
-4.5000000000000355
30
-5.2134743009243206e-33
11
21.000000000000032
21
-4.5000000000000364
31
-6.1764397322953666e-33
0
ENDSEC
0
SECTION
2
OBJECTS
0
DICTIONARY
5
C
100
AcDbDictionary
3
ACAD_GROUP
350
D
3
ACAD_MLINESTYLE
350
17
0
DICTIONARY
5
D
100
AcDbDictionary
0
DICTIONARY
5
1A
330
C
100
AcDbDictionary
0
DICTIONARY
5
17
100
AcDbDictionary
0
ENDSEC
0
EOF
