0
SECTION
2
HEADER
9
$INSUNITS
70
4
9
$ACADVER
1
AC1014
9
$HANDSEED
5
FFFF
0
ENDSEC
0
SECTION
2
TABLES
0
TABLE
2
VPORT
5
8
100
AcDbSymbolTable
0
ENDTAB
0
TABLE
2
LTYPE
5
5
100
AcDbSymbolTable
0
LTYPE
5
14
100
AcDbSymbolTableRecord
100
AcDbLinetypeTableRecord
2
BYBLOCK
70
0
0
LTYPE
5
15
100
AcDbSymbolTableRecord
100
AcDbLinetypeTableRecord
2
BYLAYER
70
0
0
ENDTAB
0
TABLE
2
LAYER
5
2
100
AcDbSymbolTable
70
2
0
LAYER
5
50
100
AcDbSymbolTableRecord
100
AcDbLayerTableRecord
2
0
70
0
6
CONTINUOUS
0
ENDTAB
0
TABLE
2
STYLE
5
3
100
AcDbSymbolTable
70
1
0
STYLE
5
11
100
AcDbSymbolTableRecord
100
AcDbTextStyleTableRecord
2
STANDARD
70
0
0
ENDTAB
0
TABLE
2
VIEW
5
6
100
AcDbSymbolTable
70
0
0
ENDTAB
0
TABLE
2
UCS
5
7
100
AcDbSymbolTable
70
0
0
ENDTAB
0
TABLE
2
APPID
5
9
100
AcDbSymbolTable
70
2
0
APPID
5
12
100
AcDbSymbolTableRecord
100
AcDbRegAppTableRecord
2
ACAD
70
0
0
ENDTAB
0
TABLE
2
DIMSTYLE
5
A
100
AcDbSymbolTable
70
1
0
ENDTAB
0
TABLE
2
BLOCK_RECORD
5
1
100
AcDbSymbolTable
70
1
0
BLOCK_RECORD
5
1F
100
AcDbSymbolTableRecord
100
AcDbBlockTableRecord
2
*MODEL_SPACE
0
BLOCK_RECORD
5
1B
100
AcDbSymbolTableRecord
100
AcDbBlockTableRecord
2
*PAPER_SPACE
0
ENDTAB
0
ENDSEC
0
SECTION
2
BLOCKS
0
BLOCK
5
20
100
AcDbEntity
100
AcDbBlockBegin
2
*MODEL_SPACE
0
ENDBLK
5
21
100
AcDbEntity
100
AcDbBlockEnd
0
BLOCK
5
1C
100
AcDbEntity
100
AcDbBlockBegin
2
*PAPER_SPACE
0
ENDBLK
5
1D
100
AcDbEntity
100
AcDbBlockEnd
0
ENDSEC
0
SECTION
2
ENTITIES
0
LWPOLYLINE
5
100
100
AcDbEntity
8
0
100
AcDbPolyline
90
8
70
1
43
0.0
10
-101.28999999999643
20
-93.290000000000049
10
-101.29000000000075
20
93.289999999999935
42
-0.41421356237309853
10
-98.290000000000731
20
96.29000000000002
10
98.289999999999139
20
96.289999999999978
42
-0.41421356237309509
10
101.28999999999914
20
93.289999999999921
10
101.28999999999721
20
-93.29000000000002
42
-0.41421356237308982
10
98.289999999997264
20
-96.289999999999978
10
-98.289999999996411
20
-96.289999999999992
42
-0.41421356237308637
0
CIRCLE
5
101
100
AcDbEntity
8
0
100
AcDbCircle
10
95.949999999998866
20
-90.949999999999918
30
0
40
1.5499999999999934
210
-4.9303806576313249e-32
220
-1.2355851020617911e-62
230
1
0
CIRCLE
5
102
100
AcDbEntity
8
0
100
AcDbCircle
10
95.949999999998852
20
90.950000000000102
30
0
40
1.5499999999999934
210
-4.9303806576313249e-32
220
-1.2355851020617911e-62
230
1
0
LWPOLYLINE
5
103
100
AcDbEntity
8
0
100
AcDbPolyline
90
4
70
1
43
0.0
10
-26.249999999999744
20
88.700000000000117
10
-26.249999999999723
20
92.500000000000128
10
-71.249999999999702
20
92.500000000000014
10
-71.249999999998948
20
88.700000000000117
0
ELLIPSE
5
104
100
AcDbEntity
8
0
100
AcDbEllipse
10
2.6527509144996761
20
-2.6527183460191446
30
0
11
1.4142135621178629
21
1.414213562118197
31
0.0
40
0.99878276595874538
41
3.9275998042334948
42
5.4971781612593844
0
LINE
5
105
100
AcDbEntity
8
0
100
AcDbLine
10
2.6527509138216345
20
-4.6514999996976929
30
0
11
-9.2527509143571045
21
-4.6515000000536411
31
0
0
ELLIPSE
5
106
100
AcDbEntity
8
0
100
AcDbEllipse
10
-9.2527509146673594
20
-2.6527183461972466
30
0
11
1.414213562244405
21
-1.4142135622439604
31
0.0
40
0.99878276595874549
41
3.9275997999192276
42
5.4971781563516036
0
LINE
5
107
100
AcDbEntity
8
0
100
AcDbLine
10
-11.25153256853471
20
-2.6527183368959975
30
-6.9683636991711363e-32
11
-11.251532568816394
21
9.2527834933424522
31
0
0
ELLIPSE
5
108
100
AcDbEntity
8
0
100
AcDbEllipse
10
-9.2527509146954436
20
9.2527834831759233
30
0
11
-1.4142135624402676
21
-1.4142135624405159
31
0.0
40
0.99878276595874493
41
3.927599804837556
42
5.4971781511100923
0
LINE
5
109
100
AcDbEntity
8
0
100
AcDbLine
10
-9.2527509152247269
20
11.25156513730861
30
1.3936727335336193e-31
11
2.6527509150051918
21
11.251565137308912
31
0
0
ELLIPSE
5
110
100
AcDbEntity
8
0
100
AcDbEllipse
10
2.6527509145277248
20
9.2527834829978612
30
0
11
-1.4142135625668675
21
1.4142135625662267
31
0.0
40
0.99878276595874516
41
3.9275998091766064
42
5.4971781559574335
0
LINE
5
111
100
AcDbEntity
8
0
100
AcDbLine
10
4.6515325688281512
20
9.2527834922002423
30
6.4161477212747576e-40
11
4.6515325681897233
21
-2.6527183358993796
31
0
0
ELLIPSE
5
112
100
AcDbEntity
8
0
100
AcDbEllipse
10
65.747249085332641
20
-52.652750924383938
30
0
11
1.414213562244405
21
-1.4142135622439604
31
0.0
40
0.99878276595874549
41
3.9275997999192263
42
5.4971781563516009
0
LINE
5
113
100
AcDbEntity
8
0
100
AcDbLine
10
63.748467431465286
20
-52.652750915082692
30
-6.968363699171121e-32
11
63.74846743118362
21
-40.747249084844242
31
0
0
ELLIPSE
5
114
100
AcDbEntity
8
0
100
AcDbEllipse
10
65.74724908530456
20
-40.747249095010773
30
0
11
-1.4142135624402676
21
-1.4142135624405159
31
0.0
40
0.99878276595874493
41
3.9275998048375631
42
5.4971781511100888
0
LINE
5
115
100
AcDbEntity
8
0
100
AcDbLine
10
65.747249084775262
20
-38.748467440878088
30
1.3936727335336193e-31
11
77.652750915005214
21
-38.748467440877768
31
0
0
ELLIPSE
5
116
100
AcDbEntity
8
0
100
AcDbEllipse
10
77.652750914527729
20
-40.747249095188835
30
0
11
-1.4142135625668675
21
1.4142135625662267
31
0.0
40
0.99878276595874493
41
3.9275998091766025
42
5.4971781559574264
0
LINE
5
117
100
AcDbEntity
8
0
100
AcDbLine
10
79.651532568828159
20
-40.747249085986454
30
6.4161449843636945e-40
11
79.651532568189737
21
-52.652750914086049
31
0
0
ELLIPSE
5
118
100
AcDbEntity
8
0
100
AcDbEllipse
10
77.652750914499677
20
-52.652750924205833
30
0
11
1.4142135621178629
21
1.414213562118197
31
0.0
40
0.99878276595874527
41
3.9275998042335023
42
5.4971781612593915
0
LINE
5
119
100
AcDbEntity
8
0
100
AcDbLine
10
77.652750913821635
20
-54.651532577884375
30
0
11
65.747249085642892
21
-54.651532578240335
31
6.9683636677853898e-32
0
ELLIPSE
5
120
100
AcDbEntity
8
0
100
AcDbEllipse
10
2.6527509144996761
20
-27.652718346019146
30
0
11
1.4142135621178629
21
1.414213562118197
31
0.0
40
0.99878276595874538
41
3.9275998042334983
42
5.4971781612593826
0
LINE
5
121
100
AcDbEntity
8
0
100
AcDbLine
10
2.6527509138216381
20
-29.651499999697695
30
0
11
-9.2527509143571045
21
-29.651500000053641
31
0
0
ELLIPSE
5
122
100
AcDbEntity
8
0
100
AcDbEllipse
10
-9.2527509146673594
20
-27.652718346197247
30
0
11
1.414213562244405
21
-1.4142135622439604
31
0.0
40
0.99878276595874549
41
3.9275997999192271
42
5.4971781563516027
0
LINE
5
123
100
AcDbEntity
8
0
100
AcDbLine
10
-11.25153256853471
20
-27.652718336895997
30
-6.9683636991711363e-32
11
-11.251532568816394
21
-15.747216506657553
31
0
0
ELLIPSE
5
124
100
AcDbEntity
8
0
100
AcDbEllipse
10
-9.2527509146954436
20
-15.747216516824079
30
0
11
-1.4142135624402676
21
-1.4142135624405159
31
0.0
40
0.99878276595874493
41
3.9275998048375556
42
5.4971781511100932
0
LINE
5
125
100
AcDbEntity
8
0
100
AcDbLine
10
-9.2527509152247269
20
-13.74843486269139
30
1.3936727335336193e-31
11
2.6527509150051918
21
-13.748434862691088
31
0
0
ELLIPSE
5
126
100
AcDbEntity
8
0
100
AcDbEllipse
10
2.6527509145277248
20
-15.747216517002141
30
0
11
-1.4142135625668675
21
1.4142135625662267
31
0.0
40
0.99878276595874516
41
3.9275998091766082
42
5.4971781559574335
0
LINE
5
127
100
AcDbEntity
8
0
100
AcDbLine
10
4.6515325688281521
20
-15.747216507799756
30
6.4161496371125018e-40
11
4.6515325681897233
21
-27.652718335899383
31
0
0
ELLIPSE
5
128
100
AcDbEntity
8
0
100
AcDbEllipse
10
2.6527509144996761
20
22.347281653980854
30
0
11
1.4142135621178629
21
1.414213562118197
31
0.0
40
0.99878276595874538
41
3.9275998042334965
42
5.4971781612593844
0
LINE
5
129
100
AcDbEntity
8
0
100
AcDbLine
10
2.6527509138216376
20
20.348500000302305
30
0
11
-9.2527509143571045
21
20.348499999946355
31
0
0
ELLIPSE
5
130
100
AcDbEntity
8
0
100
AcDbEllipse
10
-9.2527509146673594
20
22.347281653802753
30
0
11
1.414213562244405
21
-1.4142135622439604
31
0.0
40
0.99878276595874549
41
3.9275997999192271
42
5.4971781563516044
0
LINE
5
131
100
AcDbEntity
8
0
100
AcDbLine
10
-11.25153256853471
20
22.347281663104003
30
-6.9683636991711363e-32
11
-11.251532568816394
21
34.252783493342442
31
0
0
ELLIPSE
5
132
100
AcDbEntity
8
0
100
AcDbEllipse
10
-9.2527509146954436
20
34.252783483175918
30
0
11
-1.4142135624402676
21
-1.4142135624405159
31
0.0
40
0.99878276595874493
41
3.9275998048375533
42
5.4971781511100968
0
LINE
5
133
100
AcDbEntity
8
0
100
AcDbLine
10
-9.2527509152247234
20
36.25156513730861
30
1.3936727335336193e-31
11
2.6527509150051918
21
36.251565137308916
31
0
0
ELLIPSE
5
134
100
AcDbEntity
8
0
100
AcDbEllipse
10
2.6527509145277248
20
34.252783482997856
30
0
11
-1.4142135625668675
21
1.4142135625662267
31
0.0
40
0.99878276595874516
41
3.9275998091766073
42
5.4971781559574335
0
LINE
5
135
100
AcDbEntity
8
0
100
AcDbLine
10
4.6515325688281521
20
34.252783492200244
30
6.4161496371125018e-40
11
4.6515325681897233
21
22.347281664100617
31
0
0
ELLIPSE
5
136
100
AcDbEntity
8
0
100
AcDbEllipse
10
65.747249085332641
20
22.347249075616066
30
0
11
1.414213562244405
21
-1.4142135622439604
31
0.0
40
0.99878276595874549
41
3.9275997999192365
42
5.4971781563516036
0
LINE
5
137
100
AcDbEntity
8
0
100
AcDbLine
10
63.748467431465301
20
22.347249084917308
30
-6.9683636991711101e-32
11
63.748467431183606
21
34.252750915155765
31
0
0
ELLIPSE
5
138
100
AcDbEntity
8
0
100
AcDbEllipse
10
65.74724908530456
20
34.252750904989234
30
0
11
-1.4142135624402676
21
-1.4142135624405159
31
0.0
40
0.99878276595874493
41
3.9275998048375671
42
5.4971781511100914
0
LINE
5
139
100
AcDbEntity
8
0
100
AcDbLine
10
65.747249084775262
20
36.25153255912192
30
1.3936727335336193e-31
11
77.652750915005214
21
36.251532559122225
31
0
0
ELLIPSE
5
140
100
AcDbEntity
8
0
100
AcDbEllipse
10
77.652750914527729
20
34.252750904811172
30
0
11
-1.4142135625668675
21
1.4142135625662267
31
0.0
40
0.99878276595874493
41
3.9275998091766162
42
5.4971781559574264
0
LINE
5
141
100
AcDbEntity
8
0
100
AcDbLine
10
79.651532568828159
20
34.252750914013575
30
6.4161599005289886e-40
11
79.651532568189737
21
22.347249085913941
31
0
0
ELLIPSE
5
142
100
AcDbEntity
8
0
100
AcDbEllipse
10
77.652750914499677
20
22.347249075794167
30
0
11
1.4142135621178629
21
1.414213562118197
31
0.0
40
0.99878276595874527
41
3.9275998042334948
42
5.4971781612593897
0
LINE
5
143
100
AcDbEntity
8
0
100
AcDbLine
10
77.652750913821635
20
20.348467422115618
30
0
11
65.747249085642906
21
20.348467421759668
31
6.9683636677854226e-32
0
CIRCLE
5
144
100
AcDbEntity
8
0
100
AcDbCircle
10
-87.799999999999812
20
-82.199999999999861
30
0
40
1.6000000000000014
210
-0
220
0
230
1
0
LWPOLYLINE
5
145
100
AcDbEntity
8
0
100
AcDbPolyline
90
4
70
1
43
0.0
10
-97.500000000000256
20
-7.7083333333332327
10
-97.500000000000256
20
-53.958333333333222
10
-93.700000000000358
20
-53.958333333333222
10
-93.700000000000244
20
-7.7083333333332327
0
ELLIPSE
5
146
100
AcDbEntity
8
0
100
AcDbEllipse
10
-22.347249085500323
20
-27.652718346019146
30
0
11
1.4142135621178629
21
1.414213562118197
31
0.0
40
0.99878276595874538
41
3.9275998042335027
42
5.4971781612593897
0
LINE
5
147
100
AcDbEntity
8
0
100
AcDbLine
10
-22.347249086178355
20
-29.651499999697695
30
0
11
-34.252750914357108
21
-29.651500000053652
31
0
0
ELLIPSE
5
148
100
AcDbEntity
8
0
100
AcDbEllipse
10
-34.252750914667359
20
-27.652718346197247
30
0
11
1.414213562244405
21
-1.4142135622439604
31
0.0
40
0.99878276595874549
41
3.9275997999192285
42
5.4971781563516018
0
LINE
5
149
100
AcDbEntity
8
0
100
AcDbLine
10
-36.251532568534714
20
-27.652718336895997
30
-6.9683636991711363e-32
11
-36.251532568816394
21
-15.747216506657553
31
0
0
ELLIPSE
5
150
100
AcDbEntity
8
0
100
AcDbEllipse
10
-34.252750914695447
20
-15.747216516824079
30
0
11
-1.4142135624402676
21
-1.4142135624405159
31
0.0
40
0.99878276595874493
41
3.9275998048375556
42
5.4971781511100914
0
LINE
5
151
100
AcDbEntity
8
0
100
AcDbLine
10
-34.25275091522473
20
-13.748434862691392
30
1.3936727335336193e-31
11
-22.347249084994807
21
-13.748434862691088
31
0
0
ELLIPSE
5
152
100
AcDbEntity
8
0
100
AcDbEllipse
10
-22.347249085472278
20
-15.747216517002141
30
0
11
-1.4142135625668675
21
1.4142135625662267
31
0.0
40
0.99878276595874516
41
3.9275998091766069
42
5.4971781559574326
0
LINE
5
153
100
AcDbEntity
8
0
100
AcDbLine
10
-20.348467431171851
20
-15.747216507799758
30
6.4161484055025234e-40
11
-20.348467431810278
21
-27.652718335899372
31
0
0
LWPOLYLINE
5
154
100
AcDbEntity
8
0
100
AcDbPolyline
90
4
70
1
43
0.0
10
-93.700000000000244
20
7.7083333333334281
10
-93.700000000000358
20
53.958333333333428
10
-97.500000000000227
20
53.958333333333428
10
-97.500000000000256
20
7.7083333333334281
0
LWPOLYLINE
5
155
100
AcDbEntity
8
0
100
AcDbPolyline
90
4
70
1
43
0.0
10
-71.249999999999687
20
-92.499999999999787
10
-26.249999999999709
20
-92.499999999999886
10
-26.249999999999723
20
-88.699999999999903
10
-71.24999999999892
20
-88.699999999999903
0
LWPOLYLINE
5
156
100
AcDbEntity
8
0
100
AcDbPolyline
90
4
70
1
43
0.0
10
26.250000000000455
20
92.499999999999744
10
26.250000000000419
20
88.699999999999733
10
71.249999999999659
20
88.699999999999207
10
71.250000000000441
20
92.499999999999119
0
CIRCLE
5
157
100
AcDbEntity
8
0
100
AcDbCircle
10
0.20000000000018195
20
45.300000000000146
30
0
40
1.5999999999999939
210
-3.6823305549078907e-70
220
1.4693679385278597e-39
230
1
0
ELLIPSE
5
158
100
AcDbEntity
8
0
100
AcDbEllipse
10
-72.347249085500323
20
-52.652718346019149
30
0
11
1.4142135621178629
21
1.414213562118197
31
0.0
40
0.99878276595874538
41
3.9275998042334965
42
5.497178161259388
0
LINE
5
159
100
AcDbEntity
8
0
100
AcDbLine
10
-72.34724908617838
20
-54.651499999697691
30
0
11
-84.252750914357108
21
-54.651500000053652
31
0
0
ELLIPSE
5
160
100
AcDbEntity
8
0
100
AcDbEllipse
10
-84.252750914667359
20
-52.652718346197247
30
0
11
1.414213562244405
21
-1.4142135622439604
31
0.0
40
0.99878276595874549
41
3.9275997999192378
42
5.4971781563516
0
LINE
5
161
100
AcDbEntity
8
0
100
AcDbLine
10
-86.251532568534714
20
-52.652718336896022
30
-6.968363699171075e-32
11
-86.251532568816387
21
-40.747216506657551
31
0
0
ELLIPSE
5
162
100
AcDbEntity
8
0
100
AcDbEllipse
10
-84.25275091469544
20
-40.747216516824082
30
0
11
-1.4142135624402676
21
-1.4142135624405159
31
0.0
40
0.99878276595874493
41
3.9275998048375458
42
5.4971781511100941
0
LINE
5
163
100
AcDbEntity
8
0
100
AcDbLine
10
-84.252750915224709
20
-38.74843486269139
30
1.3936727335336193e-31
11
-72.3472490849948
21
-38.748434862691077
31
0
0
ELLIPSE
5
164
100
AcDbEntity
8
0
100
AcDbEllipse
10
-72.347249085472271
20
-40.747216517002144
30
0
11
-1.4142135625668675
21
1.4142135625662267
31
0.0
40
0.99878276595874516
41
3.9275998091766038
42
5.4971781559574335
0
LINE
5
165
100
AcDbEntity
8
0
100
AcDbLine
10
-70.348467431171841
20
-40.747216507799763
30
6.4161452580548008e-40
11
-70.348467431810278
21
-52.65271833589938
31
0
0
ELLIPSE
5
166
100
AcDbEntity
8
0
100
AcDbEllipse
10
-22.347249085500323
20
22.347281653980854
30
0
11
1.4142135621178629
21
1.414213562118197
31
0.0
40
0.99878276595874538
41
3.9275998042334956
42
5.4971781612593862
0
LINE
5
167
100
AcDbEntity
8
0
100
AcDbLine
10
-22.347249086178365
20
20.348500000302305
30
0
11
-34.252750914357094
21
20.348499999946355
31
0
0
ELLIPSE
5
168
100
AcDbEntity
8
0
100
AcDbEllipse
10
-34.252750914667359
20
22.347281653802753
30
0
11
1.414213562244405
21
-1.4142135622439604
31
0.0
40
0.99878276595874549
41
3.9275997999192263
42
5.4971781563516089
0
LINE
5
169
100
AcDbEntity
8
0
100
AcDbLine
10
-36.251532568534714
20
22.347281663104003
30
-6.9683636991711363e-32
11
-36.251532568816394
21
34.252783493342449
31
0
0
ELLIPSE
5
170
100
AcDbEntity
8
0
100
AcDbEllipse
10
-34.252750914695447
20
34.252783483175918
30
0
11
-1.4142135624402676
21
-1.4142135624405159
31
0.0
40
0.99878276595874493
41
3.9275998048375533
42
5.4971781511100914
0
LINE
5
171
100
AcDbEntity
8
0
100
AcDbLine
10
-34.252750915224723
20
36.25156513730861
30
1.3936727335336193e-31
11
-22.347249084994807
21
36.251565137308916
31
0
0
ELLIPSE
5
172
100
AcDbEntity
8
0
100
AcDbEllipse
10
-22.347249085472278
20
34.252783482997856
30
0
11
-1.4142135625668675
21
1.4142135625662267
31
0.0
40
0.99878276595874516
41
3.9275998091766056
42
5.4971781559574318
0
LINE
5
173
100
AcDbEntity
8
0
100
AcDbLine
10
-20.348467431171851
20
34.252783492200244
30
6.4161484055025234e-40
11
-20.348467431810278
21
22.347281664100628
31
0
0
ELLIPSE
5
174
100
AcDbEntity
8
0
100
AcDbEllipse
10
-72.347249085500323
20
-27.652718346019146
30
0
11
1.4142135621178629
21
1.414213562118197
31
0.0
40
0.99878276595874538
41
3.9275998042335032
42
5.4971781612593933
0
LINE
5
175
100
AcDbEntity
8
0
100
AcDbLine
10
-72.347249086178365
20
-29.651499999697695
30
0
11
-84.252750914357108
21
-29.651500000053652
31
0
0
ELLIPSE
5
176
100
AcDbEntity
8
0
100
AcDbEllipse
10
-84.252750914667359
20
-27.652718346197247
30
0
11
1.414213562244405
21
-1.4142135622439604
31
0.0
40
0.99878276595874549
41
3.9275997999192289
42
5.4971781563515982
0
LINE
5
177
100
AcDbEntity
8
0
100
AcDbLine
10
-86.251532568534714
20
-27.652718336896012
30
-6.9683636991710904e-32
11
-86.251532568816387
21
-15.747216506657553
31
0
0
ELLIPSE
5
178
100
AcDbEntity
8
0
100
AcDbEllipse
10
-84.25275091469544
20
-15.747216516824079
30
0
11
-1.4142135624402676
21
-1.4142135624405159
31
0.0
40
0.99878276595874493
41
3.9275998048375431
42
5.4971781511100941
0
LINE
5
179
100
AcDbEntity
8
0
100
AcDbLine
10
-84.252750915224709
20
-13.74843486269139
30
1.3936727335336193e-31
11
-72.3472490849948
21
-13.748434862691088
31
0
0
ELLIPSE
5
180
100
AcDbEntity
8
0
100
AcDbEllipse
10
-72.347249085472271
20
-15.747216517002141
30
0
11
-1.4142135625668675
21
1.4142135625662267
31
0.0
40
0.99878276595874516
41
3.9275998091766011
42
5.49717815595743
0
LINE
5
181
100
AcDbEntity
8
0
100
AcDbLine
10
-70.348467431171841
20
-15.747216507799761
30
6.4161452580548008e-40
11
-70.348467431810278
21
-27.652718335899355
31
0
0
ELLIPSE
5
182
100
AcDbEntity
8
0
100
AcDbEllipse
10
-72.347249085500323
20
22.347281653980854
30
0
11
1.4142135621178629
21
1.414213562118197
31
0.0
40
0.99878276595874538
41
3.9275998042335045
42
5.4971781612593844
0
LINE
5
183
100
AcDbEntity
8
0
100
AcDbLine
10
-72.347249086178365
20
20.348500000302305
30
0
11
-84.252750914357108
21
20.348499999946355
31
0
0
ELLIPSE
5
184
100
AcDbEntity
8
0
100
AcDbEllipse
10
-84.252750914667359
20
22.347281653802753
30
0
11
1.414213562244405
21
-1.4142135622439604
31
0.0
40
0.99878276595874549
41
3.9275997999192338
42
5.4971781563515982
0
LINE
5
185
100
AcDbEntity
8
0
100
AcDbLine
10
-86.251532568534714
20
22.347281663103988
30
-6.9683636991710904e-32
11
-86.251532568816387
21
34.252783493342442
31
0
0
ELLIPSE
5
186
100
AcDbEntity
8
0
100
AcDbEllipse
10
-84.25275091469544
20
34.252783483175918
30
0
11
-1.4142135624402676
21
-1.4142135624405159
31
0.0
40
0.99878276595874493
41
3.9275998048375431
42
5.4971781511100986
0
LINE
5
187
100
AcDbEntity
8
0
100
AcDbLine
10
-84.252750915224709
20
36.25156513730861
30
1.3936727335336193e-31
11
-72.3472490849948
21
36.251565137308916
31
0
0
ELLIPSE
5
188
100
AcDbEntity
8
0
100
AcDbEllipse
10
-72.347249085472271
20
34.252783482997856
30
0
11
-1.4142135625668675
21
1.4142135625662267
31
0.0
40
0.99878276595874516
41
3.9275998091766011
42
5.4971781559574264
0
LINE
5
189
100
AcDbEntity
8
0
100
AcDbLine
10
-70.348467431171855
20
34.252783492200237
30
6.4161421106070782e-40
11
-70.348467431810278
21
22.347281664100628
31
0
0
ELLIPSE
5
190
100
AcDbEntity
8
0
100
AcDbEllipse
10
-72.347249085500323
20
-2.6527183460191446
30
0
11
1.4142135621178629
21
1.414213562118197
31
0.0
40
0.99878276595874538
41
3.9275998042334948
42
5.4971781612593897
0
LINE
5
191
100
AcDbEntity
8
0
100
AcDbLine
10
-72.347249086178365
20
-4.6514999996976929
30
0
11
-84.252750914357108
21
-4.6515000000536411
31
0
0
ELLIPSE
5
192
100
AcDbEntity
8
0
100
AcDbEllipse
10
-84.252750914667359
20
-2.6527183461972466
30
0
11
1.414213562244405
21
-1.4142135622439604
31
0.0
40
0.99878276595874549
41
3.9275997999192391
42
5.4971781563516009
0
LINE
5
193
100
AcDbEntity
8
0
100
AcDbLine
10
-86.251532568534714
20
-2.6527183368960197
30
-6.9683636991710619e-32
11
-86.251532568816387
21
9.2527834933424469
31
0
0
ELLIPSE
5
194
100
AcDbEntity
8
0
100
AcDbEllipse
10
-84.25275091469544
20
9.2527834831759233
30
0
11
-1.4142135624402676
21
-1.4142135624405159
31
0.0
40
0.99878276595874493
41
3.9275998048375458
42
5.4971781511100914
0
LINE
5
195
100
AcDbEntity
8
0
100
AcDbLine
10
-84.252750915224709
20
11.25156513730861
30
1.3936727335336193e-31
11
-72.3472490849948
21
11.251565137308912
31
0
0
ELLIPSE
5
196
100
AcDbEntity
8
0
100
AcDbEllipse
10
-72.347249085472271
20
9.2527834829978612
30
0
11
-1.4142135625668675
21
1.4142135625662267
31
0.0
40
0.99878276595874516
41
3.9275998091766064
42
5.4971781559574273
0
LINE
5
197
100
AcDbEntity
8
0
100
AcDbLine
10
-70.348467431171841
20
9.2527834922002441
30
6.4161496371125018e-40
11
-70.348467431810278
21
-2.6527183358993738
31
0
0
ELLIPSE
5
198
100
AcDbEntity
8
0
100
AcDbEllipse
10
-47.347249085500323
20
22.347281653980854
30
0
11
1.4142135621178629
21
1.414213562118197
31
0.0
40
0.99878276595874538
41
3.9275998042334948
42
5.4971781612593915
0
LINE
5
199
100
AcDbEntity
8
0
100
AcDbLine
10
-47.347249086178358
20
20.348500000302305
30
0
11
-59.252750914357094
21
20.348499999946355
31
0
0
ELLIPSE
5
200
100
AcDbEntity
8
0
100
AcDbEllipse
10
-59.252750914667367
20
22.347281653802753
30
0
11
1.414213562244405
21
-1.4142135622439604
31
0.0
40
0.99878276595874549
41
3.9275997999192276
42
5.4971781563516071
0
LINE
5
201
100
AcDbEntity
8
0
100
AcDbLine
10
-61.251532568534714
20
22.347281663103992
30
-6.9683636991711101e-32
11
-61.251532568816401
21
34.252783493342434
31
0
0
ELLIPSE
5
202
100
AcDbEntity
8
0
100
AcDbEllipse
10
-59.252750914695447
20
34.252783483175918
30
0
11
-1.4142135624402676
21
-1.4142135624405159
31
0.0
40
0.99878276595874493
41
3.9275998048375556
42
5.4971781511100986
0
LINE
5
203
100
AcDbEntity
8
0
100
AcDbLine
10
-59.25275091522473
20
36.251565137308603
30
1.3936727335336193e-31
11
-47.347249084994807
21
36.251565137308916
31
0
0
ELLIPSE
5
204
100
AcDbEntity
8
0
100
AcDbEllipse
10
-47.347249085472278
20
34.252783482997856
30
0
11
-1.4142135625668675
21
1.4142135625662267
31
0.0
40
0.99878276595874516
41
3.9275998091766073
42
5.4971781559574309
0
LINE
5
205
100
AcDbEntity
8
0
100
AcDbLine
10
-45.348467431171848
20
34.252783492200244
30
6.4161484055025234e-40
11
-45.348467431810278
21
22.347281664100628
31
0
0
CIRCLE
5
206
100
AcDbEntity
8
0
100
AcDbCircle
10
-95.949999999999918
20
90.950000000000102
30
0
40
1.5499999999999934
210
-4.9303806576313249e-32
220
-1.2355851020617911e-62
230
1
0
LWPOLYLINE
5
207
100
AcDbEntity
8
0
100
AcDbPolyline
90
4
70
1
43
0.0
10
-22.499999999999627
20
-92.499999999999858
10
22.500000000000384
20
-92.499999999999929
10
22.500000000000384
20
-88.699999999999903
10
-22.499999999999616
20
-88.699999999999903
0
LWPOLYLINE
5
208
100
AcDbEntity
8
0
100
AcDbPolyline
90
4
70
1
43
0.0
10
-22.499999999999638
20
88.700000000000131
10
22.500000000000362
20
88.700000000000117
10
22.500000000000362
20
92.500000000000128
10
-22.499999999999638
20
92.500000000000085
0
ELLIPSE
5
209
100
AcDbEntity
8
0
100
AcDbEllipse
10
65.747249085332641
20
-27.652750924383934
30
0
11
1.414213562244405
21
-1.4142135622439604
31
0.0
40
0.99878276595874549
41
3.9275997999192214
42
5.4971781563516
0
LINE
5
210
100
AcDbEntity
8
0
100
AcDbLine
10
63.748467431465286
20
-27.652750915082684
30
-6.9683636991711363e-32
11
63.74846743118362
21
-15.747249084844253
31
0
0
ELLIPSE
5
211
100
AcDbEntity
8
0
100
AcDbEllipse
10
65.74724908530456
20
-15.747249095010766
30
0
11
-1.4142135624402676
21
-1.4142135624405159
31
0.0
40
0.99878276595874493
41
3.9275998048375631
42
5.4971781511101012
0
LINE
5
212
100
AcDbEntity
8
0
100
AcDbLine
10
65.747249084775262
20
-13.748467440878079
30
1.3936727335336193e-31
11
77.652750915005214
21
-13.74846744087777
31
0
0
ELLIPSE
5
213
100
AcDbEntity
8
0
100
AcDbEllipse
10
77.652750914527729
20
-15.747249095188828
30
0
11
-1.4142135625668675
21
1.4142135625662267
31
0.0
40
0.99878276595874493
41
3.9275998091766087
42
5.4971781559574273
0
LINE
5
214
100
AcDbEntity
8
0
100
AcDbLine
10
79.651532568828159
20
-15.747249085986441
30
6.4161486791936297e-40
11
79.651532568189737
21
-27.652750914086059
31
0
0
ELLIPSE
5
215
100
AcDbEntity
8
0
100
AcDbEllipse
10
77.652750914499677
20
-27.652750924205833
30
0
11
1.4142135621178629
21
1.414213562118197
31
0.0
40
0.99878276595874527
41
3.9275998042334948
42
5.4971781612593871
0
LINE
5
216
100
AcDbEntity
8
0
100
AcDbLine
10
77.652750913821635
20
-29.651532577884382
30
0
11
65.747249085642906
21
-29.651532578240332
31
6.9683636677854226e-32
0
ELLIPSE
5
217
100
AcDbEntity
8
0
100
AcDbEllipse
10
-47.347249085500323
20
-2.6527183460191446
30
0
11
1.4142135621178629
21
1.414213562118197
31
0.0
40
0.99878276595874538
41
3.9275998042334921
42
5.4971781612593897
0
LINE
5
218
100
AcDbEntity
8
0
100
AcDbLine
10
-47.347249086178365
20
-4.6514999996976929
30
0
11
-59.252750914357094
21
-4.6515000000536411
31
0
0
ELLIPSE
5
219
100
AcDbEntity
8
0
100
AcDbEllipse
10
-59.252750914667367
20
-2.6527183461972466
30
0
11
1.414213562244405
21
-1.4142135622439604
31
0.0
40
0.99878276595874549
41
3.9275997999192263
42
5.4971781563516089
0
LINE
5
220
100
AcDbEntity
8
0
100
AcDbLine
10
-61.251532568534721
20
-2.6527183368959975
30
-6.9683636991711363e-32
11
-61.251532568816394
21
9.2527834933424415
31
0
0
ELLIPSE
5
221
100
AcDbEntity
8
0
100
AcDbEllipse
10
-59.252750914695447
20
9.2527834831759233
30
0
11
-1.4142135624402676
21
-1.4142135624405159
31
0.0
40
0.99878276595874493
41
3.9275998048375556
42
5.4971781511100986
0
LINE
5
222
100
AcDbEntity
8
0
100
AcDbLine
10
-59.25275091522473
20
11.25156513730861
30
1.3936727335336193e-31
11
-47.347249084994807
21
11.251565137308912
31
0
0
ELLIPSE
5
223
100
AcDbEntity
8
0
100
AcDbEllipse
10
-47.347249085472278
20
9.2527834829978612
30
0
11
-1.4142135625668675
21
1.4142135625662267
31
0.0
40
0.99878276595874516
41
3.9275998091766087
42
5.4971781559574326
0
LINE
5
224
100
AcDbEntity
8
0
100
AcDbLine
10
-45.348467431171848
20
9.2527834922002423
30
6.4161477212747576e-40
11
-45.348467431810278
21
-2.6527183358993796
31
0
0
CIRCLE
5
225
100
AcDbEntity
8
0
100
AcDbCircle
10
-95.949999999999875
20
-90.949999999999918
30
0
40
1.5500000000000114
210
-0
220
0
230
1
0
ELLIPSE
5
226
100
AcDbEntity
8
0
100
AcDbEllipse
10
40.747249085332641
20
22.347249075616066
30
0
11
1.414213562244405
21
-1.4142135622439604
31
0.0
40
0.99878276595874549
41
3.9275997999192258
42
5.4971781563516053
0
LINE
5
227
100
AcDbEntity
8
0
100
AcDbLine
10
38.748467431465293
20
22.347249084917316
30
-6.9683636991711363e-32
11
38.74846743118362
21
34.252750915155758
31
0
0
ELLIPSE
5
228
100
AcDbEntity
8
0
100
AcDbEllipse
10
40.74724908530456
20
34.252750904989234
30
0
11
-1.4142135624402676
21
-1.4142135624405159
31
0.0
40
0.99878276595874493
41
3.927599804837564
42
5.4971781511100932
0
LINE
5
229
100
AcDbEntity
8
0
100
AcDbLine
10
40.747249084775262
20
36.251532559121927
30
1.3936727335336193e-31
11
52.652750915005193
21
36.251532559122225
31
0
0
ELLIPSE
5
230
100
AcDbEntity
8
0
100
AcDbEllipse
10
52.652750914527722
20
34.252750904811172
30
0
11
-1.4142135625668675
21
1.4142135625662267
31
0.0
40
0.99878276595874493
41
3.92759980917661
42
5.4971781559574326
0
LINE
5
231
100
AcDbEntity
8
0
100
AcDbLine
10
54.651532568828152
20
34.252750914013561
30
6.4161481318114171e-40
11
54.651532568189729
21
22.347249085913941
31
0
0
ELLIPSE
5
232
100
AcDbEntity
8
0
100
AcDbEllipse
10
52.652750914499677
20
22.347249075794167
30
0
11
1.4142135621178629
21
1.414213562118197
31
0.0
40
0.99878276595874527
41
3.9275998042334934
42
5.4971781612593817
0
LINE
5
233
100
AcDbEntity
8
0
100
AcDbLine
10
52.652750913821642
20
20.348467422115618
30
0
11
40.747249085642906
21
20.348467421759668
31
6.9683636677854226e-32
0
ELLIPSE
5
234
100
AcDbEntity
8
0
100
AcDbEllipse
10
65.747249085332641
20
-2.6527509243839327
30
0
11
1.414213562244405
21
-1.4142135622439604
31
0.0
40
0.99878276595874549
41
3.9275997999192263
42
5.4971781563516036
0
LINE
5
235
100
AcDbEntity
8
0
100
AcDbLine
10
63.748467431465286
20
-2.6527509150826836
30
-6.9683636991711363e-32
11
63.74846743118362
21
9.2527509151557616
31
0
0
ELLIPSE
5
236
100
AcDbEntity
8
0
100
AcDbEllipse
10
65.74724908530456
20
9.2527509049892362
30
0
11
-1.4142135624402676
21
-1.4142135624405159
31
0.0
40
0.99878276595874493
41
3.9275998048375631
42
5.4971781511100941
0
LINE
5
237
100
AcDbEntity
8
0
100
AcDbLine
10
65.747249084775262
20
11.251532559121923
30
1.3936727335336193e-31
11
77.652750915005214
21
11.251532559122225
31
0
0
ELLIPSE
5
238
100
AcDbEntity
8
0
100
AcDbEllipse
10
77.652750914527729
20
9.2527509048111742
30
0
11
-1.4142135625668675
21
1.4142135625662267
31
0.0
40
0.99878276595874493
41
3.9275998091766087
42
5.4971781559574273
0
LINE
5
239
100
AcDbEntity
8
0
100
AcDbLine
10
79.651532568828145
20
9.252750914013566
30
6.4161536056335434e-40
11
79.651532568189737
21
-2.6527509140860506
31
0
0
ELLIPSE
5
240
100
AcDbEntity
8
0
100
AcDbEllipse
10
77.652750914499677
20
-2.6527509242058307
30
0
11
1.4142135621178629
21
1.414213562118197
31
0.0
40
0.99878276595874527
41
3.9275998042334996
42
5.4971781612593915
0
LINE
5
241
100
AcDbEntity
8
0
100
AcDbLine
10
77.652750913821635
20
-4.6515325778843781
30
0
11
65.747249085642906
21
-4.6515325782403307
31
6.9683636677854226e-32
0
LWPOLYLINE
5
242
100
AcDbEntity
8
0
100
AcDbPolyline
90
8
70
1
43
0.0
10
-62.999999999999439
20
58.700000000000088
10
63.000000000000576
20
58.700000000000074
42
0.41421356237309509
10
64.000000000000568
20
59.700000000000067
10
64.000000000000568
20
73.700000000000074
42
0.41421356237309509
10
63.000000000000576
20
74.700000000000074
10
-62.999999999999439
20
74.700000000000102
42
0.41421356237309509
10
-63.999999999999432
20
73.700000000000102
10
-63.999999999999432
20
59.700000000000088
42
0.41421356237309509
0
CIRCLE
5
243
100
AcDbEntity
8
0
100
AcDbCircle
10
0.20000000000018195
20
-82.199999999999861
30
0
40
1.5999999999999939
210
-3.6823305549078907e-70
220
1.4693679385278597e-39
230
1
0
CIRCLE
5
244
100
AcDbEntity
8
0
100
AcDbCircle
10
88.200000000000202
20
-82.199999999999861
30
0
40
1.6000000000000014
210
-0
220
0
230
1
0
ELLIPSE
5
245
100
AcDbEntity
8
0
100
AcDbEllipse
10
40.747249085332641
20
-2.6527509243839327
30
0
11
1.414213562244405
21
-1.4142135622439604
31
0.0
40
0.99878276595874549
41
3.9275997999192263
42
5.4971781563516018
0
LINE
5
246
100
AcDbEntity
8
0
100
AcDbLine
10
38.748467431465293
20
-2.6527509150826836
30
-6.9683636991711363e-32
11
38.74846743118362
21
9.2527509151557563
31
0
0
ELLIPSE
5
247
100
AcDbEntity
8
0
100
AcDbEllipse
10
40.74724908530456
20
9.2527509049892362
30
0
11
-1.4142135624402676
21
-1.4142135624405159
31
0.0
40
0.99878276595874493
41
3.9275998048375622
42
5.4971781511100977
0
LINE
5
248
100
AcDbEntity
8
0
100
AcDbLine
10
40.747249084775262
20
11.251532559121923
30
1.3936727335336193e-31
11
52.652750915005193
21
11.251532559122225
31
0
0
ELLIPSE
5
249
100
AcDbEntity
8
0
100
AcDbEllipse
10
52.652750914527722
20
9.2527509048111742
30
0
11
-1.4142135625668675
21
1.4142135625662267
31
0.0
40
0.99878276595874493
41
3.9275998091766073
42
5.4971781559574353
0
LINE
5
250
100
AcDbEntity
8
0
100
AcDbLine
10
54.651532568828152
20
9.2527509140135589
30
6.4161493634213955e-40
11
54.651532568189729
21
-2.6527509140860595
31
0
0
ELLIPSE
5
251
100
AcDbEntity
8
0
100
AcDbEllipse
10
52.652750914499677
20
-2.6527509242058307
30
0
11
1.4142135621178629
21
1.414213562118197
31
0.0
40
0.99878276595874527
41
3.9275998042334948
42
5.4971781612593844
0
LINE
5
252
100
AcDbEntity
8
0
100
AcDbLine
10
52.652750913821642
20
-4.6515325778843781
30
0
11
40.747249085642906
21
-4.6515325782403307
31
6.9683636677854226e-32
0
ELLIPSE
5
253
100
AcDbEntity
8
0
100
AcDbEllipse
10
2.6527509144996761
20
-52.652718346019149
30
0
11
1.4142135621178629
21
1.414213562118197
31
0.0
40
0.99878276595874538
41
3.9275998042334948
42
5.4971781612593844
0
LINE
5
254
100
AcDbEntity
8
0
100
AcDbLine
10
2.6527509138216314
20
-54.651499999697691
30
0
11
-9.2527509143571045
21
-54.651500000053652
31
0
0
ELLIPSE
5
255
100
AcDbEntity
8
0
100
AcDbEllipse
10
-9.2527509146673594
20
-52.652718346197247
30
0
11
1.414213562244405
21
-1.4142135622439604
31
0.0
40
0.99878276595874549
41
3.9275997999192289
42
5.4971781563516062
0
LINE
5
256
100
AcDbEntity
8
0
100
AcDbLine
10
-11.251532568534708
20
-52.652718336896001
30
-6.968363699171121e-32
11
-11.251532568816394
21
-40.747216506657551
31
0
0
ELLIPSE
5
257
100
AcDbEntity
8
0
100
AcDbEllipse
10
-9.2527509146954436
20
-40.747216516824082
30
0
11
-1.4142135624402676
21
-1.4142135624405159
31
0.0
40
0.99878276595874493
41
3.9275998048375547
42
5.4971781511100923
0
LINE
5
258
100
AcDbEntity
8
0
100
AcDbLine
10
-9.2527509152247251
20
-38.74843486269139
30
1.3936727335336193e-31
11
2.6527509150051918
21
-38.748434862691077
31
0
0
ELLIPSE
5
259
100
AcDbEntity
8
0
100
AcDbEllipse
10
2.6527509145277248
20
-40.747216517002144
30
0
11
-1.4142135625668675
21
1.4142135625662267
31
0.0
40
0.99878276595874516
41
3.9275998091766064
42
5.4971781559574335
0
LINE
5
260
100
AcDbEntity
8
0
100
AcDbLine
10
4.6515325688281521
20
-40.747216507799763
30
6.4161464896647792e-40
11
4.6515325681897233
21
-52.65271833589938
31
0
0
ELLIPSE
5
261
100
AcDbEntity
8
0
100
AcDbEllipse
10
-22.347249085500323
20
-2.6527183460191446
30
0
11
1.4142135621178629
21
1.414213562118197
31
0.0
40
0.99878276595874538
41
3.9275998042334956
42
5.4971781612593844
0
LINE
5
262
100
AcDbEntity
8
0
100
AcDbLine
10
-22.347249086178365
20
-4.6514999996976929
30
0
11
-34.252750914357108
21
-4.6515000000536411
31
0
0
ELLIPSE
5
263
100
AcDbEntity
8
0
100
AcDbEllipse
10
-34.252750914667359
20
-2.6527183461972466
30
0
11
1.414213562244405
21
-1.4142135622439604
31
0.0
40
0.99878276595874549
41
3.9275997999192276
42
5.4971781563516036
0
LINE
5
264
100
AcDbEntity
8
0
100
AcDbLine
10
-36.251532568534714
20
-2.6527183368959975
30
-6.9683636991711363e-32
11
-36.251532568816394
21
9.2527834933424522
31
0
0
ELLIPSE
5
265
100
AcDbEntity
8
0
100
AcDbEllipse
10
-34.252750914695447
20
9.2527834831759233
30
0
11
-1.4142135624402676
21
-1.4142135624405159
31
0.0
40
0.99878276595874493
41
3.9275998048375547
42
5.4971781511100914
0
LINE
5
266
100
AcDbEntity
8
0
100
AcDbLine
10
-34.25275091522473
20
11.25156513730861
30
1.3936727335336193e-31
11
-22.347249084994807
21
11.251565137308912
31
0
0
ELLIPSE
5
267
100
AcDbEntity
8
0
100
AcDbEllipse
10
-22.347249085472278
20
9.2527834829978612
30
0
11
-1.4142135625668675
21
1.4142135625662267
31
0.0
40
0.99878276595874516
41
3.9275998091766051
42
5.4971781559574326
0
LINE
5
268
100
AcDbEntity
8
0
100
AcDbLine
10
-20.348467431171851
20
9.2527834922002405
30
6.4161452580548008e-40
11
-20.348467431810281
21
-2.652718335899376
31
0
0
ELLIPSE
5
269
100
AcDbEntity
8
0
100
AcDbEllipse
10
-47.347249085500323
20
-52.652718346019149
30
0
11
1.4142135621178629
21
1.414213562118197
31
0.0
40
0.99878276595874538
41
3.9275998042334908
42
5.4971781612593853
0
LINE
5
270
100
AcDbEntity
8
0
100
AcDbLine
10
-47.34724908617838
20
-54.651499999697691
30
0
11
-59.252750914357108
21
-54.651500000053652
31
0
0
ELLIPSE
5
271
100
AcDbEntity
8
0
100
AcDbEllipse
10
-59.252750914667367
20
-52.652718346197247
30
0
11
1.414213562244405
21
-1.4142135622439604
31
0.0
40
0.99878276595874549
41
3.9275997999192271
42
5.4971781563516071
0
LINE
5
272
100
AcDbEntity
8
0
100
AcDbLine
10
-61.251532568534721
20
-52.652718336896001
30
-6.968363699171121e-32
11
-61.251532568816394
21
-40.747216506657551
31
0
0
ELLIPSE
5
273
100
AcDbEntity
8
0
100
AcDbEllipse
10
-59.252750914695447
20
-40.747216516824082
30
0
11
-1.4142135624402676
21
-1.4142135624405159
31
0.0
40
0.99878276595874493
41
3.9275998048375507
42
5.4971781511100861
0
LINE
5
274
100
AcDbEntity
8
0
100
AcDbLine
10
-59.25275091522473
20
-38.748434862691397
30
1.3936727335336193e-31
11
-47.347249084994807
21
-38.748434862691077
31
0
0
ELLIPSE
5
275
100
AcDbEntity
8
0
100
AcDbEllipse
10
-47.347249085472278
20
-40.747216517002144
30
0
11
-1.4142135625668675
21
1.4142135625662267
31
0.0
40
0.99878276595874516
41
3.9275998091766069
42
5.4971781559574318
0
LINE
5
276
100
AcDbEntity
8
0
100
AcDbLine
10
-45.348467431171848
20
-40.747216507799763
30
6.4161452580548008e-40
11
-45.348467431810278
21
-52.65271833589938
31
0
0
ELLIPSE
5
277
100
AcDbEntity
8
0
100
AcDbEllipse
10
-22.347249085500323
20
-52.652718346019149
30
0
11
1.4142135621178629
21
1.414213562118197
31
0.0
40
0.99878276595874538
41
3.9275998042334983
42
5.4971781612593826
0
LINE
5
278
100
AcDbEntity
8
0
100
AcDbLine
10
-22.347249086178358
20
-54.651499999697705
30
0
11
-34.252750914357108
21
-54.65150000005363
31
0
0
ELLIPSE
5
279
100
AcDbEntity
8
0
100
AcDbEllipse
10
-34.252750914667359
20
-52.652718346197247
30
0
11
1.414213562244405
21
-1.4142135622439604
31
0.0
40
0.99878276595874549
41
3.927599799919228
42
5.4971781563516018
0
LINE
5
280
100
AcDbEntity
8
0
100
AcDbLine
10
-36.251532568534714
20
-52.652718336896001
30
-6.9683636991711243e-32
11
-36.251532568816394
21
-40.747216506657551
31
0
0
ELLIPSE
5
281
100
AcDbEntity
8
0
100
AcDbEllipse
10
-34.252750914695447
20
-40.747216516824082
30
0
11
-1.4142135624402676
21
-1.4142135624405159
31
0.0
40
0.99878276595874493
41
3.9275998048375542
42
5.4971781511100941
0
LINE
5
282
100
AcDbEntity
8
0
100
AcDbLine
10
-34.252750915224723
20
-38.74843486269139
30
1.3936727335336193e-31
11
-22.347249084994807
21
-38.748434862691077
31
0
0
ELLIPSE
5
283
100
AcDbEntity
8
0
100
AcDbEllipse
10
-22.347249085472278
20
-40.747216517002144
30
0
11
-1.4142135625668675
21
1.4142135625662267
31
0.0
40
0.99878276595874516
41
3.9275998091766038
42
5.4971781559574344
0
LINE
5
284
100
AcDbEntity
8
0
100
AcDbLine
10
-20.348467431171851
20
-40.747216507799763
30
6.4161452580548008e-40
11
-20.348467431810278
21
-52.65271833589938
31
0
0
LWPOLYLINE
5
285
100
AcDbEntity
8
0
100
AcDbPolyline
90
4
70
1
43
0.0
10
26.25000000000049
20
-92.499999999999503
10
71.250000000000441
20
-92.499999999998863
10
71.249999999999659
20
-88.69999999999898
10
26.250000000000455
20
-88.699999999999505
0
ELLIPSE
5
286
100
AcDbEntity
8
0
100
AcDbEllipse
10
40.747249085332641
20
-27.652750924383934
30
0
11
1.414213562244405
21
-1.4142135622439604
31
0.0
40
0.99878276595874549
41
3.9275997999192276
42
5.4971781563516062
0
LINE
5
287
100
AcDbEntity
8
0
100
AcDbLine
10
38.748467431465293
20
-27.652750915082684
30
-6.9683636991711363e-32
11
38.748467431183606
21
-15.747249084844244
31
0
0
ELLIPSE
5
288
100
AcDbEntity
8
0
100
AcDbEllipse
10
40.74724908530456
20
-15.747249095010766
30
0
11
-1.4142135624402676
21
-1.4142135624405159
31
0.0
40
0.99878276595874493
41
3.9275998048375622
42
5.4971781511100977
0
LINE
5
289
100
AcDbEntity
8
0
100
AcDbLine
10
40.747249084775262
20
-13.748467440878079
30
1.3936727335336193e-31
11
52.652750915005193
21
-13.74846744087777
31
0
0
ELLIPSE
5
290
100
AcDbEntity
8
0
100
AcDbEllipse
10
52.652750914527722
20
-15.747249095188828
30
0
11
-1.4142135625668675
21
1.4142135625662267
31
0.0
40
0.99878276595874493
41
3.9275998091766025
42
5.4971781559574353
0
LINE
5
291
100
AcDbEntity
8
0
100
AcDbLine
10
54.651532568828152
20
-15.747249085986446
30
6.4161475844292045e-40
11
54.651532568189729
21
-27.652750914086059
31
0
0
ELLIPSE
5
292
100
AcDbEntity
8
0
100
AcDbEllipse
10
52.652750914499677
20
-27.652750924205833
30
0
11
1.4142135621178629
21
1.414213562118197
31
0.0
40
0.99878276595874527
41
3.9275998042334956
42
5.4971781612593853
0
LINE
5
293
100
AcDbEntity
8
0
100
AcDbLine
10
52.652750913821642
20
-29.651532577884382
30
0
11
40.747249085642906
21
-29.651532578240332
31
6.9683636677854226e-32
0
LWPOLYLINE
5
294
100
AcDbEntity
8
0
100
AcDbPolyline
90
4
70
1
43
0.0
10
93.699999999999278
20
53.958333333334643
10
93.699999999999775
20
7.7083333333346182
10
97.49999999999973
20
7.7083333333346715
10
97.499999999999162
20
53.958333333334679
0
LWPOLYLINE
5
295
100
AcDbEntity
8
0
100
AcDbPolyline
90
4
70
1
43
0.0
10
97.499999999999943
20
-7.708333333332007
10
93.699999999999918
20
-7.7083333333320425
10
93.700000000000699
20
-53.958333333332014
10
97.500000000000583
20
-53.958333333331979
0
CIRCLE
5
296
100
AcDbEntity
8
0
100
AcDbCircle
10
88.200000000000202
20
45.300000000000146
30
0
40
1.6000000000000014
210
-0
220
0
230
1
0
ELLIPSE
5
297
100
AcDbEntity
8
0
100
AcDbEllipse
10
40.747249085332641
20
-52.652750924383938
30
0
11
1.414213562244405
21
-1.4142135622439604
31
0.0
40
0.99878276595874549
41
3.9275997999192316
42
5.4971781563516
0
LINE
5
298
100
AcDbEntity
8
0
100
AcDbLine
10
38.748467431465293
20
-52.652750915082692
30
-6.9683636991711243e-32
11
38.748467431183606
21
-40.747249084844242
31
0
0
ELLIPSE
5
299
100
AcDbEntity
8
0
100
AcDbEllipse
10
40.74724908530456
20
-40.747249095010773
30
0
11
-1.4142135624402676
21
-1.4142135624405159
31
0.0
40
0.99878276595874493
41
3.9275998048375622
42
5.4971781511100932
0
LINE
5
300
100
AcDbEntity
8
0
100
AcDbLine
10
40.747249084775262
20
-38.74846744087808
30
1.3936727335336193e-31
11
52.652750915005193
21
-38.748467440877768
31
0
0
ELLIPSE
5
301
100
AcDbEntity
8
0
100
AcDbEllipse
10
52.652750914527722
20
-40.747249095188835
30
0
11
-1.4142135625668675
21
1.4142135625662267
31
0.0
40
0.99878276595874493
41
3.927599809176602
42
5.4971781559574371
0
LINE
5
302
100
AcDbEntity
8
0
100
AcDbLine
10
54.651532568828152
20
-40.747249085986454
30
6.4161449843636945e-40
11
54.651532568189729
21
-52.652750914086049
31
0
0
ELLIPSE
5
303
100
AcDbEntity
8
0
100
AcDbEllipse
10
52.652750914499677
20
-52.652750924205833
30
0
11
1.4142135621178629
21
1.414213562118197
31
0.0
40
0.99878276595874527
41
3.9275998042334965
42
5.4971781612593915
0
LINE
5
304
100
AcDbEntity
8
0
100
AcDbLine
10
52.652750913821642
20
-54.651532577884375
30
0
11
40.747249085642892
21
-54.651532578240335
31
6.9683636677853898e-32
0
ELLIPSE
5
305
100
AcDbEntity
8
0
100
AcDbEllipse
10
-47.347249085500323
20
-27.652718346019146
30
0
11
1.4142135621178629
21
1.414213562118197
31
0.0
40
0.99878276595874538
41
3.9275998042334979
42
5.4971781612593897
0
LINE
5
306
100
AcDbEntity
8
0
100
AcDbLine
10
-47.347249086178358
20
-29.651499999697695
30
0
11
-59.252750914357108
21
-29.651500000053652
31
0
0
ELLIPSE
5
307
100
AcDbEntity
8
0
100
AcDbEllipse
10
-59.252750914667367
20
-27.652718346197247
30
0
11
1.414213562244405
21
-1.4142135622439604
31
0.0
40
0.99878276595874549
41
3.9275997999192276
42
5.4971781563516071
0
LINE
5
308
100
AcDbEntity
8
0
100
AcDbLine
10
-61.251532568534721
20
-27.652718336895997
30
-6.9683636991711363e-32
11
-61.251532568816394
21
-15.747216506657562
31
0
0
ELLIPSE
5
309
100
AcDbEntity
8
0
100
AcDbEllipse
10
-59.252750914695447
20
-15.747216516824079
30
0
11
-1.4142135624402676
21
-1.4142135624405159
31
0.0
40
0.99878276595874493
41
3.9275998048375582
42
5.4971781511101012
0
LINE
5
310
100
AcDbEntity
8
0
100
AcDbLine
10
-59.25275091522473
20
-13.748434862691392
30
1.3936727335336193e-31
11
-47.347249084994807
21
-13.748434862691088
31
0
0
ELLIPSE
5
311
100
AcDbEntity
8
0
100
AcDbEllipse
10
-47.347249085472278
20
-15.747216517002141
30
0
11
-1.4142135625668675
21
1.4142135625662267
31
0.0
40
0.99878276595874516
41
3.9275998091766038
42
5.4971781559574309
0
LINE
5
312
100
AcDbEntity
8
0
100
AcDbLine
10
-45.348467431171848
20
-15.747216507799761
30
6.4161452580548008e-40
11
-45.348467431810278
21
-27.652718335899372
31
0
0
CIRCLE
5
313
100
AcDbEntity
8
0
100
AcDbCircle
10
-87.799999999999812
20
45.300000000000146
30
0
40
1.6000000000000014
210
-0
220
0
230
1
0
CIRCLE
5
314
100
AcDbEntity
8
0
100
AcDbCircle
10
21.670000000000165
20
-9.2499999999999059
30
0
40
3.9999999999999991
210
-0
220
0
230
1
0
ENDSEC
0
SECTION
2
OBJECTS
0
DICTIONARY
5
C
100
AcDbDictionary
3
ACAD_GROUP
350
D
3
ACAD_MLINESTYLE
350
17
0
DICTIONARY
5
D
100
AcDbDictionary
0
DICTIONARY
5
1A
330
C
100
AcDbDictionary
0
DICTIONARY
5
17
100
AcDbDictionary
0
ENDSEC
0
EOF
