0
SECTION
2
HEADER
9
$INSUNITS
70
4
9
$ACADVER
1
AC1014
9
$HANDSEED
5
FFFF
0
ENDSEC
0
SECTION
2
TABLES
0
TABLE
2
VPORT
5
8
100
AcDbSymbolTable
0
ENDTAB
0
TABLE
2
LTYPE
5
5
100
AcDbSymbolTable
0
LTYPE
5
14
100
AcDbSymbolTableRecord
100
AcDbLinetypeTableRecord
2
BYBLOCK
70
0
0
LTYPE
5
15
100
AcDbSymbolTableRecord
100
AcDbLinetypeTableRecord
2
BYLAYER
70
0
0
ENDTAB
0
TABLE
2
LAYER
5
2
100
AcDbSymbolTable
70
2
0
LAYER
5
50
100
AcDbSymbolTableRecord
100
AcDbLayerTableRecord
2
0
70
0
6
CONTINUOUS
0
ENDTAB
0
TABLE
2
STYLE
5
3
100
AcDbSymbolTable
70
1
0
STYLE
5
11
100
AcDbSymbolTableRecord
100
AcDbTextStyleTableRecord
2
STANDARD
70
0
0
ENDTAB
0
TABLE
2
VIEW
5
6
100
AcDbSymbolTable
70
0
0
ENDTAB
0
TABLE
2
UCS
5
7
100
AcDbSymbolTable
70
0
0
ENDTAB
0
TABLE
2
APPID
5
9
100
AcDbSymbolTable
70
2
0
APPID
5
12
100
AcDbSymbolTableRecord
100
AcDbRegAppTableRecord
2
ACAD
70
0
0
ENDTAB
0
TABLE
2
DIMSTYLE
5
A
100
AcDbSymbolTable
70
1
0
ENDTAB
0
TABLE
2
BLOCK_RECORD
5
1
100
AcDbSymbolTable
70
1
0
BLOCK_RECORD
5
1F
100
AcDbSymbolTableRecord
100
AcDbBlockTableRecord
2
*MODEL_SPACE
0
BLOCK_RECORD
5
1B
100
AcDbSymbolTableRecord
100
AcDbBlockTableRecord
2
*PAPER_SPACE
0
ENDTAB
0
ENDSEC
0
SECTION
2
BLOCKS
0
BLOCK
5
20
100
AcDbEntity
100
AcDbBlockBegin
2
*MODEL_SPACE
0
ENDBLK
5
21
100
AcDbEntity
100
AcDbBlockEnd
0
BLOCK
5
1C
100
AcDbEntity
100
AcDbBlockBegin
2
*PAPER_SPACE
0
ENDBLK
5
1D
100
AcDbEntity
100
AcDbBlockEnd
0
ENDSEC
0
SECTION
2
ENTITIES
0
LINE
5
100
100
AcDbEntity
8
0
100
AcDbLine
10
-70.348467431171699
20
-40.74721650779977
30
0
11
-70.348467431383497
21
-52.652718335899387
31
8.3684368795127253e-33
0
ELLIPSE
5
101
100
AcDbEntity
8
0
100
AcDbEllipse
10
-72.347249085500124
20
-52.652718346019157
30
0
11
1.4142135621178573
21
1.4142135621181975
31
0.0
40
0.9987827659587496
41
3.9275998042334894
42
5.4971781612593889
0
LINE
5
102
100
AcDbEntity
8
0
100
AcDbLine
10
-72.347249086178152
20
-54.651499999697705
30
-6.9683636684495034e-32
11
-84.252750914356909
21
-54.651500000053652
31
0
0
ELLIPSE
5
103
100
AcDbEntity
8
0
100
AcDbEllipse
10
-84.252750914667146
20
-52.652718346197254
30
0
11
1.414213562244411
21
-1.4142135622439609
31
0.0
40
0.99878276595874149
41
3.92759979991922
42
5.497178156351592
0
LINE
5
104
100
AcDbEntity
8
0
100
AcDbLine
10
-86.2515325685345
20
-52.652718336896015
30
-6.9683636343149512e-32
11
-86.251532568816231
21
-40.747216506657566
31
-2.3977487964627835e-33
0
ELLIPSE
5
105
100
AcDbEntity
8
0
100
AcDbEllipse
10
-84.252750914695284
20
-40.747216516824089
30
0
11
-1.4142135624402619
21
-1.4142135624405161
31
0.0
40
0.99878276595874915
41
3.9275998048375595
42
5.4971781511100977
0
LINE
5
106
100
AcDbEntity
8
0
100
AcDbLine
10
-84.252750915224581
20
-38.748434862691397
30
6.9683636658234438e-32
11
-72.347249084994658
21
-38.748434862587409
31
0
0
ELLIPSE
5
107
100
AcDbEntity
8
0
100
AcDbEllipse
10
-72.347249085472129
20
-40.747216517002151
30
0
11
-1.4142135625668737
21
1.4142135625662269
31
0.0
40
0.99878276595874071
41
3.9275998091766113
42
5.4971781559574318
0
LINE
5
108
100
AcDbEntity
8
0
100
AcDbLine
10
-70.348467431171798
20
-15.747216507799759
30
0
11
-70.348467431383611
21
-27.652718335899387
31
8.3684368795127253e-33
0
ELLIPSE
5
109
100
AcDbEntity
8
0
100
AcDbEllipse
10
-72.347249085500223
20
-27.652718346019149
30
0
11
1.4142135621178573
21
1.4142135621181975
31
0.0
40
0.9987827659587496
41
3.9275998042334908
42
5.4971781612593835
0
LINE
5
110
100
AcDbEntity
8
0
100
AcDbLine
10
-72.347249086178266
20
-29.651499999697698
30
-6.9683636684494925e-32
11
-84.252750914357009
21
-29.651500000053652
31
0
0
ELLIPSE
5
111
100
AcDbEntity
8
0
100
AcDbEllipse
10
-84.252750914667246
20
-27.652718346197251
30
0
11
1.414213562244411
21
-1.4142135622439609
31
0.0
40
0.99878276595874149
41
3.927599799919224
42
5.4971781563515858
0
LINE
5
112
100
AcDbEntity
8
0
100
AcDbLine
10
-86.2515325685346
20
-27.652718336896001
30
-6.9683636343149512e-32
11
-86.25153256881633
21
-15.747216506657555
31
-2.3977487964627835e-33
0
ELLIPSE
5
113
100
AcDbEntity
8
0
100
AcDbEllipse
10
-84.252750914695383
20
-15.747216516824082
30
0
11
-1.4142135624402619
21
-1.4142135624405161
31
0.0
40
0.99878276595874915
41
3.9275998048375582
42
5.4971781511100941
0
LINE
5
114
100
AcDbEntity
8
0
100
AcDbLine
10
-84.252750915224681
20
-13.748434862691393
30
6.9683636658234373e-32
11
-72.347249084994758
21
-13.748434862587404
31
0
0
ELLIPSE
5
115
100
AcDbEntity
8
0
100
AcDbEllipse
10
-72.347249085472228
20
-15.747216517002144
30
0
11
-1.4142135625668737
21
1.4142135625662269
31
0.0
40
0.99878276595874071
41
3.9275998091766113
42
5.4971781559574264
0
LINE
5
116
100
AcDbEntity
8
0
100
AcDbLine
10
-70.348467431171898
20
9.2527834922002477
30
0
11
-70.34846743138371
21
-2.6527183358993778
31
8.3684368795127253e-33
0
ELLIPSE
5
117
100
AcDbEntity
8
0
100
AcDbEllipse
10
-72.347249085500337
20
-2.6527183460191455
30
0
11
1.4142135621178573
21
1.4142135621181975
31
0.0
40
0.9987827659587496
41
3.9275998042334948
42
5.4971781612593809
0
LINE
5
118
100
AcDbEntity
8
0
100
AcDbLine
10
-72.347249086178365
20
-4.6514999996976938
30
-6.968363668449498e-32
11
-84.252750914357108
21
-4.6515000000536464
31
0
0
ELLIPSE
5
119
100
AcDbEntity
8
0
100
AcDbEllipse
10
-84.252750914667359
20
-2.6527183461972474
30
0
11
1.414213562244411
21
-1.4142135622439609
31
0.0
40
0.99878276595874149
41
3.9275997999192214
42
5.4971781563515911
0
LINE
5
120
100
AcDbEntity
8
0
100
AcDbLine
10
-86.251532568534714
20
-2.6527183368960006
30
-6.9683636343149512e-32
11
-86.251532568816444
21
9.2527834933424487
31
-2.3977487964627835e-33
0
ELLIPSE
5
121
100
AcDbEntity
8
0
100
AcDbEllipse
10
-84.252750914695497
20
9.2527834831759233
30
0
11
-1.4142135624402619
21
-1.4142135624405161
31
0.0
40
0.99878276595874915
41
3.9275998048375631
42
5.4971781511100968
0
LINE
5
122
100
AcDbEntity
8
0
100
AcDbLine
10
-84.252750915224794
20
11.251565137308612
30
6.9683636658234373e-32
11
-72.347249084994871
21
11.2515651374126
31
0
0
ELLIPSE
5
123
100
AcDbEntity
8
0
100
AcDbEllipse
10
-72.347249085472328
20
9.2527834829978612
30
0
11
-1.4142135625668737
21
1.4142135625662269
31
0.0
40
0.99878276595874071
41
3.9275998091766087
42
5.4971781559574362
0
LINE
5
124
100
AcDbEntity
8
0
100
AcDbLine
10
-70.348467431172011
20
34.252783492200251
30
0
11
-70.34846743138381
21
22.347281664100631
31
8.3684368795127253e-33
0
ELLIPSE
5
125
100
AcDbEntity
8
0
100
AcDbEllipse
10
-72.347249085500437
20
22.347281653980858
30
0
11
1.4142135621178573
21
1.4142135621181975
31
0.0
40
0.9987827659587496
41
3.9275998042334921
42
5.4971781612593835
0
LINE
5
126
100
AcDbEntity
8
0
100
AcDbLine
10
-72.347249086178479
20
20.348500000302309
30
-6.9683636684494925e-32
11
-84.252750914357222
21
20.348499999946359
31
0
0
ELLIPSE
5
127
100
AcDbEntity
8
0
100
AcDbEllipse
10
-84.252750914667459
20
22.347281653802757
30
0
11
1.414213562244411
21
-1.4142135622439609
31
0.0
40
0.99878276595874149
41
3.9275997999192289
42
5.4971781563515885
0
LINE
5
128
100
AcDbEntity
8
0
100
AcDbLine
10
-86.251532568534813
20
22.347281663104006
30
-6.9683636343149512e-32
11
-86.251532568816543
21
34.252783493342456
31
-2.3977487964627835e-33
0
ELLIPSE
5
129
100
AcDbEntity
8
0
100
AcDbEllipse
10
-84.252750914695596
20
34.252783483175932
30
0
11
-1.4142135624402619
21
-1.4142135624405161
31
0.0
40
0.99878276595874915
41
3.9275998048375609
42
5.4971781511100914
0
LINE
5
130
100
AcDbEntity
8
0
100
AcDbLine
10
-84.252750915224908
20
36.251565137308617
30
6.9683636658234438e-32
11
-72.347249084994985
21
36.251565137412605
31
0
0
ELLIPSE
5
131
100
AcDbEntity
8
0
100
AcDbEllipse
10
-72.347249085472441
20
34.25278348299787
30
0
11
-1.4142135625668737
21
1.4142135625662269
31
0.0
40
0.99878276595874071
41
3.9275998091766051
42
5.49717815595743
0
LINE
5
132
100
AcDbEntity
8
0
100
AcDbLine
10
-45.348467431171684
20
-40.74721650779977
30
0
11
-45.34846743138349
21
-52.652718335899387
31
8.3684368795127253e-33
0
ELLIPSE
5
133
100
AcDbEntity
8
0
100
AcDbEllipse
10
-47.34724908550011
20
-52.652718346019157
30
0
11
1.4142135621178573
21
1.4142135621181975
31
0.0
40
0.9987827659587496
41
3.9275998042334899
42
5.4971781612593835
0
LINE
5
134
100
AcDbEntity
8
0
100
AcDbLine
10
-47.347249086178145
20
-54.651499999697705
30
-6.9683636684495034e-32
11
-59.252750914356874
21
-54.651500000053652
31
0
0
ELLIPSE
5
135
100
AcDbEntity
8
0
100
AcDbEllipse
10
-59.252750914667153
20
-52.652718346197254
30
0
11
1.414213562244411
21
-1.4142135622439609
31
0.0
40
0.99878276595874149
41
3.9275997999192311
42
5.497178156351608
0
LINE
5
136
100
AcDbEntity
8
0
100
AcDbLine
10
-61.2515325685345
20
-52.652718336896015
30
-6.9683636343149512e-32
11
-61.251532568816245
21
-40.747216506657566
31
1.4535937126502785e-32
0
ELLIPSE
5
137
100
AcDbEntity
8
0
100
AcDbEllipse
10
-59.252750914695291
20
-40.747216516824089
30
0
11
-1.4142135624402619
21
-1.4142135624405161
31
0.0
40
0.99878276595874915
41
3.9275998048375476
42
5.4971781511100959
0
LINE
5
138
100
AcDbEntity
8
0
100
AcDbLine
10
-59.252750915224574
20
-38.748434862691397
30
6.9683636658234625e-32
11
-47.347249084994658
21
-38.748434862587409
31
0
0
ELLIPSE
5
139
100
AcDbEntity
8
0
100
AcDbEllipse
10
-47.347249085472114
20
-40.747216517002151
30
0
11
-1.4142135625668737
21
1.4142135625662269
31
0.0
40
0.99878276595874071
41
3.9275998091766073
42
5.49717815595743
0
LINE
5
140
100
AcDbEntity
8
0
100
AcDbLine
10
-45.348467431171791
20
-15.747216507799759
30
0
11
-45.348467431383597
21
-27.652718335899387
31
8.3684368795127253e-33
0
ELLIPSE
5
141
100
AcDbEntity
8
0
100
AcDbEllipse
10
-47.347249085500216
20
-27.652718346019149
30
0
11
1.4142135621178573
21
1.4142135621181975
31
0.0
40
0.9987827659587496
41
3.9275998042334948
42
5.4971781612593826
0
LINE
5
142
100
AcDbEntity
8
0
100
AcDbLine
10
-47.347249086178252
20
-29.651499999697698
30
-6.9683636684494925e-32
11
-59.25275091435698
21
-29.651500000053652
31
0
0
ELLIPSE
5
143
100
AcDbEntity
8
0
100
AcDbEllipse
10
-59.25275091466726
20
-27.652718346197251
30
0
11
1.414213562244411
21
-1.4142135622439609
31
0.0
40
0.99878276595874149
41
3.927599799919224
42
5.4971781563516089
0
LINE
5
144
100
AcDbEntity
8
0
100
AcDbLine
10
-61.2515325685346
20
-27.652718336896001
30
-6.9683636343149512e-32
11
-61.251532568816351
21
-15.747216506657555
31
1.4535937126502785e-32
0
ELLIPSE
5
145
100
AcDbEntity
8
0
100
AcDbEllipse
10
-59.252750914695397
20
-15.747216516824082
30
0
11
-1.4142135624402619
21
-1.4142135624405161
31
0.0
40
0.99878276595874915
41
3.9275998048375556
42
5.4971781511100941
0
LINE
5
146
100
AcDbEntity
8
0
100
AcDbLine
10
-59.252750915224681
20
-13.748434862691393
30
6.9683636658234559e-32
11
-47.347249084994758
21
-13.748434862587404
31
0
0
ELLIPSE
5
147
100
AcDbEntity
8
0
100
AcDbEllipse
10
-47.347249085472221
20
-15.747216517002144
30
0
11
-1.4142135625668737
21
1.4142135625662269
31
0.0
40
0.99878276595874071
41
3.9275998091766073
42
5.49717815595743
0
LINE
5
148
100
AcDbEntity
8
0
100
AcDbLine
10
-45.34846743117189
20
9.2527834922002477
30
0
11
-45.348467431383696
21
-2.6527183358993778
31
8.3684368795127253e-33
0
ELLIPSE
5
149
100
AcDbEntity
8
0
100
AcDbEllipse
10
-47.347249085500323
20
-2.6527183460191455
30
0
11
1.4142135621178573
21
1.4142135621181975
31
0.0
40
0.9987827659587496
41
3.9275998042334948
42
5.4971781612593853
0
LINE
5
150
100
AcDbEntity
8
0
100
AcDbLine
10
-47.347249086178358
20
-4.6514999996976938
30
-6.968363668449498e-32
11
-59.252750914357087
21
-4.6515000000536464
31
0
0
ELLIPSE
5
151
100
AcDbEntity
8
0
100
AcDbEllipse
10
-59.252750914667367
20
-2.6527183461972474
30
0
11
1.414213562244411
21
-1.4142135622439609
31
0.0
40
0.99878276595874149
41
3.927599799919224
42
5.4971781563516107
0
LINE
5
152
100
AcDbEntity
8
0
100
AcDbLine
10
-61.251532568534714
20
-2.6527183368960006
30
-6.9683636343149512e-32
11
-61.251532568816458
21
9.2527834933424487
31
1.4535937126502785e-32
0
ELLIPSE
5
153
100
AcDbEntity
8
0
100
AcDbEllipse
10
-59.252750914695497
20
9.2527834831759233
30
0
11
-1.4142135624402619
21
-1.4142135624405161
31
0.0
40
0.99878276595874915
41
3.9275998048375533
42
5.4971781511100914
0
LINE
5
154
100
AcDbEntity
8
0
100
AcDbLine
10
-59.25275091522478
20
11.251565137308612
30
6.9683636658234559e-32
11
-47.347249084994864
21
11.2515651374126
31
0
0
ELLIPSE
5
155
100
AcDbEntity
8
0
100
AcDbEllipse
10
-47.34724908547232
20
9.2527834829978612
30
0
11
-1.4142135625668737
21
1.4142135625662269
31
0.0
40
0.99878276595874071
41
3.9275998091766064
42
5.4971781559574335
0
LINE
5
156
100
AcDbEntity
8
0
100
AcDbLine
10
-45.348467431171997
20
34.252783492200251
30
0
11
-45.348467431383803
21
22.347281664100631
31
8.3684368795127253e-33
0
ELLIPSE
5
157
100
AcDbEntity
8
0
100
AcDbEllipse
10
-47.34724908550043
20
22.347281653980858
30
0
11
1.4142135621178573
21
1.4142135621181975
31
0.0
40
0.9987827659587496
41
3.9275998042334921
42
5.4971781612593862
0
LINE
5
158
100
AcDbEntity
8
0
100
AcDbLine
10
-47.347249086178465
20
20.348500000302309
30
-6.9683636684494925e-32
11
-59.252750914357193
21
20.348499999946359
31
0
0
ELLIPSE
5
159
100
AcDbEntity
8
0
100
AcDbEllipse
10
-59.252750914667473
20
22.347281653802757
30
0
11
1.414213562244411
21
-1.4142135622439609
31
0.0
40
0.99878276595874149
41
3.9275997999192263
42
5.4971781563516089
0
LINE
5
160
100
AcDbEntity
8
0
100
AcDbLine
10
-61.251532568534813
20
22.347281663104006
30
-6.9683636343149512e-32
11
-61.251532568816565
21
34.252783493342456
31
1.4535937126502785e-32
0
ELLIPSE
5
161
100
AcDbEntity
8
0
100
AcDbEllipse
10
-59.252750914695596
20
34.252783483175932
30
0
11
-1.4142135624402619
21
-1.4142135624405161
31
0.0
40
0.99878276595874915
41
3.927599804837548
42
5.4971781511100923
0
LINE
5
162
100
AcDbEntity
8
0
100
AcDbLine
10
-59.25275091522488
20
36.251565137308617
30
6.9683636658234625e-32
11
-47.347249084994971
21
36.251565137412605
31
0
0
ELLIPSE
5
163
100
AcDbEntity
8
0
100
AcDbEllipse
10
-47.347249085472427
20
34.25278348299787
30
0
11
-1.4142135625668737
21
1.4142135625662269
31
0.0
40
0.99878276595874071
41
3.9275998091766096
42
5.4971781559574353
0
LINE
5
164
100
AcDbEntity
8
0
100
AcDbLine
10
-20.348467431171677
20
-40.74721650779977
30
0
11
-20.348467431383487
21
-52.652718335899387
31
8.3684368795127253e-33
0
ELLIPSE
5
165
100
AcDbEntity
8
0
100
AcDbEllipse
10
-22.347249085500106
20
-52.652718346019157
30
0
11
1.4142135621178573
21
1.4142135621181975
31
0.0
40
0.9987827659587496
41
3.9275998042334908
42
5.4971781612593853
0
LINE
5
166
100
AcDbEntity
8
0
100
AcDbLine
10
-22.347249086178142
20
-54.651499999697705
30
-6.9683636684495034e-32
11
-34.252750914356874
21
-54.651500000053652
31
0
0
ELLIPSE
5
167
100
AcDbEntity
8
0
100
AcDbEllipse
10
-34.252750914667146
20
-52.652718346197254
30
0
11
1.414213562244411
21
-1.4142135622439609
31
0.0
40
0.99878276595874149
41
3.9275997999192303
42
5.4971781563516098
0
LINE
5
168
100
AcDbEntity
8
0
100
AcDbLine
10
-36.2515325685345
20
-52.652718336896015
30
-6.9683636343149512e-32
11
-36.251532568816231
21
-40.747216506657566
31
1.4535937126502785e-32
0
ELLIPSE
5
169
100
AcDbEntity
8
0
100
AcDbEllipse
10
-34.252750914695284
20
-40.747216516824089
30
0
11
-1.4142135624402619
21
-1.4142135624405161
31
0.0
40
0.99878276595874915
41
3.9275998048375533
42
5.4971781511100923
0
LINE
5
170
100
AcDbEntity
8
0
100
AcDbLine
10
-34.252750915224574
20
-38.748434862691397
30
6.9683636658234504e-32
11
-22.347249084994651
21
-38.748434862587409
31
0
0
ELLIPSE
5
171
100
AcDbEntity
8
0
100
AcDbEllipse
10
-22.347249085472107
20
-40.747216517002151
30
0
11
-1.4142135625668737
21
1.4142135625662269
31
0.0
40
0.99878276595874071
41
3.9275998091766042
42
5.4971781559574335
0
LINE
5
172
100
AcDbEntity
8
0
100
AcDbLine
10
-20.348467431171784
20
-15.747216507799759
30
0
11
-20.348467431383593
21
-27.652718335899387
31
8.3684368795127253e-33
0
ELLIPSE
5
173
100
AcDbEntity
8
0
100
AcDbEllipse
10
-22.347249085500213
20
-27.652718346019149
30
0
11
1.4142135621178573
21
1.4142135621181975
31
0.0
40
0.9987827659587496
41
3.9275998042334965
42
5.4971781612593853
0
LINE
5
174
100
AcDbEntity
8
0
100
AcDbLine
10
-22.347249086178245
20
-29.651499999697698
30
-6.9683636684494925e-32
11
-34.25275091435698
21
-29.651500000053652
31
0
0
ELLIPSE
5
175
100
AcDbEntity
8
0
100
AcDbEllipse
10
-34.252750914667253
20
-27.652718346197251
30
0
11
1.414213562244411
21
-1.4142135622439609
31
0.0
40
0.99878276595874149
41
3.9275997999192258
42
5.4971781563516053
0
LINE
5
176
100
AcDbEntity
8
0
100
AcDbLine
10
-36.2515325685346
20
-27.652718336896001
30
-6.9683636343149512e-32
11
-36.251532568816337
21
-15.747216506657555
31
1.4535937126502785e-32
0
ELLIPSE
5
177
100
AcDbEntity
8
0
100
AcDbEllipse
10
-34.252750914695383
20
-15.747216516824082
30
0
11
-1.4142135624402619
21
-1.4142135624405161
31
0.0
40
0.99878276595874915
41
3.9275998048375547
42
5.4971781511100914
0
LINE
5
178
100
AcDbEntity
8
0
100
AcDbLine
10
-34.252750915224681
20
-13.748434862691393
30
6.9683636658234504e-32
11
-22.347249084994758
21
-13.748434862587404
31
0
0
ELLIPSE
5
179
100
AcDbEntity
8
0
100
AcDbEllipse
10
-22.347249085472214
20
-15.747216517002144
30
0
11
-1.4142135625668737
21
1.4142135625662269
31
0.0
40
0.99878276595874071
41
3.9275998091766069
42
5.4971781559574353
0
LINE
5
180
100
AcDbEntity
8
0
100
AcDbLine
10
-20.34846743117189
20
9.2527834922002477
30
0
11
-20.3484674313837
21
-2.6527183358993778
31
8.3684368795127253e-33
0
ELLIPSE
5
181
100
AcDbEntity
8
0
100
AcDbEllipse
10
-22.347249085500316
20
-2.6527183460191455
30
0
11
1.4142135621178573
21
1.4142135621181975
31
0.0
40
0.9987827659587496
41
3.9275998042334956
42
5.4971781612593862
0
LINE
5
182
100
AcDbEntity
8
0
100
AcDbLine
10
-22.347249086178348
20
-4.6514999996976938
30
-6.968363668449498e-32
11
-34.252750914357087
21
-4.6515000000536464
31
0
0
ELLIPSE
5
183
100
AcDbEntity
8
0
100
AcDbEllipse
10
-34.252750914667359
20
-2.6527183461972474
30
0
11
1.414213562244411
21
-1.4142135622439609
31
0.0
40
0.99878276595874149
41
3.9275997999192276
42
5.4971781563516044
0
LINE
5
184
100
AcDbEntity
8
0
100
AcDbLine
10
-36.251532568534707
20
-2.6527183368960006
30
-6.9683636343149512e-32
11
-36.251532568816444
21
9.2527834933424487
31
1.4535937126502785e-32
0
ELLIPSE
5
185
100
AcDbEntity
8
0
100
AcDbEllipse
10
-34.252750914695497
20
9.2527834831759233
30
0
11
-1.4142135624402619
21
-1.4142135624405161
31
0.0
40
0.99878276595874915
41
3.9275998048375556
42
5.4971781511100941
0
LINE
5
186
100
AcDbEntity
8
0
100
AcDbLine
10
-34.252750915224787
20
11.251565137308612
30
6.9683636658234504e-32
11
-22.347249084994864
21
11.2515651374126
31
0
0
ELLIPSE
5
187
100
AcDbEntity
8
0
100
AcDbEllipse
10
-22.34724908547232
20
9.2527834829978612
30
0
11
-1.4142135625668737
21
1.4142135625662269
31
0.0
40
0.99878276595874071
41
3.9275998091766082
42
5.4971781559574335
0
LINE
5
188
100
AcDbEntity
8
0
100
AcDbLine
10
-20.348467431171997
20
34.252783492200251
30
0
11
-20.348467431383806
21
22.347281664100631
31
8.3684368795127253e-33
0
ELLIPSE
5
189
100
AcDbEntity
8
0
100
AcDbEllipse
10
-22.347249085500422
20
22.347281653980858
30
0
11
1.4142135621178573
21
1.4142135621181975
31
0.0
40
0.9987827659587496
41
3.9275998042334961
42
5.4971781612593844
0
LINE
5
190
100
AcDbEntity
8
0
100
AcDbLine
10
-22.347249086178454
20
20.348500000302309
30
-6.9683636684494925e-32
11
-34.252750914357193
21
20.348499999946359
31
0
0
ELLIPSE
5
191
100
AcDbEntity
8
0
100
AcDbEllipse
10
-34.252750914667459
20
22.347281653802757
30
0
11
1.414213562244411
21
-1.4142135622439609
31
0.0
40
0.99878276595874149
41
3.927599799919228
42
5.4971781563516071
0
LINE
5
192
100
AcDbEntity
8
0
100
AcDbLine
10
-36.251532568534813
20
22.347281663104006
30
-6.9683636343149512e-32
11
-36.251532568816543
21
34.252783493342456
31
1.4535937126502785e-32
0
ELLIPSE
5
193
100
AcDbEntity
8
0
100
AcDbEllipse
10
-34.252750914695596
20
34.252783483175932
30
0
11
-1.4142135624402619
21
-1.4142135624405161
31
0.0
40
0.99878276595874915
41
3.9275998048375569
42
5.4971781511100914
0
LINE
5
194
100
AcDbEntity
8
0
100
AcDbLine
10
-34.252750915224894
20
36.251565137308617
30
6.9683636658234504e-32
11
-22.347249084994971
21
36.251565137412605
31
0
0
ELLIPSE
5
195
100
AcDbEntity
8
0
100
AcDbEllipse
10
-22.347249085472427
20
34.25278348299787
30
0
11
-1.4142135625668737
21
1.4142135625662269
31
0.0
40
0.99878276595874071
41
3.9275998091766064
42
5.4971781559574318
0
LINE
5
196
100
AcDbEntity
8
0
100
AcDbLine
10
4.6515325688283262
20
-40.74721650779977
30
0
11
4.6515325686165196
21
-52.652718335899387
31
8.3684368795127253e-33
0
ELLIPSE
5
197
100
AcDbEntity
8
0
100
AcDbEllipse
10
2.6527509144998973
20
-52.652718346019157
30
0
11
1.4142135621178573
21
1.4142135621181975
31
0.0
40
0.9987827659587496
41
3.9275998042334921
42
5.4971781612593835
0
LINE
5
198
100
AcDbEntity
8
0
100
AcDbLine
10
2.6527509138218623
20
-54.651499999697705
30
-6.9683636684495034e-32
11
-9.2527509143568736
21
-54.651500000053652
31
0
0
ELLIPSE
5
199
100
AcDbEntity
8
0
100
AcDbEllipse
10
-9.2527509146671409
20
-52.652718346197254
30
0
11
1.414213562244411
21
-1.4142135622439609
31
0.0
40
0.99878276595874149
41
3.9275997999192249
42
5.4971781563516071
0
LINE
5
200
100
AcDbEntity
8
0
100
AcDbLine
10
-11.25153256853449
20
-52.652718336896001
30
-6.9683636343149446e-32
11
-11.251532568816225
21
-40.747216506657566
31
1.4535937126502785e-32
0
ELLIPSE
5
201
100
AcDbEntity
8
0
100
AcDbEllipse
10
-9.2527509146952749
20
-40.747216516824089
30
0
11
-1.4142135624402619
21
-1.4142135624405161
31
0.0
40
0.99878276595874915
41
3.9275998048375556
42
5.4971781511100968
0
LINE
5
202
100
AcDbEntity
8
0
100
AcDbLine
10
-9.2527509152245653
20
-38.748434862691397
30
6.9683636658234559e-32
11
2.652750915005353
21
-38.748434862587409
31
0
0
ELLIPSE
5
203
100
AcDbEntity
8
0
100
AcDbEllipse
10
2.6527509145278962
20
-40.747216517002151
30
0
11
-1.4142135625668737
21
1.4142135625662269
31
0.0
40
0.99878276595874071
41
3.9275998091766064
42
5.4971781559574353
0
LINE
5
204
100
AcDbEntity
8
0
100
AcDbLine
10
4.6515325688282214
20
-15.747216507799759
30
0
11
4.651532568616414
21
-27.652718335899387
31
8.3684368795127253e-33
0
ELLIPSE
5
205
100
AcDbEntity
8
0
100
AcDbEllipse
10
2.6527509144997916
20
-27.652718346019149
30
0
11
1.4142135621178573
21
1.4142135621181975
31
0.0
40
0.9987827659587496
41
3.927599804233497
42
5.4971781612593835
0
LINE
5
206
100
AcDbEntity
8
0
100
AcDbLine
10
2.6527509138217602
20
-29.651499999697698
30
-6.9683636684494925e-32
11
-9.2527509143569766
21
-29.651500000053652
31
0
0
ELLIPSE
5
207
100
AcDbEntity
8
0
100
AcDbEllipse
10
-9.2527509146672458
20
-27.652718346197251
30
0
11
1.414213562244411
21
-1.4142135622439609
31
0.0
40
0.99878276595874149
41
3.9275997999192271
42
5.4971781563516071
0
LINE
5
208
100
AcDbEntity
8
0
100
AcDbLine
10
-11.251532568534596
20
-27.652718336896001
30
-6.9683636343149446e-32
11
-11.25153256881633
21
-15.747216506657555
31
1.4535937126502785e-32
0
ELLIPSE
5
209
100
AcDbEntity
8
0
100
AcDbEllipse
10
-9.2527509146953797
20
-15.747216516824082
30
0
11
-1.4142135624402619
21
-1.4142135624405161
31
0.0
40
0.99878276595874915
41
3.9275998048375551
42
5.4971781511100923
0
LINE
5
210
100
AcDbEntity
8
0
100
AcDbLine
10
-9.2527509152246719
20
-13.748434862691393
30
6.9683636658234504e-32
11
2.6527509150052477
21
-13.748434862587404
31
0
0
ELLIPSE
5
211
100
AcDbEntity
8
0
100
AcDbEllipse
10
2.6527509145277905
20
-15.747216517002144
30
0
11
-1.4142135625668737
21
1.4142135625662269
31
0.0
40
0.99878276595874071
41
3.9275998091766082
42
5.4971781559574335
0
LINE
5
212
100
AcDbEntity
8
0
100
AcDbLine
10
4.6515325688281157
20
9.2527834922002477
30
0
11
4.6515325686163083
21
-2.6527183358993778
31
8.3684368795127253e-33
0
ELLIPSE
5
213
100
AcDbEntity
8
0
100
AcDbEllipse
10
2.6527509144996864
20
-2.6527183460191455
30
0
11
1.4142135621178573
21
1.4142135621181975
31
0.0
40
0.9987827659587496
41
3.9275998042334952
42
5.4971781612593853
0
LINE
5
214
100
AcDbEntity
8
0
100
AcDbLine
10
2.6527509138216532
20
-4.6514999996976938
30
-6.968363668449498e-32
11
-9.2527509143570832
21
-4.6515000000536464
31
0
0
ELLIPSE
5
215
100
AcDbEntity
8
0
100
AcDbEllipse
10
-9.2527509146673523
20
-2.6527183461972474
30
0
11
1.414213562244411
21
-1.4142135622439609
31
0.0
40
0.99878276595874149
41
3.9275997999192271
42
5.4971781563516053
0
LINE
5
216
100
AcDbEntity
8
0
100
AcDbLine
10
-11.251532568534701
20
-2.6527183368959988
30
-6.9683636343149446e-32
11
-11.251532568816437
21
9.2527834933424487
31
1.4535937126502785e-32
0
ELLIPSE
5
217
100
AcDbEntity
8
0
100
AcDbEllipse
10
-9.2527509146954863
20
9.2527834831759233
30
0
11
-1.4142135624402619
21
-1.4142135624405161
31
0.0
40
0.99878276595874915
41
3.9275998048375542
42
5.4971781511100932
0
LINE
5
218
100
AcDbEntity
8
0
100
AcDbLine
10
-9.2527509152247784
20
11.251565137308612
30
6.9683636658234504e-32
11
2.652750915005142
21
11.2515651374126
31
0
0
ELLIPSE
5
219
100
AcDbEntity
8
0
100
AcDbEllipse
10
2.6527509145276849
20
9.2527834829978612
30
0
11
-1.4142135625668737
21
1.4142135625662269
31
0.0
40
0.99878276595874071
41
3.9275998091766078
42
5.4971781559574344
0
LINE
5
220
100
AcDbEntity
8
0
100
AcDbLine
10
52.652750913821876
20
-54.651532577884396
30
0
11
40.747249085643141
21
-54.651532578240342
31
0
0
ELLIPSE
5
221
100
AcDbEntity
8
0
100
AcDbEllipse
10
40.747249085332875
20
-52.652750924383945
30
0
11
1.414213562244411
21
-1.4142135622439609
31
0.0
40
0.99878276595874149
41
3.927599799919232
42
5.4971781563516027
0
LINE
5
222
100
AcDbEntity
8
0
100
AcDbLine
10
38.748467431465528
20
-52.652750915082706
30
-6.9683636343149512e-32
11
38.748467431183798
21
-40.747249084844256
31
1.4535937126502785e-32
0
ELLIPSE
5
223
100
AcDbEntity
8
0
100
AcDbEllipse
10
40.747249085304738
20
-40.74724909501078
30
0
11
-1.4142135624402619
21
-1.4142135624405161
31
0.0
40
0.99878276595874904
41
3.9275998048375578
42
5.4971781511100923
0
LINE
5
224
100
AcDbEntity
8
0
100
AcDbLine
10
40.747249084775433
20
-38.748467440878095
30
0
11
52.652750915005356
21
-38.748467440877782
31
0
0
ELLIPSE
5
225
100
AcDbEntity
8
0
100
AcDbEllipse
10
52.6527509145279
20
-40.747249095188842
30
0
11
-1.4142135625668737
21
1.4142135625662269
31
0.0
40
0.99878276595874071
41
3.9275998091766056
42
5.49717815595743
0
LINE
5
226
100
AcDbEntity
8
0
100
AcDbLine
10
54.65153256882833
20
-40.747249085986454
30
6.9683637003336262e-32
11
54.65153256818995
21
-52.65275091408607
31
1.4405587329932241e-32
0
ELLIPSE
5
227
100
AcDbEntity
8
0
100
AcDbEllipse
10
52.652750914499904
20
-52.65275092420584
30
0
11
1.4142135621178573
21
1.4142135621181975
31
0.0
40
0.9987827659587496
41
3.9275998042334903
42
5.4971781612593924
0
LINE
5
228
100
AcDbEntity
8
0
100
AcDbLine
10
52.652750913821777
20
-29.651532577884385
30
0
11
40.747249085643034
21
-29.651532578240335
31
0
0
ELLIPSE
5
229
100
AcDbEntity
8
0
100
AcDbEllipse
10
40.747249085332768
20
-27.652750924383938
30
0
11
1.414213562244411
21
-1.4142135622439609
31
0.0
40
0.99878276595874149
41
3.9275997999192289
42
5.4971781563516062
0
LINE
5
230
100
AcDbEntity
8
0
100
AcDbLine
10
38.748467431465421
20
-27.652750915082688
30
-6.9683636343149512e-32
11
38.748467431183691
21
-15.747249084844245
31
1.4535937126502785e-32
0
ELLIPSE
5
231
100
AcDbEntity
8
0
100
AcDbEllipse
10
40.747249085304631
20
-15.747249095010769
30
0
11
-1.4142135624402619
21
-1.4142135624405161
31
0.0
40
0.99878276595874904
41
3.9275998048375595
42
5.4971781511100977
0
LINE
5
232
100
AcDbEntity
8
0
100
AcDbLine
10
40.747249084775333
20
-13.74846744087808
30
0
11
52.652750915005264
21
-13.748467440877777
31
0
0
ELLIPSE
5
233
100
AcDbEntity
8
0
100
AcDbEllipse
10
52.652750914527793
20
-15.747249095188831
30
0
11
-1.4142135625668737
21
1.4142135625662269
31
0.0
40
0.99878276595874071
41
3.92759980917661
42
5.4971781559574282
0
LINE
5
234
100
AcDbEntity
8
0
100
AcDbLine
10
54.651532568828223
20
-15.747249085986443
30
6.9683637003336262e-32
11
54.65153256818985
21
-27.65275091408607
31
1.4405587329932241e-32
0
ELLIPSE
5
235
100
AcDbEntity
8
0
100
AcDbEllipse
10
52.652750914499798
20
-27.652750924205836
30
0
11
1.4142135621178573
21
1.4142135621181975
31
0.0
40
0.9987827659587496
41
3.9275998042334983
42
5.4971781612593871
0
LINE
5
236
100
AcDbEntity
8
0
100
AcDbLine
10
52.652750913821663
20
-4.6515325778843817
30
0
11
40.747249085642927
21
-4.6515325782403325
31
0
0
ELLIPSE
5
237
100
AcDbEntity
8
0
100
AcDbEllipse
10
40.747249085332662
20
-2.6527509243839336
30
0
11
1.414213562244411
21
-1.4142135622439609
31
0.0
40
0.99878276595874149
41
3.9275997999192289
42
5.4971781563516062
0
LINE
5
238
100
AcDbEntity
8
0
100
AcDbLine
10
38.748467431465315
20
-2.6527509150826867
30
-6.9683636343149512e-32
11
38.748467431183585
21
9.2527509151557581
31
1.4535937126502785e-32
0
ELLIPSE
5
239
100
AcDbEntity
8
0
100
AcDbEllipse
10
40.747249085304531
20
9.252750904989238
30
0
11
-1.4142135624402619
21
-1.4142135624405161
31
0.0
40
0.99878276595874904
41
3.9275998048375622
42
5.4971781511100968
0
LINE
5
240
100
AcDbEntity
8
0
100
AcDbLine
10
40.747249084775234
20
11.251532559121927
30
0
11
52.652750915005157
21
11.251532559122229
31
0
0
ELLIPSE
5
241
100
AcDbEntity
8
0
100
AcDbEllipse
10
52.652750914527701
20
9.252750904811176
30
0
11
-1.4142135625668737
21
1.4142135625662269
31
0.0
40
0.99878276595874071
41
3.9275998091766051
42
5.4971781559574362
0
LINE
5
242
100
AcDbEntity
8
0
100
AcDbLine
10
54.651532568828131
20
9.2527509140135624
30
6.9683637003336262e-32
11
54.651532568189751
21
-2.6527509140860595
31
1.4405587329932241e-32
0
ELLIPSE
5
243
100
AcDbEntity
8
0
100
AcDbEllipse
10
52.652750914499691
20
-2.6527509242058316
30
0
11
1.4142135621178573
21
1.4142135621181975
31
0.0
40
0.9987827659587496
41
3.927599804233497
42
5.4971781612593897
0
LINE
5
244
100
AcDbEntity
8
0
100
AcDbLine
10
52.652750913821563
20
20.348467422115625
30
0
11
40.747249085642821
21
20.348467421759672
31
0
0
ELLIPSE
5
245
100
AcDbEntity
8
0
100
AcDbEllipse
10
40.747249085332555
20
22.34724907561607
30
0
11
1.414213562244411
21
-1.4142135622439609
31
0.0
40
0.99878276595874149
41
3.9275997999192294
42
5.4971781563516053
0
LINE
5
246
100
AcDbEntity
8
0
100
AcDbLine
10
38.748467431465208
20
22.347249084917319
30
-6.9683636343149512e-32
11
38.748467431183478
21
34.252750915155765
31
1.4535937126502785e-32
0
ELLIPSE
5
247
100
AcDbEntity
8
0
100
AcDbEllipse
10
40.747249085304425
20
34.252750904989242
30
0
11
-1.4142135624402619
21
-1.4142135624405161
31
0.0
40
0.99878276595874904
41
3.9275998048375649
42
5.4971781511100959
0
LINE
5
248
100
AcDbEntity
8
0
100
AcDbLine
10
40.74724908477512
20
36.251532559121934
30
0
11
52.652750915005051
21
36.251532559122232
31
0
0
ELLIPSE
5
249
100
AcDbEntity
8
0
100
AcDbEllipse
10
52.652750914527587
20
34.25275090481118
30
0
11
-1.4142135625668737
21
1.4142135625662269
31
0.0
40
0.99878276595874071
41
3.9275998091766038
42
5.4971781559574353
0
LINE
5
250
100
AcDbEntity
8
0
100
AcDbLine
10
54.651532568828017
20
34.252750914013568
30
6.9683637003336262e-32
11
54.651532568189644
21
22.347249085913951
31
1.4405587329932241e-32
0
ELLIPSE
5
251
100
AcDbEntity
8
0
100
AcDbEllipse
10
52.652750914499585
20
22.347249075794174
30
0
11
1.4142135621178573
21
1.4142135621181975
31
0.0
40
0.9987827659587496
41
3.927599804233501
42
5.497178161259388
0
LINE
5
252
100
AcDbEntity
8
0
100
AcDbLine
10
77.65275091382189
20
-54.651532577884396
30
0
11
65.747249085643148
21
-54.651532578240342
31
0
0
ELLIPSE
5
253
100
AcDbEntity
8
0
100
AcDbEllipse
10
65.747249085332882
20
-52.652750924383945
30
0
11
1.414213562244411
21
-1.4142135622439609
31
0.0
40
0.99878276595874149
41
3.9275997999192334
42
5.4971781563516018
0
LINE
5
254
100
AcDbEntity
8
0
100
AcDbLine
10
63.748467431465542
20
-52.652750915082706
30
-6.9683636343149512e-32
11
63.748467431183798
21
-40.747249084844256
31
1.4535937126502785e-32
0
ELLIPSE
5
255
100
AcDbEntity
8
0
100
AcDbEllipse
10
65.747249085304745
20
-40.74724909501078
30
0
11
-1.4142135624402619
21
-1.4142135624405161
31
0.0
40
0.99878276595874904
41
3.9275998048375569
42
5.4971781511100923
0
LINE
5
256
100
AcDbEntity
8
0
100
AcDbLine
10
65.747249084775447
20
-38.748467440878088
30
0
11
77.65275091500537
21
-38.748467440877782
31
0
0
ELLIPSE
5
257
100
AcDbEntity
8
0
100
AcDbEllipse
10
77.652750914527914
20
-40.747249095188842
30
0
11
-1.4142135625668737
21
1.4142135625662269
31
0.0
40
0.99878276595874071
41
3.9275998091766113
42
5.4971781559574353
0
LINE
5
258
100
AcDbEntity
8
0
100
AcDbLine
10
79.651532568828344
20
-40.747249085986454
30
6.9683637003336262e-32
11
79.651532568189964
21
-52.65275091408607
31
1.4405587329932241e-32
0
ELLIPSE
5
259
100
AcDbEntity
8
0
100
AcDbEllipse
10
77.652750914499919
20
-52.65275092420584
30
0
11
1.4142135621178573
21
1.4142135621181975
31
0.0
40
0.9987827659587496
41
3.9275998042335023
42
5.4971781612593844
0
LINE
5
260
100
AcDbEntity
8
0
100
AcDbLine
10
77.652750913821777
20
-29.651532577884385
30
0
11
65.747249085643048
21
-29.651532578240335
31
0
0
ELLIPSE
5
261
100
AcDbEntity
8
0
100
AcDbEllipse
10
65.747249085332783
20
-27.652750924383938
30
0
11
1.414213562244411
21
-1.4142135622439609
31
0.0
40
0.99878276595874149
41
3.9275997999192289
42
5.4971781563516107
0
LINE
5
262
100
AcDbEntity
8
0
100
AcDbLine
10
63.748467431465428
20
-27.652750915082688
30
-6.9683636343149512e-32
11
63.748467431183691
21
-15.747249084844245
31
1.4535937126502785e-32
0
ELLIPSE
5
263
100
AcDbEntity
8
0
100
AcDbEllipse
10
65.747249085304645
20
-15.747249095010769
30
0
11
-1.4142135624402619
21
-1.4142135624405161
31
0.0
40
0.99878276595874904
41
3.9275998048375582
42
5.4971781511100941
0
LINE
5
264
100
AcDbEntity
8
0
100
AcDbLine
10
65.747249084775333
20
-13.748467440878082
30
0
11
77.652750915005271
21
-13.748467440877777
31
0
0
ELLIPSE
5
265
100
AcDbEntity
8
0
100
AcDbEllipse
10
77.6527509145278
20
-15.747249095188831
30
0
11
-1.4142135625668737
21
1.4142135625662269
31
0.0
40
0.99878276595874071
41
3.9275998091766087
42
5.49717815595743
0
LINE
5
266
100
AcDbEntity
8
0
100
AcDbLine
10
79.65153256882823
20
-15.747249085986443
30
6.9683637003336262e-32
11
79.65153256818985
21
-27.65275091408607
31
1.4405587329932241e-32
0
ELLIPSE
5
267
100
AcDbEntity
8
0
100
AcDbEllipse
10
77.652750914499805
20
-27.652750924205836
30
0
11
1.4142135621178573
21
1.4142135621181975
31
0.0
40
0.9987827659587496
41
3.9275998042334948
42
5.4971781612593871
0
LINE
5
268
100
AcDbEntity
8
0
100
AcDbLine
10
77.652750913821677
20
-4.6515325778843817
30
0
11
65.747249085642935
21
-4.6515325782403325
31
0
0
ELLIPSE
5
269
100
AcDbEntity
8
0
100
AcDbEllipse
10
65.747249085332669
20
-2.6527509243839336
30
0
11
1.414213562244411
21
-1.4142135622439609
31
0.0
40
0.99878276595874149
41
3.9275997999192263
42
5.4971781563516062
0
LINE
5
270
100
AcDbEntity
8
0
100
AcDbLine
10
63.748467431465329
20
-2.6527509150826867
30
-6.9683636343149512e-32
11
63.748467431183585
21
9.2527509151557581
31
1.4535937126502785e-32
0
ELLIPSE
5
271
100
AcDbEntity
8
0
100
AcDbEllipse
10
65.747249085304546
20
9.252750904989238
30
0
11
-1.4142135624402619
21
-1.4142135624405161
31
0.0
40
0.99878276595874904
41
3.9275998048375684
42
5.4971781511100986
0
LINE
5
272
100
AcDbEntity
8
0
100
AcDbLine
10
65.747249084775234
20
11.251532559121923
30
0
11
77.652750915005157
21
11.251532559122229
31
0
0
ELLIPSE
5
273
100
AcDbEntity
8
0
100
AcDbEllipse
10
77.652750914527701
20
9.252750904811176
30
0
11
-1.4142135625668737
21
1.4142135625662269
31
0.0
40
0.99878276595874071
41
3.9275998091766064
42
5.4971781559574371
0
LINE
5
274
100
AcDbEntity
8
0
100
AcDbLine
10
79.651532568828131
20
9.2527509140135624
30
6.9683637003336262e-32
11
79.651532568189765
21
-2.6527509140860595
31
1.4405587329932241e-32
0
ELLIPSE
5
275
100
AcDbEntity
8
0
100
AcDbEllipse
10
77.652750914499705
20
-2.6527509242058316
30
0
11
1.4142135621178573
21
1.4142135621181975
31
0.0
40
0.9987827659587496
41
3.9275998042334996
42
5.4971781612593897
0
LINE
5
276
100
AcDbEntity
8
0
100
AcDbLine
10
77.652750913821563
20
20.348467422115625
30
0
11
65.747249085642835
21
20.348467421759672
31
0
0
ELLIPSE
5
277
100
AcDbEntity
8
0
100
AcDbEllipse
10
65.74724908533257
20
22.34724907561607
30
0
11
1.414213562244411
21
-1.4142135622439609
31
0.0
40
0.99878276595874149
41
3.9275997999192289
42
5.4971781563516036
0
LINE
5
278
100
AcDbEntity
8
0
100
AcDbLine
10
63.748467431465215
20
22.347249084917319
30
-6.9683636343149512e-32
11
63.748467431183478
21
34.252750915155765
31
1.4535937126502785e-32
0
ELLIPSE
5
279
100
AcDbEntity
8
0
100
AcDbEllipse
10
65.747249085304432
20
34.252750904989242
30
0
11
-1.4142135624402619
21
-1.4142135624405161
31
0.0
40
0.99878276595874904
41
3.9275998048375609
42
5.497178151110095
0
LINE
5
280
100
AcDbEntity
8
0
100
AcDbLine
10
65.747249084775135
20
36.251532559121927
30
0
11
77.652750915005058
21
36.251532559122232
31
0
0
ELLIPSE
5
281
100
AcDbEntity
8
0
100
AcDbEllipse
10
77.652750914527601
20
34.25275090481118
30
0
11
-1.4142135625668737
21
1.4142135625662269
31
0.0
40
0.99878276595874071
41
3.9275998091766127
42
5.4971781559574309
0
LINE
5
282
100
AcDbEntity
8
0
100
AcDbLine
10
79.651532568828031
20
34.252750914013568
30
6.9683637003336262e-32
11
79.651532568189651
21
22.347249085913951
31
1.4405587329932241e-32
0
ELLIPSE
5
283
100
AcDbEntity
8
0
100
AcDbEllipse
10
77.652750914499592
20
22.347249075794174
30
0
11
1.4142135621178573
21
1.4142135621181975
31
0.0
40
0.9987827659587496
41
3.9275998042335023
42
5.4971781612593897
0
LINE
5
284
100
AcDbEntity
8
0
100
AcDbLine
10
4.65153256882801
20
34.252783492200251
30
0
11
4.6515325686162026
21
22.347281664100631
31
8.3684368795127253e-33
0
ELLIPSE
5
285
100
AcDbEntity
8
0
100
AcDbEllipse
10
2.6527509144995811
20
22.347281653980858
30
0
11
1.4142135621178573
21
1.4142135621181975
31
0.0
40
0.9987827659587496
41
3.9275998042334952
42
5.4971781612593871
0
LINE
5
286
100
AcDbEntity
8
0
100
AcDbLine
10
2.6527509138215493
20
20.348500000302309
30
-6.9683636684494925e-32
11
-9.252750914357188
21
20.348499999946359
31
0
0
ELLIPSE
5
287
100
AcDbEntity
8
0
100
AcDbEllipse
10
-9.2527509146674571
20
22.347281653802757
30
0
11
1.414213562244411
21
-1.4142135622439609
31
0.0
40
0.99878276595874149
41
3.9275997999192271
42
5.4971781563516071
0
LINE
5
288
100
AcDbEntity
8
0
100
AcDbLine
10
-11.251532568534808
20
22.347281663104006
30
-6.9683636343149446e-32
11
-11.25153256881654
21
34.252783493342456
31
1.4535937126502785e-32
0
ELLIPSE
5
289
100
AcDbEntity
8
0
100
AcDbEllipse
10
-9.2527509146955911
20
34.252783483175932
30
0
11
-1.4142135624402619
21
-1.4142135624405161
31
0.0
40
0.99878276595874915
41
3.9275998048375547
42
5.4971781511100914
0
LINE
5
290
100
AcDbEntity
8
0
100
AcDbLine
10
-9.2527509152248815
20
36.251565137308617
30
6.9683636658234559e-32
11
2.6527509150050363
21
36.251565137412605
31
0
0
ELLIPSE
5
291
100
AcDbEntity
8
0
100
AcDbEllipse
10
2.6527509145275796
20
34.25278348299787
30
0
11
-1.4142135625668737
21
1.4142135625662269
31
0.0
40
0.99878276595874071
41
3.9275998091766087
42
5.4971781559574326
0
CIRCLE
5
292
100
AcDbEntity
8
0
100
AcDbCircle
10
0.19999999999998924
20
45.300000000000153
30
0
40
1.5999999999999945
210
2.6677135174882986e-63
220
-1.3526914566724022e-32
230
1
0
LWPOLYLINE
5
293
100
AcDbEntity
8
0
100
AcDbPolyline
90
8
70
1
43
0.0
10
15.220000000001159
20
-16.350000000000012
10
28.120000000001156
20
-16.350000000000016
42
0.4142135623730937
10
29.120000000001156
20
-15.350000000000016
10
29.120000000001106
20
-3.1500000000000146
42
0.41421356237309648
10
28.120000000001106
20
-2.1500000000000092
10
15.220000000001093
20
-2.1500000000000083
42
0.41421356237309298
10
14.2200000000011
20
-3.1500000000000106
10
14.220000000001153
20
-15.350000000000009
42
0.4142135623730977
0
CIRCLE
5
294
100
AcDbEntity
8
0
100
AcDbCircle
10
0.20000000000052714
20
-82.199999999999875
30
0
40
1.5999999999999945
210
2.6677135174882986e-63
220
-1.3526914566724022e-32
230
1
0
CIRCLE
5
295
100
AcDbEntity
8
0
100
AcDbCircle
10
88.200000000000017
20
45.300000000000153
30
0
40
1.6000000000000016
210
-4.9303806576313238e-32
220
-1.3526914566729485e-32
230
1
0
CIRCLE
5
296
100
AcDbEntity
8
0
100
AcDbCircle
10
-87.800000000000026
20
45.300000000000153
30
0
40
1.6000000000000016
210
-4.9303806576313238e-32
220
-1.3526914566729485e-32
230
1
0
CIRCLE
5
297
100
AcDbEntity
8
0
100
AcDbCircle
10
-87.799999999999471
20
-82.199999999999875
30
0
40
1.6000000000000016
210
-4.9303806576313238e-32
220
-1.3526914566729485e-32
230
1
0
CIRCLE
5
298
100
AcDbEntity
8
0
100
AcDbCircle
10
88.200000000000571
20
-82.199999999999875
30
0
40
1.6000000000000016
210
-4.9303806576313238e-32
220
-1.3526914566729485e-32
230
1
0
LWPOLYLINE
5
299
100
AcDbEntity
8
0
100
AcDbPolyline
90
8
70
1
43
0.0
10
-54.999999999999858
20
64.700000000000102
10
55.000000000000156
20
64.700000000000102
42
0.41421356237309509
10
56.000000000000156
20
65.700000000000088
10
56.000000000000149
20
67.700000000000088
42
0.41421356237310542
10
55.000000000000114
20
68.700000000000102
10
-54.999999999999886
20
68.700000000000102
42
0.41421356237309509
10
-55.999999999999879
20
67.700000000000102
10
-55.999999999999872
20
65.700000000000102
42
0.41421356237310281
0
CIRCLE
5
300
100
AcDbEntity
8
0
100
AcDbCircle
10
-60.000000000000064
20
66.700000000000117
30
0
40
1.1000000000000034
210
-4.9303806576313249e-32
220
-1.0025223758754828e-32
230
1
0
CIRCLE
5
301
100
AcDbEntity
8
0
100
AcDbCircle
10
59.999999999999964
20
66.700000000000117
30
0
40
1.1000000000000034
210
-4.9303806576313249e-32
220
-1.0025223758754828e-32
230
1
0
LWPOLYLINE
5
302
100
AcDbEntity
8
0
100
AcDbPolyline
90
8
70
1
43
0.0
10
-98.289999999996013
20
-96.29000000000002
42
-0.41421356237308465
10
-101.28999999999606
20
-93.290000000000077
10
-101.29000000000116
20
93.289999999999964
42
-0.41421356237309509
10
-98.290000000001143
20
96.290000000000035
10
98.289999999998727
20
96.289999999999992
42
-0.41421356237309681
10
101.28999999999877
20
93.289999999999949
10
101.28999999999765
20
-93.290000000000063
42
-0.4142135623730881
10
98.289999999997676
20
-96.29000000000002
0
LWPOLYLINE
5
303
100
AcDbEntity
8
0
100
AcDbPolyline
90
4
70
1
43
0.0
10
-71.250000000000114
20
92.500000000000028
10
-71.249999999999346
20
88.700000000000131
10
-26.250000000000121
20
88.700000000000131
10
-26.250000000000124
20
92.500000000000142
0
LWPOLYLINE
5
304
100
AcDbEntity
8
0
100
AcDbPolyline
90
4
70
1
43
0.0
10
22.499999999999979
20
92.500000000000142
10
-22.500000000000032
20
92.500000000000114
10
-22.500000000000014
20
88.700000000000159
10
22.499999999999996
20
88.700000000000131
0
CIRCLE
5
305
100
AcDbEntity
8
0
100
AcDbCircle
10
95.949999999998482
20
90.950000000000117
30
0
40
1.5499999999999938
210
4.9303806576313238e-32
220
-1.7254520910698522e-32
230
1
0
CIRCLE
5
306
100
AcDbEntity
8
0
100
AcDbCircle
10
95.949999999999278
20
-90.949999999999932
30
0
40
1.5499999999999938
210
4.9303806576313238e-32
220
-1.7254520910698522e-32
230
1
0
CIRCLE
5
307
100
AcDbEntity
8
0
100
AcDbCircle
10
-95.949999999999505
20
-90.949999999999932
30
0
40
1.5500000000000116
210
3.4028542461946894e-63
220
-1.7254520910711517e-32
230
1
0
CIRCLE
5
308
100
AcDbEntity
8
0
100
AcDbCircle
10
-95.95000000000033
20
90.950000000000117
30
0
40
1.5499999999999938
210
4.9303806576313238e-32
220
-1.7254520910698522e-32
230
1
0
LWPOLYLINE
5
309
100
AcDbEntity
8
0
100
AcDbPolyline
90
4
70
1
43
0.0
10
22.50000000000076
20
-88.699999999999918
10
-22.49999999999925
20
-88.699999999999918
10
-22.49999999999924
20
-92.499999999999872
10
22.500000000000778
20
-92.499999999999943
0
LWPOLYLINE
5
310
100
AcDbEntity
8
0
100
AcDbPolyline
90
4
70
1
43
0.0
10
97.49999999999973
20
7.7083333333346715
10
97.499999999998934
20
53.958333333334693
10
93.699999999999051
20
53.95833333333465
10
93.699999999999747
20
7.70833333333462
0
LWPOLYLINE
5
311
100
AcDbEntity
8
0
100
AcDbPolyline
90
4
70
1
43
0.0
10
-97.500000000000483
20
53.958333333333435
10
-97.500000000000298
20
7.7083333333334298
10
-93.700000000000301
20
7.7083333333334281
10
-93.700000000000614
20
53.958333333333435
0
LWPOLYLINE
5
312
100
AcDbEntity
8
0
100
AcDbPolyline
90
4
70
1
43
0.0
10
-26.249999999999361
20
-88.699999999999918
10
-71.249999999998565
20
-88.699999999999918
10
-71.249999999999304
20
-92.499999999999801
10
-26.249999999999321
20
-92.499999999999915
0
LWPOLYLINE
5
313
100
AcDbEntity
8
0
100
AcDbPolyline
90
4
70
1
43
0.0
10
-93.700000000000159
20
-53.958333333333243
10
-93.700000000000216
20
-7.7083333333332344
10
-97.500000000000227
20
-7.7083333333332327
10
-97.500000000000028
20
-53.958333333333243
0
LWPOLYLINE
5
314
100
AcDbEntity
8
0
100
AcDbPolyline
90
4
70
1
43
0.0
10
71.249999999999275
20
88.699999999999221
10
71.250000000000085
20
92.499999999999133
10
26.250000000000068
20
92.499999999999773
10
26.250000000000053
20
88.699999999999747
0
LWPOLYLINE
5
315
100
AcDbEntity
8
0
100
AcDbPolyline
90
4
70
1
43
0.0
10
71.250000000000028
20
-88.699999999998994
10
26.250000000000831
20
-88.699999999999534
10
26.250000000000888
20
-92.499999999999517
10
71.250000000000867
20
-92.499999999998877
0
LWPOLYLINE
5
316
100
AcDbEntity
8
0
100
AcDbPolyline
90
4
70
1
43
0.0
10
93.700000000000927
20
-53.958333333332035
10
97.500000000000824
20
-53.958333333331979
10
97.499999999999986
20
-7.7083333333320088
10
93.699999999999989
20
-7.7083333333320425
0
ENDSEC
0
SECTION
2
OBJECTS
0
DICTIONARY
5
C
100
AcDbDictionary
3
ACAD_GROUP
350
D
3
ACAD_MLINESTYLE
350
17
0
DICTIONARY
5
D
100
AcDbDictionary
0
DICTIONARY
5
1A
330
C
100
AcDbDictionary
0
DICTIONARY
5
17
100
AcDbDictionary
0
ENDSEC
0
EOF
