%TF.GenerationSoftware,KiCad,Pcbnew,(5.1.7-0-10_14)*%
%TF.CreationDate,2021-09-21T18:25:26-03:00*%
%TF.ProjectId,Faduino-1,46616475-696e-46f2-9d31-2e6b69636164,1*%
%TF.SameCoordinates,Original*%
%TF.FileFunction,Other,User*%
%FSLAX46Y46*%
G04 Gerber Fmt 4.6, Leading zero omitted, Abs format (unit mm)*
G04 Created by KiCad (PCBNEW (5.1.7-0-10_14)) date 2021-09-21 18:25:26*
%MOMM*%
%LPD*%
G01*
G04 APERTURE LIST*
%ADD10C,0.050000*%
G04 APERTURE END LIST*
D10*
%TO.C,dc_motor_conn1*%
X68275000Y-110900000D02*
X64675000Y-110900000D01*
X68275000Y-104750000D02*
X68275000Y-110900000D01*
X64675000Y-104750000D02*
X68275000Y-104750000D01*
X64675000Y-110900000D02*
X64675000Y-104750000D01*
%TO.C,Extra_pins1*%
X178790000Y-65960000D02*
X178790000Y-82210000D01*
X182340000Y-65960000D02*
X178790000Y-65960000D01*
X182340000Y-82210000D02*
X182340000Y-65960000D01*
X178790000Y-82210000D02*
X182340000Y-82210000D01*
%TO.C,Fader_conn1*%
X64700000Y-91780000D02*
X64700000Y-102980000D01*
X68250000Y-91780000D02*
X64700000Y-91780000D01*
X68250000Y-102980000D02*
X68250000Y-91780000D01*
X64700000Y-102980000D02*
X68250000Y-102980000D01*
%TO.C,H-Bridge1*%
X185220000Y-197080000D02*
X174670000Y-197080000D01*
X185220000Y-176230000D02*
X185220000Y-197080000D01*
X174670000Y-176230000D02*
X185220000Y-176230000D01*
X174670000Y-197080000D02*
X174670000Y-176230000D01*
%TO.C,Power_jack1*%
X141750000Y-29000000D02*
X132250000Y-29000000D01*
X141750000Y-38000000D02*
X141750000Y-29000000D01*
X143750000Y-38000000D02*
X141750000Y-38000000D01*
X143750000Y-42000000D02*
X143750000Y-38000000D01*
X141750000Y-42000000D02*
X143750000Y-42000000D01*
X141750000Y-44000000D02*
X141750000Y-42000000D01*
X139000000Y-44000000D02*
X141750000Y-44000000D01*
X139000000Y-45000000D02*
X139000000Y-44000000D01*
X135000000Y-45000000D02*
X139000000Y-45000000D01*
X135000000Y-44000000D02*
X135000000Y-45000000D01*
X132500000Y-44000000D02*
X135000000Y-44000000D01*
X132250000Y-44000000D02*
X132250000Y-29000000D01*
X132500000Y-44000000D02*
X132250000Y-44000000D01*
%TD*%
M02*
