%TF.GenerationSoftware,KiCad,Pcbnew,(5.1.7-0-10_14)*%
%TF.CreationDate,2021-09-21T18:25:26-03:00*%
%TF.ProjectId,Faduino-1,46616475-696e-46f2-9d31-2e6b69636164,1*%
%TF.SameCoordinates,Original*%
%TF.FileFunction,Other,User*%
%FSLAX46Y46*%
G04 Gerber Fmt 4.6, Leading zero omitted, Abs format (unit mm)*
G04 Created by KiCad (PCBNEW (5.1.7-0-10_14)) date 2021-09-21 18:25:26*
%MOMM*%
%LPD*%
G01*
G04 APERTURE LIST*
%ADD10C,0.050000*%
%ADD11C,0.120000*%
G04 APERTURE END LIST*
D10*
%TO.C,Mux_2*%
X163500000Y-173250000D02*
X163500000Y-182750000D01*
X172500000Y-173250000D02*
X172500000Y-182750000D01*
X172500000Y-182750000D02*
X163500000Y-182750000D01*
X172500000Y-173250000D02*
X163500000Y-173250000D01*
%TO.C,Mux_1*%
X163500000Y-83250000D02*
X163500000Y-92750000D01*
X172500000Y-83250000D02*
X172500000Y-92750000D01*
X172500000Y-92750000D02*
X163500000Y-92750000D01*
X172500000Y-83250000D02*
X163500000Y-83250000D01*
%TO.C,C6*%
X102090000Y-85370000D02*
X99130000Y-85370000D01*
X102090000Y-83910000D02*
X102090000Y-85370000D01*
X99130000Y-83910000D02*
X102090000Y-83910000D01*
X99130000Y-85370000D02*
X99130000Y-83910000D01*
%TO.C,C5*%
X73630000Y-83910000D02*
X76590000Y-83910000D01*
X73630000Y-85370000D02*
X73630000Y-83910000D01*
X76590000Y-85370000D02*
X73630000Y-85370000D01*
X76590000Y-83910000D02*
X76590000Y-85370000D01*
%TO.C,C8*%
X152090000Y-85370000D02*
X149130000Y-85370000D01*
X152090000Y-83910000D02*
X152090000Y-85370000D01*
X149130000Y-83910000D02*
X152090000Y-83910000D01*
X149130000Y-85370000D02*
X149130000Y-83910000D01*
%TO.C,C7*%
X127090000Y-85370000D02*
X124130000Y-85370000D01*
X127090000Y-83910000D02*
X127090000Y-85370000D01*
X124130000Y-83910000D02*
X127090000Y-83910000D01*
X124130000Y-85370000D02*
X124130000Y-83910000D01*
%TO.C,C_mux_1*%
X171270000Y-96480000D02*
X171270000Y-93520000D01*
X172730000Y-96480000D02*
X171270000Y-96480000D01*
X172730000Y-93520000D02*
X172730000Y-96480000D01*
X171270000Y-93520000D02*
X172730000Y-93520000D01*
%TO.C,C_mux_2*%
X171270000Y-186480000D02*
X171270000Y-183520000D01*
X172730000Y-186480000D02*
X171270000Y-186480000D01*
X172730000Y-183520000D02*
X172730000Y-186480000D01*
X171270000Y-183520000D02*
X172730000Y-183520000D01*
%TO.C,C_pwr_1*%
X104520000Y-30770000D02*
X107480000Y-30770000D01*
X104520000Y-32230000D02*
X104520000Y-30770000D01*
X107480000Y-32230000D02*
X104520000Y-32230000D01*
X107480000Y-30770000D02*
X107480000Y-32230000D01*
%TO.C,C_pwr_2*%
X104020000Y-35270000D02*
X106980000Y-35270000D01*
X104020000Y-36730000D02*
X104020000Y-35270000D01*
X106980000Y-36730000D02*
X104020000Y-36730000D01*
X106980000Y-35270000D02*
X106980000Y-36730000D01*
%TO.C,C1*%
X76480000Y-61230000D02*
X73520000Y-61230000D01*
X76480000Y-59770000D02*
X76480000Y-61230000D01*
X73520000Y-59770000D02*
X76480000Y-59770000D01*
X73520000Y-61230000D02*
X73520000Y-59770000D01*
%TO.C,C13*%
X126760000Y-135930000D02*
X123800000Y-135930000D01*
X126760000Y-134470000D02*
X126760000Y-135930000D01*
X123800000Y-134470000D02*
X126760000Y-134470000D01*
X123800000Y-135930000D02*
X123800000Y-134470000D01*
%TO.C,C2*%
X101480000Y-61230000D02*
X98520000Y-61230000D01*
X101480000Y-59770000D02*
X101480000Y-61230000D01*
X98520000Y-59770000D02*
X101480000Y-59770000D01*
X98520000Y-61230000D02*
X98520000Y-59770000D01*
%TO.C,C14*%
X152260000Y-135430000D02*
X149300000Y-135430000D01*
X152260000Y-133970000D02*
X152260000Y-135430000D01*
X149300000Y-133970000D02*
X152260000Y-133970000D01*
X149300000Y-135430000D02*
X149300000Y-133970000D01*
%TO.C,C3*%
X126705000Y-61230000D02*
X123745000Y-61230000D01*
X126705000Y-59770000D02*
X126705000Y-61230000D01*
X123745000Y-59770000D02*
X126705000Y-59770000D01*
X123745000Y-61230000D02*
X123745000Y-59770000D01*
%TO.C,C15*%
X76350000Y-160570000D02*
X73390000Y-160570000D01*
X76350000Y-159110000D02*
X76350000Y-160570000D01*
X73390000Y-159110000D02*
X76350000Y-159110000D01*
X73390000Y-160570000D02*
X73390000Y-159110000D01*
%TO.C,C4*%
X149020000Y-59770000D02*
X151980000Y-59770000D01*
X149020000Y-61230000D02*
X149020000Y-59770000D01*
X151980000Y-61230000D02*
X149020000Y-61230000D01*
X151980000Y-59770000D02*
X151980000Y-61230000D01*
%TO.C,C16*%
X101350000Y-160570000D02*
X98390000Y-160570000D01*
X101350000Y-159110000D02*
X101350000Y-160570000D01*
X98390000Y-159110000D02*
X101350000Y-159110000D01*
X98390000Y-160570000D02*
X98390000Y-159110000D01*
%TO.C,C17*%
X126850000Y-160570000D02*
X123890000Y-160570000D01*
X126850000Y-159110000D02*
X126850000Y-160570000D01*
X123890000Y-159110000D02*
X126850000Y-159110000D01*
X123890000Y-160570000D02*
X123890000Y-159110000D01*
%TO.C,C18*%
X151850000Y-160570000D02*
X148890000Y-160570000D01*
X151850000Y-159110000D02*
X151850000Y-160570000D01*
X148890000Y-159110000D02*
X151850000Y-159110000D01*
X148890000Y-160570000D02*
X148890000Y-159110000D01*
%TO.C,C19*%
X76480000Y-185290000D02*
X73520000Y-185290000D01*
X76480000Y-183830000D02*
X76480000Y-185290000D01*
X73520000Y-183830000D02*
X76480000Y-183830000D01*
X73520000Y-185290000D02*
X73520000Y-183830000D01*
%TO.C,C20*%
X101480000Y-185790000D02*
X98520000Y-185790000D01*
X101480000Y-184330000D02*
X101480000Y-185790000D01*
X98520000Y-184330000D02*
X101480000Y-184330000D01*
X98520000Y-185790000D02*
X98520000Y-184330000D01*
%TO.C,C9*%
X151640000Y-185270000D02*
X148680000Y-185270000D01*
X151640000Y-183810000D02*
X151640000Y-185270000D01*
X148680000Y-183810000D02*
X151640000Y-183810000D01*
X148680000Y-185270000D02*
X148680000Y-183810000D01*
%TO.C,C21*%
X126480000Y-185290000D02*
X123520000Y-185290000D01*
X126480000Y-183830000D02*
X126480000Y-185290000D01*
X123520000Y-183830000D02*
X126480000Y-183830000D01*
X123520000Y-185290000D02*
X123520000Y-183830000D01*
%TO.C,C10*%
X151480000Y-210760000D02*
X148520000Y-210760000D01*
X151480000Y-209300000D02*
X151480000Y-210760000D01*
X148520000Y-209300000D02*
X151480000Y-209300000D01*
X148520000Y-210760000D02*
X148520000Y-209300000D01*
%TO.C,C22*%
X76380000Y-210760000D02*
X73420000Y-210760000D01*
X76380000Y-209300000D02*
X76380000Y-210760000D01*
X73420000Y-209300000D02*
X76380000Y-209300000D01*
X73420000Y-210760000D02*
X73420000Y-209300000D01*
%TO.C,C11*%
X76760000Y-135930000D02*
X73800000Y-135930000D01*
X76760000Y-134470000D02*
X76760000Y-135930000D01*
X73800000Y-134470000D02*
X76760000Y-134470000D01*
X73800000Y-135930000D02*
X73800000Y-134470000D01*
%TO.C,C23*%
X101380000Y-210760000D02*
X98420000Y-210760000D01*
X101380000Y-209300000D02*
X101380000Y-210760000D01*
X98420000Y-209300000D02*
X101380000Y-209300000D01*
X98420000Y-210760000D02*
X98420000Y-209300000D01*
%TO.C,C12*%
X101760000Y-135930000D02*
X98800000Y-135930000D01*
X101760000Y-134470000D02*
X101760000Y-135930000D01*
X98800000Y-134470000D02*
X101760000Y-134470000D01*
X98800000Y-135930000D02*
X98800000Y-134470000D01*
%TO.C,C24*%
X126880000Y-210760000D02*
X123920000Y-210760000D01*
X126880000Y-209300000D02*
X126880000Y-210760000D01*
X123920000Y-209300000D02*
X126880000Y-209300000D01*
X123920000Y-210760000D02*
X123920000Y-209300000D01*
%TO.C,C_enc_1*%
X100570000Y-111880000D02*
X100570000Y-108920000D01*
X102030000Y-111880000D02*
X100570000Y-111880000D01*
X102030000Y-108920000D02*
X102030000Y-111880000D01*
X100570000Y-108920000D02*
X102030000Y-108920000D01*
%TO.C,C_enc_2*%
X124770000Y-111780000D02*
X124770000Y-108820000D01*
X126230000Y-111780000D02*
X124770000Y-111780000D01*
X126230000Y-108820000D02*
X126230000Y-111780000D01*
X124770000Y-108820000D02*
X126230000Y-108820000D01*
D11*
%TO.C,D2*%
X101740000Y-48260000D02*
X98260000Y-48260000D01*
X101740000Y-51740000D02*
X98260000Y-51740000D01*
X101740000Y-48260000D02*
X101740000Y-51740000D01*
X98260000Y-51740000D02*
X98260000Y-48260000D01*
%TO.C,D3*%
X126740000Y-48260000D02*
X123260000Y-48260000D01*
X126740000Y-51740000D02*
X123260000Y-51740000D01*
X126740000Y-48260000D02*
X126740000Y-51740000D01*
X123260000Y-51740000D02*
X123260000Y-48260000D01*
%TO.C,D4*%
X151740000Y-48260000D02*
X148260000Y-48260000D01*
X151740000Y-51740000D02*
X148260000Y-51740000D01*
X151740000Y-48260000D02*
X151740000Y-51740000D01*
X148260000Y-51740000D02*
X148260000Y-48260000D01*
%TO.C,D5*%
X76740000Y-73260000D02*
X73260000Y-73260000D01*
X76740000Y-76740000D02*
X73260000Y-76740000D01*
X76740000Y-73260000D02*
X76740000Y-76740000D01*
X73260000Y-76740000D02*
X73260000Y-73260000D01*
%TO.C,D6*%
X101740000Y-73260000D02*
X98260000Y-73260000D01*
X101740000Y-76740000D02*
X98260000Y-76740000D01*
X101740000Y-73260000D02*
X101740000Y-76740000D01*
X98260000Y-76740000D02*
X98260000Y-73260000D01*
%TO.C,D7*%
X126740000Y-73260000D02*
X123260000Y-73260000D01*
X126740000Y-76740000D02*
X123260000Y-76740000D01*
X126740000Y-73260000D02*
X126740000Y-76740000D01*
X123260000Y-76740000D02*
X123260000Y-73260000D01*
%TO.C,D8*%
X151740000Y-73260000D02*
X148260000Y-73260000D01*
X151740000Y-76740000D02*
X148260000Y-76740000D01*
X151740000Y-73260000D02*
X151740000Y-76740000D01*
X148260000Y-76740000D02*
X148260000Y-73260000D01*
%TO.C,D9*%
X151740000Y-173260000D02*
X148260000Y-173260000D01*
X151740000Y-176740000D02*
X148260000Y-176740000D01*
X151740000Y-173260000D02*
X151740000Y-176740000D01*
X148260000Y-176740000D02*
X148260000Y-173260000D01*
%TO.C,D10*%
X151740000Y-198260000D02*
X148260000Y-198260000D01*
X151740000Y-201740000D02*
X148260000Y-201740000D01*
X151740000Y-198260000D02*
X151740000Y-201740000D01*
X148260000Y-201740000D02*
X148260000Y-198260000D01*
%TO.C,D11*%
X76740000Y-123260000D02*
X73260000Y-123260000D01*
X76740000Y-126740000D02*
X73260000Y-126740000D01*
X76740000Y-123260000D02*
X76740000Y-126740000D01*
X73260000Y-126740000D02*
X73260000Y-123260000D01*
%TO.C,D12*%
X101740000Y-123260000D02*
X98260000Y-123260000D01*
X101740000Y-126740000D02*
X98260000Y-126740000D01*
X101740000Y-123260000D02*
X101740000Y-126740000D01*
X98260000Y-126740000D02*
X98260000Y-123260000D01*
%TO.C,D13*%
X126740000Y-123260000D02*
X123260000Y-123260000D01*
X126740000Y-126740000D02*
X123260000Y-126740000D01*
X126740000Y-123260000D02*
X126740000Y-126740000D01*
X123260000Y-126740000D02*
X123260000Y-123260000D01*
%TO.C,D14*%
X151740000Y-123260000D02*
X148260000Y-123260000D01*
X151740000Y-126740000D02*
X148260000Y-126740000D01*
X151740000Y-123260000D02*
X151740000Y-126740000D01*
X148260000Y-126740000D02*
X148260000Y-123260000D01*
%TO.C,D15*%
X76740000Y-148260000D02*
X73260000Y-148260000D01*
X76740000Y-151740000D02*
X73260000Y-151740000D01*
X76740000Y-148260000D02*
X76740000Y-151740000D01*
X73260000Y-151740000D02*
X73260000Y-148260000D01*
%TO.C,D16*%
X101740000Y-148260000D02*
X98260000Y-148260000D01*
X101740000Y-151740000D02*
X98260000Y-151740000D01*
X101740000Y-148260000D02*
X101740000Y-151740000D01*
X98260000Y-151740000D02*
X98260000Y-148260000D01*
%TO.C,D17*%
X126740000Y-148260000D02*
X123260000Y-148260000D01*
X126740000Y-151740000D02*
X123260000Y-151740000D01*
X126740000Y-148260000D02*
X126740000Y-151740000D01*
X123260000Y-151740000D02*
X123260000Y-148260000D01*
%TO.C,D18*%
X151740000Y-148260000D02*
X148260000Y-148260000D01*
X151740000Y-151740000D02*
X148260000Y-151740000D01*
X151740000Y-148260000D02*
X151740000Y-151740000D01*
X148260000Y-151740000D02*
X148260000Y-148260000D01*
%TO.C,D19*%
X76740000Y-173260000D02*
X73260000Y-173260000D01*
X76740000Y-176740000D02*
X73260000Y-176740000D01*
X76740000Y-173260000D02*
X76740000Y-176740000D01*
X73260000Y-176740000D02*
X73260000Y-173260000D01*
%TO.C,D20*%
X101740000Y-173260000D02*
X98260000Y-173260000D01*
X101740000Y-176740000D02*
X98260000Y-176740000D01*
X101740000Y-173260000D02*
X101740000Y-176740000D01*
X98260000Y-176740000D02*
X98260000Y-173260000D01*
%TO.C,D21*%
X126740000Y-173260000D02*
X123260000Y-173260000D01*
X126740000Y-176740000D02*
X123260000Y-176740000D01*
X126740000Y-173260000D02*
X126740000Y-176740000D01*
X123260000Y-176740000D02*
X123260000Y-173260000D01*
%TO.C,D22*%
X76740000Y-198260000D02*
X73260000Y-198260000D01*
X76740000Y-201740000D02*
X73260000Y-201740000D01*
X76740000Y-198260000D02*
X76740000Y-201740000D01*
X73260000Y-201740000D02*
X73260000Y-198260000D01*
%TO.C,D23*%
X101740000Y-198260000D02*
X98260000Y-198260000D01*
X101740000Y-201740000D02*
X98260000Y-201740000D01*
X101740000Y-198260000D02*
X101740000Y-201740000D01*
X98260000Y-201740000D02*
X98260000Y-198260000D01*
%TO.C,D24*%
X126740000Y-198260000D02*
X123260000Y-198260000D01*
X126740000Y-201740000D02*
X123260000Y-201740000D01*
X126740000Y-198260000D02*
X126740000Y-201740000D01*
X123260000Y-201740000D02*
X123260000Y-198260000D01*
%TO.C,D_1*%
X76740000Y-48260000D02*
X73260000Y-48260000D01*
X76740000Y-51740000D02*
X73260000Y-51740000D01*
X76740000Y-48260000D02*
X76740000Y-51740000D01*
X73260000Y-51740000D02*
X73260000Y-48260000D01*
D10*
%TO.C,Diode1*%
X120500000Y-36750000D02*
X120500000Y-33250000D01*
X129500000Y-36750000D02*
X120500000Y-36750000D01*
X129500000Y-33250000D02*
X129500000Y-36750000D01*
X120500000Y-33250000D02*
X129500000Y-33250000D01*
%TO.C,Encoder1*%
X104850000Y-109030000D02*
X104850000Y-91530000D01*
X104850000Y-109030000D02*
X120250000Y-109030000D01*
X120250000Y-91530000D02*
X104850000Y-91530000D01*
X120250000Y-91530000D02*
X120250000Y-109030000D01*
%TO.C,R1*%
X166870000Y-62220000D02*
X166870000Y-59260000D01*
X168330000Y-62220000D02*
X166870000Y-62220000D01*
X168330000Y-59260000D02*
X168330000Y-62220000D01*
X166870000Y-59260000D02*
X168330000Y-59260000D01*
%TO.C,R2*%
X104280000Y-108970000D02*
X104280000Y-111930000D01*
X102820000Y-108970000D02*
X104280000Y-108970000D01*
X102820000Y-111930000D02*
X102820000Y-108970000D01*
X104280000Y-111930000D02*
X102820000Y-111930000D01*
%TO.C,R3*%
X106420000Y-109180000D02*
X106420000Y-112140000D01*
X104960000Y-109180000D02*
X106420000Y-109180000D01*
X104960000Y-112140000D02*
X104960000Y-109180000D01*
X106420000Y-112140000D02*
X104960000Y-112140000D01*
%TO.C,R4*%
X122730000Y-108820000D02*
X122730000Y-111780000D01*
X121270000Y-108820000D02*
X122730000Y-108820000D01*
X121270000Y-111780000D02*
X121270000Y-108820000D01*
X122730000Y-111780000D02*
X121270000Y-111780000D01*
%TO.C,R5*%
X122970000Y-111780000D02*
X122970000Y-108820000D01*
X124430000Y-111780000D02*
X122970000Y-111780000D01*
X124430000Y-108820000D02*
X124430000Y-111780000D01*
X122970000Y-108820000D02*
X124430000Y-108820000D01*
%TO.C,R19*%
X81890000Y-58390000D02*
X81890000Y-61350000D01*
X80430000Y-58390000D02*
X81890000Y-58390000D01*
X80430000Y-61350000D02*
X80430000Y-58390000D01*
X81890000Y-61350000D02*
X80430000Y-61350000D01*
%TO.C,Tension_reg1*%
X119050000Y-30000000D02*
X107950000Y-30000000D01*
X119050000Y-37000000D02*
X119050000Y-30000000D01*
X107950000Y-37000000D02*
X119050000Y-37000000D01*
X107950000Y-30000000D02*
X107950000Y-37000000D01*
%TD*%
M02*
