%TF.GenerationSoftware,KiCad,Pcbnew,(5.1.7-0-10_14)*%
%TF.CreationDate,2021-09-21T18:25:25-03:00*%
%TF.ProjectId,Faduino-1,46616475-696e-46f2-9d31-2e6b69636164,1*%
%TF.SameCoordinates,Original*%
%TF.FileFunction,Legend,Bot*%
%TF.FilePolarity,Positive*%
%FSLAX46Y46*%
G04 Gerber Fmt 4.6, Leading zero omitted, Abs format (unit mm)*
G04 Created by KiCad (PCBNEW (5.1.7-0-10_14)) date 2021-09-21 18:25:25*
%MOMM*%
%LPD*%
G01*
G04 APERTURE LIST*
%ADD10C,0.150000*%
%ADD11C,0.120000*%
G04 APERTURE END LIST*
D10*
X184609524Y-80285714D02*
X184609524Y-81095238D01*
X184657143Y-81190476D01*
X184704762Y-81238095D01*
X184800000Y-81285714D01*
X184942857Y-81285714D01*
X185038095Y-81238095D01*
X184609524Y-80904761D02*
X184704762Y-80952380D01*
X184895238Y-80952380D01*
X184990476Y-80904761D01*
X185038095Y-80857142D01*
X185085714Y-80761904D01*
X185085714Y-80476190D01*
X185038095Y-80380952D01*
X184990476Y-80333333D01*
X184895238Y-80285714D01*
X184704762Y-80285714D01*
X184609524Y-80333333D01*
X184133333Y-80285714D02*
X184133333Y-80952380D01*
X184133333Y-80380952D02*
X184085714Y-80333333D01*
X183990476Y-80285714D01*
X183847619Y-80285714D01*
X183752381Y-80333333D01*
X183704762Y-80428571D01*
X183704762Y-80952380D01*
X182800000Y-80952380D02*
X182800000Y-79952380D01*
X182800000Y-80904761D02*
X182895238Y-80952380D01*
X183085714Y-80952380D01*
X183180952Y-80904761D01*
X183228571Y-80857142D01*
X183276190Y-80761904D01*
X183276190Y-80476190D01*
X183228571Y-80380952D01*
X183180952Y-80333333D01*
X183085714Y-80285714D01*
X182895238Y-80285714D01*
X182800000Y-80333333D01*
X184895238Y-77585714D02*
X184657142Y-78252380D01*
X184419047Y-77585714D01*
X183609523Y-78204761D02*
X183704761Y-78252380D01*
X183895238Y-78252380D01*
X183990476Y-78204761D01*
X184038095Y-78157142D01*
X184085714Y-78061904D01*
X184085714Y-77776190D01*
X184038095Y-77680952D01*
X183990476Y-77633333D01*
X183895238Y-77585714D01*
X183704761Y-77585714D01*
X183609523Y-77633333D01*
X182752380Y-78204761D02*
X182847619Y-78252380D01*
X183038095Y-78252380D01*
X183133333Y-78204761D01*
X183180952Y-78157142D01*
X183228571Y-78061904D01*
X183228571Y-77776190D01*
X183180952Y-77680952D01*
X183133333Y-77633333D01*
X183038095Y-77585714D01*
X182847619Y-77585714D01*
X182752380Y-77633333D01*
X183847619Y-74985714D02*
X183466666Y-74985714D01*
X183704761Y-74652380D02*
X183704761Y-75509523D01*
X183657142Y-75604761D01*
X183561904Y-75652380D01*
X183466666Y-75652380D01*
X183228571Y-75652380D02*
X182704761Y-74985714D01*
X183228571Y-74985714D02*
X182704761Y-75652380D01*
X183752380Y-73252380D02*
X183752380Y-72585714D01*
X183752380Y-72776190D02*
X183704761Y-72680952D01*
X183657142Y-72633333D01*
X183561904Y-72585714D01*
X183466666Y-72585714D01*
X183228570Y-73252380D02*
X182704761Y-72585714D01*
X183228570Y-72585714D02*
X182704761Y-73252380D01*
X184180952Y-70566666D02*
X183704762Y-70566666D01*
X184276190Y-70852380D02*
X183942857Y-69852380D01*
X183609524Y-70852380D01*
X183371428Y-69852380D02*
X182752381Y-69852380D01*
X183085714Y-70233333D01*
X182942857Y-70233333D01*
X182847619Y-70280952D01*
X182800000Y-70328571D01*
X182752381Y-70423809D01*
X182752381Y-70661904D01*
X182800000Y-70757142D01*
X182847619Y-70804761D01*
X182942857Y-70852380D01*
X183228571Y-70852380D01*
X183323809Y-70804761D01*
X183371428Y-70757142D01*
X184323809Y-68052380D02*
X184323809Y-67385714D01*
X184323809Y-67576190D02*
X184276190Y-67480952D01*
X184228571Y-67433333D01*
X184133333Y-67385714D01*
X184038095Y-67385714D01*
X183752381Y-68004761D02*
X183657143Y-68052380D01*
X183466666Y-68052380D01*
X183371428Y-68004761D01*
X183323809Y-67909523D01*
X183323809Y-67861904D01*
X183371428Y-67766666D01*
X183466666Y-67719047D01*
X183609524Y-67719047D01*
X183704762Y-67671428D01*
X183752381Y-67576190D01*
X183752381Y-67528571D01*
X183704762Y-67433333D01*
X183609524Y-67385714D01*
X183466666Y-67385714D01*
X183371428Y-67433333D01*
X183038095Y-67385714D02*
X182657143Y-67385714D01*
X182895238Y-67052380D02*
X182895238Y-67909523D01*
X182847619Y-68004761D01*
X182752381Y-68052380D01*
X182657143Y-68052380D01*
X71038095Y-109652380D02*
X71038095Y-108652380D01*
X71038095Y-109604761D02*
X71133333Y-109652380D01*
X71323809Y-109652380D01*
X71419047Y-109604761D01*
X71466667Y-109557142D01*
X71514286Y-109461904D01*
X71514286Y-109176190D01*
X71466667Y-109080952D01*
X71419047Y-109033333D01*
X71323809Y-108985714D01*
X71133333Y-108985714D01*
X71038095Y-109033333D01*
X70133333Y-109604761D02*
X70228571Y-109652380D01*
X70419047Y-109652380D01*
X70514286Y-109604761D01*
X70561905Y-109557142D01*
X70609524Y-109461904D01*
X70609524Y-109176190D01*
X70561905Y-109080952D01*
X70514286Y-109033333D01*
X70419047Y-108985714D01*
X70228571Y-108985714D01*
X70133333Y-109033333D01*
X68990476Y-108747619D02*
X68942857Y-108700000D01*
X68847619Y-108652380D01*
X68609524Y-108652380D01*
X68514286Y-108700000D01*
X68466667Y-108747619D01*
X68419047Y-108842857D01*
X68419047Y-108938095D01*
X68466667Y-109080952D01*
X69038095Y-109652380D01*
X68419047Y-109652380D01*
X71038095Y-107052380D02*
X71038095Y-106052380D01*
X71038095Y-107004761D02*
X71133333Y-107052380D01*
X71323809Y-107052380D01*
X71419047Y-107004761D01*
X71466667Y-106957142D01*
X71514286Y-106861904D01*
X71514286Y-106576190D01*
X71466667Y-106480952D01*
X71419047Y-106433333D01*
X71323809Y-106385714D01*
X71133333Y-106385714D01*
X71038095Y-106433333D01*
X70133333Y-107004761D02*
X70228571Y-107052380D01*
X70419047Y-107052380D01*
X70514286Y-107004761D01*
X70561905Y-106957142D01*
X70609524Y-106861904D01*
X70609524Y-106576190D01*
X70561905Y-106480952D01*
X70514286Y-106433333D01*
X70419047Y-106385714D01*
X70228571Y-106385714D01*
X70133333Y-106433333D01*
X68419047Y-107052380D02*
X68990476Y-107052380D01*
X68704762Y-107052380D02*
X68704762Y-106052380D01*
X68800000Y-106195238D01*
X68895238Y-106290476D01*
X68990476Y-106338095D01*
X70657143Y-100985714D02*
X70657143Y-101795238D01*
X70704762Y-101890476D01*
X70752381Y-101938095D01*
X70847619Y-101985714D01*
X70990476Y-101985714D01*
X71085714Y-101938095D01*
X70657143Y-101604761D02*
X70752381Y-101652380D01*
X70942857Y-101652380D01*
X71038095Y-101604761D01*
X71085714Y-101557142D01*
X71133333Y-101461904D01*
X71133333Y-101176190D01*
X71085714Y-101080952D01*
X71038095Y-101033333D01*
X70942857Y-100985714D01*
X70752381Y-100985714D01*
X70657143Y-101033333D01*
X70180952Y-100985714D02*
X70180952Y-101652380D01*
X70180952Y-101080952D02*
X70133333Y-101033333D01*
X70038095Y-100985714D01*
X69895238Y-100985714D01*
X69800000Y-101033333D01*
X69752381Y-101128571D01*
X69752381Y-101652380D01*
X68847619Y-101652380D02*
X68847619Y-100652380D01*
X68847619Y-101604761D02*
X68942857Y-101652380D01*
X69133333Y-101652380D01*
X69228571Y-101604761D01*
X69276190Y-101557142D01*
X69323809Y-101461904D01*
X69323809Y-101176190D01*
X69276190Y-101080952D01*
X69228571Y-101033333D01*
X69133333Y-100985714D01*
X68942857Y-100985714D01*
X68847619Y-101033333D01*
X72657142Y-98385714D02*
X72276190Y-98385714D01*
X72514285Y-98052380D02*
X72514285Y-98909523D01*
X72466666Y-99004761D01*
X72371428Y-99052380D01*
X72276190Y-99052380D01*
X71799999Y-99052380D02*
X71895237Y-99004761D01*
X71942856Y-98957142D01*
X71990475Y-98861904D01*
X71990475Y-98576190D01*
X71942856Y-98480952D01*
X71895237Y-98433333D01*
X71799999Y-98385714D01*
X71657142Y-98385714D01*
X71561904Y-98433333D01*
X71514285Y-98480952D01*
X71466666Y-98576190D01*
X71466666Y-98861904D01*
X71514285Y-98957142D01*
X71561904Y-99004761D01*
X71657142Y-99052380D01*
X71799999Y-99052380D01*
X70609523Y-98385714D02*
X70609523Y-99052380D01*
X71038094Y-98385714D02*
X71038094Y-98909523D01*
X70990475Y-99004761D01*
X70895237Y-99052380D01*
X70752380Y-99052380D01*
X70657142Y-99004761D01*
X70609523Y-98957142D01*
X69704761Y-99004761D02*
X69799999Y-99052380D01*
X69990475Y-99052380D01*
X70085713Y-99004761D01*
X70133332Y-98957142D01*
X70180952Y-98861904D01*
X70180952Y-98576190D01*
X70133332Y-98480952D01*
X70085713Y-98433333D01*
X69990475Y-98385714D01*
X69799999Y-98385714D01*
X69704761Y-98433333D01*
X69276190Y-99052380D02*
X69276190Y-98052380D01*
X68847618Y-99052380D02*
X68847618Y-98528571D01*
X68895237Y-98433333D01*
X68990475Y-98385714D01*
X69133332Y-98385714D01*
X69228571Y-98433333D01*
X69276190Y-98480952D01*
X70942857Y-95685714D02*
X70704761Y-96352380D01*
X70466666Y-95685714D01*
X69657142Y-96304761D02*
X69752380Y-96352380D01*
X69942857Y-96352380D01*
X70038095Y-96304761D01*
X70085714Y-96257142D01*
X70133333Y-96161904D01*
X70133333Y-95876190D01*
X70085714Y-95780952D01*
X70038095Y-95733333D01*
X69942857Y-95685714D01*
X69752380Y-95685714D01*
X69657142Y-95733333D01*
X68799999Y-96304761D02*
X68895238Y-96352380D01*
X69085714Y-96352380D01*
X69180952Y-96304761D01*
X69228571Y-96257142D01*
X69276190Y-96161904D01*
X69276190Y-95876190D01*
X69228571Y-95780952D01*
X69180952Y-95733333D01*
X69085714Y-95685714D01*
X68895238Y-95685714D01*
X68799999Y-95733333D01*
X72371428Y-93485714D02*
X72180952Y-94152380D01*
X71990476Y-93676190D01*
X71800000Y-94152380D01*
X71609524Y-93485714D01*
X71228571Y-94152380D02*
X71228571Y-93485714D01*
X71228571Y-93152380D02*
X71276190Y-93200000D01*
X71228571Y-93247619D01*
X71180952Y-93200000D01*
X71228571Y-93152380D01*
X71228571Y-93247619D01*
X70752381Y-93485714D02*
X70752381Y-94485714D01*
X70752381Y-93533333D02*
X70657143Y-93485714D01*
X70466666Y-93485714D01*
X70371428Y-93533333D01*
X70323809Y-93580952D01*
X70276190Y-93676190D01*
X70276190Y-93961904D01*
X70323809Y-94057142D01*
X70371428Y-94104761D01*
X70466666Y-94152380D01*
X70657143Y-94152380D01*
X70752381Y-94104761D01*
X69466666Y-94104761D02*
X69561905Y-94152380D01*
X69752381Y-94152380D01*
X69847619Y-94104761D01*
X69895238Y-94009523D01*
X69895238Y-93628571D01*
X69847619Y-93533333D01*
X69752381Y-93485714D01*
X69561905Y-93485714D01*
X69466666Y-93533333D01*
X69419047Y-93628571D01*
X69419047Y-93723809D01*
X69895238Y-93819047D01*
X68990476Y-94152380D02*
X68990476Y-93485714D01*
X68990476Y-93676190D02*
X68942857Y-93580952D01*
X68895238Y-93533333D01*
X68800000Y-93485714D01*
X68704762Y-93485714D01*
X63383214Y-194803571D02*
X63716547Y-194803571D01*
X63716547Y-195327380D02*
X63716547Y-194327380D01*
X63240357Y-194327380D01*
X62430833Y-195327380D02*
X62430833Y-194803571D01*
X62478452Y-194708333D01*
X62573690Y-194660714D01*
X62764166Y-194660714D01*
X62859404Y-194708333D01*
X62430833Y-195279761D02*
X62526071Y-195327380D01*
X62764166Y-195327380D01*
X62859404Y-195279761D01*
X62907023Y-195184523D01*
X62907023Y-195089285D01*
X62859404Y-194994047D01*
X62764166Y-194946428D01*
X62526071Y-194946428D01*
X62430833Y-194898809D01*
X61526071Y-195327380D02*
X61526071Y-194327380D01*
X61526071Y-195279761D02*
X61621309Y-195327380D01*
X61811785Y-195327380D01*
X61907023Y-195279761D01*
X61954642Y-195232142D01*
X62002261Y-195136904D01*
X62002261Y-194851190D01*
X61954642Y-194755952D01*
X61907023Y-194708333D01*
X61811785Y-194660714D01*
X61621309Y-194660714D01*
X61526071Y-194708333D01*
X60621309Y-194660714D02*
X60621309Y-195327380D01*
X61049880Y-194660714D02*
X61049880Y-195184523D01*
X61002261Y-195279761D01*
X60907023Y-195327380D01*
X60764166Y-195327380D01*
X60668928Y-195279761D01*
X60621309Y-195232142D01*
X60145119Y-195327380D02*
X60145119Y-194660714D01*
X60145119Y-194327380D02*
X60192738Y-194375000D01*
X60145119Y-194422619D01*
X60097500Y-194375000D01*
X60145119Y-194327380D01*
X60145119Y-194422619D01*
X59668928Y-194660714D02*
X59668928Y-195327380D01*
X59668928Y-194755952D02*
X59621309Y-194708333D01*
X59526071Y-194660714D01*
X59383214Y-194660714D01*
X59287976Y-194708333D01*
X59240357Y-194803571D01*
X59240357Y-195327380D01*
X58621309Y-195327380D02*
X58716547Y-195279761D01*
X58764166Y-195232142D01*
X58811785Y-195136904D01*
X58811785Y-194851190D01*
X58764166Y-194755952D01*
X58716547Y-194708333D01*
X58621309Y-194660714D01*
X58478452Y-194660714D01*
X58383214Y-194708333D01*
X58335595Y-194755952D01*
X58287976Y-194851190D01*
X58287976Y-195136904D01*
X58335595Y-195232142D01*
X58383214Y-195279761D01*
X58478452Y-195327380D01*
X58621309Y-195327380D01*
X62097500Y-196977380D02*
X62430833Y-196501190D01*
X62668928Y-196977380D02*
X62668928Y-195977380D01*
X62287976Y-195977380D01*
X62192738Y-196025000D01*
X62145119Y-196072619D01*
X62097500Y-196167857D01*
X62097500Y-196310714D01*
X62145119Y-196405952D01*
X62192738Y-196453571D01*
X62287976Y-196501190D01*
X62668928Y-196501190D01*
X61287976Y-196929761D02*
X61383214Y-196977380D01*
X61573690Y-196977380D01*
X61668928Y-196929761D01*
X61716547Y-196834523D01*
X61716547Y-196453571D01*
X61668928Y-196358333D01*
X61573690Y-196310714D01*
X61383214Y-196310714D01*
X61287976Y-196358333D01*
X61240357Y-196453571D01*
X61240357Y-196548809D01*
X61716547Y-196644047D01*
X60907023Y-196310714D02*
X60668928Y-196977380D01*
X60430833Y-196310714D01*
X60049880Y-196882142D02*
X60002261Y-196929761D01*
X60049880Y-196977380D01*
X60097500Y-196929761D01*
X60049880Y-196882142D01*
X60049880Y-196977380D01*
X58859404Y-196072619D02*
X58811785Y-196025000D01*
X58716547Y-195977380D01*
X58478452Y-195977380D01*
X58383214Y-196025000D01*
X58335595Y-196072619D01*
X58287976Y-196167857D01*
X58287976Y-196263095D01*
X58335595Y-196405952D01*
X58907023Y-196977380D01*
X58287976Y-196977380D01*
X72478452Y-198627380D02*
X72478452Y-197627380D01*
X72478452Y-198008333D02*
X72383214Y-197960714D01*
X72192738Y-197960714D01*
X72097500Y-198008333D01*
X72049880Y-198055952D01*
X72002261Y-198151190D01*
X72002261Y-198436904D01*
X72049880Y-198532142D01*
X72097500Y-198579761D01*
X72192738Y-198627380D01*
X72383214Y-198627380D01*
X72478452Y-198579761D01*
X71668928Y-197960714D02*
X71430833Y-198627380D01*
X71192738Y-197960714D02*
X71430833Y-198627380D01*
X71526071Y-198865476D01*
X71573690Y-198913095D01*
X71668928Y-198960714D01*
X69526071Y-197675000D02*
X69621309Y-197627380D01*
X69764166Y-197627380D01*
X69907023Y-197675000D01*
X70002261Y-197770238D01*
X70049880Y-197865476D01*
X70097500Y-198055952D01*
X70097500Y-198198809D01*
X70049880Y-198389285D01*
X70002261Y-198484523D01*
X69907023Y-198579761D01*
X69764166Y-198627380D01*
X69668928Y-198627380D01*
X69526071Y-198579761D01*
X69478452Y-198532142D01*
X69478452Y-198198809D01*
X69668928Y-198198809D01*
X68621309Y-197960714D02*
X68621309Y-198627380D01*
X69049880Y-197960714D02*
X69049880Y-198484523D01*
X69002261Y-198579761D01*
X68907023Y-198627380D01*
X68764166Y-198627380D01*
X68668928Y-198579761D01*
X68621309Y-198532142D01*
X68192738Y-198579761D02*
X68097500Y-198627380D01*
X67907023Y-198627380D01*
X67811785Y-198579761D01*
X67764166Y-198484523D01*
X67764166Y-198436904D01*
X67811785Y-198341666D01*
X67907023Y-198294047D01*
X68049880Y-198294047D01*
X68145119Y-198246428D01*
X68192738Y-198151190D01*
X68192738Y-198103571D01*
X68145119Y-198008333D01*
X68049880Y-197960714D01*
X67907023Y-197960714D01*
X67811785Y-198008333D01*
X67478452Y-197960714D02*
X67097500Y-197960714D01*
X67335595Y-197627380D02*
X67335595Y-198484523D01*
X67287976Y-198579761D01*
X67192738Y-198627380D01*
X67097500Y-198627380D01*
X66335595Y-198627380D02*
X66335595Y-198103571D01*
X66383214Y-198008333D01*
X66478452Y-197960714D01*
X66668928Y-197960714D01*
X66764166Y-198008333D01*
X66335595Y-198579761D02*
X66430833Y-198627380D01*
X66668928Y-198627380D01*
X66764166Y-198579761D01*
X66811785Y-198484523D01*
X66811785Y-198389285D01*
X66764166Y-198294047D01*
X66668928Y-198246428D01*
X66430833Y-198246428D01*
X66335595Y-198198809D01*
X65954642Y-197960714D02*
X65716547Y-198627380D01*
X65478452Y-197960714D01*
X64954642Y-198627380D02*
X65049880Y-198579761D01*
X65097500Y-198532142D01*
X65145119Y-198436904D01*
X65145119Y-198151190D01*
X65097500Y-198055952D01*
X65049880Y-198008333D01*
X64954642Y-197960714D01*
X64811785Y-197960714D01*
X64716547Y-198008333D01*
X64668928Y-198055952D01*
X64621309Y-198151190D01*
X64621309Y-198436904D01*
X64668928Y-198532142D01*
X64716547Y-198579761D01*
X64811785Y-198627380D01*
X64954642Y-198627380D01*
X63478452Y-198579761D02*
X63335595Y-198627380D01*
X63097500Y-198627380D01*
X63002261Y-198579761D01*
X62954642Y-198532142D01*
X62907023Y-198436904D01*
X62907023Y-198341666D01*
X62954642Y-198246428D01*
X63002261Y-198198809D01*
X63097500Y-198151190D01*
X63287976Y-198103571D01*
X63383214Y-198055952D01*
X63430833Y-198008333D01*
X63478452Y-197913095D01*
X63478452Y-197817857D01*
X63430833Y-197722619D01*
X63383214Y-197675000D01*
X63287976Y-197627380D01*
X63049880Y-197627380D01*
X62907023Y-197675000D01*
X62478452Y-198627380D02*
X62478452Y-197960714D01*
X62478452Y-197627380D02*
X62526071Y-197675000D01*
X62478452Y-197722619D01*
X62430833Y-197675000D01*
X62478452Y-197627380D01*
X62478452Y-197722619D01*
X61859404Y-198627380D02*
X61954642Y-198579761D01*
X62002261Y-198484523D01*
X62002261Y-197627380D01*
X61573690Y-197960714D02*
X61335595Y-198627380D01*
X61097500Y-197960714D01*
X60335595Y-198579761D02*
X60430833Y-198627380D01*
X60621309Y-198627380D01*
X60716547Y-198579761D01*
X60764166Y-198484523D01*
X60764166Y-198103571D01*
X60716547Y-198008333D01*
X60621309Y-197960714D01*
X60430833Y-197960714D01*
X60335595Y-198008333D01*
X60287976Y-198103571D01*
X60287976Y-198198809D01*
X60764166Y-198294047D01*
X59859404Y-198627380D02*
X59859404Y-197960714D01*
X59859404Y-197627380D02*
X59907023Y-197675000D01*
X59859404Y-197722619D01*
X59811785Y-197675000D01*
X59859404Y-197627380D01*
X59859404Y-197722619D01*
X59383214Y-198627380D02*
X59383214Y-197960714D01*
X59383214Y-198151190D02*
X59335595Y-198055952D01*
X59287976Y-198008333D01*
X59192738Y-197960714D01*
X59097500Y-197960714D01*
X58335595Y-198627380D02*
X58335595Y-198103571D01*
X58383214Y-198008333D01*
X58478452Y-197960714D01*
X58668928Y-197960714D01*
X58764166Y-198008333D01*
X58335595Y-198579761D02*
X58430833Y-198627380D01*
X58668928Y-198627380D01*
X58764166Y-198579761D01*
X58811785Y-198484523D01*
X58811785Y-198389285D01*
X58764166Y-198294047D01*
X58668928Y-198246428D01*
X58430833Y-198246428D01*
X58335595Y-198198809D01*
X70002261Y-200277380D02*
X70002261Y-199610714D01*
X70002261Y-199705952D02*
X69954642Y-199658333D01*
X69859404Y-199610714D01*
X69716547Y-199610714D01*
X69621309Y-199658333D01*
X69573690Y-199753571D01*
X69573690Y-200277380D01*
X69573690Y-199753571D02*
X69526071Y-199658333D01*
X69430833Y-199610714D01*
X69287976Y-199610714D01*
X69192738Y-199658333D01*
X69145119Y-199753571D01*
X69145119Y-200277380D01*
X68240357Y-199610714D02*
X68240357Y-200277380D01*
X68668928Y-199610714D02*
X68668928Y-200134523D01*
X68621309Y-200229761D01*
X68526071Y-200277380D01*
X68383214Y-200277380D01*
X68287976Y-200229761D01*
X68240357Y-200182142D01*
X67811785Y-200229761D02*
X67716547Y-200277380D01*
X67526071Y-200277380D01*
X67430833Y-200229761D01*
X67383214Y-200134523D01*
X67383214Y-200086904D01*
X67430833Y-199991666D01*
X67526071Y-199944047D01*
X67668928Y-199944047D01*
X67764166Y-199896428D01*
X67811785Y-199801190D01*
X67811785Y-199753571D01*
X67764166Y-199658333D01*
X67668928Y-199610714D01*
X67526071Y-199610714D01*
X67430833Y-199658333D01*
X66954642Y-200277380D02*
X66954642Y-199610714D01*
X66954642Y-199277380D02*
X67002261Y-199325000D01*
X66954642Y-199372619D01*
X66907023Y-199325000D01*
X66954642Y-199277380D01*
X66954642Y-199372619D01*
X66049880Y-200229761D02*
X66145119Y-200277380D01*
X66335595Y-200277380D01*
X66430833Y-200229761D01*
X66478452Y-200182142D01*
X66526071Y-200086904D01*
X66526071Y-199801190D01*
X66478452Y-199705952D01*
X66430833Y-199658333D01*
X66335595Y-199610714D01*
X66145119Y-199610714D01*
X66049880Y-199658333D01*
X65478452Y-200277380D02*
X65573690Y-200229761D01*
X65621309Y-200182142D01*
X65668928Y-200086904D01*
X65668928Y-199801190D01*
X65621309Y-199705952D01*
X65573690Y-199658333D01*
X65478452Y-199610714D01*
X65335595Y-199610714D01*
X65240357Y-199658333D01*
X65192738Y-199705952D01*
X65145119Y-199801190D01*
X65145119Y-200086904D01*
X65192738Y-200182142D01*
X65240357Y-200229761D01*
X65335595Y-200277380D01*
X65478452Y-200277380D01*
X64716547Y-199610714D02*
X64716547Y-200277380D01*
X64716547Y-199705952D02*
X64668928Y-199658333D01*
X64573690Y-199610714D01*
X64430833Y-199610714D01*
X64335595Y-199658333D01*
X64287976Y-199753571D01*
X64287976Y-200277380D01*
X63430833Y-200229761D02*
X63526071Y-200277380D01*
X63716547Y-200277380D01*
X63811785Y-200229761D01*
X63859404Y-200134523D01*
X63859404Y-199753571D01*
X63811785Y-199658333D01*
X63716547Y-199610714D01*
X63526071Y-199610714D01*
X63430833Y-199658333D01*
X63383214Y-199753571D01*
X63383214Y-199848809D01*
X63859404Y-199944047D01*
X62954642Y-200277380D02*
X62954642Y-199610714D01*
X62954642Y-199801190D02*
X62907023Y-199705952D01*
X62859404Y-199658333D01*
X62764166Y-199610714D01*
X62668928Y-199610714D01*
X61907023Y-200277380D02*
X61907023Y-199277380D01*
X61907023Y-200229761D02*
X62002261Y-200277380D01*
X62192738Y-200277380D01*
X62287976Y-200229761D01*
X62335595Y-200182142D01*
X62383214Y-200086904D01*
X62383214Y-199801190D01*
X62335595Y-199705952D01*
X62287976Y-199658333D01*
X62192738Y-199610714D01*
X62002261Y-199610714D01*
X61907023Y-199658333D01*
X61430833Y-200182142D02*
X61383214Y-200229761D01*
X61430833Y-200277380D01*
X61478452Y-200229761D01*
X61430833Y-200182142D01*
X61430833Y-200277380D01*
X60526071Y-200229761D02*
X60621309Y-200277380D01*
X60811785Y-200277380D01*
X60907023Y-200229761D01*
X60954642Y-200182142D01*
X61002261Y-200086904D01*
X61002261Y-199801190D01*
X60954642Y-199705952D01*
X60907023Y-199658333D01*
X60811785Y-199610714D01*
X60621309Y-199610714D01*
X60526071Y-199658333D01*
X59954642Y-200277380D02*
X60049880Y-200229761D01*
X60097500Y-200182142D01*
X60145119Y-200086904D01*
X60145119Y-199801190D01*
X60097500Y-199705952D01*
X60049880Y-199658333D01*
X59954642Y-199610714D01*
X59811785Y-199610714D01*
X59716547Y-199658333D01*
X59668928Y-199705952D01*
X59621309Y-199801190D01*
X59621309Y-200086904D01*
X59668928Y-200182142D01*
X59716547Y-200229761D01*
X59811785Y-200277380D01*
X59954642Y-200277380D01*
X59192738Y-200277380D02*
X59192738Y-199610714D01*
X59192738Y-199705952D02*
X59145119Y-199658333D01*
X59049880Y-199610714D01*
X58907023Y-199610714D01*
X58811785Y-199658333D01*
X58764166Y-199753571D01*
X58764166Y-200277380D01*
X58764166Y-199753571D02*
X58716547Y-199658333D01*
X58621309Y-199610714D01*
X58478452Y-199610714D01*
X58383214Y-199658333D01*
X58335595Y-199753571D01*
X58335595Y-200277380D01*
X82049880Y-201260714D02*
X82049880Y-202070238D01*
X82097500Y-202165476D01*
X82145119Y-202213095D01*
X82240357Y-202260714D01*
X82383214Y-202260714D01*
X82478452Y-202213095D01*
X82049880Y-201879761D02*
X82145119Y-201927380D01*
X82335595Y-201927380D01*
X82430833Y-201879761D01*
X82478452Y-201832142D01*
X82526071Y-201736904D01*
X82526071Y-201451190D01*
X82478452Y-201355952D01*
X82430833Y-201308333D01*
X82335595Y-201260714D01*
X82145119Y-201260714D01*
X82049880Y-201308333D01*
X81145119Y-201260714D02*
X81145119Y-201927380D01*
X81573690Y-201260714D02*
X81573690Y-201784523D01*
X81526071Y-201879761D01*
X81430833Y-201927380D01*
X81287976Y-201927380D01*
X81192738Y-201879761D01*
X81145119Y-201832142D01*
X80716547Y-201879761D02*
X80621309Y-201927380D01*
X80430833Y-201927380D01*
X80335595Y-201879761D01*
X80287976Y-201784523D01*
X80287976Y-201736904D01*
X80335595Y-201641666D01*
X80430833Y-201594047D01*
X80573690Y-201594047D01*
X80668928Y-201546428D01*
X80716547Y-201451190D01*
X80716547Y-201403571D01*
X80668928Y-201308333D01*
X80573690Y-201260714D01*
X80430833Y-201260714D01*
X80335595Y-201308333D01*
X80002261Y-201260714D02*
X79621309Y-201260714D01*
X79859404Y-200927380D02*
X79859404Y-201784523D01*
X79811785Y-201879761D01*
X79716547Y-201927380D01*
X79621309Y-201927380D01*
X78859404Y-201927380D02*
X78859404Y-201403571D01*
X78907023Y-201308333D01*
X79002261Y-201260714D01*
X79192738Y-201260714D01*
X79287976Y-201308333D01*
X78859404Y-201879761D02*
X78954642Y-201927380D01*
X79192738Y-201927380D01*
X79287976Y-201879761D01*
X79335595Y-201784523D01*
X79335595Y-201689285D01*
X79287976Y-201594047D01*
X79192738Y-201546428D01*
X78954642Y-201546428D01*
X78859404Y-201498809D01*
X78478452Y-201260714D02*
X78240357Y-201927380D01*
X78002261Y-201260714D01*
X77478452Y-201927380D02*
X77573690Y-201879761D01*
X77621309Y-201832142D01*
X77668928Y-201736904D01*
X77668928Y-201451190D01*
X77621309Y-201355952D01*
X77573690Y-201308333D01*
X77478452Y-201260714D01*
X77335595Y-201260714D01*
X77240357Y-201308333D01*
X77192738Y-201355952D01*
X77145119Y-201451190D01*
X77145119Y-201736904D01*
X77192738Y-201832142D01*
X77240357Y-201879761D01*
X77335595Y-201927380D01*
X77478452Y-201927380D01*
X76764166Y-201879761D02*
X76668928Y-201927380D01*
X76478452Y-201927380D01*
X76383214Y-201879761D01*
X76335595Y-201784523D01*
X76335595Y-201736904D01*
X76383214Y-201641666D01*
X76478452Y-201594047D01*
X76621309Y-201594047D01*
X76716547Y-201546428D01*
X76764166Y-201451190D01*
X76764166Y-201403571D01*
X76716547Y-201308333D01*
X76621309Y-201260714D01*
X76478452Y-201260714D01*
X76383214Y-201308333D01*
X75907023Y-201927380D02*
X75907023Y-201260714D01*
X75907023Y-200927380D02*
X75954642Y-200975000D01*
X75907023Y-201022619D01*
X75859404Y-200975000D01*
X75907023Y-200927380D01*
X75907023Y-201022619D01*
X75287976Y-201927380D02*
X75383214Y-201879761D01*
X75430833Y-201784523D01*
X75430833Y-200927380D01*
X75002261Y-201260714D02*
X74764166Y-201927380D01*
X74526071Y-201260714D01*
X73764166Y-201879761D02*
X73859404Y-201927380D01*
X74049880Y-201927380D01*
X74145119Y-201879761D01*
X74192738Y-201784523D01*
X74192738Y-201403571D01*
X74145119Y-201308333D01*
X74049880Y-201260714D01*
X73859404Y-201260714D01*
X73764166Y-201308333D01*
X73716547Y-201403571D01*
X73716547Y-201498809D01*
X74192738Y-201594047D01*
X73287976Y-201927380D02*
X73287976Y-201260714D01*
X73287976Y-200927380D02*
X73335595Y-200975000D01*
X73287976Y-201022619D01*
X73240357Y-200975000D01*
X73287976Y-200927380D01*
X73287976Y-201022619D01*
X72811785Y-201927380D02*
X72811785Y-201260714D01*
X72811785Y-201451190D02*
X72764166Y-201355952D01*
X72716547Y-201308333D01*
X72621309Y-201260714D01*
X72526071Y-201260714D01*
X71764166Y-201927380D02*
X71764166Y-201403571D01*
X71811785Y-201308333D01*
X71907023Y-201260714D01*
X72097500Y-201260714D01*
X72192738Y-201308333D01*
X71764166Y-201879761D02*
X71859404Y-201927380D01*
X72097500Y-201927380D01*
X72192738Y-201879761D01*
X72240357Y-201784523D01*
X72240357Y-201689285D01*
X72192738Y-201594047D01*
X72097500Y-201546428D01*
X71859404Y-201546428D01*
X71764166Y-201498809D01*
X70668928Y-201451190D02*
X70716547Y-201403571D01*
X70811785Y-201355952D01*
X70907023Y-201355952D01*
X71002261Y-201403571D01*
X71049880Y-201451190D01*
X71097500Y-201546428D01*
X71097500Y-201641666D01*
X71049880Y-201736904D01*
X71002261Y-201784523D01*
X70907023Y-201832142D01*
X70811785Y-201832142D01*
X70716547Y-201784523D01*
X70668928Y-201736904D01*
X70668928Y-201355952D02*
X70668928Y-201736904D01*
X70621309Y-201784523D01*
X70573690Y-201784523D01*
X70478452Y-201736904D01*
X70430833Y-201641666D01*
X70430833Y-201403571D01*
X70526071Y-201260714D01*
X70668928Y-201165476D01*
X70859404Y-201117857D01*
X71049880Y-201165476D01*
X71192738Y-201260714D01*
X71287976Y-201403571D01*
X71335595Y-201594047D01*
X71287976Y-201784523D01*
X71192738Y-201927380D01*
X71049880Y-202022619D01*
X70859404Y-202070238D01*
X70668928Y-202022619D01*
X70526071Y-201927380D01*
X70002261Y-201927380D02*
X70002261Y-201260714D01*
X70002261Y-201355952D02*
X69954642Y-201308333D01*
X69859404Y-201260714D01*
X69716547Y-201260714D01*
X69621309Y-201308333D01*
X69573690Y-201403571D01*
X69573690Y-201927380D01*
X69573690Y-201403571D02*
X69526071Y-201308333D01*
X69430833Y-201260714D01*
X69287976Y-201260714D01*
X69192738Y-201308333D01*
X69145119Y-201403571D01*
X69145119Y-201927380D01*
X68240357Y-201260714D02*
X68240357Y-201927380D01*
X68668928Y-201260714D02*
X68668928Y-201784523D01*
X68621309Y-201879761D01*
X68526071Y-201927380D01*
X68383214Y-201927380D01*
X68287976Y-201879761D01*
X68240357Y-201832142D01*
X67811785Y-201879761D02*
X67716547Y-201927380D01*
X67526071Y-201927380D01*
X67430833Y-201879761D01*
X67383214Y-201784523D01*
X67383214Y-201736904D01*
X67430833Y-201641666D01*
X67526071Y-201594047D01*
X67668928Y-201594047D01*
X67764166Y-201546428D01*
X67811785Y-201451190D01*
X67811785Y-201403571D01*
X67764166Y-201308333D01*
X67668928Y-201260714D01*
X67526071Y-201260714D01*
X67430833Y-201308333D01*
X66954642Y-201927380D02*
X66954642Y-201260714D01*
X66954642Y-200927380D02*
X67002261Y-200975000D01*
X66954642Y-201022619D01*
X66907023Y-200975000D01*
X66954642Y-200927380D01*
X66954642Y-201022619D01*
X66049880Y-201879761D02*
X66145119Y-201927380D01*
X66335595Y-201927380D01*
X66430833Y-201879761D01*
X66478452Y-201832142D01*
X66526071Y-201736904D01*
X66526071Y-201451190D01*
X66478452Y-201355952D01*
X66430833Y-201308333D01*
X66335595Y-201260714D01*
X66145119Y-201260714D01*
X66049880Y-201308333D01*
X65478452Y-201927380D02*
X65573690Y-201879761D01*
X65621309Y-201832142D01*
X65668928Y-201736904D01*
X65668928Y-201451190D01*
X65621309Y-201355952D01*
X65573690Y-201308333D01*
X65478452Y-201260714D01*
X65335595Y-201260714D01*
X65240357Y-201308333D01*
X65192738Y-201355952D01*
X65145119Y-201451190D01*
X65145119Y-201736904D01*
X65192738Y-201832142D01*
X65240357Y-201879761D01*
X65335595Y-201927380D01*
X65478452Y-201927380D01*
X64716547Y-201260714D02*
X64716547Y-201927380D01*
X64716547Y-201355952D02*
X64668928Y-201308333D01*
X64573690Y-201260714D01*
X64430833Y-201260714D01*
X64335595Y-201308333D01*
X64287976Y-201403571D01*
X64287976Y-201927380D01*
X63430833Y-201879761D02*
X63526071Y-201927380D01*
X63716547Y-201927380D01*
X63811785Y-201879761D01*
X63859404Y-201784523D01*
X63859404Y-201403571D01*
X63811785Y-201308333D01*
X63716547Y-201260714D01*
X63526071Y-201260714D01*
X63430833Y-201308333D01*
X63383214Y-201403571D01*
X63383214Y-201498809D01*
X63859404Y-201594047D01*
X62954642Y-201927380D02*
X62954642Y-201260714D01*
X62954642Y-201451190D02*
X62907023Y-201355952D01*
X62859404Y-201308333D01*
X62764166Y-201260714D01*
X62668928Y-201260714D01*
X61907023Y-201927380D02*
X61907023Y-200927380D01*
X61907023Y-201879761D02*
X62002261Y-201927380D01*
X62192738Y-201927380D01*
X62287976Y-201879761D01*
X62335595Y-201832142D01*
X62383214Y-201736904D01*
X62383214Y-201451190D01*
X62335595Y-201355952D01*
X62287976Y-201308333D01*
X62192738Y-201260714D01*
X62002261Y-201260714D01*
X61907023Y-201308333D01*
X61430833Y-201832142D02*
X61383214Y-201879761D01*
X61430833Y-201927380D01*
X61478452Y-201879761D01*
X61430833Y-201832142D01*
X61430833Y-201927380D01*
X60526071Y-201879761D02*
X60621309Y-201927380D01*
X60811785Y-201927380D01*
X60907023Y-201879761D01*
X60954642Y-201832142D01*
X61002261Y-201736904D01*
X61002261Y-201451190D01*
X60954642Y-201355952D01*
X60907023Y-201308333D01*
X60811785Y-201260714D01*
X60621309Y-201260714D01*
X60526071Y-201308333D01*
X59954642Y-201927380D02*
X60049880Y-201879761D01*
X60097500Y-201832142D01*
X60145119Y-201736904D01*
X60145119Y-201451190D01*
X60097500Y-201355952D01*
X60049880Y-201308333D01*
X59954642Y-201260714D01*
X59811785Y-201260714D01*
X59716547Y-201308333D01*
X59668928Y-201355952D01*
X59621309Y-201451190D01*
X59621309Y-201736904D01*
X59668928Y-201832142D01*
X59716547Y-201879761D01*
X59811785Y-201927380D01*
X59954642Y-201927380D01*
X59192738Y-201927380D02*
X59192738Y-201260714D01*
X59192738Y-201355952D02*
X59145119Y-201308333D01*
X59049880Y-201260714D01*
X58907023Y-201260714D01*
X58811785Y-201308333D01*
X58764166Y-201403571D01*
X58764166Y-201927380D01*
X58764166Y-201403571D02*
X58716547Y-201308333D01*
X58621309Y-201260714D01*
X58478452Y-201260714D01*
X58383214Y-201308333D01*
X58335595Y-201403571D01*
X58335595Y-201927380D01*
X61716547Y-202672619D02*
X61668928Y-202625000D01*
X61573690Y-202577380D01*
X61335595Y-202577380D01*
X61240357Y-202625000D01*
X61192738Y-202672619D01*
X61145119Y-202767857D01*
X61145119Y-202863095D01*
X61192738Y-203005952D01*
X61764166Y-203577380D01*
X61145119Y-203577380D01*
X60526071Y-202577380D02*
X60430833Y-202577380D01*
X60335595Y-202625000D01*
X60287976Y-202672619D01*
X60240357Y-202767857D01*
X60192738Y-202958333D01*
X60192738Y-203196428D01*
X60240357Y-203386904D01*
X60287976Y-203482142D01*
X60335595Y-203529761D01*
X60430833Y-203577380D01*
X60526071Y-203577380D01*
X60621309Y-203529761D01*
X60668928Y-203482142D01*
X60716547Y-203386904D01*
X60764166Y-203196428D01*
X60764166Y-202958333D01*
X60716547Y-202767857D01*
X60668928Y-202672619D01*
X60621309Y-202625000D01*
X60526071Y-202577380D01*
X59811785Y-202672619D02*
X59764166Y-202625000D01*
X59668928Y-202577380D01*
X59430833Y-202577380D01*
X59335595Y-202625000D01*
X59287976Y-202672619D01*
X59240357Y-202767857D01*
X59240357Y-202863095D01*
X59287976Y-203005952D01*
X59859404Y-203577380D01*
X59240357Y-203577380D01*
X58287976Y-203577380D02*
X58859404Y-203577380D01*
X58573690Y-203577380D02*
X58573690Y-202577380D01*
X58668928Y-202720238D01*
X58764166Y-202815476D01*
X58859404Y-202863095D01*
D11*
%TO.C,dc_motor_conn1*%
X65145000Y-110430000D02*
X66475000Y-110430000D01*
X65145000Y-109100000D02*
X65145000Y-110430000D01*
X65145000Y-107830000D02*
X67805000Y-107830000D01*
X67805000Y-107830000D02*
X67805000Y-105230000D01*
X65145000Y-107830000D02*
X65145000Y-105230000D01*
X65145000Y-105230000D02*
X67805000Y-105230000D01*
%TO.C,Extra_pins1*%
X180590000Y-81740000D02*
X181920000Y-81740000D01*
X181920000Y-81740000D02*
X181920000Y-80410000D01*
X181920000Y-79140000D02*
X181920000Y-66380000D01*
X179260000Y-66380000D02*
X181920000Y-66380000D01*
X179260000Y-79140000D02*
X179260000Y-66380000D01*
X179260000Y-79140000D02*
X181920000Y-79140000D01*
%TO.C,Fader_conn1*%
X66500000Y-102510000D02*
X67830000Y-102510000D01*
X67830000Y-102510000D02*
X67830000Y-101180000D01*
X67830000Y-99910000D02*
X67830000Y-92230000D01*
X65170000Y-92230000D02*
X67830000Y-92230000D01*
X65170000Y-99910000D02*
X65170000Y-92230000D01*
X65170000Y-99910000D02*
X67830000Y-99910000D01*
%TO.C,H-Bridge1*%
X182180000Y-196860000D02*
X180930000Y-196860000D01*
X182180000Y-176420000D02*
X182180000Y-196860000D01*
X177680000Y-176420000D02*
X182180000Y-176420000D01*
X177680000Y-196860000D02*
X177680000Y-176420000D01*
X178930000Y-196860000D02*
X177680000Y-196860000D01*
X180930000Y-196860000D02*
G75*
G03*
X178930000Y-196860000I-1000000J0D01*
G01*
%TO.C,Power_jack1*%
X132400000Y-43900000D02*
X135000000Y-43900000D01*
X132400000Y-29200000D02*
X132400000Y-43900000D01*
X141600000Y-43900000D02*
X141600000Y-42000000D01*
X138900000Y-43900000D02*
X141600000Y-43900000D01*
X141600000Y-29200000D02*
X132400000Y-29200000D01*
X141600000Y-38000000D02*
X141600000Y-29200000D01*
X132200000Y-43050000D02*
X132200000Y-44100000D01*
X133250000Y-44100000D02*
X132200000Y-44100000D01*
D10*
%TO.C,Arduino Pro Micro*%
X176810000Y-37780000D02*
X176810000Y-28890000D01*
X176810000Y-28890000D02*
X169190000Y-28890000D01*
X169190000Y-28890000D02*
X169190000Y-37780000D01*
X169190000Y-37780000D02*
X176810000Y-37780000D01*
X164110000Y-30200000D02*
X164110000Y-63240000D01*
X164110000Y-63240000D02*
X181890000Y-63240000D01*
X181890000Y-63240000D02*
X181890000Y-30200000D01*
X181890000Y-30200000D02*
X164110000Y-30200000D01*
%TO.C,dc_motor_conn1*%
X63652380Y-102395238D02*
X62652380Y-102395238D01*
X63604761Y-102395238D02*
X63652380Y-102300000D01*
X63652380Y-102109523D01*
X63604761Y-102014285D01*
X63557142Y-101966666D01*
X63461904Y-101919047D01*
X63176190Y-101919047D01*
X63080952Y-101966666D01*
X63033333Y-102014285D01*
X62985714Y-102109523D01*
X62985714Y-102300000D01*
X63033333Y-102395238D01*
X63604761Y-103300000D02*
X63652380Y-103204761D01*
X63652380Y-103014285D01*
X63604761Y-102919047D01*
X63557142Y-102871428D01*
X63461904Y-102823809D01*
X63176190Y-102823809D01*
X63080952Y-102871428D01*
X63033333Y-102919047D01*
X62985714Y-103014285D01*
X62985714Y-103204761D01*
X63033333Y-103300000D01*
X63747619Y-103490476D02*
X63747619Y-104252380D01*
X63652380Y-104490476D02*
X62985714Y-104490476D01*
X63080952Y-104490476D02*
X63033333Y-104538095D01*
X62985714Y-104633333D01*
X62985714Y-104776190D01*
X63033333Y-104871428D01*
X63128571Y-104919047D01*
X63652380Y-104919047D01*
X63128571Y-104919047D02*
X63033333Y-104966666D01*
X62985714Y-105061904D01*
X62985714Y-105204761D01*
X63033333Y-105300000D01*
X63128571Y-105347619D01*
X63652380Y-105347619D01*
X63652380Y-105966666D02*
X63604761Y-105871428D01*
X63557142Y-105823809D01*
X63461904Y-105776190D01*
X63176190Y-105776190D01*
X63080952Y-105823809D01*
X63033333Y-105871428D01*
X62985714Y-105966666D01*
X62985714Y-106109523D01*
X63033333Y-106204761D01*
X63080952Y-106252380D01*
X63176190Y-106300000D01*
X63461904Y-106300000D01*
X63557142Y-106252380D01*
X63604761Y-106204761D01*
X63652380Y-106109523D01*
X63652380Y-105966666D01*
X62985714Y-106585714D02*
X62985714Y-106966666D01*
X62652380Y-106728571D02*
X63509523Y-106728571D01*
X63604761Y-106776190D01*
X63652380Y-106871428D01*
X63652380Y-106966666D01*
X63652380Y-107442857D02*
X63604761Y-107347619D01*
X63557142Y-107300000D01*
X63461904Y-107252380D01*
X63176190Y-107252380D01*
X63080952Y-107300000D01*
X63033333Y-107347619D01*
X62985714Y-107442857D01*
X62985714Y-107585714D01*
X63033333Y-107680952D01*
X63080952Y-107728571D01*
X63176190Y-107776190D01*
X63461904Y-107776190D01*
X63557142Y-107728571D01*
X63604761Y-107680952D01*
X63652380Y-107585714D01*
X63652380Y-107442857D01*
X63652380Y-108204761D02*
X62985714Y-108204761D01*
X63176190Y-108204761D02*
X63080952Y-108252380D01*
X63033333Y-108300000D01*
X62985714Y-108395238D01*
X62985714Y-108490476D01*
X63747619Y-108585714D02*
X63747619Y-109347619D01*
X63604761Y-110014285D02*
X63652380Y-109919047D01*
X63652380Y-109728571D01*
X63604761Y-109633333D01*
X63557142Y-109585714D01*
X63461904Y-109538095D01*
X63176190Y-109538095D01*
X63080952Y-109585714D01*
X63033333Y-109633333D01*
X62985714Y-109728571D01*
X62985714Y-109919047D01*
X63033333Y-110014285D01*
X63652380Y-110585714D02*
X63604761Y-110490476D01*
X63557142Y-110442857D01*
X63461904Y-110395238D01*
X63176190Y-110395238D01*
X63080952Y-110442857D01*
X63033333Y-110490476D01*
X62985714Y-110585714D01*
X62985714Y-110728571D01*
X63033333Y-110823809D01*
X63080952Y-110871428D01*
X63176190Y-110919047D01*
X63461904Y-110919047D01*
X63557142Y-110871428D01*
X63604761Y-110823809D01*
X63652380Y-110728571D01*
X63652380Y-110585714D01*
X62985714Y-111347619D02*
X63652380Y-111347619D01*
X63080952Y-111347619D02*
X63033333Y-111395238D01*
X62985714Y-111490476D01*
X62985714Y-111633333D01*
X63033333Y-111728571D01*
X63128571Y-111776190D01*
X63652380Y-111776190D01*
X62985714Y-112252380D02*
X63652380Y-112252380D01*
X63080952Y-112252380D02*
X63033333Y-112300000D01*
X62985714Y-112395238D01*
X62985714Y-112538095D01*
X63033333Y-112633333D01*
X63128571Y-112680952D01*
X63652380Y-112680952D01*
X63652380Y-113680952D02*
X63652380Y-113109523D01*
X63652380Y-113395238D02*
X62652380Y-113395238D01*
X62795238Y-113300000D01*
X62890476Y-113204761D01*
X62938095Y-113109523D01*
%TO.C,Extra_pins1*%
X178028571Y-68428571D02*
X178028571Y-68761904D01*
X178552380Y-68904761D02*
X178552380Y-68428571D01*
X177552380Y-68428571D01*
X177552380Y-68904761D01*
X178552380Y-69238095D02*
X177885714Y-69761904D01*
X177885714Y-69238095D02*
X178552380Y-69761904D01*
X177885714Y-70000000D02*
X177885714Y-70380952D01*
X177552380Y-70142857D02*
X178409523Y-70142857D01*
X178504761Y-70190476D01*
X178552380Y-70285714D01*
X178552380Y-70380952D01*
X178552380Y-70714285D02*
X177885714Y-70714285D01*
X178076190Y-70714285D02*
X177980952Y-70761904D01*
X177933333Y-70809523D01*
X177885714Y-70904761D01*
X177885714Y-71000000D01*
X178552380Y-71761904D02*
X178028571Y-71761904D01*
X177933333Y-71714285D01*
X177885714Y-71619047D01*
X177885714Y-71428571D01*
X177933333Y-71333333D01*
X178504761Y-71761904D02*
X178552380Y-71666666D01*
X178552380Y-71428571D01*
X178504761Y-71333333D01*
X178409523Y-71285714D01*
X178314285Y-71285714D01*
X178219047Y-71333333D01*
X178171428Y-71428571D01*
X178171428Y-71666666D01*
X178123809Y-71761904D01*
X178647619Y-72000000D02*
X178647619Y-72761904D01*
X177885714Y-73000000D02*
X178885714Y-73000000D01*
X177933333Y-73000000D02*
X177885714Y-73095238D01*
X177885714Y-73285714D01*
X177933333Y-73380952D01*
X177980952Y-73428571D01*
X178076190Y-73476190D01*
X178361904Y-73476190D01*
X178457142Y-73428571D01*
X178504761Y-73380952D01*
X178552380Y-73285714D01*
X178552380Y-73095238D01*
X178504761Y-73000000D01*
X178552380Y-73904761D02*
X177885714Y-73904761D01*
X177552380Y-73904761D02*
X177600000Y-73857142D01*
X177647619Y-73904761D01*
X177600000Y-73952380D01*
X177552380Y-73904761D01*
X177647619Y-73904761D01*
X177885714Y-74380952D02*
X178552380Y-74380952D01*
X177980952Y-74380952D02*
X177933333Y-74428571D01*
X177885714Y-74523809D01*
X177885714Y-74666666D01*
X177933333Y-74761904D01*
X178028571Y-74809523D01*
X178552380Y-74809523D01*
X178504761Y-75238095D02*
X178552380Y-75333333D01*
X178552380Y-75523809D01*
X178504761Y-75619047D01*
X178409523Y-75666666D01*
X178361904Y-75666666D01*
X178266666Y-75619047D01*
X178219047Y-75523809D01*
X178219047Y-75380952D01*
X178171428Y-75285714D01*
X178076190Y-75238095D01*
X178028571Y-75238095D01*
X177933333Y-75285714D01*
X177885714Y-75380952D01*
X177885714Y-75523809D01*
X177933333Y-75619047D01*
X178552380Y-76619047D02*
X178552380Y-76047619D01*
X178552380Y-76333333D02*
X177552380Y-76333333D01*
X177695238Y-76238095D01*
X177790476Y-76142857D01*
X177838095Y-76047619D01*
%TO.C,Fader_conn1*%
X63128571Y-91377142D02*
X63128571Y-91043809D01*
X63652380Y-91043809D02*
X62652380Y-91043809D01*
X62652380Y-91520000D01*
X63652380Y-92329523D02*
X63128571Y-92329523D01*
X63033333Y-92281904D01*
X62985714Y-92186666D01*
X62985714Y-91996190D01*
X63033333Y-91900952D01*
X63604761Y-92329523D02*
X63652380Y-92234285D01*
X63652380Y-91996190D01*
X63604761Y-91900952D01*
X63509523Y-91853333D01*
X63414285Y-91853333D01*
X63319047Y-91900952D01*
X63271428Y-91996190D01*
X63271428Y-92234285D01*
X63223809Y-92329523D01*
X63652380Y-93234285D02*
X62652380Y-93234285D01*
X63604761Y-93234285D02*
X63652380Y-93139047D01*
X63652380Y-92948571D01*
X63604761Y-92853333D01*
X63557142Y-92805714D01*
X63461904Y-92758095D01*
X63176190Y-92758095D01*
X63080952Y-92805714D01*
X63033333Y-92853333D01*
X62985714Y-92948571D01*
X62985714Y-93139047D01*
X63033333Y-93234285D01*
X63604761Y-94091428D02*
X63652380Y-93996190D01*
X63652380Y-93805714D01*
X63604761Y-93710476D01*
X63509523Y-93662857D01*
X63128571Y-93662857D01*
X63033333Y-93710476D01*
X62985714Y-93805714D01*
X62985714Y-93996190D01*
X63033333Y-94091428D01*
X63128571Y-94139047D01*
X63223809Y-94139047D01*
X63319047Y-93662857D01*
X63652380Y-94567619D02*
X62985714Y-94567619D01*
X63176190Y-94567619D02*
X63080952Y-94615238D01*
X63033333Y-94662857D01*
X62985714Y-94758095D01*
X62985714Y-94853333D01*
X63747619Y-94948571D02*
X63747619Y-95710476D01*
X63604761Y-96377142D02*
X63652380Y-96281904D01*
X63652380Y-96091428D01*
X63604761Y-95996190D01*
X63557142Y-95948571D01*
X63461904Y-95900952D01*
X63176190Y-95900952D01*
X63080952Y-95948571D01*
X63033333Y-95996190D01*
X62985714Y-96091428D01*
X62985714Y-96281904D01*
X63033333Y-96377142D01*
X63652380Y-96948571D02*
X63604761Y-96853333D01*
X63557142Y-96805714D01*
X63461904Y-96758095D01*
X63176190Y-96758095D01*
X63080952Y-96805714D01*
X63033333Y-96853333D01*
X62985714Y-96948571D01*
X62985714Y-97091428D01*
X63033333Y-97186666D01*
X63080952Y-97234285D01*
X63176190Y-97281904D01*
X63461904Y-97281904D01*
X63557142Y-97234285D01*
X63604761Y-97186666D01*
X63652380Y-97091428D01*
X63652380Y-96948571D01*
X62985714Y-97710476D02*
X63652380Y-97710476D01*
X63080952Y-97710476D02*
X63033333Y-97758095D01*
X62985714Y-97853333D01*
X62985714Y-97996190D01*
X63033333Y-98091428D01*
X63128571Y-98139047D01*
X63652380Y-98139047D01*
X62985714Y-98615238D02*
X63652380Y-98615238D01*
X63080952Y-98615238D02*
X63033333Y-98662857D01*
X62985714Y-98758095D01*
X62985714Y-98900952D01*
X63033333Y-98996190D01*
X63128571Y-99043809D01*
X63652380Y-99043809D01*
X63652380Y-100043809D02*
X63652380Y-99472380D01*
X63652380Y-99758095D02*
X62652380Y-99758095D01*
X62795238Y-99662857D01*
X62890476Y-99567619D01*
X62938095Y-99472380D01*
%TO.C,H-Bridge1*%
X183691904Y-198312380D02*
X183691904Y-197312380D01*
X183691904Y-197788571D02*
X183120476Y-197788571D01*
X183120476Y-198312380D02*
X183120476Y-197312380D01*
X182644285Y-197931428D02*
X181882380Y-197931428D01*
X181072857Y-197788571D02*
X180930000Y-197836190D01*
X180882380Y-197883809D01*
X180834761Y-197979047D01*
X180834761Y-198121904D01*
X180882380Y-198217142D01*
X180930000Y-198264761D01*
X181025238Y-198312380D01*
X181406190Y-198312380D01*
X181406190Y-197312380D01*
X181072857Y-197312380D01*
X180977619Y-197360000D01*
X180930000Y-197407619D01*
X180882380Y-197502857D01*
X180882380Y-197598095D01*
X180930000Y-197693333D01*
X180977619Y-197740952D01*
X181072857Y-197788571D01*
X181406190Y-197788571D01*
X180406190Y-198312380D02*
X180406190Y-197645714D01*
X180406190Y-197836190D02*
X180358571Y-197740952D01*
X180310952Y-197693333D01*
X180215714Y-197645714D01*
X180120476Y-197645714D01*
X179787142Y-198312380D02*
X179787142Y-197645714D01*
X179787142Y-197312380D02*
X179834761Y-197360000D01*
X179787142Y-197407619D01*
X179739523Y-197360000D01*
X179787142Y-197312380D01*
X179787142Y-197407619D01*
X178882380Y-198312380D02*
X178882380Y-197312380D01*
X178882380Y-198264761D02*
X178977619Y-198312380D01*
X179168095Y-198312380D01*
X179263333Y-198264761D01*
X179310952Y-198217142D01*
X179358571Y-198121904D01*
X179358571Y-197836190D01*
X179310952Y-197740952D01*
X179263333Y-197693333D01*
X179168095Y-197645714D01*
X178977619Y-197645714D01*
X178882380Y-197693333D01*
X177977619Y-197645714D02*
X177977619Y-198455238D01*
X178025238Y-198550476D01*
X178072857Y-198598095D01*
X178168095Y-198645714D01*
X178310952Y-198645714D01*
X178406190Y-198598095D01*
X177977619Y-198264761D02*
X178072857Y-198312380D01*
X178263333Y-198312380D01*
X178358571Y-198264761D01*
X178406190Y-198217142D01*
X178453809Y-198121904D01*
X178453809Y-197836190D01*
X178406190Y-197740952D01*
X178358571Y-197693333D01*
X178263333Y-197645714D01*
X178072857Y-197645714D01*
X177977619Y-197693333D01*
X177120476Y-198264761D02*
X177215714Y-198312380D01*
X177406190Y-198312380D01*
X177501428Y-198264761D01*
X177549047Y-198169523D01*
X177549047Y-197788571D01*
X177501428Y-197693333D01*
X177406190Y-197645714D01*
X177215714Y-197645714D01*
X177120476Y-197693333D01*
X177072857Y-197788571D01*
X177072857Y-197883809D01*
X177549047Y-197979047D01*
X176120476Y-198312380D02*
X176691904Y-198312380D01*
X176406190Y-198312380D02*
X176406190Y-197312380D01*
X176501428Y-197455238D01*
X176596666Y-197550476D01*
X176691904Y-197598095D01*
%TO.C,Power_jack1*%
X143202380Y-30192857D02*
X142202380Y-30192857D01*
X142202380Y-30573809D01*
X142250000Y-30669047D01*
X142297619Y-30716666D01*
X142392857Y-30764285D01*
X142535714Y-30764285D01*
X142630952Y-30716666D01*
X142678571Y-30669047D01*
X142726190Y-30573809D01*
X142726190Y-30192857D01*
X143202380Y-31335714D02*
X143154761Y-31240476D01*
X143107142Y-31192857D01*
X143011904Y-31145238D01*
X142726190Y-31145238D01*
X142630952Y-31192857D01*
X142583333Y-31240476D01*
X142535714Y-31335714D01*
X142535714Y-31478571D01*
X142583333Y-31573809D01*
X142630952Y-31621428D01*
X142726190Y-31669047D01*
X143011904Y-31669047D01*
X143107142Y-31621428D01*
X143154761Y-31573809D01*
X143202380Y-31478571D01*
X143202380Y-31335714D01*
X142535714Y-32002380D02*
X143202380Y-32192857D01*
X142726190Y-32383333D01*
X143202380Y-32573809D01*
X142535714Y-32764285D01*
X143154761Y-33526190D02*
X143202380Y-33430952D01*
X143202380Y-33240476D01*
X143154761Y-33145238D01*
X143059523Y-33097619D01*
X142678571Y-33097619D01*
X142583333Y-33145238D01*
X142535714Y-33240476D01*
X142535714Y-33430952D01*
X142583333Y-33526190D01*
X142678571Y-33573809D01*
X142773809Y-33573809D01*
X142869047Y-33097619D01*
X143202380Y-34002380D02*
X142535714Y-34002380D01*
X142726190Y-34002380D02*
X142630952Y-34050000D01*
X142583333Y-34097619D01*
X142535714Y-34192857D01*
X142535714Y-34288095D01*
X143297619Y-34383333D02*
X143297619Y-35145238D01*
X142535714Y-35383333D02*
X143392857Y-35383333D01*
X143488095Y-35335714D01*
X143535714Y-35240476D01*
X143535714Y-35192857D01*
X142202380Y-35383333D02*
X142250000Y-35335714D01*
X142297619Y-35383333D01*
X142250000Y-35430952D01*
X142202380Y-35383333D01*
X142297619Y-35383333D01*
X143202380Y-36288095D02*
X142678571Y-36288095D01*
X142583333Y-36240476D01*
X142535714Y-36145238D01*
X142535714Y-35954761D01*
X142583333Y-35859523D01*
X143154761Y-36288095D02*
X143202380Y-36192857D01*
X143202380Y-35954761D01*
X143154761Y-35859523D01*
X143059523Y-35811904D01*
X142964285Y-35811904D01*
X142869047Y-35859523D01*
X142821428Y-35954761D01*
X142821428Y-36192857D01*
X142773809Y-36288095D01*
X143154761Y-37192857D02*
X143202380Y-37097619D01*
X143202380Y-36907142D01*
X143154761Y-36811904D01*
X143107142Y-36764285D01*
X143011904Y-36716666D01*
X142726190Y-36716666D01*
X142630952Y-36764285D01*
X142583333Y-36811904D01*
X142535714Y-36907142D01*
X142535714Y-37097619D01*
X142583333Y-37192857D01*
X143202380Y-37621428D02*
X142202380Y-37621428D01*
X142821428Y-37716666D02*
X143202380Y-38002380D01*
X142535714Y-38002380D02*
X142916666Y-37621428D01*
X143202380Y-38954761D02*
X143202380Y-38383333D01*
X143202380Y-38669047D02*
X142202380Y-38669047D01*
X142345238Y-38573809D01*
X142440476Y-38478571D01*
X142488095Y-38383333D01*
%TO.C,Arduino Pro Micro*%
X173416666Y-41750952D02*
X173416666Y-42227142D01*
X173702380Y-41655714D02*
X172702380Y-41989047D01*
X173702380Y-42322380D01*
X173702380Y-42655714D02*
X173035714Y-42655714D01*
X173226190Y-42655714D02*
X173130952Y-42703333D01*
X173083333Y-42750952D01*
X173035714Y-42846190D01*
X173035714Y-42941428D01*
X173702380Y-43703333D02*
X172702380Y-43703333D01*
X173654761Y-43703333D02*
X173702380Y-43608095D01*
X173702380Y-43417619D01*
X173654761Y-43322380D01*
X173607142Y-43274761D01*
X173511904Y-43227142D01*
X173226190Y-43227142D01*
X173130952Y-43274761D01*
X173083333Y-43322380D01*
X173035714Y-43417619D01*
X173035714Y-43608095D01*
X173083333Y-43703333D01*
X173035714Y-44608095D02*
X173702380Y-44608095D01*
X173035714Y-44179523D02*
X173559523Y-44179523D01*
X173654761Y-44227142D01*
X173702380Y-44322380D01*
X173702380Y-44465238D01*
X173654761Y-44560476D01*
X173607142Y-44608095D01*
X173702380Y-45084285D02*
X173035714Y-45084285D01*
X172702380Y-45084285D02*
X172750000Y-45036666D01*
X172797619Y-45084285D01*
X172750000Y-45131904D01*
X172702380Y-45084285D01*
X172797619Y-45084285D01*
X173035714Y-45560476D02*
X173702380Y-45560476D01*
X173130952Y-45560476D02*
X173083333Y-45608095D01*
X173035714Y-45703333D01*
X173035714Y-45846190D01*
X173083333Y-45941428D01*
X173178571Y-45989047D01*
X173702380Y-45989047D01*
X173702380Y-46608095D02*
X173654761Y-46512857D01*
X173607142Y-46465238D01*
X173511904Y-46417619D01*
X173226190Y-46417619D01*
X173130952Y-46465238D01*
X173083333Y-46512857D01*
X173035714Y-46608095D01*
X173035714Y-46750952D01*
X173083333Y-46846190D01*
X173130952Y-46893809D01*
X173226190Y-46941428D01*
X173511904Y-46941428D01*
X173607142Y-46893809D01*
X173654761Y-46846190D01*
X173702380Y-46750952D01*
X173702380Y-46608095D01*
X173702380Y-48131904D02*
X172702380Y-48131904D01*
X172702380Y-48512857D01*
X172750000Y-48608095D01*
X172797619Y-48655714D01*
X172892857Y-48703333D01*
X173035714Y-48703333D01*
X173130952Y-48655714D01*
X173178571Y-48608095D01*
X173226190Y-48512857D01*
X173226190Y-48131904D01*
X173702380Y-49131904D02*
X173035714Y-49131904D01*
X173226190Y-49131904D02*
X173130952Y-49179523D01*
X173083333Y-49227142D01*
X173035714Y-49322380D01*
X173035714Y-49417619D01*
X173702380Y-49893809D02*
X173654761Y-49798571D01*
X173607142Y-49750952D01*
X173511904Y-49703333D01*
X173226190Y-49703333D01*
X173130952Y-49750952D01*
X173083333Y-49798571D01*
X173035714Y-49893809D01*
X173035714Y-50036666D01*
X173083333Y-50131904D01*
X173130952Y-50179523D01*
X173226190Y-50227142D01*
X173511904Y-50227142D01*
X173607142Y-50179523D01*
X173654761Y-50131904D01*
X173702380Y-50036666D01*
X173702380Y-49893809D01*
X173702380Y-51417619D02*
X172702380Y-51417619D01*
X173416666Y-51750952D01*
X172702380Y-52084285D01*
X173702380Y-52084285D01*
X173702380Y-52560476D02*
X173035714Y-52560476D01*
X172702380Y-52560476D02*
X172750000Y-52512857D01*
X172797619Y-52560476D01*
X172750000Y-52608095D01*
X172702380Y-52560476D01*
X172797619Y-52560476D01*
X173654761Y-53465238D02*
X173702380Y-53370000D01*
X173702380Y-53179523D01*
X173654761Y-53084285D01*
X173607142Y-53036666D01*
X173511904Y-52989047D01*
X173226190Y-52989047D01*
X173130952Y-53036666D01*
X173083333Y-53084285D01*
X173035714Y-53179523D01*
X173035714Y-53370000D01*
X173083333Y-53465238D01*
X173702380Y-53893809D02*
X173035714Y-53893809D01*
X173226190Y-53893809D02*
X173130952Y-53941428D01*
X173083333Y-53989047D01*
X173035714Y-54084285D01*
X173035714Y-54179523D01*
X173702380Y-54655714D02*
X173654761Y-54560476D01*
X173607142Y-54512857D01*
X173511904Y-54465238D01*
X173226190Y-54465238D01*
X173130952Y-54512857D01*
X173083333Y-54560476D01*
X173035714Y-54655714D01*
X173035714Y-54798571D01*
X173083333Y-54893809D01*
X173130952Y-54941428D01*
X173226190Y-54989047D01*
X173511904Y-54989047D01*
X173607142Y-54941428D01*
X173654761Y-54893809D01*
X173702380Y-54798571D01*
X173702380Y-54655714D01*
%TD*%
M02*
