M48
; DRILL file {KiCad (5.1.7-0-10_14)} date Tuesday, September 21, 2021 at 06:25:30 PM
; FORMAT={-:-/ absolute / metric / decimal}
; #@! TF.CreationDate,2021-09-21T18:25:30-03:00
; #@! TF.GenerationSoftware,Kicad,Pcbnew,(5.1.7-0-10_14)
; #@! TF.FileFunction,Plated,1,2,PTH
FMAT,2
METRIC
T1C0.400
T2C0.800
T3C1.000
T4C1.100
T5C2.600
T6C3.200
%
G90
G05
T1
X65.79Y-74.93
X66.25Y-126.12
X66.56Y-151.97
X66.73Y-53.06
X67.96Y-131.19
X70.85Y-158.22
X71.68Y-74.93
X71.76Y-209.24
X71.78Y-150.43
X71.94Y-50.3
X72.07Y-158.95
X72.29Y-85.73
X72.29Y-126.99
X72.4Y-133.9
X72.4Y-184.45
X72.41Y-152.33
X72.53Y-73.08
X72.59Y-124.39
X72.844Y-83.358
X73.44Y-58.68
X73.74Y-177.72
X74.38Y-174.96
X74.47Y-121.56
X74.48Y-152.87
X74.56Y-53.37
X74.56Y-63.37
X74.72Y-146.68
X74.91Y-127.92
X75.03Y-71.5
X75.71Y-202.9
X75.74Y-78.25
X75.8Y-53.06
X75.98Y-61.8
X77.27Y-202.13
X77.31Y-172.97
X77.45Y-73.05
X77.5Y-184.52
X77.51Y-175.06
X77.52Y-136.49
X77.57Y-75.06
X77.68Y-49.91
X77.94Y-149.96
X77.95Y-51.78
X78.0Y-198.51
X78.06Y-200.0
X78.07Y-124.99
X78.27Y-210.26
X79.42Y-57.9
X81.78Y-68.85
X83.478Y-63.085
X84.01Y-174.28
X85.39Y-65.435
X85.47Y-199.46
X87.76Y-162.3
X89.95Y-161.05
X92.12Y-44.51
X92.35Y-129.75
X95.83Y-158.22
X96.54Y-49.87
X96.91Y-75.06
X96.94Y-174.86
X96.99Y-59.65
X97.0Y-199.8
X97.08Y-125.19
X97.15Y-126.63
X97.16Y-158.76
X97.56Y-47.99
X97.56Y-210.05
X97.62Y-134.99
X97.62Y-150.03
X97.75Y-152.69
X98.01Y-183.92
X98.07Y-84.29
X98.71Y-177.81
X99.16Y-62.1
X99.25Y-46.95
X99.44Y-111.09
X99.55Y-146.8
X99.82Y-71.72
X99.94Y-153.0
X99.99Y-202.95
X100.11Y-78.03
X100.26Y-127.72
X100.33Y-52.91
X100.34Y-121.82
X100.53Y-196.59
X100.65Y-186.29
X100.9Y-106.08
X100.94Y-33.9
X101.3Y-104.26
X101.48Y-72.09
X101.48Y-177.76
X102.05Y-136.32
X102.09Y-202.57
X102.5Y-125.06
X102.6Y-75.06
X102.62Y-185.06
X102.67Y-50.01
X102.7Y-174.73
X102.95Y-210.39
X103.1Y-149.96
X103.37Y-199.11
X103.64Y-37.24
X103.64Y-37.24
X105.92Y-68.73
X106.35Y-34.3
X109.71Y-89.79
X110.39Y-86.475
X111.13Y-62.52
X111.13Y-65.885
X115.11Y-161.01
X116.59Y-176.01
X117.17Y-44.61
X119.74Y-132.63
X119.76Y-209.82
X120.34Y-157.26
X121.52Y-50.4
X121.64Y-175.34
X121.81Y-75.06
X121.84Y-48.9
X121.91Y-125.13
X121.98Y-150.03
X122.07Y-199.67
X122.08Y-133.95
X122.12Y-184.91
X122.16Y-210.29
X122.26Y-126.99
X122.38Y-151.85
X122.43Y-158.83
X122.7Y-172.29
X122.83Y-83.41
X122.86Y-59.32
X123.66Y-178.11
X124.52Y-152.75
X124.58Y-77.84
X124.6Y-202.85
X124.65Y-127.93
X125.68Y-52.85
X126.24Y-177.76
X126.34Y-72.09
X126.5Y-202.81
X126.88Y-40.73
X127.32Y-61.38
X127.33Y-184.41
X127.8Y-124.79
X127.83Y-49.97
X127.9Y-75.06
X128.0Y-150.23
X128.07Y-110.74
X128.13Y-210.15
X128.94Y-113.175
X132.23Y-68.61
X132.278Y-42.792
X133.07Y-35.68
X136.81Y-46.705
X140.38Y-203.28
X143.16Y-43.86
X144.24Y-131.55
X144.72Y-157.5
X145.92Y-66.69
X146.74Y-150.03
X146.88Y-50.2
X146.88Y-166.31
X146.94Y-125.33
X146.98Y-75.0
X147.05Y-183.71
X147.06Y-175.69
X147.1Y-210.05
X147.16Y-200.03
X147.36Y-127.35
X147.36Y-151.85
X147.48Y-48.19
X147.51Y-158.45
X147.73Y-60.63
X147.76Y-133.95
X148.03Y-83.97
X148.54Y-202.73
X148.8Y-72.09
X149.08Y-171.84
X149.22Y-128.08
X149.27Y-78.11
X149.28Y-153.06
X149.3Y-141.4
X150.37Y-177.68
X150.39Y-146.58
X150.8Y-58.45
X151.0Y-52.95
X151.18Y-202.49
X152.34Y-73.88
X152.51Y-175.08
X152.72Y-198.43
X152.97Y-124.93
X153.04Y-138.265
X153.1Y-209.93
X153.24Y-49.57
X157.29Y-62.185
X157.905Y-64.535
X158.02Y-52.17
X158.56Y-74.15
X158.848Y-60.385
X159.033Y-61.367
X159.518Y-66.015
X159.52Y-114.67
X159.605Y-113.26
X159.605Y-116.01
X160.75Y-106.75
X160.86Y-96.0
X161.382Y-165.622
X161.49Y-104.64
X162.342Y-105.412
X162.7Y-100.6
X162.874Y-110.114
X162.936Y-165.094
X162.944Y-64.254
X163.196Y-158.824
X163.305Y-111.898
X163.938Y-113.308
X163.97Y-171.57
X163.996Y-87.446
X164.008Y-160.272
X164.164Y-108.824
X164.176Y-166.334
X164.59Y-81.62
X164.603Y-167.787
X164.733Y-160.961
X165.035Y-187.44
X165.15Y-102.405
X165.65Y-81.86
X165.8Y-89.71
X165.888Y-162.152
X167.059Y-188.739
X167.6Y-95.275
X168.137Y-79.863
X168.72Y-65.57
X169.84Y-71.57
X169.87Y-62.93
X170.19Y-184.39
X170.38Y-41.27
X170.4Y-54.57
X170.4Y-56.61
X170.527Y-52.033
X170.82Y-186.32
X170.85Y-64.42
X171.0Y-97.84
X171.797Y-97.236
X172.19Y-169.8
X172.3Y-56.85
X172.42Y-55.49
X172.75Y-48.97
X173.52Y-96.29
X173.61Y-98.85
X173.75Y-81.74
X174.122Y-169.542
X174.2Y-47.13
X174.475Y-80.925
X174.475Y-92.31
X174.893Y-170.823
X175.1Y-53.97
X175.35Y-77.52
X175.55Y-64.3
X176.328Y-77.311
X176.65Y-79.8
X176.87Y-78.815
X176.91Y-46.405
X177.093Y-75.887
X177.15Y-66.72
X177.325Y-77.145
X177.59Y-33.35
X177.745Y-113.04
X177.854Y-78.634
X177.875Y-116.618
X178.26Y-38.85
X178.325Y-117.702
X178.579Y-79.79
X178.645Y-96.883
X178.832Y-164.471
X179.035Y-84.62
X179.035Y-94.37
X179.31Y-174.55
X179.76Y-91.93
X179.76Y-92.93
X180.875Y-173.05
X180.875Y-174.05
X180.875Y-187.87
X183.05Y-40.63
X183.37Y-37.43
X184.26Y-30.55
T2
X176.12Y-177.75
X176.12Y-180.29
X176.12Y-182.83
X176.12Y-185.37
X176.12Y-187.91
X176.12Y-190.45
X176.12Y-192.99
X176.12Y-195.53
X183.74Y-177.75
X183.74Y-180.29
X183.74Y-182.83
X183.74Y-185.37
X183.74Y-187.91
X183.74Y-190.45
X183.74Y-192.99
X183.74Y-195.53
T3
X180.59Y-67.71
X180.59Y-70.25
X180.59Y-72.79
X180.59Y-75.33
X180.59Y-77.87
X180.59Y-80.41
X110.05Y-93.03
X110.05Y-107.53
X112.55Y-107.53
X115.05Y-93.03
X115.05Y-107.53
X66.475Y-106.56
X66.475Y-109.1
X66.5Y-93.56
X66.5Y-96.1
X66.5Y-98.64
X66.5Y-101.18
T4
X165.38Y-34.03
X165.38Y-36.57
X165.38Y-39.11
X165.38Y-41.65
X165.38Y-44.19
X165.38Y-46.73
X165.38Y-49.27
X165.38Y-51.81
X165.38Y-54.35
X165.38Y-56.89
X165.38Y-59.43
X165.38Y-61.97
X180.62Y-34.03
X180.62Y-36.57
X180.62Y-39.11
X180.62Y-41.65
X180.62Y-44.19
X180.62Y-46.73
X180.62Y-49.27
X180.62Y-51.81
X180.62Y-54.35
X180.62Y-56.89
X180.62Y-59.43
X180.62Y-61.97
T5
X106.95Y-100.03
X118.15Y-100.03
T6
X185.5Y-121.5
X185.5Y-209.5
X58.0Y-209.5
X58.0Y-121.5
X185.5Y-33.5
X58.0Y-33.5
T3
G00X138.0Y-37.0
M15
G01X136.0Y-37.0
M16
G05
G00X138.0Y-43.0
M15
G01X136.0Y-43.0
M16
G05
G00X141.7Y-39.0
M15
G01X141.7Y-41.0
M16
G05
T0
M30
