%TF.GenerationSoftware,KiCad,Pcbnew,(5.1.7-0-10_14)*%
%TF.CreationDate,2021-09-21T18:25:25-03:00*%
%TF.ProjectId,Faduino-1,46616475-696e-46f2-9d31-2e6b69636164,1*%
%TF.SameCoordinates,Original*%
%TF.FileFunction,Soldermask,Bot*%
%TF.FilePolarity,Negative*%
%FSLAX46Y46*%
G04 Gerber Fmt 4.6, Leading zero omitted, Abs format (unit mm)*
G04 Created by KiCad (PCBNEW (5.1.7-0-10_14)) date 2021-09-21 18:25:25*
%MOMM*%
%LPD*%
G01*
G04 APERTURE LIST*
%ADD10O,1.700000X1.700000*%
%ADD11R,1.700000X1.700000*%
%ADD12R,2.000000X2.000000*%
%ADD13C,2.000000*%
%ADD14C,3.200000*%
%ADD15O,2.400000X1.600000*%
%ADD16R,2.400000X1.600000*%
%ADD17R,3.500000X3.500000*%
%ADD18C,1.600000*%
%ADD19R,1.600000X1.600000*%
G04 APERTURE END LIST*
D10*
%TO.C,dc_motor_conn1*%
X66475000Y-106560000D03*
D11*
X66475000Y-109100000D03*
%TD*%
D12*
%TO.C,Encoder1*%
X110050000Y-107530000D03*
D13*
X112550000Y-107530000D03*
X115050000Y-107530000D03*
D14*
X106950000Y-100030000D03*
X118150000Y-100030000D03*
D13*
X110050000Y-93030000D03*
X115050000Y-93030000D03*
%TD*%
D10*
%TO.C,Extra_pins1*%
X180590000Y-67710000D03*
X180590000Y-70250000D03*
X180590000Y-72790000D03*
X180590000Y-75330000D03*
X180590000Y-77870000D03*
D11*
X180590000Y-80410000D03*
%TD*%
D10*
%TO.C,Fader_conn1*%
X66500000Y-93560000D03*
X66500000Y-96100000D03*
X66500000Y-98640000D03*
D11*
X66500000Y-101180000D03*
%TD*%
D15*
%TO.C,H-Bridge1*%
X183740000Y-195530000D03*
X176120000Y-177750000D03*
X183740000Y-192990000D03*
X176120000Y-180290000D03*
X183740000Y-190450000D03*
X176120000Y-182830000D03*
X183740000Y-187910000D03*
X176120000Y-185370000D03*
X183740000Y-185370000D03*
X176120000Y-187910000D03*
X183740000Y-182830000D03*
X176120000Y-190450000D03*
X183740000Y-180290000D03*
X176120000Y-192990000D03*
X183740000Y-177750000D03*
D16*
X176120000Y-195530000D03*
%TD*%
%TO.C,Power_jack1*%
G36*
G01*
X140825000Y-38250000D02*
X142575000Y-38250000D01*
G75*
G02*
X143450000Y-39125000I0J-875000D01*
G01*
X143450000Y-40875000D01*
G75*
G02*
X142575000Y-41750000I-875000J0D01*
G01*
X140825000Y-41750000D01*
G75*
G02*
X139950000Y-40875000I0J875000D01*
G01*
X139950000Y-39125000D01*
G75*
G02*
X140825000Y-38250000I875000J0D01*
G01*
G37*
G36*
G01*
X136000000Y-35500000D02*
X138000000Y-35500000D01*
G75*
G02*
X138750000Y-36250000I0J-750000D01*
G01*
X138750000Y-37750000D01*
G75*
G02*
X138000000Y-38500000I-750000J0D01*
G01*
X136000000Y-38500000D01*
G75*
G02*
X135250000Y-37750000I0J750000D01*
G01*
X135250000Y-36250000D01*
G75*
G02*
X136000000Y-35500000I750000J0D01*
G01*
G37*
D17*
X137000000Y-43000000D03*
%TD*%
D18*
%TO.C,Arduino Pro Micro*%
X165380000Y-34030000D03*
X165380000Y-36570000D03*
X165380000Y-39110000D03*
X165380000Y-41650000D03*
X165380000Y-44190000D03*
X165380000Y-46730000D03*
X165380000Y-49270000D03*
X165380000Y-51810000D03*
X165380000Y-54350000D03*
X165380000Y-56890000D03*
X165380000Y-59430000D03*
X165380000Y-61970000D03*
X180620000Y-61970000D03*
X180620000Y-59430000D03*
X180620000Y-56890000D03*
X180620000Y-54350000D03*
X180620000Y-51810000D03*
X180620000Y-49270000D03*
X180620000Y-46730000D03*
X180620000Y-44190000D03*
X180620000Y-41650000D03*
X180620000Y-39110000D03*
X180620000Y-36570000D03*
D19*
X180620000Y-34030000D03*
%TD*%
M02*
