%TF.GenerationSoftware,KiCad,Pcbnew,(5.1.7-0-10_14)*%
%TF.CreationDate,2021-09-21T18:25:26-03:00*%
%TF.ProjectId,Faduino-1,46616475-696e-46f2-9d31-2e6b69636164,1*%
%TF.SameCoordinates,Original*%
%TF.FileFunction,Other,Fab,Bot*%
%FSLAX46Y46*%
G04 Gerber Fmt 4.6, Leading zero omitted, Abs format (unit mm)*
G04 Created by KiCad (PCBNEW (5.1.7-0-10_14)) date 2021-09-21 18:25:26*
%MOMM*%
%LPD*%
G01*
G04 APERTURE LIST*
%ADD10C,0.100000*%
%ADD11C,0.150000*%
G04 APERTURE END LIST*
D10*
%TO.C,dc_motor_conn1*%
X65205000Y-109735000D02*
X65840000Y-110370000D01*
X65205000Y-105290000D02*
X65205000Y-109735000D01*
X67745000Y-105290000D02*
X65205000Y-105290000D01*
X67745000Y-110370000D02*
X67745000Y-105290000D01*
X65840000Y-110370000D02*
X67745000Y-110370000D01*
%TO.C,Extra_pins1*%
X179320000Y-66440000D02*
X179320000Y-81680000D01*
X181860000Y-66440000D02*
X179320000Y-66440000D01*
X181860000Y-81045000D02*
X181860000Y-66440000D01*
X181225000Y-81680000D02*
X181860000Y-81045000D01*
X179320000Y-81680000D02*
X181225000Y-81680000D01*
%TO.C,Fader_conn1*%
X65230000Y-92290000D02*
X65230000Y-102450000D01*
X67770000Y-92290000D02*
X65230000Y-92290000D01*
X67770000Y-101815000D02*
X67770000Y-92290000D01*
X67135000Y-102450000D02*
X67770000Y-101815000D01*
X65230000Y-102450000D02*
X67135000Y-102450000D01*
%TO.C,H-Bridge1*%
X176755000Y-195800000D02*
X177755000Y-196800000D01*
X176755000Y-176480000D02*
X176755000Y-195800000D01*
X183105000Y-176480000D02*
X176755000Y-176480000D01*
X183105000Y-196800000D02*
X183105000Y-176480000D01*
X177755000Y-196800000D02*
X183105000Y-196800000D01*
%TO.C,Power_jack1*%
X132500000Y-43000000D02*
X132500000Y-29300000D01*
X141500000Y-43800000D02*
X133250000Y-43800000D01*
X141500000Y-29300000D02*
X141500000Y-43800000D01*
X132500000Y-29300000D02*
X141500000Y-29300000D01*
X132500000Y-32800000D02*
X141500000Y-32800000D01*
X132494575Y-42996787D02*
X133250000Y-43800000D01*
%TD*%
%TO.C,dc_motor_conn1*%
D11*
X70213095Y-104587142D02*
X70260714Y-104634761D01*
X70403571Y-104682380D01*
X70498809Y-104682380D01*
X70641666Y-104634761D01*
X70736904Y-104539523D01*
X70784523Y-104444285D01*
X70832142Y-104253809D01*
X70832142Y-104110952D01*
X70784523Y-103920476D01*
X70736904Y-103825238D01*
X70641666Y-103730000D01*
X70498809Y-103682380D01*
X70403571Y-103682380D01*
X70260714Y-103730000D01*
X70213095Y-103777619D01*
X69641666Y-104682380D02*
X69736904Y-104634761D01*
X69784523Y-104587142D01*
X69832142Y-104491904D01*
X69832142Y-104206190D01*
X69784523Y-104110952D01*
X69736904Y-104063333D01*
X69641666Y-104015714D01*
X69498809Y-104015714D01*
X69403571Y-104063333D01*
X69355952Y-104110952D01*
X69308333Y-104206190D01*
X69308333Y-104491904D01*
X69355952Y-104587142D01*
X69403571Y-104634761D01*
X69498809Y-104682380D01*
X69641666Y-104682380D01*
X68879761Y-104015714D02*
X68879761Y-104682380D01*
X68879761Y-104110952D02*
X68832142Y-104063333D01*
X68736904Y-104015714D01*
X68594047Y-104015714D01*
X68498809Y-104063333D01*
X68451190Y-104158571D01*
X68451190Y-104682380D01*
X67975000Y-104015714D02*
X67975000Y-104682380D01*
X67975000Y-104110952D02*
X67927380Y-104063333D01*
X67832142Y-104015714D01*
X67689285Y-104015714D01*
X67594047Y-104063333D01*
X67546428Y-104158571D01*
X67546428Y-104682380D01*
X67308333Y-104777619D02*
X66546428Y-104777619D01*
X66117857Y-103682380D02*
X66022619Y-103682380D01*
X65927380Y-103730000D01*
X65879761Y-103777619D01*
X65832142Y-103872857D01*
X65784523Y-104063333D01*
X65784523Y-104301428D01*
X65832142Y-104491904D01*
X65879761Y-104587142D01*
X65927380Y-104634761D01*
X66022619Y-104682380D01*
X66117857Y-104682380D01*
X66213095Y-104634761D01*
X66260714Y-104587142D01*
X66308333Y-104491904D01*
X66355952Y-104301428D01*
X66355952Y-104063333D01*
X66308333Y-103872857D01*
X66260714Y-103777619D01*
X66213095Y-103730000D01*
X66117857Y-103682380D01*
X64832142Y-104682380D02*
X65403571Y-104682380D01*
X65117857Y-104682380D02*
X65117857Y-103682380D01*
X65213095Y-103825238D01*
X65308333Y-103920476D01*
X65403571Y-103968095D01*
X64498809Y-104682380D02*
X63975000Y-104015714D01*
X64498809Y-104015714D02*
X63975000Y-104682380D01*
X63403571Y-103682380D02*
X63308333Y-103682380D01*
X63213095Y-103730000D01*
X63165476Y-103777619D01*
X63117857Y-103872857D01*
X63070238Y-104063333D01*
X63070238Y-104301428D01*
X63117857Y-104491904D01*
X63165476Y-104587142D01*
X63213095Y-104634761D01*
X63308333Y-104682380D01*
X63403571Y-104682380D01*
X63498809Y-104634761D01*
X63546428Y-104587142D01*
X63594047Y-104491904D01*
X63641666Y-104301428D01*
X63641666Y-104063333D01*
X63594047Y-103872857D01*
X63546428Y-103777619D01*
X63498809Y-103730000D01*
X63403571Y-103682380D01*
X62689285Y-103777619D02*
X62641666Y-103730000D01*
X62546428Y-103682380D01*
X62308333Y-103682380D01*
X62213095Y-103730000D01*
X62165476Y-103777619D01*
X62117857Y-103872857D01*
X62117857Y-103968095D01*
X62165476Y-104110952D01*
X62736904Y-104682380D01*
X62117857Y-104682380D01*
X66022619Y-113234761D02*
X67022619Y-113234761D01*
X66070238Y-113234761D02*
X66022619Y-113330000D01*
X66022619Y-113520476D01*
X66070238Y-113615714D01*
X66117857Y-113663333D01*
X66213095Y-113710952D01*
X66498809Y-113710952D01*
X66594047Y-113663333D01*
X66641666Y-113615714D01*
X66689285Y-113520476D01*
X66689285Y-113330000D01*
X66641666Y-113234761D01*
X66070238Y-112330000D02*
X66022619Y-112425238D01*
X66022619Y-112615714D01*
X66070238Y-112710952D01*
X66117857Y-112758571D01*
X66213095Y-112806190D01*
X66498809Y-112806190D01*
X66594047Y-112758571D01*
X66641666Y-112710952D01*
X66689285Y-112615714D01*
X66689285Y-112425238D01*
X66641666Y-112330000D01*
X65927380Y-112139523D02*
X65927380Y-111377619D01*
X66022619Y-111139523D02*
X66689285Y-111139523D01*
X66594047Y-111139523D02*
X66641666Y-111091904D01*
X66689285Y-110996666D01*
X66689285Y-110853809D01*
X66641666Y-110758571D01*
X66546428Y-110710952D01*
X66022619Y-110710952D01*
X66546428Y-110710952D02*
X66641666Y-110663333D01*
X66689285Y-110568095D01*
X66689285Y-110425238D01*
X66641666Y-110330000D01*
X66546428Y-110282380D01*
X66022619Y-110282380D01*
X66022619Y-109663333D02*
X66070238Y-109758571D01*
X66117857Y-109806190D01*
X66213095Y-109853809D01*
X66498809Y-109853809D01*
X66594047Y-109806190D01*
X66641666Y-109758571D01*
X66689285Y-109663333D01*
X66689285Y-109520476D01*
X66641666Y-109425238D01*
X66594047Y-109377619D01*
X66498809Y-109330000D01*
X66213095Y-109330000D01*
X66117857Y-109377619D01*
X66070238Y-109425238D01*
X66022619Y-109520476D01*
X66022619Y-109663333D01*
X66689285Y-109044285D02*
X66689285Y-108663333D01*
X67022619Y-108901428D02*
X66165476Y-108901428D01*
X66070238Y-108853809D01*
X66022619Y-108758571D01*
X66022619Y-108663333D01*
X66022619Y-108187142D02*
X66070238Y-108282380D01*
X66117857Y-108330000D01*
X66213095Y-108377619D01*
X66498809Y-108377619D01*
X66594047Y-108330000D01*
X66641666Y-108282380D01*
X66689285Y-108187142D01*
X66689285Y-108044285D01*
X66641666Y-107949047D01*
X66594047Y-107901428D01*
X66498809Y-107853809D01*
X66213095Y-107853809D01*
X66117857Y-107901428D01*
X66070238Y-107949047D01*
X66022619Y-108044285D01*
X66022619Y-108187142D01*
X66022619Y-107425238D02*
X66689285Y-107425238D01*
X66498809Y-107425238D02*
X66594047Y-107377619D01*
X66641666Y-107330000D01*
X66689285Y-107234761D01*
X66689285Y-107139523D01*
X65927380Y-107044285D02*
X65927380Y-106282380D01*
X66070238Y-105615714D02*
X66022619Y-105710952D01*
X66022619Y-105901428D01*
X66070238Y-105996666D01*
X66117857Y-106044285D01*
X66213095Y-106091904D01*
X66498809Y-106091904D01*
X66594047Y-106044285D01*
X66641666Y-105996666D01*
X66689285Y-105901428D01*
X66689285Y-105710952D01*
X66641666Y-105615714D01*
X66022619Y-105044285D02*
X66070238Y-105139523D01*
X66117857Y-105187142D01*
X66213095Y-105234761D01*
X66498809Y-105234761D01*
X66594047Y-105187142D01*
X66641666Y-105139523D01*
X66689285Y-105044285D01*
X66689285Y-104901428D01*
X66641666Y-104806190D01*
X66594047Y-104758571D01*
X66498809Y-104710952D01*
X66213095Y-104710952D01*
X66117857Y-104758571D01*
X66070238Y-104806190D01*
X66022619Y-104901428D01*
X66022619Y-105044285D01*
X66689285Y-104282380D02*
X66022619Y-104282380D01*
X66594047Y-104282380D02*
X66641666Y-104234761D01*
X66689285Y-104139523D01*
X66689285Y-103996666D01*
X66641666Y-103901428D01*
X66546428Y-103853809D01*
X66022619Y-103853809D01*
X66689285Y-103377619D02*
X66022619Y-103377619D01*
X66594047Y-103377619D02*
X66641666Y-103330000D01*
X66689285Y-103234761D01*
X66689285Y-103091904D01*
X66641666Y-102996666D01*
X66546428Y-102949047D01*
X66022619Y-102949047D01*
X66022619Y-101949047D02*
X66022619Y-102520476D01*
X66022619Y-102234761D02*
X67022619Y-102234761D01*
X66879761Y-102330000D01*
X66784523Y-102425238D01*
X66736904Y-102520476D01*
%TO.C,Extra_pins1*%
X184328095Y-65297142D02*
X184375714Y-65344761D01*
X184518571Y-65392380D01*
X184613809Y-65392380D01*
X184756666Y-65344761D01*
X184851904Y-65249523D01*
X184899523Y-65154285D01*
X184947142Y-64963809D01*
X184947142Y-64820952D01*
X184899523Y-64630476D01*
X184851904Y-64535238D01*
X184756666Y-64440000D01*
X184613809Y-64392380D01*
X184518571Y-64392380D01*
X184375714Y-64440000D01*
X184328095Y-64487619D01*
X183756666Y-65392380D02*
X183851904Y-65344761D01*
X183899523Y-65297142D01*
X183947142Y-65201904D01*
X183947142Y-64916190D01*
X183899523Y-64820952D01*
X183851904Y-64773333D01*
X183756666Y-64725714D01*
X183613809Y-64725714D01*
X183518571Y-64773333D01*
X183470952Y-64820952D01*
X183423333Y-64916190D01*
X183423333Y-65201904D01*
X183470952Y-65297142D01*
X183518571Y-65344761D01*
X183613809Y-65392380D01*
X183756666Y-65392380D01*
X182994761Y-64725714D02*
X182994761Y-65392380D01*
X182994761Y-64820952D02*
X182947142Y-64773333D01*
X182851904Y-64725714D01*
X182709047Y-64725714D01*
X182613809Y-64773333D01*
X182566190Y-64868571D01*
X182566190Y-65392380D01*
X182090000Y-64725714D02*
X182090000Y-65392380D01*
X182090000Y-64820952D02*
X182042380Y-64773333D01*
X181947142Y-64725714D01*
X181804285Y-64725714D01*
X181709047Y-64773333D01*
X181661428Y-64868571D01*
X181661428Y-65392380D01*
X181423333Y-65487619D02*
X180661428Y-65487619D01*
X180232857Y-64392380D02*
X180137619Y-64392380D01*
X180042380Y-64440000D01*
X179994761Y-64487619D01*
X179947142Y-64582857D01*
X179899523Y-64773333D01*
X179899523Y-65011428D01*
X179947142Y-65201904D01*
X179994761Y-65297142D01*
X180042380Y-65344761D01*
X180137619Y-65392380D01*
X180232857Y-65392380D01*
X180328095Y-65344761D01*
X180375714Y-65297142D01*
X180423333Y-65201904D01*
X180470952Y-65011428D01*
X180470952Y-64773333D01*
X180423333Y-64582857D01*
X180375714Y-64487619D01*
X180328095Y-64440000D01*
X180232857Y-64392380D01*
X178947142Y-65392380D02*
X179518571Y-65392380D01*
X179232857Y-65392380D02*
X179232857Y-64392380D01*
X179328095Y-64535238D01*
X179423333Y-64630476D01*
X179518571Y-64678095D01*
X178613809Y-65392380D02*
X178090000Y-64725714D01*
X178613809Y-64725714D02*
X178090000Y-65392380D01*
X177518571Y-64392380D02*
X177423333Y-64392380D01*
X177328095Y-64440000D01*
X177280476Y-64487619D01*
X177232857Y-64582857D01*
X177185238Y-64773333D01*
X177185238Y-65011428D01*
X177232857Y-65201904D01*
X177280476Y-65297142D01*
X177328095Y-65344761D01*
X177423333Y-65392380D01*
X177518571Y-65392380D01*
X177613809Y-65344761D01*
X177661428Y-65297142D01*
X177709047Y-65201904D01*
X177756666Y-65011428D01*
X177756666Y-64773333D01*
X177709047Y-64582857D01*
X177661428Y-64487619D01*
X177613809Y-64440000D01*
X177518571Y-64392380D01*
X176328095Y-64392380D02*
X176518571Y-64392380D01*
X176613809Y-64440000D01*
X176661428Y-64487619D01*
X176756666Y-64630476D01*
X176804285Y-64820952D01*
X176804285Y-65201904D01*
X176756666Y-65297142D01*
X176709047Y-65344761D01*
X176613809Y-65392380D01*
X176423333Y-65392380D01*
X176328095Y-65344761D01*
X176280476Y-65297142D01*
X176232857Y-65201904D01*
X176232857Y-64963809D01*
X176280476Y-64868571D01*
X176328095Y-64820952D01*
X176423333Y-64773333D01*
X176613809Y-64773333D01*
X176709047Y-64820952D01*
X176756666Y-64868571D01*
X176804285Y-64963809D01*
X180661428Y-78131428D02*
X180661428Y-77798095D01*
X180137619Y-77655238D02*
X180137619Y-78131428D01*
X181137619Y-78131428D01*
X181137619Y-77655238D01*
X180137619Y-77321904D02*
X180804285Y-76798095D01*
X180804285Y-77321904D02*
X180137619Y-76798095D01*
X180804285Y-76560000D02*
X180804285Y-76179047D01*
X181137619Y-76417142D02*
X180280476Y-76417142D01*
X180185238Y-76369523D01*
X180137619Y-76274285D01*
X180137619Y-76179047D01*
X180137619Y-75845714D02*
X180804285Y-75845714D01*
X180613809Y-75845714D02*
X180709047Y-75798095D01*
X180756666Y-75750476D01*
X180804285Y-75655238D01*
X180804285Y-75560000D01*
X180137619Y-74798095D02*
X180661428Y-74798095D01*
X180756666Y-74845714D01*
X180804285Y-74940952D01*
X180804285Y-75131428D01*
X180756666Y-75226666D01*
X180185238Y-74798095D02*
X180137619Y-74893333D01*
X180137619Y-75131428D01*
X180185238Y-75226666D01*
X180280476Y-75274285D01*
X180375714Y-75274285D01*
X180470952Y-75226666D01*
X180518571Y-75131428D01*
X180518571Y-74893333D01*
X180566190Y-74798095D01*
X180042380Y-74560000D02*
X180042380Y-73798095D01*
X180804285Y-73560000D02*
X179804285Y-73560000D01*
X180756666Y-73560000D02*
X180804285Y-73464761D01*
X180804285Y-73274285D01*
X180756666Y-73179047D01*
X180709047Y-73131428D01*
X180613809Y-73083809D01*
X180328095Y-73083809D01*
X180232857Y-73131428D01*
X180185238Y-73179047D01*
X180137619Y-73274285D01*
X180137619Y-73464761D01*
X180185238Y-73560000D01*
X180137619Y-72655238D02*
X180804285Y-72655238D01*
X181137619Y-72655238D02*
X181090000Y-72702857D01*
X181042380Y-72655238D01*
X181090000Y-72607619D01*
X181137619Y-72655238D01*
X181042380Y-72655238D01*
X180804285Y-72179047D02*
X180137619Y-72179047D01*
X180709047Y-72179047D02*
X180756666Y-72131428D01*
X180804285Y-72036190D01*
X180804285Y-71893333D01*
X180756666Y-71798095D01*
X180661428Y-71750476D01*
X180137619Y-71750476D01*
X180185238Y-71321904D02*
X180137619Y-71226666D01*
X180137619Y-71036190D01*
X180185238Y-70940952D01*
X180280476Y-70893333D01*
X180328095Y-70893333D01*
X180423333Y-70940952D01*
X180470952Y-71036190D01*
X180470952Y-71179047D01*
X180518571Y-71274285D01*
X180613809Y-71321904D01*
X180661428Y-71321904D01*
X180756666Y-71274285D01*
X180804285Y-71179047D01*
X180804285Y-71036190D01*
X180756666Y-70940952D01*
X180137619Y-69940952D02*
X180137619Y-70512380D01*
X180137619Y-70226666D02*
X181137619Y-70226666D01*
X180994761Y-70321904D01*
X180899523Y-70417142D01*
X180851904Y-70512380D01*
%TO.C,Fader_conn1*%
X70238095Y-91147142D02*
X70285714Y-91194761D01*
X70428571Y-91242380D01*
X70523809Y-91242380D01*
X70666666Y-91194761D01*
X70761904Y-91099523D01*
X70809523Y-91004285D01*
X70857142Y-90813809D01*
X70857142Y-90670952D01*
X70809523Y-90480476D01*
X70761904Y-90385238D01*
X70666666Y-90290000D01*
X70523809Y-90242380D01*
X70428571Y-90242380D01*
X70285714Y-90290000D01*
X70238095Y-90337619D01*
X69666666Y-91242380D02*
X69761904Y-91194761D01*
X69809523Y-91147142D01*
X69857142Y-91051904D01*
X69857142Y-90766190D01*
X69809523Y-90670952D01*
X69761904Y-90623333D01*
X69666666Y-90575714D01*
X69523809Y-90575714D01*
X69428571Y-90623333D01*
X69380952Y-90670952D01*
X69333333Y-90766190D01*
X69333333Y-91051904D01*
X69380952Y-91147142D01*
X69428571Y-91194761D01*
X69523809Y-91242380D01*
X69666666Y-91242380D01*
X68904761Y-90575714D02*
X68904761Y-91242380D01*
X68904761Y-90670952D02*
X68857142Y-90623333D01*
X68761904Y-90575714D01*
X68619047Y-90575714D01*
X68523809Y-90623333D01*
X68476190Y-90718571D01*
X68476190Y-91242380D01*
X68000000Y-90575714D02*
X68000000Y-91242380D01*
X68000000Y-90670952D02*
X67952380Y-90623333D01*
X67857142Y-90575714D01*
X67714285Y-90575714D01*
X67619047Y-90623333D01*
X67571428Y-90718571D01*
X67571428Y-91242380D01*
X67333333Y-91337619D02*
X66571428Y-91337619D01*
X66142857Y-90242380D02*
X66047619Y-90242380D01*
X65952380Y-90290000D01*
X65904761Y-90337619D01*
X65857142Y-90432857D01*
X65809523Y-90623333D01*
X65809523Y-90861428D01*
X65857142Y-91051904D01*
X65904761Y-91147142D01*
X65952380Y-91194761D01*
X66047619Y-91242380D01*
X66142857Y-91242380D01*
X66238095Y-91194761D01*
X66285714Y-91147142D01*
X66333333Y-91051904D01*
X66380952Y-90861428D01*
X66380952Y-90623333D01*
X66333333Y-90432857D01*
X66285714Y-90337619D01*
X66238095Y-90290000D01*
X66142857Y-90242380D01*
X64857142Y-91242380D02*
X65428571Y-91242380D01*
X65142857Y-91242380D02*
X65142857Y-90242380D01*
X65238095Y-90385238D01*
X65333333Y-90480476D01*
X65428571Y-90528095D01*
X64523809Y-91242380D02*
X64000000Y-90575714D01*
X64523809Y-90575714D02*
X64000000Y-91242380D01*
X63428571Y-90242380D02*
X63333333Y-90242380D01*
X63238095Y-90290000D01*
X63190476Y-90337619D01*
X63142857Y-90432857D01*
X63095238Y-90623333D01*
X63095238Y-90861428D01*
X63142857Y-91051904D01*
X63190476Y-91147142D01*
X63238095Y-91194761D01*
X63333333Y-91242380D01*
X63428571Y-91242380D01*
X63523809Y-91194761D01*
X63571428Y-91147142D01*
X63619047Y-91051904D01*
X63666666Y-90861428D01*
X63666666Y-90623333D01*
X63619047Y-90432857D01*
X63571428Y-90337619D01*
X63523809Y-90290000D01*
X63428571Y-90242380D01*
X62238095Y-90575714D02*
X62238095Y-91242380D01*
X62476190Y-90194761D02*
X62714285Y-90909047D01*
X62095238Y-90909047D01*
X66571428Y-101512857D02*
X66571428Y-101846190D01*
X66047619Y-101846190D02*
X67047619Y-101846190D01*
X67047619Y-101370000D01*
X66047619Y-100560476D02*
X66571428Y-100560476D01*
X66666666Y-100608095D01*
X66714285Y-100703333D01*
X66714285Y-100893809D01*
X66666666Y-100989047D01*
X66095238Y-100560476D02*
X66047619Y-100655714D01*
X66047619Y-100893809D01*
X66095238Y-100989047D01*
X66190476Y-101036666D01*
X66285714Y-101036666D01*
X66380952Y-100989047D01*
X66428571Y-100893809D01*
X66428571Y-100655714D01*
X66476190Y-100560476D01*
X66047619Y-99655714D02*
X67047619Y-99655714D01*
X66095238Y-99655714D02*
X66047619Y-99750952D01*
X66047619Y-99941428D01*
X66095238Y-100036666D01*
X66142857Y-100084285D01*
X66238095Y-100131904D01*
X66523809Y-100131904D01*
X66619047Y-100084285D01*
X66666666Y-100036666D01*
X66714285Y-99941428D01*
X66714285Y-99750952D01*
X66666666Y-99655714D01*
X66095238Y-98798571D02*
X66047619Y-98893809D01*
X66047619Y-99084285D01*
X66095238Y-99179523D01*
X66190476Y-99227142D01*
X66571428Y-99227142D01*
X66666666Y-99179523D01*
X66714285Y-99084285D01*
X66714285Y-98893809D01*
X66666666Y-98798571D01*
X66571428Y-98750952D01*
X66476190Y-98750952D01*
X66380952Y-99227142D01*
X66047619Y-98322380D02*
X66714285Y-98322380D01*
X66523809Y-98322380D02*
X66619047Y-98274761D01*
X66666666Y-98227142D01*
X66714285Y-98131904D01*
X66714285Y-98036666D01*
X65952380Y-97941428D02*
X65952380Y-97179523D01*
X66095238Y-96512857D02*
X66047619Y-96608095D01*
X66047619Y-96798571D01*
X66095238Y-96893809D01*
X66142857Y-96941428D01*
X66238095Y-96989047D01*
X66523809Y-96989047D01*
X66619047Y-96941428D01*
X66666666Y-96893809D01*
X66714285Y-96798571D01*
X66714285Y-96608095D01*
X66666666Y-96512857D01*
X66047619Y-95941428D02*
X66095238Y-96036666D01*
X66142857Y-96084285D01*
X66238095Y-96131904D01*
X66523809Y-96131904D01*
X66619047Y-96084285D01*
X66666666Y-96036666D01*
X66714285Y-95941428D01*
X66714285Y-95798571D01*
X66666666Y-95703333D01*
X66619047Y-95655714D01*
X66523809Y-95608095D01*
X66238095Y-95608095D01*
X66142857Y-95655714D01*
X66095238Y-95703333D01*
X66047619Y-95798571D01*
X66047619Y-95941428D01*
X66714285Y-95179523D02*
X66047619Y-95179523D01*
X66619047Y-95179523D02*
X66666666Y-95131904D01*
X66714285Y-95036666D01*
X66714285Y-94893809D01*
X66666666Y-94798571D01*
X66571428Y-94750952D01*
X66047619Y-94750952D01*
X66714285Y-94274761D02*
X66047619Y-94274761D01*
X66619047Y-94274761D02*
X66666666Y-94227142D01*
X66714285Y-94131904D01*
X66714285Y-93989047D01*
X66666666Y-93893809D01*
X66571428Y-93846190D01*
X66047619Y-93846190D01*
X66047619Y-92846190D02*
X66047619Y-93417619D01*
X66047619Y-93131904D02*
X67047619Y-93131904D01*
X66904761Y-93227142D01*
X66809523Y-93322380D01*
X66761904Y-93417619D01*
%TO.C,H-Bridge1*%
X181549047Y-175872380D02*
X182025238Y-175872380D01*
X182025238Y-174872380D01*
X181263333Y-174967619D02*
X181215714Y-174920000D01*
X181120476Y-174872380D01*
X180882380Y-174872380D01*
X180787142Y-174920000D01*
X180739523Y-174967619D01*
X180691904Y-175062857D01*
X180691904Y-175158095D01*
X180739523Y-175300952D01*
X181310952Y-175872380D01*
X180691904Y-175872380D01*
X180215714Y-175872380D02*
X180025238Y-175872380D01*
X179930000Y-175824761D01*
X179882380Y-175777142D01*
X179787142Y-175634285D01*
X179739523Y-175443809D01*
X179739523Y-175062857D01*
X179787142Y-174967619D01*
X179834761Y-174920000D01*
X179930000Y-174872380D01*
X180120476Y-174872380D01*
X180215714Y-174920000D01*
X180263333Y-174967619D01*
X180310952Y-175062857D01*
X180310952Y-175300952D01*
X180263333Y-175396190D01*
X180215714Y-175443809D01*
X180120476Y-175491428D01*
X179930000Y-175491428D01*
X179834761Y-175443809D01*
X179787142Y-175396190D01*
X179739523Y-175300952D01*
X179406190Y-174872380D02*
X178787142Y-174872380D01*
X179120476Y-175253333D01*
X178977619Y-175253333D01*
X178882380Y-175300952D01*
X178834761Y-175348571D01*
X178787142Y-175443809D01*
X178787142Y-175681904D01*
X178834761Y-175777142D01*
X178882380Y-175824761D01*
X178977619Y-175872380D01*
X179263333Y-175872380D01*
X179358571Y-175824761D01*
X179406190Y-175777142D01*
X178358571Y-175872380D02*
X178358571Y-174872380D01*
X178120476Y-174872380D01*
X177977619Y-174920000D01*
X177882380Y-175015238D01*
X177834761Y-175110476D01*
X177787142Y-175300952D01*
X177787142Y-175443809D01*
X177834761Y-175634285D01*
X177882380Y-175729523D01*
X177977619Y-175824761D01*
X178120476Y-175872380D01*
X178358571Y-175872380D01*
X183691904Y-187092380D02*
X183691904Y-186092380D01*
X183691904Y-186568571D02*
X183120476Y-186568571D01*
X183120476Y-187092380D02*
X183120476Y-186092380D01*
X182644285Y-186711428D02*
X181882380Y-186711428D01*
X181072857Y-186568571D02*
X180930000Y-186616190D01*
X180882380Y-186663809D01*
X180834761Y-186759047D01*
X180834761Y-186901904D01*
X180882380Y-186997142D01*
X180930000Y-187044761D01*
X181025238Y-187092380D01*
X181406190Y-187092380D01*
X181406190Y-186092380D01*
X181072857Y-186092380D01*
X180977619Y-186140000D01*
X180930000Y-186187619D01*
X180882380Y-186282857D01*
X180882380Y-186378095D01*
X180930000Y-186473333D01*
X180977619Y-186520952D01*
X181072857Y-186568571D01*
X181406190Y-186568571D01*
X180406190Y-187092380D02*
X180406190Y-186425714D01*
X180406190Y-186616190D02*
X180358571Y-186520952D01*
X180310952Y-186473333D01*
X180215714Y-186425714D01*
X180120476Y-186425714D01*
X179787142Y-187092380D02*
X179787142Y-186425714D01*
X179787142Y-186092380D02*
X179834761Y-186140000D01*
X179787142Y-186187619D01*
X179739523Y-186140000D01*
X179787142Y-186092380D01*
X179787142Y-186187619D01*
X178882380Y-187092380D02*
X178882380Y-186092380D01*
X178882380Y-187044761D02*
X178977619Y-187092380D01*
X179168095Y-187092380D01*
X179263333Y-187044761D01*
X179310952Y-186997142D01*
X179358571Y-186901904D01*
X179358571Y-186616190D01*
X179310952Y-186520952D01*
X179263333Y-186473333D01*
X179168095Y-186425714D01*
X178977619Y-186425714D01*
X178882380Y-186473333D01*
X177977619Y-186425714D02*
X177977619Y-187235238D01*
X178025238Y-187330476D01*
X178072857Y-187378095D01*
X178168095Y-187425714D01*
X178310952Y-187425714D01*
X178406190Y-187378095D01*
X177977619Y-187044761D02*
X178072857Y-187092380D01*
X178263333Y-187092380D01*
X178358571Y-187044761D01*
X178406190Y-186997142D01*
X178453809Y-186901904D01*
X178453809Y-186616190D01*
X178406190Y-186520952D01*
X178358571Y-186473333D01*
X178263333Y-186425714D01*
X178072857Y-186425714D01*
X177977619Y-186473333D01*
X177120476Y-187044761D02*
X177215714Y-187092380D01*
X177406190Y-187092380D01*
X177501428Y-187044761D01*
X177549047Y-186949523D01*
X177549047Y-186568571D01*
X177501428Y-186473333D01*
X177406190Y-186425714D01*
X177215714Y-186425714D01*
X177120476Y-186473333D01*
X177072857Y-186568571D01*
X177072857Y-186663809D01*
X177549047Y-186759047D01*
X176120476Y-187092380D02*
X176691904Y-187092380D01*
X176406190Y-187092380D02*
X176406190Y-186092380D01*
X176501428Y-186235238D01*
X176596666Y-186330476D01*
X176691904Y-186378095D01*
%TO.C,Power_jack1*%
X130952380Y-34038095D02*
X131666666Y-34038095D01*
X131809523Y-33990476D01*
X131904761Y-33895238D01*
X131952380Y-33752380D01*
X131952380Y-33657142D01*
X131952380Y-34942857D02*
X131428571Y-34942857D01*
X131333333Y-34895238D01*
X131285714Y-34800000D01*
X131285714Y-34609523D01*
X131333333Y-34514285D01*
X131904761Y-34942857D02*
X131952380Y-34847619D01*
X131952380Y-34609523D01*
X131904761Y-34514285D01*
X131809523Y-34466666D01*
X131714285Y-34466666D01*
X131619047Y-34514285D01*
X131571428Y-34609523D01*
X131571428Y-34847619D01*
X131523809Y-34942857D01*
X131904761Y-35847619D02*
X131952380Y-35752380D01*
X131952380Y-35561904D01*
X131904761Y-35466666D01*
X131857142Y-35419047D01*
X131761904Y-35371428D01*
X131476190Y-35371428D01*
X131380952Y-35419047D01*
X131333333Y-35466666D01*
X131285714Y-35561904D01*
X131285714Y-35752380D01*
X131333333Y-35847619D01*
X131952380Y-36276190D02*
X130952380Y-36276190D01*
X131571428Y-36371428D02*
X131952380Y-36657142D01*
X131285714Y-36657142D02*
X131666666Y-36276190D01*
X131571428Y-37085714D02*
X131571428Y-37847619D01*
X131952380Y-38323809D02*
X130952380Y-38323809D01*
X130952380Y-38561904D01*
X131000000Y-38704761D01*
X131095238Y-38800000D01*
X131190476Y-38847619D01*
X131380952Y-38895238D01*
X131523809Y-38895238D01*
X131714285Y-38847619D01*
X131809523Y-38800000D01*
X131904761Y-38704761D01*
X131952380Y-38561904D01*
X131952380Y-38323809D01*
X131857142Y-39895238D02*
X131904761Y-39847619D01*
X131952380Y-39704761D01*
X131952380Y-39609523D01*
X131904761Y-39466666D01*
X131809523Y-39371428D01*
X131714285Y-39323809D01*
X131523809Y-39276190D01*
X131380952Y-39276190D01*
X131190476Y-39323809D01*
X131095238Y-39371428D01*
X131000000Y-39466666D01*
X130952380Y-39609523D01*
X130952380Y-39704761D01*
X131000000Y-39847619D01*
X131047619Y-39895238D01*
X134502380Y-35642857D02*
X133502380Y-35642857D01*
X133502380Y-36023809D01*
X133550000Y-36119047D01*
X133597619Y-36166666D01*
X133692857Y-36214285D01*
X133835714Y-36214285D01*
X133930952Y-36166666D01*
X133978571Y-36119047D01*
X134026190Y-36023809D01*
X134026190Y-35642857D01*
X134502380Y-36785714D02*
X134454761Y-36690476D01*
X134407142Y-36642857D01*
X134311904Y-36595238D01*
X134026190Y-36595238D01*
X133930952Y-36642857D01*
X133883333Y-36690476D01*
X133835714Y-36785714D01*
X133835714Y-36928571D01*
X133883333Y-37023809D01*
X133930952Y-37071428D01*
X134026190Y-37119047D01*
X134311904Y-37119047D01*
X134407142Y-37071428D01*
X134454761Y-37023809D01*
X134502380Y-36928571D01*
X134502380Y-36785714D01*
X133835714Y-37452380D02*
X134502380Y-37642857D01*
X134026190Y-37833333D01*
X134502380Y-38023809D01*
X133835714Y-38214285D01*
X134454761Y-38976190D02*
X134502380Y-38880952D01*
X134502380Y-38690476D01*
X134454761Y-38595238D01*
X134359523Y-38547619D01*
X133978571Y-38547619D01*
X133883333Y-38595238D01*
X133835714Y-38690476D01*
X133835714Y-38880952D01*
X133883333Y-38976190D01*
X133978571Y-39023809D01*
X134073809Y-39023809D01*
X134169047Y-38547619D01*
X134502380Y-39452380D02*
X133835714Y-39452380D01*
X134026190Y-39452380D02*
X133930952Y-39500000D01*
X133883333Y-39547619D01*
X133835714Y-39642857D01*
X133835714Y-39738095D01*
X134597619Y-39833333D02*
X134597619Y-40595238D01*
X133835714Y-40833333D02*
X134692857Y-40833333D01*
X134788095Y-40785714D01*
X134835714Y-40690476D01*
X134835714Y-40642857D01*
X133502380Y-40833333D02*
X133550000Y-40785714D01*
X133597619Y-40833333D01*
X133550000Y-40880952D01*
X133502380Y-40833333D01*
X133597619Y-40833333D01*
X134502380Y-41738095D02*
X133978571Y-41738095D01*
X133883333Y-41690476D01*
X133835714Y-41595238D01*
X133835714Y-41404761D01*
X133883333Y-41309523D01*
X134454761Y-41738095D02*
X134502380Y-41642857D01*
X134502380Y-41404761D01*
X134454761Y-41309523D01*
X134359523Y-41261904D01*
X134264285Y-41261904D01*
X134169047Y-41309523D01*
X134121428Y-41404761D01*
X134121428Y-41642857D01*
X134073809Y-41738095D01*
X134454761Y-42642857D02*
X134502380Y-42547619D01*
X134502380Y-42357142D01*
X134454761Y-42261904D01*
X134407142Y-42214285D01*
X134311904Y-42166666D01*
X134026190Y-42166666D01*
X133930952Y-42214285D01*
X133883333Y-42261904D01*
X133835714Y-42357142D01*
X133835714Y-42547619D01*
X133883333Y-42642857D01*
X134502380Y-43071428D02*
X133502380Y-43071428D01*
X134121428Y-43166666D02*
X134502380Y-43452380D01*
X133835714Y-43452380D02*
X134216666Y-43071428D01*
X134502380Y-44404761D02*
X134502380Y-43833333D01*
X134502380Y-44119047D02*
X133502380Y-44119047D01*
X133645238Y-44023809D01*
X133740476Y-43928571D01*
X133788095Y-43833333D01*
%TO.C,Arduino Pro Micro*%
X174436666Y-41760952D02*
X174436666Y-42237142D01*
X174722380Y-41665714D02*
X173722380Y-41999047D01*
X174722380Y-42332380D01*
X174722380Y-42665714D02*
X174055714Y-42665714D01*
X174246190Y-42665714D02*
X174150952Y-42713333D01*
X174103333Y-42760952D01*
X174055714Y-42856190D01*
X174055714Y-42951428D01*
X174722380Y-43713333D02*
X173722380Y-43713333D01*
X174674761Y-43713333D02*
X174722380Y-43618095D01*
X174722380Y-43427619D01*
X174674761Y-43332380D01*
X174627142Y-43284761D01*
X174531904Y-43237142D01*
X174246190Y-43237142D01*
X174150952Y-43284761D01*
X174103333Y-43332380D01*
X174055714Y-43427619D01*
X174055714Y-43618095D01*
X174103333Y-43713333D01*
X174055714Y-44618095D02*
X174722380Y-44618095D01*
X174055714Y-44189523D02*
X174579523Y-44189523D01*
X174674761Y-44237142D01*
X174722380Y-44332380D01*
X174722380Y-44475238D01*
X174674761Y-44570476D01*
X174627142Y-44618095D01*
X174722380Y-45094285D02*
X174055714Y-45094285D01*
X173722380Y-45094285D02*
X173770000Y-45046666D01*
X173817619Y-45094285D01*
X173770000Y-45141904D01*
X173722380Y-45094285D01*
X173817619Y-45094285D01*
X174055714Y-45570476D02*
X174722380Y-45570476D01*
X174150952Y-45570476D02*
X174103333Y-45618095D01*
X174055714Y-45713333D01*
X174055714Y-45856190D01*
X174103333Y-45951428D01*
X174198571Y-45999047D01*
X174722380Y-45999047D01*
X174722380Y-46618095D02*
X174674761Y-46522857D01*
X174627142Y-46475238D01*
X174531904Y-46427619D01*
X174246190Y-46427619D01*
X174150952Y-46475238D01*
X174103333Y-46522857D01*
X174055714Y-46618095D01*
X174055714Y-46760952D01*
X174103333Y-46856190D01*
X174150952Y-46903809D01*
X174246190Y-46951428D01*
X174531904Y-46951428D01*
X174627142Y-46903809D01*
X174674761Y-46856190D01*
X174722380Y-46760952D01*
X174722380Y-46618095D01*
X174817619Y-47141904D02*
X174817619Y-47903809D01*
X174722380Y-48141904D02*
X173722380Y-48141904D01*
X173722380Y-48522857D01*
X173770000Y-48618095D01*
X173817619Y-48665714D01*
X173912857Y-48713333D01*
X174055714Y-48713333D01*
X174150952Y-48665714D01*
X174198571Y-48618095D01*
X174246190Y-48522857D01*
X174246190Y-48141904D01*
X174722380Y-49141904D02*
X174055714Y-49141904D01*
X174246190Y-49141904D02*
X174150952Y-49189523D01*
X174103333Y-49237142D01*
X174055714Y-49332380D01*
X174055714Y-49427619D01*
X174722380Y-49903809D02*
X174674761Y-49808571D01*
X174627142Y-49760952D01*
X174531904Y-49713333D01*
X174246190Y-49713333D01*
X174150952Y-49760952D01*
X174103333Y-49808571D01*
X174055714Y-49903809D01*
X174055714Y-50046666D01*
X174103333Y-50141904D01*
X174150952Y-50189523D01*
X174246190Y-50237142D01*
X174531904Y-50237142D01*
X174627142Y-50189523D01*
X174674761Y-50141904D01*
X174722380Y-50046666D01*
X174722380Y-49903809D01*
X174817619Y-50427619D02*
X174817619Y-51189523D01*
X174722380Y-51427619D02*
X173722380Y-51427619D01*
X174436666Y-51760952D01*
X173722380Y-52094285D01*
X174722380Y-52094285D01*
X174722380Y-52570476D02*
X174055714Y-52570476D01*
X173722380Y-52570476D02*
X173770000Y-52522857D01*
X173817619Y-52570476D01*
X173770000Y-52618095D01*
X173722380Y-52570476D01*
X173817619Y-52570476D01*
X174674761Y-53475238D02*
X174722380Y-53380000D01*
X174722380Y-53189523D01*
X174674761Y-53094285D01*
X174627142Y-53046666D01*
X174531904Y-52999047D01*
X174246190Y-52999047D01*
X174150952Y-53046666D01*
X174103333Y-53094285D01*
X174055714Y-53189523D01*
X174055714Y-53380000D01*
X174103333Y-53475238D01*
X174722380Y-53903809D02*
X174055714Y-53903809D01*
X174246190Y-53903809D02*
X174150952Y-53951428D01*
X174103333Y-53999047D01*
X174055714Y-54094285D01*
X174055714Y-54189523D01*
X174722380Y-54665714D02*
X174674761Y-54570476D01*
X174627142Y-54522857D01*
X174531904Y-54475238D01*
X174246190Y-54475238D01*
X174150952Y-54522857D01*
X174103333Y-54570476D01*
X174055714Y-54665714D01*
X174055714Y-54808571D01*
X174103333Y-54903809D01*
X174150952Y-54951428D01*
X174246190Y-54999047D01*
X174531904Y-54999047D01*
X174627142Y-54951428D01*
X174674761Y-54903809D01*
X174722380Y-54808571D01*
X174722380Y-54665714D01*
%TD*%
M02*
