%TF.GenerationSoftware,KiCad,Pcbnew,(5.1.7-0-10_14)*%
%TF.CreationDate,2021-09-21T18:25:25-03:00*%
%TF.ProjectId,Faduino-1,46616475-696e-46f2-9d31-2e6b69636164,1*%
%TF.SameCoordinates,Original*%
%TF.FileFunction,Paste,Top*%
%TF.FilePolarity,Positive*%
%FSLAX46Y46*%
G04 Gerber Fmt 4.6, Leading zero omitted, Abs format (unit mm)*
G04 Created by KiCad (PCBNEW (5.1.7-0-10_14)) date 2021-09-21 18:25:25*
%MOMM*%
%LPD*%
G01*
G04 APERTURE LIST*
%ADD10R,0.450000X1.750000*%
%ADD11R,0.800000X0.950000*%
%ADD12R,3.500000X1.800000*%
%ADD13R,3.050000X2.750000*%
%ADD14R,2.200000X1.200000*%
G04 APERTURE END LIST*
D10*
%TO.C,Mux_2*%
X171575000Y-181600000D03*
X170925000Y-181600000D03*
X170275000Y-181600000D03*
X169625000Y-181600000D03*
X168975000Y-181600000D03*
X168325000Y-181600000D03*
X167675000Y-181600000D03*
X167025000Y-181600000D03*
X166375000Y-181600000D03*
X165725000Y-181600000D03*
X165075000Y-181600000D03*
X164425000Y-181600000D03*
X164425000Y-174400000D03*
X165075000Y-174400000D03*
X165725000Y-174400000D03*
X166375000Y-174400000D03*
X167025000Y-174400000D03*
X167675000Y-174400000D03*
X168325000Y-174400000D03*
X168975000Y-174400000D03*
X169625000Y-174400000D03*
X170275000Y-174400000D03*
X170925000Y-174400000D03*
X171575000Y-174400000D03*
%TD*%
%TO.C,Mux_1*%
X171575000Y-91600000D03*
X170925000Y-91600000D03*
X170275000Y-91600000D03*
X169625000Y-91600000D03*
X168975000Y-91600000D03*
X168325000Y-91600000D03*
X167675000Y-91600000D03*
X167025000Y-91600000D03*
X166375000Y-91600000D03*
X165725000Y-91600000D03*
X165075000Y-91600000D03*
X164425000Y-91600000D03*
X164425000Y-84400000D03*
X165075000Y-84400000D03*
X165725000Y-84400000D03*
X166375000Y-84400000D03*
X167025000Y-84400000D03*
X167675000Y-84400000D03*
X168325000Y-84400000D03*
X168975000Y-84400000D03*
X169625000Y-84400000D03*
X170275000Y-84400000D03*
X170925000Y-84400000D03*
X171575000Y-84400000D03*
%TD*%
%TO.C,C6*%
G36*
G01*
X100935000Y-84890000D02*
X100935000Y-84390000D01*
G75*
G02*
X101160000Y-84165000I225000J0D01*
G01*
X101610000Y-84165000D01*
G75*
G02*
X101835000Y-84390000I0J-225000D01*
G01*
X101835000Y-84890000D01*
G75*
G02*
X101610000Y-85115000I-225000J0D01*
G01*
X101160000Y-85115000D01*
G75*
G02*
X100935000Y-84890000I0J225000D01*
G01*
G37*
G36*
G01*
X99385000Y-84890000D02*
X99385000Y-84390000D01*
G75*
G02*
X99610000Y-84165000I225000J0D01*
G01*
X100060000Y-84165000D01*
G75*
G02*
X100285000Y-84390000I0J-225000D01*
G01*
X100285000Y-84890000D01*
G75*
G02*
X100060000Y-85115000I-225000J0D01*
G01*
X99610000Y-85115000D01*
G75*
G02*
X99385000Y-84890000I0J225000D01*
G01*
G37*
%TD*%
%TO.C,C5*%
G36*
G01*
X74785000Y-84390000D02*
X74785000Y-84890000D01*
G75*
G02*
X74560000Y-85115000I-225000J0D01*
G01*
X74110000Y-85115000D01*
G75*
G02*
X73885000Y-84890000I0J225000D01*
G01*
X73885000Y-84390000D01*
G75*
G02*
X74110000Y-84165000I225000J0D01*
G01*
X74560000Y-84165000D01*
G75*
G02*
X74785000Y-84390000I0J-225000D01*
G01*
G37*
G36*
G01*
X76335000Y-84390000D02*
X76335000Y-84890000D01*
G75*
G02*
X76110000Y-85115000I-225000J0D01*
G01*
X75660000Y-85115000D01*
G75*
G02*
X75435000Y-84890000I0J225000D01*
G01*
X75435000Y-84390000D01*
G75*
G02*
X75660000Y-84165000I225000J0D01*
G01*
X76110000Y-84165000D01*
G75*
G02*
X76335000Y-84390000I0J-225000D01*
G01*
G37*
%TD*%
%TO.C,C8*%
G36*
G01*
X150935000Y-84890000D02*
X150935000Y-84390000D01*
G75*
G02*
X151160000Y-84165000I225000J0D01*
G01*
X151610000Y-84165000D01*
G75*
G02*
X151835000Y-84390000I0J-225000D01*
G01*
X151835000Y-84890000D01*
G75*
G02*
X151610000Y-85115000I-225000J0D01*
G01*
X151160000Y-85115000D01*
G75*
G02*
X150935000Y-84890000I0J225000D01*
G01*
G37*
G36*
G01*
X149385000Y-84890000D02*
X149385000Y-84390000D01*
G75*
G02*
X149610000Y-84165000I225000J0D01*
G01*
X150060000Y-84165000D01*
G75*
G02*
X150285000Y-84390000I0J-225000D01*
G01*
X150285000Y-84890000D01*
G75*
G02*
X150060000Y-85115000I-225000J0D01*
G01*
X149610000Y-85115000D01*
G75*
G02*
X149385000Y-84890000I0J225000D01*
G01*
G37*
%TD*%
%TO.C,C7*%
G36*
G01*
X125935000Y-84890000D02*
X125935000Y-84390000D01*
G75*
G02*
X126160000Y-84165000I225000J0D01*
G01*
X126610000Y-84165000D01*
G75*
G02*
X126835000Y-84390000I0J-225000D01*
G01*
X126835000Y-84890000D01*
G75*
G02*
X126610000Y-85115000I-225000J0D01*
G01*
X126160000Y-85115000D01*
G75*
G02*
X125935000Y-84890000I0J225000D01*
G01*
G37*
G36*
G01*
X124385000Y-84890000D02*
X124385000Y-84390000D01*
G75*
G02*
X124610000Y-84165000I225000J0D01*
G01*
X125060000Y-84165000D01*
G75*
G02*
X125285000Y-84390000I0J-225000D01*
G01*
X125285000Y-84890000D01*
G75*
G02*
X125060000Y-85115000I-225000J0D01*
G01*
X124610000Y-85115000D01*
G75*
G02*
X124385000Y-84890000I0J225000D01*
G01*
G37*
%TD*%
%TO.C,C_mux_1*%
G36*
G01*
X171750000Y-95325000D02*
X172250000Y-95325000D01*
G75*
G02*
X172475000Y-95550000I0J-225000D01*
G01*
X172475000Y-96000000D01*
G75*
G02*
X172250000Y-96225000I-225000J0D01*
G01*
X171750000Y-96225000D01*
G75*
G02*
X171525000Y-96000000I0J225000D01*
G01*
X171525000Y-95550000D01*
G75*
G02*
X171750000Y-95325000I225000J0D01*
G01*
G37*
G36*
G01*
X171750000Y-93775000D02*
X172250000Y-93775000D01*
G75*
G02*
X172475000Y-94000000I0J-225000D01*
G01*
X172475000Y-94450000D01*
G75*
G02*
X172250000Y-94675000I-225000J0D01*
G01*
X171750000Y-94675000D01*
G75*
G02*
X171525000Y-94450000I0J225000D01*
G01*
X171525000Y-94000000D01*
G75*
G02*
X171750000Y-93775000I225000J0D01*
G01*
G37*
%TD*%
%TO.C,C_mux_2*%
G36*
G01*
X171750000Y-185325000D02*
X172250000Y-185325000D01*
G75*
G02*
X172475000Y-185550000I0J-225000D01*
G01*
X172475000Y-186000000D01*
G75*
G02*
X172250000Y-186225000I-225000J0D01*
G01*
X171750000Y-186225000D01*
G75*
G02*
X171525000Y-186000000I0J225000D01*
G01*
X171525000Y-185550000D01*
G75*
G02*
X171750000Y-185325000I225000J0D01*
G01*
G37*
G36*
G01*
X171750000Y-183775000D02*
X172250000Y-183775000D01*
G75*
G02*
X172475000Y-184000000I0J-225000D01*
G01*
X172475000Y-184450000D01*
G75*
G02*
X172250000Y-184675000I-225000J0D01*
G01*
X171750000Y-184675000D01*
G75*
G02*
X171525000Y-184450000I0J225000D01*
G01*
X171525000Y-184000000D01*
G75*
G02*
X171750000Y-183775000I225000J0D01*
G01*
G37*
%TD*%
%TO.C,C_pwr_1*%
G36*
G01*
X105675000Y-31250000D02*
X105675000Y-31750000D01*
G75*
G02*
X105450000Y-31975000I-225000J0D01*
G01*
X105000000Y-31975000D01*
G75*
G02*
X104775000Y-31750000I0J225000D01*
G01*
X104775000Y-31250000D01*
G75*
G02*
X105000000Y-31025000I225000J0D01*
G01*
X105450000Y-31025000D01*
G75*
G02*
X105675000Y-31250000I0J-225000D01*
G01*
G37*
G36*
G01*
X107225000Y-31250000D02*
X107225000Y-31750000D01*
G75*
G02*
X107000000Y-31975000I-225000J0D01*
G01*
X106550000Y-31975000D01*
G75*
G02*
X106325000Y-31750000I0J225000D01*
G01*
X106325000Y-31250000D01*
G75*
G02*
X106550000Y-31025000I225000J0D01*
G01*
X107000000Y-31025000D01*
G75*
G02*
X107225000Y-31250000I0J-225000D01*
G01*
G37*
%TD*%
%TO.C,C_pwr_2*%
G36*
G01*
X105175000Y-35750000D02*
X105175000Y-36250000D01*
G75*
G02*
X104950000Y-36475000I-225000J0D01*
G01*
X104500000Y-36475000D01*
G75*
G02*
X104275000Y-36250000I0J225000D01*
G01*
X104275000Y-35750000D01*
G75*
G02*
X104500000Y-35525000I225000J0D01*
G01*
X104950000Y-35525000D01*
G75*
G02*
X105175000Y-35750000I0J-225000D01*
G01*
G37*
G36*
G01*
X106725000Y-35750000D02*
X106725000Y-36250000D01*
G75*
G02*
X106500000Y-36475000I-225000J0D01*
G01*
X106050000Y-36475000D01*
G75*
G02*
X105825000Y-36250000I0J225000D01*
G01*
X105825000Y-35750000D01*
G75*
G02*
X106050000Y-35525000I225000J0D01*
G01*
X106500000Y-35525000D01*
G75*
G02*
X106725000Y-35750000I0J-225000D01*
G01*
G37*
%TD*%
%TO.C,C1*%
G36*
G01*
X75325000Y-60750000D02*
X75325000Y-60250000D01*
G75*
G02*
X75550000Y-60025000I225000J0D01*
G01*
X76000000Y-60025000D01*
G75*
G02*
X76225000Y-60250000I0J-225000D01*
G01*
X76225000Y-60750000D01*
G75*
G02*
X76000000Y-60975000I-225000J0D01*
G01*
X75550000Y-60975000D01*
G75*
G02*
X75325000Y-60750000I0J225000D01*
G01*
G37*
G36*
G01*
X73775000Y-60750000D02*
X73775000Y-60250000D01*
G75*
G02*
X74000000Y-60025000I225000J0D01*
G01*
X74450000Y-60025000D01*
G75*
G02*
X74675000Y-60250000I0J-225000D01*
G01*
X74675000Y-60750000D01*
G75*
G02*
X74450000Y-60975000I-225000J0D01*
G01*
X74000000Y-60975000D01*
G75*
G02*
X73775000Y-60750000I0J225000D01*
G01*
G37*
%TD*%
%TO.C,C13*%
G36*
G01*
X125605000Y-135450000D02*
X125605000Y-134950000D01*
G75*
G02*
X125830000Y-134725000I225000J0D01*
G01*
X126280000Y-134725000D01*
G75*
G02*
X126505000Y-134950000I0J-225000D01*
G01*
X126505000Y-135450000D01*
G75*
G02*
X126280000Y-135675000I-225000J0D01*
G01*
X125830000Y-135675000D01*
G75*
G02*
X125605000Y-135450000I0J225000D01*
G01*
G37*
G36*
G01*
X124055000Y-135450000D02*
X124055000Y-134950000D01*
G75*
G02*
X124280000Y-134725000I225000J0D01*
G01*
X124730000Y-134725000D01*
G75*
G02*
X124955000Y-134950000I0J-225000D01*
G01*
X124955000Y-135450000D01*
G75*
G02*
X124730000Y-135675000I-225000J0D01*
G01*
X124280000Y-135675000D01*
G75*
G02*
X124055000Y-135450000I0J225000D01*
G01*
G37*
%TD*%
%TO.C,C2*%
G36*
G01*
X100325000Y-60750000D02*
X100325000Y-60250000D01*
G75*
G02*
X100550000Y-60025000I225000J0D01*
G01*
X101000000Y-60025000D01*
G75*
G02*
X101225000Y-60250000I0J-225000D01*
G01*
X101225000Y-60750000D01*
G75*
G02*
X101000000Y-60975000I-225000J0D01*
G01*
X100550000Y-60975000D01*
G75*
G02*
X100325000Y-60750000I0J225000D01*
G01*
G37*
G36*
G01*
X98775000Y-60750000D02*
X98775000Y-60250000D01*
G75*
G02*
X99000000Y-60025000I225000J0D01*
G01*
X99450000Y-60025000D01*
G75*
G02*
X99675000Y-60250000I0J-225000D01*
G01*
X99675000Y-60750000D01*
G75*
G02*
X99450000Y-60975000I-225000J0D01*
G01*
X99000000Y-60975000D01*
G75*
G02*
X98775000Y-60750000I0J225000D01*
G01*
G37*
%TD*%
%TO.C,C14*%
G36*
G01*
X151105000Y-134950000D02*
X151105000Y-134450000D01*
G75*
G02*
X151330000Y-134225000I225000J0D01*
G01*
X151780000Y-134225000D01*
G75*
G02*
X152005000Y-134450000I0J-225000D01*
G01*
X152005000Y-134950000D01*
G75*
G02*
X151780000Y-135175000I-225000J0D01*
G01*
X151330000Y-135175000D01*
G75*
G02*
X151105000Y-134950000I0J225000D01*
G01*
G37*
G36*
G01*
X149555000Y-134950000D02*
X149555000Y-134450000D01*
G75*
G02*
X149780000Y-134225000I225000J0D01*
G01*
X150230000Y-134225000D01*
G75*
G02*
X150455000Y-134450000I0J-225000D01*
G01*
X150455000Y-134950000D01*
G75*
G02*
X150230000Y-135175000I-225000J0D01*
G01*
X149780000Y-135175000D01*
G75*
G02*
X149555000Y-134950000I0J225000D01*
G01*
G37*
%TD*%
%TO.C,C3*%
G36*
G01*
X125550000Y-60750000D02*
X125550000Y-60250000D01*
G75*
G02*
X125775000Y-60025000I225000J0D01*
G01*
X126225000Y-60025000D01*
G75*
G02*
X126450000Y-60250000I0J-225000D01*
G01*
X126450000Y-60750000D01*
G75*
G02*
X126225000Y-60975000I-225000J0D01*
G01*
X125775000Y-60975000D01*
G75*
G02*
X125550000Y-60750000I0J225000D01*
G01*
G37*
G36*
G01*
X124000000Y-60750000D02*
X124000000Y-60250000D01*
G75*
G02*
X124225000Y-60025000I225000J0D01*
G01*
X124675000Y-60025000D01*
G75*
G02*
X124900000Y-60250000I0J-225000D01*
G01*
X124900000Y-60750000D01*
G75*
G02*
X124675000Y-60975000I-225000J0D01*
G01*
X124225000Y-60975000D01*
G75*
G02*
X124000000Y-60750000I0J225000D01*
G01*
G37*
%TD*%
%TO.C,C15*%
G36*
G01*
X75195000Y-160090000D02*
X75195000Y-159590000D01*
G75*
G02*
X75420000Y-159365000I225000J0D01*
G01*
X75870000Y-159365000D01*
G75*
G02*
X76095000Y-159590000I0J-225000D01*
G01*
X76095000Y-160090000D01*
G75*
G02*
X75870000Y-160315000I-225000J0D01*
G01*
X75420000Y-160315000D01*
G75*
G02*
X75195000Y-160090000I0J225000D01*
G01*
G37*
G36*
G01*
X73645000Y-160090000D02*
X73645000Y-159590000D01*
G75*
G02*
X73870000Y-159365000I225000J0D01*
G01*
X74320000Y-159365000D01*
G75*
G02*
X74545000Y-159590000I0J-225000D01*
G01*
X74545000Y-160090000D01*
G75*
G02*
X74320000Y-160315000I-225000J0D01*
G01*
X73870000Y-160315000D01*
G75*
G02*
X73645000Y-160090000I0J225000D01*
G01*
G37*
%TD*%
%TO.C,C4*%
G36*
G01*
X150175000Y-60250000D02*
X150175000Y-60750000D01*
G75*
G02*
X149950000Y-60975000I-225000J0D01*
G01*
X149500000Y-60975000D01*
G75*
G02*
X149275000Y-60750000I0J225000D01*
G01*
X149275000Y-60250000D01*
G75*
G02*
X149500000Y-60025000I225000J0D01*
G01*
X149950000Y-60025000D01*
G75*
G02*
X150175000Y-60250000I0J-225000D01*
G01*
G37*
G36*
G01*
X151725000Y-60250000D02*
X151725000Y-60750000D01*
G75*
G02*
X151500000Y-60975000I-225000J0D01*
G01*
X151050000Y-60975000D01*
G75*
G02*
X150825000Y-60750000I0J225000D01*
G01*
X150825000Y-60250000D01*
G75*
G02*
X151050000Y-60025000I225000J0D01*
G01*
X151500000Y-60025000D01*
G75*
G02*
X151725000Y-60250000I0J-225000D01*
G01*
G37*
%TD*%
%TO.C,C16*%
G36*
G01*
X100195000Y-160090000D02*
X100195000Y-159590000D01*
G75*
G02*
X100420000Y-159365000I225000J0D01*
G01*
X100870000Y-159365000D01*
G75*
G02*
X101095000Y-159590000I0J-225000D01*
G01*
X101095000Y-160090000D01*
G75*
G02*
X100870000Y-160315000I-225000J0D01*
G01*
X100420000Y-160315000D01*
G75*
G02*
X100195000Y-160090000I0J225000D01*
G01*
G37*
G36*
G01*
X98645000Y-160090000D02*
X98645000Y-159590000D01*
G75*
G02*
X98870000Y-159365000I225000J0D01*
G01*
X99320000Y-159365000D01*
G75*
G02*
X99545000Y-159590000I0J-225000D01*
G01*
X99545000Y-160090000D01*
G75*
G02*
X99320000Y-160315000I-225000J0D01*
G01*
X98870000Y-160315000D01*
G75*
G02*
X98645000Y-160090000I0J225000D01*
G01*
G37*
%TD*%
%TO.C,C17*%
G36*
G01*
X125695000Y-160090000D02*
X125695000Y-159590000D01*
G75*
G02*
X125920000Y-159365000I225000J0D01*
G01*
X126370000Y-159365000D01*
G75*
G02*
X126595000Y-159590000I0J-225000D01*
G01*
X126595000Y-160090000D01*
G75*
G02*
X126370000Y-160315000I-225000J0D01*
G01*
X125920000Y-160315000D01*
G75*
G02*
X125695000Y-160090000I0J225000D01*
G01*
G37*
G36*
G01*
X124145000Y-160090000D02*
X124145000Y-159590000D01*
G75*
G02*
X124370000Y-159365000I225000J0D01*
G01*
X124820000Y-159365000D01*
G75*
G02*
X125045000Y-159590000I0J-225000D01*
G01*
X125045000Y-160090000D01*
G75*
G02*
X124820000Y-160315000I-225000J0D01*
G01*
X124370000Y-160315000D01*
G75*
G02*
X124145000Y-160090000I0J225000D01*
G01*
G37*
%TD*%
%TO.C,C18*%
G36*
G01*
X150695000Y-160090000D02*
X150695000Y-159590000D01*
G75*
G02*
X150920000Y-159365000I225000J0D01*
G01*
X151370000Y-159365000D01*
G75*
G02*
X151595000Y-159590000I0J-225000D01*
G01*
X151595000Y-160090000D01*
G75*
G02*
X151370000Y-160315000I-225000J0D01*
G01*
X150920000Y-160315000D01*
G75*
G02*
X150695000Y-160090000I0J225000D01*
G01*
G37*
G36*
G01*
X149145000Y-160090000D02*
X149145000Y-159590000D01*
G75*
G02*
X149370000Y-159365000I225000J0D01*
G01*
X149820000Y-159365000D01*
G75*
G02*
X150045000Y-159590000I0J-225000D01*
G01*
X150045000Y-160090000D01*
G75*
G02*
X149820000Y-160315000I-225000J0D01*
G01*
X149370000Y-160315000D01*
G75*
G02*
X149145000Y-160090000I0J225000D01*
G01*
G37*
%TD*%
%TO.C,C19*%
G36*
G01*
X75325000Y-184810000D02*
X75325000Y-184310000D01*
G75*
G02*
X75550000Y-184085000I225000J0D01*
G01*
X76000000Y-184085000D01*
G75*
G02*
X76225000Y-184310000I0J-225000D01*
G01*
X76225000Y-184810000D01*
G75*
G02*
X76000000Y-185035000I-225000J0D01*
G01*
X75550000Y-185035000D01*
G75*
G02*
X75325000Y-184810000I0J225000D01*
G01*
G37*
G36*
G01*
X73775000Y-184810000D02*
X73775000Y-184310000D01*
G75*
G02*
X74000000Y-184085000I225000J0D01*
G01*
X74450000Y-184085000D01*
G75*
G02*
X74675000Y-184310000I0J-225000D01*
G01*
X74675000Y-184810000D01*
G75*
G02*
X74450000Y-185035000I-225000J0D01*
G01*
X74000000Y-185035000D01*
G75*
G02*
X73775000Y-184810000I0J225000D01*
G01*
G37*
%TD*%
%TO.C,C20*%
G36*
G01*
X100325000Y-185310000D02*
X100325000Y-184810000D01*
G75*
G02*
X100550000Y-184585000I225000J0D01*
G01*
X101000000Y-184585000D01*
G75*
G02*
X101225000Y-184810000I0J-225000D01*
G01*
X101225000Y-185310000D01*
G75*
G02*
X101000000Y-185535000I-225000J0D01*
G01*
X100550000Y-185535000D01*
G75*
G02*
X100325000Y-185310000I0J225000D01*
G01*
G37*
G36*
G01*
X98775000Y-185310000D02*
X98775000Y-184810000D01*
G75*
G02*
X99000000Y-184585000I225000J0D01*
G01*
X99450000Y-184585000D01*
G75*
G02*
X99675000Y-184810000I0J-225000D01*
G01*
X99675000Y-185310000D01*
G75*
G02*
X99450000Y-185535000I-225000J0D01*
G01*
X99000000Y-185535000D01*
G75*
G02*
X98775000Y-185310000I0J225000D01*
G01*
G37*
%TD*%
%TO.C,C9*%
G36*
G01*
X150485000Y-184790000D02*
X150485000Y-184290000D01*
G75*
G02*
X150710000Y-184065000I225000J0D01*
G01*
X151160000Y-184065000D01*
G75*
G02*
X151385000Y-184290000I0J-225000D01*
G01*
X151385000Y-184790000D01*
G75*
G02*
X151160000Y-185015000I-225000J0D01*
G01*
X150710000Y-185015000D01*
G75*
G02*
X150485000Y-184790000I0J225000D01*
G01*
G37*
G36*
G01*
X148935000Y-184790000D02*
X148935000Y-184290000D01*
G75*
G02*
X149160000Y-184065000I225000J0D01*
G01*
X149610000Y-184065000D01*
G75*
G02*
X149835000Y-184290000I0J-225000D01*
G01*
X149835000Y-184790000D01*
G75*
G02*
X149610000Y-185015000I-225000J0D01*
G01*
X149160000Y-185015000D01*
G75*
G02*
X148935000Y-184790000I0J225000D01*
G01*
G37*
%TD*%
%TO.C,C21*%
G36*
G01*
X125325000Y-184810000D02*
X125325000Y-184310000D01*
G75*
G02*
X125550000Y-184085000I225000J0D01*
G01*
X126000000Y-184085000D01*
G75*
G02*
X126225000Y-184310000I0J-225000D01*
G01*
X126225000Y-184810000D01*
G75*
G02*
X126000000Y-185035000I-225000J0D01*
G01*
X125550000Y-185035000D01*
G75*
G02*
X125325000Y-184810000I0J225000D01*
G01*
G37*
G36*
G01*
X123775000Y-184810000D02*
X123775000Y-184310000D01*
G75*
G02*
X124000000Y-184085000I225000J0D01*
G01*
X124450000Y-184085000D01*
G75*
G02*
X124675000Y-184310000I0J-225000D01*
G01*
X124675000Y-184810000D01*
G75*
G02*
X124450000Y-185035000I-225000J0D01*
G01*
X124000000Y-185035000D01*
G75*
G02*
X123775000Y-184810000I0J225000D01*
G01*
G37*
%TD*%
%TO.C,C10*%
G36*
G01*
X150325000Y-210280000D02*
X150325000Y-209780000D01*
G75*
G02*
X150550000Y-209555000I225000J0D01*
G01*
X151000000Y-209555000D01*
G75*
G02*
X151225000Y-209780000I0J-225000D01*
G01*
X151225000Y-210280000D01*
G75*
G02*
X151000000Y-210505000I-225000J0D01*
G01*
X150550000Y-210505000D01*
G75*
G02*
X150325000Y-210280000I0J225000D01*
G01*
G37*
G36*
G01*
X148775000Y-210280000D02*
X148775000Y-209780000D01*
G75*
G02*
X149000000Y-209555000I225000J0D01*
G01*
X149450000Y-209555000D01*
G75*
G02*
X149675000Y-209780000I0J-225000D01*
G01*
X149675000Y-210280000D01*
G75*
G02*
X149450000Y-210505000I-225000J0D01*
G01*
X149000000Y-210505000D01*
G75*
G02*
X148775000Y-210280000I0J225000D01*
G01*
G37*
%TD*%
%TO.C,C22*%
G36*
G01*
X75225000Y-210280000D02*
X75225000Y-209780000D01*
G75*
G02*
X75450000Y-209555000I225000J0D01*
G01*
X75900000Y-209555000D01*
G75*
G02*
X76125000Y-209780000I0J-225000D01*
G01*
X76125000Y-210280000D01*
G75*
G02*
X75900000Y-210505000I-225000J0D01*
G01*
X75450000Y-210505000D01*
G75*
G02*
X75225000Y-210280000I0J225000D01*
G01*
G37*
G36*
G01*
X73675000Y-210280000D02*
X73675000Y-209780000D01*
G75*
G02*
X73900000Y-209555000I225000J0D01*
G01*
X74350000Y-209555000D01*
G75*
G02*
X74575000Y-209780000I0J-225000D01*
G01*
X74575000Y-210280000D01*
G75*
G02*
X74350000Y-210505000I-225000J0D01*
G01*
X73900000Y-210505000D01*
G75*
G02*
X73675000Y-210280000I0J225000D01*
G01*
G37*
%TD*%
%TO.C,C11*%
G36*
G01*
X75605000Y-135450000D02*
X75605000Y-134950000D01*
G75*
G02*
X75830000Y-134725000I225000J0D01*
G01*
X76280000Y-134725000D01*
G75*
G02*
X76505000Y-134950000I0J-225000D01*
G01*
X76505000Y-135450000D01*
G75*
G02*
X76280000Y-135675000I-225000J0D01*
G01*
X75830000Y-135675000D01*
G75*
G02*
X75605000Y-135450000I0J225000D01*
G01*
G37*
G36*
G01*
X74055000Y-135450000D02*
X74055000Y-134950000D01*
G75*
G02*
X74280000Y-134725000I225000J0D01*
G01*
X74730000Y-134725000D01*
G75*
G02*
X74955000Y-134950000I0J-225000D01*
G01*
X74955000Y-135450000D01*
G75*
G02*
X74730000Y-135675000I-225000J0D01*
G01*
X74280000Y-135675000D01*
G75*
G02*
X74055000Y-135450000I0J225000D01*
G01*
G37*
%TD*%
%TO.C,C23*%
G36*
G01*
X100225000Y-210280000D02*
X100225000Y-209780000D01*
G75*
G02*
X100450000Y-209555000I225000J0D01*
G01*
X100900000Y-209555000D01*
G75*
G02*
X101125000Y-209780000I0J-225000D01*
G01*
X101125000Y-210280000D01*
G75*
G02*
X100900000Y-210505000I-225000J0D01*
G01*
X100450000Y-210505000D01*
G75*
G02*
X100225000Y-210280000I0J225000D01*
G01*
G37*
G36*
G01*
X98675000Y-210280000D02*
X98675000Y-209780000D01*
G75*
G02*
X98900000Y-209555000I225000J0D01*
G01*
X99350000Y-209555000D01*
G75*
G02*
X99575000Y-209780000I0J-225000D01*
G01*
X99575000Y-210280000D01*
G75*
G02*
X99350000Y-210505000I-225000J0D01*
G01*
X98900000Y-210505000D01*
G75*
G02*
X98675000Y-210280000I0J225000D01*
G01*
G37*
%TD*%
%TO.C,C12*%
G36*
G01*
X100605000Y-135450000D02*
X100605000Y-134950000D01*
G75*
G02*
X100830000Y-134725000I225000J0D01*
G01*
X101280000Y-134725000D01*
G75*
G02*
X101505000Y-134950000I0J-225000D01*
G01*
X101505000Y-135450000D01*
G75*
G02*
X101280000Y-135675000I-225000J0D01*
G01*
X100830000Y-135675000D01*
G75*
G02*
X100605000Y-135450000I0J225000D01*
G01*
G37*
G36*
G01*
X99055000Y-135450000D02*
X99055000Y-134950000D01*
G75*
G02*
X99280000Y-134725000I225000J0D01*
G01*
X99730000Y-134725000D01*
G75*
G02*
X99955000Y-134950000I0J-225000D01*
G01*
X99955000Y-135450000D01*
G75*
G02*
X99730000Y-135675000I-225000J0D01*
G01*
X99280000Y-135675000D01*
G75*
G02*
X99055000Y-135450000I0J225000D01*
G01*
G37*
%TD*%
%TO.C,C24*%
G36*
G01*
X125725000Y-210280000D02*
X125725000Y-209780000D01*
G75*
G02*
X125950000Y-209555000I225000J0D01*
G01*
X126400000Y-209555000D01*
G75*
G02*
X126625000Y-209780000I0J-225000D01*
G01*
X126625000Y-210280000D01*
G75*
G02*
X126400000Y-210505000I-225000J0D01*
G01*
X125950000Y-210505000D01*
G75*
G02*
X125725000Y-210280000I0J225000D01*
G01*
G37*
G36*
G01*
X124175000Y-210280000D02*
X124175000Y-209780000D01*
G75*
G02*
X124400000Y-209555000I225000J0D01*
G01*
X124850000Y-209555000D01*
G75*
G02*
X125075000Y-209780000I0J-225000D01*
G01*
X125075000Y-210280000D01*
G75*
G02*
X124850000Y-210505000I-225000J0D01*
G01*
X124400000Y-210505000D01*
G75*
G02*
X124175000Y-210280000I0J225000D01*
G01*
G37*
%TD*%
%TO.C,C_enc_1*%
G36*
G01*
X101050000Y-110725000D02*
X101550000Y-110725000D01*
G75*
G02*
X101775000Y-110950000I0J-225000D01*
G01*
X101775000Y-111400000D01*
G75*
G02*
X101550000Y-111625000I-225000J0D01*
G01*
X101050000Y-111625000D01*
G75*
G02*
X100825000Y-111400000I0J225000D01*
G01*
X100825000Y-110950000D01*
G75*
G02*
X101050000Y-110725000I225000J0D01*
G01*
G37*
G36*
G01*
X101050000Y-109175000D02*
X101550000Y-109175000D01*
G75*
G02*
X101775000Y-109400000I0J-225000D01*
G01*
X101775000Y-109850000D01*
G75*
G02*
X101550000Y-110075000I-225000J0D01*
G01*
X101050000Y-110075000D01*
G75*
G02*
X100825000Y-109850000I0J225000D01*
G01*
X100825000Y-109400000D01*
G75*
G02*
X101050000Y-109175000I225000J0D01*
G01*
G37*
%TD*%
%TO.C,C_enc_2*%
G36*
G01*
X125250000Y-110625000D02*
X125750000Y-110625000D01*
G75*
G02*
X125975000Y-110850000I0J-225000D01*
G01*
X125975000Y-111300000D01*
G75*
G02*
X125750000Y-111525000I-225000J0D01*
G01*
X125250000Y-111525000D01*
G75*
G02*
X125025000Y-111300000I0J225000D01*
G01*
X125025000Y-110850000D01*
G75*
G02*
X125250000Y-110625000I225000J0D01*
G01*
G37*
G36*
G01*
X125250000Y-109075000D02*
X125750000Y-109075000D01*
G75*
G02*
X125975000Y-109300000I0J-225000D01*
G01*
X125975000Y-109750000D01*
G75*
G02*
X125750000Y-109975000I-225000J0D01*
G01*
X125250000Y-109975000D01*
G75*
G02*
X125025000Y-109750000I0J225000D01*
G01*
X125025000Y-109300000D01*
G75*
G02*
X125250000Y-109075000I225000J0D01*
G01*
G37*
%TD*%
D11*
%TO.C,D2*%
X99110000Y-51365000D03*
X99110000Y-48635000D03*
X100890000Y-48635000D03*
X100890000Y-51365000D03*
%TD*%
%TO.C,D3*%
X124110000Y-51365000D03*
X124110000Y-48635000D03*
X125890000Y-48635000D03*
X125890000Y-51365000D03*
%TD*%
%TO.C,D4*%
X149110000Y-51365000D03*
X149110000Y-48635000D03*
X150890000Y-48635000D03*
X150890000Y-51365000D03*
%TD*%
%TO.C,D5*%
X74110000Y-76365000D03*
X74110000Y-73635000D03*
X75890000Y-73635000D03*
X75890000Y-76365000D03*
%TD*%
%TO.C,D6*%
X99110000Y-76365000D03*
X99110000Y-73635000D03*
X100890000Y-73635000D03*
X100890000Y-76365000D03*
%TD*%
%TO.C,D7*%
X124110000Y-76365000D03*
X124110000Y-73635000D03*
X125890000Y-73635000D03*
X125890000Y-76365000D03*
%TD*%
%TO.C,D8*%
X149110000Y-76365000D03*
X149110000Y-73635000D03*
X150890000Y-73635000D03*
X150890000Y-76365000D03*
%TD*%
%TO.C,D9*%
X149110000Y-176365000D03*
X149110000Y-173635000D03*
X150890000Y-173635000D03*
X150890000Y-176365000D03*
%TD*%
%TO.C,D10*%
X149110000Y-201365000D03*
X149110000Y-198635000D03*
X150890000Y-198635000D03*
X150890000Y-201365000D03*
%TD*%
%TO.C,D11*%
X74110000Y-126365000D03*
X74110000Y-123635000D03*
X75890000Y-123635000D03*
X75890000Y-126365000D03*
%TD*%
%TO.C,D12*%
X99110000Y-126365000D03*
X99110000Y-123635000D03*
X100890000Y-123635000D03*
X100890000Y-126365000D03*
%TD*%
%TO.C,D13*%
X124110000Y-126365000D03*
X124110000Y-123635000D03*
X125890000Y-123635000D03*
X125890000Y-126365000D03*
%TD*%
%TO.C,D14*%
X149110000Y-126365000D03*
X149110000Y-123635000D03*
X150890000Y-123635000D03*
X150890000Y-126365000D03*
%TD*%
%TO.C,D15*%
X74110000Y-151365000D03*
X74110000Y-148635000D03*
X75890000Y-148635000D03*
X75890000Y-151365000D03*
%TD*%
%TO.C,D16*%
X99110000Y-151365000D03*
X99110000Y-148635000D03*
X100890000Y-148635000D03*
X100890000Y-151365000D03*
%TD*%
%TO.C,D17*%
X124110000Y-151365000D03*
X124110000Y-148635000D03*
X125890000Y-148635000D03*
X125890000Y-151365000D03*
%TD*%
%TO.C,D18*%
X149110000Y-151365000D03*
X149110000Y-148635000D03*
X150890000Y-148635000D03*
X150890000Y-151365000D03*
%TD*%
%TO.C,D19*%
X74110000Y-176365000D03*
X74110000Y-173635000D03*
X75890000Y-173635000D03*
X75890000Y-176365000D03*
%TD*%
%TO.C,D20*%
X99110000Y-176365000D03*
X99110000Y-173635000D03*
X100890000Y-173635000D03*
X100890000Y-176365000D03*
%TD*%
%TO.C,D21*%
X124110000Y-176365000D03*
X124110000Y-173635000D03*
X125890000Y-173635000D03*
X125890000Y-176365000D03*
%TD*%
%TO.C,D22*%
X74110000Y-201365000D03*
X74110000Y-198635000D03*
X75890000Y-198635000D03*
X75890000Y-201365000D03*
%TD*%
%TO.C,D23*%
X99110000Y-201365000D03*
X99110000Y-198635000D03*
X100890000Y-198635000D03*
X100890000Y-201365000D03*
%TD*%
%TO.C,D24*%
X124110000Y-201365000D03*
X124110000Y-198635000D03*
X125890000Y-198635000D03*
X125890000Y-201365000D03*
%TD*%
%TO.C,D_1*%
X74110000Y-51365000D03*
X74110000Y-48635000D03*
X75890000Y-48635000D03*
X75890000Y-51365000D03*
%TD*%
D12*
%TO.C,Diode1*%
X127500000Y-35000000D03*
X122500000Y-35000000D03*
%TD*%
%TO.C,R1*%
G36*
G01*
X167325000Y-61165000D02*
X167875000Y-61165000D01*
G75*
G02*
X168075000Y-61365000I0J-200000D01*
G01*
X168075000Y-61765000D01*
G75*
G02*
X167875000Y-61965000I-200000J0D01*
G01*
X167325000Y-61965000D01*
G75*
G02*
X167125000Y-61765000I0J200000D01*
G01*
X167125000Y-61365000D01*
G75*
G02*
X167325000Y-61165000I200000J0D01*
G01*
G37*
G36*
G01*
X167325000Y-59515000D02*
X167875000Y-59515000D01*
G75*
G02*
X168075000Y-59715000I0J-200000D01*
G01*
X168075000Y-60115000D01*
G75*
G02*
X167875000Y-60315000I-200000J0D01*
G01*
X167325000Y-60315000D01*
G75*
G02*
X167125000Y-60115000I0J200000D01*
G01*
X167125000Y-59715000D01*
G75*
G02*
X167325000Y-59515000I200000J0D01*
G01*
G37*
%TD*%
%TO.C,R2*%
G36*
G01*
X103825000Y-110025000D02*
X103275000Y-110025000D01*
G75*
G02*
X103075000Y-109825000I0J200000D01*
G01*
X103075000Y-109425000D01*
G75*
G02*
X103275000Y-109225000I200000J0D01*
G01*
X103825000Y-109225000D01*
G75*
G02*
X104025000Y-109425000I0J-200000D01*
G01*
X104025000Y-109825000D01*
G75*
G02*
X103825000Y-110025000I-200000J0D01*
G01*
G37*
G36*
G01*
X103825000Y-111675000D02*
X103275000Y-111675000D01*
G75*
G02*
X103075000Y-111475000I0J200000D01*
G01*
X103075000Y-111075000D01*
G75*
G02*
X103275000Y-110875000I200000J0D01*
G01*
X103825000Y-110875000D01*
G75*
G02*
X104025000Y-111075000I0J-200000D01*
G01*
X104025000Y-111475000D01*
G75*
G02*
X103825000Y-111675000I-200000J0D01*
G01*
G37*
%TD*%
%TO.C,R3*%
G36*
G01*
X105965000Y-110235000D02*
X105415000Y-110235000D01*
G75*
G02*
X105215000Y-110035000I0J200000D01*
G01*
X105215000Y-109635000D01*
G75*
G02*
X105415000Y-109435000I200000J0D01*
G01*
X105965000Y-109435000D01*
G75*
G02*
X106165000Y-109635000I0J-200000D01*
G01*
X106165000Y-110035000D01*
G75*
G02*
X105965000Y-110235000I-200000J0D01*
G01*
G37*
G36*
G01*
X105965000Y-111885000D02*
X105415000Y-111885000D01*
G75*
G02*
X105215000Y-111685000I0J200000D01*
G01*
X105215000Y-111285000D01*
G75*
G02*
X105415000Y-111085000I200000J0D01*
G01*
X105965000Y-111085000D01*
G75*
G02*
X106165000Y-111285000I0J-200000D01*
G01*
X106165000Y-111685000D01*
G75*
G02*
X105965000Y-111885000I-200000J0D01*
G01*
G37*
%TD*%
%TO.C,R4*%
G36*
G01*
X122275000Y-109875000D02*
X121725000Y-109875000D01*
G75*
G02*
X121525000Y-109675000I0J200000D01*
G01*
X121525000Y-109275000D01*
G75*
G02*
X121725000Y-109075000I200000J0D01*
G01*
X122275000Y-109075000D01*
G75*
G02*
X122475000Y-109275000I0J-200000D01*
G01*
X122475000Y-109675000D01*
G75*
G02*
X122275000Y-109875000I-200000J0D01*
G01*
G37*
G36*
G01*
X122275000Y-111525000D02*
X121725000Y-111525000D01*
G75*
G02*
X121525000Y-111325000I0J200000D01*
G01*
X121525000Y-110925000D01*
G75*
G02*
X121725000Y-110725000I200000J0D01*
G01*
X122275000Y-110725000D01*
G75*
G02*
X122475000Y-110925000I0J-200000D01*
G01*
X122475000Y-111325000D01*
G75*
G02*
X122275000Y-111525000I-200000J0D01*
G01*
G37*
%TD*%
%TO.C,R5*%
G36*
G01*
X123425000Y-110725000D02*
X123975000Y-110725000D01*
G75*
G02*
X124175000Y-110925000I0J-200000D01*
G01*
X124175000Y-111325000D01*
G75*
G02*
X123975000Y-111525000I-200000J0D01*
G01*
X123425000Y-111525000D01*
G75*
G02*
X123225000Y-111325000I0J200000D01*
G01*
X123225000Y-110925000D01*
G75*
G02*
X123425000Y-110725000I200000J0D01*
G01*
G37*
G36*
G01*
X123425000Y-109075000D02*
X123975000Y-109075000D01*
G75*
G02*
X124175000Y-109275000I0J-200000D01*
G01*
X124175000Y-109675000D01*
G75*
G02*
X123975000Y-109875000I-200000J0D01*
G01*
X123425000Y-109875000D01*
G75*
G02*
X123225000Y-109675000I0J200000D01*
G01*
X123225000Y-109275000D01*
G75*
G02*
X123425000Y-109075000I200000J0D01*
G01*
G37*
%TD*%
%TO.C,R19*%
G36*
G01*
X81435000Y-59445000D02*
X80885000Y-59445000D01*
G75*
G02*
X80685000Y-59245000I0J200000D01*
G01*
X80685000Y-58845000D01*
G75*
G02*
X80885000Y-58645000I200000J0D01*
G01*
X81435000Y-58645000D01*
G75*
G02*
X81635000Y-58845000I0J-200000D01*
G01*
X81635000Y-59245000D01*
G75*
G02*
X81435000Y-59445000I-200000J0D01*
G01*
G37*
G36*
G01*
X81435000Y-61095000D02*
X80885000Y-61095000D01*
G75*
G02*
X80685000Y-60895000I0J200000D01*
G01*
X80685000Y-60495000D01*
G75*
G02*
X80885000Y-60295000I200000J0D01*
G01*
X81435000Y-60295000D01*
G75*
G02*
X81635000Y-60495000I0J-200000D01*
G01*
X81635000Y-60895000D01*
G75*
G02*
X81435000Y-61095000I-200000J0D01*
G01*
G37*
%TD*%
D13*
%TO.C,Tension_reg1*%
X113925000Y-35025000D03*
X117275000Y-31975000D03*
X113925000Y-31975000D03*
X117275000Y-35025000D03*
D14*
X109300000Y-35780000D03*
X109300000Y-31220000D03*
%TD*%
M02*
